<svg width="25" height="24" viewBox="0 0 25 24" fill="none" xmlns="http://www.w3.org/2000/svg">
<path d="M13.997 16.7405H7.35954C6.47661 16.7415 5.63014 17.0927 5.00582 17.717C4.3815 18.3414 4.03031 19.1878 4.0293 20.0708C4.0293 20.4432 4.3317 20.7456 4.70418 20.7456H16.6514C16.7401 20.7458 16.8279 20.7284 16.9099 20.6945C16.9919 20.6607 17.0664 20.611 17.1292 20.5483C17.192 20.4856 17.2418 20.4112 17.2758 20.3292C17.3097 20.2473 17.3272 20.1595 17.3272 20.0708C17.3262 19.1877 16.9749 18.3411 16.3504 17.7167C15.7258 17.0924 14.8791 16.7413 13.996 16.7405H13.997ZM5.4981 19.3959C5.63708 19.0137 5.8902 18.6834 6.22316 18.4499C6.55613 18.2163 6.95284 18.0908 7.35954 18.0903H13.997C14.8514 18.0903 15.581 18.6356 15.8584 19.3959H5.4981ZM21.1115 15.6106L16.2789 10.778L18.4562 8.60068C18.519 8.53799 18.5688 8.46355 18.6028 8.38159C18.6367 8.29964 18.6542 8.21179 18.6542 8.12308C18.6542 8.03436 18.6367 7.94651 18.6028 7.86456C18.5688 7.78261 18.519 7.70816 18.4562 7.64548L14.4741 3.6634C14.3475 3.53689 14.1759 3.46582 13.997 3.46582C13.818 3.46582 13.6464 3.53689 13.5199 3.6634L8.20914 8.97316C8.14635 9.03584 8.09654 9.11029 8.06256 9.19224C8.02857 9.27419 8.01108 9.36204 8.01108 9.45076C8.01108 9.53947 8.02857 9.62732 8.06256 9.70928C8.09654 9.79123 8.14635 9.86567 8.20914 9.92836L12.1922 13.9104C12.4552 14.1744 12.8834 14.1744 13.1464 13.9104L15.3247 11.7332L20.1573 16.5658C20.284 16.6923 20.4557 16.7634 20.6348 16.7633C20.8138 16.7632 20.9855 16.692 21.112 16.5653C21.2386 16.4386 21.3096 16.2669 21.3095 16.0879C21.3094 15.9088 21.2382 15.7371 21.1115 15.6106ZM12.6693 12.48L9.64146 9.45028L13.997 5.09572L17.0248 8.12356L12.6693 12.4791V12.48Z" fill="#24272C" fill-opacity="0.7"/>
</svg>
