<svg width="24" height="24" viewBox="0 0 24 24" fill="none" xmlns="http://www.w3.org/2000/svg">
<path d="M4.32031 12.243C4.32031 11.7338 4.5226 11.2454 4.88267 10.8854C5.24274 10.5253 5.7311 10.323 6.24031 10.323H17.2122C17.7214 10.323 18.2097 10.5253 18.5698 10.8854C18.9299 11.2454 19.1322 11.7338 19.1322 12.243V16.4939H4.32031V12.243ZM6.42463 6.84014C6.52846 6.42477 6.76814 6.05602 7.10559 5.7925C7.44304 5.52898 7.85888 5.38581 8.28703 5.38574H15.1635C15.5917 5.38581 16.0075 5.52898 16.345 5.7925C16.6824 6.05602 16.9221 6.42477 17.0259 6.84014L17.8966 10.323H5.55391L6.42463 6.84014Z" stroke="#24272C" stroke-opacity="0.7" stroke-width="1.44" stroke-linejoin="round"/>
<path d="M6.17188 16.4936V18.9618M17.8983 16.4936V18.9618M10.4919 13.4082H12.9591M6.78628 13.4082H6.94084M16.6599 13.4082H16.8144" stroke="#24272C" stroke-opacity="0.7" stroke-width="1.44" stroke-linecap="round"/>
</svg>
