<svg width="36" height="37" viewBox="0 0 36 37" fill="none" xmlns="http://www.w3.org/2000/svg">
<g clip-path="url(#clip0_781_32902)">
<path d="M18 36.8955C27.9411 36.8955 36 28.8366 36 18.8955C36 8.95438 27.9411 0.895508 18 0.895508C8.05887 0.895508 0 8.95438 0 18.8955C0 28.8366 8.05887 36.8955 18 36.8955Z" fill="#FCEEEA"/>
<mask id="mask0_781_32902" style="mask-type:luminance" maskUnits="userSpaceOnUse" x="6" y="7" width="24" height="24">
<path d="M6.75 7.64551H29.25V30.1455H6.75V7.64551Z" fill="white"/>
</mask>
<g mask="url(#mask0_781_32902)">
<path d="M16.7637 20.1247C17.7153 21.0767 18.7907 21.8963 19.961 22.5615L21.1512 21.3712C21.4061 21.1193 21.7279 20.9456 22.0784 20.8709C22.4289 20.7961 22.7935 20.8233 23.129 20.9493C23.9795 21.2666 24.8637 21.4871 25.7637 21.6052C26.2142 21.669 26.6261 21.8945 26.9227 22.2395C27.2193 22.5845 27.3804 23.0256 27.3758 23.4806V26.2931C27.3771 26.5543 27.3237 26.8128 27.2191 27.0522C27.1146 27.2916 26.9612 27.5064 26.7687 27.683C26.5762 27.8596 26.349 27.994 26.1015 28.0776C25.854 28.1612 25.5918 28.1921 25.3317 28.1685C22.4471 27.8546 19.6763 26.8686 17.2418 25.2896C16.1125 24.5724 15.0655 23.7329 14.12 22.7865M11.6168 19.6556C10.0376 17.2209 9.05158 14.4496 8.73798 11.5646C8.71471 11.3053 8.74566 11.0441 8.82887 10.7975C8.91207 10.5508 9.0457 10.3242 9.22125 10.1321C9.39681 9.9399 9.61044 9.78638 9.84856 9.68127C10.0867 9.57617 10.3441 9.52178 10.6044 9.52158H13.4169C13.8718 9.51707 14.3129 9.67812 14.6579 9.97472C15.0029 10.2713 15.2284 10.6832 15.2922 11.1337C15.4103 12.0337 15.6297 12.918 15.9481 13.7685C16.0741 14.104 16.1013 14.4686 16.0266 14.8191C15.9518 15.1696 15.7782 15.4913 15.5262 15.7462L14.3349 16.9365" fill="white"/>
<path d="M16.7637 20.1247C17.7153 21.0767 18.7907 21.8963 19.961 22.5615L21.1512 21.3712C21.4061 21.1193 21.7279 20.9456 22.0784 20.8709C22.4289 20.7961 22.7935 20.8233 23.129 20.9493C23.9795 21.2666 24.8637 21.4871 25.7637 21.6052C26.2142 21.669 26.6261 21.8945 26.9227 22.2395C27.2193 22.5845 27.3804 23.0256 27.3758 23.4806V26.2931C27.3771 26.5543 27.3237 26.8128 27.2191 27.0522C27.1146 27.2916 26.9612 27.5064 26.7687 27.683C26.5762 27.8596 26.349 27.994 26.1015 28.0776C25.854 28.1612 25.5918 28.1921 25.3317 28.1685C22.4471 27.8546 19.6763 26.8686 17.2418 25.2896C16.1125 24.5724 15.0655 23.7329 14.12 22.7865M11.6168 19.6556C10.0376 17.2209 9.05158 14.4496 8.73798 11.5646C8.71471 11.3053 8.74566 11.0441 8.82887 10.7975C8.91207 10.5508 9.0457 10.3242 9.22125 10.1321C9.39681 9.9399 9.61044 9.78638 9.84856 9.68127C10.0867 9.57617 10.3441 9.52178 10.6044 9.52158H13.4169C13.8718 9.51707 14.3129 9.67812 14.6579 9.97472C15.0029 10.2713 15.2284 10.6832 15.2922 11.1337C15.4103 12.0337 15.6297 12.918 15.9481 13.7685C16.0741 14.104 16.1013 14.4686 16.0266 14.8191C15.9518 15.1696 15.7782 15.4913 15.5262 15.7462L14.3349 16.9365" stroke="#0B66FA" stroke-width="1.575" stroke-linecap="round" stroke-linejoin="round"/>
<path d="M28.3102 8.58301L7.68555 29.2088" stroke="#0B66FA" stroke-width="1.575" stroke-linecap="round" stroke-linejoin="round"/>
</g>
</g>
<defs>
<clipPath id="clip0_781_32902">
<rect width="36" height="36" fill="white" transform="translate(0 0.895508)"/>
</clipPath>
</defs>
</svg>
