<svg width="915" height="460" viewBox="0 0 915 460" fill="none" xmlns="http://www.w3.org/2000/svg">
<g clip-path="url(#clip0_781_22027)">
<g opacity="0.05">
<path d="M485.68 457.584C485.5 449.469 482.172 441.91 476.307 436.299C470.442 430.687 462.742 427.697 454.629 427.875C446.515 428.055 438.956 431.384 433.344 437.249C427.732 443.114 424.748 450.838 424.921 458.926C424.928 459.124 425.013 459.312 425.157 459.45C425.3 459.587 425.492 459.663 425.691 459.661H436.127C436.67 459.661 437.075 459.2 437.062 458.658C436.925 453.79 438.75 449.166 442.118 445.643C443.77 443.907 445.751 442.516 447.944 441.55C450.138 440.584 452.501 440.063 454.897 440.017C457.293 439.957 459.677 440.373 461.911 441.241C464.145 442.109 466.185 443.411 467.912 445.073C469.648 446.725 471.04 448.705 472.006 450.899C472.972 453.092 473.493 455.455 473.539 457.852C473.56 458.829 474.323 459.661 475.3 459.661H484.255C485.036 459.661 485.687 459.045 485.687 458.264C485.687 458.038 485.685 457.811 485.68 457.584Z" fill="#62D569"/>
<path d="M521.475 454.289C521.475 451.895 521.221 449.394 520.712 446.74C520.194 444.036 519.608 441.155 518.655 438.286C516.57 432.007 513.213 425.779 508.681 419.778C506.235 416.541 503.797 413.903 501.226 411.714L500.568 411.226C492.283 405.912 483.033 404.608 474.088 403.346C473.21 403.223 472.333 403.1 471.46 402.973C467.236 402.357 463.313 399.996 459.159 397.496C458.079 396.839 456.992 396.196 455.898 395.565C443.683 388.637 426.668 395.384 415.227 405.143C410.301 409.345 407.737 414.779 405.474 419.571C404.841 420.912 404.224 422.218 403.578 423.461C402.424 425.676 400.548 427.381 398.737 429.101C395.968 431.73 393.72 435.074 392.124 438.971C390.061 443.973 389.194 449.585 389.609 455.202C389.636 455.562 389.696 455.92 389.786 456.271C390.3 458.36 392.304 459.661 394.455 459.661H398.385C400.999 459.661 402.543 456.631 401.785 454.129C401.717 453.905 401.679 453.674 401.671 453.441C401.539 450.036 402.129 446.565 403.357 443.587C404.706 440.292 406.636 437.867 409.095 436.375C409.761 435.97 410.344 435.441 410.81 434.817C413.248 431.552 414.878 428.096 416.456 424.754C418.447 420.536 420.167 416.891 423.109 414.383C431.113 407.554 443.228 402.341 449.887 406.118C450.89 406.692 451.891 407.295 452.896 407.9C457.664 410.77 463.067 414.021 469.708 414.989C470.599 415.119 471.494 415.245 472.392 415.371C479.625 416.392 486.494 417.36 492.216 420.399C493.198 420.921 494.096 421.589 494.891 422.367C496.252 423.702 497.605 425.264 498.99 427.097C502.724 432.041 505.464 437.094 507.131 442.113C507.851 444.283 508.343 446.719 508.786 449.026C509.397 452.21 509.493 454.971 509.078 457.468L509.004 458.126C508.962 458.894 509.415 459.661 510.184 459.661H520.539C520.679 459.662 520.815 459.612 520.92 459.518C521.024 459.425 521.09 459.296 521.105 459.157C521.351 457.576 521.475 455.958 521.475 454.289Z" fill="#62D569"/>
<path d="M556.305 441.127C555.486 436.823 554.641 432.374 553.198 428.014C550.038 418.469 544.811 408.849 537.659 399.425C533.817 394.359 530.039 390.326 526.109 387.094C525.845 386.878 525.564 386.685 525.269 386.516C513.355 379.693 500.071 378.608 487.225 377.558C484.406 377.328 481.743 377.111 479.082 376.833C471.173 376.008 464.567 370.748 457.573 365.178C456.644 364.437 455.712 363.699 454.777 362.966C438.162 349.975 411.698 360.489 394.138 375.754C387.242 381.751 384.118 389.433 381.097 396.864C379.819 400.01 378.583 403.051 377.105 405.824C375.6 408.647 372.963 410.59 370.338 412.418C365.341 415.9 361.278 420.847 358.416 426.989C355.009 434.27 353.539 442.884 354.282 451.25C354.317 451.652 354.393 452.051 354.509 452.438C354.956 453.951 355.504 455.433 356.147 456.874C356.931 458.629 358.732 459.661 360.654 459.661H361.163C365.529 459.661 367.99 454.27 366.532 450.155C366.395 449.765 366.314 449.357 366.291 448.945C365.972 443.081 367.068 437.156 369.42 432.128C372.058 426.466 375.881 422.533 380.785 420.437C381.677 420.056 382.465 419.468 383.082 418.72C387.495 413.379 389.961 407.307 392.349 401.436C394.946 395.046 397.399 389.01 402.105 384.919C414.106 374.486 436.058 363.746 447.295 372.531C448.198 373.238 449.102 373.957 450.008 374.678C457.684 380.79 466.384 387.719 477.822 388.912C480.618 389.203 483.475 389.436 486.237 389.662C497.393 390.573 507.974 391.436 517.074 395.907C518.23 396.477 519.299 397.21 520.248 398.084C522.813 400.435 525.313 403.244 527.985 406.765C534.328 415.122 538.931 423.555 541.67 431.83C542.86 435.428 543.597 439.298 544.379 443.417C545.441 449 545.502 453.613 544.58 457.936L544.464 458.748C544.428 459.217 544.757 459.661 545.227 459.661H551.808C554.596 459.661 557.035 457.682 557.242 454.902C557.321 453.833 557.362 452.747 557.362 451.641C557.362 448.324 557.009 444.836 556.305 441.127Z" fill="#62D569"/>
<path d="M591.919 435.557L591.776 434.8C590.713 429.183 589.615 423.374 587.753 417.741C583.52 404.929 576.423 391.921 566.656 379.077C561.358 372.109 556.399 366.845 551.05 362.514C550.761 362.281 550.452 362.074 550.126 361.896C534.422 353.37 516.848 352.441 499.85 351.542C495.343 351.303 491.085 351.079 486.852 350.714C475.001 349.7 465.694 341.33 455.843 332.468C454.966 331.682 454.093 330.896 453.22 330.118C430.791 310.13 393.008 328.871 373.085 346.344C364.197 354.14 360.354 364.353 356.641 374.23C354.66 379.492 352.756 384.553 350.17 389.018C348.424 392.032 345.455 394.018 342.426 395.738C334.952 399.981 328.885 406.589 324.665 415.15C319.926 424.729 317.901 436.131 318.964 447.252C319.006 447.686 319.094 448.114 319.226 448.529C320.196 451.547 321.486 454.453 323.073 457.197C323.976 458.764 325.683 459.662 327.492 459.662C332.237 459.662 334.828 453.73 332.699 449.489C332.169 448.434 331.697 447.351 331.285 446.245C331.087 445.709 330.968 445.147 330.933 444.577C330.394 436.167 332.014 427.685 335.553 420.527C339.558 412.402 345.397 406.925 352.91 404.245C353.897 403.891 354.777 403.289 355.463 402.497C361.692 395.291 364.902 386.757 368.007 378.505C371.341 369.638 374.491 361.264 381.091 355.474C398.321 340.363 429.583 325.319 445.142 339.184C446 339.95 446.859 340.723 447.722 341.498C458.119 350.851 469.907 361.452 485.815 362.815C490.245 363.195 494.803 363.436 499.21 363.669C513.962 364.449 529.188 365.255 542.019 371.39C543.241 371.978 544.376 372.732 545.393 373.63C549.248 377.029 552.98 381.154 556.988 386.427C565.941 398.2 572.411 410.018 576.223 421.551C577.831 426.42 578.809 431.586 579.843 437.056L579.986 437.816C581.497 445.792 581.523 452.384 580.072 458.56C580.004 458.847 579.957 459.14 579.931 459.434C579.927 459.462 579.929 459.491 579.937 459.518C579.945 459.546 579.959 459.571 579.978 459.592C579.996 459.614 580.019 459.631 580.045 459.643C580.071 459.655 580.099 459.662 580.128 459.662H587.11C590.09 459.662 592.695 457.56 592.995 454.595C593.177 452.791 593.271 450.949 593.271 449.061C593.271 444.801 592.82 440.319 591.919 435.557Z" fill="#62D569"/>
<path d="M627.518 429.957L627.251 428.539C625.941 421.584 624.586 414.392 622.298 407.462C616.992 391.39 608.025 374.994 595.646 358.729C588.953 349.934 582.707 343.328 575.993 337.942C575.691 337.699 575.365 337.485 575.022 337.305C555.5 327.026 533.573 326.232 512.368 325.464C506.222 325.242 500.417 325.032 494.66 324.599C478.766 323.407 466.203 311.305 454.051 299.603L451.517 297.166C424.415 271.21 377.173 294.762 352.03 316.925C341.152 326.515 336.579 339.26 332.157 351.587C329.464 359.089 326.885 366.277 323.014 372.471C321.091 375.548 317.947 377.543 314.689 379.141C304.639 384.071 296.49 392.332 290.88 403.359C284.832 415.216 282.261 429.374 283.635 443.233C283.68 443.684 283.775 444.13 283.919 444.559C285.511 449.318 287.675 453.54 290.229 457.38C291.197 458.836 292.855 459.66 294.604 459.66C299.491 459.66 302.101 453.549 299.53 449.393C298.149 447.17 296.979 444.823 296.037 442.382C295.776 441.696 295.617 440.976 295.568 440.244C294.797 429.255 296.952 418.181 301.701 408.872C307.102 398.256 314.999 391.227 325.174 387.978C326.214 387.647 327.146 387.041 327.87 386.224C335.861 377.22 339.788 366.274 343.586 355.687C347.671 344.307 351.526 333.557 360.061 326.035C382.557 306.204 423.198 286.858 443.117 305.936L445.628 308.349C458.689 320.93 473.493 335.189 493.751 336.709C499.742 337.159 505.937 337.384 511.927 337.6C530.854 338.285 550.395 338.993 566.974 346.855C568.229 347.453 569.399 348.216 570.452 349.125C575.625 353.576 580.613 359.028 585.983 366.085C597.544 381.275 605.882 396.477 610.766 411.269C612.801 417.433 614.023 423.919 615.316 430.787L615.585 432.211C617.546 442.599 617.533 451.185 615.541 459.233C615.529 459.284 615.528 459.337 615.539 459.388C615.55 459.439 615.572 459.487 615.605 459.528C615.637 459.569 615.678 459.602 615.725 459.625C615.772 459.648 615.824 459.66 615.876 459.66H623.016C625.838 459.66 628.302 457.678 628.663 454.878C629.014 452.161 629.196 449.388 629.196 446.524C629.196 441.345 628.636 435.88 627.518 429.957Z" fill="#62D569"/>
<path d="M663.117 424.362L662.74 422.347C661.18 414.031 659.566 405.434 656.844 397.185C650.465 377.852 639.63 358.069 624.637 338.384C616.548 327.763 609.019 319.818 600.949 313.38C600.637 313.131 600.302 312.914 599.947 312.731C576.591 300.678 550.288 300.012 524.852 299.367C517.089 299.17 509.756 298.985 502.492 298.489C482.506 297.126 467.118 281.638 452.235 266.661L449.753 264.165C435.541 249.916 414.402 246.544 388.62 254.413C369.285 260.314 347.739 272.686 330.982 287.506C318.117 298.885 312.805 314.164 307.669 328.938C304.264 338.736 301.008 348.102 295.74 356.031C293.683 359.126 290.435 361.12 287.033 362.615C274.364 368.184 264.099 378.085 257.084 391.594C249.736 405.723 246.619 422.633 248.307 439.209C248.355 439.672 248.455 440.129 248.606 440.569C250.797 446.944 253.868 452.504 257.513 457.508C258.517 458.886 260.139 459.661 261.844 459.661C266.825 459.661 269.445 453.427 266.6 449.338C264.291 446.022 262.322 442.454 260.794 438.537C260.471 437.703 260.274 436.826 260.211 435.935C259.233 422.505 261.98 408.5 267.861 397.194C274.672 384.076 284.648 375.494 297.511 371.688C298.583 371.371 299.547 370.764 300.296 369.934C310.022 359.16 314.657 345.823 319.141 332.926C323.976 319.014 328.544 305.875 339.028 296.603C366.808 272.031 416.862 248.384 441.154 272.74L443.622 275.22C459.322 291.021 477.116 308.931 501.665 310.605C509.188 311.118 516.995 311.317 524.546 311.507C547.681 312.094 571.577 312.699 591.94 322.318C593.214 322.921 594.403 323.689 595.478 324.601C601.98 330.104 608.232 336.888 614.976 345.743C629.149 364.352 639.356 382.941 645.313 400.991C647.78 408.469 649.249 416.298 650.804 424.585L651.185 426.613C652.983 436.15 653.406 444.456 652.458 452.174C651.987 456.015 654.819 459.661 658.688 459.661C661.506 459.661 663.963 457.686 664.356 454.895C664.854 451.358 665.105 447.738 665.104 443.988C665.104 437.856 664.443 431.38 663.117 424.362Z" fill="#62D569"/>
<path d="M698.72 418.764L698.224 416.122C696.415 406.457 694.545 396.465 691.393 386.907C683.939 364.31 671.233 341.14 653.63 318.041C644.144 305.593 635.335 296.307 625.906 288.818C625.588 288.566 625.246 288.346 624.884 288.161C597.691 274.327 567.003 273.784 537.325 273.257C527.954 273.092 519.101 272.935 510.337 272.378C486.233 270.849 468.02 251.95 450.408 233.675L447.959 231.135C411.784 193.7 344.102 227.797 309.936 258.083C295.086 271.247 289.034 289.06 283.181 306.285C279.063 318.407 275.133 329.973 268.394 339.637C266.236 342.732 262.92 344.724 259.42 346.136C244.107 352.315 231.709 363.845 223.285 379.842C214.64 396.236 210.978 415.891 212.98 435.181C213.028 435.651 213.132 436.114 213.287 436.56C216.085 444.557 220.095 451.447 224.871 457.597C225.898 458.92 227.494 459.661 229.168 459.661C234.222 459.661 236.848 453.336 233.809 449.299C230.481 444.877 227.667 440.069 225.548 434.693C225.166 433.716 224.932 432.688 224.854 431.641C223.635 415.642 226.937 398.952 234.028 385.503C242.259 369.874 254.323 359.741 269.888 355.383C270.982 355.077 271.968 354.47 272.734 353.631C284.178 341.102 289.516 325.388 294.679 310.192C300.268 293.74 305.549 278.201 317.993 267.17C351.07 237.848 410.553 209.9 439.225 239.575L441.663 242.101C459.989 261.117 480.76 282.67 509.568 284.498C518.609 285.073 528.014 285.238 537.111 285.399C564.477 285.885 592.742 286.385 616.91 297.778C618.194 298.385 619.395 299.154 620.484 300.065C628.325 306.618 635.845 314.738 643.97 325.402C660.754 347.426 672.83 369.4 679.86 390.711C682.757 399.497 684.472 408.657 686.287 418.356L686.785 421.011C688.984 432.676 689.434 442.791 688.141 452.191C687.614 456.026 690.452 459.661 694.323 459.661C697.145 459.661 699.604 457.685 700.025 454.894C700.682 450.545 701.014 446.089 701.014 441.459C701.014 434.373 700.249 426.881 698.72 418.764Z" fill="#62D569"/>
<path d="M734.32 413.165L733.708 409.903C731.65 398.887 729.522 387.496 725.938 376.629C717.412 350.774 702.839 324.217 682.622 297.695C671.74 283.423 661.651 272.799 650.868 264.26C650.545 264.004 650.196 263.782 649.828 263.596C618.795 247.974 583.716 247.55 549.791 247.141C538.815 247.009 528.449 246.883 518.19 246.268C489.949 244.575 468.914 222.25 448.572 200.66L446.145 198.086C405.338 154.865 328.033 193.901 288.891 228.658C272.056 243.607 265.262 263.951 258.691 283.627C253.861 298.089 249.259 311.868 241.002 323.266C238.764 326.355 235.4 328.345 231.829 329.69C213.86 336.457 199.317 349.609 189.48 368.095C179.54 386.753 175.339 409.149 177.651 431.149C177.701 431.624 177.808 432.092 177.968 432.542C181.379 442.166 186.354 450.375 192.288 457.664C193.331 458.944 194.907 459.66 196.558 459.66C201.667 459.66 204.295 453.269 201.113 449.273C196.722 443.758 193.026 437.714 190.304 430.858C189.861 429.735 189.589 428.552 189.497 427.348C188.043 408.771 191.893 389.395 200.198 373.803C209.854 355.661 224.013 343.975 242.284 339.071C243.394 338.773 244.397 338.167 245.176 337.321C258.329 323.047 264.368 304.962 270.209 287.473C276.554 268.477 282.547 250.532 296.954 237.739C335.336 203.656 404.257 171.41 437.316 206.423L439.733 208.988C460.676 231.215 484.413 256.409 517.464 258.39C528.01 259.023 539.009 259.156 549.644 259.284C581.247 259.666 613.895 260.059 641.877 273.231C643.17 273.842 644.381 274.612 645.481 275.525C654.662 283.129 663.454 292.585 672.963 305.058C692.36 330.503 706.303 355.863 714.405 380.432C717.733 390.526 719.695 401.022 721.771 412.134L722.384 415.412C724.98 429.197 725.457 441.119 723.812 452.203C723.244 456.032 726.088 459.66 729.959 459.66C732.784 459.66 735.244 457.684 735.688 454.893C736.509 449.733 736.925 444.44 736.925 438.928C736.925 430.885 736.055 422.382 734.32 413.165Z" fill="#62D569"/>
<path d="M769.922 407.566L769.193 403.674C766.885 391.31 764.497 378.525 760.485 366.353C750.886 337.236 734.443 307.292 711.613 277.352C699.343 261.26 687.972 249.297 675.829 239.703C675.502 239.446 675.15 239.222 674.778 239.036C639.903 221.622 600.428 221.316 562.253 221.021C549.676 220.924 537.796 220.832 526.048 220.16C493.656 218.305 469.798 192.541 446.725 167.624L444.32 165.028C398.881 116.039 311.961 160.01 267.846 199.235C249.03 215.967 241.491 238.843 234.2 260.967C228.661 277.777 223.388 293.779 213.579 306.909C211.277 309.991 207.875 311.981 204.251 313.27C183.618 320.612 166.924 335.38 155.672 356.357C144.443 377.276 139.701 402.404 142.322 427.117C142.373 427.596 142.481 428.07 142.643 428.523C146.673 439.775 152.629 449.299 159.739 457.719C160.791 458.966 162.35 459.661 163.981 459.661C169.127 459.661 171.755 453.226 168.469 449.265C162.991 442.66 158.393 435.379 155.059 427.024C154.557 425.758 154.247 424.424 154.141 423.066C152.441 401.913 156.847 379.844 166.372 362.099C177.455 341.44 193.713 328.202 214.698 322.755C215.82 322.464 216.835 321.858 217.623 321.007C232.479 304.994 239.216 284.544 245.734 264.768C252.834 243.222 259.541 222.871 275.915 208.31C319.605 169.464 397.973 132.918 435.416 173.286L437.814 175.875C461.372 201.315 488.072 230.149 525.352 232.283C537.403 232.974 549.988 233.071 562.158 233.165C598.005 233.442 635.038 233.727 666.845 248.685C668.145 249.297 669.364 250.069 670.473 250.983C681.001 259.641 691.066 270.432 701.957 284.715C723.966 313.579 739.776 342.325 748.951 370.155C752.709 381.555 754.917 393.381 757.255 405.903L757.986 409.812C760.979 425.723 761.478 439.453 759.48 452.216C758.882 456.04 761.729 459.661 765.599 459.661C768.427 459.661 770.886 457.685 771.348 454.895C772.335 448.927 772.834 442.798 772.834 436.403C772.833 427.405 771.862 417.885 769.922 407.566Z" fill="#62D569"/>
<path d="M805.524 401.969L804.688 397.503C802.128 383.771 799.481 369.572 795.032 356.075C784.359 323.696 766.048 290.365 740.607 257.008C726.943 239.094 714.293 225.792 700.795 215.148C700.466 214.888 700.11 214.663 699.734 214.476C661.015 195.267 617.14 195.079 574.71 194.898C560.537 194.838 547.149 194.779 533.909 194.05C497.362 192.036 470.681 162.824 444.877 134.575L442.488 131.962C392.416 77.215 295.888 126.122 246.805 169.81C226.005 188.323 217.722 213.732 209.711 238.305C203.463 257.472 197.519 275.702 186.133 290.562C183.78 293.633 180.35 295.621 176.686 296.865C153.381 304.773 134.531 321.153 121.863 344.62C109.528 367.464 104.106 396.059 106.995 423.081C107.047 423.564 107.157 424.04 107.322 424.498C111.972 437.384 118.929 448.215 127.231 457.763C127.757 458.363 128.407 458.843 129.134 459.17C129.862 459.498 130.652 459.665 131.45 459.661C136.626 459.661 139.251 453.192 135.882 449.262C129.291 441.574 123.77 433.059 119.817 423.194C119.255 421.783 118.908 420.297 118.787 418.783C116.848 395.045 121.805 370.286 132.55 350.39C145.061 327.213 163.421 312.424 187.122 306.435C188.254 306.15 189.279 305.543 190.075 304.689C206.628 286.94 214.066 264.129 221.257 242.069C229.112 217.972 236.533 195.211 254.878 178.881C303.878 135.269 391.697 94.421 433.528 140.157L435.911 142.766C462.08 171.416 491.74 203.888 533.241 206.176C546.789 206.922 560.957 206.983 574.659 207.042C614.753 207.214 656.18 207.39 691.816 224.137C693.12 224.751 694.344 225.524 695.46 226.437C707.334 236.147 718.673 248.275 730.95 264.373C755.571 296.653 773.249 328.785 783.499 359.877C787.693 372.599 790.149 385.777 792.75 399.727L793.589 404.212C796.979 422.247 797.505 437.784 795.149 452.228C794.526 456.047 797.374 459.661 801.243 459.661C804.071 459.661 806.53 457.685 807.005 454.897C808.16 448.12 808.745 441.155 808.745 433.877C808.745 423.923 807.67 413.387 805.524 401.969Z" fill="#62D569"/>
<path d="M841.12 396.371L840.172 391.293C837.362 376.208 834.457 360.608 829.575 345.798C817.664 309.655 798.044 273.957 769.596 236.666C754.539 216.928 740.609 202.288 725.755 190.593C725.423 190.331 725.065 190.105 724.687 189.918C682.125 168.914 633.849 168.843 587.162 168.773C571.392 168.751 556.497 168.728 541.768 167.942C501.058 165.769 471.556 133.109 443.025 101.522L440.646 98.8888C416.307 71.9738 378.745 65.1868 332.019 79.2618C296.402 89.9908 256.679 112.84 225.758 140.385C202.976 160.681 193.947 188.622 185.216 215.642C178.26 237.168 171.647 257.631 158.667 274.219C156.271 277.283 152.819 279.269 149.121 280.475C123.143 288.941 102.133 306.932 88.05 332.889C74.444 357.957 68.469 389.361 71.663 419.047C71.716 419.533 71.827 420.012 71.993 420.471C77.266 434.991 85.23 447.127 94.729 457.799C95.258 458.388 95.9057 458.859 96.6296 459.18C97.3534 459.501 98.1371 459.665 98.929 459.662C104.134 459.662 106.757 453.163 103.319 449.256C95.603 440.49 89.146 430.747 84.57 419.367C83.9481 417.811 83.5632 416.171 83.428 414.502C81.248 388.18 86.758 360.727 98.723 338.681C112.666 312.984 133.13 296.644 159.549 290.115C160.688 289.833 161.721 289.228 162.523 288.371C180.772 268.89 188.906 243.718 196.772 219.376C205.383 192.726 213.518 167.554 233.836 149.453C288.147 101.07 385.421 55.9228 431.637 107.034L434.013 109.662C464.196 143.077 495.407 177.63 541.121 180.069C556.163 180.872 571.913 180.896 587.144 180.917C631.49 180.984 677.314 181.052 716.779 199.588C718.088 200.204 719.317 200.977 720.438 201.891C733.66 212.652 746.275 226.117 759.94 244.031C787.171 279.728 806.72 315.245 818.041 349.599C822.667 363.634 825.371 378.15 828.232 393.517L829.186 398.614C832.972 418.77 833.515 436.11 830.8 452.236C830.158 456.051 833.009 459.662 836.879 459.662C839.709 459.662 842.169 457.686 842.656 454.897C843.981 447.311 844.652 439.512 844.652 431.351C844.652 420.44 843.474 408.89 841.12 396.371Z" fill="#62D569"/>
<path d="M876.724 390.771L875.664 385.09C872.603 368.648 869.44 351.645 864.126 335.519C851.126 296.071 829.69 257.079 798.593 216.321C782.147 194.765 766.936 178.786 750.725 166.037C750.391 165.775 750.031 165.548 749.65 165.359C703.244 142.559 650.565 142.602 599.622 142.646C582.257 142.661 565.854 142.675 549.638 141.833C504.761 139.502 472.438 103.387 441.177 68.4603L438.806 65.8103C412.441 36.3803 371.601 28.9183 320.699 44.2313C281.829 55.9253 238.472 80.8693 204.72 110.958C179.956 133.035 170.181 163.506 160.728 192.976C153.065 216.866 145.786 239.563 131.197 257.879C128.764 260.933 125.294 262.919 121.57 264.091C92.911 273.111 69.743 292.708 54.242 321.155C39.367 348.451 32.84 382.656 36.339 415.009C36.391 415.497 36.503 415.977 36.671 416.439C42.617 432.726 51.437 446.079 62.069 457.809C62.6049 458.396 63.2576 458.863 63.985 459.182C64.7125 459.501 65.4987 459.664 66.293 459.661C71.569 459.661 74.217 453.074 70.693 449.148C61.84 439.286 54.444 428.289 49.258 415.352C48.6286 413.774 48.2367 412.111 48.095 410.418C45.625 381.46 51.687 351.221 64.905 326.966C80.28 298.751 102.85 280.86 131.988 273.791C133.134 273.513 134.174 272.908 134.981 272.049C154.922 250.837 163.752 223.308 172.292 196.686C181.66 167.482 190.508 139.896 212.8 120.024C245.296 91.0543 286.939 67.0683 324.197 55.8613C356.321 46.1973 400.711 41.4843 429.76 73.9133L432.129 76.5593C465.046 113.337 499.084 151.368 549.008 153.96C565.544 154.819 582.874 154.804 599.634 154.79C648.233 154.75 698.452 154.705 741.753 175.039C743.064 175.656 744.296 176.43 745.422 177.342C759.995 189.157 773.886 203.96 788.937 223.687C819.201 263.353 840.022 301.176 852.591 339.321C857.651 354.67 860.601 370.526 863.725 387.313L864.789 393.013C868.974 415.289 869.534 434.432 866.457 452.237C865.798 456.051 868.653 459.661 872.523 459.661C875.356 459.661 877.818 457.683 878.314 454.894C879.809 446.502 880.566 437.868 880.566 428.828C880.566 416.959 879.284 404.392 876.724 390.771Z" fill="#62D569"/>
<path d="M898.718 325.402L898.613 325.083C882.28 279.776 858.38 236.34 827.582 195.977C809.741 172.597 793.252 155.281 775.687 141.482C775.352 141.218 774.989 140.991 774.606 140.804C723.285 115.68 664.942 115.957 608.519 116.227C590.809 116.31 574.08 116.39 557.503 115.723C510.86 112.842 477.03 76.1598 444.314 40.6858C441.856 38.0208 439.406 35.3638 436.955 32.7258C409.424 0.425835 365.716 -7.61417 310.543 9.47583C270.006 22.0348 222.634 48.9238 183.82 81.4058L183.534 81.6628C157.961 105.963 147.375 138.318 137.137 169.607C128.474 196.083 120.249 221.221 103.711 241.554C101.242 244.59 97.761 246.573 94.019 247.715C62.68 257.283 37.347 278.485 20.426 309.425C4.28399 338.947 -2.79701 375.958 1.00699 410.973C1.05999 411.463 1.17299 411.944 1.34299 412.407C7.84199 430.134 17.381 444.813 28.878 457.752C29.4177 458.355 30.0792 458.837 30.8188 459.166C31.5585 459.495 32.3595 459.664 33.169 459.661C38.421 459.661 41.095 453.165 37.622 449.226C27.842 438.136 19.679 425.778 13.921 411.305C13.296 409.728 12.9042 408.069 12.758 406.379C9.98599 374.762 16.604 341.728 31.08 315.252C47.89 284.516 72.567 265.074 104.425 257.467C105.576 257.192 106.621 256.587 107.433 255.727C129.338 232.496 139.17 202.446 148.678 173.384C158.877 142.215 168.511 112.77 191.762 90.5958C229.376 59.1498 275.11 33.1658 314.136 21.0778C365.078 5.29683 403.316 11.8978 427.792 40.6948L427.97 40.8958C430.44 43.5558 432.91 46.2338 435.387 48.9178C469.746 86.1738 505.275 124.698 556.824 127.848L556.95 127.855C573.82 128.535 591.49 128.451 608.577 128.37C662.644 128.113 718.524 127.848 766.718 150.488C768.031 151.106 769.266 151.88 770.395 152.792C786.318 165.657 801.486 181.797 817.928 203.344C847.936 242.671 871.221 284.964 887.132 329.043C892.825 348.128 897.244 367.571 900.358 387.242L900.421 387.586C905.307 410.001 905.871 431.683 902.14 452.232C901.448 456.046 904.306 459.661 908.182 459.661C911.011 459.661 913.469 457.69 913.984 454.909C914.307 453.164 914.601 451.413 914.867 449.654C914.957 449.054 915 448.449 915 447.843V400.244C914.302 395.187 913.409 390.16 912.324 385.172C909.118 364.969 904.573 345.002 898.718 325.402Z" fill="#62D569"/>
<path d="M155.094 309.746C155.094 310.159 155.176 310.568 155.334 310.95C155.493 311.332 155.725 311.679 156.018 311.971C156.31 312.263 156.657 312.494 157.039 312.652C157.421 312.81 157.831 312.891 158.244 312.891C158.664 312.901 159.081 312.828 159.472 312.674C159.863 312.521 160.219 312.291 160.52 311.998C160.82 311.705 161.059 311.355 161.222 310.968C161.385 310.581 161.469 310.165 161.469 309.746C161.469 309.326 161.385 308.91 161.222 308.523C161.059 308.137 160.82 307.786 160.52 307.493C160.219 307.2 159.863 306.97 159.472 306.817C159.081 306.664 158.664 306.59 158.244 306.601C156.504 306.601 155.094 308.011 155.094 309.746ZM239.086 330.715C239.086 331.128 239.168 331.537 239.326 331.919C239.485 332.301 239.717 332.648 240.01 332.94C240.302 333.232 240.649 333.463 241.031 333.621C241.413 333.779 241.823 333.86 242.236 333.86C242.656 333.87 243.073 333.797 243.464 333.643C243.855 333.49 244.211 333.26 244.512 332.967C244.812 332.674 245.051 332.324 245.214 331.937C245.377 331.55 245.461 331.134 245.461 330.715C245.461 330.295 245.377 329.879 245.214 329.492C245.051 329.106 244.812 328.755 244.512 328.462C244.211 328.169 243.855 327.939 243.464 327.786C243.073 327.633 242.656 327.559 242.236 327.57C241.401 327.569 240.601 327.9 240.01 328.49C239.419 329.08 239.087 329.88 239.086 330.715ZM491.062 414.582C491.062 414.995 491.144 415.404 491.302 415.786C491.461 416.168 491.693 416.515 491.986 416.807C492.278 417.099 492.625 417.33 493.007 417.488C493.389 417.646 493.799 417.727 494.212 417.727C495.046 417.727 495.846 417.395 496.436 416.806C497.026 416.216 497.358 415.416 497.358 414.582C497.358 413.747 497.026 412.946 496.436 412.356C495.846 411.765 495.045 411.434 494.21 411.434C493.375 411.434 492.574 411.765 491.984 412.356C491.394 412.946 491.062 413.747 491.062 414.582ZM501.562 425.064C501.562 425.477 501.644 425.887 501.802 426.269C501.961 426.65 502.193 426.997 502.486 427.29C502.778 427.582 503.125 427.813 503.508 427.971C503.89 428.129 504.299 428.21 504.713 428.21C505.131 428.217 505.546 428.141 505.934 427.987C506.322 427.832 506.675 427.601 506.973 427.309C507.271 427.016 507.508 426.667 507.669 426.282C507.831 425.896 507.914 425.483 507.914 425.065C507.914 424.647 507.831 424.234 507.669 423.849C507.508 423.463 507.271 423.114 506.973 422.822C506.675 422.529 506.322 422.298 505.934 422.144C505.546 421.989 505.131 421.913 504.713 421.921C504.3 421.92 503.89 422.001 503.508 422.158C503.126 422.316 502.779 422.547 502.486 422.839C502.194 423.131 501.961 423.478 501.803 423.859C501.644 424.241 501.562 424.65 501.562 425.064ZM354.57 446.032C354.57 446.445 354.652 446.854 354.81 447.236C354.968 447.618 355.2 447.965 355.493 448.257C355.785 448.549 356.132 448.78 356.514 448.938C356.896 449.096 357.306 449.177 357.719 449.177C358.132 449.177 358.542 449.096 358.924 448.938C359.306 448.781 359.654 448.549 359.947 448.257C360.239 447.965 360.471 447.618 360.63 447.236C360.789 446.854 360.871 446.445 360.871 446.032C360.87 445.197 360.537 444.396 359.946 443.806C359.355 443.216 358.554 442.885 357.719 442.886C356.884 442.885 356.084 443.217 355.493 443.807C354.903 444.397 354.571 445.197 354.57 446.032Z" fill="#62D569"/>
</g>
</g>
<defs>
<clipPath id="clip0_781_22027">
<rect width="915" height="459" fill="white" transform="translate(0 0.660156)"/>
</clipPath>
</defs>
</svg>
