<svg width="21" height="21" viewBox="0 0 21 21" fill="none" xmlns="http://www.w3.org/2000/svg">
<g clip-path="url(#clip0_781_22199)">
<g clip-path="url(#clip1_781_22199)">
<path d="M17.98 0.25H5.24998C4.54817 0.250234 3.86865 0.496509 3.32966 0.945976C2.79066 1.39544 2.42631 2.01965 2.29998 2.71L1.02998 9.71C0.950849 10.1424 0.967725 10.587 1.07941 11.0122C1.1911 11.4374 1.39488 11.8328 1.67632 12.1706C1.95775 12.5083 2.30998 12.78 2.70806 12.9666C3.10614 13.1531 3.54036 13.2499 3.97998 13.25H8.53998L7.97998 14.68C7.74705 15.3061 7.66947 15.9794 7.75392 16.6421C7.83836 17.3048 8.08229 17.9371 8.46479 18.4848C8.8473 19.0325 9.35695 19.4792 9.95004 19.7867C10.5431 20.0941 11.2019 20.2531 11.87 20.25C12.0623 20.2496 12.2505 20.1937 12.4119 20.0891C12.5733 19.9844 12.7011 19.8354 12.78 19.66L15.63 13.25H17.98C18.7756 13.25 19.5387 12.9339 20.1013 12.3713C20.6639 11.8087 20.98 11.0456 20.98 10.25V3.25C20.98 2.45435 20.6639 1.69129 20.1013 1.12868C19.5387 0.56607 18.7756 0.25 17.98 0.25ZM13.98 12.04L11.26 18.16C10.9817 18.0758 10.7236 17.9355 10.5015 17.7478C10.2795 17.56 10.0982 17.3288 9.96896 17.0683C9.83968 16.8079 9.76509 16.5237 9.74978 16.2334C9.73448 15.943 9.77879 15.6526 9.87998 15.38L10.41 13.95C10.5229 13.6477 10.561 13.3227 10.5211 13.0025C10.4812 12.6823 10.3644 12.3765 10.1806 12.1113C9.99693 11.846 9.75177 11.6291 9.46607 11.4792C9.18038 11.3292 8.86264 11.2506 8.53998 11.25H3.97998C3.83307 11.2502 3.68791 11.2181 3.55483 11.1559C3.42174 11.0937 3.304 11.0029 3.20998 10.89C3.11365 10.7787 3.04308 10.6475 3.00332 10.5057C2.96357 10.364 2.95559 10.2152 2.97998 10.07L4.24998 3.07C4.29258 2.83704 4.41647 2.62676 4.59959 2.4766C4.78272 2.32644 5.01319 2.24614 5.24998 2.25H13.98V12.04ZM18.98 10.25C18.98 10.5152 18.8746 10.7696 18.6871 10.9571C18.4996 11.1446 18.2452 11.25 17.98 11.25H15.98V2.25H17.98C18.2452 2.25 18.4996 2.35536 18.6871 2.54289C18.8746 2.73043 18.98 2.98478 18.98 3.25V10.25Z" fill="#D60027"/>
</g>
</g>
<defs>
<clipPath id="clip0_781_22199">
<rect width="20" height="20" fill="white" transform="translate(0.97998 0.25)"/>
</clipPath>
<clipPath id="clip1_781_22199">
<rect width="20" height="20" fill="white" transform="translate(0.97998 0.25)"/>
</clipPath>
</defs>
</svg>
