<svg width="21" height="22" viewBox="0 0 21 22" fill="none" xmlns="http://www.w3.org/2000/svg">
<path d="M18.031 4.508H17.998V3.471C17.998 3.40941 17.9858 3.34842 17.9623 3.29152C17.9387 3.23462 17.9042 3.18292 17.8606 3.13937C17.8171 3.09582 17.7654 3.06127 17.7085 3.0377C17.6516 3.01413 17.5906 3.002 17.529 3.002C17.4674 3.002 17.4064 3.01413 17.3495 3.0377C17.2926 3.06127 17.2409 3.09582 17.1973 3.13937C17.1538 3.18292 17.1192 3.23462 17.0957 3.29152C17.0721 3.34842 17.06 3.40941 17.06 3.471V4.508H15.99V3.471C15.99 3.34661 15.9406 3.22732 15.8526 3.13937C15.7647 3.05141 15.6454 3.002 15.521 3.002C15.3966 3.002 15.2773 3.05141 15.1893 3.13937C15.1014 3.22732 15.052 3.34661 15.052 3.471V4.508H15.019C14.9573 4.508 14.8962 4.52016 14.8393 4.5438C14.7823 4.56743 14.7306 4.60206 14.687 4.64572C14.6434 4.68938 14.6089 4.7412 14.5854 4.79821C14.5619 4.85523 14.5498 4.91633 14.55 4.978V6.483C14.55 7.411 15.193 8.191 16.056 8.402V15.019C16.0476 15.1552 15.9876 15.2832 15.8882 15.3767C15.7888 15.4702 15.6575 15.5223 15.521 15.5223C15.3845 15.5223 15.2531 15.4702 15.1537 15.3767C15.0543 15.2832 14.9943 15.1552 14.986 15.019V10.5C14.9853 9.92449 14.7845 9.36712 14.418 8.92342C14.0515 8.47972 13.542 8.1773 12.977 8.068V4.224C12.977 3.274 12.204 2.5 11.253 2.5H4.72598C3.77598 2.5 3.00198 3.273 3.00198 4.224V17.562H2.96998C2.84559 17.562 2.7263 17.6114 2.63834 17.6994C2.55039 17.7873 2.50098 17.9066 2.50098 18.031C2.50098 18.1554 2.55039 18.2747 2.63834 18.3626C2.7263 18.4506 2.84559 18.5 2.96998 18.5H13.01C13.1344 18.5 13.2537 18.4506 13.3416 18.3626C13.4296 18.2747 13.479 18.1554 13.479 18.031C13.479 17.9066 13.4296 17.7873 13.3416 17.6994C13.2537 17.6114 13.1344 17.562 13.01 17.562H12.977V9.034C13.597 9.232 14.047 9.814 14.047 10.5V15.019C14.0666 15.3964 14.2304 15.7518 14.5045 16.012C14.7786 16.2722 15.1421 16.4172 15.52 16.4172C15.8979 16.4172 16.2614 16.2722 16.5354 16.012C16.8095 15.7518 16.9733 15.3964 16.993 15.019V8.402C17.4226 8.29668 17.8044 8.05041 18.0776 7.70255C18.3508 7.35469 18.4995 6.9253 18.5 6.483V4.977C18.5 4.91541 18.4878 4.85442 18.4643 4.79752C18.4407 4.74062 18.4062 4.68892 18.3626 4.64537C18.3191 4.60182 18.2674 4.56727 18.2105 4.5437C18.1536 4.52013 18.0926 4.508 18.031 4.508ZM9.47598 13.722L8.40898 15.856C8.35328 15.9673 8.25567 16.0518 8.13762 16.0911C8.01956 16.1304 7.89074 16.1212 7.77948 16.0655C7.66822 16.0098 7.58364 15.9122 7.54435 15.7941C7.50506 15.6761 7.51428 15.5473 7.56998 15.436L8.29798 13.981H6.92298C6.84309 13.981 6.76452 13.9606 6.69472 13.9218C6.62492 13.8829 6.5662 13.8269 6.52413 13.759C6.48207 13.6911 6.45804 13.6135 6.45434 13.5337C6.45063 13.4539 6.46738 13.3745 6.50298 13.303L7.56998 11.169C7.62567 11.0577 7.72328 10.9732 7.84134 10.9339C7.89979 10.9144 7.96151 10.9067 8.02296 10.9111C8.0844 10.9155 8.14439 10.9319 8.19948 10.9595C8.25457 10.9871 8.30368 11.0252 8.34403 11.0718C8.38437 11.1184 8.41515 11.1724 8.4346 11.2309C8.45405 11.2893 8.4618 11.351 8.45741 11.4125C8.45301 11.4739 8.43655 11.5339 8.40898 11.589L7.68098 13.044H9.05698C9.13678 13.0441 9.21522 13.0647 9.28489 13.1036C9.35455 13.1425 9.41313 13.1986 9.45508 13.2664C9.49703 13.3343 9.52097 13.4118 9.52463 13.4915C9.52828 13.5712 9.51154 13.6506 9.47598 13.722ZM10.969 8.994C10.969 9.253 10.759 9.463 10.5 9.463H5.47998C5.41822 9.46313 5.35704 9.45107 5.29996 9.42749C5.24288 9.40392 5.19101 9.3693 5.14734 9.32563C5.10367 9.28196 5.06906 9.2301 5.04548 9.17302C5.02191 9.11593 5.00985 9.05476 5.00998 8.993V4.978C5.00998 4.719 5.21998 4.509 5.47998 4.509H10.5C10.759 4.509 10.969 4.719 10.969 4.979V8.994Z" fill="#0B66FA"/>
</svg>
