<svg width="21" height="22" viewBox="0 0 21 22" fill="none" xmlns="http://www.w3.org/2000/svg">
<g clip-path="url(#clip0_781_20950)">
<g clip-path="url(#clip1_781_20950)">
<g clip-path="url(#clip2_781_20950)">
<path d="M4.29899 16.9942C4.8692 16.9942 5.41606 16.7677 5.81927 16.3645C6.22247 15.9613 6.44899 15.4144 6.44899 14.8442C6.44899 14.274 6.22247 13.7271 5.81927 13.3239C5.41606 12.9207 4.8692 12.6942 4.29899 12.6942C3.72877 12.6942 3.18191 12.9207 2.77871 13.3239C2.3755 13.7271 2.14899 14.274 2.14899 14.8442C2.14899 15.4144 2.3755 15.9613 2.77871 16.3645C3.18191 16.7677 3.72877 16.9942 4.29899 16.9942ZM18.336 16.3642C18.5419 16.166 18.7063 15.9287 18.8194 15.6663C18.9326 15.4038 18.9923 15.1215 18.995 14.8357C18.9978 14.5499 18.9435 14.2664 18.8354 14.0018C18.7273 13.7372 18.5675 13.4969 18.3654 13.2948C18.1633 13.0927 17.923 12.9329 17.6584 12.8248C17.3938 12.7167 17.1103 12.6624 16.8245 12.6651C16.5387 12.6679 16.2563 12.7276 15.9939 12.8407C15.7314 12.9539 15.4942 13.1183 15.296 13.3242C14.9055 13.7299 14.6898 14.2726 14.6952 14.8357C14.7006 15.3987 14.9267 15.9372 15.3249 16.3353C15.723 16.7335 16.2615 16.9595 16.8245 16.9649C17.3876 16.9703 17.9303 16.7546 18.336 16.3642Z" fill="#0B66FA"/>
<path d="M20.052 9.41886C19.192 6.65886 18.267 4.99486 16.836 4.74086C15.592 4.56086 14.336 4.48086 13.079 4.50386L12.997 4.50586C12.345 4.50586 11.587 4.71786 11.587 5.67886V7.78286C11.9765 7.85728 12.3279 8.06515 12.5807 8.37068C12.8334 8.67622 12.9718 9.06031 12.972 9.45686V10.9309C12.9721 10.9615 12.9662 10.9918 12.9545 11.0202C12.9429 11.0485 12.9257 11.0742 12.904 11.0959C12.8824 11.1176 12.8566 11.1347 12.8283 11.1464C12.8 11.1581 12.7696 11.164 12.739 11.1639H12.357V12.3439C12.3594 12.3877 12.3529 12.4316 12.3378 12.4729C12.3227 12.5141 12.2993 12.5519 12.2692 12.5838C12.239 12.6157 12.2026 12.6411 12.1622 12.6585C12.1219 12.6759 12.0784 12.6848 12.0345 12.6848C11.9906 12.6848 11.9471 12.6759 11.9067 12.6585C11.8664 12.6411 11.83 12.6157 11.7998 12.5838C11.7696 12.5519 11.7463 12.5141 11.7312 12.4729C11.7161 12.4316 11.7096 12.3877 11.712 12.3439V11.1639H10.818V12.3449C10.818 12.4304 10.784 12.5124 10.7235 12.5729C10.6631 12.6334 10.581 12.6674 10.4955 12.6674C10.41 12.6674 10.3279 12.6334 10.2675 12.5729C10.207 12.5124 10.173 12.4304 10.173 12.3449V11.1649H9.79099C9.76044 11.1649 9.73019 11.1588 9.70198 11.1471C9.67377 11.1354 9.64815 11.1182 9.62659 11.0966C9.60503 11.0749 9.58797 11.0492 9.57637 11.0209C9.56477 10.9927 9.55886 10.9624 9.55899 10.9319V9.45686C9.55931 9.0605 9.69761 8.67662 9.95017 8.37115C10.2027 8.06567 10.5538 7.85767 10.943 7.78286V5.67986C10.932 5.29191 11.0478 4.91097 11.273 4.59486C10.774 4.63786 10.28 4.71786 9.79399 4.83386C8.15599 5.24686 5.01999 7.74886 3.96399 8.61786C3.73599 8.80786 3.60299 8.92386 3.60299 8.92386L3.26299 9.12086C2.60099 9.52086 1.16099 10.4709 0.760994 11.3579C0.430994 12.0809 0.477994 13.2619 0.558994 14.0479C0.582223 14.2666 0.68561 14.4689 0.849216 14.6159C1.01282 14.7629 1.22506 14.8441 1.44499 14.8439H1.50499C1.50499 14.1026 1.79947 13.3917 2.32363 12.8675C2.8478 12.3433 3.55871 12.0489 4.29999 12.0489C5.04127 12.0489 5.75219 12.3433 6.27636 12.8675C6.80052 13.3917 7.09499 14.1026 7.09499 14.8439H14.025C14.0243 14.4768 14.096 14.1132 14.2358 13.7739C14.3757 13.4345 14.581 13.126 14.8401 12.866C15.3633 12.3409 16.0737 12.0452 16.815 12.0439C17.5563 12.0425 18.2677 12.3357 18.7928 12.859C19.3179 13.3822 19.6137 14.0926 19.615 14.8339C19.808 14.8095 19.9876 14.7225 20.1265 14.5864C20.2654 14.4502 20.3558 14.2723 20.384 14.0799L20.445 13.5249C20.5872 12.1437 20.4536 10.748 20.052 9.41886Z" fill="#0B66FA"/>
</g>
</g>
</g>
<defs>
<clipPath id="clip0_781_20950">
<rect width="20" height="21" fill="white" transform="translate(0.5 0.5)"/>
</clipPath>
<clipPath id="clip1_781_20950">
<rect width="20" height="21" fill="white" transform="translate(0.5 0.5)"/>
</clipPath>
<clipPath id="clip2_781_20950">
<rect width="20" height="21" fill="white" transform="translate(0.5 0.5)"/>
</clipPath>
</defs>
</svg>
