<svg width="21" height="22" viewBox="0 0 21 22" fill="none" xmlns="http://www.w3.org/2000/svg">
<path d="M14.718 6.718C14.7167 5.59972 14.2719 4.52763 13.4811 3.73689C12.6904 2.94614 11.6183 2.50132 10.5 2.5C9.38172 2.50132 8.30963 2.94614 7.51889 3.73689C6.72814 4.52763 6.28332 5.59972 6.282 6.718C6.28332 7.83628 6.72814 8.90837 7.51889 9.69911C8.30963 10.4899 9.38172 10.9347 10.5 10.936C11.6183 10.9347 12.6904 10.4899 13.4811 9.69911C14.2719 8.90837 14.7167 7.83628 14.718 6.718ZM8.714 9.195L9.052 7.222L7.618 5.824L9.6 5.535L10.486 3.74L11.372 5.535L13.355 5.824L11.92 7.222L12.259 9.195L10.486 8.263L8.714 9.195ZM9.999 18.5V14.685C9.999 14.055 9.742 13.445 9.295 13.009L7.989 11.741C7.249 11.001 6.049 11.001 5.309 11.741L7.658 14.091L6.995 14.753L4.375 12.133V8.189C4.375 7.154 3.535 6.314 2.5 6.314V12.089C2.5 12.569 2.65 13.036 2.932 13.436L5.055 16.452C5.221 16.679 5.312 16.964 5.312 17.254V18.5H10H9.999ZM15.686 17.254C15.686 16.964 15.777 16.679 15.943 16.452L18.065 13.436C18.348 13.036 18.498 12.57 18.498 12.089V6.314C17.462 6.314 16.623 7.154 16.623 8.189V12.133L14.003 14.753L13.34 14.09L15.69 11.74C14.95 11 13.749 11 13.008 11.74C13.103 11.649 11.798 12.918 11.703 13.01C11.4804 13.2285 11.3034 13.4891 11.1826 13.7767C11.0617 14.0643 10.9993 14.3731 10.999 14.685V18.5H15.686V17.254Z" fill="#0B66FA"/>
</svg>
