<svg width="21" height="22" viewBox="0 0 21 22" fill="none" xmlns="http://www.w3.org/2000/svg">
<path d="M18.055 3.5H6.5C6.255 3.5 6.055 3.7 6.055 3.945V17.278C6.0533 17.7598 5.89344 18.2278 5.6 18.61H16.278C16.8667 18.6092 17.4311 18.3751 17.8476 17.959C18.2641 17.5429 18.4987 16.9787 18.5 16.39V3.945C18.5 3.699 18.3 3.5 18.055 3.5ZM15.39 15.056H9.167C9.04898 15.056 8.93579 15.0091 8.85234 14.9257C8.76889 14.8422 8.722 14.729 8.722 14.611C8.722 14.493 8.76889 14.3798 8.85234 14.2963C8.93579 14.2129 9.04898 14.166 9.167 14.166H15.389C15.507 14.166 15.6202 14.2129 15.7037 14.2963C15.7871 14.3798 15.834 14.493 15.834 14.611C15.834 14.729 15.7871 14.8422 15.7037 14.9257C15.6202 15.0091 15.507 15.056 15.389 15.056H15.39ZM15.39 12.389H9.167C9.04911 12.389 8.93605 12.3422 8.85269 12.2588C8.76933 12.1754 8.7225 12.0624 8.7225 11.9445C8.7225 11.8266 8.76933 11.7136 8.85269 11.6302C8.93605 11.5468 9.04911 11.5 9.167 11.5H15.389C15.5032 11.5054 15.611 11.5546 15.6899 11.6374C15.7689 11.7202 15.8129 11.8301 15.8129 11.9445C15.8129 12.0589 15.7689 12.1688 15.6899 12.2516C15.611 12.3344 15.5032 12.3836 15.389 12.389H15.39ZM15.39 9.722H9.167C9.04911 9.722 8.93605 9.67517 8.85269 9.59181C8.76933 9.50845 8.7225 9.39539 8.7225 9.2775C8.7225 9.15961 8.76933 9.04655 8.85269 8.96319C8.93605 8.87983 9.04911 8.833 9.167 8.833H15.389C15.507 8.833 15.6202 8.87988 15.7037 8.96334C15.7871 9.04679 15.834 9.15998 15.834 9.278C15.834 9.39602 15.7871 9.50921 15.7037 9.59266C15.6202 9.67612 15.507 9.723 15.389 9.723L15.39 9.722ZM15.39 7.056H9.167C9.04898 7.056 8.93579 7.00912 8.85234 6.92566C8.76889 6.84221 8.722 6.72902 8.722 6.611C8.722 6.49298 8.76889 6.37979 8.85234 6.29634C8.93579 6.21288 9.04898 6.166 9.167 6.166H15.389C15.507 6.166 15.6202 6.21288 15.7037 6.29634C15.7871 6.37979 15.834 6.49298 15.834 6.611C15.834 6.72902 15.7871 6.84221 15.7037 6.92566C15.6202 7.00912 15.507 7.056 15.389 7.056H15.39ZM4.722 5.278H2.944C2.88561 5.278 2.82779 5.28952 2.77386 5.31189C2.71992 5.33427 2.67093 5.36706 2.62969 5.4084C2.58845 5.44973 2.55577 5.4988 2.53351 5.55278C2.51126 5.60677 2.49987 5.66461 2.5 5.723V17.278C2.5 17.6317 2.64049 17.9708 2.89057 18.2209C3.14065 18.471 3.47983 18.6115 3.8335 18.6115C4.18717 18.6115 4.52635 18.471 4.77643 18.2209C5.02651 17.9708 5.167 17.6317 5.167 17.278V5.723C5.16713 5.66452 5.15571 5.6066 5.1334 5.55255C5.11108 5.4985 5.07831 5.44939 5.03696 5.40804C4.99561 5.3667 4.9465 5.33392 4.89245 5.3116C4.8384 5.28929 4.78048 5.27787 4.722 5.278Z" fill="#0B66FA"/>
</svg>
