<svg width="21" height="22" viewBox="0 0 21 22" fill="none" xmlns="http://www.w3.org/2000/svg">
<path d="M10.5 2.5C8.91775 2.5 7.37103 2.96919 6.05544 3.84824C4.73985 4.72729 3.71447 5.97672 3.10897 7.43853C2.50347 8.90034 2.34504 10.5089 2.65372 12.0607C2.9624 13.6126 3.72433 15.038 4.84315 16.1569C5.96197 17.2757 7.38743 18.0376 8.93928 18.3463C10.4911 18.655 12.0997 18.4965 13.5615 17.891C15.0233 17.2855 16.2727 16.2602 17.1518 14.9446C18.0308 13.629 18.5 12.0823 18.5 10.5C18.4976 8.379 17.654 6.34555 16.1542 4.84578C14.6545 3.346 12.621 2.50238 10.5 2.5ZM13.87 10.755C13.8144 10.866 13.7242 10.9559 13.613 11.011V11.014L9.04 13.3C8.95268 13.3438 8.85557 13.3645 8.75797 13.36C8.66038 13.3556 8.56555 13.3261 8.48258 13.2746C8.3996 13.223 8.33124 13.151 8.28404 13.0655C8.23685 12.9799 8.21239 12.8837 8.213 12.786V8.214C8.2129 8.11656 8.23774 8.02071 8.28515 7.93558C8.33256 7.85045 8.40096 7.77887 8.48386 7.72765C8.56675 7.67642 8.66138 7.64727 8.75873 7.64296C8.85607 7.63864 8.9529 7.65931 9.04 7.703L13.612 9.989C13.894 10.129 14.009 10.472 13.868 10.755H13.87Z" fill="#0B66FA"/>
</svg>
