<svg width="24" height="26" viewBox="0 0 24 26" fill="none" xmlns="http://www.w3.org/2000/svg">
<g clip-path="url(#clip0_781_20891)">
<path d="M12.8651 18.6806C15.9831 19.1786 18.4321 17.0826 19.7131 15.6386C19.7131 15.6386 20.2111 14.7566 20.4411 13.0966C20.6711 11.4366 18.6861 5.8906 13.9561 5.7666C12.6251 5.7836 11.3011 5.9646 10.0131 6.3056L9.95205 6.3186C9.11705 6.5006 8.25405 6.6886 7.27905 6.8286C6.1075 6.98293 4.916 6.85328 3.80505 6.4506C4.35205 9.7736 6.33105 17.6356 12.8651 18.6806Z" fill="#86F18D"/>
<path d="M11.362 20.8504C12.8129 21.0756 14.2977 20.8203 15.59 20.1234C16.7264 19.509 17.7399 18.6907 18.58 17.7094C19.113 18.1654 19.61 18.6634 20.067 19.1984C20.1267 19.2705 20.2 19.3302 20.2828 19.3741C20.3655 19.4179 20.4561 19.445 20.5493 19.4538C20.6426 19.4627 20.7366 19.453 20.8261 19.4255C20.9156 19.398 20.9989 19.353 21.071 19.2934C21.2181 19.1703 21.3129 18.996 21.3363 18.8057C21.3597 18.6154 21.3099 18.4233 21.197 18.2684C18.012 14.6844 13.729 12.3184 9.05501 11.5634C8.96119 11.5465 8.86495 11.5488 8.77202 11.5699C8.67908 11.591 8.59134 11.6306 8.51401 11.6864C8.3565 11.8023 8.25 11.9748 8.21682 12.1675C8.18363 12.3603 8.22635 12.5584 8.33601 12.7204C8.44601 12.8824 8.61401 12.9914 8.80301 13.0264C11.9352 13.5886 14.8928 14.8748 17.44 16.7824C16.344 18.0174 14.25 19.8084 11.586 19.3824C6.00001 18.4904 4.30801 11.7704 3.84001 8.92935C4.78979 9.27359 5.80843 9.38437 6.81001 9.25235C7.66301 9.12935 8.41701 8.96435 9.14601 8.80535C10.2461 8.5138 11.378 8.3593 12.516 8.34535C16.561 8.45135 18.348 12.0514 18.565 14.4454C18.5874 14.6355 18.6819 14.8098 18.829 14.9324C18.9012 14.9924 18.9846 15.0375 19.0743 15.0652C19.164 15.0929 19.2583 15.1027 19.3517 15.0938C19.4452 15.085 19.536 15.0578 19.619 15.0138C19.7019 14.9698 19.7753 14.9098 19.835 14.8374C19.9579 14.6895 20.0198 14.5003 20.008 14.3084C19.744 11.3864 17.543 6.99135 12.553 6.86035C11.301 6.87035 10.056 7.03535 8.84301 7.35235C8.13901 7.50535 7.41101 7.66435 6.61301 7.77935C5.57584 7.91252 4.52314 7.71367 3.60601 7.21135C3.45866 7.12697 3.29023 7.08656 3.12064 7.09489C2.95104 7.10322 2.78738 7.15994 2.64901 7.25835C2.50913 7.35779 2.39971 7.49422 2.33301 7.65235C2.26543 7.81224 2.24295 7.98759 2.26801 8.15935C2.48001 10.0554 3.92401 19.6634 11.361 20.8514L11.362 20.8504Z" fill="#24272C"/>
</g>
<defs>
<clipPath id="clip0_781_20891">
<rect width="24" height="26" fill="white"/>
</clipPath>
</defs>
</svg>
