<svg width="21" height="21" viewBox="0 0 21 21" fill="none" xmlns="http://www.w3.org/2000/svg">
<g clip-path="url(#clip0_781_22051)">
<g clip-path="url(#clip1_781_22051)">
<path d="M19.63 8.33004C19.349 7.99269 18.9974 7.72113 18.5999 7.53451C18.2025 7.3479 17.769 7.2508 17.33 7.25004H12.77L13.33 5.82004C13.5629 5.19393 13.6405 4.52065 13.556 3.85797C13.4716 3.19528 13.2276 2.56297 12.8451 2.01527C12.4626 1.46758 11.953 1.02084 11.3599 0.713388C10.7668 0.405934 10.108 0.246941 9.43996 0.250045C9.24759 0.250446 9.05943 0.30632 8.89803 0.410967C8.73662 0.515615 8.60882 0.664595 8.52996 0.840045L5.67996 7.25004H3.32996C2.53431 7.25004 1.77124 7.56612 1.20864 8.12872C0.646027 8.69133 0.329956 9.4544 0.329956 10.25L0.329956 17.25C0.329956 18.0457 0.646027 18.8088 1.20864 19.3714C1.77124 19.934 2.53431 20.25 3.32996 20.25H16.06C16.7618 20.2498 17.4413 20.0035 17.9803 19.5541C18.5193 19.1046 18.8836 18.4804 19.01 17.79L20.28 10.79C20.3585 10.3574 20.341 9.91283 20.2287 9.48772C20.1164 9.06262 19.912 8.6674 19.63 8.33004ZM5.32996 18.25H3.32996C3.06474 18.25 2.81039 18.1447 2.62285 17.9572C2.43531 17.7696 2.32996 17.5153 2.32996 17.25V10.25C2.32996 9.98483 2.43531 9.73047 2.62285 9.54294C2.81039 9.3554 3.06474 9.25004 3.32996 9.25004H5.32996V18.25ZM18.33 10.43L17.06 17.43C17.0174 17.663 16.8935 17.8733 16.7103 18.0234C16.5272 18.1736 16.2967 18.2539 16.06 18.25H7.32996V8.46004L10.05 2.34004C10.3299 2.42167 10.59 2.56045 10.8136 2.74763C11.0373 2.9348 11.2197 3.16631 11.3494 3.42754C11.479 3.68876 11.5531 3.97404 11.567 4.26535C11.5809 4.55666 11.5342 4.84768 11.43 5.12004L10.9 6.55005C10.787 6.8523 10.7489 7.17739 10.7888 7.49758C10.8288 7.81776 10.9456 8.12353 11.1293 8.38878C11.313 8.65404 11.5582 8.87091 11.8439 9.02088C12.1296 9.17086 12.4473 9.24948 12.77 9.25004H17.33C17.4769 9.24981 17.622 9.28194 17.7551 9.34416C17.8882 9.40638 18.0059 9.49716 18.1 9.61004C18.1962 9.72141 18.2668 9.85263 18.3065 9.99436C18.3463 10.1361 18.3543 10.2849 18.33 10.43Z" fill="#32BEA6"/>
</g>
</g>
<defs>
<clipPath id="clip0_781_22051">
<rect width="20" height="20" fill="white" transform="translate(0.329956 0.25)"/>
</clipPath>
<clipPath id="clip1_781_22051">
<rect width="20" height="20" fill="white" transform="translate(0.329956 0.25)"/>
</clipPath>
</defs>
</svg>
