<svg width="858" height="528" viewBox="0 0 858 528" fill="none" xmlns="http://www.w3.org/2000/svg">
<path d="M666.978 125.468C664.777 125.931 662.584 126.432 660.453 127.039L660.683 126.435C660.683 126.435 317.124 -111.704 32.4519 235.667C37.2851 230.764 285.357 -17.6559 561.772 162.794C561.772 162.794 577.34 174.627 577.618 189.321C560.596 217.846 553.845 252.618 561.228 287.707C576.802 361.721 649.432 409.135 723.393 393.572C797.354 378.009 844.717 305.346 829.143 231.332C813.569 157.319 740.94 109.905 666.978 125.468ZM712.564 339.657C669.872 348.64 628.013 321.282 619.024 278.56C610.034 235.838 637.325 193.968 680.017 184.985C722.709 176.001 764.568 203.36 773.549 246.044C782.531 288.728 755.217 330.682 712.564 339.657Z" fill="white"/>
<path d="M331.145 270.836C321.119 274.369 311.866 280.22 306.404 289.218C301.602 297.101 300.23 306.418 296.767 314.873C292.99 323.963 287.631 333.062 281.87 341.024C270.094 357.288 254.758 370.925 237.222 380.675C225.177 387.357 212.131 392.176 198.666 395.009C124.099 410.659 51.0337 362.961 35.3419 288.388C19.6501 213.814 67.2969 140.716 141.818 125.035C188.437 115.225 234.512 130.255 266.335 161.175C267.292 161.665 268.24 162.116 269.236 162.598C333.325 193.519 456.065 223.526 663.315 127.742C662.019 128.34 660.383 131.572 659.451 132.744C658.103 134.451 656.717 136.166 655.283 137.85C652.455 141.21 649.524 144.47 646.491 147.63C640.433 153.988 633.981 160.022 627.292 165.699C613.736 177.173 599.035 187.261 583.691 196.224C568.347 205.186 552.204 213.056 535.739 219.978C519.274 226.899 503.211 232.637 486.55 237.851C470.953 242.719 455.148 246.98 439.236 250.735C425.184 254.058 411.042 256.952 396.873 259.527C387.515 261.211 378.104 263.029 368.648 264.246C359.192 265.463 348.951 266.236 339.302 268.469C336.548 269.089 333.834 269.904 331.145 270.836ZM155.325 182.663C113.142 191.539 86.1394 232.966 95.0219 275.179C103.904 317.392 145.321 344.463 187.504 335.587C229.687 326.711 256.729 285.275 247.838 243.023C238.947 200.772 197.547 173.779 155.325 182.663Z" fill="white"/>
</svg>
