<svg width="27" height="43" viewBox="0 0 27 43" fill="none" xmlns="http://www.w3.org/2000/svg">
<mask id="path-1-inside-1_781_21154" fill="white">
<path d="M0.0299683 21.6104C0.0299683 14.4307 5.85027 8.61035 13.03 8.61035C20.2097 8.61035 26.03 14.4307 26.03 21.6104C26.03 28.7901 20.2097 34.6104 13.03 34.6104C5.85027 34.6104 0.0299683 28.7901 0.0299683 21.6104Z"/>
</mask>
<path d="M13.03 33.6104C6.40255 33.6104 1.02997 28.2378 1.02997 21.6104H-0.970032C-0.970032 29.3423 5.29798 35.6104 13.03 35.6104V33.6104ZM25.03 21.6104C25.03 28.2378 19.6574 33.6104 13.03 33.6104V35.6104C20.762 35.6104 27.03 29.3423 27.03 21.6104H25.03ZM13.03 9.61035C19.6574 9.61035 25.03 14.9829 25.03 21.6104H27.03C27.03 13.8784 20.762 7.61035 13.03 7.61035V9.61035ZM13.03 7.61035C5.29798 7.61035 -0.970032 13.8784 -0.970032 21.6104H1.02997C1.02997 14.9829 6.40255 9.61035 13.03 9.61035V7.61035Z" fill="#CCCCCC" mask="url(#path-1-inside-1_781_21154)"/>
<path d="M7.02997 21.6104C7.02997 21.4072 7.10419 21.2314 7.25262 21.083C7.40106 20.9346 7.57684 20.8604 7.77997 20.8604H18.28C18.4831 20.8604 18.6589 20.9346 18.8073 21.083C18.9557 21.2314 19.03 21.4072 19.03 21.6104C19.03 21.8135 18.9557 21.9893 18.8073 22.1377C18.6589 22.2861 18.4831 22.3604 18.28 22.3604H7.77997C7.57684 22.3604 7.40106 22.2861 7.25262 22.1377C7.10419 21.9893 7.02997 21.8135 7.02997 21.6104Z" fill="#24272C"/>
</svg>
