<svg width="27" height="43" viewBox="0 0 27 43" fill="none" xmlns="http://www.w3.org/2000/svg">
<mask id="path-1-inside-1_781_21173" fill="white">
<path d="M0.889954 21.1104C0.889954 13.9307 6.71025 8.11035 13.89 8.11035C21.0697 8.11035 26.89 13.9307 26.89 21.1104C26.89 28.2901 21.0697 34.1104 13.89 34.1104C6.71025 34.1104 0.889954 28.2901 0.889954 21.1104Z"/>
</mask>
<path d="M13.89 33.1104C7.26254 33.1104 1.88995 27.7378 1.88995 21.1104H-0.110046C-0.110046 28.8423 6.15797 35.1104 13.89 35.1104V33.1104ZM25.89 21.1104C25.89 27.7378 20.5174 33.1104 13.89 33.1104V35.1104C21.6219 35.1104 27.89 28.8423 27.89 21.1104H25.89ZM13.89 9.11035C20.5174 9.11035 25.89 14.4829 25.89 21.1104H27.89C27.89 13.3784 21.6219 7.11035 13.89 7.11035V9.11035ZM13.89 7.11035C6.15797 7.11035 -0.110046 13.3784 -0.110046 21.1104H1.88995C1.88995 14.4829 7.26254 9.11035 13.89 9.11035V7.11035Z" fill="#CCCCCC" mask="url(#path-1-inside-1_781_21173)"/>
<path d="M14.64 15.8604C14.64 15.6572 14.5657 15.4814 14.4173 15.333C14.2689 15.1846 14.0931 15.1104 13.89 15.1104C13.6868 15.1104 13.511 15.1846 13.3626 15.333C13.2142 15.4814 13.14 15.6572 13.14 15.8604V20.3604H8.63995C8.43683 20.3604 8.26105 20.4346 8.11261 20.583C7.96417 20.7314 7.88995 20.9072 7.88995 21.1104C7.88995 21.3135 7.96417 21.4893 8.11261 21.6377C8.26105 21.7861 8.43683 21.8604 8.63995 21.8604H13.14V26.3604C13.14 26.5635 13.2142 26.7393 13.3626 26.8877C13.511 27.0361 13.6868 27.1104 13.89 27.1104C14.0931 27.1104 14.2689 27.0361 14.4173 26.8877C14.5657 26.7393 14.64 26.5635 14.64 26.3604V21.8604H19.14C19.3431 21.8604 19.5189 21.7861 19.6673 21.6377C19.8157 21.4893 19.89 21.3135 19.89 21.1104C19.89 20.9072 19.8157 20.7314 19.6673 20.583C19.5189 20.4346 19.3431 20.3604 19.14 20.3604H14.64V15.8604Z" fill="#24272C"/>
</svg>
