<svg width="18" height="17" viewBox="0 0 18 17" fill="none" xmlns="http://www.w3.org/2000/svg">
<g clip-path="url(#clip0_781_22455)">
<path d="M7.00001 14.6592C7.00001 15.0262 7.30001 15.3262 7.66701 15.3262H10.333C10.7 15.3262 11 15.0262 11 14.6592V13.9922H7.00001V14.6592ZM9.00001 1.99219C7.76265 1.99351 6.57635 2.48564 5.7014 3.36058C4.82646 4.23553 4.33433 5.42183 4.33301 6.65919C4.33301 8.24619 5.12701 9.63919 6.33301 10.4862V11.9922C6.33301 12.3592 6.63301 12.6592 7.00001 12.6592H11C11.367 12.6592 11.667 12.3592 11.667 11.9922V10.4862C12.873 9.63919 13.667 8.24619 13.667 6.65919C13.6657 5.42183 13.1736 4.23553 12.2986 3.36058C11.4237 2.48564 10.2374 1.99351 9.00001 1.99219ZM10.9 9.39219L10.333 9.79219V11.3262H7.66701V9.79219L7.10001 9.39219C6.65842 9.08601 6.29746 8.67754 6.04793 8.20164C5.7984 7.72574 5.66771 7.19654 5.66701 6.65919C5.69694 5.7952 6.06121 4.9766 6.683 4.37599C7.30478 3.77537 8.13551 3.43967 9.00001 3.43967C9.86451 3.43967 10.6952 3.77537 11.317 4.37599C11.9388 4.9766 12.3031 5.7952 12.333 6.65919C12.3323 7.19654 12.2016 7.72574 11.9521 8.20164C11.7026 8.67754 11.3416 9.08601 10.9 9.39219Z" fill="#007BE5"/>
</g>
<defs>
<clipPath id="clip0_781_22455">
<rect width="18" height="16" fill="white" transform="translate(0 0.660156)"/>
</clipPath>
</defs>
</svg>
