<svg width="60" height="61" viewBox="0 0 60 61" fill="none" xmlns="http://www.w3.org/2000/svg">
<g clip-path="url(#clip0_781_33422)">
<mask id="mask0_781_33422" style="mask-type:luminance" maskUnits="userSpaceOnUse" x="0" y="0" width="60" height="61">
<path d="M0 0.0800781H60V60.0801H0V0.0800781Z" fill="white"/>
</mask>
<g mask="url(#mask0_781_33422)">
<path d="M6.38867 10.627C6.38867 11.1793 5.94096 11.627 5.38867 11.627C4.83639 11.627 4.38867 11.1793 4.38867 10.627H6.38867ZM14.1777 2.83789H10.3887V0.837891H14.1777V2.83789ZM6.38867 6.83789V10.627H4.38867V6.83789H6.38867ZM10.3887 2.83789C8.17953 2.83789 6.38867 4.62875 6.38867 6.83789H4.38867C4.38867 3.52418 7.07496 0.837891 10.3887 0.837891V2.83789Z" fill="#3D4159"/>
<path d="M4.38867 49.5332C4.38867 48.9809 4.83639 48.5332 5.38867 48.5332C5.94096 48.5332 6.38867 48.9809 6.38867 49.5332H4.38867ZM6.38867 49.5332V53.3223H4.38867V49.5332H6.38867ZM10.3887 57.3223H14.1777V59.3223H10.3887V57.3223ZM6.38867 53.3223C6.38867 55.5314 8.17953 57.3223 10.3887 57.3223V59.3223C7.07496 59.3223 4.38867 56.636 4.38867 53.3223H6.38867Z" fill="#3D4159"/>
</g>
<path d="M33.5137 8.98633V19.5332H44.0605" stroke="#3D4159" stroke-width="2" stroke-miterlimit="10"/>
<path d="M45.8184 2.83789C45.2661 2.83789 44.8184 2.39018 44.8184 1.83789C44.8184 1.28561 45.2661 0.837891 45.8184 0.837891V2.83789ZM45.8184 0.837891H49.6074V2.83789H45.8184V0.837891ZM55.6074 6.83789V10.627H53.6074V6.83789H55.6074ZM49.6074 0.837891C52.9211 0.837891 55.6074 3.52418 55.6074 6.83789H53.6074C53.6074 4.62875 51.8166 2.83789 49.6074 2.83789V0.837891Z" fill="#3D4159"/>
<path d="M45.8184 59.3223C45.2661 59.3223 44.8184 58.8746 44.8184 58.3223C44.8184 57.77 45.2661 57.3223 45.8184 57.3223V59.3223ZM55.6074 49.5332V53.3223H53.6074V49.5332H55.6074ZM49.6074 59.3223H45.8184V57.3223H49.6074V59.3223ZM55.6074 53.3223C55.6074 56.636 52.9211 59.3223 49.6074 59.3223V57.3223C51.8166 57.3223 53.6074 55.5314 53.6074 53.3223H55.6074Z" fill="#3D4159"/>
<path d="M42.889 18.3617C43.6391 19.1118 44.0605 20.1292 44.0605 21.1901V47.1738C44.0605 49.383 42.2697 51.1739 40.0605 51.1739H19.9355C17.7264 51.1739 15.9355 49.383 15.9355 47.1739V12.9864C15.9355 10.7772 17.7264 8.98633 19.9355 8.98633H31.8569C32.9178 8.98633 33.9352 9.40776 34.6854 10.1579L42.889 18.3617Z" stroke="#3D4159" stroke-width="2" stroke-miterlimit="10"/>
<path d="M21.209 23.0488H28.2402" stroke="#3D4159" stroke-width="2" stroke-miterlimit="10"/>
<path d="M21.209 30.0801H38.7871" stroke="#3D4159" stroke-width="2" stroke-miterlimit="10"/>
<path d="M3.63086 38.1113C3.07857 38.1113 2.63086 37.6636 2.63086 37.1113C2.63086 36.5591 3.07857 36.1113 3.63086 36.1113V38.1113ZM3.63086 36.1113H56.3652V38.1113H3.63086V36.1113Z" fill="#46BE88"/>
<path d="M21.209 44.1426H38.7871" stroke="#3D4159" stroke-width="2" stroke-miterlimit="10"/>
</g>
<defs>
<clipPath id="clip0_781_33422">
<rect width="60" height="60" fill="white" transform="translate(0 0.0800781)"/>
</clipPath>
</defs>
</svg>
