<svg width="125" height="93" viewBox="0 0 125 93" fill="none" xmlns="http://www.w3.org/2000/svg">
<g clip-path="url(#clip0_781_33255)">
<path d="M100.577 41.9697L58.6973 70.4819L70.8849 88.5153L112.764 60.0031L100.577 41.9697Z" fill="#C9F0DF"/>
<path d="M99.7755 44.541L61.373 70.686L71.6834 85.9417L110.086 59.7966L99.7755 44.541Z" fill="#46BE88"/>
<path d="M99.2141 46.1836L63.0996 70.7709L72.2466 84.3051L108.361 59.7178L99.2141 46.1836Z" fill="#C9F0DF"/>
<path d="M90.0824 71.6888C93.2533 69.5299 93.8749 64.896 91.4707 61.3386C89.0665 57.7813 84.5469 56.6475 81.3759 58.8064C78.2049 60.9652 77.5834 65.5991 79.9876 69.1564C82.3918 72.7138 86.9114 73.8476 90.0824 71.6888Z" fill="#25B69A"/>
<path d="M99.4963 59.1979C100.617 58.4353 100.836 56.7979 99.9861 55.5407C99.1364 54.2836 97.5396 53.8826 96.4195 54.6452C95.2993 55.4079 95.0801 57.0452 95.9297 58.3024C96.7794 59.5596 98.3762 59.9605 99.4963 59.1979Z" fill="#46BE88"/>
<path d="M75.0431 75.8483C76.1633 75.0856 76.3826 73.4483 75.5329 72.1911C74.6833 70.9339 73.0864 70.533 71.9663 71.2956C70.8462 72.0582 70.6269 73.6956 71.4765 74.9528C72.3262 76.2099 73.923 76.6109 75.0431 75.8483Z" fill="#25B69A"/>
<path d="M118.093 66.9941H67.4883V88.7848H118.093V66.9941Z" fill="#C9F0DF"/>
<path d="M115.994 68.6738H69.5898V87.1081H115.994V68.6738Z" fill="#46BE88"/>
<path d="M114.612 69.7119H70.9727V86.0661H114.612V69.7119Z" fill="#C9F0DF"/>
<path d="M92.7933 85.6759C96.625 85.6759 99.7311 82.1912 99.7311 77.8926C99.7311 73.5941 96.625 70.1094 92.7933 70.1094C88.9616 70.1094 85.8555 73.5941 85.8555 77.8926C85.8555 82.1912 88.9616 85.6759 92.7933 85.6759Z" fill="#46BE88"/>
<path d="M107.564 80.6438C108.918 80.6438 110.015 79.4123 110.015 77.8932C110.015 76.3741 108.918 75.1426 107.564 75.1426C106.211 75.1426 105.113 76.3741 105.113 77.8932C105.113 79.4123 106.211 80.6438 107.564 80.6438Z" fill="#46BE88"/>
<path d="M78.0191 80.6438C79.3727 80.6438 80.4699 79.4123 80.4699 77.8932C80.4699 76.3741 79.3727 75.1426 78.0191 75.1426C76.6656 75.1426 75.5684 76.3741 75.5684 77.8932C75.5684 79.4123 76.6656 80.6438 78.0191 80.6438Z" fill="#25B69A"/>
<path d="M16.2584 43.5797C16.2061 43.6161 16.1497 43.6403 16.0853 43.6565C15.8358 43.709 15.5904 43.5474 15.538 43.293C15.4374 42.8123 15.2402 42.2872 15.0954 42.1014C15.0591 42.1418 15.0109 42.2064 14.9465 42.3155C14.3589 43.3414 13.6346 43.507 13.1516 43.3212C12.552 43.091 12.041 42.2347 12.3991 40.5141C12.4675 40.1748 12.4756 39.9769 12.4635 39.8719C12.1617 40.0132 11.554 40.5989 11.2321 41.3057C10.9785 41.855 10.6405 41.9479 10.403 41.9318C9.81549 41.8874 9.3849 41.1644 8.86979 39.3549C8.62833 39.2175 7.8275 38.9752 7.05485 38.8096C6.80534 38.7571 6.64437 38.5107 6.70071 38.2603C6.75303 38.0099 6.99851 37.8483 7.24801 37.9048C9.54989 38.3976 9.66659 38.7854 9.72696 38.9914L9.75513 39.0883C10.0569 40.1546 10.2863 40.6393 10.4191 40.8614C10.8417 39.993 11.9564 38.6682 12.8217 38.955C13.3488 39.1287 13.5098 39.7184 13.3046 40.708C13.0631 41.8752 13.3247 42.3963 13.4816 42.4569C13.5661 42.4892 13.8438 42.3842 14.1456 41.855C14.4555 41.3138 14.8177 41.0755 15.2201 41.1401C15.9888 41.2653 16.3308 42.5578 16.4435 43.1072C16.4837 43.293 16.4033 43.4787 16.2544 43.5797H16.2584Z" fill="#E4ECF9"/>
<path d="M37.8007 60.496C37.8007 60.496 35.2936 59.3529 34.4243 55.7501L38.0542 43.6773C38.0542 43.6773 38.0542 41.8194 37.185 41.4922C36.3157 41.165 34.1386 42.4737 32.8307 43.023C31.5228 43.5683 28.0418 43.6773 24.4522 42.3687C20.8625 41.056 19.0114 42.8049 19.0114 42.8049L22.5246 56.6023C21.5829 60.0759 19.5547 60.5 19.5547 60.5C4.75341 67.0554 8.67304 84.4758 8.67304 84.4758C8.67304 87.703 17.5425 90.3204 28.4805 90.3204C28.5489 90.3204 28.6133 90.3204 28.6817 90.3204C28.7501 90.3204 28.8145 90.3204 28.8829 90.3204C39.8209 90.3204 48.6903 87.703 48.6903 84.4758C48.6903 84.4758 52.61 67.0554 37.8087 60.5L37.8007 60.496Z" fill="#5367FF"/>
<path d="M35.2934 56.3486H21.9852C21.6029 56.3486 21.293 56.6597 21.293 57.0434V57.5119C21.293 57.8956 21.6029 58.2066 21.9852 58.2066H35.2934C35.6757 58.2066 35.9856 57.8956 35.9856 57.5119V57.0434C35.9856 56.6597 35.6757 56.3486 35.2934 56.3486Z" fill="#DDE1FF"/>
<path d="M35.2934 54.1621H21.9852C21.6029 54.1621 21.293 54.4731 21.293 54.8568V55.3254C21.293 55.709 21.6029 56.0201 21.9852 56.0201H35.2934C35.6757 56.0201 35.9856 55.709 35.9856 55.3254V54.8568C35.9856 54.4731 35.6757 54.1621 35.2934 54.1621Z" fill="#DDE1FF"/>
<path d="M29.2736 68.1587C29.1207 68.1587 28.9677 68.1143 28.8309 68.0254C25.2332 65.6181 25.523 58.0328 25.5391 57.7097C25.5592 57.2654 25.9254 56.9221 26.3721 56.9423C26.8148 56.9624 27.1528 57.334 27.1367 57.7783C27.0522 59.7211 27.354 65.1052 29.7203 66.6885C30.0865 66.9349 30.1871 67.4317 29.9416 67.7992C29.7887 68.0295 29.5352 68.1547 29.2776 68.1547L29.2736 68.1587Z" fill="#DDE1FF"/>
<path d="M23.1031 62.8753C22.8456 62.8753 22.592 62.75 22.4391 62.5198C22.1936 62.1523 22.2942 61.6555 22.6604 61.4091C23.6021 60.779 23.8677 58.4808 23.8114 57.1761C23.7913 56.7359 24.1333 56.3603 24.576 56.3401C25.0106 56.3158 25.3889 56.6632 25.409 57.1034C25.4291 57.5397 25.5378 61.405 23.5458 62.7379C23.409 62.8308 23.256 62.8712 23.1031 62.8712V62.8753Z" fill="#DDE1FF"/>
<path d="M30.5051 72.5362C30.4729 72.4797 30.4327 72.4312 30.3965 72.3787L32.3724 72.3868L32.8553 70.6056L26.0945 70.5813H25.672L24.2474 70.5732L23.6961 72.7422L26.0865 72.7503C26.6257 72.7503 27.0563 72.8513 27.3823 73.0411C27.7083 73.2269 27.9417 73.4854 28.0865 73.8206C28.1067 73.8651 28.1107 73.9135 28.1268 73.958L24.1548 73.9418L23.6719 75.7311L28.1751 75.7473C28.1389 75.8644 28.1107 75.9815 28.0584 76.0865C27.8974 76.4178 27.656 76.6803 27.33 76.8782C27.004 77.0761 26.5895 77.169 26.0865 77.169L23.9255 77.1609V78.7402L28.3441 84.0273L31.3623 84.0395V83.9102L27.3904 79.0674C28.2636 78.9179 28.9638 78.6554 29.4991 78.2798C30.0343 77.9001 30.4246 77.4194 30.6742 76.8338C30.815 76.5066 30.9076 76.1431 30.9719 75.7554H32.3523L32.8271 73.9701L30.984 73.962C30.9035 73.4289 30.7506 72.9442 30.5051 72.5281V72.5362Z" fill="#F8CE4B"/>
<path d="M120.58 90.4531C121.22 90.4531 121.86 90.4531 122.5 90.4531" stroke="#E4ECF9" stroke-width="2.33268" stroke-linecap="round" stroke-linejoin="round"/>
<path d="M11.6426 90.4609C45.5148 90.5134 79.2824 90.5134 112.897 90.4609" stroke="#E4ECF9" stroke-width="2.33268" stroke-linecap="round" stroke-linejoin="round"/>
<path d="M2.5 90.4492C3.22034 90.4492 3.94471 90.4492 4.66505 90.4492" stroke="#E4ECF9" stroke-width="2.33268" stroke-linecap="round" stroke-linejoin="round"/>
<path d="M105.54 22.54C104.417 22.54 103.508 21.6594 103.508 20.581C103.508 19.5026 104.421 18.6221 105.54 18.6221C106.659 18.6221 107.572 19.5026 107.572 20.581C107.572 21.6594 106.659 22.54 105.54 22.54ZM105.54 19.2845C104.8 19.2845 104.196 19.8661 104.196 20.581C104.196 21.2959 104.8 21.8775 105.54 21.8775C106.281 21.8775 106.884 21.2959 106.884 20.581C106.884 19.8661 106.281 19.2845 105.54 19.2845Z" fill="#D6EBFD"/>
<path d="M27.7542 24.6703C26.4262 24.6703 25.3477 23.6282 25.3477 22.3478C25.3477 21.0675 26.4262 20.0254 27.7542 20.0254C29.0822 20.0254 30.1607 21.0675 30.1607 22.3478C30.1607 23.6282 29.0822 24.6703 27.7542 24.6703ZM27.7542 20.6918C26.8044 20.6918 26.0358 21.435 26.0358 22.3478C26.0358 23.2607 26.8085 24.0039 27.7542 24.0039C28.6999 24.0039 29.4725 23.2607 29.4725 22.3478C29.4725 21.435 28.6999 20.6918 27.7542 20.6918Z" fill="#D6EBFD"/>
<path d="M102.874 10.3642C102.355 10.3642 101.938 9.95624 101.938 9.45944C101.938 8.96263 102.359 8.55469 102.874 8.55469C103.389 8.55469 103.812 8.96263 103.812 9.45944C103.812 9.95624 103.389 10.3642 102.874 10.3642ZM102.874 9.21709C102.737 9.21709 102.625 9.32615 102.625 9.45944C102.625 9.59272 102.737 9.70178 102.874 9.70178C103.011 9.70178 103.124 9.59272 103.124 9.45944C103.124 9.32615 103.011 9.21709 102.874 9.21709Z" fill="#D6EBFD"/>
<path d="M97.424 18.6025C96.9049 18.6025 96.4863 18.1945 96.4863 17.6977C96.4863 17.2009 96.9089 16.793 97.424 16.793C97.9391 16.793 98.3616 17.2009 98.3616 17.6977C98.3616 18.1945 97.9391 18.6025 97.424 18.6025ZM97.424 17.4554C97.2872 17.4554 97.1745 17.5644 97.1745 17.6977C97.1745 17.831 97.2872 17.9401 97.424 17.9401C97.5608 17.9401 97.6735 17.831 97.6735 17.6977C97.6735 17.5644 97.5608 17.4554 97.424 17.4554Z" fill="#D6EBFD"/>
<path d="M37.337 12.0121C36.7655 12.0121 36.3027 11.5678 36.3027 11.0185V6.519C36.3027 5.96969 36.7655 5.52539 37.337 5.52539C37.9084 5.52539 38.3712 5.96969 38.3712 6.519V11.0185C38.3712 11.5678 37.9084 12.0121 37.337 12.0121Z" fill="#D6EBFD"/>
<g opacity="0.4">
<path d="M102.376 31.375L100.211 33.1441C100.03 33.2895 99.7518 33.2572 99.5868 33.0714C99.4218 32.8856 99.4339 32.615 99.615 32.4655L101.78 30.6964C101.961 30.551 102.239 30.5833 102.404 30.7691C102.569 30.9549 102.557 31.2255 102.376 31.375Z" fill="#ED5EFC"/>
</g>
<path d="M24.3226 18.5872C22.9342 19.8999 23.5218 22.7959 25.6385 25.0497C27.7553 27.3076 30.5964 28.0709 31.9848 26.7583L32.7534 26.0312L25.0832 17.8643L24.3226 18.5832V18.5872Z" fill="#FDAE3A"/>
<path d="M31.5297 24.7267L28.918 27.1946C29.8234 27.4692 30.6806 27.4733 31.3567 27.1703L32.6646 25.9344L31.5297 24.7227V24.7267Z" fill="#FDCF86"/>
<path d="M27.3086 26.4435C27.7593 26.7303 28.2181 26.9525 28.6648 27.114L31.3691 24.5613L30.3992 23.5273L27.3126 26.4476L27.3086 26.4435Z" fill="#FDCF86"/>
<path d="M25.1393 17.8149C23.7348 19.1438 24.3103 22.0519 26.4231 24.3057C28.5358 26.5595 31.393 27.3148 32.8015 25.9859C34.206 24.6571 33.6345 21.749 31.5178 19.4952C29.401 17.2374 26.5478 16.4861 25.1393 17.8149Z" fill="#FAEA5C"/>
<path d="M28.3516 17.3965L29.7279 26.448C30.577 26.6984 31.3859 26.7146 32.0458 26.4601L30.8949 18.8909C30.082 18.176 29.2007 17.6711 28.3516 17.3965Z" fill="#FFF3C3"/>
<path d="M29.4341 26.35L28.0578 17.3065C27.6272 17.1934 27.2087 17.145 26.8184 17.1571L28.1182 25.7037C28.5568 25.9784 28.9995 26.1925 29.4341 26.35Z" fill="#FFF3C3"/>
<path d="M25.8091 18.3159C24.63 19.4307 25.133 21.8945 26.9399 23.8211C28.7468 25.7437 31.1654 26.4021 32.3485 25.2832C33.5276 24.1685 33.0246 21.7046 31.2177 19.778C29.4108 17.8514 26.9922 17.1971 25.8131 18.3159H25.8091Z" fill="#FDAE3A"/>
<path d="M26.0618 18.5839C24.9712 19.6138 25.438 21.8878 27.1041 23.665C28.7701 25.4422 31.0036 26.048 32.0942 25.014C33.1848 23.9841 32.7179 21.7101 31.0519 19.9329C29.3858 18.1557 27.1524 17.5499 26.0618 18.5839Z" fill="#FAEA5C"/>
<path d="M28.543 18.2725L29.6174 25.3408C30.3458 25.5751 31.038 25.5872 31.5853 25.3529L30.712 19.6053C30.0239 18.9631 29.2673 18.5108 28.543 18.2765V18.2725Z" fill="#FDEDA9"/>
<path d="M29.369 25.2484L28.2945 18.2003C27.9283 18.1033 27.5701 18.067 27.2441 18.0953L28.2422 24.6506C28.6124 24.9051 28.9947 25.103 29.369 25.2484Z" fill="#FDEDA9"/>
<path d="M108.397 38.4836C109.608 39.966 112.525 39.5701 114.908 37.6031C117.294 35.6361 118.244 32.8411 117.033 31.3628L116.365 30.5469L107.729 37.6758L108.393 38.4877L108.397 38.4836Z" fill="#FDAE3A"/>
<path d="M114.984 31.6803L117.262 34.4592C117.596 33.5706 117.661 32.7143 117.403 32.0155L116.264 30.6221L114.984 31.6803Z" fill="#FDCF86"/>
<path d="M116.405 36.0187C116.719 35.5865 116.973 35.1422 117.162 34.706L114.804 31.8262L113.709 32.7309L116.401 36.0187H116.405Z" fill="#FDCF86"/>
<path d="M107.685 37.6141C108.913 39.1125 111.838 38.7329 114.225 36.7659C116.611 34.7988 117.549 31.9917 116.325 30.4932C115.098 28.9947 112.172 29.3744 109.786 31.3414C107.4 33.3084 106.462 36.1196 107.685 37.6141Z" fill="#FAEA5C"/>
<path d="M107.484 34.371L116.575 33.6036C116.881 32.7715 116.949 31.9597 116.744 31.2852L109.142 31.9274C108.378 32.6948 107.814 33.543 107.484 34.375V34.371Z" fill="#FFF3C3"/>
<path d="M116.457 33.8908L107.374 34.6582C107.233 35.0823 107.153 35.4983 107.145 35.8901L115.728 35.1631C116.03 34.743 116.276 34.3149 116.457 33.8867V33.8908Z" fill="#FFF3C3"/>
<path d="M108.228 36.9766C109.258 38.2328 111.741 37.8935 113.777 36.2173C115.813 34.5411 116.626 32.158 115.596 30.9019C114.566 29.6457 112.083 29.985 110.047 31.6612C108.01 33.3374 107.198 35.7205 108.228 36.9766Z" fill="#FDAE3A"/>
<path d="M108.507 36.7429C109.457 37.9062 111.751 37.5911 113.63 36.0401C115.509 34.4892 116.262 32.2959 115.308 31.1327C114.354 29.9694 112.065 30.2845 110.185 31.8355C108.306 33.3824 107.553 35.5797 108.507 36.7429Z" fill="#FAEA5C"/>
<path d="M108.365 34.234L115.464 33.6322C115.746 32.9173 115.806 32.2266 115.609 31.6611L109.838 32.1499C109.154 32.7961 108.651 33.5231 108.369 34.234H108.365Z" fill="#FDEDA9"/>
<path d="M115.354 33.877L108.275 34.4747C108.154 34.8382 108.094 35.1896 108.098 35.5208L114.682 34.9635C114.959 34.608 115.185 34.2405 115.354 33.877Z" fill="#FDEDA9"/>
<path d="M57.3996 6.33131C57.4599 8.67396 60.285 10.5037 63.7136 10.4188C67.1423 10.33 69.8748 8.35892 69.8144 6.01626L69.7822 4.71973L57.3633 5.04285L57.3955 6.32727L57.3996 6.33131Z" fill="#FDAE3A"/>
<path d="M67.8027 4.77308L67.9154 9.17565C68.8128 8.57383 69.4487 7.79429 69.6982 6.92993L69.6418 4.72461L67.8027 4.77308Z" fill="#FDCF86"/>
<path d="M66.1035 10.031C66.6709 9.85333 67.1941 9.61906 67.6609 9.34037L67.5442 4.78027L65.9707 4.82066L66.1035 10.031Z" fill="#FDCF86"/>
<path d="M57.3662 4.9541C57.4266 7.32503 60.2556 9.17896 63.6843 9.0901C67.113 9.00124 69.8455 7.00998 69.7851 4.63906C69.7247 2.26813 66.8957 0.414206 63.467 0.503065C60.0383 0.591925 57.3059 2.58318 57.3662 4.9541Z" fill="#FAEA5C"/>
<path d="M59.3926 1.6787L67.8918 7.82614C68.7248 7.25664 69.3365 6.52961 69.6142 5.71776L62.5074 0.580078C61.3162 0.737601 60.2457 1.12939 59.3926 1.68274V1.6787Z" fill="#FFF3C3"/>
<path d="M67.5959 8.01547L59.1047 1.87207C58.6942 2.175 58.3401 2.51428 58.0664 2.88587L66.0908 8.69C66.6381 8.51632 67.1451 8.28609 67.5959 8.01547Z" fill="#FFF3C3"/>
<path d="M58.2743 4.75238C58.3226 6.74363 60.7372 8.29867 63.6588 8.22597C66.5844 8.15326 68.9145 6.47706 68.8621 4.4858C68.8139 2.49455 66.3993 0.939512 63.4777 1.01221C60.552 1.08492 58.222 2.76113 58.2743 4.75238Z" fill="#FDAE3A"/>
<path d="M58.6843 4.74384C58.7326 6.58161 60.958 8.01951 63.6583 7.95085C66.3585 7.88218 68.5075 6.33523 68.4632 4.49746C68.4149 2.65969 66.1895 1.22178 63.4892 1.29045C60.789 1.35911 58.64 2.90607 58.6843 4.74384Z" fill="#FAEA5C"/>
<path d="M60.2578 2.21587L66.8938 7.01427C67.6262 6.5417 68.1494 5.91969 68.3587 5.22497L62.9621 1.32324C61.9239 1.42422 60.9902 1.74734 60.2578 2.21587Z" fill="#FDEDA9"/>
<path d="M66.6375 7.17202L60.0176 2.38574C59.6674 2.64424 59.3737 2.93909 59.1523 3.25818L65.3095 7.70922C65.7964 7.57593 66.2391 7.39417 66.6375 7.17202Z" fill="#FDEDA9"/>
<path d="M45.3281 13.9359C45.3281 13.2556 45.8796 12.7041 46.5599 12.7041C47.2403 12.7041 47.7918 13.2556 47.7918 13.9359V21.3631C47.7918 22.0434 47.2403 22.5949 46.5599 22.5949C45.8796 22.5949 45.3281 22.0434 45.3281 21.3631V13.9359Z" fill="#5367FF"/>
<path d="M82.767 5.53223H52.7293C49.1865 5.53223 46.3145 8.40427 46.3145 11.9471V83.6836C46.3145 87.2265 49.1865 90.0985 52.7293 90.0985H82.767C86.3098 90.0985 89.1819 87.2265 89.1819 83.6836V11.9471C89.1819 8.40427 86.3098 5.53223 82.767 5.53223Z" fill="#5367FF"/>
<path d="M82.9487 6.52148H52.5493C49.6506 6.52148 47.3008 8.87134 47.3008 11.77V83.861C47.3008 86.7597 49.6506 89.1096 52.5493 89.1096H82.9487C85.8474 89.1096 88.1973 86.7597 88.1973 83.861V11.77C88.1973 8.87134 85.8474 6.52148 82.9487 6.52148Z" fill="white"/>
<path opacity="0.3" d="M72.4275 8.00488H62.5766C62.3034 8.00488 62.082 8.2263 62.082 8.49942V8.49942C62.082 8.77255 62.3034 8.99396 62.5766 8.99396H72.4275C72.7006 8.99396 72.922 8.77255 72.922 8.49942C72.922 8.2263 72.7006 8.00488 72.4275 8.00488Z" fill="#5367FF"/>
<path d="M89.6749 16.9072H88.6895V26.3035H89.6749V16.9072Z" fill="#5367FF"/>
<path d="M89.6749 28.2812H88.6895V37.6775H89.6749V28.2812Z" fill="#423DB6"/>
<mask id="mask0_781_33255" style="mask-type:alpha" maskUnits="userSpaceOnUse" x="47" y="6" width="42" height="84">
<path d="M82.9468 6.5H52.5474C49.6487 6.5 47.2988 8.84985 47.2988 11.7485V83.8396C47.2988 86.7383 49.6487 89.0881 52.5474 89.0881H82.9468C85.8455 89.0881 88.1953 86.7383 88.1953 83.8396V11.7485C88.1953 8.84985 85.8455 6.5 82.9468 6.5Z" fill="white"/>
</mask>
<g mask="url(#mask0_781_33255)">
<path d="M107.924 2.75748L100.27 -5.36816L27.5893 63.6044L35.2441 71.7301L107.924 2.75748Z" fill="white" fill-opacity="0.8"/>
<path d="M102.664 -9.34116L101.748 -10.3135L29.0678 58.6591L29.9838 59.6314L102.664 -9.34116Z" fill="white" fill-opacity="0.8"/>
<path d="M113.952 26.4362L100.762 12.4346L28.0815 81.4072L41.2717 95.4088L113.952 26.4362Z" fill="white" fill-opacity="0.8"/>
</g>
<g filter="url(#filter0_d_781_33255)">
<path d="M97.5 22.5H37.5C35.8431 22.5 34.5 23.8431 34.5 25.5V69.5C34.5 71.1569 35.8431 72.5 37.5 72.5H97.5C99.1569 72.5 100.5 71.1569 100.5 69.5V25.5C100.5 23.8431 99.1569 22.5 97.5 22.5Z" fill="white"/>
</g>
<path opacity="0.2" d="M91 46.1152H44C43.1716 46.1152 42.5 46.7868 42.5 47.6152C42.5 48.4437 43.1716 49.1152 44 49.1152H91C91.8284 49.1152 92.5 48.4437 92.5 47.6152C92.5 46.7868 91.8284 46.1152 91 46.1152Z" fill="#5367FF"/>
<path d="M42.5 47.6152C42.5 46.7868 43.1716 46.1152 44 46.1152H55.5V49.1152H44C43.1716 49.1152 42.5 48.4436 42.5 47.6152Z" fill="#5367FF"/>
<path opacity="0.0447591" d="M56.5 54.5C60.366 54.5 63.5 51.366 63.5 47.5C63.5 43.634 60.366 40.5 56.5 40.5C52.634 40.5 49.5 43.634 49.5 47.5C49.5 51.366 52.634 54.5 56.5 54.5Z" fill="#007FFF"/>
<path opacity="0.0447591" d="M56.4991 52.9436C59.506 52.9436 61.9436 50.506 61.9436 47.4991C61.9436 44.4922 59.506 42.0547 56.4991 42.0547C53.4922 42.0547 51.0547 44.4922 51.0547 47.4991C51.0547 50.506 53.4922 52.9436 56.4991 52.9436Z" fill="#007FFF"/>
<path d="M56.4998 51.1109C58.4941 51.1109 60.1109 49.4941 60.1109 47.4998C60.1109 45.5054 58.4941 43.8887 56.4998 43.8887C54.5054 43.8887 52.8887 45.5054 52.8887 47.4998C52.8887 49.4941 54.5054 51.1109 56.4998 51.1109Z" fill="white" stroke="#5367FF"/>
<path d="M43.3275 33.7501H42.7695V33.1261H44.0175V37.5001H43.3275V33.7501ZM44.9032 36.9421L45.3352 36.5701C45.7192 36.2401 46.0252 35.9641 46.2472 35.7481C46.4692 35.5381 46.6492 35.3161 46.7992 35.0821C46.9492 34.8481 47.0212 34.6201 47.0212 34.3861C47.0212 34.1461 46.9672 33.9601 46.8532 33.8221C46.7392 33.6841 46.5592 33.6181 46.3132 33.6181C46.0792 33.6181 45.8932 33.6901 45.7672 33.8401C45.6352 33.9901 45.5632 34.1941 45.5572 34.4461H44.8972C44.9092 33.9901 45.0472 33.6421 45.3112 33.3961C45.5692 33.1561 45.9052 33.0361 46.3072 33.0361C46.7452 33.0361 47.0872 33.1561 47.3332 33.3961C47.5792 33.6361 47.6992 33.9541 47.6992 34.3561C47.6992 34.6441 47.6272 34.9201 47.4832 35.1841C47.3332 35.4541 47.1592 35.6881 46.9612 35.8981C46.7572 36.1081 46.4992 36.3541 46.1872 36.6301L45.9172 36.8701H47.8192V37.4401H44.9032V36.9421Z" fill="#3D4159"/>
<path d="M60.9432 33.3296H61.6752V37.4996H60.9912V34.6436L59.7192 37.4996H59.2452L57.9672 34.6436V37.4996H57.2832V33.3296H58.0212L59.4852 36.5996L60.9432 33.3296ZM64.0082 37.5536C63.6962 37.5536 63.4142 37.4816 63.1622 37.3376C62.9102 37.1996 62.7122 36.9956 62.5682 36.7376C62.4242 36.4796 62.3522 36.1856 62.3522 35.8436C62.3522 35.5076 62.4242 35.2076 62.5742 34.9496C62.7242 34.6916 62.9222 34.4876 63.1802 34.3496C63.4382 34.2116 63.7202 34.1396 64.0382 34.1396C64.3562 34.1396 64.6382 34.2116 64.8962 34.3496C65.1542 34.4876 65.3522 34.6916 65.5022 34.9496C65.6522 35.2076 65.7242 35.5076 65.7242 35.8436C65.7242 36.1796 65.6462 36.4796 65.4962 36.7376C65.3462 36.9956 65.1362 37.1996 64.8782 37.3376C64.6142 37.4816 64.3262 37.5536 64.0082 37.5536ZM64.0082 36.9596C64.1822 36.9596 64.3502 36.9176 64.5062 36.8336C64.6562 36.7496 64.7822 36.6236 64.8782 36.4556C64.9742 36.2876 65.0222 36.0836 65.0222 35.8436C65.0222 35.6036 64.9742 35.3996 64.8842 35.2316C64.7942 35.0696 64.6682 34.9436 64.5182 34.8596C64.3682 34.7756 64.2002 34.7336 64.0262 34.7336C63.8522 34.7336 63.6902 34.7756 63.5402 34.8596C63.3902 34.9436 63.2702 35.0696 63.1802 35.2316C63.0902 35.3996 63.0482 35.6036 63.0482 35.8436C63.0482 36.1976 63.1382 36.4736 63.3242 36.6656C63.5042 36.8636 63.7322 36.9596 64.0082 36.9596ZM68.0684 34.1396C68.3264 34.1396 68.5604 34.1936 68.7704 34.3016C68.9744 34.4096 69.1364 34.5716 69.2504 34.7816C69.3644 34.9916 69.4244 35.2496 69.4244 35.5496V37.4996H68.7464V35.6516C68.7464 35.3576 68.6744 35.1296 68.5244 34.9676C68.3744 34.8116 68.1764 34.7336 67.9184 34.7336C67.6604 34.7336 67.4624 34.8116 67.3124 34.9676C67.1624 35.1296 67.0844 35.3576 67.0844 35.6516V37.4996H66.4004V34.1936H67.0844V34.5716C67.1984 34.4336 67.3424 34.3316 67.5164 34.2536C67.6904 34.1756 67.8704 34.1396 68.0684 34.1396ZM71.8989 34.7516H71.0949V36.5816C71.0949 36.7076 71.1249 36.7916 71.1849 36.8456C71.2389 36.8996 71.3409 36.9296 71.4789 36.9296H71.8989V37.4996H71.3589C71.0529 37.4996 70.8129 37.4276 70.6509 37.2836C70.4889 37.1396 70.4049 36.9056 70.4049 36.5816V34.7516H70.0149V34.1936H70.4049V33.3716H71.0949V34.1936H71.8989V34.7516ZM74.2393 34.1396C74.4913 34.1396 74.7193 34.1936 74.9173 34.3016C75.1153 34.4096 75.2713 34.5716 75.3853 34.7816C75.4993 34.9916 75.5533 35.2496 75.5533 35.5496V37.4996H74.8753V35.6516C74.8753 35.3576 74.8033 35.1296 74.6533 34.9676C74.5033 34.8116 74.3053 34.7336 74.0473 34.7336C73.7893 34.7336 73.5913 34.8116 73.4413 34.9676C73.2913 35.1296 73.2133 35.3576 73.2133 35.6516V37.4996H72.5293V33.0596H73.2133V34.5776C73.3273 34.4396 73.4773 34.3316 73.6573 34.2536C73.8313 34.1756 74.0293 34.1396 74.2393 34.1396ZM77.6258 37.5536C77.3678 37.5536 77.1338 37.5056 76.9298 37.4096C76.7198 37.3196 76.5578 37.1876 76.4378 37.0256C76.3178 36.8636 76.2518 36.6836 76.2458 36.4856H76.9538C76.9658 36.6236 77.0318 36.7436 77.1578 36.8336C77.2778 36.9296 77.4278 36.9776 77.6138 36.9776C77.8058 36.9776 77.9558 36.9416 78.0638 36.8636C78.1658 36.7916 78.2198 36.6956 78.2198 36.5816C78.2198 36.4556 78.1598 36.3656 78.0458 36.3056C77.9258 36.2456 77.7398 36.1796 77.4818 36.1076C77.2358 36.0416 77.0318 35.9756 76.8758 35.9096C76.7198 35.8436 76.5878 35.7476 76.4738 35.6156C76.3598 35.4836 76.2998 35.3096 76.2998 35.0936C76.2998 34.9196 76.3538 34.7576 76.4558 34.6076C76.5578 34.4636 76.7078 34.3496 76.9058 34.2656C77.0978 34.1816 77.3198 34.1396 77.5718 34.1396C77.9498 34.1396 78.2498 34.2356 78.4838 34.4216C78.7118 34.6136 78.8318 34.8716 78.8498 35.2016H78.1658C78.1538 35.0516 78.0938 34.9376 77.9858 34.8476C77.8778 34.7576 77.7338 34.7156 77.5478 34.7156C77.3678 34.7156 77.2298 34.7516 77.1338 34.8176C77.0378 34.8836 76.9898 34.9736 76.9898 35.0876C76.9898 35.1776 77.0198 35.2496 77.0858 35.3096C77.1518 35.3696 77.2298 35.4176 77.3198 35.4476C77.4098 35.4836 77.5478 35.5256 77.7278 35.5796C77.9678 35.6456 78.1658 35.7056 78.3218 35.7716C78.4718 35.8376 78.6038 35.9396 78.7178 36.0656C78.8318 36.1916 78.8858 36.3656 78.8918 36.5756C78.8918 36.7616 78.8378 36.9296 78.7358 37.0796C78.6338 37.2296 78.4838 37.3436 78.2978 37.4276C78.1058 37.5116 77.8838 37.5536 77.6258 37.5536Z" fill="#3D4159"/>
<path d="M52.6029 58.7775H52.0449V58.1535H53.2929V62.5275H52.6029V58.7775ZM54.1786 61.9695L54.6106 61.5975C54.9946 61.2675 55.3006 60.9915 55.5226 60.7755C55.7446 60.5655 55.9246 60.3435 56.0746 60.1095C56.2246 59.8755 56.2966 59.6475 56.2966 59.4135C56.2966 59.1735 56.2426 58.9875 56.1286 58.8495C56.0146 58.7115 55.8346 58.6455 55.5886 58.6455C55.3546 58.6455 55.1686 58.7175 55.0426 58.8675C54.9106 59.0175 54.8386 59.2215 54.8326 59.4735H54.1726C54.1846 59.0175 54.3226 58.6695 54.5866 58.4235C54.8446 58.1835 55.1806 58.0635 55.5826 58.0635C56.0206 58.0635 56.3626 58.1835 56.6086 58.4235C56.8546 58.6635 56.9746 58.9815 56.9746 59.3835C56.9746 59.6715 56.9026 59.9475 56.7586 60.2115C56.6086 60.4815 56.4346 60.7155 56.2366 60.9255C56.0326 61.1355 55.7746 61.3815 55.4626 61.6575L55.1926 61.8975H57.0946V62.4675H54.1786V61.9695ZM63.0041 58.3575H63.7361V62.5275H63.0521V59.6715L61.7801 62.5275H61.3061L60.0281 59.6715V62.5275H59.3441V58.3575H60.0821L61.5461 61.6275L63.0041 58.3575ZM66.0691 62.5815C65.7571 62.5815 65.4751 62.5095 65.2231 62.3655C64.9711 62.2275 64.7731 62.0235 64.6291 61.7655C64.4851 61.5075 64.4131 61.2135 64.4131 60.8715C64.4131 60.5355 64.4851 60.2355 64.6351 59.9775C64.7851 59.7195 64.9831 59.5155 65.2411 59.3775C65.4991 59.2395 65.7811 59.1675 66.0991 59.1675C66.4171 59.1675 66.6991 59.2395 66.9571 59.3775C67.2151 59.5155 67.4131 59.7195 67.5631 59.9775C67.7131 60.2355 67.7851 60.5355 67.7851 60.8715C67.7851 61.2075 67.7071 61.5075 67.5571 61.7655C67.4071 62.0235 67.1971 62.2275 66.9391 62.3655C66.6751 62.5095 66.3871 62.5815 66.0691 62.5815ZM66.0691 61.9875C66.2431 61.9875 66.4111 61.9455 66.5671 61.8615C66.7171 61.7775 66.8431 61.6515 66.9391 61.4835C67.0351 61.3155 67.0831 61.1115 67.0831 60.8715C67.0831 60.6315 67.0351 60.4275 66.9451 60.2595C66.8551 60.0975 66.7291 59.9715 66.5791 59.8875C66.4291 59.8035 66.2611 59.7615 66.0871 59.7615C65.9131 59.7615 65.7511 59.8035 65.6011 59.8875C65.4511 59.9715 65.3311 60.0975 65.2411 60.2595C65.1511 60.4275 65.1091 60.6315 65.1091 60.8715C65.1091 61.2255 65.1991 61.5015 65.3851 61.6935C65.5651 61.8915 65.7931 61.9875 66.0691 61.9875ZM70.1292 59.1675C70.3872 59.1675 70.6212 59.2215 70.8312 59.3295C71.0352 59.4375 71.1972 59.5995 71.3112 59.8095C71.4252 60.0195 71.4852 60.2775 71.4852 60.5775V62.5275H70.8072V60.6795C70.8072 60.3855 70.7352 60.1575 70.5852 59.9955C70.4352 59.8395 70.2372 59.7615 69.9792 59.7615C69.7212 59.7615 69.5232 59.8395 69.3732 59.9955C69.2232 60.1575 69.1452 60.3855 69.1452 60.6795V62.5275H68.4612V59.2215H69.1452V59.5995C69.2592 59.4615 69.4032 59.3595 69.5772 59.2815C69.7512 59.2035 69.9312 59.1675 70.1292 59.1675ZM73.9597 59.7795H73.1557V61.6095C73.1557 61.7355 73.1857 61.8195 73.2457 61.8735C73.2997 61.9275 73.4017 61.9575 73.5397 61.9575H73.9597V62.5275H73.4197C73.1137 62.5275 72.8737 62.4555 72.7117 62.3115C72.5497 62.1675 72.4657 61.9335 72.4657 61.6095V59.7795H72.0757V59.2215H72.4657V58.3995H73.1557V59.2215H73.9597V59.7795ZM76.3001 59.1675C76.5521 59.1675 76.7801 59.2215 76.9781 59.3295C77.1761 59.4375 77.3321 59.5995 77.4461 59.8095C77.5601 60.0195 77.6141 60.2775 77.6141 60.5775V62.5275H76.9361V60.6795C76.9361 60.3855 76.8641 60.1575 76.7141 59.9955C76.5641 59.8395 76.3661 59.7615 76.1081 59.7615C75.8501 59.7615 75.6521 59.8395 75.5021 59.9955C75.3521 60.1575 75.2741 60.3855 75.2741 60.6795V62.5275H74.5901V58.0875H75.2741V59.6055C75.3881 59.4675 75.5381 59.3595 75.7181 59.2815C75.8921 59.2035 76.0901 59.1675 76.3001 59.1675ZM79.6866 62.5815C79.4286 62.5815 79.1946 62.5335 78.9906 62.4375C78.7806 62.3475 78.6186 62.2155 78.4986 62.0535C78.3786 61.8915 78.3126 61.7115 78.3066 61.5135H79.0146C79.0266 61.6515 79.0926 61.7715 79.2186 61.8615C79.3386 61.9575 79.4886 62.0055 79.6746 62.0055C79.8666 62.0055 80.0166 61.9695 80.1246 61.8915C80.2266 61.8195 80.2806 61.7235 80.2806 61.6095C80.2806 61.4835 80.2206 61.3935 80.1066 61.3335C79.9866 61.2735 79.8006 61.2075 79.5426 61.1355C79.2966 61.0695 79.0926 61.0035 78.9366 60.9375C78.7806 60.8715 78.6486 60.7755 78.5346 60.6435C78.4206 60.5115 78.3606 60.3375 78.3606 60.1215C78.3606 59.9475 78.4146 59.7855 78.5166 59.6355C78.6186 59.4915 78.7686 59.3775 78.9666 59.2935C79.1586 59.2095 79.3806 59.1675 79.6326 59.1675C80.0106 59.1675 80.3106 59.2635 80.5446 59.4495C80.7726 59.6415 80.8926 59.8995 80.9106 60.2295H80.2266C80.2146 60.0795 80.1546 59.9655 80.0466 59.8755C79.9386 59.7855 79.7946 59.7435 79.6086 59.7435C79.4286 59.7435 79.2906 59.7795 79.1946 59.8455C79.0986 59.9115 79.0506 60.0015 79.0506 60.1155C79.0506 60.2055 79.0806 60.2775 79.1466 60.3375C79.2126 60.3975 79.2906 60.4455 79.3806 60.4755C79.4706 60.5115 79.6086 60.5535 79.7886 60.6075C80.0286 60.6735 80.2266 60.7335 80.3826 60.7995C80.5326 60.8655 80.6646 60.9675 80.7786 61.0935C80.8926 61.2195 80.9466 61.3935 80.9526 61.6035C80.9526 61.7895 80.8986 61.9575 80.7966 62.1075C80.6946 62.2575 80.5446 62.3715 80.3586 62.4555C80.1666 62.5395 79.9446 62.5815 79.6866 62.5815Z" fill="#3D4159"/>
<path d="M86.2914 34.1396C86.2494 33.9536 86.1654 33.8156 86.0514 33.7256C85.9374 33.6356 85.7754 33.5876 85.5654 33.5876C85.2474 33.5876 85.0134 33.7076 84.8574 33.9476C84.7014 34.1936 84.6174 34.5956 84.6114 35.1536C84.7134 34.9796 84.8694 34.8416 85.0674 34.7456C85.2654 34.6496 85.4814 34.6016 85.7154 34.6016C85.9794 34.6016 86.2134 34.6556 86.4174 34.7696C86.6154 34.8836 86.7774 35.0516 86.8914 35.2676C87.0054 35.4836 87.0594 35.7416 87.0594 36.0416C87.0594 36.3236 87.0054 36.5696 86.8974 36.7916C86.7834 37.0136 86.6214 37.1816 86.4054 37.3076C86.1894 37.4336 85.9314 37.4996 85.6254 37.4996C85.2114 37.4996 84.8934 37.4096 84.6594 37.2236C84.4254 37.0436 84.2574 36.7856 84.1674 36.4556C84.0714 36.1256 84.0234 35.7116 84.0234 35.2136C84.0234 33.7496 84.5394 33.0176 85.5714 33.0176C85.9734 33.0176 86.2854 33.1256 86.5194 33.3416C86.7474 33.5576 86.8794 33.8216 86.9214 34.1396H86.2914ZM85.5654 35.1776C85.3194 35.1776 85.1154 35.2496 84.9474 35.3936C84.7734 35.5436 84.6894 35.7536 84.6894 36.0296C84.6894 36.3056 84.7674 36.5216 84.9294 36.6836C85.0854 36.8456 85.3074 36.9296 85.5894 36.9296C85.8414 36.9296 86.0394 36.8516 86.1894 36.6956C86.3334 36.5396 86.4054 36.3296 86.4054 36.0716C86.4054 35.8016 86.3334 35.5796 86.1954 35.4176C86.0514 35.2556 85.8414 35.1776 85.5654 35.1776ZM87.789 35.2556C87.789 34.5656 87.909 34.0196 88.143 33.6296C88.377 33.2396 88.779 33.0476 89.349 33.0476C89.919 33.0476 90.327 33.2396 90.561 33.6296C90.795 34.0196 90.909 34.5656 90.909 35.2556C90.909 35.9576 90.795 36.5036 90.561 36.8936C90.327 37.2896 89.919 37.4876 89.349 37.4876C88.779 37.4876 88.377 37.2896 88.143 36.8936C87.909 36.5036 87.789 35.9576 87.789 35.2556ZM90.237 35.2556C90.237 34.9316 90.219 34.6556 90.177 34.4336C90.135 34.2116 90.045 34.0256 89.919 33.8816C89.793 33.7436 89.601 33.6716 89.349 33.6716C89.097 33.6716 88.905 33.7436 88.779 33.8816C88.653 34.0256 88.569 34.2116 88.527 34.4336C88.485 34.6556 88.461 34.9316 88.461 35.2556C88.461 35.5916 88.479 35.8736 88.521 36.1016C88.563 36.3296 88.647 36.5156 88.779 36.6536C88.905 36.7916 89.097 36.8636 89.349 36.8636C89.601 36.8636 89.793 36.7916 89.925 36.6536C90.051 36.5156 90.135 36.3296 90.177 36.1016C90.219 35.8736 90.237 35.5916 90.237 35.2556Z" fill="#3D4159"/>
</g>
<defs>
<filter id="filter0_d_781_33255" x="28.5" y="16.5" width="78" height="62" filterUnits="userSpaceOnUse" color-interpolation-filters="sRGB">
<feFlood flood-opacity="0" result="BackgroundImageFix"/>
<feColorMatrix in="SourceAlpha" type="matrix" values="0 0 0 0 0 0 0 0 0 0 0 0 0 0 0 0 0 0 127 0" result="hardAlpha"/>
<feOffset/>
<feGaussianBlur stdDeviation="3"/>
<feComposite in2="hardAlpha" operator="out"/>
<feColorMatrix type="matrix" values="0 0 0 0 0 0 0 0 0 0 0 0 0 0 0 0 0 0 0.08 0"/>
<feBlend mode="normal" in2="BackgroundImageFix" result="effect1_dropShadow_781_33255"/>
<feBlend mode="normal" in="SourceGraphic" in2="effect1_dropShadow_781_33255" result="shape"/>
</filter>
<clipPath id="clip0_781_33255">
<rect width="124" height="92" fill="white" transform="translate(0.5 0.5)"/>
</clipPath>
</defs>
</svg>
