<svg width="8" height="10" viewBox="0 0 8 10" fill="none" xmlns="http://www.w3.org/2000/svg">
<path d="M2.47075 9.83129C2.53432 9.89488 2.62054 9.93059 2.71045 9.93059C2.80035 9.93059 2.88656 9.89488 2.95013 9.83129L7.46343 5.31799C7.52702 5.25441 7.56273 5.1682 7.56273 5.07829C7.56273 4.98839 7.52702 4.90217 7.46343 4.8386L2.95013 0.325284C2.91872 0.293871 2.88141 0.26898 2.84034 0.252037C2.79927 0.235095 2.75526 0.226437 2.71084 0.226564C2.66642 0.226691 2.62245 0.235597 2.58148 0.252774C2.54051 0.26995 2.50334 0.295054 2.47211 0.326647L0.953598 1.84516C0.922005 1.87639 0.896902 1.91356 0.879726 1.95453C0.86255 1.9955 0.853644 2.03946 0.853517 2.08389C0.853391 2.12831 0.862046 2.17233 0.878988 2.21339C0.895931 2.25446 0.920823 2.29177 0.952236 2.32318L3.54937 4.92031C3.59163 4.96257 3.61537 5.01989 3.61537 5.07965C3.61537 5.13941 3.59163 5.19674 3.54937 5.239L0.953603 7.83476C0.890032 7.89835 0.854318 7.98453 0.854318 8.07447C0.854318 8.16435 0.890031 8.25059 0.953601 8.31417L2.47075 9.83129Z" fill="#46BE88"/>
</svg>
