<svg width="73" height="65" viewBox="0 0 73 65" fill="none" xmlns="http://www.w3.org/2000/svg">
<g clip-path="url(#clip0_781_33248)">
<path opacity="0.7" d="M53.4048 60.2139H19.5639L2.3125 61.6841L21.2063 64.6633L51.3193 64.801L70.4139 61.6944L53.4048 60.2139Z" fill="#E8EAF8"/>
<path d="M46.8015 44.6875L25.5109 44.7756L14.9219 46.4193L25.6235 47.9764L46.9141 47.8885L57.5031 46.2446L46.8015 44.6875Z" fill="white" stroke="#DDE1FF" stroke-width="0.317701" stroke-miterlimit="10"/>
<path d="M21.9604 54.294V63.5408L7.08203 61.1747V52.293L21.9604 54.294Z" fill="#DDE1FF" stroke="#DDE1FF" stroke-width="0.317701" stroke-miterlimit="10"/>
<path d="M50.4609 54.294V63.5408L65.4869 61.1864V52.293L50.4609 54.294Z" fill="#DDE1FF" stroke="#DDE1FF" stroke-width="0.317701" stroke-miterlimit="10"/>
<path d="M50.4623 54.2949H21.9609V63.5417H50.4623V54.2949Z" fill="#DDE1FF" stroke="#DDE1FF" stroke-width="0.317701" stroke-miterlimit="10"/>
<path d="M50.9265 49.9385H21.9553L7.18555 52.28L22.1093 54.6447H51.0805L65.4891 52.2916L50.9265 49.9385Z" fill="white" stroke="#DDE1FF" stroke-width="0.317701" stroke-linecap="round" stroke-linejoin="round"/>
<path d="M14.9219 46.4209V51.4675L25.6235 52.7438V47.8602L14.9219 46.4209Z" fill="#DDE1FF" stroke="#DDE1FF" stroke-width="0.317701" stroke-miterlimit="10"/>
<path d="M57.5037 46.2461V51.3523L46.8008 52.6867V47.8032L57.5037 46.2461Z" fill="#DDE1FF" stroke="#DDE1FF" stroke-width="0.317701" stroke-miterlimit="10"/>
<path d="M25.623 47.8607V52.7443L46.801 52.6873V47.8037L25.623 47.8607Z" fill="#DDE1FF" stroke="#DDE1FF" stroke-width="0.317701" stroke-miterlimit="10"/>
<path d="M28.6782 63.4453L35.4929 54.5506L33.0246 52.7566L35.9861 47.6272L25.8164 44.9893L32.4642 44.9894L40.2186 47.6272L37.7347 52.6194L41.4171 54.5506L33.6122 63.4453H28.6782Z" fill="white"/>
<path d="M36.5124 63.4453L44.5347 54.5959L40.1443 52.613L42.6307 47.7075L33.7891 44.9893L37.72 44.9894L45.3372 47.6272L42.8534 52.6194L47.5674 54.5506L40.2557 63.4453H36.5124Z" fill="white"/>
<path d="M20.2285 1.89746V23.7769H15.2946C11.0684 23.7769 9.49618 29.3211 13.0933 31.5396L34.164 44.5347C35.5136 45.367 37.2171 45.367 38.5666 44.5347L59.6374 31.5396C63.2345 29.3211 61.6623 23.7769 57.4361 23.7769H52.6135V1.89746" stroke="#5367FF" stroke-width="2.09674" stroke-linecap="round"/>
<path d="M38.0287 24.568C38.0845 25.1792 38.2608 25.7888 38.568 26.3645C39.8019 28.6748 42.6805 29.5497 44.9971 28.3192C46.7275 27.3999 47.654 25.5662 47.498 23.7342C47.4422 23.123 47.2659 22.5125 46.9587 21.9368C45.7248 19.6266 42.8462 18.7517 40.5288 19.9822C38.7993 20.9015 37.8727 22.7359 38.0287 24.568ZM45.648 22.6029C46.4784 24.1567 45.8881 26.088 44.3292 26.9161C42.771 27.7442 40.8345 27.1556 40.0041 25.601C39.1737 24.0471 39.7639 22.1158 41.3229 21.2877C42.881 20.4595 44.8176 21.0482 45.648 22.6029Z" fill="#46BE88"/>
<path d="M25.8353 14.273C25.8911 14.8842 26.0674 15.4938 26.3747 16.0696C27.6085 18.3799 30.4872 19.2548 32.8045 18.0243C34.5349 17.105 35.4607 15.2713 35.3055 13.4392C35.2497 12.828 35.0734 12.2176 34.7661 11.6419C33.5323 9.33167 30.6537 8.45677 28.3371 9.68727C26.606 10.6065 25.6793 12.4402 25.8353 14.273ZM33.4547 12.3079C34.2851 13.8618 33.6948 15.7938 32.1358 16.6212C30.5777 17.4493 28.6411 16.8606 27.8107 15.306C26.9803 13.7522 27.5706 11.8209 29.1295 10.9928C30.6884 10.1646 32.6242 10.7533 33.4547 12.3079Z" fill="#46BE88"/>
<path d="M42.969 12.2485L30.9074 28.6338C30.5718 29.0894 29.9241 29.1878 29.468 28.8539C29.0112 28.5201 28.9125 27.8734 29.2473 27.4186L41.309 11.0333C41.6437 10.5777 42.2914 10.4793 42.7483 10.8132C43.2043 11.147 43.3038 11.7929 42.969 12.2485Z" fill="#46BE88"/>
</g>
<defs>
<clipPath id="clip0_781_33248">
<rect width="71.988" height="64.3" fill="white" transform="translate(0.505859 0.5)"/>
</clipPath>
</defs>
</svg>
