<svg width="60" height="61" viewBox="0 0 60 61" fill="none" xmlns="http://www.w3.org/2000/svg">
<g clip-path="url(#clip0_781_33447)">
<path d="M54.1369 46.7337C55.3222 45.1041 55.9645 43.1428 55.973 41.1278C55.9858 40.8628 55.8927 40.6037 55.7144 40.4073C55.536 40.211 55.2869 40.0935 55.022 40.0808C54.4724 40.0603 54.0072 40.4828 53.9749 41.0318C53.9824 42.6288 53.4904 44.1882 52.5678 45.4917C50.6167 47.9557 46.9145 48.0807 46.1915 48.0807C45.6391 48.0807 45.1914 48.5284 45.1914 49.0807C45.1914 49.633 45.6391 50.0807 46.1915 50.0807C47.0755 50.0807 51.6128 49.9197 54.1369 46.7337Z" fill="#24272C"/>
<path d="M41.4749 27.6797H33.4137C32.8541 27.6797 32.4004 28.1334 32.4004 28.6931C32.4004 29.2527 32.8541 29.7064 33.4137 29.7064H35.7208L35.9608 29.7172C36.7524 29.7921 37.4533 30.2499 37.8427 30.9318L37.9444 31.1339L33.4137 31.1354C32.8541 31.1354 32.4004 31.5891 32.4004 32.1487L32.4137 32.3131C32.4922 32.7945 32.9101 33.162 33.4137 33.162L37.9532 33.1605L37.8629 33.345C37.7552 33.5399 37.6174 33.718 37.454 33.8724C36.9923 34.3358 36.3698 34.5933 35.7214 34.591H33.4137C32.9971 34.594 32.6254 34.8487 32.4721 35.2348C32.3193 35.6214 32.4165 36.0617 32.7175 36.3484L38.4835 41.7986C38.7461 42.0498 39.1245 42.1415 39.4739 42.0377C39.8236 41.9332 40.0904 41.65 40.1729 41.2951L40.1982 41.1169C40.2136 40.8195 40.0971 40.5264 39.874 40.3202L35.9512 36.6077L35.7208 36.6177C36.9072 36.6215 38.0464 36.1501 38.8837 35.3085L39.1099 35.0674C39.543 34.5694 39.8588 33.9795 40.0331 33.3423L40.0745 33.1605L41.4753 33.162C42.0349 33.162 42.4886 32.7083 42.4886 32.1487L42.4754 31.9843C42.3968 31.5029 41.9789 31.1354 41.4753 31.1354L40.0693 31.1339L40.0033 30.8768C39.883 30.4847 39.7119 30.1102 39.4945 29.7629L39.4546 29.7062L41.4749 29.7064C42.0345 29.7064 42.4882 29.2527 42.4882 28.6931C42.4882 28.1334 42.0345 27.6797 41.4749 27.6797Z" fill="#46BE88"/>
<path d="M59.1673 33.8514C56.7032 23.3806 51.2248 17.3136 47.2686 14.1447C52.2299 14.5187 53.827 16.5826 53.874 16.6446C54.1873 17.0919 54.8015 17.2051 55.2537 16.899C55.7059 16.5929 55.8289 15.9807 55.5301 15.5237C55.4581 15.4157 54.069 13.4317 50.0298 12.5237C51.0626 11.6747 51.6736 10.4174 51.7029 9.08071C51.5692 6.86469 50.0264 4.98554 47.8787 4.42277C47.9667 3.70044 48.0115 2.97348 48.0127 2.2458C48.0116 1.57541 47.6747 0.950141 47.1154 0.580504C46.556 0.210868 45.8487 0.146031 45.2315 0.40782C44.7266 0.636392 44.2577 0.937206 43.8394 1.30081C43.3487 1.80512 42.673 2.08691 41.9693 2.0808C41.2667 2.08575 40.5925 1.80408 40.1022 1.30081C38.3398 -0.326832 35.6223 -0.326832 33.8599 1.30081C33.369 1.80622 32.6923 2.08817 31.9878 2.0808C31.2853 2.08664 30.611 1.80481 30.1217 1.30081C29.7045 0.937987 29.237 0.637535 28.7336 0.40882C28.1168 0.148785 27.4108 0.214508 26.8526 0.583925C26.2945 0.953342 25.9581 1.57748 25.9564 2.2468C25.9564 4.73477 26.4485 9.17271 29.5636 12.1527C27.9265 13.1481 26.3975 14.3114 25.0014 15.6237V8.08073C25.0014 5.80075 21.7762 4.08078 17.501 4.08078C13.2257 4.08078 10.0006 5.80075 10.0006 8.08073V18.1556C6.49336 18.5056 4.00022 20.0806 4.00022 22.0806V47.5153C1.58409 48.1642 0 49.4802 0 51.0802V56.0801C0 58.3601 3.22518 60.0801 7.50042 60.0801C11.3236 60.0801 14.3008 58.7031 14.8878 56.7801C16.6141 57.6941 18.5488 58.1422 20.5011 58.0801C24.7764 58.0801 28.0016 56.3601 28.0016 54.0802V41.0803C28.0016 38.8004 24.7764 37.0804 20.5011 37.0804C20.0002 37.0801 19.4995 37.1051 19.0011 37.1554V22.0806C19.0011 19.8906 16.0239 18.2226 12.0007 18.0936V10.8497C13.702 11.7144 15.5934 12.1377 17.501 12.0807C19.4086 12.1377 21.3 11.7144 23.0013 10.8497V17.6696C22.3422 18.4066 21.6802 19.2096 21.0272 20.0996C20.7281 20.5449 20.8337 21.1468 21.2664 21.4638C21.6991 21.7807 22.3048 21.6999 22.6393 21.2806C23.2816 20.4111 23.9699 19.5766 24.7014 18.7806C24.7094 18.7716 24.7164 18.7626 24.7244 18.7546C26.6334 16.6331 28.8752 14.8366 31.3617 13.4357C31.852 13.6721 32.3706 13.8445 32.9048 13.9487L30.3267 16.3546C29.9229 16.7318 29.9015 17.3649 30.2787 17.7686C30.6559 18.1723 31.289 18.1938 31.6928 17.8166L35.693 14.0857H36.012V17.0856C36.012 17.6379 36.4597 18.0856 37.0121 18.0856C37.5644 18.0856 38.0121 17.6379 38.0121 17.0856V14.0807H38.3311L42.3314 17.8116C42.5925 18.0556 42.9641 18.1418 43.306 18.0376C43.6479 17.9335 43.9083 17.6548 43.989 17.3066C44.0698 16.9585 43.9586 16.5937 43.6974 16.3496L41.1023 13.9337C41.6333 13.8286 42.1486 13.6555 42.6354 13.4187C45.2785 14.8487 53.967 20.4986 57.2212 34.3094C58.6363 40.3213 58.1262 44.9203 55.7061 47.9753C52.6099 51.8802 47.2376 52.0802 46.1926 52.0802H32.0018C31.4495 52.0802 31.0017 52.5279 31.0017 53.0802C31.0017 53.6325 31.4495 54.0802 32.0018 54.0802H46.1926C47.8927 54.0802 53.698 53.7292 57.2732 49.2172C60.0913 45.6583 60.7294 40.4883 59.1673 33.8514ZM7.50042 49.0802C10.8076 49.0802 13.0007 50.2802 13.0007 51.0802C13.0007 51.8802 10.8076 53.0802 7.50042 53.0802C4.19323 53.0802 2.00011 51.8802 2.00011 51.0802C2.00011 50.2802 4.19323 49.0802 7.50042 49.0802ZM7.50042 58.0801C4.19323 58.0801 2.00011 56.8801 2.00011 56.0801V53.8492C3.70144 54.7139 5.59279 55.1371 7.50042 55.0802C9.40804 55.1371 11.2994 54.7139 13.0007 53.8492V56.0801C13.0007 56.8801 10.8076 58.0801 7.50042 58.0801ZM20.5011 56.0801C17.194 56.0801 15.0008 54.8802 15.0008 54.0802V43.8493C16.7022 44.714 18.5935 45.1373 20.5011 45.0803C22.4088 45.1373 24.3001 44.714 26.0014 43.8493V54.0802C26.0014 54.8802 23.8083 56.0801 20.5011 56.0801ZM26.0014 41.0803C26.0014 41.8803 23.8083 43.0803 20.5011 43.0803C17.194 43.0803 15.0008 41.8803 15.0008 41.0803C15.0008 40.2803 17.194 39.0804 20.5011 39.0804C23.8083 39.0804 26.0014 40.2803 26.0014 41.0803ZM13.0007 41.0803V48.3112C11.2994 47.4466 9.40804 47.0233 7.50042 47.0803C6.99944 47.0799 6.49878 47.105 6.00033 47.1553V24.8495C7.70166 25.7142 9.59302 26.1375 11.5006 26.0805C13.4083 26.1375 15.2996 25.7142 17.0009 24.8495V37.5154C14.5848 38.1644 13.0007 39.4804 13.0007 41.0803ZM17.0009 22.0806C17.0009 22.8806 14.8078 24.0805 11.5006 24.0805C8.19346 24.0805 6.00033 22.8806 6.00033 22.0806C6.00033 21.2806 8.19346 20.0806 11.5006 20.0806C14.8078 20.0806 17.0009 21.2806 17.0009 22.0806ZM17.501 10.0807C14.1938 10.0807 12.0007 8.88072 12.0007 8.08073C12.0007 7.28074 14.1938 6.08075 17.501 6.08075C20.8082 6.08075 23.0013 7.28074 23.0013 8.08073C23.0013 8.88072 20.8082 10.0807 17.501 10.0807ZM49.7028 9.08071C49.7028 10.7197 47.9277 12.0647 45.7025 12.0807C45.3304 12.0783 44.9595 12.0358 44.5965 11.9537C46.0479 10.4053 47.0568 8.4954 47.5176 6.42375C48.7214 6.77841 49.5872 7.83119 49.7028 9.08071ZM28.8696 2.86079C29.7142 3.65212 30.8304 4.08885 31.9878 4.08078C33.1459 4.08947 34.263 3.65268 35.108 2.86079C35.6023 2.36174 36.2756 2.08097 36.9781 2.08097C37.6805 2.08097 38.3538 2.36174 38.8482 2.86079C39.6932 3.65328 40.8108 4.09014 41.9693 4.08078C43.1278 4.08973 44.2453 3.65292 45.0905 2.86079C45.3677 2.61587 45.676 2.40874 46.0076 2.2448C46.0076 4.10178 45.6625 8.69272 42.4404 11.2097C41.7155 11.7541 40.8367 12.0548 39.9302 12.0687C40.796 10.5818 41.4812 8.99696 41.9713 7.34774C42.0671 7.00334 41.9718 6.63402 41.7214 6.3789C41.471 6.12378 41.1035 6.02162 40.7574 6.1109C40.4112 6.20018 40.139 6.46734 40.0432 6.81174C39.4894 8.69148 38.6378 10.4704 37.5211 12.0807H36.493C35.3785 10.4689 34.5268 8.69048 33.9699 6.81174C33.8216 6.27962 33.27 5.96846 32.7378 6.11675C32.2057 6.26504 31.8945 6.81662 32.0428 7.34873C32.5334 8.99938 33.2193 10.5856 34.0859 12.0737C33.1613 12.069 32.2628 11.7663 31.5238 11.2107C28.3016 8.69472 27.9566 4.10378 27.9566 2.2528C28.288 2.41157 28.5953 2.61624 28.8696 2.86079Z" fill="#24272C"/>
<path d="M54.1369 46.7337C55.3222 45.104 55.9645 43.1428 55.973 41.1277C55.9858 40.8628 55.8927 40.6036 55.7144 40.4072C55.536 40.2109 55.2869 40.0934 55.022 40.0807C54.4727 40.0613 54.0082 40.4832 53.9749 41.0317C53.9824 42.6287 53.4904 44.1881 52.5678 45.4917C50.6167 47.9556 46.9145 48.0806 46.1915 48.0806C45.6391 48.0806 45.1914 48.5284 45.1914 49.0806C45.1914 49.6329 45.6391 50.0806 46.1915 50.0806C47.0755 50.0806 51.6128 49.9196 54.1369 46.7337Z" fill="#24272C"/>
</g>
<defs>
<clipPath id="clip0_781_33447">
<rect width="60" height="60" fill="white" transform="translate(0 0.0800781)"/>
</clipPath>
</defs>
</svg>
