<svg width="48" height="61" viewBox="0 0 48 61" fill="none" xmlns="http://www.w3.org/2000/svg">
<g clip-path="url(#clip0_781_33430)">
<path d="M44.0004 0.980469H4.00039C2.28831 0.980469 0.900391 2.36839 0.900391 4.08047V56.0805C0.900391 57.7925 2.28831 59.1805 4.00039 59.1805H44.0004C45.7125 59.1805 47.1004 57.7925 47.1004 56.0805V4.08047C47.1004 2.36839 45.7125 0.980469 44.0004 0.980469Z" stroke="#24272C" stroke-width="1.8"/>
<path d="M18 8.08008H10C8.89543 8.08008 8 8.97551 8 10.0801V18.0801C8 19.1846 8.89543 20.0801 10 20.0801H18C19.1046 20.0801 20 19.1846 20 18.0801V10.0801C20 8.97551 19.1046 8.08008 18 8.08008Z" fill="#46BD88"/>
<path d="M17 12.0801L14.652 14.8976C13.9965 15.6843 13.6687 16.0777 13.2281 16.0977C12.7875 16.1176 12.4255 15.7556 11.7014 15.0315L11 14.3301" stroke="white" stroke-width="1.5" stroke-linecap="round"/>
<path d="M39 9.08008H23C22.4477 9.08008 22 9.52779 22 10.0801V12.0801C22 12.6324 22.4477 13.0801 23 13.0801H39C39.5523 13.0801 40 12.6324 40 12.0801V10.0801C40 9.52779 39.5523 9.08008 39 9.08008Z" fill="#46BD88"/>
<path d="M33 15.5801H23C22.7239 15.5801 22.5 15.8039 22.5 16.0801C22.5 16.3562 22.7239 16.5801 23 16.5801H33C33.2761 16.5801 33.5 16.3562 33.5 16.0801C33.5 15.8039 33.2761 15.5801 33 15.5801Z" stroke="#46BD88"/>
<path d="M18 24.5801H10C9.17157 24.5801 8.5 25.2517 8.5 26.0801V34.0801C8.5 34.9085 9.17157 35.5801 10 35.5801H18C18.8284 35.5801 19.5 34.9085 19.5 34.0801V26.0801C19.5 25.2517 18.8284 24.5801 18 24.5801Z" stroke="#24272C"/>
<path d="M39 25.0801H23C22.4477 25.0801 22 25.5278 22 26.0801V28.0801C22 28.6324 22.4477 29.0801 23 29.0801H39C39.5523 29.0801 40 28.6324 40 28.0801V26.0801C40 25.5278 39.5523 25.0801 39 25.0801Z" fill="#24272C"/>
<path d="M33 31.5801H23C22.7239 31.5801 22.5 31.8039 22.5 32.0801C22.5 32.3562 22.7239 32.5801 23 32.5801H33C33.2761 32.5801 33.5 32.3562 33.5 32.0801C33.5 31.8039 33.2761 31.5801 33 31.5801Z" stroke="#24272C"/>
<path d="M18 40.5801H10C9.17157 40.5801 8.5 41.2517 8.5 42.0801V50.0801C8.5 50.9085 9.17157 51.5801 10 51.5801H18C18.8284 51.5801 19.5 50.9085 19.5 50.0801V42.0801C19.5 41.2517 18.8284 40.5801 18 40.5801Z" stroke="#24272C"/>
<path d="M39 41.0801H23C22.4477 41.0801 22 41.5278 22 42.0801V44.0801C22 44.6324 22.4477 45.0801 23 45.0801H39C39.5523 45.0801 40 44.6324 40 44.0801V42.0801C40 41.5278 39.5523 41.0801 39 41.0801Z" fill="#24272C"/>
<path d="M33 47.5801H23C22.7239 47.5801 22.5 47.8039 22.5 48.0801C22.5 48.3562 22.7239 48.5801 23 48.5801H33C33.2761 48.5801 33.5 48.3562 33.5 48.0801C33.5 47.8039 33.2761 47.5801 33 47.5801Z" stroke="#24272C"/>
</g>
<defs>
<clipPath id="clip0_781_33430">
<rect width="48" height="60" fill="white" transform="translate(0 0.0800781)"/>
</clipPath>
</defs>
</svg>
