<svg width="143" height="91" viewBox="0 0 143 91" fill="none" xmlns="http://www.w3.org/2000/svg">
<g clip-path="url(#clip0_781_33261)">
<path d="M140.494 28.5H2.49414C1.38957 28.5 0.494141 29.3954 0.494141 30.5V60.5C0.494141 61.6046 1.38957 62.5 2.49414 62.5H140.494C141.599 62.5 142.494 61.6046 142.494 60.5V30.5C142.494 29.3954 141.599 28.5 140.494 28.5Z" fill="white"/>
<path d="M127.494 36.498H44.4941C43.3896 36.498 42.4941 37.3935 42.4941 38.498V42.498C42.4941 43.6026 43.3896 44.498 44.4941 44.498H127.494C128.599 44.498 129.494 43.6026 129.494 42.498V38.498C129.494 37.3935 128.599 36.498 127.494 36.498Z" fill="#46BE88"/>
<path d="M99.4941 48.498H44.4941C43.3896 48.498 42.4941 49.3935 42.4941 50.498V52.498C42.4941 53.6026 43.3896 54.498 44.4941 54.498H99.4941C100.599 54.498 101.494 53.6026 101.494 52.498V50.498C101.494 49.3935 100.599 48.498 99.4941 48.498Z" fill="#46BE88"/>
<path d="M34.4941 36.5H10.4941C9.38957 36.5 8.49414 37.3954 8.49414 38.5V52.5C8.49414 53.6046 9.38957 54.5 10.4941 54.5H34.4941C35.5987 54.5 36.4941 53.6046 36.4941 52.5V38.5C36.4941 37.3954 35.5987 36.5 34.4941 36.5Z" fill="#46BE88"/>
<path d="M17.4941 43.444C17.4941 44.056 17.6741 44.536 18.0341 44.884C18.3821 45.232 18.8381 45.4 19.4021 45.4C19.9661 45.4 20.4221 45.232 20.7821 44.884C21.1301 44.536 21.3101 44.056 21.3101 43.444C21.3101 42.832 21.1301 42.364 20.7821 42.016C20.4221 41.668 19.9661 41.5 19.4021 41.5C18.8381 41.5 18.3821 41.668 18.0341 42.016C17.6741 42.364 17.4941 42.832 17.4941 43.444ZM23.5541 41.644L18.8501 50.044H20.4821L25.1981 41.644H23.5541ZM19.3901 42.508C19.8461 42.508 20.0741 42.82 20.0741 43.444C20.0741 43.768 20.0141 43.996 19.8941 44.152C19.7741 44.308 19.6061 44.392 19.3901 44.392C18.9461 44.392 18.7301 44.08 18.7301 43.444C18.7301 42.82 18.9461 42.508 19.3901 42.508ZM22.7621 48.232C22.7621 48.844 22.9421 49.324 23.2901 49.672C23.6381 50.02 24.1061 50.188 24.6701 50.188C25.2341 50.188 25.6901 50.02 26.0381 49.672C26.3861 49.324 26.5541 48.844 26.5541 48.232C26.5541 47.62 26.3861 47.14 26.0381 46.792C25.6901 46.456 25.2341 46.288 24.6701 46.288C24.1061 46.288 23.6501 46.456 23.3021 46.792C22.9421 47.14 22.7621 47.62 22.7621 48.232ZM24.6581 47.296C25.1021 47.296 25.3301 47.608 25.3301 48.232C25.3301 48.868 25.1021 49.18 24.6581 49.18C24.2021 49.18 23.9741 48.868 23.9741 48.232C23.9741 47.608 24.2021 47.296 24.6581 47.296Z" fill="white"/>
<g opacity="0.3">
<path d="M122.494 0.5H20.4941C19.3896 0.5 18.4941 1.39543 18.4941 2.5V23.5C18.4941 24.6046 19.3896 25.5 20.4941 25.5H122.494C123.599 25.5 124.494 24.6046 124.494 23.5V2.5C124.494 1.39543 123.599 0.5 122.494 0.5Z" fill="white"/>
<path d="M114.494 6.5H53.4941C52.3896 6.5 51.4941 7.39543 51.4941 8.5V10.5C51.4941 11.6046 52.3896 12.5 53.4941 12.5H114.494C115.599 12.5 116.494 11.6046 116.494 10.5V8.5C116.494 7.39543 115.599 6.5 114.494 6.5Z" fill="#5367FF"/>
<path d="M93.4941 15.5H53.4941C52.3896 15.5 51.4941 16.3954 51.4941 17.5C51.4941 18.6046 52.3896 19.5 53.4941 19.5H93.4941C94.5987 19.5 95.4941 18.6046 95.4941 17.5C95.4941 16.3954 94.5987 15.5 93.4941 15.5Z" fill="#5367FF"/>
<path d="M43.4941 6.5H26.4941C25.3896 6.5 24.4941 7.39543 24.4941 8.5V17.5C24.4941 18.6046 25.3896 19.5 26.4941 19.5H43.4941C44.5987 19.5 45.4941 18.6046 45.4941 17.5V8.5C45.4941 7.39543 44.5987 6.5 43.4941 6.5Z" fill="#5367FF"/>
<path d="M31.4941 10.9969C31.4941 11.4682 31.6327 11.8378 31.9099 12.1058C32.1779 12.3737 32.529 12.5031 32.9633 12.5031C33.3976 12.5031 33.7487 12.3737 34.026 12.1058C34.2939 11.8378 34.4325 11.4682 34.4325 10.9969C34.4325 10.5257 34.2939 10.1653 34.026 9.89733C33.7487 9.62936 33.3976 9.5 32.9633 9.5C32.529 9.5 32.1779 9.62936 31.9099 9.89733C31.6327 10.1653 31.4941 10.5257 31.4941 10.9969ZM36.1605 9.61088L32.5383 16.0791H33.7949L37.4264 9.61088H36.1605ZM32.9541 10.2762C33.3052 10.2762 33.4808 10.5164 33.4808 10.9969C33.4808 11.2464 33.4346 11.422 33.3422 11.5421C33.2498 11.6622 33.1204 11.7269 32.9541 11.7269C32.6122 11.7269 32.4459 11.4867 32.4459 10.9969C32.4459 10.5164 32.6122 10.2762 32.9541 10.2762ZM35.5506 14.6838C35.5506 15.1551 35.6892 15.5247 35.9572 15.7927C36.2252 16.0606 36.5855 16.19 37.0198 16.19C37.4541 16.19 37.8052 16.0606 38.0732 15.7927C38.3412 15.5247 38.4706 15.1551 38.4706 14.6838C38.4706 14.2126 38.3412 13.843 38.0732 13.575C37.8052 13.3163 37.4541 13.1869 37.0198 13.1869C36.5855 13.1869 36.2344 13.3163 35.9664 13.575C35.6892 13.843 35.5506 14.2126 35.5506 14.6838ZM37.0106 13.9631C37.3525 13.9631 37.528 14.2033 37.528 14.6838C37.528 15.1736 37.3525 15.4138 37.0106 15.4138C36.6594 15.4138 36.4839 15.1736 36.4839 14.6838C36.4839 14.2033 36.6594 13.9631 37.0106 13.9631Z" fill="white"/>
</g>
<g opacity="0.3">
<path d="M122.494 65.5H20.4941C19.3896 65.5 18.4941 66.3954 18.4941 67.5V88.5C18.4941 89.6046 19.3896 90.5 20.4941 90.5H122.494C123.599 90.5 124.494 89.6046 124.494 88.5V67.5C124.494 66.3954 123.599 65.5 122.494 65.5Z" fill="white"/>
<path d="M113.494 71.5H52.4941C51.3896 71.5 50.4941 72.3954 50.4941 73.5V75.5C50.4941 76.6046 51.3896 77.5 52.4941 77.5H113.494C114.599 77.5 115.494 76.6046 115.494 75.5V73.5C115.494 72.3954 114.599 71.5 113.494 71.5Z" fill="#5367FF"/>
<path d="M92.4941 80.5H52.4941C51.3896 80.5 50.4941 81.3954 50.4941 82.5C50.4941 83.6046 51.3896 84.5 52.4941 84.5H92.4941C93.5987 84.5 94.4941 83.6046 94.4941 82.5C94.4941 81.3954 93.5987 80.5 92.4941 80.5Z" fill="#5367FF"/>
<path d="M43.4941 71.5H26.4941C25.3896 71.5 24.4941 72.3954 24.4941 73.5V82.5C24.4941 83.6046 25.3896 84.5 26.4941 84.5H43.4941C44.5987 84.5 45.4941 83.6046 45.4941 82.5V73.5C45.4941 72.3954 44.5987 71.5 43.4941 71.5Z" fill="#5367FF"/>
<path d="M31.4941 75.9969C31.4941 76.4682 31.6327 76.8378 31.9099 77.1058C32.1779 77.3737 32.529 77.5031 32.9633 77.5031C33.3976 77.5031 33.7487 77.3737 34.026 77.1058C34.2939 76.8378 34.4325 76.4682 34.4325 75.9969C34.4325 75.5257 34.2939 75.1653 34.026 74.8973C33.7487 74.6294 33.3976 74.5 32.9633 74.5C32.529 74.5 32.1779 74.6294 31.9099 74.8973C31.6327 75.1653 31.4941 75.5257 31.4941 75.9969ZM36.1605 74.6109L32.5383 81.0791H33.7949L37.4264 74.6109H36.1605ZM32.9541 75.2762C33.3052 75.2762 33.4808 75.5164 33.4808 75.9969C33.4808 76.2464 33.4346 76.422 33.3422 76.5421C33.2498 76.6622 33.1204 76.7269 32.9541 76.7269C32.6122 76.7269 32.4459 76.4867 32.4459 75.9969C32.4459 75.5164 32.6122 75.2762 32.9541 75.2762ZM35.5506 79.6838C35.5506 80.1551 35.6892 80.5247 35.9572 80.7927C36.2252 81.0606 36.5855 81.19 37.0198 81.19C37.4541 81.19 37.8052 81.0606 38.0732 80.7927C38.3412 80.5247 38.4706 80.1551 38.4706 79.6838C38.4706 79.2126 38.3412 78.843 38.0732 78.575C37.8052 78.3163 37.4541 78.1869 37.0198 78.1869C36.5855 78.1869 36.2344 78.3163 35.9664 78.575C35.6892 78.843 35.5506 79.2126 35.5506 79.6838ZM37.0106 78.9631C37.3525 78.9631 37.528 79.2033 37.528 79.6838C37.528 80.1736 37.3525 80.4138 37.0106 80.4138C36.6594 80.4138 36.4839 80.1736 36.4839 79.6838C36.4839 79.2033 36.6594 78.9631 37.0106 78.9631Z" fill="white"/>
</g>
</g>
<defs>
<clipPath id="clip0_781_33261">
<rect width="142" height="90" fill="white" transform="translate(0.494141 0.5)"/>
</clipPath>
</defs>
</svg>
