<svg width="125" height="93" viewBox="0 0 125 93" fill="none" xmlns="http://www.w3.org/2000/svg">
<g clip-path="url(#clip0_781_33267)">
<path d="M100.577 41.9697L58.6973 70.4819L70.8849 88.5153L112.764 60.0031L100.577 41.9697Z" fill="#C9F0DF"/>
<path d="M99.7755 44.541L61.373 70.686L71.6834 85.9417L110.086 59.7966L99.7755 44.541Z" fill="#46BE88"/>
<path d="M99.2141 46.1836L63.0996 70.7709L72.2466 84.3051L108.361 59.7178L99.2141 46.1836Z" fill="#C9F0DF"/>
<path d="M90.0824 71.6888C93.2533 69.5299 93.8749 64.896 91.4707 61.3386C89.0665 57.7813 84.5469 56.6475 81.3759 58.8064C78.2049 60.9652 77.5834 65.5991 79.9876 69.1564C82.3918 72.7138 86.9114 73.8476 90.0824 71.6888Z" fill="#25B69A"/>
<path d="M99.4964 59.1979C100.617 58.4353 100.836 56.7979 99.9861 55.5407C99.1365 54.2836 97.5397 53.8826 96.4195 54.6452C95.2994 55.4079 95.0801 57.0452 95.9297 58.3024C96.7794 59.5596 98.3762 59.9605 99.4964 59.1979Z" fill="#46BE88"/>
<path d="M75.0431 75.8483C76.1633 75.0856 76.3826 73.4483 75.5329 72.1911C74.6833 70.9339 73.0864 70.533 71.9663 71.2956C70.8462 72.0582 70.6269 73.6956 71.4765 74.9528C72.3262 76.2099 73.923 76.6109 75.0431 75.8483Z" fill="#25B69A"/>
<path d="M118.093 66.9941H67.4883V88.7848H118.093V66.9941Z" fill="#C9F0DF"/>
<path d="M115.994 68.6738H69.5898V87.1081H115.994V68.6738Z" fill="#46BE88"/>
<path d="M114.612 69.7119H70.9727V86.0661H114.612V69.7119Z" fill="#C9F0DF"/>
<path d="M92.7933 85.6759C96.625 85.6759 99.7311 82.1912 99.7311 77.8926C99.7311 73.5941 96.625 70.1094 92.7933 70.1094C88.9616 70.1094 85.8555 73.5941 85.8555 77.8926C85.8555 82.1912 88.9616 85.6759 92.7933 85.6759Z" fill="#46BE88"/>
<path d="M107.564 80.6438C108.918 80.6438 110.015 79.4123 110.015 77.8932C110.015 76.3741 108.918 75.1426 107.564 75.1426C106.211 75.1426 105.113 76.3741 105.113 77.8932C105.113 79.4123 106.211 80.6438 107.564 80.6438Z" fill="#46BE88"/>
<path d="M78.0191 80.6438C79.3727 80.6438 80.4699 79.4123 80.4699 77.8932C80.4699 76.3741 79.3727 75.1426 78.0191 75.1426C76.6656 75.1426 75.5684 76.3741 75.5684 77.8932C75.5684 79.4123 76.6656 80.6438 78.0191 80.6438Z" fill="#25B69A"/>
<path d="M16.2583 43.5797C16.206 43.6161 16.1497 43.6403 16.0853 43.6565C15.8358 43.709 15.5903 43.5474 15.538 43.293C15.4374 42.8123 15.2402 42.2872 15.0953 42.1014C15.0591 42.1418 15.0108 42.2064 14.9464 42.3155C14.3589 43.3414 13.6345 43.507 13.1516 43.3212C12.552 43.091 12.0409 42.2347 12.3991 40.5141C12.4675 40.1748 12.4755 39.9769 12.4635 39.8719C12.1616 40.0132 11.554 40.5989 11.232 41.3057C10.9785 41.855 10.6405 41.9479 10.403 41.9318C9.81549 41.8874 9.38489 41.1644 8.86979 39.3549C8.62833 39.2175 7.8275 38.9752 7.05484 38.8096C6.80534 38.7571 6.64437 38.5107 6.70071 38.2603C6.75302 38.0099 6.9985 37.8483 7.24801 37.9048C9.54989 38.3976 9.66659 38.7854 9.72695 38.9914L9.75512 39.0883C10.0569 40.1546 10.2863 40.6393 10.4191 40.8614C10.8417 39.993 11.9564 38.6682 12.8216 38.955C13.3488 39.1287 13.5098 39.7184 13.3045 40.708C13.0631 41.8752 13.3246 42.3963 13.4816 42.4569C13.5661 42.4892 13.8438 42.3842 14.1456 41.855C14.4555 41.3138 14.8176 41.0755 15.2201 41.1401C15.9887 41.2653 16.3308 42.5578 16.4435 43.1072C16.4837 43.293 16.4032 43.4787 16.2543 43.5797H16.2583Z" fill="#E4ECF9"/>
<path d="M37.8007 60.496C37.8007 60.496 35.2936 59.3529 34.4243 55.7501L38.0542 43.6773C38.0542 43.6773 38.0542 41.8194 37.185 41.4922C36.3157 41.165 34.1386 42.4737 32.8307 43.023C31.5228 43.5683 28.0418 43.6773 24.4522 42.3687C20.8625 41.056 19.0114 42.8049 19.0114 42.8049L22.5246 56.6023C21.5829 60.0759 19.5547 60.5 19.5547 60.5C4.75341 67.0554 8.67304 84.4758 8.67304 84.4758C8.67304 87.703 17.5425 90.3204 28.4805 90.3204C28.5489 90.3204 28.6133 90.3204 28.6817 90.3204C28.7501 90.3204 28.8145 90.3204 28.8829 90.3204C39.8209 90.3204 48.6903 87.703 48.6903 84.4758C48.6903 84.4758 52.61 67.0554 37.8087 60.5L37.8007 60.496Z" fill="#0A4BFF"/>
<path d="M35.2934 56.3486H21.9851C21.6029 56.3486 21.293 56.6597 21.293 57.0434V57.5119C21.293 57.8956 21.6029 58.2066 21.9851 58.2066H35.2934C35.6757 58.2066 35.9856 57.8956 35.9856 57.5119V57.0434C35.9856 56.6597 35.6757 56.3486 35.2934 56.3486Z" fill="#DDE1FF"/>
<path d="M35.2934 54.1621H21.9851C21.6029 54.1621 21.293 54.4731 21.293 54.8568V55.3254C21.293 55.709 21.6029 56.0201 21.9851 56.0201H35.2934C35.6757 56.0201 35.9856 55.709 35.9856 55.3254V54.8568C35.9856 54.4731 35.6757 54.1621 35.2934 54.1621Z" fill="#DDE1FF"/>
<path d="M29.2736 68.1587C29.1207 68.1587 28.9677 68.1143 28.8309 68.0254C25.2332 65.6181 25.523 58.0328 25.5391 57.7097C25.5592 57.2654 25.9254 56.9221 26.3721 56.9423C26.8148 56.9624 27.1528 57.334 27.1367 57.7783C27.0522 59.7211 27.354 65.1052 29.7203 66.6885C30.0865 66.9349 30.1871 67.4317 29.9416 67.7992C29.7887 68.0295 29.5352 68.1547 29.2776 68.1547L29.2736 68.1587Z" fill="#DDE1FF"/>
<path d="M23.1031 62.8753C22.8456 62.8753 22.592 62.75 22.4391 62.5198C22.1936 62.1523 22.2942 61.6555 22.6604 61.4091C23.6021 60.779 23.8677 58.4808 23.8114 57.1761C23.7913 56.7359 24.1333 56.3603 24.576 56.3401C25.0106 56.3158 25.3889 56.6632 25.409 57.1034C25.4291 57.5397 25.5378 61.405 23.5458 62.7379C23.409 62.8308 23.256 62.8712 23.1031 62.8712V62.8753Z" fill="#DDE1FF"/>
<path d="M30.5051 72.5362C30.4729 72.4797 30.4326 72.4312 30.3964 72.3787L32.3723 72.3868L32.8552 70.6056L26.0945 70.5813H25.6719L24.2473 70.5732L23.696 72.7422L26.0864 72.7503C26.6257 72.7503 27.0563 72.8513 27.3822 73.0411C27.7082 73.2269 27.9416 73.4854 28.0865 73.8206C28.1066 73.8651 28.1106 73.9135 28.1267 73.958L24.1548 73.9418L23.6719 75.7311L28.175 75.7473C28.1388 75.8644 28.1106 75.9815 28.0583 76.0865C27.8974 76.4178 27.6559 76.6803 27.3299 76.8782C27.004 77.0761 26.5895 77.169 26.0864 77.169L23.9254 77.1609V78.7402L28.344 84.0273L31.3622 84.0395V83.9102L27.3903 79.0674C28.2636 78.9179 28.9638 78.6554 29.499 78.2798C30.0342 77.9001 30.4246 77.4194 30.6741 76.8338C30.8149 76.5066 30.9075 76.1431 30.9719 75.7554H32.3522L32.8271 73.9701L30.984 73.962C30.9035 73.4289 30.7506 72.9442 30.5051 72.5281V72.5362Z" fill="#F8CE4B"/>
<path d="M120.58 90.4531C121.22 90.4531 121.86 90.4531 122.5 90.4531" stroke="#E4ECF9" stroke-width="2.33268" stroke-linecap="round" stroke-linejoin="round"/>
<path d="M11.6426 90.4609C45.5148 90.5134 79.2824 90.5134 112.897 90.4609" stroke="#E4ECF9" stroke-width="2.33268" stroke-linecap="round" stroke-linejoin="round"/>
<path d="M2.5 90.4492C3.22034 90.4492 3.94471 90.4492 4.66505 90.4492" stroke="#E4ECF9" stroke-width="2.33268" stroke-linecap="round" stroke-linejoin="round"/>
<path d="M105.54 22.54C104.417 22.54 103.508 21.6594 103.508 20.581C103.508 19.5026 104.421 18.6221 105.54 18.6221C106.659 18.6221 107.572 19.5026 107.572 20.581C107.572 21.6594 106.659 22.54 105.54 22.54ZM105.54 19.2845C104.8 19.2845 104.196 19.8661 104.196 20.581C104.196 21.2959 104.8 21.8775 105.54 21.8775C106.281 21.8775 106.884 21.2959 106.884 20.581C106.884 19.8661 106.281 19.2845 105.54 19.2845Z" fill="#D6EBFD"/>
<path d="M27.7542 24.6703C26.4262 24.6703 25.3477 23.6282 25.3477 22.3478C25.3477 21.0675 26.4262 20.0254 27.7542 20.0254C29.0822 20.0254 30.1607 21.0675 30.1607 22.3478C30.1607 23.6282 29.0822 24.6703 27.7542 24.6703ZM27.7542 20.6918C26.8044 20.6918 26.0358 21.435 26.0358 22.3478C26.0358 23.2607 26.8085 24.0039 27.7542 24.0039C28.6999 24.0039 29.4725 23.2607 29.4725 22.3478C29.4725 21.435 28.6999 20.6918 27.7542 20.6918Z" fill="#D6EBFD"/>
<path d="M102.874 10.3642C102.355 10.3642 101.938 9.95624 101.938 9.45944C101.938 8.96263 102.359 8.55469 102.874 8.55469C103.389 8.55469 103.812 8.96263 103.812 9.45944C103.812 9.95624 103.389 10.3642 102.874 10.3642ZM102.874 9.21709C102.737 9.21709 102.625 9.32615 102.625 9.45944C102.625 9.59272 102.737 9.70178 102.874 9.70178C103.011 9.70178 103.124 9.59272 103.124 9.45944C103.124 9.32615 103.011 9.21709 102.874 9.21709Z" fill="#D6EBFD"/>
<path d="M97.424 18.6025C96.9049 18.6025 96.4863 18.1945 96.4863 17.6977C96.4863 17.2009 96.9089 16.793 97.424 16.793C97.9391 16.793 98.3616 17.2009 98.3616 17.6977C98.3616 18.1945 97.9391 18.6025 97.424 18.6025ZM97.424 17.4554C97.2872 17.4554 97.1745 17.5644 97.1745 17.6977C97.1745 17.831 97.2872 17.9401 97.424 17.9401C97.5608 17.9401 97.6735 17.831 97.6735 17.6977C97.6735 17.5644 97.5608 17.4554 97.424 17.4554Z" fill="#D6EBFD"/>
<path d="M37.337 12.0121C36.7655 12.0121 36.3027 11.5678 36.3027 11.0185V6.519C36.3027 5.96969 36.7655 5.52539 37.337 5.52539C37.9084 5.52539 38.3712 5.96969 38.3712 6.519V11.0185C38.3712 11.5678 37.9084 12.0121 37.337 12.0121Z" fill="#D6EBFD"/>
<g opacity="0.4">
<path d="M102.376 31.375L100.211 33.1441C100.03 33.2895 99.7518 33.2572 99.5868 33.0714C99.4218 32.8856 99.4339 32.615 99.615 32.4655L101.78 30.6964C101.961 30.551 102.239 30.5833 102.404 30.7691C102.569 30.9549 102.557 31.2255 102.376 31.375Z" fill="#ED5EFC"/>
</g>
<path d="M24.3226 18.5873C22.9342 19.9 23.5218 22.796 25.6385 25.0498C27.7553 27.3076 30.5964 28.071 31.9848 26.7583L32.7534 26.0313L25.0832 17.8643L24.3226 18.5832V18.5873Z" fill="#FDAE3A"/>
<path d="M31.5297 24.7267L28.918 27.1946C29.8234 27.4692 30.6806 27.4733 31.3567 27.1703L32.6646 25.9344L31.5297 24.7227V24.7267Z" fill="#FDCF86"/>
<path d="M27.3086 26.4435C27.7593 26.7303 28.2181 26.9525 28.6648 27.114L31.3691 24.5613L30.3992 23.5273L27.3126 26.4476L27.3086 26.4435Z" fill="#FDCF86"/>
<path d="M25.1393 17.8149C23.7348 19.1438 24.3103 22.0519 26.4231 24.3057C28.5358 26.5595 31.393 27.3148 32.8015 25.9859C34.206 24.6571 33.6345 21.749 31.5178 19.4952C29.401 17.2374 26.5478 16.4861 25.1393 17.8149Z" fill="#FAEA5C"/>
<path d="M28.3516 17.3965L29.7279 26.448C30.577 26.6984 31.3859 26.7146 32.0458 26.4601L30.8949 18.8909C30.082 18.176 29.2007 17.6711 28.3516 17.3965Z" fill="#FFF3C3"/>
<path d="M29.4341 26.35L28.0578 17.3065C27.6272 17.1934 27.2087 17.145 26.8184 17.1571L28.1182 25.7037C28.5568 25.9784 28.9995 26.1925 29.4341 26.35Z" fill="#FFF3C3"/>
<path d="M25.8091 18.3159C24.63 19.4307 25.133 21.8945 26.9399 23.8211C28.7468 25.7437 31.1654 26.4021 32.3485 25.2832C33.5276 24.1685 33.0246 21.7046 31.2177 19.778C29.4108 17.8514 26.9922 17.1971 25.8131 18.3159H25.8091Z" fill="#FDAE3A"/>
<path d="M26.0618 18.5839C24.9712 19.6138 25.438 21.8878 27.1041 23.665C28.7701 25.4422 31.0036 26.048 32.0942 25.014C33.1848 23.9841 32.7179 21.7101 31.0519 19.9329C29.3858 18.1557 27.1524 17.5499 26.0618 18.5839Z" fill="#FAEA5C"/>
<path d="M28.543 18.2725L29.6174 25.3408C30.3458 25.5751 31.038 25.5872 31.5853 25.3529L30.712 19.6053C30.0239 18.9631 29.2673 18.5108 28.543 18.2765V18.2725Z" fill="#FDEDA9"/>
<path d="M29.369 25.2484L28.2945 18.2003C27.9283 18.1033 27.5701 18.067 27.2441 18.0953L28.2422 24.6506C28.6124 24.9051 28.9947 25.103 29.369 25.2484Z" fill="#FDEDA9"/>
<path d="M108.397 38.4836C109.608 39.966 112.525 39.5701 114.908 37.6031C117.294 35.6361 118.244 32.8411 117.033 31.3628L116.365 30.5469L107.729 37.6758L108.393 38.4877L108.397 38.4836Z" fill="#FDAE3A"/>
<path d="M114.984 31.6803L117.262 34.4592C117.596 33.5706 117.661 32.7143 117.403 32.0155L116.264 30.6221L114.984 31.6803Z" fill="#FDCF86"/>
<path d="M116.405 36.0187C116.719 35.5865 116.973 35.1422 117.162 34.706L114.804 31.8262L113.709 32.7309L116.401 36.0187H116.405Z" fill="#FDCF86"/>
<path d="M107.685 37.6141C108.913 39.1125 111.838 38.7329 114.225 36.7659C116.611 34.7988 117.549 31.9917 116.325 30.4932C115.098 28.9947 112.172 29.3744 109.786 31.3414C107.4 33.3084 106.462 36.1196 107.685 37.6141Z" fill="#FAEA5C"/>
<path d="M107.484 34.371L116.575 33.6036C116.881 32.7715 116.949 31.9597 116.744 31.2852L109.142 31.9274C108.378 32.6948 107.814 33.543 107.484 34.375V34.371Z" fill="#FFF3C3"/>
<path d="M116.457 33.8908L107.374 34.6582C107.233 35.0823 107.153 35.4983 107.145 35.8901L115.728 35.1631C116.03 34.743 116.276 34.3149 116.457 33.8867V33.8908Z" fill="#FFF3C3"/>
<path d="M108.228 36.9766C109.258 38.2328 111.741 37.8935 113.777 36.2173C115.813 34.5411 116.626 32.158 115.596 30.9019C114.566 29.6457 112.083 29.985 110.047 31.6612C108.01 33.3374 107.198 35.7205 108.228 36.9766Z" fill="#FDAE3A"/>
<path d="M108.507 36.7429C109.457 37.9062 111.751 37.5911 113.63 36.0401C115.509 34.4892 116.262 32.2959 115.308 31.1327C114.354 29.9694 112.065 30.2845 110.185 31.8355C108.306 33.3824 107.553 35.5797 108.507 36.7429Z" fill="#FAEA5C"/>
<path d="M108.365 34.234L115.464 33.6322C115.746 32.9173 115.806 32.2266 115.609 31.6611L109.838 32.1499C109.154 32.7961 108.651 33.5231 108.369 34.234H108.365Z" fill="#FDEDA9"/>
<path d="M115.354 33.877L108.275 34.4747C108.154 34.8382 108.094 35.1896 108.098 35.5208L114.682 34.9635C114.959 34.608 115.185 34.2405 115.354 33.877Z" fill="#FDEDA9"/>
<path d="M57.3995 6.33131C57.4599 8.67396 60.2849 10.5037 63.7136 10.4188C67.1422 10.33 69.8747 8.35892 69.8144 6.01626L69.7822 4.71973L57.3633 5.04285L57.3955 6.32727L57.3995 6.33131Z" fill="#FDAE3A"/>
<path d="M67.8027 4.77308L67.9154 9.17565C68.8128 8.57383 69.4487 7.79429 69.6982 6.92993L69.6418 4.72461L67.8027 4.77308Z" fill="#FDCF86"/>
<path d="M66.1035 10.031C66.6709 9.85333 67.1941 9.61906 67.6609 9.34037L67.5442 4.78027L65.9707 4.82066L66.1035 10.031Z" fill="#FDCF86"/>
<path d="M57.3662 4.9541C57.4266 7.32503 60.2556 9.17896 63.6843 9.0901C67.113 9.00124 69.8455 7.00998 69.7851 4.63906C69.7247 2.26813 66.8957 0.414206 63.467 0.503065C60.0383 0.591925 57.3059 2.58318 57.3662 4.9541Z" fill="#FAEA5C"/>
<path d="M59.3926 1.6787L67.8918 7.82614C68.7248 7.25664 69.3365 6.52961 69.6142 5.71776L62.5074 0.580078C61.3162 0.737601 60.2457 1.12939 59.3926 1.68274V1.6787Z" fill="#FFF3C3"/>
<path d="M67.5959 8.01547L59.1047 1.87207C58.6942 2.175 58.3401 2.51428 58.0664 2.88587L66.0908 8.69C66.6381 8.51632 67.1451 8.28609 67.5959 8.01547Z" fill="#FFF3C3"/>
<path d="M58.2743 4.75238C58.3226 6.74363 60.7372 8.29867 63.6588 8.22597C66.5844 8.15326 68.9145 6.47706 68.8621 4.4858C68.8139 2.49455 66.3993 0.939512 63.4777 1.01221C60.552 1.08492 58.222 2.76113 58.2743 4.75238Z" fill="#FDAE3A"/>
<path d="M58.6843 4.74384C58.7326 6.58161 60.958 8.01951 63.6583 7.95085C66.3585 7.88218 68.5075 6.33523 68.4632 4.49746C68.4149 2.65969 66.1895 1.22178 63.4892 1.29045C60.789 1.35911 58.64 2.90607 58.6843 4.74384Z" fill="#FAEA5C"/>
<path d="M60.2578 2.21587L66.8938 7.01427C67.6262 6.5417 68.1494 5.91969 68.3587 5.22497L62.9621 1.32324C61.9239 1.42422 60.9902 1.74734 60.2578 2.21587Z" fill="#FDEDA9"/>
<path d="M66.6375 7.17202L60.0176 2.38574C59.6674 2.64424 59.3737 2.93909 59.1523 3.25818L65.3095 7.70922C65.7964 7.57593 66.2391 7.39417 66.6375 7.17202Z" fill="#FDEDA9"/>
<path d="M45.3281 13.9359C45.3281 13.2556 45.8796 12.7041 46.5599 12.7041C47.2403 12.7041 47.7918 13.2556 47.7918 13.9359V21.3631C47.7918 22.0434 47.2403 22.5949 46.5599 22.5949C45.8796 22.5949 45.3281 22.0434 45.3281 21.3631V13.9359Z" fill="#0A4BFF"/>
<path d="M82.767 5.53223H52.7293C49.1865 5.53223 46.3145 8.40427 46.3145 11.9471V83.6836C46.3145 87.2265 49.1865 90.0985 52.7293 90.0985H82.767C86.3098 90.0985 89.1819 87.2265 89.1819 83.6836V11.9471C89.1819 8.40427 86.3098 5.53223 82.767 5.53223Z" fill="#0A4BFF"/>
<path d="M82.9487 6.52148H52.5493C49.6506 6.52148 47.3008 8.87134 47.3008 11.77V83.861C47.3008 86.7597 49.6506 89.1096 52.5493 89.1096H82.9487C85.8474 89.1096 88.1973 86.7597 88.1973 83.861V11.77C88.1973 8.87134 85.8474 6.52148 82.9487 6.52148Z" fill="white"/>
<path opacity="0.3" d="M72.4275 8.00488H62.5766C62.3034 8.00488 62.082 8.2263 62.082 8.49942V8.49942C62.082 8.77255 62.3034 8.99396 62.5766 8.99396H72.4275C72.7006 8.99396 72.922 8.77255 72.922 8.49942C72.922 8.2263 72.7006 8.00488 72.4275 8.00488Z" fill="#0A4BFF"/>
<path d="M89.6749 16.9072H88.6895V26.3035H89.6749V16.9072Z" fill="#0A4BFF"/>
<path d="M89.6749 28.2812H88.6895V37.6775H89.6749V28.2812Z" fill="#423DB6"/>
<mask id="mask0_781_33267" style="mask-type:alpha" maskUnits="userSpaceOnUse" x="47" y="6" width="42" height="84">
<path d="M82.9468 6.5H52.5474C49.6487 6.5 47.2988 8.84985 47.2988 11.7485V83.8396C47.2988 86.7383 49.6487 89.0881 52.5474 89.0881H82.9468C85.8455 89.0881 88.1953 86.7383 88.1953 83.8396V11.7485C88.1953 8.84985 85.8455 6.5 82.9468 6.5Z" fill="white"/>
</mask>
<g mask="url(#mask0_781_33267)">
<path d="M107.924 2.75748L100.27 -5.36816L27.5893 63.6044L35.2441 71.7301L107.924 2.75748Z" fill="white" fill-opacity="0.8"/>
<path d="M102.664 -9.34116L101.748 -10.3135L29.0678 58.6591L29.9838 59.6314L102.664 -9.34116Z" fill="white" fill-opacity="0.8"/>
<path d="M113.952 26.4362L100.762 12.4346L28.0815 81.4072L41.2717 95.4088L113.952 26.4362Z" fill="white" fill-opacity="0.8"/>
<path d="M63.0425 55.4817L56.976 49.4151L54.9102 51.4664L63.0425 59.5988L80.5002 42.1411L78.4489 40.0898L63.0425 55.4817Z" fill="#46BD88"/>
</g>
</g>
<defs>
<clipPath id="clip0_781_33267">
<rect width="124" height="92" fill="white" transform="translate(0.5 0.5)"/>
</clipPath>
</defs>
</svg>
