<svg width="36" height="61" viewBox="0 0 36 61" fill="none" xmlns="http://www.w3.org/2000/svg">
<g clip-path="url(#clip0_781_33439)">
<path d="M29.9945 0.980469H5.99453C3.17788 0.980469 0.894531 3.26382 0.894531 6.08047V54.0805C0.894531 56.8971 3.17788 59.1805 5.99453 59.1805H29.9945C32.8112 59.1805 35.0945 56.8971 35.0945 54.0805V6.08047C35.0945 3.26382 32.8112 0.980469 29.9945 0.980469Z" stroke="#3D4159" stroke-width="1.8"/>
<mask id="mask0_781_33439" style="mask-type:luminance" maskUnits="userSpaceOnUse" x="6" y="19" width="23" height="23">
<path d="M28.9941 19.0801H6.99414V41.0801H28.9941V19.0801Z" fill="white"/>
</mask>
<g mask="url(#mask0_781_33439)">
<path d="M27.1601 30.9971C26.917 30.9971 26.6838 31.0937 26.5119 31.2656C26.34 31.4375 26.2434 31.6706 26.2434 31.9138V35.7757C26.2427 36.453 25.9733 37.1024 25.4944 37.5813C25.0154 38.0603 24.366 38.3297 23.6887 38.3304H12.2982C11.6209 38.3297 10.9715 38.0603 10.4925 37.5813C10.0136 37.1024 9.74422 36.453 9.74349 35.7757V31.9138C9.74349 31.6706 9.64691 31.4375 9.475 31.2656C9.3031 31.0937 9.06994 30.9971 8.82682 30.9971C8.58371 30.9971 8.35055 31.0937 8.17864 31.2656C8.00673 31.4375 7.91016 31.6706 7.91016 31.9138V35.7757C7.91137 36.9391 8.37407 38.0545 9.19674 38.8772C10.0194 39.6998 11.1348 40.1625 12.2982 40.1638H23.6887C24.8521 40.1625 25.9675 39.6998 26.7902 38.8772C27.6129 38.0545 28.0756 36.9391 28.0768 35.7757V31.9138C28.0768 31.6706 27.9802 31.4375 27.8083 31.2656C27.6364 31.0937 27.4032 30.9971 27.1601 30.9971Z" fill="#46BD88"/>
<path d="M13.1413 27.0616L17.0766 23.1264V34.6635C17.0766 34.9067 17.1732 35.1398 17.3451 35.3117C17.517 35.4836 17.7501 35.5802 17.9933 35.5802C18.2364 35.5802 18.4695 35.4836 18.6414 35.3117C18.8133 35.1398 18.9099 34.9067 18.9099 34.6635V23.1264L22.8452 27.0616C23.0181 27.2286 23.2496 27.321 23.49 27.3189C23.7303 27.3168 23.9602 27.2204 24.1302 27.0505C24.3001 26.8805 24.3965 26.6506 24.3986 26.4102C24.4007 26.1699 24.3083 25.9383 24.1413 25.7655L18.6413 20.2655C18.4694 20.0936 18.2363 19.9971 17.9933 19.9971C17.7502 19.9971 17.5171 20.0936 17.3452 20.2655L11.8452 25.7655C11.6782 25.9383 11.5858 26.1699 11.5879 26.4102C11.59 26.6506 11.6864 26.8805 11.8563 27.0505C12.0263 27.2204 12.2562 27.3168 12.4966 27.3189C12.7369 27.321 12.9685 27.2286 13.1413 27.0616Z" fill="#46BD88"/>
</g>
<path d="M17.9941 55.0801C19.651 55.0801 20.9941 53.7369 20.9941 52.0801C20.9941 50.4232 19.651 49.0801 17.9941 49.0801C16.3373 49.0801 14.9941 50.4232 14.9941 52.0801C14.9941 53.7369 16.3373 55.0801 17.9941 55.0801Z" fill="#3D4159"/>
<path d="M15.5938 5.48047H21.5938" stroke="#3D4159" stroke-width="1.8" stroke-linecap="round"/>
</g>
<defs>
<clipPath id="clip0_781_33439">
<rect width="36" height="60" fill="white" transform="translate(-0.00585938 0.0800781)"/>
</clipPath>
</defs>
</svg>
