<svg width="88" height="88" viewBox="0 0 88 88" fill="none" xmlns="http://www.w3.org/2000/svg">
<g clip-path="url(#clip0_781_31190)">
<path d="M44 88C68.3005 88 88 68.3005 88 44C88 19.6995 68.3005 0 44 0C19.6995 0 0 19.6995 0 44C0 68.3005 19.6995 88 44 88Z" fill="url(#paint0_linear_781_31190)"/>
<path d="M44 88C68.3005 88 88 68.3005 88 44C88 19.6995 68.3005 0 44 0C19.6995 0 0 19.6995 0 44C0 68.3005 19.6995 88 44 88Z" fill="url(#paint1_linear_781_31190)"/>
<path d="M21.5095 87.9995V74.3092L15.6387 66.4897H21.5095V55.7286L17.5998 50.8383H21.5095V41.0703H37.161V50.8383H41.0707L37.161 55.7286V66.4897H43.0192L37.161 74.3092V87.9995H21.5095ZM27.3804 45.9606V52.7995H31.2901V45.9606H27.3804ZM27.3804 62.58V68.4383H31.2901V62.58H27.3804ZM27.3804 81.1606V87.0189H31.2901V81.1606H27.3804ZM24.4387 73.3286V75.2897H34.2192V73.3286H24.4387ZM24.4387 77.2383V79.1995H34.2192V77.2383H24.4387ZM24.4387 54.7606V56.7092H34.2192V54.7606H24.4387ZM24.4387 58.6703V60.6189H34.2192V58.6703H24.4387Z" fill="#91C5E6"/>
<path d="M20.5293 36.1807H38.1293V38.1292H20.5293V36.1807Z" fill="#91C5E6"/>
<path d="M22.4902 32.2705H36.1805V34.2191H22.4902V32.2705Z" fill="#57A2D4"/>
<path d="M24.4395 28.3604H34.22V30.3089H24.4395V28.3604Z" fill="#91C5E6"/>
<path d="M26.4004 24.4385H32.2712V26.3996H26.4004V24.4385Z" fill="#57A2D4"/>
<path d="M50.8388 87.9995V74.3092L44.9805 66.4897H50.8388V55.7286L46.929 50.8383H50.8388V41.0703H66.4902V50.8383H70.3999L66.4902 55.7286V66.4897H72.361L66.4902 74.3092V87.9995H50.8388ZM56.7096 45.9606V52.7995H60.6193V45.9606H56.7096ZM56.7096 62.58V68.4383H60.6193V62.58H56.7096ZM56.7096 81.1606V87.0189H60.6193V81.1606H56.7096ZM53.7805 73.3286V75.2897H63.561V73.3286H53.7805ZM53.7805 77.2383V79.1995H63.561V77.2383H53.7805ZM53.7805 54.7606V56.7092H63.561V54.7606H53.7805ZM53.7805 58.6703V60.6189H63.561V58.6703H53.7805Z" fill="#57A2D4"/>
<path d="M49.8711 36.1807H67.4711V38.1292H49.8711V36.1807Z" fill="#91C5E6"/>
<path d="M51.8184 32.2705H65.5086V34.2191H51.8184V32.2705Z" fill="#57A2D4"/>
<path d="M53.7812 28.3604H63.5618V30.3089H53.7812V28.3604Z" fill="#91C5E6"/>
<path d="M55.7285 24.4385H61.5994V26.3996H55.7285V24.4385Z" fill="#57A2D4"/>
<path d="M48.7906 12.7722C49.2196 12.7179 49.6552 12.7524 50.0704 12.8734C50.4855 12.9945 50.8713 13.1996 51.2039 13.476C51.5364 13.7524 51.8086 14.0943 52.0036 14.4803C52.1985 14.8663 52.312 15.2882 52.337 15.7199C52.3621 16.1517 52.2981 16.5839 52.1491 16.9899C52.0001 17.3958 51.7693 17.7668 51.4709 18.0798C51.1725 18.3928 50.813 18.6412 50.4147 18.8094C50.0163 18.9777 49.5876 19.0623 49.1552 19.0579H39.626C39.0507 18.9489 38.5315 18.6424 38.158 18.1914C37.7845 17.7404 37.5801 17.1732 37.5801 16.5876C37.5801 16.0021 37.7845 15.4349 38.158 14.9839C38.5315 14.5329 39.0507 14.2264 39.626 14.1174H39.802C39.662 13.1088 39.9284 12.0859 40.5425 11.2737C41.1567 10.4615 42.0683 9.92653 43.0769 9.7865C44.0855 9.64646 45.1084 9.91282 45.9206 10.527C46.7328 11.1411 47.2677 12.0528 47.4078 13.0614C47.836 12.8449 48.3109 12.737 48.7906 12.7471V12.7722Z" fill="white"/>
<path d="M14.1796 40.0146C14.4492 39.9843 14.7221 40.0091 14.9817 40.0877C15.2413 40.1662 15.4823 40.2968 15.6898 40.4714C15.8974 40.6461 16.0672 40.8612 16.189 41.1035C16.3108 41.3459 16.3819 41.6105 16.3982 41.8813C16.4144 42.1521 16.3753 42.4233 16.2834 42.6785C16.1914 42.9337 16.0485 43.1675 15.8633 43.3657C15.6781 43.5639 15.4545 43.7223 15.2061 43.8313C14.9577 43.9403 14.6897 43.9976 14.4185 43.9997H8.39675C8.19204 43.9997 7.98933 43.9594 7.8002 43.881C7.61107 43.8027 7.43922 43.6879 7.29447 43.5431C7.14972 43.3984 7.03489 43.2265 6.95655 43.0374C6.87821 42.8483 6.83789 42.6456 6.83789 42.4408C6.83789 42.2361 6.87821 42.0334 6.95655 41.8443C7.03489 41.6552 7.14972 41.4833 7.29447 41.3386C7.43922 41.1938 7.61107 41.079 7.8002 41.0006C7.98933 40.9223 8.19204 40.882 8.39675 40.882H8.50989C8.43605 40.253 8.61197 39.6202 8.99982 39.1195C9.38768 38.6189 9.95649 38.2905 10.584 38.2048C11.2114 38.1192 11.8475 38.2832 12.3553 38.6616C12.8631 39.04 13.2022 39.6025 13.2996 40.2283C13.5754 40.0997 13.8753 40.0311 14.1796 40.0271V40.0146Z" fill="white"/>
</g>
<defs>
<linearGradient id="paint0_linear_781_31190" x1="44.2514" y1="0.251429" x2="44.2514" y2="84.7314" gradientUnits="userSpaceOnUse">
<stop stop-color="#EAF7FF"/>
<stop offset="1" stop-color="white"/>
</linearGradient>
<linearGradient id="paint1_linear_781_31190" x1="44.2514" y1="0.251429" x2="44.2514" y2="88.2514" gradientUnits="userSpaceOnUse">
<stop stop-color="#EAF7FF" stop-opacity="0.5"/>
<stop offset="1" stop-color="white" stop-opacity="0.46"/>
</linearGradient>
<clipPath id="clip0_781_31190">
<rect width="88" height="88" fill="white"/>
</clipPath>
</defs>
</svg>
