<svg width="88" height="90" viewBox="0 0 88 90" fill="none" xmlns="http://www.w3.org/2000/svg">
<g clip-path="url(#clip0_784_10143)">
<path d="M44.2496 87.1008C68.3018 87.1008 87.8 67.6026 87.8 43.5504C87.8 19.4982 68.3018 0 44.2496 0C20.1974 0 0.699219 19.4982 0.699219 43.5504C0.699219 67.6026 20.1974 87.1008 44.2496 87.1008Z" fill="url(#paint0_linear_784_10143)"/>
<mask id="mask0_784_10143" style="mask-type:luminance" maskUnits="userSpaceOnUse" x="0" y="0" width="88" height="88">
<path d="M44.2496 87.1008C68.3018 87.1008 87.8 67.6026 87.8 43.5504C87.8 19.4982 68.3018 0 44.2496 0C20.1974 0 0.699219 19.4982 0.699219 43.5504C0.699219 67.6026 20.1974 87.1008 44.2496 87.1008Z" fill="white"/>
</mask>
<g mask="url(#mask0_784_10143)">
<path d="M45.7058 34.0563C52.9228 36.7564 51.9273 39.9045 51.9273 39.9045C51.9144 40.6143 51.625 41.291 51.1207 41.7906C50.6164 42.2903 49.9371 42.5734 49.2272 42.5797H41.2264C40.5079 42.5831 39.8172 42.3026 39.3046 41.7992C38.7919 41.2959 38.4988 40.6105 38.4889 39.8921C38.4889 39.8921 37.4935 36.7564 44.7104 34.0439V31.9286L45.2081 30.958L45.7058 31.9286V34.0563Z" fill="#57A2D4"/>
<path d="M37.4805 47.4071H52.9595V43.5498H37.4805V47.4071Z" fill="#57A2D4"/>
<path fill-rule="evenodd" clip-rule="evenodd" d="M33.6729 50.2694V48.5273V50.2694ZM55.8213 50.2694V48.5273V50.2694Z" fill="#FFFFFE"/>
<path d="M36.5098 50.8046C36.5098 48.739 38.3016 48.3906 40.5164 48.3906H49.9233C52.1381 48.3906 53.9299 48.739 53.9299 50.8046V51.3023H36.5098V50.8046Z" fill="#57A2D4"/>
<path d="M35.5399 55.16V52.2607H54.9012V55.16H58.7585V90.0003H31.6826V55.16H35.5399ZM35.5399 63.87V79.3615H55.8593V63.87H35.5399ZM39.3973 57.1011V60.0003H40.3678V57.1135L39.3973 57.1011ZM45.2081 57.1011V60.0003H46.1787V57.1135L45.2081 57.1011ZM51.0066 57.1011V60.0003H51.9771V57.1135L51.0066 57.1011Z" fill="#57A2D4"/>
<path d="M56.3443 51.4642V50.3194L56.842 49.3613L57.3397 50.3194V51.4642C61.2344 52.9573 60.6993 54.6371 60.6993 54.6371C60.6945 54.8382 60.6501 55.0362 60.5686 55.2201C60.4872 55.4039 60.3704 55.5699 60.2248 55.7086C60.0792 55.8472 59.9077 55.9558 59.7201 56.0282C59.5325 56.1006 59.3325 56.1353 59.1315 56.1303H54.3783C54.0019 56.0994 53.6505 55.9293 53.3928 55.6531C53.1351 55.377 52.9896 55.0148 52.9847 54.6371C52.9847 54.6371 52.6611 53.6168 54.3534 52.4721C54.9763 52.0611 55.6443 51.7229 56.3443 51.4642ZM33.1257 51.4642V50.3194L33.5985 49.3613L34.0962 50.3194V51.4642C34.7933 51.7245 35.4607 52.0581 36.0871 52.4596C37.7918 53.6168 37.4558 54.6371 37.4558 54.6371C37.4482 55.0107 37.303 55.3682 37.0482 55.6414C36.7934 55.9146 36.4467 56.0843 36.0747 56.1179H31.309C30.904 56.1246 30.5126 55.9718 30.2192 55.6924C29.9259 55.4131 29.7542 55.0296 29.7412 54.6247C29.7412 54.6247 29.2061 52.9573 33.1008 51.4642H33.1257ZM75.7055 51.4642V50.3194L76.2032 49.3613L76.701 50.3194V51.4642C80.5956 52.9573 80.0606 54.6371 80.0606 54.6371C80.0476 55.042 79.8759 55.4255 79.5825 55.7049C79.2892 55.9842 78.8978 56.137 78.4928 56.1303H73.9386C73.7376 56.1353 73.5376 56.1006 73.35 56.0282C73.1624 55.9558 72.9909 55.8472 72.8454 55.7086C72.6998 55.5699 72.5829 55.4039 72.5015 55.2201C72.4201 55.0362 72.3757 54.8382 72.3708 54.6371C72.3708 54.6371 71.8233 52.9573 75.7304 51.4642H75.7055ZM14.735 51.4642V50.3194L15.2327 49.3613L15.7304 50.3194V51.4642C19.6251 52.9573 19.09 54.6371 19.09 54.6371C19.0852 54.8382 19.0408 55.0362 18.9593 55.2201C18.8779 55.4039 18.7611 55.5699 18.6155 55.7086C18.4699 55.8472 18.2984 55.9558 18.1108 56.0282C17.9232 56.1006 17.7232 56.1353 17.5222 56.1303H12.9556C12.5518 56.137 12.1617 55.9838 11.8704 55.7041C11.579 55.4244 11.4101 55.0409 11.4003 54.6371C11.4003 54.6371 10.8528 52.9573 14.7599 51.4642H14.735ZM59.7288 90.0001V59.0171H73.2916V90.0001H59.7288ZM64.0838 68.7226C63.8932 68.7226 63.7045 68.7603 63.5285 68.8336C63.3526 68.907 63.1929 69.0144 63.0587 69.1497C62.9245 69.2851 62.8185 69.4457 62.7467 69.6222C62.6749 69.7988 62.6388 69.9878 62.6404 70.1784V72.5924H65.5396V70.1784C65.5396 69.9872 65.502 69.7979 65.4288 69.6213C65.3556 69.4447 65.2484 69.2842 65.1132 69.149C64.978 69.0138 64.8175 68.9066 64.6409 68.8334C64.4643 68.7602 64.275 68.7226 64.0838 68.7226ZM68.9366 68.7226C68.746 68.7226 68.5572 68.7603 68.3813 68.8336C68.2054 68.907 68.0457 69.0144 67.9115 69.1497C67.7773 69.2851 67.6712 69.4457 67.5994 69.6222C67.5276 69.7988 67.4915 69.9878 67.4932 70.1784V72.5924H70.3799V70.1784C70.3799 69.9872 70.3423 69.7979 70.2691 69.6213C70.196 69.4447 70.0887 69.2842 69.9535 69.149C69.8184 69.0138 69.6579 68.9066 69.4812 68.8334C69.3046 68.7602 69.1153 68.7226 68.9241 68.7226H68.9366ZM64.0838 74.5335C63.8932 74.5335 63.7045 74.5712 63.5285 74.6445C63.3526 74.7178 63.1929 74.8253 63.0587 74.9606C62.9245 75.096 62.8185 75.2565 62.7467 75.4331C62.6749 75.6097 62.6388 75.7987 62.6404 75.9893V78.3908H65.5396V75.9768C65.5396 75.5907 65.3862 75.2204 65.1132 74.9474C64.8402 74.6744 64.4699 74.521 64.0838 74.521V74.5335ZM68.9366 74.5335C68.746 74.5335 68.5572 74.5712 68.3813 74.6445C68.2054 74.7178 68.0457 74.8253 67.9115 74.9606C67.7773 75.096 67.6712 75.2565 67.5994 75.4331C67.5276 75.6097 67.4915 75.7987 67.4932 75.9893V78.3908H70.3799V75.9768C70.3799 75.5907 70.2266 75.2204 69.9535 74.9474C69.6805 74.6744 69.3102 74.521 68.9241 74.521L68.9366 74.5335ZM17.6217 90.0001V59.0171H31.1846V90.0001H17.6217ZM21.9768 68.7226C21.7856 68.7226 21.5963 68.7602 21.4197 68.8334C21.243 68.9066 21.0825 69.0138 20.9474 69.149C20.8122 69.2842 20.7049 69.4447 20.6318 69.6213C20.5586 69.7979 20.521 69.9872 20.521 70.1784V72.5924H23.4326V70.1784C23.4326 69.9872 23.395 69.7979 23.3218 69.6213C23.2486 69.4447 23.1414 69.2842 23.0062 69.149C22.871 69.0138 22.7105 68.9066 22.5339 68.8334C22.3573 68.7602 22.168 68.7226 21.9768 68.7226ZM26.8295 68.7226C26.6384 68.7226 26.449 68.7602 26.2724 68.8334C26.0958 68.9066 25.9353 69.0138 25.8001 69.149C25.6649 69.2842 25.5577 69.4447 25.4845 69.6213C25.4114 69.7979 25.3737 69.9872 25.3737 70.1784V72.5924H28.2854V70.1784C28.287 69.9862 28.2506 69.7955 28.1781 69.6175C28.1057 69.4394 27.9987 69.2774 27.8634 69.1409C27.728 69.0044 27.567 68.8961 27.3896 68.8221C27.2121 68.7482 27.0218 68.7101 26.8295 68.7101V68.7226ZM21.9768 74.5335C21.7856 74.5335 21.5963 74.5711 21.4197 74.6443C21.243 74.7174 21.0825 74.8247 20.9474 74.9599C20.8122 75.095 20.7049 75.2555 20.6318 75.4322C20.5586 75.6088 20.521 75.7981 20.521 75.9893V78.3908H23.4326V75.9768C23.4326 75.5907 23.2792 75.2204 23.0062 74.9474C22.7332 74.6744 22.3629 74.521 21.9768 74.521V74.5335ZM26.8295 74.5335C26.6384 74.5335 26.449 74.5711 26.2724 74.6443C26.0958 74.7174 25.9353 74.8247 25.8001 74.9599C25.6649 75.095 25.5577 75.2555 25.4845 75.4322C25.4114 75.6088 25.3737 75.7981 25.3737 75.9893V78.3908H28.2854V75.9768C28.2854 75.5907 28.132 75.2204 27.859 74.9474C27.5859 74.6744 27.2157 74.521 26.8295 74.521V74.5335Z" fill="#57A2D4"/>
<path d="M74.2372 89.9994H78.0945V56.1172H74.2372V89.9869V89.9994ZM13.2666 89.9994H17.1239V56.1172H13.2666V89.9869V89.9994Z" fill="#57A2D4"/>
<path d="M39.3965 66.7812H40.367V76.4494H39.3965V66.7812ZM45.2074 66.7812H46.1779V76.4494H45.2074V66.7812ZM51.0058 66.7812H51.9763V76.4494H51.0058V66.7812Z" fill="#57A2D4"/>
</g>
<mask id="mask1_784_10143" style="mask-type:luminance" maskUnits="userSpaceOnUse" x="0" y="0" width="88" height="88">
<path d="M44.2496 87.1008C68.3018 87.1008 87.8 67.6026 87.8 43.5504C87.8 19.4982 68.3018 0 44.2496 0C20.1974 0 0.699219 19.4982 0.699219 43.5504C0.699219 67.6026 20.1974 87.1008 44.2496 87.1008Z" fill="white"/>
</mask>
<g mask="url(#mask1_784_10143)">
<path d="M72.2217 32.961C72.6463 32.9073 73.0775 32.9414 73.4884 33.0612C73.8993 33.181 74.2812 33.384 74.6103 33.6576C74.9395 33.9312 75.2089 34.2696 75.4018 34.6516C75.5948 35.0337 75.7071 35.4513 75.7319 35.8786C75.7567 36.3059 75.6934 36.7338 75.5459 37.1356C75.3984 37.5374 75.1699 37.9046 74.8746 38.2144C74.5793 38.5242 74.2234 38.77 73.8292 38.9365C73.4349 39.1031 73.0106 39.1868 72.5826 39.1825H63.1383C62.5689 39.0745 62.055 38.7712 61.6853 38.3248C61.3156 37.8785 61.1133 37.317 61.1133 36.7374C61.1133 36.1579 61.3156 35.5964 61.6853 35.1501C62.055 34.7037 62.5689 34.4004 63.1383 34.2924H63.3125C63.295 33.3638 63.6187 32.461 64.2221 31.7551C64.8256 31.0491 65.667 30.5889 66.5869 30.4616C67.5069 30.3343 68.4417 30.5488 69.2141 31.0645C69.9865 31.5802 70.5431 32.3612 70.7783 33.2596C71.2084 33.0489 71.6806 32.9383 72.1595 32.9361L72.2217 32.961Z" fill="white"/>
</g>
<g filter="url(#filter0_d_784_10143)">
<mask id="mask2_784_10143" style="mask-type:luminance" maskUnits="userSpaceOnUse" x="0" y="0" width="88" height="88">
<path d="M44.2496 87.1008C68.3018 87.1008 87.8 67.6026 87.8 43.5504C87.8 19.4982 68.3018 0 44.2496 0C20.1974 0 0.699219 19.4982 0.699219 43.5504C0.699219 67.6026 20.1974 87.1008 44.2496 87.1008Z" fill="white"/>
</mask>
<g mask="url(#mask2_784_10143)">
<path d="M31.1849 16.387C31.4451 16.3678 31.7066 16.4005 31.954 16.4832C32.2015 16.5658 32.4301 16.6969 32.6265 16.8686C32.8229 17.0404 32.9833 17.2495 33.0982 17.4837C33.2131 17.718 33.2804 17.9727 33.2961 18.2332C33.3117 18.4936 33.2755 18.7546 33.1894 19.0009C33.1034 19.2472 32.9693 19.474 32.7948 19.6681C32.6204 19.8621 32.4092 20.0196 32.1734 20.1313C31.9376 20.2431 31.682 20.3069 31.4213 20.319H25.4612C25.0775 20.2844 24.7206 20.1076 24.4607 19.8232C24.2008 19.5388 24.0566 19.1675 24.0566 18.7823C24.0566 18.397 24.2008 18.0257 24.4607 17.7413C24.7206 17.457 25.0775 17.2801 25.4612 17.2456H25.5856C25.5263 16.629 25.7076 16.0133 26.0915 15.5272C26.4755 15.0411 27.0325 14.7222 27.646 14.6371C28.2596 14.5519 28.8823 14.7072 29.3841 15.0704C29.8859 15.4336 30.228 15.9766 30.3388 16.5861C30.6048 16.4517 30.8993 16.3834 31.1974 16.387H31.1849Z" fill="white"/>
</g>
</g>
</g>
<defs>
<filter id="filter0_d_784_10143" x="20.0566" y="14.6143" width="17.2432" height="13.7051" filterUnits="userSpaceOnUse" color-interpolation-filters="sRGB">
<feFlood flood-opacity="0" result="BackgroundImageFix"/>
<feColorMatrix in="SourceAlpha" type="matrix" values="0 0 0 0 0 0 0 0 0 0 0 0 0 0 0 0 0 0 127 0" result="hardAlpha"/>
<feOffset dy="4"/>
<feGaussianBlur stdDeviation="2"/>
<feComposite in2="hardAlpha" operator="out"/>
<feColorMatrix type="matrix" values="0 0 0 0 0 0 0 0 0 0 0 0 0 0 0 0 0 0 0.25 0"/>
<feBlend mode="normal" in2="BackgroundImageFix" result="effect1_dropShadow_784_10143"/>
<feBlend mode="normal" in="SourceGraphic" in2="effect1_dropShadow_784_10143" result="shape"/>
</filter>
<linearGradient id="paint0_linear_784_10143" x1="44.4985" y1="0.248859" x2="44.4985" y2="83.8656" gradientUnits="userSpaceOnUse">
<stop stop-color="#EAF7FF"/>
<stop offset="1" stop-color="white"/>
</linearGradient>
<clipPath id="clip0_784_10143">
<rect width="87.1008" height="90" fill="white" transform="translate(0.699219)"/>
</clipPath>
</defs>
</svg>
