<svg width="85" height="90" viewBox="0 0 85 90" fill="none" xmlns="http://www.w3.org/2000/svg">
<g clip-path="url(#clip0_784_10111)">
<path d="M42.2501 84.3712C65.5485 84.3712 84.4357 65.4841 84.4357 42.1856C84.4357 18.8871 65.5485 0 42.2501 0C18.9516 0 0.0644531 18.8871 0.0644531 42.1856C0.0644531 65.4841 18.9516 84.3712 42.2501 84.3712Z" fill="url(#paint0_linear_784_10111)"/>
<path d="M42.2501 84.3712C65.5485 84.3712 84.4357 65.4841 84.4357 42.1856C84.4357 18.8871 65.5485 0 42.2501 0C18.9516 0 0.0644531 18.8871 0.0644531 42.1856C0.0644531 65.4841 18.9516 84.3712 42.2501 84.3712Z" fill="url(#paint1_linear_784_10111)"/>
<mask id="mask0_784_10111" style="mask-type:luminance" maskUnits="userSpaceOnUse" x="0" y="0" width="85" height="85">
<path d="M42.2501 84.3712C65.5485 84.3712 84.4357 65.4841 84.4357 42.1856C84.4357 18.8871 65.5485 0 42.2501 0C18.9516 0 0.0644531 18.8871 0.0644531 42.1856C0.0644531 65.4841 18.9516 84.3712 42.2501 84.3712Z" fill="white"/>
</mask>
<g mask="url(#mask0_784_10111)">
<path d="M46.8301 22.5146H49.7229C58.16 25.6846 63.7888 35.6163 63.7888 46.8618H22.5674C22.5674 35.6163 28.6783 25.769 37.031 22.6352C37.1154 22.6352 38.0796 22.5749 39.4416 22.5508C32.2741 29.9755 29.9117 38.0108 32.3544 46.6569L32.475 47.1028L33.3548 46.8618L33.2343 46.4158C30.8237 37.9787 33.2343 30.084 40.4661 22.7919L40.7434 22.5146H45.5646L45.8538 22.816C53.0857 30.1683 55.4963 38.0028 53.0857 46.4881L52.9651 46.9341H53.9655V46.7654C56.4123 38.0631 54.0258 29.9755 46.8301 22.5388V22.5146ZM42.25 33.7481C42.0006 33.7481 41.7615 33.8471 41.5852 34.0234C41.4089 34.1997 41.3099 34.4389 41.3099 34.6882C41.3099 34.9375 41.4089 35.1767 41.5852 35.353C41.7615 35.5293 42.0006 35.6283 42.25 35.6283H44.1303C44.3796 35.6283 44.6187 35.5293 44.795 35.353C44.9713 35.1767 45.0704 34.9375 45.0704 34.6882C45.0704 34.4389 44.9713 34.1997 44.795 34.0234C44.6187 33.8471 44.3796 33.7481 44.1303 33.7481H42.25ZM42.25 37.4845C42.0006 37.4845 41.7615 37.5836 41.5852 37.7599C41.4089 37.9362 41.3099 38.1753 41.3099 38.4247C41.3099 38.674 41.4089 38.9131 41.5852 39.0894C41.7615 39.2657 42.0006 39.3648 42.25 39.3648H44.1303C44.3796 39.3648 44.6187 39.2657 44.795 39.0894C44.9713 38.9131 45.0704 38.674 45.0704 38.4247C45.0704 38.1753 44.9713 37.9362 44.795 37.7599C44.6187 37.5836 44.3796 37.4845 44.1303 37.4845H42.25ZM42.25 41.221C42.0006 41.221 41.7615 41.32 41.5852 41.4963C41.4089 41.6726 41.3099 41.9118 41.3099 42.1611C41.3099 42.4104 41.4089 42.6496 41.5852 42.8259C41.7615 43.0022 42.0006 43.1012 42.25 43.1012H44.1303C44.3796 43.1012 44.6187 43.0022 44.795 42.8259C44.9713 42.6496 45.0704 42.4104 45.0704 42.1611C45.0704 41.9118 44.9713 41.6726 44.795 41.4963C44.6187 41.32 44.3796 41.221 44.1303 41.221H42.25Z" fill="#57A2D4"/>
<path d="M42.2495 14.1381V13.1257L43.1896 12.1855L44.1298 13.1257V14.1381C46.7332 14.6203 48.3001 17.0791 48.8064 21.5628H37.5488C38.0631 17.0791 39.63 14.6042 42.2495 14.1381Z" fill="#57A2D4"/>
<path d="M19.7474 47.8145H66.6337L63.7651 51.5509H22.604L19.7354 47.8145H19.7474Z" fill="#57A2D4"/>
<path d="M22.5674 52.5029H26.3038V74.0779H22.5674V52.5029ZM60.0523 52.5029H63.7888V74.0779H60.0523V52.5029Z" fill="#57A2D4"/>
<path d="M28.1846 52.5029H30.0648V74.0779H28.1846V52.5029Z" fill="#57A2D4"/>
<path d="M31.9326 52.5029H33.8129V74.0779H31.9326V52.5029Z" fill="#57A2D4"/>
<path d="M35.6934 52.5029H37.5736V74.0779H35.6934V52.5029ZM48.8071 52.5029H50.6873V74.0779H48.8071V52.5029Z" fill="#57A2D4"/>
<path d="M52.5674 52.5029H54.4477V74.0779H52.5674V52.5029Z" fill="#57A2D4"/>
<path d="M56.3164 52.5029H58.1967V74.0779H56.3164V52.5029Z" fill="#57A2D4"/>
<path d="M41.3105 63.7607H45.047V74.0781H41.3105V63.7607ZM41.3105 54.3594H45.047V55.5647H41.3105V54.3594Z" fill="#57A2D4"/>
<path fill-rule="evenodd" clip-rule="evenodd" d="M41.3108 76.874H45.0472V78.0793H41.3108V76.874ZM46.9395 76.874H50.688V78.0793H46.9516L46.9395 76.874ZM52.5683 76.874H56.3047V78.0793H52.5683V76.874ZM58.185 76.874H61.9215V78.0793H58.185V76.874ZM24.4365 76.874H28.173V78.0793H24.4365V76.874ZM30.0653 76.874H33.8138V78.0793H30.0773L30.0653 76.874ZM35.6941 76.874H39.4305V78.0793H35.6941V76.874Z" fill="#57A2D4"/>
<path d="M21.64 81.5622V89.0592H64.7658V81.5622H21.64ZM20.6999 80.6221H65.6939V89.9993H20.6758L20.6999 80.6221Z" fill="#57A2D4"/>
<path d="M41.3105 58.1201H45.047V60.0004H41.3105V58.1201Z" fill="#57A2D4"/>
</g>
<mask id="mask1_784_10111" style="mask-type:luminance" maskUnits="userSpaceOnUse" x="0" y="0" width="85" height="85">
<path d="M42.2501 84.3712C65.5485 84.3712 84.4357 65.4841 84.4357 42.1856C84.4357 18.8871 65.5485 0 42.2501 0C18.9516 0 0.0644531 18.8871 0.0644531 42.1856C0.0644531 65.4841 18.9516 84.3712 42.2501 84.3712Z" fill="white"/>
</mask>
<g mask="url(#mask1_784_10111)">
<path d="M72.1541 21.6111C72.5654 21.559 72.983 21.5921 73.3811 21.7081C73.7791 21.8242 74.149 22.0209 74.4678 22.2859C74.7867 22.5509 75.0476 22.8786 75.2345 23.2487C75.4214 23.6188 75.5303 24.0234 75.5543 24.4373C75.5783 24.8512 75.5169 25.2656 75.3741 25.6548C75.2312 26.0441 75.0099 26.3998 74.7239 26.6999C74.4378 27 74.0931 27.2381 73.7112 27.3994C73.3292 27.5607 72.9182 27.6418 72.5036 27.6376C72.3874 27.6497 72.2703 27.6497 72.1541 27.6376H63.3674C62.8225 27.527 62.3326 27.2313 61.9807 26.8008C61.6288 26.3702 61.4365 25.8313 61.4365 25.2752C61.4365 24.7192 61.6288 24.1802 61.9807 23.7497C62.3326 23.3191 62.8225 23.0235 63.3674 22.9128H63.5362C63.4697 22.434 63.4982 21.9468 63.62 21.479C63.7418 21.0112 63.9546 20.572 64.2461 20.1864C64.5377 19.8008 64.9023 19.4765 65.3192 19.2318C65.7362 18.9872 66.1972 18.827 66.676 18.7606C67.1548 18.6941 67.642 18.7226 68.1098 18.8444C68.5776 18.9662 69.0168 19.1789 69.4024 19.4705C69.788 19.7621 70.1123 20.1267 70.357 20.5436C70.6016 20.9605 70.7618 21.4216 70.8283 21.9004C71.24 21.6948 71.6939 21.5876 72.1541 21.587V21.6111Z" fill="white"/>
</g>
<mask id="mask2_784_10111" style="mask-type:luminance" maskUnits="userSpaceOnUse" x="0" y="0" width="85" height="85">
<path d="M42.2501 84.3712C65.5485 84.3712 84.4357 65.4841 84.4357 42.1856C84.4357 18.8871 65.5485 0 42.2501 0C18.9516 0 0.0644531 18.8871 0.0644531 42.1856C0.0644531 65.4841 18.9516 84.3712 42.2501 84.3712Z" fill="white"/>
</mask>
<g mask="url(#mask2_784_10111)">
<path d="M23.9777 14.934C24.4828 14.9084 24.9774 15.0845 25.3526 15.4236C25.7278 15.7626 25.953 16.2369 25.9785 16.7419C26.0041 17.247 25.828 17.7416 25.4889 18.1168C25.1499 18.492 24.6757 18.7172 24.1706 18.7427H18.4333C18.2266 18.7614 18.0183 18.7367 17.8216 18.6704C17.6249 18.604 17.4442 18.4974 17.291 18.3574C17.1377 18.2174 17.0154 18.0469 16.9316 17.857C16.8479 17.6671 16.8047 17.4618 16.8047 17.2542C16.8047 17.0466 16.8479 16.8413 16.9316 16.6514C17.0154 16.4614 17.1377 16.291 17.291 16.151C17.4442 16.0109 17.6249 15.9044 17.8216 15.838C18.0183 15.7717 18.2266 15.747 18.4333 15.7656H18.5298C18.4724 15.1684 18.648 14.572 19.0199 14.1011C19.3918 13.6303 19.9313 13.3213 20.5256 13.2389C21.12 13.1564 21.7232 13.3068 22.2093 13.6586C22.6953 14.0104 23.0267 14.5365 23.134 15.1268C23.3964 14.9978 23.6853 14.9318 23.9777 14.934Z" fill="white"/>
</g>
</g>
<defs>
<linearGradient id="paint0_linear_784_10111" x1="42.4911" y1="0.241061" x2="42.4911" y2="81.2374" gradientUnits="userSpaceOnUse">
<stop stop-color="#EAF7FF"/>
<stop offset="1" stop-color="white"/>
</linearGradient>
<linearGradient id="paint1_linear_784_10111" x1="42.4911" y1="0.241061" x2="42.4911" y2="84.6123" gradientUnits="userSpaceOnUse">
<stop stop-color="#EAF7FF" stop-opacity="0.5"/>
<stop offset="1" stop-color="white" stop-opacity="0.46"/>
</linearGradient>
<clipPath id="clip0_784_10111">
<rect width="84.3712" height="90" fill="white" transform="translate(0.0644531)"/>
</clipPath>
</defs>
</svg>
