<svg width="526" height="229" viewBox="0 0 526 229" fill="none" xmlns="http://www.w3.org/2000/svg">
<path fill-rule="evenodd" clip-rule="evenodd" d="M185.078 92.5742C185.911 70.4462 205.484 57.8492 243.796 54.7842C301.266 50.1882 299.183 12.0132 337.496 2.46217C375.808 -7.08883 444.105 13.6742 452.017 61.0142C459.929 108.354 517.398 162.337 452.017 168.982C386.636 175.626 369.562 198.465 322.087 191.821C274.613 185.177 202.985 183.931 191.325 148.634C183.551 125.102 181.469 106.416 185.078 92.5742Z" fill="url(#paint0_linear_895_22124)"/>
<path d="M431 100.19C435.971 100.19 440 96.161 440 91.1904C440 86.2199 435.971 82.1904 431 82.1904C426.029 82.1904 422 86.2199 422 91.1904C422 96.161 426.029 100.19 431 100.19Z" fill="url(#paint1_linear_895_22124)"/>
<path fill-rule="evenodd" clip-rule="evenodd" d="M259.924 121.19H334C333.314 119.27 330.785 117.26 326.413 115.164C326.413 110.945 322.759 107.931 319.714 107.04C317.498 106.39 315.034 106.39 312.324 107.04C307.507 102.41 302.49 102.708 297.274 107.931C295.354 100.096 292.31 98.8911 288.656 97.6851C285.002 96.4791 275.295 96.7491 269.946 107.04C260.529 107.389 257.188 112.106 259.924 121.19ZM222.542 99.1901H266C265.598 98.0701 264.114 96.8981 261.549 95.6751C261.549 93.2141 259.405 91.4551 257.619 90.9351C256.319 90.5571 254.874 90.5571 253.283 90.9351C250.457 88.2351 247.514 88.4091 244.454 91.4551C243.328 86.8851 241.542 86.1821 239.398 85.4791C237.255 84.7761 231.559 84.9331 228.422 90.9361C222.897 91.1391 220.937 93.8901 222.542 99.1901Z" fill="#EAF6FE"/>
<path fill-rule="evenodd" clip-rule="evenodd" d="M450.17 60.8281C455.515 62.7151 458.188 64.7581 458.188 66.9601C458.502 65.3871 461.804 63.8151 468.092 62.2431C461.804 65.7021 458.345 68.0601 457.716 69.3181C456.773 66.1731 454.258 63.3441 450.17 60.8281ZM469.574 66.8921C473.392 68.2401 475.301 69.6991 475.301 71.2721C475.526 70.1491 477.884 69.0261 482.376 67.9021C477.884 70.3731 475.414 72.0581 474.965 72.9561C474.291 70.7101 472.495 68.6891 469.575 66.8921H469.574Z" fill="#967146"/>
<path fill-rule="evenodd" clip-rule="evenodd" d="M525.627 226.977V201.984H481.268V182.454H472.64V145.464H459.238L450.582 128.626L442.2 145.19H432.66V134.282H421.76V121.467H402.255V182.908H389.05V172.886H377.31V182.444H354.081V154.289H344.081V149.071H341.35L339.986 139.983L338.624 149.071H336.369V153.718H327.271V180.435H318.643V170.583H307.278V204.263H293.723V226.977H525.627ZM417.669 125.187V129.73H413.126V125.186L417.669 125.187ZM410.4 125.187V129.73H405.857V125.186L410.4 125.187ZM417.669 132.457V137.001H413.126V132.457H417.669ZM410.4 132.457V137.001H405.857V132.457H410.4ZM467.64 152.452V156.996H463.097V152.452H467.64ZM460.371 152.452V156.996H455.828V152.452H460.371ZM467.64 159.722V164.267H463.097V159.722H467.64ZM460.371 159.722V164.267H455.828V159.722H460.371ZM452.194 152.452V156.996H447.651V152.452H452.194ZM444.926 152.452V156.996H440.383V152.452H444.926ZM452.194 159.722V164.267H447.651V159.722H452.194ZM444.926 159.722V164.267H440.383V159.722H444.926ZM436.749 152.452V156.996H432.206V152.452H436.749ZM436.749 159.722V164.267H432.206V159.722H436.749Z" fill="url(#paint2_linear_895_22124)"/>
<path fill-rule="evenodd" clip-rule="evenodd" d="M446.841 223.863C451.201 224.037 453.555 223.165 453.904 221.247C454.427 218.371 451.124 215.494 450.764 214.447C450.405 213.401 451.288 212.094 452.596 210.524C453.904 208.955 455.735 206.34 452.596 203.986C449.457 201.632 452.857 198.756 450.765 196.924C448.672 195.094 443.703 191.432 442.656 193.786C441.61 196.14 443.441 198.232 443.964 200.324C444.487 202.417 441.872 203.201 441.087 204.771C440.302 206.34 439.779 207.647 441.872 210.001C443.964 212.355 439.256 214.447 439.256 216.541C439.256 218.633 442.182 221.771 444.487 222.818C446.024 223.515 446.809 223.864 446.841 223.864V223.863Z" fill="url(#paint3_linear_895_22124)"/>
<path fill-rule="evenodd" clip-rule="evenodd" d="M446.892 228.191C446.226 225.127 445.644 222.829 445.145 221.297C444.395 218.998 443.647 217.211 445.145 214.402C445.417 213.892 445.689 213.238 445.948 212.492C445.989 212.374 444.239 210.184 444.28 210.061C444.328 209.914 446.167 211.831 446.214 211.678C447.242 208.345 447.956 203.754 447.391 201.634C447.757 202.85 447.766 204.647 447.591 206.526C447.581 206.64 448.391 206.456 450.021 205.976C448.348 206.85 447.506 207.328 447.496 207.409C447.137 210.387 446.391 213.371 445.936 214.402C445.35 215.726 445.106 216.77 445.409 218.779C445.429 218.915 448.499 217.577 448.524 217.722C448.544 217.842 445.521 219.442 445.546 219.569C445.646 220.083 445.775 220.654 445.936 221.297C446.573 223.85 447.059 226.148 447.391 228.191H446.892Z" fill="#D7DBE4"/>
<path fill-rule="evenodd" clip-rule="evenodd" d="M474.55 220.852C480.198 221.078 483.247 219.949 483.7 217.464C484.377 213.736 480.099 210.009 479.633 208.654C479.167 207.298 480.311 205.604 482.005 203.57C483.699 201.537 486.071 198.148 482.005 195.099C477.939 192.049 482.344 188.321 479.633 185.949C476.922 183.577 470.483 178.833 469.128 181.883C467.773 184.933 470.145 187.643 470.823 190.355C471.501 193.065 468.113 194.082 467.096 196.115C466.079 198.148 465.402 199.843 468.113 202.893C470.822 205.942 464.723 208.652 464.723 211.364C464.723 214.074 468.513 218.141 471.5 219.497C473.491 220.4 474.508 220.852 474.55 220.852Z" fill="url(#paint4_linear_895_22124)"/>
<path fill-rule="evenodd" clip-rule="evenodd" d="M475.045 226.977C474.141 222.911 473.351 219.861 472.673 217.827C471.656 214.778 470.64 212.407 472.673 208.679C473.043 208.001 473.412 207.134 473.763 206.145C473.819 205.987 471.444 203.082 471.499 202.918C471.565 202.722 474.061 205.267 474.125 205.064C475.52 200.641 476.49 194.548 475.723 191.736C476.219 193.349 476.231 195.734 475.993 198.226C475.979 198.378 477.079 198.135 479.293 197.496C477.021 198.656 475.879 199.291 475.865 199.399C475.378 203.351 474.365 207.311 473.746 208.679C472.951 210.436 472.621 211.821 473.032 214.488C473.059 214.667 477.225 212.892 477.26 213.084C477.289 213.244 473.184 215.367 473.218 215.535C473.353 216.217 473.528 216.975 473.746 217.828C474.612 221.216 475.271 224.266 475.723 226.978L475.045 226.977Z" fill="#53B973"/>
<path fill-rule="evenodd" clip-rule="evenodd" d="M41 226.148L151.002 227.783L100.175 193.943C99.3871 193.419 98.4666 193.129 97.5205 193.107C96.5743 193.085 95.6413 193.332 94.83 193.819L41 226.148Z" fill="url(#paint5_linear_895_22124)"/>
<path fill-rule="evenodd" clip-rule="evenodd" d="M6.255 223.141C9.849 223.285 11.79 222.566 12.078 220.984C12.509 218.612 9.786 216.24 9.49 215.377C9.193 214.515 9.921 213.437 11 212.143C12.078 210.849 13.588 208.693 11 206.751C8.411 204.811 11.215 202.438 9.49 200.929C7.764 199.419 3.667 196.399 2.804 198.34C1.941 200.28 3.451 202.006 3.882 203.731C4.314 205.456 2.157 206.103 1.51 207.397C0.863 208.691 0.431 209.769 2.157 211.71C3.882 213.652 0 215.377 0 217.103C0 218.828 2.413 221.416 4.314 222.278C5.581 222.853 6.229 223.141 6.255 223.141Z" fill="url(#paint6_linear_895_22124)"/>
<path fill-rule="evenodd" clip-rule="evenodd" d="M6.29714 226.71C5.74814 224.183 5.26814 222.288 4.85714 221.025C4.23914 219.13 3.62114 217.656 4.85714 215.34C5.08114 214.919 5.30514 214.38 5.51914 213.766C5.55314 213.667 4.11014 211.862 4.14314 211.76C4.18314 211.639 5.69914 213.22 5.73814 213.094C6.58614 210.346 7.17514 206.56 6.70814 204.812C7.01014 205.814 7.01814 207.297 6.87314 208.845C6.86514 208.94 7.53314 208.788 8.87814 208.392C7.49814 209.112 6.80414 209.507 6.79514 209.574C6.50014 212.03 5.88514 214.49 5.50814 215.34C5.02514 216.432 4.82514 217.293 5.07414 218.95C5.09114 219.06 7.62214 217.958 7.64314 218.077C7.66014 218.177 5.16714 219.496 5.18714 219.6C5.27014 220.024 5.37614 220.495 5.50814 221.025C6.03414 223.131 6.43414 225.025 6.70814 226.71H6.29714Z" fill="#D7DBE4"/>
<path fill-rule="evenodd" clip-rule="evenodd" d="M135 226.955H204.73L172.385 205.967C171.571 205.439 170.62 205.159 169.649 205.162C168.678 205.165 167.729 205.45 166.918 205.983L135 226.955Z" fill="url(#paint7_linear_895_22124)"/>
<defs>
<linearGradient id="paint0_linear_895_22124" x1="15161" y1="0.19043" x2="15161" y2="19283.1" gradientUnits="userSpaceOnUse">
<stop stop-color="white" stop-opacity="0.5"/>
<stop offset="1" stop-color="white"/>
</linearGradient>
<linearGradient id="paint1_linear_895_22124" x1="422" y1="82.1904" x2="2222" y2="1882.19" gradientUnits="userSpaceOnUse">
<stop stop-color="#FDD339"/>
<stop offset="1" stop-color="#FCA222"/>
</linearGradient>
<linearGradient id="paint2_linear_895_22124" x1="-11069.6" y1="121.467" x2="-11069.6" y2="10233.1" gradientUnits="userSpaceOnUse">
<stop stop-color="#EAF7FF"/>
<stop offset="1" stop-color="white"/>
</linearGradient>
<linearGradient id="paint3_linear_895_22124" x1="1192.92" y1="193.021" x2="1192.92" y2="3279.39" gradientUnits="userSpaceOnUse">
<stop stop-color="#DBE5F8"/>
<stop offset="1" stop-color="#EDF3FB"/>
</linearGradient>
<linearGradient id="paint4_linear_895_22124" x1="1441.07" y1="180.892" x2="1441.07" y2="4179.75" gradientUnits="userSpaceOnUse">
<stop stop-color="#78D695"/>
<stop offset="1" stop-color="#A6F693"/>
</linearGradient>
<linearGradient id="paint5_linear_895_22124" x1="5541.1" y1="193.105" x2="5541.1" y2="3516.48" gradientUnits="userSpaceOnUse">
<stop stop-color="#EAF7FF"/>
<stop offset="1" stop-color="white"/>
</linearGradient>
<linearGradient id="paint6_linear_895_22124" x1="621.444" y1="197.709" x2="621.444" y2="2742.68" gradientUnits="userSpaceOnUse">
<stop stop-color="#DBE5F8"/>
<stop offset="1" stop-color="#EDF3FB"/>
</linearGradient>
<linearGradient id="paint7_linear_895_22124" x1="3621.5" y1="205.162" x2="3621.5" y2="2293.75" gradientUnits="userSpaceOnUse">
<stop stop-color="#EAF7FF"/>
<stop offset="1" stop-color="white"/>
</linearGradient>
</defs>
</svg>
