<svg width="91" height="90" viewBox="0 0 91 90" fill="none" xmlns="http://www.w3.org/2000/svg">
<g clip-path="url(#clip0_784_10159)">
<path d="M45.2497 89.9213C70.0808 89.9213 90.2104 69.7917 90.2104 44.9607C90.2104 20.1296 70.0808 0 45.2497 0C20.4186 0 0.289062 20.1296 0.289062 44.9607C0.289062 69.7917 20.4186 89.9213 45.2497 89.9213Z" fill="url(#paint0_linear_784_10159)"/>
<path d="M77.1275 23.0419C77.5536 23.0117 77.9816 23.0664 78.3864 23.2029C78.7912 23.3394 79.1649 23.555 79.4858 23.8371C79.8066 24.1192 80.0683 24.4622 80.2554 24.8463C80.4426 25.2303 80.5517 25.6477 80.5763 26.0742C80.6008 26.5008 80.5404 26.9279 80.3985 27.3309C80.2567 27.7339 80.0362 28.1047 79.7498 28.4218C79.4635 28.7389 79.117 28.9959 78.7305 29.178C78.344 29.3601 77.9252 29.4636 77.4984 29.4825H67.7307C67.0629 29.4825 66.4225 29.2172 65.9503 28.745C65.4782 28.2729 65.2129 27.6325 65.2129 26.9647C65.2129 26.2969 65.4782 25.6565 65.9503 25.1843C66.4225 24.7122 67.0629 24.4469 67.7307 24.4469H67.9105C67.8367 23.9369 67.8641 23.4174 67.9911 22.918C68.1181 22.4186 68.3422 21.9491 68.6506 21.5363C68.959 21.1235 69.3457 20.7754 69.7886 20.5121C70.2316 20.2487 70.722 20.0752 71.232 20.0014C72.262 19.8524 73.3089 20.1186 74.1426 20.7415C74.9763 21.3643 75.5284 22.2929 75.6775 23.3229C76.1194 23.0989 76.6096 22.987 77.105 22.9969L77.1275 23.0419Z" fill="white"/>
<path d="M25.7706 15.9164C26.2938 15.9103 26.7993 16.106 27.1819 16.4628C27.5646 16.8197 27.7951 17.3102 27.8255 17.8326C27.8559 18.3549 27.6838 18.8689 27.3451 19.2677C27.0064 19.6665 26.5271 19.9195 26.0067 19.9741C25.9284 19.9853 25.8489 19.9853 25.7706 19.9741H19.8583C19.438 19.9741 19.0349 19.8071 18.7376 19.5099C18.4404 19.2127 18.2734 18.8096 18.2734 18.3892C18.2734 17.9689 18.4404 17.5658 18.7376 17.2686C19.0349 16.9713 19.438 16.8044 19.8583 16.8044H19.9707C19.8798 16.1545 20.0507 15.4951 20.446 14.9713C20.8412 14.4475 21.4284 14.1021 22.0782 14.0112C22.7281 13.9203 23.3875 14.0912 23.9113 14.4865C24.4351 14.8817 24.7805 15.4688 24.8714 16.1187C25.1521 15.9845 25.4595 15.9153 25.7706 15.9164Z" fill="white"/>
<path d="M10.2926 51.4462C18.2731 51.7047 19.2847 54.3574 19.6894 54.9981V59.4942H18.1382V58.2802H17.4638V59.5728H15.8902V58.2802H15.2158V59.5728H12.2821V58.2802H11.6077V59.5728H9.12361V58.2802H8.4492V59.5728H6.20117V58.2802H5.52676V59.5728H4.1667V58.2802H2.36827C1.85209 56.6692 1.43172 55.029 1.10938 53.3683C2.46943 52.3005 4.78491 51.7047 10.2926 51.4462ZM41.2817 27.2012H47.8235L47.7223 27.3248C47.7223 27.3248 53.4323 32.3829 53.8258 46.568H35.2795C35.6616 32.4391 41.3154 27.3698 41.3716 27.3248L41.2817 27.2012ZM49.532 27.6395C53.1787 28.7173 56.3899 30.9233 58.7044 33.9405C61.0188 36.9577 62.3172 40.6309 62.4132 44.4323V44.6459L64.6613 46.568H54.9498C54.6575 35.5526 51.2967 29.8763 49.532 27.6395ZM34.1555 46.568H25.2308L26.2311 44.5335C26.2311 43.9715 27.018 31.0453 39.6519 27.5271C37.9209 29.674 34.4477 35.3391 34.1555 46.568ZM79.9029 51.4462C85.4106 51.7047 88.097 52.3117 89.4908 52.9974C89.1595 54.7849 88.7279 56.5524 88.1982 58.2915H87.1528V59.5728H84.6688V58.2802H83.9944V59.5728H81.7463V58.2802H81.0719V59.5728H78.5991V58.2802H77.9247V59.5728H74.9797V58.2802H74.3053V59.5728H72.7317V58.2802H72.0573V59.5728H70.5062V55.0768C70.8658 54.3574 71.9224 51.7047 79.9029 51.4462Z" fill="#57A2D4"/>
<path d="M13.7763 50.581H8.15625V48.333H13.7763V50.581Z" fill="#57A2D4"/>
<path d="M19.5762 60.6967H19.9359L69.9771 60.4381V60.3707L87.5792 60.2695C87.1971 61.2587 86.8711 62.2253 86.4552 63.1807H4.13223C3.73882 62.3602 3.44658 61.5172 3.10938 60.6629L19.5762 60.6967Z" fill="#57A2D4"/>
<path fill-rule="evenodd" clip-rule="evenodd" d="M21.4766 49.5919L22.6006 48.333L66.4373 48.5578L67.9884 49.7942L67.7636 50.0752V59.8991L52.4882 59.9891V55.2569C52.4095 55.0771 50.5999 51.3566 44.3166 50.952V49.6706H39.8206V50.952C33.3687 51.2779 31.5141 55.0883 31.4354 55.2682V60.1127L22.1285 60.1689V49.9628L21.4766 49.5919ZM11.9337 75.152V66.6657H5.90898C5.59425 66.1037 5.29077 65.5417 5.00977 64.946H85.5343C84.5635 66.9071 83.4358 68.7865 82.1623 70.5661V66.6657H74.2267V76.6807H77.1154C68.5921 85.039 57.1857 89.8068 45.2496 90.0003C32.5257 90.0003 19.9479 83.8182 11.9337 75.152ZM40.7535 66.958V77.0741H48.6216V66.958H40.7535Z" fill="#57A2D4"/>
<path d="M47.4303 26.0773H41.5742V23.6719H47.4303V26.0773Z" fill="#57A2D4"/>
<path d="M41.8772 51.4465H42.0009C48.8349 50.9969 50.993 54.3577 51.3977 54.9984V59.3596L32.4805 59.472V54.9759C32.8851 54.3577 35.1331 51.0081 41.8772 51.4465Z" fill="#57A2D4"/>
<path d="M76.418 50.581H82.0381V48.333H76.418V50.581Z" fill="#57A2D4"/>
</g>
<defs>
<linearGradient id="paint0_linear_784_10159" x1="45.4745" y1="0.224803" x2="45.4745" y2="86.5493" gradientUnits="userSpaceOnUse">
<stop stop-color="#EAF7FF"/>
<stop offset="1" stop-color="white"/>
</linearGradient>
<clipPath id="clip0_784_10159">
<rect width="89.9213" height="90" fill="white" transform="translate(0.289062)"/>
</clipPath>
</defs>
</svg>
