<svg width="86" height="88" viewBox="0 0 86 88" fill="none" xmlns="http://www.w3.org/2000/svg">
<g clip-path="url(#clip0_781_31199)">
<path d="M43.0001 84.4183C66.3116 84.4183 85.2093 65.5206 85.2093 42.2091C85.2093 18.8977 66.3116 0 43.0001 0C19.6887 0 0.791016 18.8977 0.791016 42.2091C0.791016 65.5206 19.6887 84.4183 43.0001 84.4183Z" fill="url(#paint0_linear_781_31199)"/>
<path d="M43.0001 84.4183C66.3116 84.4183 85.2093 65.5206 85.2093 42.2091C85.2093 18.8977 66.3116 0 43.0001 0C19.6887 0 0.791016 18.8977 0.791016 42.2091C0.791016 65.5206 19.6887 84.4183 43.0001 84.4183Z" fill="url(#paint1_linear_781_31199)"/>
<mask id="mask0_781_31199" style="mask-type:luminance" maskUnits="userSpaceOnUse" x="0" y="0" width="86" height="85">
<path d="M43.0001 84.4183C66.3116 84.4183 85.2093 65.5206 85.2093 42.2091C85.2093 18.8977 66.3116 0 43.0001 0C19.6887 0 0.791016 18.8977 0.791016 42.2091C0.791016 65.5206 19.6887 84.4183 43.0001 84.4183Z" fill="white"/>
</mask>
<g mask="url(#mask0_781_31199)">
<path d="M14.8652 56.5844C32.2152 41.1479 50.9721 35.0859 71.136 38.3983L64.4187 45.0071C70.0466 47.21 70.8908 49.4129 66.9513 51.6158C69.1944 51.6158 70.0265 53.268 69.4838 56.5844V88.0363H14.8652V56.5844Z" fill="#57A2D4"/>
<path d="M14.8656 72.3588C33.3532 61.9874 49.5615 55.4752 70.2078 56.3676V75.0361C62.6945 81.6087 40.179 94.7417 14.8535 74.0954L14.8656 72.3588Z" fill="#91C5E6"/>
<path d="M30.8198 66.4854C30.9797 66.4854 31.1331 66.5489 31.2462 66.662C31.3592 66.775 31.4228 66.9284 31.4228 67.0883V69.1988C31.4197 69.3578 31.3552 69.5093 31.2427 69.6218C31.1303 69.7342 30.9787 69.7987 30.8198 69.8018C30.6599 69.8018 30.5065 69.7383 30.3934 69.6252C30.2803 69.5121 30.2168 69.3587 30.2168 69.1988V67.0883C30.2168 66.9284 30.2803 66.775 30.3934 66.662C30.5065 66.5489 30.6599 66.4854 30.8198 66.4854ZM32.4599 66.4854H32.9061C33.066 66.4854 33.2194 66.5489 33.3325 66.662C33.4456 66.775 33.5091 66.9284 33.5091 67.0883V69.1988C33.5091 69.3587 33.4456 69.5121 33.3325 69.6252C33.2194 69.7383 33.066 69.8018 32.9061 69.8018H32.4599C32.3 69.8018 32.1466 69.7383 32.0335 69.6252C31.9205 69.5121 31.8569 69.3587 31.8569 69.1988V67.0883C31.8569 66.9284 31.9205 66.775 32.0335 66.662C32.1466 66.5489 32.3 66.4854 32.4599 66.4854ZM45.9186 66.4854C46.3579 66.4853 46.7794 66.659 47.0912 66.9685C47.4029 67.278 47.5797 67.6982 47.5828 68.1375C47.5828 68.3561 47.5398 68.5725 47.4562 68.7744C47.3725 68.9763 47.2499 69.1598 47.0954 69.3143C46.9409 69.4689 46.7574 69.5915 46.5555 69.6751C46.3536 69.7587 46.1371 69.8018 45.9186 69.8018C45.4793 69.7986 45.0591 69.6219 44.7496 69.3101C44.4401 68.9983 44.2664 68.5768 44.2664 68.1375C44.2696 67.7003 44.4446 67.2819 44.7538 66.9728C45.063 66.6636 45.4814 66.4885 45.9186 66.4854ZM62.4766 66.4854C62.9164 66.4854 63.3382 66.6601 63.6492 66.971C63.9601 67.282 64.1348 67.7038 64.1348 68.1436C64.1348 68.5834 63.9601 69.0051 63.6492 69.3161C63.3382 69.6271 62.9164 69.8018 62.4766 69.8018C62.0368 69.8018 61.6151 69.6271 61.3041 69.3161C60.9931 69.0051 60.8184 68.5834 60.8184 68.1436C60.8184 67.7038 60.9931 67.282 61.3041 66.971C61.6151 66.6601 62.0368 66.4854 62.4766 66.4854Z" fill="white"/>
<path d="M25.6103 77.8462C25.6103 77.5131 25.3403 77.2432 25.0073 77.2432C24.6743 77.2432 24.4043 77.5131 24.4043 77.8462V78.2924C24.4043 78.6254 24.6743 78.8953 25.0073 78.8953C25.3403 78.8953 25.6103 78.6254 25.6103 78.2924V77.8462Z" fill="white"/>
<path d="M26.6596 77.2432H27.1179C27.2769 77.2463 27.4284 77.3108 27.5409 77.4232C27.6533 77.5356 27.7178 77.6872 27.7209 77.8462V78.2924C27.7209 78.4523 27.6574 78.6057 27.5443 78.7187C27.4312 78.8318 27.2778 78.8953 27.1179 78.8953H26.6596C26.4997 78.8953 26.3463 78.8318 26.2333 78.7187C26.1202 78.6057 26.0566 78.4523 26.0566 78.2924V77.8462C26.0597 77.6872 26.1242 77.5356 26.2367 77.4232C26.3491 77.3108 26.5007 77.2463 26.6596 77.2432ZM39.0812 77.2432H41.1796C41.3395 77.2432 41.4929 77.3067 41.6059 77.4198C41.719 77.5329 41.7826 77.6862 41.7826 77.8462V78.2924C41.7826 78.4523 41.719 78.6057 41.6059 78.7187C41.4929 78.8318 41.3395 78.8953 41.1796 78.8953H39.0812C38.9212 78.8953 38.7679 78.8318 38.6548 78.7187C38.5417 78.6057 38.4782 78.4523 38.4782 78.2924V77.8462C38.4782 77.6862 38.5417 77.5329 38.6548 77.4198C38.7679 77.3067 38.9212 77.2432 39.0812 77.2432ZM55.8442 77.2432H57.4723C57.693 77.2432 57.9046 77.3308 58.0607 77.4869C58.2167 77.6429 58.3044 77.8546 58.3044 78.0753C58.3044 78.184 58.2828 78.2916 58.2409 78.3919C58.1989 78.4922 58.1374 78.5832 58.06 78.6595C57.9825 78.7358 57.8907 78.7959 57.7898 78.8364C57.6889 78.8769 57.581 78.8969 57.4723 78.8953H55.8563C55.7476 78.8969 55.6396 78.8769 55.5388 78.8364C55.4379 78.7959 55.346 78.7358 55.2686 78.6595C55.1912 78.5832 55.1297 78.4922 55.0877 78.3919C55.0458 78.2916 55.0242 78.184 55.0242 78.0753C55.0242 77.8546 55.1118 77.6429 55.2679 77.4869C55.4239 77.3308 55.6356 77.2432 55.8563 77.2432H55.8442Z" fill="white"/>
<path fill-rule="evenodd" clip-rule="evenodd" d="M66.9998 23.4443L68.652 25.9286V38.3502H65.3477V25.9286L66.9998 23.4443Z" fill="#CEECFF"/>
<path d="M22.3066 64.833V56.5601C23.6335 55.6483 25.0149 54.8186 26.4431 54.0757C26.4431 54.6225 25.0643 58.2082 22.3066 64.833ZM31.4238 61.5046V52.4115C32.7515 51.5048 34.1329 50.6792 35.5603 49.9393C35.5603 50.4819 34.1855 54.3531 31.4238 61.5166V61.5046ZM41.361 59.0926V48.2388C42.6028 47.393 44.0147 46.829 45.4975 46.5866C45.4975 47.1655 44.1187 51.3342 41.361 59.0926ZM51.2862 56.6204V44.1385C51.841 43.0531 53.2158 42.4863 55.4227 42.4863C55.4227 43.0491 54.0439 47.7404 51.2862 56.5601V56.6204Z" fill="white"/>
<path fill-rule="evenodd" clip-rule="evenodd" d="M14.8652 54.0763C29.2003 38.6398 45.4809 31.7417 63.7072 33.3818V35.8661C48.8014 34.2099 32.5207 40.28 14.8652 54.0763Z" fill="#CEECFF"/>
</g>
<mask id="mask1_781_31199" style="mask-type:luminance" maskUnits="userSpaceOnUse" x="0" y="0" width="86" height="85">
<path d="M43.0001 84.4183C66.3116 84.4183 85.2093 65.5206 85.2093 42.2091C85.2093 18.8977 66.3116 0 43.0001 0C19.6887 0 0.791016 18.8977 0.791016 42.2091C0.791016 65.5206 19.6887 84.4183 43.0001 84.4183Z" fill="white"/>
</mask>
<g mask="url(#mask1_781_31199)">
<path d="M51.3571 11.312C52.1243 11.3197 52.8599 11.6185 53.4153 12.1478C53.9706 12.6772 54.3042 13.3977 54.3486 14.1636C54.3931 14.9295 54.145 15.6838 53.6546 16.2738C53.1642 16.8638 52.468 17.2456 51.7069 17.3419H42.5415C41.9896 17.2373 41.4915 16.9433 41.1332 16.5107C40.7748 16.078 40.5788 15.5339 40.5788 14.9722C40.5788 14.4104 40.7748 13.8663 41.1332 13.4337C41.4915 13.001 41.9896 12.7071 42.5415 12.6024H42.7103C42.6901 11.7013 43.0015 10.8241 43.5854 10.1374C44.1693 9.4507 44.985 9.0023 45.8776 8.87733C46.7703 8.75236 47.6778 8.95951 48.4278 9.45947C49.1778 9.95942 49.7181 10.7174 49.9462 11.5894C50.3628 11.3861 50.8212 11.2829 51.2848 11.2879L51.3571 11.312ZM19.0853 36.5169C19.3389 36.4965 19.5941 36.5269 19.8358 36.6065C20.0775 36.6861 20.3009 36.8133 20.4928 36.9804C20.6846 37.1476 20.8411 37.3515 20.9531 37.58C21.065 37.8085 21.1302 38.0572 21.1446 38.3112C21.1591 38.5653 21.1226 38.8197 21.0374 39.0595C20.9521 39.2993 20.8197 39.5196 20.6481 39.7074C20.4764 39.8953 20.269 40.047 20.0379 40.1535C19.8067 40.2601 19.5567 40.3193 19.3023 40.3278C19.2305 40.3399 19.1571 40.3399 19.0853 40.3278H13.5378C13.3309 40.3464 13.1225 40.3218 12.9257 40.2554C12.7289 40.189 12.548 40.0824 12.3947 39.9422C12.2414 39.8021 12.119 39.6316 12.0352 39.4416C11.9515 39.2515 11.9082 39.0461 11.9082 38.8384C11.9082 38.6307 11.9515 38.4253 12.0352 38.2353C12.119 38.0452 12.2414 37.8747 12.3947 37.7346C12.548 37.5945 12.7289 37.4878 12.9257 37.4214C13.1225 37.3551 13.3309 37.3304 13.5378 37.349H13.6584C13.5736 36.7397 13.7344 36.1217 14.1053 35.6309C14.4762 35.1402 15.0269 34.8168 15.6362 34.7321C16.2455 34.6473 16.8635 34.8081 17.3543 35.179C17.845 35.5499 18.1684 36.1006 18.2531 36.7099C18.5157 36.5808 18.8047 36.5147 19.0973 36.5169H19.0853Z" fill="white"/>
</g>
</g>
<defs>
<linearGradient id="paint0_linear_781_31199" x1="43.2413" y1="0.241195" x2="43.2413" y2="81.2827" gradientUnits="userSpaceOnUse">
<stop stop-color="#EAF7FF"/>
<stop offset="1" stop-color="white"/>
</linearGradient>
<linearGradient id="paint1_linear_781_31199" x1="43.2413" y1="0.241195" x2="43.2413" y2="84.6594" gradientUnits="userSpaceOnUse">
<stop stop-color="#EAF7FF" stop-opacity="0.5"/>
<stop offset="1" stop-color="white" stop-opacity="0.46"/>
</linearGradient>
<clipPath id="clip0_781_31199">
<rect width="84.4183" height="88" fill="white" transform="translate(0.791016)"/>
</clipPath>
</defs>
</svg>
