<svg width="91" height="90" viewBox="0 0 91 90" fill="none" xmlns="http://www.w3.org/2000/svg">
<g clip-path="url(#clip0_784_10079)">
<path d="M45.25 90C70.1028 90 90.25 69.8528 90.25 45C90.25 20.1472 70.1028 0 45.25 0C20.3972 0 0.25 20.1472 0.25 45C0.25 69.8528 20.3972 90 45.25 90Z" fill="url(#paint0_linear_784_10079)"/>
<path d="M45.25 90C70.1028 90 90.25 69.8528 90.25 45C90.25 20.1472 70.1028 0 45.25 0C20.3972 0 0.25 20.1472 0.25 45C0.25 69.8528 20.3972 90 45.25 90Z" fill="url(#paint1_linear_784_10079)"/>
<path d="M45.25 90C70.1028 90 90.25 69.8528 90.25 45C90.25 20.1472 70.1028 0 45.25 0C20.3972 0 0.25 20.1472 0.25 45C0.25 69.8528 20.3972 90 45.25 90Z" fill="url(#paint2_linear_784_10079)"/>
<path d="M63.25 47.0576H71.2214V52.0719H63.25V47.0576ZM65.3071 48.9862V50.0148H66.3357V48.9862H65.3071ZM68.2643 48.9862V50.0148H69.2929V48.9862H68.2643Z" fill="#57A2D4"/>
<path d="M44.221 22.1144C46.021 22.1144 47.4353 23.5287 47.4353 25.3287C47.4353 27.0001 46.2782 28.2858 44.6067 28.543H34.8353C33.421 28.2858 32.521 26.8715 32.7782 25.5858C32.8986 25.0869 33.1544 24.6308 33.5174 24.2679C33.8803 23.905 34.3364 23.6492 34.8353 23.5287H34.9639C34.9639 21.343 36.6353 19.543 38.821 19.543C40.621 19.543 42.1639 20.7001 42.6782 22.5001C43.0639 22.1144 43.5782 22.1144 44.221 22.1144ZM79.7067 28.9287C80.8639 28.9287 81.7639 29.7001 81.8924 30.8573C81.8924 32.0144 81.121 32.9144 79.9639 33.043H73.7924C72.8924 33.1715 72.121 32.5287 72.121 31.6287C71.9924 30.7287 72.6353 29.9573 73.5353 29.9573H73.921C73.7924 28.543 74.821 27.3858 76.1067 27.2573C77.3924 27.1287 78.5496 28.0287 78.8067 29.3144C79.0499 29.0808 79.3698 28.9437 79.7067 28.9287Z" fill="white"/>
<path d="M70.1929 38.9569C70.1929 37.6712 69.4214 36.514 68.2643 36.1283V31.3712L67.2357 28.0283L66.2071 31.3712V36.1283C65.05 36.514 64.2786 37.6712 64.15 38.9569V46.0283H70.1929V38.9569ZM62.2214 61.9712V68.014H72.25V61.9712H62.2214ZM65.3071 65.9569H63.25V63.8997H65.3071V65.9569ZM68.2643 65.9569H66.2071V63.8997H68.2643V65.9569ZM71.2214 65.9569H69.2929V63.8997H71.2214V65.9569ZM71.2214 52.9712H63.25V60.9426H71.2214V52.9712ZM68.2643 57.9855H66.2071V56.0569H68.2643V57.9855ZM59.2643 44.9998C59.2643 43.714 58.4929 42.5569 57.2071 42.1712V41.014L56.1786 38.0569L55.15 41.014V42.1712C54.5592 42.376 54.0453 42.7569 53.6775 43.2626C53.3097 43.7683 53.1057 44.3746 53.0929 44.9998V48.9855H59.1357V44.9998H59.2643ZM60.2929 56.0569H52.3214V64.0283H60.2929V56.0569ZM57.2071 60.9426H55.15V59.014H57.2071V60.9426ZM37.2786 44.9998C37.2786 43.714 36.5071 42.5569 35.2214 42.1712V41.014L34.1929 38.0569L33.1643 41.014V42.1712C32.5735 42.376 32.0596 42.7569 31.6918 43.2626C31.324 43.7683 31.1199 44.3746 31.1071 44.9998V48.9855H37.15V44.9998H37.2786ZM38.3071 56.0569H30.3357V64.0283H38.3071V56.0569ZM35.2214 60.9426H33.2929V59.014H35.2214V60.9426ZM26.2214 38.9569C26.2214 37.6712 25.3214 36.514 24.0357 36.1283V31.6283L23.1357 28.2855L22.1071 31.6283V36.1283C20.95 36.6426 20.3071 37.6712 20.3071 38.9569V45.8997H26.35V38.9569H26.2214ZM18.25 68.014H28.2786V61.9712H18.25V68.014ZM25.1929 64.0283H27.25V66.0855H25.1929V64.0283ZM22.2357 64.0283H24.2929V66.0855H22.2357V64.0283ZM19.2786 64.0283H21.2071V66.0855H19.2786V64.0283ZM27.25 52.9712H19.2786V60.9426H27.25V52.9712ZM24.2929 57.9855H22.2357V56.0569H24.2929V57.9855ZM29.3071 79.9712H31.2357V87.6855L35.7357 88.9712H54.6357L59.1357 87.6855V79.9712H61.0643V78.0426H29.3071V79.9712ZM52.1929 82.0283H54.25V83.0569H52.1929V82.0283ZM48.2071 82.0283H50.2643V83.0569H48.2071V82.0283ZM44.2214 82.0283H46.2786V83.0569H44.2214V82.0283ZM40.2357 82.0283H42.2929V83.0569H40.2357V82.0283ZM36.25 82.0283H38.3071V83.0569H36.25V82.0283Z" fill="#57A2D4"/>
<path d="M72.25 69.0433H62.2214V79.0719H72.25V69.0433ZM68.2643 74.9576H66.2071V72.9005H68.2643V74.9576ZM61.1929 65.0576H51.1643V71.1005H61.1929V65.0576ZM54.25 69.0433H52.1929V66.9862H54.25V69.0433ZM57.2071 69.0433H55.15V66.9862H57.2071V69.0433ZM60.2929 69.0433H58.2357V66.9862H60.2929V69.0433ZM60.2929 50.0148H52.3214V55.029H60.2929V50.0148ZM55.2786 52.9719H54.25V51.9433H55.2786V52.9719ZM58.2357 52.9719H57.2071V51.9433H58.2357V52.9719ZM39.2071 65.0576H29.1786V71.1005H39.2071V65.0576ZM32.2643 69.0433H30.2071V66.9862H32.2643V69.0433ZM35.2214 69.0433H33.2929V66.9862H35.2214V69.0433ZM38.3071 69.0433H36.25V66.9862H38.3071V69.0433ZM38.3071 50.0148H30.3357V55.029H38.3071V50.0148ZM33.2929 52.9719H32.2643V51.9433H33.2929V52.9719ZM36.25 52.9719H35.2214V51.9433H36.25V52.9719ZM61.1929 72.0005H29.3071V77.0148H61.3214V72.0005H61.1929ZM34.1929 74.9576H32.2643V73.929H34.1929V74.9576ZM38.3071 74.9576H36.25V73.929H38.3071V74.9576ZM42.2929 74.9576H40.2357V73.929H42.2929V74.9576ZM46.2786 74.9576H44.2214V73.929H46.2786V74.9576ZM50.2643 74.9576H48.2071V73.929H50.2643V74.9576ZM54.25 74.9576H52.1929V73.929H54.25V74.9576ZM58.2357 74.9576H56.3071V73.929H58.2357V74.9576ZM28.2786 69.0433H18.25V79.0719H28.2786V69.0433ZM24.2929 74.9576H22.2357V72.9005H24.2929V74.9576ZM27.25 47.0576H19.2786V52.0719H27.25V47.0576ZM22.2357 50.0148H21.2071V48.9862H22.2357V50.0148ZM25.1929 50.0148H24.1643V48.9862H25.1929V50.0148ZM25.1929 85.3719V84.0862H27.25V86.1433H26.7357L30.2071 87.5576V81.129H18.25C20.4357 82.6719 22.75 84.0862 25.1929 85.3719ZM72.25 81.0005H60.2929V87.429C61.45 87.0433 62.7357 86.529 63.7643 86.0148H63.25V83.9576H65.3071V85.2433C67.75 84.0862 70.0643 82.6719 72.25 81.0005Z" fill="#57A2D4"/>
</g>
<defs>
<linearGradient id="paint0_linear_784_10079" x1="45.2487" y1="0.259714" x2="45.2487" y2="74.0597" gradientUnits="userSpaceOnUse">
<stop stop-color="#E3F1F7"/>
<stop offset="1" stop-color="white"/>
</linearGradient>
<linearGradient id="paint1_linear_784_10079" x1="45.2487" y1="0.259714" x2="45.2487" y2="86.6597" gradientUnits="userSpaceOnUse">
<stop stop-color="#EAF7FF"/>
<stop offset="1" stop-color="white"/>
</linearGradient>
<linearGradient id="paint2_linear_784_10079" x1="45.2487" y1="0.259714" x2="45.2487" y2="90.2597" gradientUnits="userSpaceOnUse">
<stop stop-color="#EAF7FF" stop-opacity="0.5"/>
<stop offset="1" stop-color="white" stop-opacity="0.46"/>
</linearGradient>
<clipPath id="clip0_784_10079">
<rect width="90" height="90" fill="white" transform="translate(0.25)"/>
</clipPath>
</defs>
</svg>
