<svg width="90" height="90" viewBox="0 0 90 90" fill="none" xmlns="http://www.w3.org/2000/svg">
<g clip-path="url(#clip0_784_10103)">
<path d="M44.7502 89.0082C69.3291 89.0082 89.2543 69.083 89.2543 44.5041C89.2543 19.9252 69.3291 0 44.7502 0C20.1713 0 0.246094 19.9252 0.246094 44.5041C0.246094 69.083 20.1713 89.0082 44.7502 89.0082Z" fill="url(#paint0_linear_784_10103)"/>
<mask id="mask0_784_10103" style="mask-type:luminance" maskUnits="userSpaceOnUse" x="0" y="0" width="90" height="90">
<path d="M44.7502 89.0082C69.3291 89.0082 89.2543 69.083 89.2543 44.5041C89.2543 19.9252 69.3291 0 44.7502 0C20.1713 0 0.246094 19.9252 0.246094 44.5041C0.246094 69.083 20.1713 89.0082 44.7502 89.0082Z" fill="white"/>
</mask>
<g mask="url(#mask0_784_10103)">
<path d="M27.8391 19.836C28.273 19.7811 28.7136 19.8159 29.1335 19.9384C29.5534 20.0608 29.9436 20.2683 30.28 20.5479C30.6164 20.8275 30.8917 21.1732 31.0888 21.5636C31.286 21.9541 31.4008 22.3809 31.4261 22.8175C31.4515 23.2542 31.3868 23.6914 31.2361 24.102C31.0854 24.5126 30.8519 24.8878 30.5501 25.2044C30.2483 25.521 29.8846 25.7722 29.4817 25.9424C29.0788 26.1126 28.6452 26.1981 28.2078 26.1937H18.5695C18.202 26.2634 17.8236 26.2511 17.4613 26.1578C17.099 26.0645 16.7618 25.8923 16.4737 25.6537C16.1856 25.4151 15.9536 25.1158 15.7945 24.7773C15.6353 24.4387 15.5527 24.0692 15.5527 23.6951C15.5527 23.321 15.6353 22.9515 15.7945 22.613C15.9536 22.2745 16.1856 21.9752 16.4737 21.7366C16.7618 21.498 17.099 21.3258 17.4613 21.2325C17.8236 21.1391 18.202 21.1269 18.5695 21.1966H18.7475C18.6689 20.6914 18.6917 20.1756 18.8145 19.6793C18.9373 19.183 19.1577 18.7161 19.4628 18.3059C19.7679 17.8957 20.1517 17.5503 20.5916 17.2899C21.0316 17.0295 21.519 16.8593 22.0255 16.7893C22.5319 16.7192 23.0472 16.7507 23.5414 16.8818C24.0355 17.013 24.4986 17.2413 24.9036 17.5532C25.3087 17.8652 25.6475 18.2548 25.9004 18.6991C26.1534 19.1434 26.3153 19.6336 26.3768 20.1412C26.8163 19.9259 27.2988 19.8128 27.7882 19.8106L27.8391 19.836Z" fill="white"/>
</g>
<mask id="mask1_784_10103" style="mask-type:luminance" maskUnits="userSpaceOnUse" x="0" y="0" width="90" height="90">
<path d="M44.7502 89.0082C69.3291 89.0082 89.2543 69.083 89.2543 44.5041C89.2543 19.9252 69.3291 0 44.7502 0C20.1713 0 0.246094 19.9252 0.246094 44.5041C0.246094 69.083 20.1713 89.0082 44.7502 89.0082Z" fill="white"/>
</mask>
<g mask="url(#mask1_784_10103)">
<path d="M75.9024 31.5724C76.4204 31.5684 76.9201 31.7633 77.2986 32.117C77.677 32.4707 77.9053 32.9561 77.9363 33.4732C77.9673 33.9902 77.7986 34.4995 77.4651 34.8958C77.1316 35.2921 76.6587 35.5454 76.144 35.6032H70.0533C69.6351 35.6032 69.2341 35.4371 68.9384 35.1414C68.6427 34.8457 68.4766 34.4447 68.4766 34.0265C68.4766 33.6083 68.6427 33.2073 68.9384 32.9116C69.2341 32.6159 69.6351 32.4498 70.0533 32.4498H70.1804C70.1507 31.8367 70.3519 31.2347 70.7442 30.7626C71.1366 30.2904 71.6916 29.9825 72.2998 29.8995C72.908 29.8165 73.5252 29.9644 74.0297 30.3141C74.5342 30.6638 74.8893 31.1899 75.025 31.7886C75.2989 31.6569 75.5985 31.5874 75.9024 31.5851V31.5724Z" fill="white"/>
</g>
<mask id="mask2_784_10103" style="mask-type:luminance" maskUnits="userSpaceOnUse" x="0" y="0" width="90" height="90">
<path d="M44.7502 89.0082C69.3291 89.0082 89.2543 69.083 89.2543 44.5041C89.2543 19.9252 69.3291 0 44.7502 0C20.1713 0 0.246094 19.9252 0.246094 44.5041C0.246094 69.083 20.1713 89.0082 44.7502 89.0082Z" fill="white"/>
</mask>
<g mask="url(#mask2_784_10103)">
<path d="M44.2414 22.9644V21.2606C44.2414 21.129 44.2937 21.0029 44.3867 20.9099C44.4797 20.8169 44.6058 20.7646 44.7373 20.7646C44.8689 20.7646 44.995 20.8169 45.088 20.9099C45.181 21.0029 45.2332 21.129 45.2332 21.2606V22.9644C48.2002 24.3801 49.6836 27.275 49.6836 31.6491V90.013H39.791V31.6618C39.791 27.2877 41.2745 24.3928 44.2414 22.9771V22.9644ZM44.75 33.62C44.4896 33.62 44.2316 33.6713 43.9909 33.771C43.7503 33.8707 43.5316 34.0168 43.3474 34.201C43.1632 34.3852 43.0171 34.6038 42.9174 34.8445C42.8177 35.0852 42.7664 35.3431 42.7664 35.6036V41.5417H46.7337V35.6036C46.7337 35.0775 46.5247 34.573 46.1527 34.201C45.7807 33.829 45.2761 33.62 44.75 33.62ZM44.75 48.4589C44.4896 48.4589 44.2316 48.5102 43.9909 48.6099C43.7503 48.7096 43.5316 48.8557 43.3474 49.0399C43.1632 49.2241 43.0171 49.4428 42.9174 49.6834C42.8177 49.9241 42.7664 50.182 42.7664 50.4425V56.3679H46.7337V50.4425C46.7337 49.9164 46.5247 49.4119 46.1527 49.0399C45.7807 48.6679 45.2761 48.4589 44.75 48.4589ZM44.75 63.2978C44.4902 63.2962 44.2325 63.3459 43.9919 63.4442C43.7513 63.5425 43.5325 63.6874 43.3482 63.8706C43.1638 64.0538 43.0175 64.2716 42.9177 64.5116C42.8178 64.7515 42.7664 65.0089 42.7664 65.2687V71.2069H46.7337V65.2687C46.7337 65.0089 46.6823 64.7515 46.5824 64.5116C46.4826 64.2716 46.3363 64.0538 46.1519 63.8706C45.9675 63.6874 45.7488 63.5425 45.5082 63.4442C45.2676 63.3459 45.0099 63.2962 44.75 63.2978ZM44.75 78.1241C44.4896 78.1241 44.2316 78.1754 43.9909 78.2751C43.7503 78.3747 43.5316 78.5209 43.3474 78.7051C43.1632 78.8892 43.0171 79.1079 42.9174 79.3486C42.8177 79.5893 42.7664 79.8472 42.7664 80.1077V86.0458H46.7337V80.1077C46.7337 79.5816 46.5247 79.0771 46.1527 78.7051C45.7807 78.3331 45.2761 78.1241 44.75 78.1241Z" fill="#57A2D4"/>
<path d="M39.791 44.5049H49.6836V45.7764H39.791V44.5049ZM39.791 59.3438H49.6836V60.6154H39.791V59.3438ZM39.791 74.17H49.6836V75.4416H39.791V74.17Z" fill="white"/>
<path d="M28.4354 35.8199C31.4023 37.2271 32.8858 40.122 32.8858 44.5045V90.0004H23.0059V44.5045C23.0059 40.1304 24.4893 37.2355 27.4563 35.8199V34.116C27.4563 33.9845 27.5085 33.8584 27.6015 33.7654C27.6945 33.6724 27.8207 33.6201 27.9522 33.6201C28.0827 33.6233 28.207 33.6766 28.2993 33.7689C28.3916 33.8612 28.4449 33.9855 28.4481 34.116L28.4354 35.8199ZM27.9267 48.4591C27.6663 48.4591 27.4083 48.5104 27.1676 48.61C26.927 48.7097 26.7083 48.8558 26.5241 49.04C26.3399 49.2242 26.1938 49.4429 26.0941 49.6836C25.9944 49.9242 25.9431 50.1822 25.9431 50.4427V56.3681H29.8849V50.4427C29.8866 50.1828 29.8369 49.9251 29.7386 49.6845C29.6403 49.4439 29.4954 49.2252 29.3122 49.0408C29.129 48.8564 28.9112 48.7101 28.6712 48.6103C28.4313 48.5104 28.1739 48.459 27.914 48.4591H27.9267ZM27.9267 63.298C27.6669 63.2963 27.4092 63.3461 27.1686 63.4444C26.928 63.5426 26.7092 63.6876 26.5249 63.8707C26.3405 64.0539 26.1942 64.2718 26.0944 64.5117C25.9945 64.7517 25.9431 65.009 25.9431 65.2689V71.207H29.8849V65.2689C29.8866 65.0096 29.8368 64.7525 29.7383 64.5127C29.6399 64.2728 29.4948 64.0548 29.3114 63.8715C29.1281 63.6881 28.9101 63.543 28.6702 63.4446C28.4304 63.3461 28.1733 63.2963 27.914 63.298H27.9267ZM27.9267 78.1242C27.4029 78.1276 26.9016 78.338 26.5323 78.7097C26.1631 79.0813 25.9558 79.5839 25.9558 80.1078V86.0459H29.8976V80.1078C29.8993 79.8479 29.8496 79.5903 29.7513 79.3497C29.653 79.1091 29.5081 78.8903 29.3249 78.706C29.1417 78.5216 28.9239 78.3753 28.6839 78.2754C28.444 78.1756 28.1866 78.1242 27.9267 78.1242Z" fill="#57A2D4"/>
<path d="M23.0059 74.17H32.8985V75.4415H23.0059V74.17ZM23.0059 59.3438H32.8985V60.6153H23.0059V59.3438Z" fill="white"/>
<path d="M61.5588 78.1241V86.0459H59.5879V80.1078C59.5863 79.8479 59.636 79.5902 59.7343 79.3496C59.8326 79.109 59.9775 78.8903 60.1607 78.7059C60.3439 78.5215 60.5617 78.3752 60.8017 78.2754C61.0416 78.1755 61.2989 78.1241 61.5588 78.1241V71.2069H59.5879V65.2688C59.6278 64.7718 59.8534 64.308 60.2198 63.9699C60.5862 63.6317 61.0666 63.4439 61.5652 63.4439C62.0638 63.4439 62.5441 63.6317 62.9105 63.9699C63.2769 64.308 63.5026 64.7718 63.5424 65.2688V71.2069H61.5588V78.1241ZM61.5588 48.459C61.8193 48.459 62.0773 48.5103 62.3179 48.61C62.5586 48.7097 62.7773 48.8558 62.9615 49.04C63.1456 49.2242 63.2918 49.4428 63.3914 49.6835C63.4911 49.9242 63.5424 50.1821 63.5424 50.4426V56.368H59.6006V50.4426C59.599 50.1827 59.6487 49.925 59.747 49.6845C59.8453 49.4439 59.9902 49.2251 60.1734 49.0407C60.3566 48.8564 60.5744 48.7101 60.8144 48.6102C61.0543 48.5104 61.3116 48.459 61.5715 48.459H61.5588Z" fill="#57A2D4"/>
<path d="M56.6133 59.3438H66.5059V60.6153H56.6133V59.3438ZM56.6133 74.17H66.5059V75.4415H56.6133V74.17Z" fill="#57A2D4"/>
<path fill-rule="evenodd" clip-rule="evenodd" d="M11.6131 49.6666C14.5885 51.078 16.0635 53.9772 16.0635 58.3513V90H6.18359V58.3513C6.18359 53.9772 7.65859 51.078 10.634 49.6666V47.9628C10.6225 47.8919 10.6266 47.8193 10.6459 47.7501C10.6653 47.681 10.6994 47.6168 10.7459 47.5621C10.7925 47.5075 10.8504 47.4635 10.9156 47.4334C10.9808 47.4033 11.0517 47.3877 11.1235 47.3877C11.1954 47.3877 11.2663 47.4033 11.3315 47.4334C11.3967 47.4635 11.4546 47.5075 11.5012 47.5621C11.5477 47.6168 11.5818 47.681 11.6012 47.7501C11.6205 47.8193 11.6246 47.8919 11.6131 47.9628V49.6666ZM11.1299 63.2976C10.87 63.2959 10.6124 63.3457 10.3718 63.444C10.1312 63.5422 9.91241 63.6872 9.72804 63.8703C9.54368 64.0535 9.39737 64.2714 9.29753 64.5113C9.19769 64.7513 9.14629 65.0086 9.14629 65.2685V71.2066H13.1008V65.2685C13.1008 64.7458 12.8932 64.2445 12.5235 63.8749C12.1539 63.5052 11.6526 63.2976 11.1299 63.2976Z" fill="#57A2D4"/>
<path d="M6.18359 74.1699H16.0762V75.4415H6.18359V74.1699Z" fill="white"/>
<path fill-rule="evenodd" clip-rule="evenodd" d="M78.865 49.6671C81.8405 51.0658 83.3155 53.9903 83.3155 58.3517V90.0132H73.4355V58.3645C73.4355 53.9904 74.9105 51.0912 77.886 49.6798V46.9841C77.9048 46.8678 77.9643 46.762 78.054 46.6857C78.1437 46.6093 78.2577 46.5674 78.3755 46.5674C78.4933 46.5674 78.6073 46.6093 78.697 46.6857C78.7867 46.762 78.8462 46.8678 78.865 46.9841V49.6671ZM78.3564 63.2981C77.8337 63.2981 77.3324 63.5057 76.9628 63.8753C76.5932 64.2449 76.3855 64.7462 76.3855 65.269V71.2071H80.3528V65.269C80.3528 65.0091 80.3014 64.7517 80.2015 64.5118C80.1017 64.2718 79.9554 64.054 79.771 63.8708C79.5866 63.6876 79.3679 63.5427 79.1273 63.4444C78.8867 63.3461 78.629 63.2964 78.3691 63.2981H78.3564Z" fill="#57A2D4"/>
<path d="M73.4355 74.1699H83.3282V75.4415H73.4355V74.1699Z" fill="white"/>
<path d="M69.9638 55.3889C70.2942 55.3787 70.6231 55.4349 70.9313 55.5543C71.2394 55.6737 71.5205 55.8538 71.7577 56.0838C71.9949 56.3139 72.1834 56.5893 72.3121 56.8937C72.4409 57.1981 72.5071 57.5252 72.5069 57.8557V90.0003H67.5098V57.8557C67.5098 57.2014 67.7697 56.574 68.2323 56.1114C68.6949 55.6488 69.3223 55.3889 69.9766 55.3889H69.9638Z" fill="#57A2D4"/>
<path fill-rule="evenodd" clip-rule="evenodd" d="M36.3575 31.6621C37.0117 31.6621 37.6391 31.922 38.1018 32.3846C38.5644 32.8472 38.8243 33.4747 38.8243 34.1289V90.0769H33.8652V34.1289C33.8846 33.4786 34.1524 32.8604 34.6136 32.4016C35.0748 31.9427 35.6944 31.6781 36.3447 31.6621H36.3575ZM53.1419 31.6621C53.8033 31.6618 54.4389 31.9192 54.9137 32.3798C55.3884 32.8403 55.6651 33.4677 55.685 34.1289V90.0769H50.6751V34.1289C50.6751 33.4747 50.935 32.8472 51.3976 32.3846C51.8602 31.922 52.4876 31.6621 53.1419 31.6621Z" fill="#57A2D4"/>
<path d="M19.5352 55.3887C20.1894 55.3887 20.8169 55.6486 21.2795 56.1112C21.7421 56.5738 22.002 57.2013 22.002 57.8555V90.0002H17.043V57.8555C17.043 57.5305 17.1072 57.2087 17.232 56.9086C17.3567 56.6084 17.5396 56.3359 17.77 56.1067C18.0004 55.8775 18.2738 55.696 18.5746 55.5728C18.8753 55.4496 19.1975 55.387 19.5225 55.3887H19.5352Z" fill="#57A2D4"/>
</g>
</g>
<defs>
<linearGradient id="paint0_linear_784_10103" x1="45.0045" y1="0.254309" x2="45.0045" y2="85.7022" gradientUnits="userSpaceOnUse">
<stop stop-color="#EAF7FF"/>
<stop offset="1" stop-color="white"/>
</linearGradient>
<clipPath id="clip0_784_10103">
<rect width="89.0082" height="90" fill="white" transform="translate(0.246094)"/>
</clipPath>
</defs>
</svg>
