<svg width="91" height="90" viewBox="0 0 91 90" fill="none" xmlns="http://www.w3.org/2000/svg">
<g clip-path="url(#clip0_784_10135)">
<path d="M45.75 90C70.6028 90 90.75 69.8528 90.75 45C90.75 20.1472 70.6028 0 45.75 0C20.8972 0 0.75 20.1472 0.75 45C0.75 69.8528 20.8972 90 45.75 90Z" fill="url(#paint0_linear_784_10135)"/>
<path d="M64.4473 10.1248C65.2976 10.0801 66.1309 10.375 66.7639 10.9446C67.3968 11.5142 67.7775 12.312 67.8223 13.1623C67.867 14.0127 67.5721 14.846 67.0025 15.4789C66.4329 16.1119 65.6351 16.4926 64.7848 16.5373H55.1098C54.777 16.5463 54.4457 16.4892 54.135 16.3694C53.8244 16.2496 53.5406 16.0694 53.3 15.8393C53.0594 15.6092 52.8668 15.3336 52.7333 15.0286C52.5998 14.7236 52.5281 14.3952 52.5223 14.0623C52.5281 13.4077 52.7908 12.7816 53.2537 12.3187C53.7166 11.8558 54.3427 11.5932 54.9973 11.5873H55.2223C55.1113 10.5694 55.4036 9.54843 56.0365 8.74341C56.6693 7.9384 57.5924 7.41339 58.6078 7.28095C59.6233 7.1485 60.6501 7.41917 61.4683 8.03491C62.2865 8.65065 62.8309 9.56245 62.9848 10.5748C63.4047 10.2586 63.9222 10.0994 64.4473 10.1248ZM23.0473 21.9373C23.5843 21.9075 24.1112 22.0922 24.5121 22.4509C24.913 22.8096 25.1549 23.3128 25.1848 23.8498C25.2146 24.3869 25.0299 24.9138 24.6712 25.3147C24.3125 25.7155 23.8093 25.9575 23.2723 25.9873H17.0848C16.6671 25.9873 16.2664 25.8214 15.9711 25.526C15.6757 25.2307 15.5098 24.8301 15.5098 24.4123C15.5098 23.9946 15.6757 23.594 15.9711 23.2986C16.2664 23.0033 16.6671 22.8373 17.0848 22.8373H17.1973C17.1529 22.5123 17.1731 22.1817 17.2565 21.8645C17.3399 21.5473 17.485 21.2496 17.6835 20.9884C17.882 20.7272 18.13 20.5077 18.4133 20.3424C18.6966 20.1771 19.0097 20.0692 19.3348 20.0248C19.6598 19.9805 19.9904 20.0006 20.3076 20.0841C20.6248 20.1675 20.9225 20.3126 21.1837 20.5111C21.4449 20.7096 21.6644 20.9576 21.8297 21.2409C21.995 21.5242 22.1029 21.8373 22.1473 22.1623C22.4242 22.0099 22.7317 21.9215 23.0473 21.9036V21.9373Z" fill="white"/>
<path d="M23.6992 47.9698C24.9498 47.8236 26.1898 47.5982 27.4117 47.2948C31.7767 46.2598 31.653 40.2411 32.4742 38.5198C33.1492 37.1136 36.4567 35.9098 37.593 35.5273V47.9586H23.6992M66.9555 47.9698C65.7048 47.8246 64.4647 47.5991 63.243 47.2948C58.878 46.2598 59.0017 40.2411 58.1805 38.5198C57.5055 37.1136 54.2092 35.9098 53.073 35.5273V47.9586H66.9667" fill="#57A2D4"/>
<path d="M51.9705 32.1979C51.7594 30.6537 50.9813 29.2433 49.7878 28.241C48.5942 27.2388 47.0705 26.7164 45.513 26.7754V21.4429H47.313V20.8354H45.513V18.8779H44.6243V20.8354H42.7793V21.4429H44.6243V26.7079C41.2493 26.7867 38.5493 29.7904 38.5493 32.1979H51.9705ZM23.508 64.6429H77.418V66.7242H23.508V64.6429ZM13.5293 64.6429H19.1543V66.7242H13.5293V64.6429ZM23.508 48.8254H32.643V50.9067H23.508V48.8254ZM33.2055 48.3754H38.5155V51.3454H33.2055V48.3754ZM39.8655 48.8254H51.1155V50.9067H39.8655V48.8254ZM58.1468 48.8254H66.6518V50.9067H58.1468V48.8254ZM51.678 48.3754H56.9993V51.3454H51.6893L51.678 48.3754ZM13.5405 48.8254H18.873V50.9067H13.5405V48.8254ZM71.3318 48.8254H76.6643V50.9067H71.3318V48.8254Z" fill="#57A2D4"/>
<path d="M35.4902 33.0752H55.459V35.1564H35.4902V33.0752Z" fill="#57A2D4"/>
<path d="M14.7559 51.8066H19.1659V64.2154H14.7559V51.8066ZM71.3209 51.8066H75.7309V64.2154H71.3209V51.8066Z" fill="#57A2D4"/>
<path d="M20.168 44.4375H22.6092V46.6425H20.168V44.4375Z" fill="#57A2D4"/>
<path d="M19.9199 42.8291H22.8449V44.0891H19.9199V42.8291Z" fill="#57A2D4"/>
<path d="M20.6055 41.2646H22.1805V42.5809H20.6055V41.2646Z" fill="#57A2D4"/>
<path d="M20.4375 40.4775H22.3275V41.0738H20.4375V40.4775Z" fill="#57A2D4"/>
<path d="M21.0898 38.8574H21.6861V40.2862H21.0898V38.8574Z" fill="#57A2D4"/>
<path d="M20.7754 38.1826H21.9904V38.6664H20.7754V38.1826Z" fill="#57A2D4"/>
<path d="M67.7207 44.4375H70.162V46.6425H67.7207V44.4375Z" fill="#57A2D4"/>
<path d="M67.4629 42.8291H70.3879V44.0891H67.4629V42.8291Z" fill="#57A2D4"/>
<path d="M68.1602 41.2646H69.7352V42.5809H68.1602V41.2646Z" fill="#57A2D4"/>
<path d="M68.002 40.4775H69.892V41.0738H68.002V40.4775Z" fill="#57A2D4"/>
<path d="M68.6445 38.8574H69.2408V40.2862H68.6445V38.8574Z" fill="#57A2D4"/>
<path d="M68.3281 38.1826H69.5431V38.6664H68.3281V38.1826Z" fill="#57A2D4"/>
<path d="M23.6992 51.8066V64.1254H33.8917V51.8066H23.6992ZM30.7867 62.3816H26.8267V57.8816C26.8267 57.3565 27.0353 56.8529 27.4066 56.4816C27.778 56.1102 28.2816 55.9016 28.8067 55.9016C29.3318 55.9016 29.8355 56.1102 30.2068 56.4816C30.5781 56.8529 30.7867 57.3565 30.7867 57.8816V62.3816ZM56.7067 51.8066V64.1254H66.8317V51.8066H56.7067ZM63.7492 62.3816H59.8117V57.8816C59.8493 57.3837 60.0737 56.9184 60.4398 56.5789C60.8059 56.2394 61.2868 56.0508 61.7861 56.0508C62.2854 56.0508 62.7663 56.2394 63.1324 56.5789C63.4985 56.9184 63.7229 57.3837 63.7605 57.8816L63.7492 62.3816ZM38.133 51.8066V64.1816H52.758V51.8066H38.133ZM48.6517 62.4491H42.2055V57.2741C42.3259 56.5058 42.7169 55.8058 43.3078 55.3003C43.8988 54.7948 44.6509 54.517 45.4286 54.517C46.2063 54.517 46.9584 54.7948 47.5494 55.3003C48.1403 55.8058 48.5313 56.5058 48.6517 57.2741V62.4491Z" fill="#57A2D4"/>
<path d="M38.5156 35.9102V47.8577H52.0156V35.9102H38.5156ZM48.2131 46.1814H42.2506V41.1752C42.34 40.4504 42.6913 39.7834 43.2383 39.2997C43.7854 38.8159 44.4904 38.5489 45.2206 38.5489C45.9509 38.5489 46.6559 38.8159 47.2029 39.2997C47.75 39.7834 48.1012 40.4504 48.1906 41.1752L48.2131 46.1814ZM53.0506 89.6064L56.2344 88.8189V52.5939H53.0619L53.0506 89.6064Z" fill="#57A2D4"/>
<path d="M37.5039 89.4379L39.8664 89.8879V76.6579C39.9549 75.2889 40.5612 74.0049 41.562 73.0667C42.5629 72.1284 43.8833 71.6063 45.2552 71.6063C46.627 71.6063 47.9475 72.1284 48.9483 73.0667C49.9492 74.0049 50.5554 75.2889 50.6439 76.6579V90.0004L53.0064 89.6291V66.7129H37.5039V89.4379Z" fill="#57A2D4"/>
<path d="M34.3867 88.6162L37.5705 89.4488V52.5938H34.3867V88.6162Z" fill="#57A2D4"/>
<path d="M23.1367 83.9029L25.9267 85.3991V78.3566C25.9715 77.6546 26.282 76.996 26.7951 76.5147C27.3081 76.0334 27.9851 75.7655 28.6886 75.7655C29.3921 75.7655 30.0691 76.0334 30.5821 76.5147C31.0952 76.996 31.4056 77.6546 31.4505 78.3566V87.5479L32.103 87.8066L33.5092 88.3016L34.2405 88.5041V66.7129H23.1367V83.9029Z" fill="#57A2D4"/>
<path d="M19.6504 81.6413L23.1379 83.8913V47.25H19.6504V81.6413Z" fill="#57A2D4"/>
<path d="M14.7559 77.6254C16.1423 78.9554 17.6155 80.1919 19.1659 81.3266V67.1629H14.7559V77.6254ZM56.2459 88.7629L57.0334 88.5829L59.0246 87.9079V78.3454C59.0694 77.6434 59.3799 76.9848 59.8929 76.5034C60.406 76.0221 61.083 75.7542 61.7865 75.7542C62.4899 75.7542 63.167 76.0221 63.68 76.5034C64.193 76.9848 64.5035 77.6434 64.5484 78.3454V85.8829L67.3384 84.4879V66.7129H56.2346L56.2459 88.7629Z" fill="#57A2D4"/>
<path d="M67.1934 84.5775L70.6809 82.44V47.25H67.1934V84.5775Z" fill="#57A2D4"/>
<path d="M71.3203 82.0121C72.8607 80.9455 74.3335 79.7845 75.7303 78.5359V67.1621H71.3203V82.0121Z" fill="#57A2D4"/>
</g>
<defs>
<linearGradient id="paint0_linear_784_10135" x1="45.75" y1="0" x2="45.75" y2="86.2537" gradientUnits="userSpaceOnUse">
<stop stop-color="#EAF7FF"/>
<stop offset="1" stop-color="white"/>
</linearGradient>
<clipPath id="clip0_784_10135">
<rect width="90" height="90" fill="white" transform="translate(0.75)"/>
</clipPath>
</defs>
</svg>
