<svg width="91" height="90" viewBox="0 0 91 90" fill="none" xmlns="http://www.w3.org/2000/svg">
<g clip-path="url(#clip0_784_10127)">
<path d="M45.25 90C70.1028 90 90.25 69.8528 90.25 45C90.25 20.1472 70.1028 0 45.25 0C20.3972 0 0.25 20.1472 0.25 45C0.25 69.8528 20.3972 90 45.25 90Z" fill="url(#paint0_linear_784_10127)"/>
<path fill-rule="evenodd" clip-rule="evenodd" d="M72.2507 57.9857L69.2936 62.9999H72.2507V57.9857ZM67.7507 53.2285L63.3793 58.8857L68.265 61.1999L71.4793 56.5714L67.7507 53.2285ZM20.0507 56.5714L23.265 61.1999L28.1507 58.8857L23.7793 53.2285L20.0507 56.5714ZM19.2793 57.9857L22.2364 62.9999H19.2793V57.9857Z" fill="#57A2D4"/>
<path fill-rule="evenodd" clip-rule="evenodd" d="M73.2787 46.0283V56.0569L77.2644 51.9426L73.2787 46.0283ZM59.2644 65.0569L68.2644 64.0283L62.2215 60.0426L59.2644 65.0569ZM6.29297 62.3569H13.1073L17.093 57.0855L13.6215 53.3569L6.29297 62.3569ZM18.2501 56.0569V46.0283L14.2644 51.9426L18.2501 56.0569ZM47.3073 60.9426L58.2358 65.0569L52.193 56.9569L47.3073 60.9426ZM32.2644 65.0569L43.193 60.9426L38.3073 56.9569L32.2644 65.0569Z" fill="#57A2D4"/>
<path d="M39.207 56.0576L44.2213 60.0433V56.0576H39.207Z" fill="url(#paint1_radial_784_10127)"/>
<path d="M51.2936 56.0576L46.2793 60.0433V56.0576H51.2936Z" fill="url(#paint2_radial_784_10127)"/>
<path d="M54.1222 12.0861C55.9222 12.0861 57.3364 13.5004 57.3364 15.3004C57.3364 16.9718 56.1793 18.2575 54.5079 18.5146H44.7364C43.3222 18.2575 42.4222 16.8432 42.6793 15.5575C42.7998 15.0586 43.0556 14.6025 43.4185 14.2396C43.7815 13.8766 44.2375 13.6208 44.7364 13.5004H44.865C44.865 11.3146 46.5364 9.51465 48.7222 9.51465C50.5222 9.51465 52.1936 10.6718 52.5793 12.4718C53.0936 12.0861 53.6079 12.0861 54.1222 12.0861ZM19.7936 38.9575C20.9507 38.9575 21.8507 39.7289 21.9793 40.8861C21.9793 42.0432 21.2079 42.9432 20.0507 43.0718H13.8793C12.9793 43.2004 12.2079 42.5575 12.2079 41.6575C12.0793 40.6289 12.7222 39.8575 13.4936 39.8575H13.8793C13.7507 38.4432 14.6507 37.2861 15.9364 37.0289C17.3507 36.9004 18.5079 37.8004 18.765 39.0861C19.1507 38.9575 19.4079 38.9575 19.7936 38.9575Z" fill="white"/>
<path d="M74.4356 57.0862L78.4213 62.3576L86.6499 62.7433L77.907 53.3576L74.4356 57.0862ZM60.2927 51.9433V60.0433L70.1927 47.0576L60.2927 51.9433ZM31.2356 51.9433L21.207 47.0576L31.2356 60.0433V51.9433ZM3.20703 56.0576V61.9719L14.2642 50.0148L3.20703 56.0576ZM77.2642 50.0148L87.2927 60.9433C87.6785 60.1719 88.0642 59.2719 88.1927 58.3719V55.929L77.2642 50.0148ZM77.5213 70.4576C72.6356 75.3433 69.5499 76.3719 68.007 74.3148C65.6927 71.1005 62.2213 70.4576 57.8499 72.129H57.5927C53.2213 75.2148 50.007 75.729 47.8213 73.929C44.8642 71.6148 41.2642 70.9719 37.0213 72.0005H36.8927L36.7642 72.129C31.6213 75.3433 27.6356 76.2433 24.6785 75.0862C20.9067 73.672 16.7503 73.672 12.9785 75.0862H12.8499C12.5927 75.2148 12.3356 75.4719 12.207 75.729C12.5927 76.1148 12.9785 76.629 13.4927 77.0148C16.8007 75.7288 20.4705 75.7288 23.7785 77.0148C27.3785 78.5576 32.007 77.4005 37.5356 74.1862C40.6213 73.2862 43.9642 73.8005 46.5356 75.8576C49.6213 78.3005 53.7356 77.6576 58.6213 74.1862C62.2213 72.7719 64.6642 73.2862 66.3356 75.6005C68.907 79.2005 73.1499 77.6576 78.807 72.0005L78.9356 71.8719C79.3213 71.4862 79.1927 70.8433 78.807 70.4576C78.5499 69.9433 77.907 70.0719 77.5213 70.4576Z" fill="#57A2D4"/>
<path d="M44.2215 56.0568H39.2073L44.2215 60.0425V56.0568ZM46.2787 56.0568V60.0425L51.293 56.0568H46.2787ZM25.193 41.0139C27.893 41.0139 30.2073 38.8282 30.2073 35.9996C30.2073 33.2996 28.0215 30.9854 25.193 30.9854C22.493 30.9854 20.1787 33.1711 20.1787 35.9996C20.3073 38.6996 22.493 41.0139 25.193 41.0139ZM72.2501 46.0282L68.2644 51.9425L72.2501 56.0568V46.0282ZM73.2787 57.9853V62.9996H76.2358L73.2787 57.9853ZM19.2787 46.0282V56.0568L23.2644 51.9425L19.2787 46.0282ZM18.2501 57.9853L15.293 62.9996H18.2501V57.9853ZM23.2644 62.9996H32.2644L29.3073 60.0425L23.2644 62.9996ZM32.2644 52.9711V61.9711L37.2787 56.0568L32.2644 52.9711ZM59.2644 52.9711L54.2501 56.0568L59.2644 61.9711V52.9711ZM45.2501 62.9996L44.2215 61.9711L38.3073 65.0568H45.2501V62.9996ZM47.3073 61.9711L46.2787 62.9996V65.0568H53.2215L47.3073 61.9711ZM64.9215 80.2282C63.2501 77.6568 60.0358 77.0139 55.5358 78.0425H55.2787L55.1501 78.1711C51.1644 81.2568 48.3358 81.7711 46.2787 79.9711C43.4501 77.5282 39.593 76.8853 36.1215 77.9139H35.993L35.8644 78.0425C31.2358 81.2568 27.5073 82.1568 24.8073 80.9996C22.3644 79.9711 19.6644 79.7139 17.2215 80.0996C18.0046 80.7409 18.8199 81.3417 19.6644 81.8996C21.2073 81.8996 22.6215 82.2854 24.0358 82.7996C27.5073 84.3425 31.7501 83.1854 36.893 79.8425C39.7215 78.9425 42.8073 79.5853 44.993 81.3853C47.8215 83.8282 51.6787 83.3139 56.1787 79.8425C59.7787 79.0711 62.093 79.5854 63.2501 81.2568C64.2787 82.6711 66.2073 83.3139 69.0358 83.0568C70.4501 82.1568 71.7358 81.2568 72.893 80.3568C68.393 81.6425 65.693 81.5139 64.9215 80.2282Z" fill="#57A2D4"/>
</g>
<defs>
<linearGradient id="paint0_linear_784_10127" x1="45.2487" y1="0.259714" x2="45.2487" y2="86.6597" gradientUnits="userSpaceOnUse">
<stop stop-color="#EAF7FF"/>
<stop offset="1" stop-color="white"/>
</linearGradient>
<radialGradient id="paint1_radial_784_10127" cx="0" cy="0" r="1" gradientUnits="userSpaceOnUse" gradientTransform="translate(39.7595 59.4699) rotate(85.7568) scale(7.59368 7.59367)">
<stop stop-color="#A9DDFF"/>
<stop offset="1" stop-color="#2176AE"/>
</radialGradient>
<radialGradient id="paint2_radial_784_10127" cx="0" cy="0" r="1" gradientUnits="userSpaceOnUse" gradientTransform="translate(49.7558 59.3615) rotate(94.2432) scale(7.59368 7.59367)">
<stop stop-color="#A9DDFF"/>
<stop offset="1" stop-color="#2176AE"/>
</radialGradient>
<clipPath id="clip0_784_10127">
<rect width="90" height="90" fill="white" transform="translate(0.25)"/>
</clipPath>
</defs>
</svg>
