<svg width="91" height="90" viewBox="0 0 91 90" fill="none" xmlns="http://www.w3.org/2000/svg">
<g clip-path="url(#clip0_784_10119)">
<path d="M45.75 90C70.6028 90 90.75 69.8528 90.75 45C90.75 20.1472 70.6028 0 45.75 0C20.8972 0 0.75 20.1472 0.75 45C0.75 69.8528 20.8972 90 45.75 90Z" fill="url(#paint0_linear_784_10119)"/>
<path d="M57.6748 16.0878C59.4748 15.9753 60.9373 17.3253 61.0498 19.1253C61.1623 20.9253 59.8123 22.3878 58.0123 22.5003H48.3373C46.8748 22.5003 45.7498 21.3753 45.7498 20.0253C45.7557 19.3707 46.0183 18.7446 46.4812 18.2817C46.9441 17.8188 47.5702 17.5562 48.2248 17.5503H48.4498C48.1123 15.4128 49.6873 13.3878 51.8248 13.1628C53.9623 12.8253 55.9873 14.4003 56.2123 16.5378C56.6623 16.2003 57.1123 16.0878 57.6748 16.0878ZM16.2748 27.9003C17.3998 27.7878 18.4123 28.6878 18.4123 29.8128C18.5248 30.9378 17.6248 31.9503 16.4998 31.9503H10.3123C9.4123 31.9503 8.7373 31.2753 8.7373 30.3753C8.7373 29.4753 9.4123 28.8003 10.3123 28.8003H10.4248C10.1998 27.4503 11.2123 26.2128 12.5623 25.9878C13.9123 25.7628 15.1498 26.7753 15.3748 28.1253C15.5998 28.0128 15.9373 27.9003 16.2748 27.9003Z" fill="white"/>
<path fill-rule="evenodd" clip-rule="evenodd" d="M65.8873 85.275C63.1873 86.625 60.5998 87.525 57.6748 88.425V78.1875C57.6846 75.7377 56.9007 73.3506 55.4406 71.3835C53.9804 69.4163 51.9225 67.9749 49.5748 67.275L45.1873 65.925L40.7998 67.275C38.4521 67.9749 36.3942 69.4163 34.934 71.3835C33.4739 73.3506 32.69 75.7377 32.6998 78.1875V88.2C29.8873 87.3 27.0748 86.175 24.4873 84.825V61.3125H65.6623V85.275H65.8873ZM29.3248 82.4625C29.3248 81.7875 28.7623 81.225 28.1998 81.225C27.6373 81.225 27.0748 81.7875 27.0748 82.4625V84.375H29.4373L29.3248 82.4625ZM29.3248 74.5875C29.3248 73.9125 28.7623 73.35 28.1998 73.35C27.6373 73.35 27.0748 73.9125 27.0748 74.5875V76.5H29.4373L29.3248 74.5875ZM29.3248 66.825C29.3248 66.15 28.7623 65.7 28.1998 65.7C27.9083 65.7209 27.6342 65.8461 27.4276 66.0528C27.2209 66.2594 27.0957 66.5335 27.0748 66.825V68.625H29.4373L29.3248 66.825ZM62.7373 82.4625C62.7373 81.7875 62.1748 81.225 61.6123 81.225C60.9373 81.225 60.4873 81.7875 60.4873 82.4625V84.375H62.8498L62.7373 82.4625ZM62.7373 74.5875C62.7373 73.9125 62.1748 73.35 61.6123 73.35C60.9373 73.35 60.4873 73.9125 60.4873 74.5875V76.5H62.8498L62.7373 74.5875ZM62.7373 66.825C62.7373 66.15 62.1748 65.7 61.6123 65.7C60.9373 65.7 60.4873 66.2625 60.4873 66.825V68.625H62.8498L62.7373 66.825Z" fill="#57A2D4"/>
<path d="M14.25 61.3125V77.0625C16.95 79.7625 20.1 82.125 23.475 84.0375V61.3125H14.25ZM15.15 46.575H14.25V50.625H23.475V46.575H22.575H15.15ZM22.35 27.675C22.35 25.9875 21.1125 24.525 19.425 24.3L18.75 21.375L18.1875 24.3C16.6125 24.6375 15.375 25.9875 15.375 27.675V30.2625H22.35V27.675ZM32.8125 31.275C32.8125 30.2625 32.1375 29.475 31.125 29.3625L30.7875 27.675L30.45 29.3625C29.55 29.5875 28.875 30.2625 28.875 31.275V32.7375H32.8125V31.275ZM61.5 31.275C61.5 30.2625 60.825 29.475 59.8125 29.3625L59.475 27.675L59.25 29.3625C58.35 29.5875 57.675 30.2625 57.675 31.275V32.7375H61.5V31.275ZM74.55 27.675C74.55 25.9875 73.3125 24.525 71.625 24.3L71.0625 21.375L70.5 24.3C68.925 24.6375 67.6875 25.9875 67.6875 27.675V30.2625H74.55V27.675ZM22.35 36.225H15.4875V39.15H22.35V36.225ZM67.2375 51.75H23.8125V60.1875H67.2375V51.75ZM30.45 58.3875H26.4V55.4625C26.4 54.9254 26.6133 54.4104 26.9931 54.0306C27.3729 53.6508 27.8879 53.4375 28.425 53.4375C28.9621 53.4375 29.4771 53.6508 29.8569 54.0306C30.2367 54.4104 30.45 54.9254 30.45 55.4625V58.3875ZM38.775 58.3875H34.725V55.4625C34.725 54.9254 34.9383 54.4104 35.3181 54.0306C35.6979 53.6508 36.2129 53.4375 36.75 53.4375C37.2871 53.4375 37.8021 53.6508 38.1819 54.0306C38.5617 54.4104 38.775 54.9254 38.775 55.4625V58.3875ZM46.9875 58.3875H42.9375V55.4625C42.9375 54.9254 43.1508 54.4104 43.5306 54.0306C43.9104 53.6508 44.4254 53.4375 44.9625 53.4375C45.4996 53.4375 46.0146 53.6508 46.3944 54.0306C46.7742 54.4104 46.9875 54.9254 46.9875 55.4625V58.3875ZM55.3125 58.3875H51.2625V55.4625C51.2625 54.9254 51.4758 54.4104 51.8556 54.0306C52.2354 53.6508 52.7504 53.4375 53.2875 53.4375C53.8246 53.4375 54.3396 53.6508 54.7194 54.0306C55.0992 54.4104 55.3125 54.9254 55.3125 55.4625V58.3875ZM63.525 58.3875H59.475V55.4625C59.475 54.9254 59.6883 54.4104 60.0681 54.0306C60.4479 53.6508 60.9629 53.4375 61.5 53.4375C62.0371 53.4375 62.5521 53.6508 62.9319 54.0306C63.3117 54.4104 63.525 54.9254 63.525 55.4625V58.3875ZM29.1 36.675H32.7V37.9125H29.1V36.675ZM33.4875 42.975H28.3125V44.8875H33.4875V42.975ZM57.7875 36.675H61.3875V37.9125H57.7875V36.675ZM62.175 42.975H57V44.8875H62.175V42.975ZM67.0125 61.3125V84.6C70.3875 82.6875 73.3125 80.8875 76.2375 78.075V61.3125H67.0125ZM75.3375 46.575H67.0125V50.625H76.2375V46.575H75.3375ZM68.1375 36.225V39.15H75V36.225H68.3625H68.1375Z" fill="#57A2D4"/>
<path d="M14.8125 51.7502H21.9V60.1877H14.8125V51.7502ZM16.8375 31.3877H21V35.1002H16.8375V31.3877ZM16.275 40.2752H21.45V45.4502H16.275V40.2752ZM29.8875 33.8627H31.9125V35.6627H29.8875V33.8627ZM29.55 39.1502H32.25V41.8502H29.55V39.1502ZM28.9875 46.0127H32.8125V50.6252H28.9875V46.0127ZM58.575 33.8627H60.6V35.6627H58.575V33.8627ZM58.2375 39.1502H60.9375V41.8502H58.2375V39.1502ZM57.675 46.0127H61.5V50.6252H57.675V46.0127ZM68.025 51.7502H75.1125V60.1877H68.025V51.7502ZM69.4875 31.3877H73.65V35.1002H69.4875V31.3877ZM69.0375 40.2752H74.2125V45.4502H69.0375V40.2752Z" fill="#57A2D4"/>
</g>
<defs>
<linearGradient id="paint0_linear_784_10119" x1="45.75" y1="0" x2="45.75" y2="86.256" gradientUnits="userSpaceOnUse">
<stop stop-color="#EAF7FF"/>
<stop offset="1" stop-color="white"/>
</linearGradient>
<clipPath id="clip0_784_10119">
<rect width="90" height="90" fill="white" transform="translate(0.75)"/>
</clipPath>
</defs>
</svg>
