<svg width="91" height="90" viewBox="0 0 91 90" fill="none" xmlns="http://www.w3.org/2000/svg">
<g clip-path="url(#clip0_784_10087)">
<path d="M45.25 90C70.1028 90 90.25 69.8528 90.25 45C90.25 20.1472 70.1028 0 45.25 0C20.3972 0 0.25 20.1472 0.25 45C0.25 69.8528 20.3972 90 45.25 90Z" fill="url(#paint0_linear_784_10087)"/>
<path d="M30.9014 68.5285H63.1214V72.8356H30.9014V68.5285ZM56.4357 56.6999H63.1214V64.2471H30.9014V56.6999H43.5014V55.0928H46.7414V56.6999H53.1957V55.0928H56.4099V56.6999H56.4357Z" fill="#57A2D4"/>
<path d="M38.14 53.46H42.4471V56.6742H38.14V53.46ZM47.8214 53.46H52.1285V56.6742H47.8214V53.46ZM22.2871 77.1428H30.9014V88.9714H22.2871V77.1428ZM22.8271 68.5285H30.3614V72.8357H22.8271V68.5285ZM22.8271 56.7H30.3614V64.2471H22.8271V56.7Z" fill="#57A2D4"/>
<path d="M17.2467 57.7676H22.2867V63.1676H17.2467V57.7676ZM14.8682 68.529H22.2867V72.8362H14.8682V68.529Z" fill="#57A2D4"/>
<path d="M23.9072 46.4658H29.3072V51.313H23.9072V46.4658Z" fill="#57A2D4"/>
<path d="M21.207 73.3884H31.9813V76.6027H21.207V73.3884ZM21.207 64.7741H31.9813V67.9884H21.207V64.7741ZM21.207 51.8398H31.9813V56.147H21.207V51.8398Z" fill="#57A2D4"/>
<path d="M21.207 41.6191H31.9813V45.9263H21.207V41.6191Z" fill="#57A2D4"/>
<path d="M27.7646 37.1574C28.4853 37.3753 29.1168 37.8191 29.566 38.4234C30.0151 39.0276 30.2581 39.7603 30.2589 40.5131V40.7703H23.2646V40.5131C23.2655 39.7603 23.5085 39.0276 23.9576 38.4234C24.4067 37.8191 25.0383 37.3753 25.7589 37.1574V32.0146L26.7618 31.0117L27.7646 32.0146V37.1574Z" fill="#57A2D4"/>
<path d="M63.1211 77.1431H71.7354V88.9716H63.1211V77.1431ZM63.674 68.5288H71.2082V72.8359H63.674V68.5288ZM63.674 56.7002H71.2082V64.2473H63.674V56.7002Z" fill="#57A2D4"/>
<path d="M71.7354 57.7676H76.7754V63.1676H71.7354V57.7676Z" fill="#57A2D4"/>
<path d="M71.7354 68.5293H78.4211V72.8364H71.7354V68.5293Z" fill="#57A2D4"/>
<path d="M64.7539 46.4658H70.1282V51.313H64.7539V46.4658Z" fill="#57A2D4"/>
<path d="M62.0547 73.3884H72.829V76.6027H62.0547V73.3884ZM62.0547 64.7741H72.829V67.9884H62.0547V64.7741ZM62.0547 51.8398H72.829V56.147H62.0547V51.8398Z" fill="#57A2D4"/>
<path d="M62.0547 41.6191H72.829V45.9263H62.0547V41.6191Z" fill="#57A2D4"/>
<path d="M68.7524 37.5431C69.4854 37.8132 70.1159 38.3051 70.5561 38.9504C70.9962 39.5957 71.2242 40.3622 71.2081 41.1431H63.6738C63.6713 40.2638 63.9775 39.4114 64.5391 38.7347C65.1006 38.058 65.8819 37.5999 66.7467 37.4403V32.0146L67.7496 31.0117L68.7524 32.0146V37.5431Z" fill="#57A2D4"/>
<path fill-rule="evenodd" clip-rule="evenodd" d="M31.4414 88.9972V77.143H32.5214V73.3887H61.5786V76.9887H62.5814V88.9844H55.3557V84.1372C52.1157 80.5372 49.5185 78.7372 47.5385 78.7372C45.5585 78.7372 42.9743 80.5372 39.7343 84.1372V88.9844L31.4414 88.9972Z" fill="#57A2D4"/>
<path d="M57.1556 16.0718C57.9735 16.08 58.7578 16.3985 59.3499 16.9628C59.9419 17.5272 60.2976 18.2953 60.3449 19.1119C60.3923 19.9284 60.1278 20.7325 59.605 21.3616C59.0821 21.9906 58.34 22.3976 57.5285 22.5003H47.8214C47.233 22.3888 46.7019 22.0754 46.3199 21.6141C45.9379 21.1529 45.7289 20.5728 45.7289 19.9739C45.7289 19.375 45.9379 18.7949 46.3199 18.3337C46.7019 17.8725 47.233 17.559 47.8214 17.4475H48.0014C47.9833 16.488 48.3177 15.5552 48.9412 14.8257C49.5647 14.0962 50.4341 13.6207 51.3847 13.4891C52.3354 13.3576 53.3012 13.5793 54.0993 14.1121C54.8975 14.645 55.4726 15.452 55.7156 16.3803C56.1594 16.1609 56.6477 16.0465 57.1428 16.046L57.1556 16.0718ZM15.7556 27.926C16.2782 27.9254 16.7812 28.1249 17.1612 28.4835C17.5413 28.8422 17.7695 29.3327 17.7992 29.8544C17.8288 30.3762 17.6575 30.8894 17.3205 31.2888C16.9835 31.6881 16.5063 31.9432 15.9871 32.0018H9.84136C9.41853 32.0018 9.01301 31.8338 8.71403 31.5348C8.41504 31.2358 8.24707 30.8303 8.24707 30.4075C8.24707 29.9846 8.41504 29.5791 8.71403 29.2801C9.01301 28.9812 9.41853 28.8132 9.84136 28.8132H9.95707C9.86671 28.1636 10.0381 27.5047 10.4335 26.9815C10.829 26.4583 11.4161 26.1136 12.0656 26.0232C12.7152 25.9328 13.3741 26.1042 13.8973 26.4996C14.4206 26.8951 14.7653 27.4822 14.8556 28.1318C15.1377 28.0003 15.4445 27.9301 15.7556 27.926Z" fill="white"/>
</g>
<defs>
<linearGradient id="paint0_linear_784_10087" x1="45.5071" y1="0.257143" x2="45.5071" y2="86.6571" gradientUnits="userSpaceOnUse">
<stop stop-color="#EAF7FF"/>
<stop offset="1" stop-color="white"/>
</linearGradient>
<clipPath id="clip0_784_10087">
<rect width="90" height="90" fill="white" transform="translate(0.25)"/>
</clipPath>
</defs>
</svg>
