<svg width="88" height="88" viewBox="0 0 88 88" fill="none" xmlns="http://www.w3.org/2000/svg">
<g clip-path="url(#clip0_781_31181)">
<path d="M43.9994 87.8904C68.2392 87.8904 87.8894 68.2401 87.8894 44.0004C87.8894 19.7606 68.2392 0.110352 43.9994 0.110352C19.7596 0.110352 0.109375 19.7606 0.109375 44.0004C0.109375 68.2401 19.7596 87.8904 43.9994 87.8904Z" fill="url(#paint0_linear_781_31181)"/>
<path d="M66.3293 21.6703C68.0893 21.5603 69.5193 22.8803 69.6293 24.6403C69.7393 26.4003 68.4193 27.8303 66.6593 27.9403H57.1993C55.8793 27.9403 54.7793 26.8403 54.7793 25.5203C54.7793 24.2003 55.8793 23.1003 57.1993 23.1003H57.4193C57.0893 21.0103 58.6293 19.0303 60.7193 18.8103C62.8093 18.4803 64.7893 20.0203 65.0093 22.1103C65.3393 21.7803 65.8893 21.6703 66.3293 21.6703Z" fill="white"/>
<path d="M13.3095 28.3802C14.4095 28.2702 15.2895 29.1502 15.3995 30.2502C15.5095 31.3502 14.6295 32.2302 13.5295 32.3402H7.47945C6.59945 32.3402 5.93945 31.6802 5.93945 30.8002C5.93945 29.9202 6.59945 29.2602 7.47945 29.2602H7.58945C7.36945 27.9402 8.35945 26.7302 9.67945 26.5102C10.9995 26.2902 12.2095 27.2802 12.4295 28.6002C12.6495 28.3802 12.9795 28.3802 13.3095 28.3802Z" fill="white"/>
<path d="M65.4501 34.8699C65.4501 34.5399 65.1201 34.2099 64.7901 34.2099H23.2101C22.8801 34.2099 22.5501 34.5399 22.5501 34.8699V38.1699H65.4501V34.8699ZM57.6401 28.3799V24.4199C54.8901 24.8599 52.5801 24.4199 50.7101 23.0999C49.1701 21.9999 47.3001 21.4499 45.2101 21.6699C43.0101 21.5599 41.2501 21.9999 39.7101 23.0999C37.8401 24.4199 35.0901 24.8599 31.3501 24.4199V28.3799H57.6401ZM19.5801 43.9999V80.5199C24.2001 83.4899 29.3701 85.7999 34.9801 86.8999V58.2999C34.9801 54.1199 38.3901 50.8199 42.4601 50.8199H45.3201C49.5001 50.8199 52.8001 54.2299 52.8001 58.2999V86.8999C58.4101 85.6899 63.6901 83.4899 68.3101 80.4099V43.9999H19.5801ZM27.9401 54.9999C26.4001 54.9999 25.1901 53.7899 25.1901 52.2499C25.1901 50.7099 26.4001 49.4999 27.9401 49.4999C29.4801 49.4999 30.6901 50.7099 30.6901 52.2499C30.6901 53.7899 29.4801 54.9999 27.9401 54.9999ZM60.0601 54.9999C58.5201 54.9999 57.3101 53.7899 57.3101 52.2499C57.3101 50.7099 58.5201 49.4999 60.0601 49.4999C61.6001 49.4999 62.8101 50.7099 62.8101 52.2499C62.8101 53.7899 61.6001 54.9999 60.0601 54.9999Z" fill="#91C5E6"/>
<path d="M27.3898 28.3799H61.4898V34.2099H27.3898V28.3799ZM34.9798 65.4499H19.9098C19.2498 65.4499 18.6998 65.9999 18.6998 66.6599V70.9499C18.6998 71.6099 19.2498 72.1599 19.9098 72.1599H34.9798C35.6398 72.1599 36.1898 71.6099 36.1898 70.9499V66.6599C36.1898 65.9999 35.6398 65.4499 34.9798 65.4499ZM68.0898 65.4499H53.0198C52.3598 65.4499 51.8098 65.9999 51.8098 66.6599V70.9499C51.8098 71.6099 52.3598 72.1599 53.0198 72.1599H68.0898C68.7498 72.1599 69.2998 71.6099 69.2998 70.9499V66.6599C69.2998 65.9999 68.7498 65.4499 68.0898 65.4499ZM68.7498 38.1699H19.2498C18.9198 38.1699 18.5898 38.4999 18.5898 38.8299V43.4499C18.5898 43.7799 18.9198 44.1099 19.2498 44.1099H68.6398C68.9698 44.1099 69.2998 43.7799 69.2998 43.4499V38.8299C69.2998 38.3899 69.0798 38.1699 68.7498 38.1699Z" fill="#57A2D4"/>
</g>
<defs>
<linearGradient id="paint0_linear_781_31181" x1="43.9884" y1="0.0993516" x2="43.9884" y2="84.1834" gradientUnits="userSpaceOnUse">
<stop stop-color="#EAF7FF"/>
<stop offset="1" stop-color="white"/>
</linearGradient>
<clipPath id="clip0_781_31181">
<rect width="88" height="88" fill="white"/>
</clipPath>
</defs>
</svg>
