<svg width="91" height="90" viewBox="0 0 91 90" fill="none" xmlns="http://www.w3.org/2000/svg">
<g clip-path="url(#clip0_784_10151)">
<path d="M45.75 90C70.6028 90 90.75 69.8528 90.75 45C90.75 20.1472 70.6028 0 45.75 0C20.8972 0 0.75 20.1472 0.75 45C0.75 69.8528 20.8972 90 45.75 90Z" fill="white"/>
<path d="M45.75 90C70.6028 90 90.75 69.8528 90.75 45C90.75 20.1472 70.6028 0 45.75 0C20.8972 0 0.75 20.1472 0.75 45C0.75 69.8528 20.8972 90 45.75 90Z" fill="url(#paint0_linear_784_10151)"/>
<path d="M54.6377 12.037C56.4377 11.9245 57.9002 13.2745 58.0127 15.0745C58.1252 16.8745 56.7752 18.337 54.9752 18.4495H45.3002C44.6456 18.4437 44.0195 18.181 43.5566 17.7181C43.0937 17.2553 42.8311 16.6291 42.8252 15.9745C42.8311 15.32 43.0937 14.6938 43.5566 14.2309C44.0195 13.7681 44.6456 13.5054 45.3002 13.4995H45.5252C45.1877 11.362 46.7627 9.33705 48.9002 9.11205C51.0377 8.77455 53.0627 10.3495 53.2877 12.487C53.6252 12.1495 54.1877 12.037 54.6377 12.037Z" fill="white"/>
<path fill-rule="evenodd" clip-rule="evenodd" d="M45.7504 36.0004C42.7129 38.9254 41.2504 41.9629 41.2504 45.0004V76.9504H38.7754V89.4379C41.0254 89.7754 43.3879 90.0004 45.7504 90.0004H46.7629M46.7629 90.0004C49.1254 90.0004 51.4879 89.6629 53.7379 89.3254V76.9504H52.2754V45.0004C52.2754 41.9629 50.8129 39.0379 47.7754 36.0004V32.0629L46.7629 29.0254L45.7504 31.9504V36.0004" fill="#57A2D4"/>
<path fill-rule="evenodd" clip-rule="evenodd" d="M67.2375 52.9881C67.2375 49.9506 65.775 46.9131 62.7375 43.9881V42.0756L61.725 39.0381L60.7125 42.0756V43.9881C57.675 47.0256 56.2125 50.0631 56.2125 52.9881V76.9506H54.75V89.1006C62.2875 87.5256 69.15 84.1506 74.775 79.4256V77.0631H67.2375V52.9881ZM36.3 52.9881C36.3 49.9506 34.8375 46.9131 31.8 43.9881V42.0756L30.7875 39.0381L29.775 42.0756V43.9881C26.7375 47.0256 25.275 50.0631 25.275 52.9881V76.9506H18.75V81.0006C24.2625 85.1631 30.675 87.9756 37.7625 89.3256V76.9506H36.3V52.9881Z" fill="#57A2D4"/>
<path d="M29.7746 70.9878H31.7996V75.0378H29.7746V70.9878ZM30.7871 65.0253C30.5212 65.0253 30.2579 64.973 30.0122 64.8712C29.7665 64.7694 29.5433 64.6203 29.3552 64.4322C29.1672 64.2442 29.018 64.021 28.9163 63.7753C28.8145 63.5296 28.7621 63.2663 28.7621 63.0003C28.7621 62.7344 28.8145 62.4711 28.9163 62.2254C29.018 61.9797 29.1672 61.7565 29.3552 61.5684C29.5433 61.3804 29.7665 61.2312 30.0122 61.1295C30.2579 61.0277 30.5212 60.9753 30.7871 60.9753C31.0535 60.9738 31.3174 61.0252 31.5638 61.1264C31.8102 61.2277 32.034 61.3768 32.2223 61.5651C32.4107 61.7535 32.5598 61.9773 32.661 62.2236C32.7622 62.47 32.8136 62.734 32.8121 63.0003C32.6996 64.1253 31.7996 65.0253 30.7871 65.0253ZM60.7121 70.9878H62.7371V75.0378H60.7121V70.9878ZM61.7246 65.0253C61.4587 65.0253 61.1954 64.973 60.9497 64.8712C60.704 64.7694 60.4808 64.6203 60.2927 64.4322C60.1047 64.2442 59.9555 64.021 59.8538 63.7753C59.752 63.5296 59.6996 63.2663 59.6996 63.0003C59.6996 62.7344 59.752 62.4711 59.8538 62.2254C59.9555 61.9797 60.1047 61.7565 60.2927 61.5684C60.4808 61.3804 60.704 61.2312 60.9497 61.1295C61.1954 61.0277 61.4587 60.9753 61.7246 60.9753C61.9905 60.9753 62.2539 61.0277 62.4995 61.1295C62.7452 61.2312 62.9685 61.3804 63.1565 61.5684C63.3445 61.7565 63.4937 61.9797 63.5955 62.2254C63.6972 62.4711 63.7496 62.7344 63.7496 63.0003C63.7496 63.2663 63.6972 63.5296 63.5955 63.7753C63.4937 64.021 63.3445 64.2442 63.1565 64.4322C62.9685 64.6203 62.7452 64.7694 62.4995 64.8712C62.2539 64.973 61.9905 65.0253 61.7246 65.0253ZM40.7996 45.4503C41.1371 45.1128 41.5871 45.0003 42.0371 45.0003H51.5996C52.0496 45.0003 52.4996 45.2253 52.8371 45.4503C52.9496 45.5628 52.9496 45.7878 52.8371 45.9003C52.8371 45.9003 52.7246 46.0128 52.6121 46.0128H41.0246C40.9121 46.0128 40.6871 45.9003 40.6871 45.6753C40.7996 45.6753 40.7996 45.5628 40.7996 45.4503ZM41.8121 40.5003L42.0371 40.2753C42.2621 40.0503 42.4871 39.9378 42.8246 39.9378H50.9246C51.2621 39.9378 51.4871 40.0503 51.7121 40.2753L51.8246 40.5003C51.9371 40.6128 51.9371 40.8378 51.8246 40.9503C51.8246 40.9503 51.7121 41.0628 51.5996 41.0628H42.0371C41.9246 41.0628 41.6996 40.9503 41.6996 40.7253C41.6996 40.6128 41.8121 40.5003 41.8121 40.5003ZM24.8246 52.5378C25.1621 52.2003 25.6121 52.0878 26.0621 52.0878H35.6246C36.0746 52.0878 36.5246 52.3128 36.8621 52.5378C36.9746 52.6503 36.9746 52.8753 36.8621 52.9878C36.8621 52.9878 36.7496 53.1003 36.6371 53.1003H25.0496C24.9371 53.1003 24.7121 52.9878 24.7121 52.7628C24.7121 52.6503 24.8246 52.5378 24.8246 52.5378ZM25.8371 47.4753L26.0621 47.2503C26.2871 47.0253 26.5121 46.9128 26.8496 46.9128H33.9371C34.2746 46.9128 34.4996 47.0253 34.7246 47.2503L34.9496 47.4753C35.0621 47.5878 35.0621 47.8128 34.9496 47.9253C34.9496 47.9253 34.8371 48.0378 34.7246 48.0378H26.1746C26.0621 48.0378 25.8371 47.9253 25.8371 47.7003C25.7246 47.5878 25.8371 47.5878 25.8371 47.4753ZM55.8746 52.5378C56.2121 52.2003 56.6621 52.0878 57.1121 52.0878H66.6746C67.1246 52.0878 67.5746 52.3128 67.9121 52.5378C68.0246 52.6503 68.0246 52.8753 67.9121 52.9878C67.9121 52.9878 67.7996 53.1003 67.6871 53.1003H56.0996C55.9871 53.1003 55.7621 52.9878 55.7621 52.7628C55.7621 52.6503 55.7621 52.5378 55.8746 52.5378ZM56.8871 47.4753L57.1121 47.2503C57.3371 47.0253 57.5621 46.9128 57.8996 46.9128H64.8746C65.2121 46.9128 65.4371 47.0253 65.6621 47.2503L65.8871 47.4753C65.9996 47.5878 65.9996 47.8128 65.8871 47.9253C65.8871 47.9253 65.7746 48.0378 65.6621 48.0378H56.9996C56.8871 48.0378 56.6621 47.9253 56.6621 47.7003L56.8871 47.4753ZM20.3246 38.9253C20.8575 38.9119 21.3753 39.1023 21.7726 39.4578C22.1698 39.8132 22.4164 40.3068 22.4621 40.8378C22.4755 41.3707 22.2851 41.8886 21.9297 42.2858C21.5743 42.683 21.0807 42.9297 20.5496 42.9753H14.3621C13.4621 42.9753 12.7871 42.3003 12.7871 41.4003C12.7871 40.5003 13.4621 39.8253 14.3621 39.8253H14.4746C14.2496 38.4753 15.2621 37.2378 16.6121 37.0128C17.9621 36.7878 19.1996 37.8003 19.4246 39.1503C19.6496 39.0378 19.9871 38.9253 20.3246 38.9253ZM45.7496 67.0503H47.7746V71.1003H45.7496V67.0503Z" fill="white"/>
<path d="M46.7623 56.0256C47.8807 56.0256 48.7873 55.119 48.7873 54.0006C48.7873 52.8822 47.8807 51.9756 46.7623 51.9756C45.6439 51.9756 44.7373 52.8822 44.7373 54.0006C44.7373 55.119 45.6439 56.0256 46.7623 56.0256Z" fill="white"/>
<path d="M46.7623 86.0627C47.8807 86.0627 48.7873 85.1561 48.7873 84.0377C48.7873 82.9193 47.8807 82.0127 46.7623 82.0127C45.6439 82.0127 44.7373 82.9193 44.7373 84.0377C44.7373 85.1561 45.6439 86.0627 46.7623 86.0627Z" fill="white"/>
</g>
<defs>
<linearGradient id="paint0_linear_784_10151" x1="45.75" y1="0" x2="45.75" y2="86.256" gradientUnits="userSpaceOnUse">
<stop stop-color="#EAF7FF"/>
<stop offset="1" stop-color="white"/>
</linearGradient>
<clipPath id="clip0_784_10151">
<rect width="90" height="90" fill="white" transform="translate(0.75)"/>
</clipPath>
</defs>
</svg>
