<svg width="91" height="90" viewBox="0 0 91 90" fill="none" xmlns="http://www.w3.org/2000/svg">
<g clip-path="url(#clip0_784_10167)">
<rect width="90" height="90" transform="translate(0.75)" fill="white"/>
<path d="M45.75 90C70.6028 90 90.75 69.8528 90.75 45C90.75 20.1472 70.6028 0 45.75 0C20.8972 0 0.75 20.1472 0.75 45C0.75 69.8528 20.8972 90 45.75 90Z" fill="url(#paint0_linear_784_10167)"/>
<path d="M45.75 90C70.6028 90 90.75 69.8528 90.75 45C90.75 20.1472 70.6028 0 45.75 0C20.8972 0 0.75 20.1472 0.75 45C0.75 69.8528 20.8972 90 45.75 90Z" fill="url(#paint1_linear_784_10167)"/>
<mask id="mask0_784_10167" style="mask-type:luminance" maskUnits="userSpaceOnUse" x="0" y="0" width="91" height="90">
<path d="M45.75 90C70.6028 90 90.75 69.8528 90.75 45C90.75 20.1472 70.6028 0 45.75 0C20.8972 0 0.75 20.1472 0.75 45C0.75 69.8528 20.8972 90 45.75 90Z" fill="white"/>
</mask>
<g mask="url(#mask0_784_10167)">
<path d="M77.7004 23.0624C79.5004 22.9499 80.9629 24.2999 81.0754 26.0999C81.1879 27.8999 79.8379 29.3624 78.0379 29.4749H68.2504C67.5958 29.4691 66.9697 29.2064 66.5068 28.7435C66.0439 28.2807 65.7813 27.6545 65.7754 26.9999C65.7813 26.3453 66.0439 25.7192 66.5068 25.2563C66.9697 24.7935 67.5958 24.5308 68.2504 24.5249H68.4754C68.1379 22.3874 69.7129 20.3624 71.8504 20.1374C73.9879 19.7999 76.0129 21.3749 76.2379 23.5124C76.6879 23.1749 77.1379 23.0624 77.7004 23.0624Z" fill="white"/>
</g>
<mask id="mask1_784_10167" style="mask-type:luminance" maskUnits="userSpaceOnUse" x="0" y="0" width="91" height="90">
<path d="M45.75 90C70.6028 90 90.75 69.8528 90.75 45C90.75 20.1472 70.6028 0 45.75 0C20.8972 0 0.75 20.1472 0.75 45C0.75 69.8528 20.8972 90 45.75 90Z" fill="white"/>
</mask>
<g mask="url(#mask1_784_10167)">
<path d="M26.2875 15.9751C27.4125 15.8626 28.425 16.7626 28.425 17.8876C28.425 19.0126 27.6375 20.0251 26.5125 20.0251H20.325C19.425 20.0251 18.75 19.3501 18.75 18.4501C18.75 17.5501 19.425 16.8751 20.325 16.8751H20.4375C20.2125 15.5251 21.225 14.2876 22.575 14.0626C23.925 13.8376 25.1625 14.8501 25.3875 16.2001C25.6125 15.9751 25.95 15.9751 26.2875 15.9751Z" fill="white"/>
</g>
<path d="M80.7367 72.3375L76.7992 72.9V70.65L79.8367 70.7625V71.775C80.2867 71.775 80.6242 71.8875 80.9617 72C80.7367 72.225 80.7367 72.225 80.7367 72.3375ZM75.6742 73.125C72.9742 73.4625 58.4617 74.025 48.7867 74.25C40.2367 74.5875 19.6492 73.6875 16.0492 73.575V69.75H75.5617L75.6742 73.125ZM14.9242 72.7875L11.9992 73.6875L12.1117 74.7L10.7617 73.125C11.5492 72.9 13.2367 72.675 14.8117 72.5625V72.7875H14.9242ZM13.5742 76.1625C21.1117 77.7375 40.3492 81.225 63.4117 81.9C45.2992 82.9125 31.1242 82.6875 20.3242 81.9C17.9617 80.325 15.7117 78.3 13.5742 76.1625Z" fill="#57A2D4"/>
<path d="M60.3746 55.0124C59.6996 44.3249 49.7996 40.8374 49.6871 40.8374C46.1996 39.8249 42.0371 40.7249 41.4746 40.8374C31.3496 45.7874 31.0121 53.4374 31.0121 53.5499V60.2999L60.3746 59.8499V55.0124ZM72.1871 68.5124H71.6246V63.2249H19.9871V68.5124H19.4246C18.5246 68.5124 17.7371 68.6249 17.0621 68.7374H74.5496C73.8746 68.6249 72.9746 68.5124 72.1871 68.5124ZM22.2371 83.2499C28.9871 87.4124 36.9746 89.8874 45.5246 89.8874C54.4121 89.8874 62.6246 87.2999 69.5996 82.6874C49.5746 84.0374 34.0496 83.9249 22.2371 83.2499ZM76.3496 74.1374C74.2121 74.6999 53.0621 75.2624 48.7871 75.3749C47.4371 75.3749 45.7496 75.4874 43.8371 75.4874C33.0371 75.4874 16.0496 74.6999 15.3746 74.6999H12.2246C18.6371 76.0499 40.5746 80.3249 66.7871 80.8874H67.2371L67.4621 81.6749C68.6996 81.5624 69.9371 81.5624 71.2871 81.4499C74.3246 79.1999 77.1371 76.6124 79.4996 73.5749C78.7121 73.7999 77.6996 73.9124 76.3496 74.1374Z" fill="#57A2D4"/>
<path d="M17.5117 61.5375V61.9875H74.2117V60.8625L17.5117 61.5375ZM44.9617 22.6125H45.8617V36.3375H46.8742L46.1992 20.8125L45.4117 19.125H44.8492L44.0617 20.8125L43.4992 36.3375H44.9617V22.6125ZM48.2242 39.375C47.8867 38.7 47.6617 37.9125 47.5492 37.4625H42.7117C42.5992 38.1375 42.2617 38.925 42.0367 39.4875C43.3867 39.375 45.7492 39.0375 48.2242 39.375ZM31.2367 22.95H32.3617V24.975H31.2367V22.95ZM31.2367 33.6375H32.3617V35.6625H31.2367V33.6375ZM25.3867 28.8H27.5242V29.925H25.3867V28.8ZM36.1867 28.8H38.3242V29.925H36.1867V28.8ZM31.7992 32.9625C33.8242 32.9625 35.3992 31.3875 35.3992 29.3625C35.3992 27.3375 33.7117 25.7625 31.7992 25.7625C29.7742 25.7625 28.0867 27.3375 28.0867 29.3625C28.1992 31.3875 29.7742 32.9625 31.7992 32.9625Z" fill="#57A2D4"/>
</g>
<defs>
<linearGradient id="paint0_linear_784_10167" x1="45.75" y1="0" x2="45.75" y2="86.256" gradientUnits="userSpaceOnUse">
<stop stop-color="#EAF7FF"/>
<stop offset="1" stop-color="white"/>
</linearGradient>
<linearGradient id="paint1_linear_784_10167" x1="45.75" y1="0" x2="45.75" y2="90" gradientUnits="userSpaceOnUse">
<stop stop-color="#EAF7FF" stop-opacity="0.5"/>
<stop offset="1" stop-color="white" stop-opacity="0.46"/>
</linearGradient>
<clipPath id="clip0_784_10167">
<rect width="90" height="90" fill="white" transform="translate(0.75)"/>
</clipPath>
</defs>
</svg>
