<svg width="91" height="90" viewBox="0 0 91 90" fill="none" xmlns="http://www.w3.org/2000/svg">
<path d="M45.5879 84.375C67.3341 84.375 84.9629 66.7462 84.9629 45C84.9629 23.2538 67.3341 5.625 45.5879 5.625C23.8417 5.625 6.21289 23.2538 6.21289 45C6.21289 66.7462 23.8417 84.375 45.5879 84.375Z" fill="url(#paint0_linear_784_10095)"/>
<path d="M70.9367 24.9498C72.5117 24.8373 73.8617 26.0748 73.9742 27.6498C74.0867 29.2248 72.8492 30.5748 71.2742 30.6873H62.7242C61.4867 30.6873 60.4742 29.6748 60.4742 28.4373C60.4742 27.1998 61.4867 26.1873 62.7242 26.1873H62.8367C62.6117 24.2748 63.8492 22.5873 65.7617 22.3623C67.6742 22.1373 69.3617 23.3748 69.5867 25.2873C70.0367 25.0623 70.4867 24.9498 70.9367 24.9498ZM23.3492 39.6873C24.3617 39.5748 25.1492 40.3623 25.2617 41.3748C25.3742 42.3873 24.5867 43.1748 23.5742 43.2873H18.1742C17.3867 43.2873 16.8242 42.6123 16.8242 41.9373C16.8242 41.1498 17.4992 40.5873 18.1742 40.5873H18.2867C18.1742 39.3498 18.9617 38.3373 20.0867 38.1123C21.3242 37.9998 22.3367 38.7873 22.5617 39.9123C22.7867 39.7998 23.0117 39.6873 23.3492 39.6873Z" fill="white"/>
<path fill-rule="evenodd" clip-rule="evenodd" d="M21.0625 69.1871L33.1 58.1621H57.2875L46.15 69.1871H21.0625Z" fill="#57A2D4"/>
<path d="M45.1383 21.0373C46.2567 21.0373 47.1633 20.1307 47.1633 19.0123C47.1633 17.8939 46.2567 16.9873 45.1383 16.9873C44.0199 16.9873 43.1133 17.8939 43.1133 19.0123C43.1133 20.1307 44.0199 21.0373 45.1383 21.0373Z" fill="#57A2D4"/>
<path d="M32.2 46.125H34.225V56.1375H32.2V46.125ZM40.1875 51.075C40.1875 49.95 39.2875 49.05 38.1625 49.05C37.0375 49.05 36.1375 49.95 36.1375 51.075V56.1375H40.1875V51.075ZM50.2 49.1625C49.075 49.1625 48.175 50.0625 48.175 51.1875V56.25H52.225V51.1875C52.225 50.0625 51.325 49.1625 50.2 49.1625ZM54.25 46.125H56.275V56.1375H54.25V46.125ZM42.2125 46.125H46.2625V56.1375H42.2125V46.125ZM21.0625 75.825C27.8125 81.225 36.25 84.375 45.5875 84.375H46.15V70.2H21.0625V75.825ZM32.2 72.225H34.225V74.25H32.2V72.225ZM29.1625 72.225H31.1875V74.25H29.1625V72.225ZM26.125 72.225H28.15V74.25H26.125V72.225ZM23.0875 72.225H25.1125V74.25H23.0875V72.225Z" fill="#57A2D4"/>
<path d="M52.2262 45.1121H56.2762L45.1387 21.0371L32.2012 45.1121H38.1637L40.1887 39.0371L42.2137 45.1121H47.1637L49.1887 39.0371L52.2262 45.1121ZM62.5762 58.7246V54.6746L60.5512 52.6496L58.5262 54.6746V59.7371L47.5012 70.7621V84.3746C49.5262 84.2621 51.5512 84.0371 53.5762 83.5871V74.8121H55.6012V69.7496C55.6012 69.1871 56.0512 68.7371 56.6137 68.7371C57.1762 68.7371 57.6262 69.1871 57.6262 69.7496V74.8121H59.6512V81.8996C61.0012 81.3371 62.3512 80.7746 63.7012 80.0996V74.8121H65.7262V69.7496C65.7262 69.1871 66.1762 68.7371 66.7387 68.7371C67.3012 68.7371 67.7512 69.1871 67.7512 69.7496V74.8121H69.7762V76.2746C71.5762 74.9246 73.2637 73.3496 74.8387 71.6621V66.8246L62.5762 58.7246Z" fill="#57A2D4"/>
<defs>
<linearGradient id="paint0_linear_784_10095" x1="45.6216" y1="5.6025" x2="45.6216" y2="81.1238" gradientUnits="userSpaceOnUse">
<stop stop-color="#EAF7FF"/>
<stop offset="1" stop-color="white"/>
</linearGradient>
</defs>
</svg>
