<svg width="46" height="33" viewBox="0 0 46 33" fill="none" xmlns="http://www.w3.org/2000/svg">
<path d="M42.5996 16.5L22.3848 2.52539L3.26855 16.5L22.3848 30.4746L42.5996 16.5ZM0.5 16.5L22.3848 0.459961L45.5 16.5L22.3848 32.54L0.5 16.5ZM23.6592 26.2559C23.5713 26.2559 23.4761 26.2412 23.3735 26.2119C23.271 26.1826 23.1904 26.1533 23.1318 26.124C21.9014 25.3916 20.9126 24.5713 20.1655 23.6631C19.4185 22.7549 18.9131 21.7588 18.6494 20.6748C18.4443 19.8252 18.3857 19.0342 18.4736 18.3018C18.5615 17.5693 18.6787 16.8955 18.8252 16.2803C19.0303 15.5771 19.3159 14.8008 19.6821 13.9512C20.0483 13.1016 20.2314 12.6768 20.2314 12.6768C20.2314 12.6768 20.3486 13.248 20.583 14.3906C20.8174 15.5332 20.8467 16.4121 20.6709 17.0273C20.5537 17.4961 20.4731 18.0015 20.4292 18.5435C20.3853 19.0854 20.4219 19.6641 20.5391 20.2793C20.7441 21.0117 21.0957 21.7075 21.5938 22.3667C22.0918 23.0259 22.7656 23.6191 23.6152 24.1465C23.9668 23.8828 24.3989 23.458 24.9116 22.8721C25.4243 22.2861 25.7832 21.5537 25.9883 20.6748C26.1641 19.8838 26.1421 19.0562 25.9224 18.1919C25.7026 17.3276 25.2998 16.4268 24.7139 15.4893C24.1865 14.6982 23.769 13.9805 23.4614 13.3359C23.1538 12.6914 22.9121 12.0469 22.7363 11.4023C22.4727 10.4648 22.5093 9.47607 22.8462 8.43604C23.1831 7.396 23.3516 6.87598 23.3516 6.87598C23.3516 6.87598 23.4395 7.24951 23.6152 7.99658C23.791 8.74365 24.1572 9.73242 24.7139 10.9629C24.9482 11.4609 25.1973 12.0103 25.4609 12.6108C25.7246 13.2114 26.0469 13.8047 26.4277 14.3906C27.1895 15.5332 27.7021 16.6685 27.9658 17.7964C28.2295 18.9243 28.2295 20.0156 27.9658 21.0703C27.5557 22.6816 26.8379 23.9121 25.8125 24.7617C24.7871 25.6113 24.2451 26.0508 24.1865 26.0801C24.0986 26.1387 24.0107 26.1826 23.9229 26.2119C23.835 26.2412 23.7471 26.2559 23.6592 26.2559ZM22.6045 16.4121C22.6045 16.4121 22.8242 17.0347 23.2637 18.2798C23.7031 19.5249 23.7324 20.8213 23.3516 22.1689L22.6045 16.4121Z" fill="#24272C"/>
</svg>
