<svg width="40" height="45" viewBox="0 0 40 45" fill="none" xmlns="http://www.w3.org/2000/svg">
<path d="M33.2266 45H7.82617C7.5918 45 7.40137 44.9268 7.25488 44.7803C7.1084 44.6338 7.03516 44.4434 7.03516 44.209V3.12012C7.03516 2.27051 7.34277 1.53809 7.95801 0.922852C8.57324 0.307617 9.30566 0 10.1553 0H30.9854C31.835 0 32.5674 0.307617 33.1826 0.922852C33.7979 1.53809 34.1055 2.27051 34.1055 3.12012V44.2969C34.0469 44.502 33.9443 44.6704 33.7979 44.8022C33.6514 44.9341 33.4609 45 33.2266 45ZM8.61719 43.418H32.5234V3.12012C32.5234 2.68066 32.3696 2.31445 32.062 2.02148C31.7544 1.72852 31.3955 1.58203 30.9854 1.58203H10.1553C9.74512 1.58203 9.38623 1.72852 9.07861 2.02148C8.771 2.31445 8.61719 2.68066 8.61719 3.12012V43.418ZM18.417 33.7061V26.4111H20.79C21.0244 26.4111 21.2515 26.4331 21.4712 26.4771C21.6909 26.521 21.9033 26.5869 22.1084 26.6748C22.3428 26.7627 22.5479 26.8652 22.7236 26.9824C22.8994 27.0996 23.0605 27.2314 23.207 27.3779C23.3535 27.5537 23.4854 27.7295 23.6025 27.9053C23.7197 28.0811 23.8223 28.2861 23.9102 28.5205C23.998 28.7256 24.0566 28.9453 24.0859 29.1797C24.1152 29.4141 24.1299 29.6631 24.1299 29.9268V30.2344C24.1299 30.498 24.1152 30.7471 24.0859 30.9814C24.0566 31.2158 23.998 31.4355 23.9102 31.6406C23.8223 31.8457 23.7197 32.0435 23.6025 32.2339C23.4854 32.4243 23.3535 32.5928 23.207 32.7393C23.0605 32.8857 22.8994 33.0176 22.7236 33.1348C22.5479 33.252 22.3574 33.3545 22.1523 33.4424C21.9473 33.5303 21.7275 33.5962 21.4932 33.6401C21.2588 33.6841 21.0244 33.7061 20.79 33.7061H18.417ZM20.1748 27.7734V32.3438H20.79C21.0537 32.3438 21.2808 32.2998 21.4712 32.2119C21.6616 32.124 21.8154 31.9922 21.9326 31.8164C22.0791 31.6406 22.189 31.4209 22.2622 31.1572C22.3354 30.8936 22.3721 30.5859 22.3721 30.2344V29.9268C22.3721 29.5459 22.3354 29.2236 22.2622 28.96C22.189 28.6963 22.0791 28.4766 21.9326 28.3008C21.8154 28.125 21.6543 27.9932 21.4492 27.9053C21.2441 27.8174 21.0244 27.7734 20.79 27.7734H20.1748ZM33.2266 21.4893H7.82617C7.5918 21.4893 7.40137 21.416 7.25488 21.2695C7.1084 21.123 7.03516 20.9326 7.03516 20.6982C7.03516 20.4639 7.1084 20.2734 7.25488 20.127C7.40137 19.9805 7.5918 19.9072 7.82617 19.9072H33.3145C33.5488 19.9072 33.7393 19.9805 33.8857 20.127C34.0322 20.2734 34.1055 20.4639 34.1055 20.6982C34.1055 20.9326 34.0176 21.123 33.8418 21.2695C33.666 21.416 33.4609 21.4893 33.2266 21.4893ZM28.5684 17.0508H12.8799C12.6455 17.0508 12.4697 16.9849 12.3525 16.853C12.2354 16.7212 12.1768 16.5527 12.1768 16.3477V6.50391C12.1768 6.29883 12.2354 6.13037 12.3525 5.99854C12.4697 5.8667 12.6455 5.80078 12.8799 5.80078H28.5684C28.8027 5.80078 28.9858 5.8667 29.1177 5.99854C29.2495 6.13037 29.3154 6.29883 29.3154 6.50391V16.3477C29.3154 16.5527 29.2495 16.7212 29.1177 16.853C28.9858 16.9849 28.8027 17.0508 28.5684 17.0508ZM13.583 15.6445H27.8652V7.20703H13.583V15.6445ZM39.1592 45H1.89355C1.65918 45 1.46875 44.9268 1.32227 44.7803C1.17578 44.6338 1.10254 44.4434 1.10254 44.209C1.10254 43.9746 1.17578 43.7842 1.32227 43.6377C1.46875 43.4912 1.65918 43.418 1.89355 43.418H39.1152C39.3496 43.418 39.5327 43.4912 39.6646 43.6377C39.7964 43.7842 39.8623 43.9746 39.8623 44.209C39.8623 44.4434 39.7964 44.6338 39.6646 44.7803C39.5327 44.9268 39.3643 45 39.1592 45ZM7.73828 33.2666C7.65039 33.2666 7.58447 33.2666 7.54053 33.2666C7.49658 33.2666 7.43066 33.252 7.34277 33.2227C5.05762 32.0508 3.26318 30.52 1.95947 28.6304C0.655762 26.7407 0.00390625 24.6973 0.00390625 22.5C0.00390625 20.3027 0.655762 18.2593 1.95947 16.3696C3.26318 14.48 5.05762 12.9492 7.34277 11.7773C7.54785 11.6602 7.75293 11.6382 7.95801 11.7114C8.16309 11.7847 8.29492 11.9238 8.35352 12.1289C8.4707 12.3047 8.5 12.4951 8.44141 12.7002C8.38281 12.9053 8.25098 13.0518 8.0459 13.1396C6.02441 14.1357 4.44238 15.4614 3.2998 17.1167C2.15723 18.772 1.58594 20.5371 1.58594 22.4121C1.58594 24.2871 2.15723 26.0522 3.2998 27.7075C4.44238 29.3628 6.02441 30.7031 8.0459 31.7285C8.25098 31.7871 8.38281 31.9336 8.44141 32.168C8.5 32.4023 8.4707 32.5928 8.35352 32.7393C8.35352 32.9443 8.2876 33.0835 8.15576 33.1567C8.02393 33.23 7.88477 33.2666 7.73828 33.2666ZM7.34277 16.9189C6.40527 16.9189 5.61426 16.5967 4.96973 15.9521C4.3252 15.3076 4.00293 14.5166 4.00293 13.5791C4.00293 12.6416 4.3252 11.8506 4.96973 11.2061C5.61426 10.5615 6.40527 10.2393 7.34277 10.2393V16.9189Z" fill="#24272C"/>
</svg>
