<svg width="44" height="45" viewBox="0 0 44 45" fill="none" xmlns="http://www.w3.org/2000/svg">
<path d="M41.6865 10.3271H30.2607V1.31836C30.2607 0.966797 30.1362 0.65918 29.8872 0.395508C29.6382 0.131836 29.3232 0 28.9424 0C28.5908 0 28.2832 0.131836 28.0195 0.395508C27.7559 0.65918 27.624 0.966797 27.624 1.31836V10.3271H16.374V1.31836C16.374 0.966797 16.2422 0.65918 15.9785 0.395508C15.7148 0.131836 15.4072 0 15.0557 0C14.6748 0 14.3525 0.131836 14.0889 0.395508C13.8252 0.65918 13.6934 0.966797 13.6934 1.31836V10.3271H2.31152C1.93066 10.3271 1.6084 10.4517 1.34473 10.7007C1.08105 10.9497 0.949219 11.25 0.949219 11.6016C0.949219 11.9824 1.08105 12.2974 1.34473 12.5464C1.6084 12.7954 1.93066 12.9199 2.31152 12.9199H7.93652V20.7861C7.93652 22.4854 8.22949 24.1113 8.81543 25.6641C9.43066 27.1875 10.2729 28.5645 11.3423 29.7949C12.4116 31.0254 13.6641 32.0508 15.0996 32.8711C16.5645 33.6914 18.1465 34.2334 19.8457 34.4971L20.6807 34.6289V43.6816C20.6807 44.0332 20.8052 44.3408 21.0542 44.6045C21.3032 44.8682 21.6182 45 21.999 45C22.3799 45 22.6948 44.8682 22.9438 44.6045C23.1929 44.3408 23.3174 44.0332 23.3174 43.6816V34.6289L24.1523 34.4971C25.8516 34.2334 27.4336 33.6914 28.8984 32.8711C30.334 32.0508 31.5864 31.0254 32.6558 29.7949C33.7251 28.5645 34.5674 27.1875 35.1826 25.6641C35.7686 24.1113 36.0615 22.4854 36.0615 20.7861V12.9199H41.6865C42.0674 12.9199 42.3896 12.7954 42.6533 12.5464C42.917 12.2974 43.0488 11.9824 43.0488 11.6016C43.0488 11.25 42.917 10.9497 42.6533 10.7007C42.3896 10.4517 42.0674 10.3271 41.6865 10.3271ZM33.4248 20.7861C33.4248 22.3389 33.1172 23.8037 32.502 25.1807C31.916 26.5283 31.103 27.7148 30.063 28.7402C29.0229 29.7656 27.8145 30.5713 26.4375 31.1572C25.0605 31.7725 23.5811 32.0801 21.999 32.0801C20.417 32.0801 18.9375 31.7725 17.5605 31.1572C16.1836 30.5713 14.9751 29.7656 13.9351 28.7402C12.895 27.7148 12.082 26.5283 11.4961 25.1807C10.8809 23.8037 10.5732 22.3389 10.5732 20.7861V12.9199H33.4248V20.7861Z" fill="#24272C"/>
</svg>
