<svg width="38" height="45" viewBox="0 0 38 45" fill="none" xmlns="http://www.w3.org/2000/svg">
<path d="M18.8682 45C16.1436 45 13.6533 44.5605 11.3975 43.6816C9.1416 42.8027 7.19336 41.5869 5.55273 40.0342C3.91211 38.4814 2.6377 36.6357 1.72949 34.4971C0.821289 32.3584 0.367188 30.0293 0.367188 27.5098C0.367188 26.1621 0.542969 24.8145 0.894531 23.4668C1.2168 22.1484 1.59033 20.9473 2.01514 19.8633C2.43994 18.7793 2.84277 17.9004 3.22363 17.2266C3.5752 16.5234 3.76562 16.1426 3.79492 16.084C3.94141 15.8496 4.14648 15.6665 4.41016 15.5347C4.67383 15.4028 4.95215 15.3516 5.24512 15.3809C5.53809 15.4395 5.79443 15.564 6.01416 15.7544C6.23389 15.9448 6.37305 16.1719 6.43164 16.4355C6.43164 16.4355 6.62939 17.0654 7.0249 18.3252C7.42041 19.585 7.92578 20.6543 8.54102 21.5332C8.92188 22.1191 9.31738 22.6318 9.72754 23.0713C10.1377 23.5107 10.5771 23.877 11.0459 24.1699C10.7529 22.8809 10.5332 21.3208 10.3867 19.4897C10.2402 17.6587 10.3574 15.7617 10.7383 13.7988C11.2363 11.0449 12.0859 8.78906 13.2871 7.03125C14.4883 5.27344 15.7041 3.88916 16.9346 2.87842C18.165 1.86768 19.2783 1.15723 20.2744 0.74707C21.2412 0.366211 21.7686 0.161133 21.8564 0.131836C22.1201 0.0732422 22.3691 0.0732422 22.6035 0.131836C22.8379 0.19043 23.043 0.292969 23.2188 0.439453C23.3945 0.615234 23.519 0.820312 23.5923 1.05469C23.6655 1.28906 23.6875 1.52344 23.6582 1.75781C23.6582 1.78711 23.5996 2.24121 23.4824 3.12012C23.3652 3.96973 23.314 5.08301 23.3286 6.45996C23.3433 7.83691 23.4678 9.36035 23.7021 11.0303C23.9658 12.7295 24.4785 14.3994 25.2402 16.04C25.3867 16.3037 25.5479 16.6113 25.7236 16.9629C25.8994 17.3145 26.0898 17.666 26.2949 18.0176C26.3828 17.5488 26.4707 17.0581 26.5586 16.5454C26.6465 16.0327 26.749 15.5273 26.8662 15.0293C27.4521 13.0957 28.2798 11.748 29.3491 10.9863C30.4185 10.2246 30.9824 9.81445 31.041 9.75586C31.3047 9.66797 31.5684 9.63867 31.832 9.66797C32.0957 9.69727 32.3301 9.7998 32.5352 9.97559C32.7695 10.1514 32.9307 10.3564 33.0186 10.5908C33.1064 10.8252 33.1211 11.0742 33.0625 11.3379C33.0625 11.3672 33.0845 11.9824 33.1284 13.1836C33.1724 14.3848 33.7656 15.9229 34.9082 17.7979C35.9629 19.4678 36.6733 20.9839 37.0396 22.3462C37.4058 23.7085 37.5889 25.4443 37.5889 27.5537C37.5889 30.0732 37.1348 32.4023 36.2266 34.541C35.2891 36.6504 33.9927 38.4814 32.3374 40.0342C30.6821 41.5869 28.6973 42.8027 26.3828 43.6816C24.0977 44.5605 21.5928 45 18.8682 45ZM4.80566 20.6104C4.39551 21.5771 4.0293 22.6758 3.70703 23.9062C3.38477 25.1367 3.22363 26.3525 3.22363 27.5537C3.22363 29.6924 3.60449 31.6553 4.36621 33.4424C5.12793 35.2295 6.20459 36.7822 7.59619 38.1006C8.98779 39.4189 10.6357 40.4443 12.54 41.1768C14.4443 41.9092 16.5537 42.2754 18.8682 42.2754C21.1826 42.2754 23.3066 41.9092 25.2402 41.1768C27.2031 40.4443 28.8877 39.4189 30.2939 38.1006C31.7002 36.7822 32.7988 35.2295 33.5898 33.4424C34.3809 31.6553 34.7764 29.6924 34.7764 27.5537C34.7764 25.7373 34.6299 24.2725 34.3369 23.1592C34.0439 22.0459 33.4434 20.7422 32.5352 19.248C31.9492 18.2812 31.4951 17.3657 31.1729 16.5015C30.8506 15.6372 30.6162 14.8535 30.4697 14.1504C30.3232 14.3555 30.1841 14.5972 30.0522 14.8755C29.9204 15.1538 29.8252 15.4688 29.7666 15.8203C29.3271 17.3438 29.1074 18.8086 29.1074 20.2148C29.1074 21.6211 29.1074 22.3389 29.1074 22.3682C29.1367 22.6904 29.0635 22.9761 28.8877 23.2251C28.7119 23.4741 28.4775 23.6572 28.1846 23.7744C27.8916 23.8623 27.584 23.8623 27.2617 23.7744C26.9395 23.6865 26.6904 23.5254 26.5146 23.291C26.4561 23.2031 25.9507 22.4707 24.9985 21.0938C24.0464 19.7168 23.292 18.4277 22.7354 17.2266C22.1494 15.9961 21.6953 14.751 21.373 13.4912C21.0508 12.2314 20.8311 11.0229 20.7139 9.86572C20.5967 8.7085 20.5381 7.60254 20.5381 6.54785C20.5674 5.52246 20.6113 4.62891 20.6699 3.86719C19.4688 4.54102 18.1138 5.69092 16.605 7.31689C15.0962 8.94287 14.0488 11.2793 13.4629 14.3262C13.1992 15.8203 13.0967 17.2852 13.1553 18.7207C13.2432 20.1562 13.3896 21.438 13.5947 22.5659C13.7998 23.6938 14.0049 24.6094 14.21 25.3125C14.4443 25.9863 14.5615 26.3379 14.5615 26.3672C14.6787 26.6016 14.7007 26.8506 14.6274 27.1143C14.5542 27.3779 14.4297 27.5977 14.2539 27.7734C14.0781 27.9785 13.8657 28.1177 13.6167 28.1909C13.3677 28.2642 13.1113 28.2715 12.8477 28.2129C12.7598 28.1543 11.9248 27.7881 10.3428 27.1143C8.76074 26.4404 7.3252 25.0928 6.03613 23.0713C5.80176 22.6904 5.58203 22.2876 5.37695 21.8628C5.17188 21.438 4.98145 21.0205 4.80566 20.6104Z" fill="#24272C"/>
</svg>
