<svg width="40" height="45" viewBox="0 0 40 45" fill="none" xmlns="http://www.w3.org/2000/svg">
<path d="M33.2251 45H7.91895C7.68463 45 7.50157 44.9268 7.36977 44.7803C7.23797 44.6338 7.17207 44.4434 7.17207 44.209V3.12012C7.17207 2.27051 7.47228 1.53809 8.07272 0.922852C8.67316 0.307617 9.41272 0 10.2914 0H30.9845C31.8339 0 32.5661 0.307617 33.1812 0.922852C33.7963 1.53809 34.1038 2.27051 34.1038 3.12012V44.2969C34.0452 44.502 33.9427 44.6704 33.7963 44.8022C33.6498 44.9341 33.4594 45 33.2251 45ZM8.70977 43.418H32.5222V3.12012C32.5222 2.68066 32.3684 2.31445 32.0609 2.02148C31.7533 1.72852 31.3945 1.58203 30.9845 1.58203H10.2914C9.85206 1.58203 9.47862 1.72852 9.17108 2.02148C8.86354 2.31445 8.70977 2.68066 8.70977 3.12012V43.418ZM20.0009 30.498V32.959H18.2435V25.708H21.1432C21.3775 25.708 21.5898 25.7227 21.7802 25.752C21.9706 25.7812 22.1537 25.8252 22.3294 25.8838C22.5051 25.9424 22.6662 26.0156 22.8127 26.1035C22.9591 26.1914 23.0909 26.2939 23.2081 26.4111C23.3545 26.499 23.4717 26.6089 23.5596 26.7407C23.6474 26.8726 23.7207 27.0117 23.7792 27.1582C23.8378 27.334 23.8891 27.5024 23.933 27.6636C23.9769 27.8247 23.9989 27.9932 23.9989 28.1689C23.9989 28.3447 23.9769 28.5132 23.933 28.6743C23.8891 28.8354 23.8378 28.9893 23.7792 29.1357C23.7207 29.2822 23.6474 29.4141 23.5596 29.5312C23.4717 29.6484 23.3545 29.7656 23.2081 29.8828C23.0909 29.9707 22.9591 30.0513 22.8127 30.1245C22.6662 30.1978 22.5051 30.2637 22.3294 30.3223C22.1537 30.3809 21.9706 30.4248 21.7802 30.4541C21.5898 30.4834 21.3775 30.498 21.1432 30.498H20.0009ZM20.0009 29.1357H21.1432C21.231 29.1357 21.3189 29.1284 21.4068 29.1138C21.4946 29.0991 21.5679 29.0918 21.6265 29.0918C21.685 29.0625 21.7436 29.0332 21.8022 29.0039C21.8608 28.9746 21.9047 28.9307 21.934 28.8721C21.9926 28.8428 22.0365 28.7988 22.0658 28.7402C22.0951 28.6816 22.1244 28.623 22.1537 28.5645C22.1537 28.5059 22.161 28.4399 22.1756 28.3667C22.1903 28.2935 22.1976 28.2275 22.1976 28.1689C22.1976 28.1104 22.1903 28.0444 22.1756 27.9712C22.161 27.8979 22.1537 27.8174 22.1537 27.7295C22.1244 27.6709 22.0951 27.6123 22.0658 27.5537C22.0365 27.4951 21.9926 27.4365 21.934 27.3779C21.9047 27.3193 21.8608 27.2754 21.8022 27.2461C21.7436 27.2168 21.685 27.1875 21.6265 27.1582C21.5679 27.1289 21.4946 27.0996 21.4068 27.0703C21.3189 27.041 21.231 27.0264 21.1432 27.0264H20.0009V29.1357ZM33.2251 21.4893H7.91895C7.68463 21.4893 7.50157 21.416 7.36977 21.2695C7.23797 21.123 7.17207 20.9326 7.17207 20.6982C7.17207 20.4639 7.23797 20.2734 7.36977 20.127C7.50157 19.9805 7.68463 19.9072 7.91895 19.9072H33.313C33.5473 19.9072 33.7377 19.9805 33.8841 20.127C34.0306 20.2734 34.1038 20.4639 34.1038 20.6982C34.1038 20.9326 34.0159 21.123 33.8402 21.2695C33.6645 21.416 33.4594 21.4893 33.2251 21.4893ZM39.1562 45H2.03175C1.79744 45 1.60705 44.9268 1.46061 44.7803C1.31416 44.6338 1.24094 44.4434 1.24094 44.209C1.24094 43.9746 1.31416 43.7842 1.46061 43.6377C1.60705 43.4912 1.79744 43.418 2.03175 43.418H39.0684C39.3027 43.418 39.4931 43.4912 39.6395 43.6377C39.786 43.7842 39.8592 43.9746 39.8592 44.209C39.8592 44.4434 39.7933 44.6338 39.6615 44.7803C39.5297 44.9268 39.3613 45 39.1562 45ZM7.87502 33.2666C7.78715 33.2666 7.71392 33.2666 7.65534 33.2666C7.59677 33.2666 7.53819 33.252 7.47961 33.2227C5.16573 32.0508 3.36443 30.52 2.07569 28.6304C0.786948 26.7407 0.142578 24.6973 0.142578 22.5C0.142578 20.3027 0.786948 18.2593 2.07569 16.3696C3.36443 14.48 5.16573 12.9492 7.47961 11.7773C7.65534 11.6602 7.84573 11.6382 8.05075 11.7114C8.25578 11.7847 8.40223 11.9238 8.4901 12.1289C8.60725 12.3047 8.62922 12.4951 8.556 12.7002C8.48277 12.9053 8.35829 13.0518 8.18256 13.1396C6.16158 14.1357 4.57994 15.4614 3.43765 17.1167C2.29536 18.772 1.72421 20.5371 1.72421 22.4121C1.72421 24.2871 2.29536 26.0522 3.43765 27.7075C4.57994 29.3628 6.16158 30.7031 8.18256 31.7285C8.35829 31.7871 8.48277 31.9336 8.556 32.168C8.62922 32.4023 8.60725 32.5928 8.4901 32.7393C8.4901 32.9443 8.42419 33.0835 8.29239 33.1567C8.16059 33.23 8.02146 33.2666 7.87502 33.2666ZM28.612 17.0508H12.9714C12.7371 17.0508 12.5613 16.9849 12.4442 16.853C12.327 16.7212 12.2684 16.5527 12.2684 16.3477V6.50391C12.2684 6.29883 12.327 6.13037 12.4442 5.99854C12.5613 5.8667 12.7371 5.80078 12.9714 5.80078H28.612C28.817 5.80078 28.9854 5.8667 29.1173 5.99854C29.2491 6.13037 29.315 6.29883 29.315 6.50391V16.3477C29.315 16.5527 29.2491 16.7212 29.1173 16.853C28.9854 16.9849 28.817 17.0508 28.612 17.0508ZM13.6743 15.6445H27.9091V7.20703H13.6743V15.6445ZM7.47961 16.9189C6.54234 16.9189 5.75152 16.5967 5.10715 15.9521C4.46278 15.3076 4.1406 14.5166 4.1406 13.5791C4.1406 12.6416 4.46278 11.8506 5.10715 11.2061C5.75152 10.5615 6.54234 10.2393 7.47961 10.2393V16.9189Z" fill="#24272C"/>
</svg>
