<svg width="115" height="49" viewBox="0 0 115 49" fill="none" xmlns="http://www.w3.org/2000/svg">
<g clip-path="url(#clip0_781_33568)">
<path d="M103.146 0.859375H11.4659C5.13668 0.859375 0.00585938 5.99019 0.00585938 12.3194V37.1494C0.00585938 43.4786 5.13668 48.6094 11.4659 48.6094H103.146C109.475 48.6094 114.606 43.4786 114.606 37.1494V12.3194C114.606 5.99019 109.475 0.859375 103.146 0.859375Z" fill="white"/>
<path d="M26.2302 14.2285C27.4437 16.313 28.6676 18.3914 29.8678 20.4837C27.9277 23.9059 26.0157 27.3447 24.0101 30.7293C23.2405 32.0285 22.492 33.3399 21.7312 34.6435C19.2642 34.6584 16.7971 34.6575 14.3301 34.654C14.4053 34.485 14.4798 34.3151 14.5708 34.154C18.4553 27.511 22.3546 20.8767 26.2302 14.2285Z" fill="#AE285D"/>
<path d="M79.9139 19.3535C81.2779 21.8959 82.641 24.4374 84.0032 26.9806C83.5226 26.9902 83.042 26.9657 82.5622 26.9823C82.24 26.422 81.9608 25.8381 81.6456 25.2743C80.434 25.2384 79.2214 25.263 78.009 25.2603C77.7165 25.8407 77.3979 26.4063 77.088 26.9762C76.6143 26.9718 76.1407 26.9859 75.668 26.9815C77.0634 24.4277 78.4633 21.8758 79.9139 19.3535ZM78.6156 24.173C79.442 24.1844 80.2694 24.1826 81.0967 24.1896C80.6826 23.4192 80.3096 22.6269 79.8658 21.8731C79.4403 22.6357 79.0236 23.4017 78.6156 24.173Z" fill="#AE285D"/>
<path d="M84.7972 19.3242C86.8562 21.1137 88.9153 22.9039 90.949 24.7232C91.005 23.0817 90.942 21.4402 90.9919 19.7987C91.4322 19.8074 91.8727 19.8144 92.313 19.8223C92.299 22.3507 92.3059 24.8799 92.3034 27.4082C90.9508 26.2833 89.6515 25.0953 88.3156 23.9493C87.5723 23.3137 86.8361 22.6711 86.126 21.9997C86.1086 23.6621 86.134 25.3255 86.0981 26.988C85.6603 26.9897 85.2226 26.9784 84.7857 26.9819C84.7892 24.4291 84.7674 21.877 84.7972 19.3242Z" fill="#AE285D"/>
<path d="M41.2754 26.9716C42.6981 24.4319 44.0839 21.872 45.5389 19.3516C46.8941 21.8965 48.2572 24.438 49.6282 26.9742C49.1406 26.9855 48.6538 26.9847 48.1662 26.975C47.8703 26.4069 47.5674 25.8422 47.2846 25.267C46.0686 25.2513 44.8535 25.2644 43.6374 25.2644C43.3205 25.8378 43.0342 26.4296 42.6919 26.9891C42.2192 26.976 41.7474 26.9855 41.2754 26.9716ZM44.2283 24.1806C45.0592 24.1771 45.8909 24.1884 46.7225 24.1859C46.3041 23.4199 45.9364 22.6266 45.4873 21.8773C45.0644 22.6441 44.6468 23.4119 44.2283 24.1806Z" fill="#AE285D"/>
<path d="M61.5219 20.0095C62.2171 19.6672 63.0312 19.6226 63.7833 19.774C64.4346 19.9115 64.9581 20.3745 65.3556 20.8876C65.0028 21.0662 64.6526 21.2474 64.306 21.4374C63.8385 20.7064 62.7257 20.4735 62.0473 21.0434C61.6875 21.3008 61.7163 21.9346 62.1225 22.1308C63.033 22.6324 64.1405 22.7401 64.9476 23.4343C65.7706 24.1321 65.739 25.5267 64.9766 26.2586C64.1579 27.0885 62.8614 27.2689 61.7732 26.958C60.8619 26.7278 60.1764 25.89 60.0547 24.969C60.495 24.8727 60.9398 24.793 61.3854 24.7239C61.4388 25.1555 61.6026 25.6309 62.0096 25.8479C62.6539 26.1937 63.5881 26.1071 64.0328 25.4829C64.3462 25.0583 64.2534 24.4061 63.8253 24.0953C62.9306 23.4956 61.7426 23.4588 60.9398 22.7033C60.516 22.3426 60.3401 21.7403 60.4845 21.2054C60.5992 20.66 61.0448 20.2564 61.5219 20.0095Z" fill="#AE285D"/>
<path d="M50.0547 19.8484C50.5545 19.7828 51.0597 19.8056 51.5622 19.8108C52.0997 20.611 52.6364 21.4112 53.1748 22.2104C53.7412 21.4207 54.2919 20.6197 54.8505 19.8248C55.3661 19.8081 55.8818 19.7994 56.3974 19.8152C55.5797 20.9524 54.7568 22.087 53.9373 23.2234C54.7717 24.4884 55.6821 25.7035 56.4972 26.9817C56.006 26.9844 55.515 26.98 55.0238 26.9756C54.3987 26.0765 53.778 25.1739 53.153 24.2748C52.5068 25.1774 51.8555 26.0756 51.2173 26.9834C50.72 26.9931 50.2219 26.9861 49.7246 26.987C50.5896 25.7193 51.5 24.484 52.3992 23.24C51.6261 22.1037 50.8382 20.9778 50.0547 19.8484Z" fill="#AE285D"/>
<path d="M57.61 19.8166C58.0529 19.8034 58.4951 19.8042 58.938 19.8139C58.9407 22.203 58.9389 24.5922 58.9389 26.9813C58.4889 26.9822 58.0398 26.9813 57.5898 26.9813C57.6065 24.5931 57.5985 22.2048 57.61 19.8166Z" fill="#AE285D"/>
<path d="M70.5365 19.8105C71.6729 19.8595 72.8985 19.6538 73.9456 20.2106C74.9664 20.7569 75.2019 22.3774 74.2607 23.111C74.8534 23.3447 75.4269 23.7851 75.5827 24.4338C75.8322 25.2296 75.3919 26.1103 74.6958 26.5227C73.4273 27.2195 71.9328 26.8947 70.5558 26.9893C70.5128 24.5966 70.5401 22.2041 70.5365 19.8105ZM71.855 20.8418C71.8576 21.5247 71.8559 22.2066 71.8515 22.8886C72.3452 22.8685 72.8924 22.8983 73.3135 22.5936C73.7433 22.211 73.7276 21.4188 73.2531 21.0782C72.8381 20.8155 72.326 20.8453 71.855 20.8418ZM71.8628 23.8262C71.8576 24.5222 71.8603 25.2191 71.8733 25.9151C72.5361 25.88 73.2496 26.0027 73.8607 25.6743C74.4026 25.4082 74.5024 24.538 73.999 24.1825C73.3923 23.7115 72.5781 23.8411 71.8628 23.8262Z" fill="#AE285D"/>
<path d="M93.8432 19.8108C94.2845 19.8073 94.7257 19.8091 95.1677 19.8099C95.1696 20.7537 95.1591 21.6983 95.1792 22.6429C96.2662 21.686 97.3749 20.7537 98.4684 19.8047C99.072 19.8082 99.6765 19.8108 100.28 19.8091C98.9765 20.8789 97.6825 21.96 96.4008 23.0562C97.6614 24.3869 98.9669 25.6729 100.257 26.9756C99.6583 26.9695 99.0586 27.0168 98.4617 26.9476C97.4361 25.9005 96.4171 24.8474 95.4007 23.7915C95.3263 23.8896 95.2527 23.9877 95.1801 24.0857C95.1538 25.0514 95.1774 26.0161 95.1608 26.9817C94.7169 26.9791 94.2731 26.9905 93.8301 26.9878C93.8336 24.5961 93.8397 22.2035 93.8432 19.8108Z" fill="#AE285D"/>
<path d="M26.2305 26.938C28.7063 26.9372 31.1821 26.9196 33.658 26.9608C35.1322 29.5312 36.6538 32.0735 38.115 34.6508C35.6391 34.6631 33.1642 34.6535 30.6884 34.6518C29.2149 32.0726 27.6759 29.5329 26.2305 26.938Z" fill="#AE285D"/>
</g>
<defs>
<clipPath id="clip0_781_33568">
<rect width="114.6" height="47.75" fill="white" transform="translate(0.00585938 0.859375)"/>
</clipPath>
</defs>
</svg>
