<svg width="115" height="48" viewBox="0 0 115 48" fill="none" xmlns="http://www.w3.org/2000/svg">
<g clip-path="url(#clip0_781_33526)">
<path d="M103.146 0.0800781H11.4659C5.13668 0.0800781 0.00585938 5.21089 0.00585938 11.5401V36.3701C0.00585938 42.6993 5.13668 47.8301 11.4659 47.8301H103.146C109.475 47.8301 114.606 42.6993 114.606 36.3701V11.5401C114.606 5.21089 109.475 0.0800781 103.146 0.0800781Z" fill="white"/>
<path d="M36.3799 36.3575L24.4473 36.3719V36.0556L33.2314 35.7105C34.8991 35.653 36.5236 35.5667 38.0907 35.0205C41.2967 33.9422 43.8701 31.7569 44.6177 29.0541C45.4228 26.15 43.5682 23.3322 40.0747 23.0878C43.0362 22.2252 45.5665 20.3418 46.2423 17.9265C47.1193 14.7925 45.5378 13.1966 42.8638 12.6216C47.3061 12.5497 50.7709 14.0448 49.592 18.286C48.9164 20.7013 46.3285 22.5415 43.3813 23.3465C46.8461 23.6053 48.7294 26.8976 47.8237 29.7729C46.8749 32.7633 44.4596 34.6179 41.2392 35.6961C39.6722 36.1993 38.0619 36.2855 36.3799 36.3575Z" fill="#F15A29"/>
<path d="M30.1242 34.8466L24.4886 35.1198C24.4886 34.976 24.4742 34.9329 24.4598 34.7891L38.6927 30.6774L38.7071 30.4473L24.2873 33.9122C24.2441 33.7828 24.2298 33.7396 24.1723 33.6103L39.311 25.2142L39.2103 24.9842L23.7122 32.9058C23.6116 32.7764 23.6259 32.762 23.5253 32.647L41.5393 15.6681L41.3811 15.4812L22.8352 32.072C22.749 32.0144 22.7059 31.9569 22.6052 31.8994L35.7742 12.7066L35.5442 12.6347L21.8289 31.54C21.757 31.5112 21.6708 31.4969 21.5989 31.4681L29.1322 12.9078L28.931 12.879L20.4488 31.2956C20.3481 31.2956 20.233 31.2955 20.1325 31.31H20.0605L25.5237 11.5564L35.7455 11.5852C40.576 11.312 44.4002 12.6202 43.1351 17.1202C42.4594 19.5355 39.9291 21.4188 36.9819 22.2239L36.9675 22.2814C40.4611 22.5258 42.4307 25.3436 41.6256 28.2478C40.878 30.9505 38.1752 33.0639 34.9691 34.1421C33.4021 34.7029 31.792 34.7891 30.1242 34.8466Z" fill="#F15A29"/>
<path d="M72.9423 12.3173C72.7122 13.1943 72.3097 13.2375 71.8065 13.2375H70.8289C70.0095 13.2375 69.9519 12.8924 70.11 12.3173H71.0733C70.9727 12.6193 70.8577 12.8924 71.3752 12.8924C71.7203 12.8924 71.8209 12.8062 71.9503 12.3461L72.9423 12.3173ZM81.3383 16.8748L80.605 15.9259L80.5475 16.1703C80.3606 16.8891 80.375 17.1911 80.8206 17.1911C81.0507 17.1911 81.2089 17.0904 81.3383 16.8748ZM80.7776 15.4659L81.5108 16.4147L81.5826 16.156C81.7265 15.5809 81.8414 15.1783 81.3238 15.1783C81.0507 15.1783 80.8926 15.2933 80.7776 15.4659ZM85.5937 14.9914L85.7951 14.1575H83.049L82.0139 18.183H81.0939L81.3383 17.3061C81.0795 17.5936 80.605 17.6799 80.2312 17.6799C79.2248 17.6799 79.383 16.7022 79.5411 16.1128C79.685 15.5234 80.0013 14.6751 80.9788 14.6751C81.3238 14.6751 81.712 14.7758 81.8558 15.0202L82.0715 14.1575H79.8287L79.9725 13.7119H86.5569L85.7519 12.7055L86.4275 12.2167L87.2902 13.7119H87.549L86.8589 11.9005L87.6784 11.541L88.1528 13.7262H94.3635L94.2198 14.1719H93.7022L92.667 18.2118H91.747L92.7821 14.1719H91.977L91.6608 15.1926H90.3668C89.9499 15.1926 89.8349 15.6958 89.6623 16.4435C89.4611 17.3348 89.2885 17.8812 89.878 17.8812C89.9211 17.8812 89.9786 17.8667 90.0649 17.838C90.0074 17.2916 90.3237 16.6447 90.9707 16.6447C91.5601 16.6447 91.5744 16.9754 91.4882 17.2629C91.3732 17.6655 91.1719 17.8812 90.7694 17.9961C90.9707 18.3844 91.4738 18.4131 91.4738 18.4131L90.4818 18.9594C90.2518 18.6862 90.1224 18.4562 90.0793 18.1686C89.8349 18.2405 89.5617 18.255 89.3604 18.255C88.1672 18.255 88.3685 17.0904 88.5697 16.2997C88.771 15.4802 89.1304 14.7758 90.108 14.7758C90.4531 14.7758 90.8556 14.8045 90.8556 14.8045L91.0282 14.1864H88.426L87.3909 18.2262H86.4707L87.5058 14.1864H86.7583L86.3845 15.6096H85.45C85.5362 15.2933 85.3781 15.1783 84.9899 15.1783C84.6305 15.1783 84.5299 15.2358 84.3861 15.739C84.2855 16.1703 84.4005 16.2709 84.8317 16.2566H85.565C86.1114 16.2566 86.2119 16.4578 86.0107 17.2629C85.7663 18.1686 85.3349 18.2262 84.7743 18.2262H83.6961C82.7472 18.2262 82.7184 17.8093 82.9341 17.1192H83.9979C83.8973 17.4786 83.6816 17.838 84.2998 17.838C84.6737 17.838 84.803 17.7518 84.9468 17.2198C85.0618 16.846 85.0906 16.6447 84.5299 16.6447C84.5299 16.6447 84.0267 16.6447 83.7823 16.6447C83.1497 16.6447 83.2504 16.1128 83.3653 15.6671C83.5954 14.8476 83.7536 14.747 84.7024 14.747C85.2631 14.7183 85.5218 14.7758 85.5937 14.9914ZM60.0177 17.1911C60.3483 17.1911 60.492 16.8891 60.6789 16.156C60.8228 15.5809 60.9377 15.1783 60.5352 15.1783C60.1183 15.1783 60.0177 15.5809 59.8739 16.156C59.687 16.8891 59.6727 17.1911 60.0177 17.1911ZM60.1902 18.1975C60.4346 17.3205 60.4346 17.3205 60.4346 17.3205L60.1902 18.1975ZM56.9841 16.8316L56.251 15.8684C56.2222 15.9546 56.1935 16.0553 56.1791 16.156C55.9922 16.8748 56.0066 17.1767 56.4379 17.1767C56.6967 17.1911 56.8547 17.076 56.9841 16.8316ZM56.4235 15.4371L57.1423 16.3716L57.1998 16.156C57.3436 15.5809 57.4586 15.1783 56.9411 15.1783C56.6967 15.1783 56.5385 15.279 56.4235 15.4371ZM57.1423 13.7262L56.3372 12.7199L57.0129 12.2311L57.8755 13.7262H58.1343L57.4443 11.9148L58.2637 11.5554L58.7381 13.7407H64.1294L63.9856 14.1864H62.1167L61.8866 15.1208C62.131 14.8333 62.4473 14.7326 62.8211 14.7326C63.8275 14.7326 63.6118 15.6815 63.4537 16.2854C63.3099 16.8748 63.0512 17.7086 62.0735 17.7086C61.8866 17.7086 61.6997 17.6655 61.5991 17.5792L61.671 17.3205C61.6997 17.3205 61.7285 17.3492 61.7572 17.3492C62.1742 17.3492 62.2892 16.846 62.4473 16.2709C62.6342 15.5521 62.6486 15.2358 62.3036 15.2358C62.016 15.2358 61.8435 15.4515 61.671 16.0121L61.1246 18.2262H60.2046L60.449 17.3492C60.1902 17.6367 59.8883 17.723 59.5145 17.723C58.5081 17.723 58.7381 16.7166 58.8819 16.1272C59.0256 15.5377 59.27 14.7326 60.2621 14.7326C60.6214 14.7326 60.8371 14.8189 60.9665 15.0633L61.1821 14.2007H58.6806L57.6455 18.2262H56.7254L56.9698 17.3492C56.6967 17.6367 56.2366 17.723 55.8628 17.723C54.8564 17.723 55.0577 16.6879 55.2014 16.0985C55.3453 15.5234 55.6328 14.7183 56.6104 14.7183C56.9698 14.7183 57.3579 14.8189 57.4873 15.0633L57.703 14.2007H55.4458L55.5896 13.755H57.1423V13.7262ZM66.6021 18.183H65.222L65.337 17.723H66.5446C66.8466 17.723 67.3066 17.5504 67.4504 16.9466C67.551 16.5585 67.3785 16.1272 66.8322 16.1272H65.9265L66.0414 15.624H67.091C67.4648 15.624 67.7523 15.3077 67.8529 14.8908C67.9392 14.5745 67.9105 14.1432 67.3641 14.1432H66.2428L66.3577 13.6832H67.7092C68.3992 13.6832 69.1468 13.9851 68.9456 14.8045C68.8018 15.4227 68.4855 15.7246 67.7523 15.8397C68.4999 15.9403 68.6436 16.4435 68.4999 17.0329C68.2268 18.1399 67.0623 18.183 66.6021 18.183ZM74.9406 14.1575H74.2075L73.6324 16.3572C73.5605 16.616 73.5749 16.8029 73.8912 16.8029C74.2075 16.8029 74.3224 16.5153 74.3799 16.2566L74.9406 14.1575ZM69.4487 13.7262H77.7297L77.586 14.1719H75.9038L75.6307 15.2358C75.8895 14.977 76.2058 14.8764 76.5652 14.8764C77.0253 14.8764 77.3703 15.1064 77.2697 15.5089L76.6803 17.8236H75.7026L76.2201 15.8397C76.292 15.5809 76.2777 15.3795 75.9757 15.3795C75.7458 15.3795 75.602 15.5664 75.5013 15.7677L75.2569 16.7022C75.2138 16.8891 74.9406 18.0249 74.9119 18.2118H73.9055L74.2075 16.9754C73.9342 17.2342 73.6468 17.3205 73.2873 17.3205C72.8273 17.3205 72.4823 17.0904 72.5828 16.6879L73.2298 14.1719H72.4535L71.4184 18.2118H70.4982L71.5334 14.1719H70.8001L69.765 18.2118H68.8449L69.3912 16.0985H68.6436L68.773 15.6528H69.5206L69.8944 14.1864H69.3194L69.4487 13.7262ZM59.1119 12.6193H59.9889L59.7876 13.3525H58.9107L59.1119 12.6193ZM72.4823 17.8955H73.3592L73.1579 18.6287H72.2809L72.4823 17.8955ZM83.6673 18.6143H84.5443L84.343 19.3476H83.466L83.6673 18.6143Z" fill="#F15A29"/>
<path d="M56.3151 24.0156H56.9476C57.494 24.0156 57.6089 24.2887 57.5084 24.7632C57.3502 25.482 56.8326 25.4963 56.6026 25.4963H55.9988L56.3151 24.0156ZM56.7751 21.8877H57.4508C57.8103 21.8877 58.0116 22.1753 57.9397 22.5491C57.839 23.0523 57.4652 23.2104 57.2352 23.2104H56.502L56.7751 21.8877ZM56.6745 26.2871C57.1346 26.2871 58.299 26.2296 58.5722 24.9069C58.7304 24.2025 58.6297 23.6993 57.8822 23.5842V23.5699C58.5003 23.4548 58.8885 23.0235 59.0179 22.4197C59.2479 21.3127 58.6153 21.0684 57.7958 21.0684H55.855L54.748 26.2583H56.6745" fill="#F15A29"/>
<path d="M60.9227 24.5314C60.8364 24.9196 60.7645 25.739 60.1607 25.739C59.8301 25.739 59.8588 25.4228 59.9019 25.164C60.0457 24.5027 60.4051 24.5459 60.9227 24.5314ZM62.0584 23.7982C62.2022 23.1369 62.1447 22.5762 60.8652 22.5762C60.477 22.5762 60.1319 22.6338 59.8588 22.8207C59.5856 22.9931 59.3844 23.2663 59.2981 23.6976H60.2901C60.3476 23.4101 60.4338 23.1513 60.7933 23.1513C61.1671 23.1513 61.1526 23.3813 61.0951 23.6832L61.0377 23.9563C60.1032 23.942 59.1543 23.9851 58.9099 25.1928C58.7805 25.8254 58.9243 26.3573 59.6287 26.3573C60.0744 26.3573 60.4051 26.1704 60.6926 25.8109H60.707L60.6494 26.2854H61.5983C61.6271 26.0698 61.6415 25.8254 61.6846 25.6097L62.0584 23.7982Z" fill="#F15A29"/>
<path d="M63.8538 22.6481H62.833L62.0566 26.2854H63.0774L63.6094 23.7839C63.6812 23.4676 63.7818 23.2088 64.1126 23.2088C64.4432 23.2088 64.4432 23.4676 64.3713 23.7839L63.8393 26.2854H64.8601L65.4783 23.3669C65.579 22.8637 65.2195 22.5762 64.7451 22.5762C64.357 22.5762 64.0694 22.6912 63.7963 23.0219H63.7818L63.8538 22.6481Z" fill="#F15A29"/>
<path d="M66.3496 26.2884L66.7665 24.3044H66.7809L67.2985 26.2884H68.4486L67.7297 24.2757L69.0955 22.651H68.0316L66.7953 24.175H66.7809L67.4422 21.084H66.4215L65.3145 26.274H66.3496V26.2884Z" fill="#F15A29"/>
<path d="M71.1552 25.7103C70.7814 25.7103 70.7382 25.4659 70.9683 24.3589C71.1265 23.597 71.2414 23.2232 71.6727 23.2232C72.104 23.2232 72.0609 23.597 71.9028 24.3589C71.6727 25.4659 71.529 25.7103 71.1552 25.7103ZM71.0114 26.3573C72.3197 26.3573 72.6647 25.5521 72.9092 24.4165C73.1248 23.4244 73.1535 22.5762 71.8165 22.5762C70.4794 22.5762 70.1488 23.4244 69.9475 24.4165C69.7031 25.5521 69.7031 26.3573 71.0114 26.3573Z" fill="#F15A29"/>
<path d="M75.5963 21.0769C75.4813 21.0625 75.3664 21.0625 75.237 21.0625C74.0005 21.0625 73.9718 21.6089 73.7561 22.6583H73.2961L73.1667 23.2765H73.6267L72.9941 26.2812H74.0149L74.6475 23.2765H75.1219L75.2513 22.6583H74.7768L74.8632 22.2126C74.935 21.8388 75.0644 21.6807 75.4669 21.7094L75.5963 21.0769Z" fill="#F15A29"/>
<path d="M77.5495 24.0156H78.1821C78.7284 24.0156 78.8434 24.2887 78.7428 24.7632C78.5846 25.482 78.0671 25.4963 77.837 25.4963H77.2333L77.5495 24.0156ZM77.9952 21.8877H78.6565C79.0303 21.8877 79.2172 22.1753 79.1453 22.5491C79.0447 23.0523 78.6709 23.2104 78.4409 23.2104H77.7076L77.9952 21.8877ZM77.8945 26.2871C78.3546 26.2871 79.5047 26.2296 79.7923 24.9069C79.9504 24.2025 79.8498 23.6993 79.1022 23.5842V23.5699C79.7204 23.4548 80.1086 23.0235 80.238 22.4197C80.468 21.3127 79.8354 21.0684 79.016 21.0684H77.0895L75.9824 26.2583H77.8945V26.2871Z" fill="#F15A29"/>
<path d="M82.1361 24.5314C82.0498 24.9196 81.9779 25.739 81.3741 25.739C81.0435 25.739 81.0722 25.4228 81.1297 25.164C81.2735 24.5027 81.6329 24.5459 82.1361 24.5314ZM83.2862 23.7982C83.43 23.1369 83.3725 22.5762 82.0929 22.5762C81.7048 22.5762 81.3598 22.6338 81.1009 22.8207C80.8278 22.9931 80.6265 23.2663 80.5403 23.6976H81.5322C81.5897 23.4101 81.676 23.1513 82.0354 23.1513C82.4092 23.1513 82.3949 23.3813 82.3374 23.6832L82.2798 23.9563C81.3453 23.942 80.3965 23.9851 80.1521 25.1928C80.0228 25.8254 80.1665 26.3573 80.8709 26.3573C81.3166 26.3573 81.6473 26.1704 81.9349 25.8109H81.9492L81.8917 26.2854H82.8262C82.8549 26.0698 82.8693 25.8254 82.9268 25.6097L83.2862 23.7982Z" fill="#F15A29"/>
<path d="M84.0771 22.6481L83.3008 26.2854H84.3215L84.7384 24.3014C84.8102 23.942 84.9397 23.4244 85.8166 23.4819L86.0035 22.5762C85.601 22.5762 85.2272 22.6912 84.9397 23.1225H84.9253L85.0259 22.6625H84.0771V22.6481Z" fill="#F15A29"/>
<path d="M86.911 25.7103C86.5372 25.7103 86.4941 25.4659 86.7241 24.3589C86.8822 23.597 86.9972 23.2232 87.4286 23.2232C87.8598 23.2232 87.8167 23.597 87.6585 24.3589C87.4286 25.4659 87.2847 25.7103 86.911 25.7103ZM86.7672 26.3573C88.0755 26.3573 88.4205 25.5521 88.6649 24.4165C88.8806 23.4244 88.9093 22.5762 87.5723 22.5762C86.2353 22.5762 85.9046 23.4244 85.7034 24.4165C85.459 25.5521 85.459 26.3573 86.7672 26.3573Z" fill="#F15A29"/>
<path d="M90.1597 25.7328C89.8002 25.7328 89.8146 25.359 90.0015 24.4389C90.1597 23.7057 90.2603 23.2025 90.6916 23.2025C91.1086 23.2025 90.9935 23.7057 90.8353 24.4389C90.6484 25.359 90.5047 25.7328 90.1597 25.7328ZM91.4536 26.2935L92.5605 21.1035H91.5398L91.1373 23.0156H91.1229C90.9792 22.6993 90.7491 22.5987 90.3897 22.5987C89.3689 22.5987 89.1533 23.7344 88.9951 24.4533C88.837 25.2008 88.5494 26.3654 89.599 26.3654C89.9872 26.3654 90.2891 26.2503 90.5622 25.8909H90.5766L90.4903 26.2935H91.4536Z" fill="#F15A29"/>
<path d="M94.1133 24.5314C94.0271 24.9196 93.9553 25.739 93.3514 25.739C93.0207 25.739 93.0495 25.4228 93.0926 25.164C93.2364 24.5027 93.6102 24.5459 94.1133 24.5314ZM95.2635 23.7982C95.4073 23.1369 95.3498 22.5762 94.0703 22.5762C93.682 22.5762 93.337 22.6338 93.0639 22.8207C92.7907 22.9931 92.5894 23.2663 92.5032 23.6976H93.4952C93.5527 23.4101 93.639 23.1513 93.9983 23.1513C94.3578 23.1513 94.3578 23.3813 94.3003 23.6832L94.2427 23.9563C93.3083 23.942 92.3595 23.9851 92.115 25.1928C91.9856 25.8254 92.1294 26.3573 92.8338 26.3573C93.2795 26.3573 93.6102 26.1704 93.8977 25.8109H93.9121L93.8546 26.2854H94.8035C94.8323 26.0698 94.8466 25.8254 94.9041 25.6097L95.2635 23.7982Z" fill="#F15A29"/>
<path d="M76.3945 36.2797H95.3557V29.0234H76.3945V36.2797Z" fill="#152B75"/>
<path fill-rule="evenodd" clip-rule="evenodd" d="M80.1465 31.5064V31.3926H80.6923L80.8847 31.4004L81.0614 31.424L81.2146 31.4554L81.3755 31.5025L81.5443 31.5653L81.7093 31.6478L81.831 31.7224L81.9685 31.8206L82.0862 31.9227L82.1922 32.0365L82.2786 32.1465L82.3571 32.2721L82.42 32.4017L82.4671 32.5273L82.5024 32.6687L82.5181 32.7982L82.5221 32.9397L82.5103 33.0771L82.4828 33.2027L82.4436 33.3284L82.3846 33.4619L82.3101 33.5954L82.2236 33.725L82.1176 33.8506L81.9999 33.9684L81.8703 34.0744L81.7368 34.1568L81.5954 34.2275L81.4502 34.2825L81.3009 34.3218L81.1478 34.3493L80.9044 34.3728L80.7237 34.3846L80.5156 34.3885H80.2722H80.1426V33.8388V33.187H80.2054H80.8336L80.8925 33.1831C81.2734 33.0888 81.2656 32.6334 80.873 32.5745L80.7944 32.5706H80.1623H80.1387V32.1189L80.1465 31.5064Z" fill="white"/>
<path fill-rule="evenodd" clip-rule="evenodd" d="M78.3438 31.3926V34.3963H79.985V31.3926H78.3438Z" fill="white"/>
<path fill-rule="evenodd" clip-rule="evenodd" d="M79.1383 34.1494H78.4787V32.7947V32.7791L78.4826 32.7752L78.5179 32.7672L78.5375 32.7594L78.5533 32.7476L78.565 32.7319L78.5728 32.7162L78.5808 32.6887L78.5847 32.6691V32.6456L78.5768 32.6141L78.5611 32.5866L78.5258 32.5435L78.4904 32.5002L78.4707 32.4649L78.459 32.4335L78.4551 32.41L78.4512 32.3864L78.4551 32.3589L78.4629 32.3314L78.4707 32.3118L78.4904 32.2843L78.5179 32.2607L78.5414 32.245L78.5689 32.2294L78.5847 32.2214L78.5886 32.2175V32.2097L78.565 32.1744L78.5533 32.1469L78.5493 32.1312L78.5454 32.1076L78.5414 32.0801L78.5454 32.0526L78.5533 32.0291L78.565 32.0016L78.5886 31.9624L78.6043 31.9427L78.62 31.927L78.6396 31.9113L78.6671 31.8956L78.6985 31.8838L78.7299 31.8759L78.7614 31.872L78.7889 31.8681L78.832 31.872L78.8634 31.8759L78.8674 31.872L78.8713 31.8642L78.883 31.8367L78.8988 31.8092L78.9224 31.7777L78.9498 31.7502L78.9851 31.7268L79.0126 31.711L79.0362 31.7032L79.0872 31.6914L79.1383 31.6875L79.1933 31.6914L79.205 31.6953L79.2246 31.6992L79.256 31.711L79.2914 31.7268L79.3189 31.7424L79.3503 31.766L79.37 31.7856L79.3935 31.8209L79.4092 31.8523L79.4171 31.8681L79.421 31.872H79.4328L79.4916 31.8603L79.531 31.8563H79.5623L79.5937 31.8603L79.6291 31.872L79.6566 31.8877L79.6723 31.8995L79.688 31.9152L79.7155 31.9505L79.7233 31.9663L79.7312 31.9898L79.7391 32.0173L79.743 32.0487L79.7391 32.0918L79.7312 32.1194L79.7155 32.1469L79.6802 32.1939V32.1979L79.6841 32.2019L79.7037 32.2058L79.7272 32.2097L79.7469 32.2175L79.7744 32.2333L79.7979 32.2529L79.8137 32.2725L79.8293 32.296L79.8372 32.3235L79.8412 32.3432V32.3785L79.8293 32.4139L79.8098 32.4531L79.7901 32.4845L79.7587 32.5277L79.7312 32.5749L79.7155 32.6181L79.7116 32.6534L79.7155 32.6809L79.7272 32.7084L79.7391 32.7241L79.7547 32.7398L79.7744 32.7516L79.794 32.7594L79.8215 32.7672L79.8254 32.7711V32.7908V32.8261V34.1416H79.1893L79.1383 34.1494Z" fill="white"/>
<path fill-rule="evenodd" clip-rule="evenodd" d="M79.1469 34.1484V34.1445V34.1405L79.1351 34.1288L79.1154 34.113L79.084 34.0896L79.0684 34.0699L79.0526 34.0424L79.0487 34.0385H79.0408L78.9899 34.0463H78.9623L78.9034 34.0306L78.8917 34.0267L78.8878 34.0228V34.0189L78.9034 33.9953V33.9914L78.8995 33.9875L78.8838 33.9835L78.8445 33.9678L78.8131 33.9639L78.8092 33.96L78.8053 33.956L78.8092 33.9521L78.8249 33.9364L78.8445 33.9285L78.8759 33.9168L78.8798 33.9129V33.9089V33.9049L78.8367 33.854L78.817 33.8225L78.8092 33.8068L78.7896 33.7794L78.7857 33.7675V33.7597L78.7935 33.7519L78.7974 33.7361L78.8013 33.7322L78.8131 33.7283L78.821 33.7244L78.8288 33.7126L78.8328 33.7087H78.8563H78.8642L78.8759 33.6969H78.8798L78.8878 33.7008H78.8956L78.9034 33.6929L78.9113 33.689H78.9191L78.9309 33.6929H78.9388L78.9427 33.689L78.9505 33.6812L78.9584 33.6773L78.978 33.6812H78.9819L78.9938 33.6694L78.9977 33.6537L78.9938 33.6223L78.9899 33.6066L78.9858 33.5555L78.9741 33.4966L78.9702 33.4573L78.9663 33.4259V33.3984L78.9623 33.3552L78.9545 33.2924L78.9505 33.2807L78.9388 33.2453L78.9309 33.2139L78.927 33.1825L78.9231 33.1589L78.9073 33.0647V33.0097V32.9861V32.9627L78.9113 32.9076L78.927 32.8487L78.9466 32.7977V32.7938H78.9427H78.9348L78.927 32.7977L78.9191 32.8056L78.9034 32.8252L78.8681 32.8645L78.8563 32.8762L78.8484 32.8841L78.8445 32.8998L78.8367 32.9116L78.8288 32.9273L78.8249 32.9351L78.817 32.943L78.8131 32.9508L78.8092 32.9627V33.0097L78.8053 33.0333L78.8013 33.0529L78.7974 33.0647L78.7935 33.0687L78.7738 33.0726L78.766 33.0765L78.7543 33.0804L78.7307 33.0843H78.7228L78.715 33.0765L78.711 33.0647V33.0568L78.7189 33.0372V33.0294V33.0254L78.711 33.0215L78.7071 33.0176L78.7032 33.0136V33.0058L78.715 32.9666L78.7228 32.943L78.7307 32.9273L78.7503 32.9076L78.7543 32.888L78.766 32.8762L78.7738 32.8645L78.7857 32.8526L78.8092 32.8173L78.8249 32.7859L78.8406 32.7505V32.7427L78.8367 32.731L78.817 32.7035L78.7896 32.6525L78.7817 32.6445L78.7699 32.6406L78.7621 32.6367L78.7543 32.625L78.7463 32.6131L78.7424 32.6014V32.5857L78.7307 32.566L78.7268 32.5621H78.7228L78.7189 32.57L78.715 32.5739H78.711L78.7071 32.57V32.5621L78.715 32.5346V32.5229L78.711 32.5071V32.4954L78.715 32.4836L78.7307 32.4639L78.7503 32.4483V32.4443L78.7385 32.4325L78.7346 32.4286L78.7385 32.4247L78.7424 32.4208L78.766 32.4129L78.7699 32.4089V32.4011L78.766 32.3972L78.7503 32.4011L78.7463 32.3972V32.3933V32.3815L78.7424 32.3775L78.7307 32.3736L78.7071 32.3619L78.6953 32.3501L78.6875 32.3383V32.3304L78.6914 32.3265L78.711 32.3187L78.7189 32.3148H78.7268L78.7385 32.3108L78.7543 32.3069L78.766 32.3029H78.7817L78.7896 32.299H78.7974L78.8053 32.3029H78.821L78.8406 32.3069L78.8484 32.3108L78.8563 32.3187V32.3265L78.8445 32.3462L78.8328 32.3619L78.8249 32.3658L78.821 32.3736V32.3775L78.8249 32.3894V32.3972L78.821 32.4011H78.8131L78.8013 32.3972H78.7935L78.7896 32.4011V32.4089V32.4247L78.8053 32.46L78.8092 32.4836L78.8053 32.5346L78.8092 32.5425L78.821 32.5543L78.8249 32.57L78.8328 32.5817L78.8367 32.5935L78.8484 32.6131L78.8681 32.6328H78.872H78.8759L78.8798 32.6289L78.9034 32.5346L78.9152 32.5071L78.9388 32.4639L78.9427 32.4483L78.9505 32.4286L78.9623 32.4169L78.9702 32.405V32.3972V32.3894L78.9545 32.3736L78.927 32.3501L78.8878 32.3069L78.8681 32.2715L78.8563 32.2401L78.8484 32.2127L78.8445 32.1813L78.8406 32.1577V32.1223L78.8445 32.087L78.8563 32.0517L78.8759 32.0085L78.8878 31.9888L78.9152 31.9574L78.927 31.9457L78.9348 31.9378L78.9584 31.9221L78.9899 31.9024L79.033 31.8867L79.0526 31.8828L79.0879 31.875H79.1154L79.1508 31.8789L79.1822 31.8828L79.2097 31.8907L79.2372 31.9024L79.2725 31.9221L79.2921 31.9378L79.3118 31.9535L79.3315 31.9771L79.3471 31.9967L79.3746 32.0359L79.3903 32.0753L79.3982 32.1106L79.4021 32.138V32.1694V32.193L79.3942 32.2283L79.3825 32.2637L79.3707 32.2951L79.351 32.3226L79.3393 32.3383L79.3235 32.3579L79.3 32.3815L79.2843 32.3933L79.2804 32.4011V32.4089L79.2921 32.4247L79.3 32.4364L79.3118 32.4639L79.3196 32.4718L79.3315 32.4836L79.351 32.511L79.3707 32.5464L79.3785 32.5621V32.5739L79.3746 32.5896L79.3707 32.6014V32.6092V32.6131H79.3746L79.3785 32.6092L79.3942 32.5975L79.3982 32.5896V32.5739L79.4021 32.566L79.4178 32.5543L79.4217 32.5425L79.4375 32.5268V32.519L79.4295 32.4483L79.4335 32.4286L79.4531 32.405L79.457 32.3972V32.3933L79.4531 32.3894H79.4375H79.4295L79.4256 32.3854V32.3775L79.4295 32.3658V32.3579L79.4256 32.354L79.4139 32.3462H79.3982L79.3942 32.3422L79.3903 32.3383V32.3304L79.3982 32.3108L79.41 32.299L79.4139 32.2951H79.4295L79.4453 32.2873L79.457 32.2912L79.465 32.2873H79.4767H79.4885L79.4963 32.2834H79.5042H79.5238L79.5356 32.2873L79.5474 32.2912L79.5552 32.2951L79.5591 32.3029L79.5552 32.3108L79.5435 32.3265L79.5199 32.3462L79.516 32.3501L79.5199 32.3619V32.3697L79.516 32.3736L79.5042 32.3775L79.516 32.3854L79.5199 32.3933V32.4011L79.512 32.4129V32.4169L79.516 32.4208L79.5277 32.4364L79.5317 32.4483V32.46L79.5238 32.4836V32.4915L79.5356 32.5071L79.5435 32.5229V32.5268H79.5395H79.5356H79.5317L79.5277 32.5229L79.5238 32.519H79.516L79.512 32.5229L79.4963 32.5582V32.5778L79.4924 32.5817L79.4806 32.5935L79.4767 32.6053L79.4728 32.6131L79.461 32.621L79.4531 32.6289L79.4295 32.6681L79.3982 32.7035V32.7074L79.4178 32.7349L79.4375 32.7624L79.4492 32.7702L79.465 32.782L79.4845 32.7899L79.4924 32.7938H79.5003L79.5081 32.7899L79.5238 32.782L79.5356 32.7781H79.5671L79.5788 32.7741L79.5866 32.7781L79.5905 32.7859L79.5945 32.7899H79.6024L79.622 32.7938L79.6416 32.7977L79.6573 32.8056L79.6612 32.8134V32.8212L79.6495 32.8409L79.6456 32.8448H79.6338L79.6259 32.8487V32.8526L79.6298 32.8566V32.8606L79.6259 32.8645H79.618L79.571 32.8606L79.5356 32.8645H79.5081H79.4924L79.4767 32.8606H79.4689L79.457 32.8645H79.4453L79.4335 32.8606L79.4178 32.8566L79.406 32.8526L79.3903 32.837L79.3629 32.8212L79.3274 32.7977L79.3118 32.782L79.2843 32.7505H79.2804L79.2764 32.7545L79.2686 32.7741L79.2647 32.7938L79.2686 32.8173L79.2804 32.8684L79.2882 32.9116L79.2921 32.9705V33.0058L79.2882 33.0608L79.2804 33.1157L79.2725 33.1589L79.2647 33.2139L79.245 33.2963V33.3238V33.3474L79.2489 33.3671L79.2568 33.4063V33.4378V33.4534V33.5005L79.2529 33.5319L79.2568 33.5594V33.5908L79.2529 33.6262V33.6419L79.2568 33.6576L79.2647 33.6694L79.2686 33.6734H79.2764L79.2882 33.6694L79.2961 33.6654H79.304L79.3157 33.6773H79.3196L79.3393 33.6734H79.3471L79.3549 33.6773L79.3629 33.6812H79.3707L79.3864 33.6773H79.3982L79.4021 33.6812L79.41 33.6929L79.4139 33.6969H79.4375L79.4453 33.7008L79.457 33.7165L79.465 33.7204H79.4767H79.4924L79.4963 33.7244L79.5003 33.7401L79.5042 33.744L79.5238 33.7479L79.5317 33.7519L79.5356 33.7558L79.5317 33.7597V33.7636L79.5356 33.7714L79.5395 33.7755V33.7794L79.5199 33.795L79.4845 33.8343L79.461 33.8579L79.4295 33.8893L79.4021 33.9129L79.3982 33.9168L79.4021 33.9207L79.4335 33.9364L79.4531 33.9521L79.4689 33.9678L79.4728 33.9756V33.9835H79.4689H79.4375L79.3903 33.9875L79.3864 33.9914V33.9992L79.3942 34.015V34.0189L79.3903 34.0228H79.3785L79.351 34.0267L79.3079 34.0345L79.2725 34.0306L79.2489 34.0267H79.2372L79.2333 34.0306L79.2214 34.0503L79.2058 34.0738L79.194 34.0856L79.1704 34.113L79.1665 34.121V34.1288V34.1327L79.1469 34.1484ZM78.9623 32.7505L78.9584 32.7585V32.7663H78.9623H78.9663H78.9741L78.9819 32.7624L78.9858 32.7545L78.9899 32.7388V32.7191L78.9858 32.7035L78.9819 32.6995H78.978H78.9741L78.9702 32.7074L78.9623 32.7505ZM79.2764 32.3579L79.2843 32.3697H79.2882L79.3 32.3619L79.3118 32.3501L79.3235 32.3422L79.3393 32.3265L79.3589 32.299L79.3746 32.2715L79.3864 32.2401L79.3942 32.2048L79.3982 32.1694V32.142L79.3903 32.0988L79.3825 32.0713L79.3746 32.0556L79.351 32.0203L79.3274 31.9928L79.3079 31.9732L79.2843 31.9574L79.2529 31.9418L79.2175 31.926L79.1744 31.9182H79.139H79.1154L79.0919 31.9221L79.0566 31.9338L79.0213 31.9496L78.9938 31.9652L78.9741 31.981L78.9505 32.0006L78.9348 32.0203L78.9113 32.0595L78.8995 32.087L78.8956 32.1027L78.8878 32.1341L78.8838 32.1694L78.8878 32.1969L78.8917 32.2283L78.9034 32.2637L78.9191 32.2912L78.9348 32.3148L78.9545 32.3383L78.9702 32.3501L78.9899 32.3658H78.9938L78.9977 32.3619L79.0094 32.3422L79.0133 32.3304V32.2951L79.0213 32.2794L79.0291 32.2519L79.033 32.2323L79.0369 32.2166L79.0408 32.2008L79.0566 32.1774L79.0605 32.1655L79.0644 32.138V32.1184L79.0684 32.1066V32.0948V32.0792L79.0723 32.0713L79.084 32.0634L79.1076 32.0399L79.1234 32.0124V31.9967L79.1273 31.9888L79.1351 31.981L79.1429 31.9771H79.1508L79.1587 31.981L79.1626 31.9928L79.1665 32.0124L79.1783 32.0359L79.194 32.0556L79.2097 32.0713L79.2175 32.0831L79.2214 32.0948V32.1066L79.2175 32.1223L79.2214 32.1616L79.2255 32.1733L79.2333 32.1852L79.245 32.2008L79.2489 32.2166L79.2568 32.2598V32.2794L79.2647 32.3148L79.2686 32.3383L79.2764 32.3579ZM79.4845 32.3579H79.4924H79.512L79.5277 32.354L79.5395 32.3462L79.5435 32.3383L79.5474 32.3265V32.3187H79.5395L79.5317 32.3148H79.5277L79.5199 32.3187H79.512L79.5042 32.3148H79.5003L79.4963 32.3187L79.4924 32.3226H79.4885L79.4845 32.3187H79.4806L79.4728 32.3265H79.4689L79.457 32.3187H79.4531H79.4492V32.3226V32.3304L79.4531 32.3383L79.465 32.3422L79.4845 32.3579ZM78.7503 32.3697L78.7738 32.3736L78.7974 32.3697L78.8249 32.3619L78.8367 32.3579L78.8445 32.3501V32.3422L78.8367 32.3383H78.8328L78.821 32.3422H78.817L78.8131 32.3344L78.8092 32.3304H78.8053L78.8013 32.3344V32.3422L78.7974 32.3462L78.7935 32.3422L78.7896 32.3344H78.7857H78.7817L78.7777 32.3422L78.7738 32.3462H78.7699L78.766 32.3422L78.7621 32.3383L78.7543 32.3422H78.7463H78.7424L78.7385 32.3462L78.7307 32.3501V32.354V32.3579L78.7424 32.3697H78.7503ZM79.563 32.3304L79.5591 32.3344V32.3383L79.563 32.3344V32.3304ZM79.1508 32.2166L79.1469 32.2127H79.1429V32.2166V32.2205H79.1469L79.1508 32.2166ZM79.2255 32.2008L79.2214 32.2048V32.2087L79.2255 32.2127H79.2294V32.2087L79.2255 32.2008ZM79.1193 32.2127H79.1115H79.1076V32.2166V32.2205H79.1115H79.1154L79.1193 32.2127ZM79.0801 32.2008L79.0762 32.1969V32.193L79.0801 32.1891H79.0879L79.0919 32.193L79.0959 32.1969H79.0998L79.0959 32.1891V32.1852L79.0879 32.1891L79.0762 32.1969L79.0684 32.2087V32.2166V32.2205H79.0723L79.0801 32.2166L79.084 32.2127L79.0801 32.2008ZM79.2019 32.1891L79.1979 32.1969V32.2008H79.2058L79.2097 32.1969L79.2136 32.1891V32.1852L79.2097 32.1813L79.1979 32.1774V32.1813L79.2019 32.1891ZM79.1861 32.1774L79.1822 32.1891L79.1861 32.193H79.19V32.1891V32.1852L79.194 32.1774H79.1861ZM79.1076 32.1813L79.1115 32.1891L79.1154 32.1969V32.193V32.1852L79.1115 32.1813H79.1076ZM79.1979 32.1459L79.194 32.1577V32.1616H79.1979L79.2019 32.1577V32.1538V32.142L79.1979 32.1341L79.19 32.1302L79.1704 32.1263L79.1429 32.1223L79.1234 32.1263L79.1076 32.1302L79.1037 32.1341L79.1115 32.138L79.1154 32.142V32.1498L79.1115 32.1538H79.1037H79.0998L79.0959 32.1498L79.0919 32.142L79.0879 32.1341H79.084L79.0801 32.142L79.0762 32.1538L79.0801 32.1616H79.0879L79.1115 32.1577L79.1234 32.1538L79.1351 32.1498L79.1508 32.1538H79.1626H79.1665L79.1704 32.1459L79.1783 32.142H79.1861H79.19L79.1979 32.1459ZM79.139 32.1341L79.1429 32.1302H79.1469L79.1547 32.1341L79.1587 32.138V32.142L79.1508 32.1498H79.1469L79.1429 32.1459L79.139 32.142V32.1341ZM79.1587 32.1066L79.1822 32.1106H79.1861V32.1066V32.1027L79.1822 32.0988L79.1469 32.0948L79.1234 32.0988L79.1193 32.1027V32.1066V32.1106H79.1234L79.139 32.1066H79.1587ZM79.1704 32.0792L79.19 32.0831H79.1979L79.1783 32.0792H79.1469L79.1076 32.0831L79.0998 32.087V32.0909L79.1037 32.0948H79.1076L79.1312 32.0909L79.1704 32.0792ZM79.139 32.0517H79.1508H79.1665V32.0478H79.1626L79.1547 32.0438H79.139L79.1312 32.0478V32.0517H79.139Z" fill="#ED1C24"/>
<path fill-rule="evenodd" clip-rule="evenodd" d="M79.1907 33.6744L79.1828 33.6627L79.1553 33.6194L79.1514 33.6038L79.1475 33.592V33.5841L79.1397 33.5567L79.1358 33.5527V33.5409L79.1318 33.5213L79.1239 33.5056L79.1122 33.4428L79.1083 33.4035L79.1043 33.3799V33.3721L79.1083 33.3799L79.1161 33.3996V33.4113L79.12 33.4193V33.431L79.1239 33.4546L79.1358 33.5056L79.1475 33.5409L79.1632 33.5802L79.1868 33.6234L79.2024 33.6508L79.2182 33.6823V33.6862H79.2104H79.2064H79.2024V33.6783L79.1907 33.6744ZM79.0768 33.6234L79.065 33.592L79.0572 33.5567L79.0533 33.537L79.0415 33.4899L79.0376 33.4585V33.431V33.4193L79.0415 33.3957V33.3838V33.376L79.0454 33.3799L79.0572 33.4349L79.069 33.5253L79.0729 33.5606L79.0808 33.5881L79.0886 33.6234V33.6313V33.6352L79.0847 33.6274L79.0768 33.6234ZM79.226 33.4388L79.2104 33.431L79.1946 33.4232L79.1789 33.4074L79.1593 33.3838L79.1436 33.3485L79.1358 33.3172L79.1318 33.2778L79.1278 33.2347L79.1318 33.2307H79.1358L79.1397 33.2347V33.2543L79.1436 33.2857V33.3132L79.1514 33.3407L79.1632 33.3721L79.175 33.3918L79.1946 33.4113L79.2024 33.4193L79.2182 33.431L79.2338 33.4388L79.2418 33.4428V33.4467L79.2379 33.4506L79.2338 33.4467V33.4428L79.226 33.4388ZM78.9826 33.3092L78.9982 33.2897L79.0257 33.2622L79.0454 33.2425L79.0611 33.2229L79.0847 33.1837L79.1083 33.1404L79.1239 33.1051L79.1318 33.0855L79.1514 33.0344L79.1671 32.9834L79.1946 32.897L79.226 32.8185L79.2418 32.7831L79.2496 32.7595L79.2653 32.7203L79.3164 32.6182L79.332 32.5946L79.3478 32.5672L79.3517 32.5593V32.5475L79.3439 32.5318L79.332 32.5161L79.3203 32.5083L79.3045 32.5044L79.2613 32.465L79.2496 32.4572H79.2418H79.2379L79.2338 32.4611V32.5044V32.5161L79.2221 32.4729L79.2182 32.4611L79.2143 32.4572H79.2104L79.2064 32.465L79.2024 32.4886V32.5044V32.5161L79.1907 32.5672L79.1828 32.6221L79.1789 32.6535L79.1632 32.7164L79.1436 32.7831L79.1318 32.8224L79.1122 32.8774L79.1083 32.8891L79.1043 32.9009L79.1083 32.8931L79.1239 32.8577L79.1397 32.8146L79.1475 32.791L79.1514 32.7792V32.7713L79.1593 32.7517L79.1671 32.7242L79.1789 32.681L79.1868 32.6457L79.1907 32.6299L79.1946 32.6182L79.1985 32.5985L79.2024 32.579L79.2064 32.5514L79.2104 32.5397L79.2143 32.5161L79.2182 32.5083V32.4925L79.226 32.4376L79.2299 32.4297H79.2338L79.2732 32.4494L79.3085 32.469L79.332 32.4808L79.3595 32.5005L79.3753 32.5239L79.3949 32.5554L79.4027 32.5711V32.579L79.3949 32.5907L79.3517 32.6653L79.3281 32.7203L79.3203 32.74L79.3045 32.7713L79.2849 32.8185L79.2535 32.9284L79.2338 32.9834L79.226 32.9991L79.2104 33.0422L79.2064 33.058L79.1553 33.1718L79.1436 33.1954L79.1358 33.2111L79.1239 33.2268L79.1003 33.2582L79.0729 33.2857L79.0454 33.3092L79.0218 33.325H79.014H79.0101L79.0062 33.3211L78.9826 33.3092ZM78.9551 32.8538L78.9629 32.8341L78.9943 32.7753L79.0023 32.7478L79.0062 32.7281L78.9982 32.685L78.9904 32.6614V32.6457L78.9943 32.6299L79.014 32.6025L79.0415 32.575L79.0729 32.5475L79.1278 32.5161L79.1632 32.4964L79.1671 32.4925H79.1711V32.4964L79.1671 32.5083L79.1514 32.5279L79.1358 32.5436L79.1122 32.5593L79.065 32.5946L79.0297 32.626L79.0179 32.6379L79.014 32.6496V32.6653V32.6928L79.0179 32.7242V32.7439V32.7478L79.0218 32.7517H79.0297L79.0572 32.736L79.065 32.732H79.069L79.065 32.7439L79.0454 32.7674L79.0297 32.7792L79.014 32.791L78.9982 32.8067L78.9865 32.8263L78.9629 32.8734V32.8655L78.9551 32.8538ZM79.2771 32.6065V32.5868V32.5711V32.5672L79.281 32.575V32.5985L79.2771 32.6182L79.2732 32.626V32.6182L79.2771 32.6065Z" fill="white"/>
<path fill-rule="evenodd" clip-rule="evenodd" d="M79.1384 34.1096L79.1109 34.0938L79.0953 34.0821L79.0834 34.0664L79.0756 34.0506V34.035L79.0795 34.0271L79.0873 34.0114L79.1031 33.9996L79.1267 33.9957H79.1423H79.162L79.1933 34.0075L79.2091 34.0153L79.2169 34.0271L79.2208 34.0389V34.0506L79.2169 34.0703L79.2091 34.0821L79.1974 34.0938L79.162 34.1213H79.1541L79.1463 34.1174L79.1384 34.1096ZM79.3073 34.0428L79.2798 34.035L79.2601 34.0231L79.2444 34.0114L79.2366 34.0036V33.9996V33.9957L79.2444 33.9917L79.2759 33.9839H79.2876L79.3112 33.9878L79.3309 33.9957L79.3583 34.0114L79.3701 34.0192L79.374 34.0231V34.0271L79.3701 34.0311L79.3348 34.0428H79.3073ZM78.9578 34.0271H78.946L78.9225 34.0231L78.9185 34.0192V34.0153L78.9264 34.0075L78.9421 33.9996L78.9657 33.9917L78.9932 33.9839H79.0049L79.0403 33.9917L79.0559 33.9957L79.0599 33.9996V34.0075L79.0442 34.0192L79.0206 34.0311L78.9971 34.035L78.9696 34.0389L78.9578 34.0271ZM79.3975 33.9839L79.374 33.98L79.3662 33.976L79.3622 33.9721V33.9682V33.9643L79.3662 33.9604H79.3819L79.4094 33.9643L79.4289 33.9721L79.433 33.976V33.98V33.9839L79.4289 33.9878H79.4054L79.3975 33.9839ZM79.1502 33.9682L79.1345 33.9643L79.1188 33.9525L79.1031 33.9368L79.0913 33.9093L79.0834 33.8779V33.8504L79.0873 33.8386L79.0913 33.815L79.1031 33.7955L79.1306 33.7601L79.1541 33.7365L79.162 33.7326H79.1699L79.1777 33.7365L79.2091 33.7719L79.2287 33.8033L79.2405 33.8425L79.2444 33.8661L79.2405 33.8975L79.2366 33.9132L79.2287 33.9329L79.213 33.9525L79.2013 33.9643L79.1894 33.9721L79.162 33.976L79.1502 33.9682ZM78.9146 33.9682H78.9028L78.8558 33.9564L78.8517 33.9525V33.9485L78.8558 33.9446L78.8714 33.9368L78.8911 33.9329H78.9028L78.9225 33.9407L78.9538 33.9564V33.9604V33.9643L78.9499 33.9682L78.9343 33.9721L78.9146 33.9682ZM79.2444 33.9446L79.2562 33.9132L79.2641 33.8779V33.8465L79.2719 33.8269L79.2837 33.8072L79.2954 33.7955L79.3229 33.7719L79.3465 33.7601L79.3583 33.7562H79.3662L79.3701 33.7601V33.768L79.3583 33.7955L79.3504 33.8308L79.3426 33.8583L79.3269 33.8975L79.3112 33.921L79.2954 33.9368L79.2759 33.9525L79.2562 33.9604H79.2484H79.2444V33.9564V33.9446ZM79.319 33.9329L79.3309 33.9132L79.3426 33.8857L79.3544 33.8465L79.3622 33.8308L79.3779 33.8111L79.4094 33.7915L79.4369 33.7836H79.4447H79.4486V33.7875V33.7955L79.433 33.8189L79.3975 33.8818L79.3779 33.9093L79.3504 33.9329L79.3229 33.9525L79.3151 33.9564H79.3112L79.319 33.9329ZM79.0638 33.9446L79.0481 33.9329L79.0363 33.9171L79.0128 33.8818L79.001 33.8543L78.9892 33.815L78.9813 33.7915L78.9696 33.7601V33.7562L78.9735 33.7522H78.9892L79.0088 33.7562L79.0442 33.7719L79.0559 33.7797L79.0678 33.7955L79.0717 33.8033L79.0678 33.8347V33.8622V33.8779L79.0717 33.9054L79.0834 33.9407V33.9446H79.0795H79.0717H79.0638ZM79.001 33.9446L78.9853 33.9368L78.9774 33.929L78.9618 33.9171L78.9538 33.9093L78.9343 33.8779L78.9185 33.8465L78.9028 33.8033L78.895 33.7836V33.7758L78.8989 33.7719H78.9107L78.9343 33.7836L78.9499 33.7915L78.9578 33.7994L78.9657 33.8189L78.9735 33.8308V33.8386V33.8504L78.9971 33.9015L79.0128 33.929L79.0206 33.9368V33.9407V33.9446H79.0128H79.001ZM79.4133 33.8857L79.4447 33.8308L79.4525 33.8189L79.4683 33.8072L79.48 33.8033L79.4996 33.7955H79.5115L79.5193 33.7994V33.8033V33.8072L79.5036 33.823L79.4565 33.874L79.4289 33.8975L79.4172 33.9054H79.4133V33.9015V33.8857ZM78.8989 33.8857L78.8832 33.87L78.8597 33.8425L78.8478 33.815L78.8361 33.7915V33.7875V33.7836L78.8439 33.7797L78.8675 33.7875L78.8792 33.7955L78.8871 33.8033L78.9028 33.8504L78.9185 33.8857V33.8896V33.8936H78.9146L78.8989 33.8857ZM79.2444 33.7915L79.2405 33.7797V33.7719L79.2484 33.768L79.2601 33.764H79.268L79.2719 33.768L79.2759 33.7758V33.7836L79.2641 33.8033L79.2562 33.8072H79.2523L79.2484 33.7994L79.2444 33.7915ZM79.3779 33.7719L79.3858 33.7601L79.3936 33.7562H79.4015L79.4054 33.7601L79.4094 33.7719V33.7797L79.4015 33.7836L79.374 33.7955H79.3701V33.7915V33.7836L79.3779 33.7719ZM79.4761 33.768L79.4722 33.764L79.4643 33.7601H79.4408H79.4289L79.425 33.7562L79.4211 33.7404L79.4172 33.7365L79.4133 33.7326H79.3858L79.3819 33.7287L79.3779 33.7169L79.374 33.7129H79.3701L79.3504 33.7208H79.3426L79.3309 33.7129L79.3151 33.7169L79.3034 33.7208L79.2994 33.7169L79.2876 33.7051V33.7012L79.2994 33.7051L79.3034 33.7012L79.319 33.6895H79.3269L79.3309 33.6934L79.3387 33.709L79.3426 33.7129H79.3504L79.3701 33.7012H79.3779H79.3819L79.3858 33.7051L79.3897 33.7169L79.3936 33.7208L79.4015 33.7169L79.4133 33.7129H79.4211H79.425L79.4289 33.7169L79.433 33.7287L79.4369 33.7326L79.4565 33.7287H79.4683L79.4722 33.7326V33.7444L79.4761 33.7483L79.4839 33.7522H79.5075H79.5115L79.5154 33.7562V33.764L79.5193 33.768L79.531 33.7719L79.4879 33.7836H79.4839H79.48V33.7797L79.4761 33.768ZM79.0678 33.7719L79.0599 33.764V33.7562L79.0678 33.7483L79.0717 33.7444H79.0795L79.0913 33.7522L79.0953 33.7601V33.764L79.0913 33.7719L79.0873 33.7758H79.0834L79.0678 33.7719ZM79.2837 33.7562L79.2759 33.7444V33.7404L79.2876 33.7444L79.2954 33.7404L79.3034 33.7365H79.3073L79.3151 33.7444L79.319 33.7483L79.3426 33.7404H79.3465H79.3504V33.7444L79.3465 33.7483L79.3151 33.7601L79.2915 33.7719H79.2837L79.2798 33.768L79.2837 33.7562ZM78.8675 33.7483L78.8597 33.7522V33.7562V33.768V33.7719H78.8517L78.8204 33.764L78.8164 33.7601V33.7562H78.8204L78.8322 33.7522L78.8439 33.7404L78.8478 33.7365L78.8597 33.7404H78.8675L78.8792 33.7287L78.8832 33.7248L78.8989 33.7287H78.9067L78.9146 33.7208L78.9185 33.7169H78.9264L78.9382 33.7248H78.946L78.9538 33.7208L78.9657 33.7051L78.9696 33.7012L78.9892 33.7051L79.001 33.7012H79.0049V33.7051V33.709L78.9932 33.7129L78.9813 33.7248L78.9696 33.7326H78.9618L78.9538 33.7287L78.9382 33.7248H78.9225L78.9185 33.7287L78.9067 33.7444L78.8989 33.7483H78.8871H78.8675ZM78.9343 33.7483L78.9382 33.7522V33.7562V33.7601H78.9343L78.9303 33.7562L78.9343 33.7483ZM79.001 33.7326H79.0088L79.0128 33.7365V33.7404H79.0049H79.001H78.9971V33.7365L79.001 33.7326Z" fill="white"/>
<path fill-rule="evenodd" clip-rule="evenodd" d="M78.9141 32.6946L78.9023 32.6907V32.6868V32.6828H78.9063H78.9141L78.9416 32.6907V32.6946H78.9338H78.9219H78.9141ZM78.9258 32.671L78.9141 32.6671L78.9102 32.6632V32.6593H78.918L78.9494 32.671H78.9416H78.9258ZM78.9258 32.6514L78.9102 32.6435L78.9063 32.6396V32.6357H78.9141L78.9494 32.6514H78.9377H78.9258ZM78.9691 32.6122L78.9652 32.6278L78.9613 32.6318H78.9533L78.9298 32.6278L78.918 32.62L78.9102 32.6122V32.6042L78.918 32.5689L78.9258 32.5454L78.9338 32.5257L78.9455 32.5022L78.9573 32.4904L78.9769 32.4747L79.0044 32.459L79.0162 32.4551H79.0201V32.459V32.4747L79.024 32.4943L79.0319 32.514L79.0359 32.5257V32.5336L79.0005 32.5689L78.9966 32.5728H78.9926H78.9887L78.9848 32.565H78.9809H78.9769L78.973 32.5728L78.9691 32.5847V32.6122Z" fill="white"/>
<path fill-rule="evenodd" clip-rule="evenodd" d="M78.7757 33.05L78.7835 33.0383H78.7874V33.05L78.7796 33.0658L78.7757 33.0697H78.7718V33.0658L78.7757 33.05ZM78.7482 33.0422L78.7443 33.054L78.7403 33.0619H78.7364V33.0579L78.7403 33.05L78.7482 33.0265V33.0069L78.7521 32.9991L78.7679 32.9872V32.9833H78.7599L78.7482 32.9872L78.7443 32.9911V32.9991L78.7403 33.0108L78.7364 33.0147H78.7324V33.0108V33.0069L78.7364 32.9951L78.7482 32.9558L78.756 32.9401L78.7679 32.9284L78.7835 32.9165H78.7953L78.8071 32.9205L78.8188 32.9284L78.8228 32.9323V32.944L78.8188 32.9715V32.9911V33.0069L78.8149 33.0147L78.8071 33.0186L78.7874 33.0225H78.7679H78.7599L78.756 33.0265L78.7482 33.0422ZM78.8032 33.0383L78.8071 33.0344L78.811 33.0383V33.05L78.8071 33.054L78.8032 33.0579H78.7992L78.8032 33.0383ZM79.5374 32.8734L79.5138 32.8695L79.506 32.8655L79.5021 32.8616V32.8537V32.842L79.5099 32.8302L79.5138 32.8263L79.5335 32.8223L79.5413 32.8184L79.5491 32.8105L79.561 32.8027L79.5688 32.7988L79.6081 32.7949H79.612V32.7988V32.8027L79.6041 32.8066L79.5924 32.8105L79.5885 32.8144L79.5766 32.838L79.5727 32.842V32.8459L79.5766 32.8498H79.5806L79.5885 32.842L79.5963 32.8302L79.6002 32.8263L79.6159 32.8223L79.6199 32.838L79.612 32.8459L79.6041 32.8576L79.5963 32.8616L79.5649 32.8695H79.5374V32.8734ZM79.6199 32.8655V32.8616L79.6238 32.8576H79.6316L79.6395 32.8616L79.6473 32.8655V32.8695H79.6434H79.6316L79.6199 32.8655ZM78.8345 32.8655L78.8228 32.8616L78.8188 32.8576V32.8498L78.8345 32.8066L78.8503 32.7791L78.8778 32.7399L78.8856 32.7202L78.8895 32.7163H78.9013L78.9406 32.7242L78.9445 32.7281V32.7359L78.9366 32.7635L78.9209 32.7949L78.9053 32.8184L78.8856 32.8459L78.8581 32.8734L78.8464 32.8812H78.8385L78.8345 32.8655ZM79.6434 32.8459H79.6277H79.6238L79.6316 32.842L79.6552 32.8459L79.6631 32.8498H79.667H79.6592L79.6512 32.8459H79.6434ZM79.4039 32.8223L79.3804 32.8066L79.3607 32.791L79.349 32.7752L79.3371 32.7556L79.3332 32.7359L79.3371 32.7242L79.3529 32.6809L79.3607 32.6692L79.3646 32.6653H79.3725L79.3804 32.6731L79.4 32.7281L79.4078 32.7399L79.4511 32.7869L79.455 32.7949L79.4511 32.7988L79.4392 32.8144L79.4314 32.8302L79.4275 32.8341L79.4196 32.8302L79.4039 32.8223ZM78.8464 32.7202L78.8228 32.6889L78.8071 32.6574V32.6495L78.811 32.6456L78.8306 32.6339H78.8385L78.8424 32.6378L78.8581 32.6574L78.8778 32.6809L78.8817 32.6928L78.8778 32.7163L78.8699 32.7281L78.8659 32.732H78.8581L78.8503 32.7281L78.8464 32.7202ZM79.3961 32.6809L79.3882 32.6535V32.6456L79.3921 32.6378L79.4078 32.6221L79.4236 32.6142H79.4314L79.4392 32.6181L79.4589 32.6339V32.6378L79.455 32.6456L79.4392 32.6692L79.4236 32.6849L79.4078 32.6967L79.4 32.7006H79.3961L79.3921 32.6967L79.3961 32.6809ZM78.7599 32.5868L78.756 32.5788L78.7521 32.5671L78.756 32.5554V32.5514H78.7599H78.7638H78.7679L78.7718 32.5474L78.7835 32.516V32.5043L78.7796 32.4925V32.4847L78.7835 32.4807H78.7874H78.7913L78.7953 32.4847L78.8032 32.5043L78.8071 32.52L78.811 32.5357V32.571L78.8071 32.5788L78.7953 32.5868L78.7913 32.5907H78.7835L78.7599 32.5868ZM79.4864 32.5671L79.4825 32.5632V32.5554L79.4864 32.5279L79.4785 32.4728V32.4611L79.4825 32.4494V32.4611V32.465H79.4864L79.4903 32.4611L79.4981 32.4494H79.5021H79.506V32.4533V32.4611L79.4981 32.4768V32.4886L79.5099 32.5121L79.5138 32.5279V32.5357L79.5178 32.5396H79.5217L79.5296 32.5357L79.5335 32.5435L79.5296 32.5593L79.5217 32.5749L79.5138 32.5868H79.506H79.4942L79.4864 32.5671ZM79.0466 32.5003L79.0427 32.4807V32.4728L79.0623 32.5043L79.0662 32.5121V32.516L79.0623 32.52L79.0584 32.5239H79.0544L79.0505 32.52L79.0466 32.5003ZM79.0859 32.4964L79.078 32.4807L79.074 32.465L79.078 32.4572L79.0859 32.4414L79.0898 32.4336H79.0937H79.0976L79.1134 32.4414L79.1329 32.4453H79.1526L79.1644 32.4414L79.1762 32.4375H79.1801L79.184 32.4414V32.4494L79.1801 32.4611L79.1604 32.4807L79.1369 32.4964L79.1134 32.5082L79.1015 32.5121H79.0937L79.0898 32.5082L79.0859 32.4964ZM78.7638 32.4925L78.7679 32.4964V32.5003V32.5043L78.7638 32.5082H78.7599H78.756L78.7521 32.5043V32.4964L78.7638 32.4925ZM78.7913 32.4728H78.7953L78.7992 32.4847V32.4886V32.4925L78.7953 32.4886L78.7913 32.4728ZM79.5217 32.4494V32.4611L79.5178 32.465H79.5138H79.5099V32.4572L79.5217 32.4494Z" fill="white"/>
<path fill-rule="evenodd" clip-rule="evenodd" d="M79.052 32.3919L79.0469 32.4073L79.052 32.4124H79.0572L79.0623 32.4073V32.397L79.0572 32.3919L79.052 32.3867V32.3919Z" fill="white"/>
<path fill-rule="evenodd" clip-rule="evenodd" d="M79.0631 32.2592L79.0577 32.2539H79.0523L79.0469 32.2592V32.2646V32.27L79.0631 32.2592Z" fill="white"/>
<path fill-rule="evenodd" clip-rule="evenodd" d="M79.1606 32.1949L79.1552 32.1895H79.1499L79.1445 32.1949V32.2003V32.2057L79.1606 32.1949Z" fill="white"/>
<path fill-rule="evenodd" clip-rule="evenodd" d="M79.1552 32.1968L79.1499 32.1914H79.1445V32.1968V32.2022V32.2075L79.1552 32.1968Z" fill="white"/>
<path fill-rule="evenodd" clip-rule="evenodd" d="M79.1666 32.4151L79.1549 32.419L79.1392 32.4229L79.1234 32.419L79.1078 32.4071L79.096 32.3954L79.0881 32.3837L79.0764 32.364L79.0725 32.3601H79.0645H79.0567L79.0528 32.3561V32.3483V32.3443H79.0567L79.0606 32.3404V32.3365V32.3286L79.0567 32.3169L79.0528 32.313H79.0449L79.0371 32.3051L79.0332 32.2933V32.2894H79.0371H79.0489L79.0528 32.2933H79.0567H79.0606L79.0725 32.2776L79.0881 32.2501L79.096 32.2422L79.1078 32.2344L79.1234 32.2305L79.1392 32.2344H79.1549L79.1666 32.2305H79.1745L79.1902 32.2383L79.198 32.2462L79.206 32.2619V32.2697H79.2021H79.1824L79.1666 32.2736V32.2776V32.2816V32.2855L79.1745 32.2894H79.1941L79.2021 32.2933L79.2099 32.2972H79.2177L79.2216 32.3011L79.2255 32.3169L79.2295 32.3286L79.2334 32.3365V32.3522L79.2295 32.3561L79.2255 32.3601L79.2177 32.3561H79.2138L79.2099 32.364L79.2021 32.3797L79.1824 32.4032L79.1666 32.4151Z" fill="white"/>
<path fill-rule="evenodd" clip-rule="evenodd" d="M79.2148 32.388V32.4033L79.22 32.4085H79.2252H79.2302L79.2354 32.3983V32.3931L79.2302 32.388L79.2252 32.3828H79.22L79.2148 32.388Z" fill="white"/>
<path fill-rule="evenodd" clip-rule="evenodd" d="M79.2455 32.2891L79.2402 32.2998L79.2455 32.3052H79.2509H79.2563V32.2998V32.2891H79.2455Z" fill="white"/>
<path fill-rule="evenodd" clip-rule="evenodd" d="M79.1231 32.3812L79.1309 32.389H79.1388L79.1506 32.3851L79.1584 32.3772V32.3693V32.3654L79.1506 32.3615L79.1467 32.3576V32.3536L79.1506 32.3458V32.3419H79.1467H79.1388L79.127 32.3379H79.1192V32.3419L79.1231 32.3458L79.1309 32.3536L79.1192 32.3576L79.1152 32.3654V32.3693L79.1231 32.3812Z" fill="#ED1C24"/>
<path fill-rule="evenodd" clip-rule="evenodd" d="M79.166 32.3047L79.1739 32.3126L79.1818 32.3165H79.1896L79.2014 32.3086L79.2093 32.3047V32.3008L79.2014 32.293L79.1935 32.2891H79.1818L79.1699 32.293L79.1621 32.3008V32.3047H79.166Z" fill="#ED1C24"/>
<path fill-rule="evenodd" clip-rule="evenodd" d="M79.1253 32.3128H79.137L79.1409 32.3206H79.1449V32.3128L79.1409 32.3049L79.1292 32.297H79.1331L79.137 32.2931V32.2892V32.2853L79.1253 32.2774L79.1134 32.2734L79.0978 32.2774L79.0899 32.2814L79.0859 32.2853V32.2892V32.2931H79.0899L79.1056 32.2892H79.1095L79.0978 32.2931L79.0899 32.3009V32.3088L79.0978 32.3128L79.1017 32.3206L79.1134 32.3245H79.1213L79.1253 32.3128Z" fill="#ED1C24"/>
<path fill-rule="evenodd" clip-rule="evenodd" d="M79.1552 32.2637L79.1445 32.2691V32.2745V32.2799L79.1499 32.2852H79.1552L79.1606 32.2799V32.2745L79.1552 32.2637Z" fill="#ED1C24"/>
<path fill-rule="evenodd" clip-rule="evenodd" d="M79.1552 32.187L79.1499 32.1816H79.1445V32.187V32.1923V32.1977L79.1552 32.187Z" fill="white"/>
<path fill-rule="evenodd" clip-rule="evenodd" d="M79.1534 32.1812L79.148 32.1758H79.1426V32.1812V32.1866V32.1919L79.1534 32.1812Z" fill="white"/>
<path fill-rule="evenodd" clip-rule="evenodd" d="M79.1474 32.1949L79.1421 32.1895H79.1367V32.1949V32.2003V32.2057L79.1474 32.1949Z" fill="white"/>
<path fill-rule="evenodd" clip-rule="evenodd" d="M79.1552 32.1968L79.1499 32.1914H79.1445V32.1968V32.2022V32.2075L79.1552 32.1968Z" fill="white"/>
<path fill-rule="evenodd" clip-rule="evenodd" d="M79.0767 32.2456L79.0713 32.2402H79.0659L79.0605 32.2456V32.2509V32.2563L79.0767 32.2456Z" fill="white"/>
<path fill-rule="evenodd" clip-rule="evenodd" d="M79.0709 32.2456L79.0655 32.2402H79.0601L79.0547 32.2456V32.2509V32.2563L79.0709 32.2456Z" fill="white"/>
<path fill-rule="evenodd" clip-rule="evenodd" d="M79.0904 32.2281L79.085 32.2227H79.0796L79.0742 32.2281V32.2335V32.2389L79.0904 32.2281Z" fill="white"/>
<path fill-rule="evenodd" clip-rule="evenodd" d="M79.19 32.2124L79.1846 32.207H79.1792L79.1738 32.2124V32.2178V32.2232L79.19 32.2124Z" fill="white"/>
<path fill-rule="evenodd" clip-rule="evenodd" d="M79.2252 32.2456L79.2198 32.2402H79.2144L79.209 32.2456V32.2509V32.2563L79.2252 32.2456Z" fill="white"/>
<path fill-rule="evenodd" clip-rule="evenodd" d="M79.2095 32.2281L79.2041 32.2227H79.1987L79.1934 32.2281V32.2335V32.2389L79.2095 32.2281Z" fill="white"/>
<path d="M85.4043 32.6348H91.8949V32.8468H85.4043V32.6348Z" fill="white"/>
<path fill-rule="evenodd" clip-rule="evenodd" d="M86.7539 34.2647H86.4358L86.4083 34.2569L86.3965 34.249L86.3887 34.2176L86.3926 34.033L86.4044 34.0016L86.4358 33.9898L86.4829 33.9859L86.4947 33.9781L86.5026 33.9663L86.5104 33.2477L86.4987 33.2163L86.4868 33.2085L86.424 33.1967L86.4123 33.1849L86.4005 33.1535L86.4044 32.9689L86.4162 32.9414L86.4437 32.9297H86.8795L87.0876 32.9454L87.2054 32.9807L87.2565 33.0121L87.3625 33.1064L87.4096 33.1731L87.4528 33.2635L87.4841 33.3616L87.5077 33.4911L87.5117 33.609L87.5077 33.7267L87.4763 33.8721L87.4332 33.982L87.3821 34.0644L87.284 34.1665L87.2054 34.2215L87.1191 34.2451L86.9855 34.2686H86.8167L86.7539 34.2647ZM90.2407 33.5147L90.2367 33.5658L90.2446 33.5776L90.2602 33.5815H90.3348L90.3937 33.5776L90.4016 33.5697L90.4055 33.554V33.5383L90.3309 33.2516L90.3231 33.2438L90.3152 33.2477L90.3073 33.2596L90.2407 33.5147ZM86.8009 33.8563V33.9467L86.8089 33.9781L86.8206 33.9859L86.8638 33.9977L86.9816 33.9781L87.0523 33.9467L87.1033 33.9074L87.1425 33.8524L87.174 33.7739L87.1897 33.6914L87.1936 33.554L87.1819 33.4519L87.1505 33.3576L87.1151 33.3027L87.068 33.2596L87.0131 33.232L86.9541 33.2124L86.8324 33.2006L86.8167 33.2085L86.8089 33.2202L86.805 33.2516L86.8009 33.8563ZM88.2813 34.2686H87.814H87.602L87.5862 34.2647L87.5745 34.2529L87.5667 34.2176V34.033L87.5706 34.0173L87.5784 34.0056L87.6098 33.9977L87.657 33.9938L87.6688 33.982L87.6766 33.9506V33.4323L87.6727 33.236L87.6648 33.2242L87.6373 33.2163L87.6059 33.2124L87.5903 33.2085L87.5784 33.2006L87.5706 33.1692V32.9807L87.5745 32.965L87.5823 32.9533L87.6098 32.9414H88.3598L88.4972 32.9454L88.513 32.9493L88.5247 32.9572L88.5365 32.9886L88.5325 33.2713L88.5286 33.4048L88.5247 33.4205L88.513 33.4323L88.4816 33.4401L88.3598 33.4362L88.3363 33.4205L88.2735 33.2477L88.2616 33.236L88.2302 33.2281H88.0025L87.9868 33.232L87.975 33.2399L87.9672 33.2713V33.4048L87.9711 33.4205L87.9828 33.4323L88.0143 33.4362H88.136L88.1517 33.4401L88.1634 33.4519L88.1714 33.4676V33.6679L88.1634 33.7189L88.1556 33.7307L88.14 33.7386L87.9907 33.7464L87.9789 33.7542L87.9711 33.766L87.9672 33.8171V33.9859L87.9711 34.0016L87.9828 34.0134L88.0104 34.0213L88.242 34.0173L88.2538 34.0134L88.2655 34.0016L88.2852 33.9388L88.3245 33.7935L88.3323 33.7778L88.3441 33.77L88.3755 33.766L88.4972 33.77L88.5091 33.7778L88.5169 33.7896L88.5208 33.8407L88.5169 34.2647L88.513 34.2804L88.505 34.2922L88.4776 34.3L88.2813 34.2686ZM89.4004 34.2529L89.3768 34.2294L89.043 33.5579L89.0352 33.5501H89.0273L89.0195 33.5776V33.8799L89.0155 33.9467L89.0195 33.9623L89.0273 33.9742L89.0548 33.9859H89.1019L89.1176 33.9898L89.1294 34.0016L89.1373 34.033L89.1333 34.2333L89.1255 34.2451L89.098 34.2569L88.6896 34.2647L88.6582 34.2608L88.6425 34.2529L88.6346 34.2411L88.6307 34.2097V34.0252L88.6386 34.0095L88.6504 33.9977L88.6818 33.9898H88.7132L88.725 33.9859L88.7367 33.9742L88.7446 33.9428L88.7486 33.3616L88.7446 33.2281L88.7367 33.2163L88.725 33.2085L88.6739 33.2045L88.6582 33.2006L88.6465 33.1888L88.6386 33.1575V32.9729L88.6504 32.9454L88.6621 32.9375L88.7367 32.9336H88.8113L88.886 32.9297H88.992L89.0195 32.9414L89.0469 32.9807L89.3454 33.5932L89.3572 33.6012L89.365 33.5932V33.5422L89.3611 33.4087V33.2516L89.3572 33.232L89.3493 33.2163L89.3375 33.2085L89.2629 33.2006L89.255 33.1888L89.2472 33.1575V32.9689L89.2629 32.9375L89.2944 32.9258H89.7105L89.742 32.9336L89.7537 32.9454L89.7615 32.9768V33.1456L89.7537 33.181L89.742 33.1928L89.683 33.2045L89.6713 33.2124L89.6594 33.2438L89.6555 33.4597L89.6477 34.2254L89.6438 34.2411L89.636 34.2529L89.6085 34.2608L89.4867 34.2647L89.4004 34.2529ZM90.6529 34.2647H90.5037L90.4447 34.2608L90.4291 34.2569L90.4173 34.249L90.4055 34.2176V34.0488L90.4094 34.0134L90.4173 34.0016L90.433 33.9938L90.4644 33.9898L90.4801 33.982L90.488 33.9702V33.9348L90.4683 33.8524L90.4605 33.8407L90.4488 33.8327L90.3427 33.8249H90.2052L90.1896 33.8288L90.1778 33.8368L90.1621 33.8995L90.1503 33.9506V33.9663L90.1582 33.9781L90.2052 33.9938L90.2171 34.0016L90.2249 34.033L90.2288 34.1509L90.2249 34.2215L90.221 34.2372L90.2092 34.249L90.1974 34.2569L89.9147 34.2647L89.7812 34.2608L89.7655 34.2569L89.7537 34.2451L89.7459 34.2137L89.742 34.0291L89.7459 34.0134L89.7576 34.0016L89.789 33.9898L89.8205 33.9859L89.8322 33.9781L89.844 33.9663L89.903 33.7464L90.0286 33.236V33.2202L90.0207 33.2085L89.9932 33.2006L89.9618 33.1967L89.9501 33.1888L89.9383 33.1575V32.9729L89.9422 32.9572L89.9501 32.9454L89.9618 32.9336L90.009 32.9258L90.3073 32.9297H90.6843L90.7 32.9336L90.7118 32.9454L90.7197 32.9964V33.0789L90.7157 33.1653L90.7118 33.181L90.7039 33.1928L90.6725 33.2045L90.6411 33.2124L90.6333 33.2242L90.6293 33.2399L90.6489 33.3381L90.806 33.9663L90.8139 33.9781L90.8257 33.9859L90.8728 33.9938L90.8885 34.0016L90.8964 34.0134L90.9003 34.0488L90.8964 34.2215L90.8924 34.2372L90.8845 34.249L90.8728 34.2569L90.755 34.2647H90.6529Z" fill="white"/>
<path fill-rule="evenodd" clip-rule="evenodd" d="M90.4034 32.5665H89.9204L89.889 32.5626L89.8772 32.5547L89.8654 32.5272V32.4722L89.8772 32.4487L89.9047 32.4369L89.995 32.4291L90.0068 32.4211L90.0146 32.4094L90.0225 32.2445L90.0186 31.8125L90.0146 31.7301L90.0068 31.7184L89.9793 31.7104L89.673 31.7065L89.6417 31.7104L89.6298 31.7184L89.622 31.7459L89.6181 32.2995V32.3977L89.622 32.4094L89.6337 32.4211L89.6652 32.4291L89.7594 32.433L89.7751 32.4408L89.783 32.4526L89.7909 32.4918V32.5351L89.7869 32.5468L89.7751 32.5547L89.7438 32.5626H89.1351H89.0409L89.0251 32.5586L89.0134 32.5507L89.0016 32.5272V32.4683L89.0134 32.4447L89.0409 32.433H89.1312L89.143 32.4291L89.1547 32.4211L89.1626 32.3937L89.1666 32.1621L89.1626 32.107L89.1547 32.0953L89.1272 32.0835L88.821 32.0875L88.7896 32.0953L88.7778 32.107L88.77 32.1346L88.766 32.2445L88.7582 32.2837L88.7385 32.3191L88.7032 32.3466L88.6561 32.3583L88.5933 32.3623L88.4873 32.3426L88.3891 32.3073L88.2988 32.2563L88.2437 32.2131L88.2006 32.1581L88.1731 32.0953L88.1692 32.0561L88.1888 31.9893L88.2242 31.9421L88.2595 31.9146L88.3145 31.895L88.4048 31.8833L88.9074 31.8793L89.1351 31.8714L89.1469 31.8636L89.1586 31.84V31.7537L89.1508 31.7262L89.1391 31.7184L89.0959 31.7144H88.6089H88.0553L88.0396 31.7184L88.0278 31.7262L88.02 31.7379L88.0081 31.9579L88.0003 31.9696L87.9886 31.9775L87.9572 31.9814L87.1954 31.9775H87.0619L87.0187 31.9854L86.9794 32.005L86.948 32.0403L86.9323 32.0795L86.9363 32.1228L86.9559 32.1581L86.9913 32.1855L87.0619 32.2131L87.1679 32.2288H87.2582L87.3329 32.217L87.4075 32.1935L87.4703 32.1581L87.5527 32.0795L87.5802 32.0678L87.6431 32.0639L87.965 32.0717L87.9807 32.0756L87.9925 32.0835L88.0003 32.0953L88.0042 32.1385L88.0081 32.4094L88.0122 32.4211L88.02 32.433L88.0475 32.4408L88.126 32.4447L88.1417 32.4487L88.1535 32.4565L88.1652 32.484V32.5429L88.1613 32.5586L88.1496 32.5704L88.1377 32.5743L87.8354 32.5782H87.6823L87.4389 32.5704L87.4231 32.5665L87.4114 32.5586L87.4035 32.5312V32.4722L87.4114 32.4604L87.4231 32.4526L87.4545 32.4447L87.5174 32.4408L87.5331 32.4369L87.5449 32.4291L87.5527 32.4016V32.3583L87.5449 32.3466L87.5331 32.3387H87.5017L87.3093 32.378L87.1444 32.4016L86.9913 32.4133H86.8695L86.7203 32.3977L86.6339 32.3741L86.5515 32.3348L86.4926 32.2917L86.4455 32.2366L86.4258 32.1855L86.4141 32.1306V32.0756L86.4297 32.0089L86.4729 31.9382L86.5279 31.8872L86.579 31.8558L86.6653 31.8283L86.7674 31.8125H87.0737H87.5135L87.5449 31.8047L87.5527 31.7929L87.5605 31.7654L87.5566 31.7379L87.5527 31.7262L87.541 31.7184L87.5095 31.7104L86.7518 31.7065L86.6575 31.7026L86.6457 31.6987L86.6378 31.6909L86.63 31.6634L86.6339 31.5927L86.6378 31.5809L86.6457 31.573L86.6732 31.5652H86.9206H87.2543H87.6038L87.6195 31.5613L87.6273 31.5534V31.5417L87.5959 31.5103L87.4664 31.416L87.3721 31.3688L87.2975 31.3453L87.1954 31.3296H87.1326L87.0541 31.3453L86.9245 31.3963L86.9127 31.3924L86.8892 31.3728L86.7557 31.1451L86.7518 31.1176L86.7557 31.1058L86.7792 31.0901L86.8656 31.0587L86.9833 31.0352H87.0462L87.1365 31.0508L87.2308 31.0901L87.4075 31.1922L87.9218 31.5613L87.9493 31.5691L88.2673 31.573H88.872H89.567L89.9754 31.577H90.2345H90.6665L90.6821 31.5809L90.6939 31.5888L90.7057 31.6124L90.7097 31.6673L90.7057 31.6948L90.6979 31.7065L90.6861 31.7144L90.639 31.7223L90.4976 31.7262L90.4819 31.7301L90.4701 31.7379L90.4623 31.7654V32.4016L90.4701 32.4251L90.4819 32.433L90.5094 32.4369L90.6036 32.4408L90.6312 32.4526L90.639 32.4644L90.6429 32.5312L90.6351 32.5586L90.6232 32.5665L90.5918 32.5704L90.4034 32.5665Z" fill="white"/>
<path d="M59.7871 36.2719H73.9193V29.0117H59.7871V36.2719Z" fill="#FFFF00"/>
<path d="M54.8418 36.2719H59.7874V29.0117H54.8418V36.2719Z" fill="#D40000"/>
<path fill-rule="evenodd" clip-rule="evenodd" d="M57.3933 29.7819L57.3895 29.7934C57.3818 29.8126 57.3703 29.8548 57.3473 29.8663H57.3435V29.9007H57.3397C57.3089 29.9161 57.2974 29.9966 57.286 30.0273L57.2821 30.0312H57.2706V30.0388C57.2668 30.058 57.263 30.081 57.259 30.1001V30.1079H57.2476V30.1309H57.2361V30.1539H57.2322H57.2284H57.2246V30.1577C57.2246 30.1615 57.2246 30.1615 57.2208 30.1615H57.2169H57.2131V30.1884C57.2131 30.2459 57.2131 30.3341 57.2361 30.3878V30.3916H57.2476V30.4261H57.259V30.4875H57.2706V30.522H57.2821L57.286 30.5258L57.2898 30.5296V30.5335V30.5373L57.2936 30.5488L57.2974 30.5604L57.3013 30.5718L57.3051 30.5796V30.5834V30.5872V30.591L57.3089 30.5948V30.6178H57.3128C57.3435 30.6255 57.3357 30.729 57.3549 30.7367H57.3588V30.7444C57.3588 30.7674 57.3703 30.8364 57.3588 30.8555H57.3473V30.8786L57.3357 30.8901H57.3243L57.3128 30.9016V30.9054V30.9093V30.9131V30.917V30.9208V30.9246C57.3089 30.9323 57.3013 30.9362 57.2974 30.9476V30.9514V30.9552H57.2936C57.2821 30.9552 57.2706 30.9668 57.263 30.9668H57.259V30.9744C57.2476 31.0397 57.0866 31.0627 57.0444 31.0665H57.0367C57.029 31.0741 57.0214 31.0741 57.0098 31.078L57.0022 31.0819L56.9945 31.0857L56.9791 31.0895L56.9639 31.0933H56.9523H56.9447L56.9408 31.0972L56.937 31.101L56.9331 31.1048L56.9293 31.1087C56.8603 31.147 56.7606 31.1892 56.6839 31.2045H56.6762H56.6724C56.6648 31.2199 56.6302 31.2467 56.6149 31.2505H56.6111V31.2544C56.6072 31.2812 56.5535 31.331 56.5344 31.3464L56.5305 31.3502V31.3541C56.5267 31.3771 56.4998 31.3848 56.496 31.4116V31.4155H56.4922C56.4768 31.4193 56.4385 31.4423 56.4347 31.4615V31.4653H56.4308C56.3809 31.4691 56.358 31.5382 56.335 31.5803L56.3311 31.588H56.3196V31.5919C56.312 31.6071 56.3004 31.6301 56.2966 31.6493V31.6532H56.2928C56.2774 31.6609 56.2698 31.6877 56.2506 31.6877H56.2467V31.6916C56.2199 31.7414 56.1432 31.8181 56.1048 31.8603V31.8832H56.0934V31.9062H56.0819V31.914C56.0819 31.9293 56.078 31.9638 56.0589 31.9676H56.055V32.0021H56.0512C56.0321 32.0137 56.0205 32.0673 56.0091 32.075V32.0788C56.0051 32.0942 56.0013 32.1056 55.9975 32.121V32.1248H55.986L55.963 32.1747H55.9515C55.9515 32.1862 55.9438 32.1977 55.9324 32.1977H55.9284L55.917 32.259H55.9055C55.894 32.282 55.9055 32.3549 55.9055 32.3779V32.3895H55.9093H55.9132C55.9132 32.3895 55.917 32.3895 55.917 32.3933V32.3971C55.917 32.4009 55.917 32.4009 55.9208 32.4009H55.9246H55.9284V32.4047C55.9284 32.4163 55.94 32.4354 55.9515 32.4393H55.9553V32.4623L55.9668 32.4738H55.9899V32.4776C55.9899 32.493 56.0013 32.4776 56.0013 32.493V32.4968H56.0243L56.0282 32.5006L56.0359 32.5045L56.0435 32.5083L56.0512 32.5122L56.0589 32.516H56.0627H56.0665H56.0704H56.0742L56.0857 32.5275V32.539L56.0972 32.5505C56.1432 32.5811 56.1279 32.5351 56.1777 32.5927V32.5965V32.6003H56.2007V32.6119H56.2237V32.6233H56.2467L56.2583 32.6348V32.6578L56.3042 32.7077H56.3082H56.312H56.3158H56.3196C56.3234 32.7115 56.3234 32.7115 56.3273 32.7154V32.7192V32.7231V32.7269V32.7307V32.7345V32.7384L56.3388 32.7499L56.3503 32.7613H56.3541H56.358H56.3618C56.3733 32.7691 56.3771 32.7729 56.3887 32.7805H56.4117L56.4462 32.8036V32.8151C56.4577 32.8151 56.4653 32.8228 56.4692 32.8342V32.8381H56.4922L56.5036 32.8496V32.861L56.5152 32.8726H56.5382L56.5727 32.9071V32.9301H56.5765C56.5881 32.9339 56.5995 32.9455 56.6111 32.9531V32.9647H56.6225V32.9761H56.6341L56.6456 32.9877C56.6494 33.0873 56.8603 33.2791 56.937 33.3213L56.9447 33.3251L56.9523 33.3289C57.0827 33.3634 57.3357 33.3557 57.47 33.3251L57.4776 33.3213L57.4853 33.3174V33.3059L57.4892 33.3021C57.5199 33.2906 57.5582 33.2829 57.5927 33.2791H57.6042V33.2752C57.6118 33.2638 57.6348 33.256 57.6388 33.2446V33.2408H57.6426C57.654 33.2408 57.7154 33.2216 57.7231 33.2062H57.7806L57.7921 33.1947V33.1832H57.8036V33.1717H57.8151L57.8266 33.1602C57.8266 33.1487 57.8342 33.1295 57.842 33.118L57.8458 33.1103L57.8496 33.1027C57.8534 33.095 57.8573 33.0873 57.865 33.0835V33.0605C57.8765 33.0452 57.8841 33.0106 57.8995 32.9915L57.9033 32.9877H57.9148C57.9263 32.9761 57.9263 32.9569 57.9417 32.9455L57.9455 32.9416L57.9493 32.9377V32.9033H57.9531H57.957C57.9647 32.8994 57.9723 32.8918 57.9723 32.8841V32.8802L57.9762 32.8764L57.98 32.8688L57.9876 32.8572L57.9954 32.8458L58.003 32.8342L58.0106 32.8228L58.0145 32.8189L58.0184 32.8151V32.8112V32.8074L58.0644 32.7575H58.0682H58.072H58.0759H58.0797L58.0873 32.7537L58.0951 32.7499L58.1027 32.7461L58.1103 32.7422H58.1143H58.1181H58.1219H58.1257L58.1372 32.7307V32.7269V32.7231V32.7192V32.7154V32.7115C58.1487 32.7 58.1679 32.7 58.1756 32.6847V32.6808V32.677V32.6732H58.1794C58.1909 32.6732 58.2178 32.6616 58.2254 32.6502V32.6464H58.2484L58.2522 32.6425L58.2561 32.6387H58.2599H58.2637L58.2753 32.6348L58.2867 32.631C58.2945 32.6272 58.3097 32.6272 58.3213 32.6195L58.3251 32.6157V32.6042H58.3596V32.5927H58.3634C58.3711 32.5927 58.3903 32.6003 58.3942 32.585V32.5811H58.4286V32.5773C58.4325 32.5659 58.4593 32.5581 58.4631 32.5467V32.5428H58.4977V32.5313H58.5437V32.5198H58.5667V32.4968H58.5782V32.4738H58.5896V32.3779H58.5782V32.3549H58.5667L58.5628 32.3511C58.5437 32.2974 58.5628 32.1785 58.5628 32.121V32.1095C58.5744 32.098 58.5744 32.0099 58.5744 31.9983V31.9907H58.5628V31.9868C58.5667 31.9753 58.5706 31.96 58.5552 31.9561H58.5514V31.9446C58.5514 31.8871 58.5744 31.7682 58.5514 31.7146L58.5475 31.7107H58.536V31.6877H58.5245V31.519H58.513L58.5015 31.4577L58.49 31.4461H58.4785V31.4347H58.467L58.4555 31.4231V31.3886H58.4517C58.4363 31.3886 58.4517 31.3771 58.4363 31.3771H58.4325V31.3733C58.4286 31.3618 58.4248 31.3464 58.421 31.335V31.331H58.4172H58.4133H58.4094H58.4056L58.398 31.3272L58.3942 31.3234L58.3903 31.3196L58.3864 31.3158L58.3826 31.3119V31.2889L58.3711 31.2774H58.3673H58.3634C58.3558 31.2736 58.3405 31.2659 58.3366 31.2583V31.2544V31.2505H58.3328C58.2906 31.2429 58.2408 31.2313 58.2024 31.2161L58.1986 31.2122V31.2007L58.1525 31.1892V31.1854C58.1525 31.17 58.1411 31.1854 58.1411 31.17V31.1662H58.1065V31.1547H58.0835V31.1432H58.0605V31.1394C58.0605 31.124 58.049 31.1394 58.049 31.124V31.1202H58.0452C58.0375 31.1202 58.003 31.1087 57.9992 31.0972H57.9647V31.0741H57.9531V31.0511H57.957C57.9723 31.0511 57.957 31.0397 57.9723 31.0397H57.9762V31.0167L57.9876 31.0051H58.0106L58.0222 30.9936V30.9822L58.0336 30.9706H58.0567V30.9592H58.0797L58.0912 30.9476V30.9361H58.1027L58.1143 30.9246C58.1143 30.9208 58.1181 30.917 58.1181 30.9093L58.1219 30.9054L58.1257 30.9016C58.1295 30.8978 58.1295 30.8939 58.1295 30.8863L58.1411 30.8747H58.1525V30.8633H58.1641L58.1756 30.8517V30.8287H58.1794C58.1948 30.8287 58.1794 30.8173 58.1948 30.8173H58.1986V30.7942H58.21V30.7712H58.2216V30.7482L58.2331 30.7367H58.2446L58.2561 30.7252V30.7022H58.2676V30.6792H58.2714C58.2867 30.6792 58.2714 30.6677 58.2867 30.6677H58.2906V30.6447H58.2945C58.3097 30.6447 58.2945 30.6332 58.3097 30.6332H58.3136V30.5987H58.3251V30.5642H58.3366V30.5296H58.3481V30.5258C58.3596 30.4951 58.3558 30.4568 58.3673 30.4261V30.4223H58.3788V30.3724H58.3903V30.3226H58.4018V30.3187C58.4133 30.2804 58.4018 30.2152 58.4133 30.1768V30.173H58.4248V30.1692C58.4325 30.1347 58.4133 30.1001 58.421 30.0657V30.0618H58.4325V30.012H58.421V29.9621H58.4094V29.9277H58.398V29.8893H58.3864V29.8663H58.375V29.8432L58.3634 29.8318L58.352 29.8202H58.3405H58.3251H58.3059H58.2867H58.2791H58.2714C58.2599 29.8202 58.2484 29.8202 58.2369 29.8164V29.805H58.1794V29.7934C58.164 29.7819 58.0912 29.805 58.0873 29.7858V29.7819H58.0835C58.0682 29.7781 58.0145 29.7627 58.003 29.7474H57.98V29.7359H57.9762C57.9647 29.7397 57.957 29.7435 57.957 29.7283V29.7243H57.9531C57.9417 29.7205 57.9301 29.7167 57.9187 29.7129L57.6348 29.7243V29.7283C57.6004 29.7666 57.4508 29.7666 57.401 29.7934L57.3933 29.7819Z" fill="white"/>
<path fill-rule="evenodd" clip-rule="evenodd" d="M58.4049 30.1794L58.4088 30.1603L58.4126 30.1411L58.4165 30.1219C58.4855 29.8306 58.1289 29.9494 57.9947 29.9187H57.9717H57.9486C57.7991 29.9187 57.5537 29.7079 57.4617 29.8459L57.4578 29.8535L57.454 29.8612L57.4501 29.8689L57.4463 29.8765L57.4425 29.8842C57.4233 29.9456 57.4348 30.0146 57.4387 30.0797V30.1105C57.4387 30.1373 57.4271 30.2024 57.4079 30.2178H57.4041H57.4003H57.3965C57.3351 30.2063 57.2968 30.0759 57.2277 30.2178L57.2239 30.2255L57.2201 30.2332L57.2163 30.2408L57.2124 30.237C57.1817 30.1833 57.2009 30.0989 57.2507 30.0644L57.2584 30.0606V30.0299V29.9992C57.2239 29.5736 57.7109 29.5275 57.9869 29.5315L58.0023 29.5353L58.0177 29.5391C58.3244 29.5851 58.5469 29.8076 58.4548 30.1642L58.451 30.1794L58.4472 30.191H58.4395C58.4318 30.191 58.4241 30.191 58.4126 30.191H58.4088L58.4049 30.1794ZM56.6833 32.6912L56.6679 32.7065C56.6372 32.741 56.6027 32.7717 56.572 32.8062L56.5566 32.8215L56.5644 32.879L56.572 32.9365L56.5797 32.9941C56.595 33.0938 56.6104 33.1896 56.6219 33.2893L56.6449 33.5501L56.6679 33.8146C56.7177 34.34 56.7676 34.8692 56.8136 35.3945V35.4022V35.4099V35.4175C56.8021 35.4827 56.8213 35.5518 56.7983 35.6131L56.7944 35.6207L56.7906 35.6285H56.8366C56.9554 35.6323 57.0782 35.6285 57.1971 35.6323H57.2431L57.1127 35.4252L57.1088 35.4213C57.1012 35.4099 57.0935 35.3945 57.0935 35.3792V35.3754V35.3715C57.1127 35.0686 57.1204 34.7618 57.1434 34.4589L57.1472 34.3937L57.151 34.3285L57.1664 34.3438C57.3696 34.5778 57.3888 35.2565 57.3926 35.5594V35.6207H57.4195C57.5498 35.6246 57.6764 35.6169 57.8067 35.6246H57.8336L57.8145 35.5939C57.7761 35.5364 57.7416 35.4866 57.6879 35.4443L57.6764 35.4367V35.3102L57.6726 35.1836L57.6687 35.0571L57.6649 34.9306C57.6572 34.5471 57.6495 34.1636 57.6764 33.7802L57.6802 33.7149L57.684 33.6498L57.6879 33.5846C57.707 33.5041 57.6802 33.4082 57.7378 33.3431L57.7492 33.3277L57.7684 33.297C57.8221 33.205 57.872 33.1091 57.9333 33.0209L57.9448 33.0056L57.9563 32.9902L57.9678 32.9749L57.9793 32.9595L57.9909 32.9443C58.0483 32.8676 58.1212 32.8062 58.1979 32.7601L58.2132 32.7525L58.2286 32.7448C58.3321 32.6834 58.4664 32.649 58.5621 32.5953L58.5699 32.5915L58.5737 32.5876L58.5775 32.5837L58.5813 32.5761L58.5852 32.5685L58.589 32.5607C58.612 32.5147 58.612 32.461 58.612 32.4112V32.3882V32.3613C58.5929 32.116 58.6082 31.859 58.5852 31.6137L58.5813 31.5945L58.5775 31.5791L58.5737 31.5638C58.5123 31.2339 58.29 31.2417 58.0522 31.0844L58.0253 31.0691L58.0023 31.0537L57.9793 31.0385L57.9755 31.0537C57.9717 31.0806 57.964 31.1074 57.9601 31.1342L57.9563 31.1496L57.9869 31.165C58.1327 31.2379 58.2822 31.326 58.4088 31.4373L58.4203 31.4487L58.3244 31.6673L58.3014 31.6865L58.1749 31.6788L58.1595 31.5484L58.1097 31.5522L58.0982 31.6328L58.0637 31.6366L58.0714 31.6788C58.0637 31.7325 58.0714 31.7861 58.0637 31.8399V31.8513H58.0714C58.0866 31.8513 58.102 31.8513 58.1174 31.8513H58.125L58.1289 31.836C58.1365 31.8091 58.1404 31.7823 58.1442 31.7555L58.148 31.7402H58.1633C58.1979 31.744 58.2324 31.7402 58.2669 31.744H58.2822L58.2784 31.7708C58.1979 32.2694 57.9985 32.7218 57.7684 33.1551L57.7454 33.2011H57.73C57.6879 33.1973 57.6457 33.1973 57.6073 33.1935H57.592L57.5959 33.182L57.5997 33.1705L57.6035 33.1589C57.6342 33.0784 57.7378 32.9212 57.7492 32.8484L57.7531 32.833L57.7569 32.8177L57.7607 32.7908C57.7684 32.7218 57.7761 32.649 57.7915 32.5837L57.7953 32.5685L57.7991 32.5531L57.8029 32.5377L57.8067 32.5224L57.8106 32.5071L57.8145 32.4918L57.8221 32.4764L57.8298 32.461L57.8374 32.4457L57.8451 32.4304L57.8528 32.4151L57.8796 32.3499L57.8681 32.2616L57.8988 31.9702L57.9295 31.9088V31.905V31.9012V31.8974V31.8936C57.9256 31.859 57.9064 31.8283 57.9026 31.79L57.8988 31.7747V31.7593C57.895 31.6558 57.8912 31.5484 57.9218 31.4487V31.4411V31.4257C57.9218 31.4027 57.9103 31.3835 57.8988 31.3644V31.3606V31.3567C57.8872 31.3145 57.8988 31.2723 57.9026 31.2301V31.2187V31.2071V31.1956V31.188H57.8872C57.8566 31.1918 57.8221 31.1956 57.7915 31.1995H57.7761L57.7876 31.2531C57.8988 31.8322 57.8029 32.6912 57.5 33.1858L57.4962 33.1973L56.7484 33.2088L56.7369 32.8828H56.7638C56.8903 32.8752 57.0169 32.879 57.1434 32.8752H57.1702V32.8676V32.8254V32.8177L56.8289 32.8254V32.8177C56.8175 32.7601 56.7983 32.7026 56.7868 32.6451V32.6374L56.7791 32.6413C56.7484 32.6566 56.7254 32.6758 56.6947 32.6912L56.6871 32.695" fill="#0000AA"/>
<path fill-rule="evenodd" clip-rule="evenodd" d="M58.2817 30.2293L58.2894 30.2255C58.3124 30.2177 58.366 30.2063 58.3891 30.2255L58.4313 30.1909L58.4274 30.1871C58.3891 30.1488 58.3162 30.1564 58.2702 30.1756L58.2625 30.1794L58.2817 30.2293ZM57.7947 30.118L57.8024 30.1142C57.8714 30.0951 57.9289 30.0989 57.9864 30.1526L57.9902 30.1564L58.0286 30.1142L58.0209 30.1066C57.9481 30.0413 57.8791 30.0337 57.7908 30.0567L57.7832 30.0605" fill="#000080"/>
<path fill-rule="evenodd" clip-rule="evenodd" d="M58.1323 30.7365L58.117 30.7443C57.9712 30.7979 57.8447 30.7787 57.7412 30.6484L57.7297 30.6368L57.6875 30.6714L57.699 30.6867C57.8179 30.8362 57.9674 30.8631 58.1362 30.7979L58.1554 30.7903L58.1323 30.7365ZM58.3126 30.4604V30.4336H58.186V30.4912H58.3126V30.4604ZM57.8639 30.2266L57.8601 30.2342C57.8294 30.2994 57.7834 30.3224 57.7182 30.3148H57.7105L57.7029 30.3685H57.7105C57.7987 30.3799 57.8677 30.3455 57.9061 30.2572L57.9099 30.2496" fill="#000080"/>
<path fill-rule="evenodd" clip-rule="evenodd" d="M58.441 30.174L58.4372 30.1817C58.4218 30.2123 58.3873 30.2239 58.3681 30.2622V30.266V30.2698C58.3643 30.2928 58.3566 30.3619 58.3375 30.3733V30.3811V30.3887V30.3963V30.4041C58.3183 30.5727 58.3451 30.5306 58.2608 30.707L58.2569 30.7185L58.253 30.73C58.2032 30.8182 58.1151 30.9102 58.0384 30.9639L58.023 30.9754L58.0077 30.9869L57.9923 31.0023L57.9655 31.0061C57.8198 31.0176 57.7047 30.9831 57.5859 30.8872L57.5743 30.8796L57.5513 30.8642L57.5322 30.8488L57.5207 30.8412L57.5092 30.8335L57.5015 30.8258L57.4938 30.8182L57.444 30.7875V30.7837V30.7799C57.4248 30.7262 57.4095 30.6878 57.3941 30.6265L57.3903 30.6111L57.3865 30.5957L57.3827 30.5805L57.3749 30.5651L57.3711 30.5574L57.3673 30.5498L57.3635 30.5421C57.3251 30.4808 57.2599 30.3158 57.2714 30.243V30.2315V30.2199V30.2085L57.2752 30.1969L57.279 30.1893L57.2752 30.1778L57.2714 30.1663L57.2676 30.1586L57.2638 30.151V30.1471V30.1433V30.1394H57.2599C57.2522 30.1356 57.2446 30.1471 57.2407 30.151V30.1548L57.2369 30.1625L57.2331 30.174L57.2293 30.1855C57.1871 30.4155 57.4478 30.684 57.3251 30.8834L57.3213 30.8948L57.3098 30.9179L57.2982 30.9409L57.4133 31.0214L57.4286 30.8604L57.7967 31.0828C57.8198 31.1288 57.8121 31.1901 57.8351 31.24L57.839 31.2438H57.8466H57.8542H57.862H57.8696L57.8811 31.24L57.8926 31.2362L57.9041 31.2323L57.9156 31.2285H57.9233H57.9309H57.9387H57.9463L57.9501 31.2246V31.2208V31.217V31.2131V31.2093V31.2055C57.9501 31.1901 57.9387 31.1748 57.9463 31.1595V31.1557V31.1517L57.9501 31.1479V31.1441C57.9579 31.1326 57.9655 31.1479 57.9731 31.1441H57.977V31.1403C57.9808 31.1365 57.9847 31.1249 57.9847 31.1211V31.1134V31.1058C57.9923 31.0866 57.9885 31.0636 57.9962 31.0444V31.0406V31.0368V31.0291V31.0214V31.0176V31.0137V31.0099V31.0061C57.9962 31.0023 58 30.9984 58.0038 30.9945H58.0077L58.0192 30.9869C58.046 30.9715 58.0728 30.9524 58.0997 30.9371L58.115 30.9256L58.1303 30.9179L58.1342 30.914C58.1611 30.8872 58.1994 30.8412 58.2224 30.8105L58.23 30.799L58.2378 30.7875L58.2454 30.776C58.3528 30.6073 58.4064 30.4041 58.4524 30.2085L58.4563 30.1931L58.4602 30.1778L58.464 30.1625" fill="#000080"/>
<path fill-rule="evenodd" clip-rule="evenodd" d="M56.541 32.0835H56.6139V32.5322H56.541V32.0835ZM57.3272 30.2851L57.3002 30.2927L57.3272 30.4232L57.3808 30.4116L57.354 30.2812" fill="#231F20"/>
<path fill-rule="evenodd" clip-rule="evenodd" d="M58.4712 31.6426L58.4099 31.6503L58.4022 31.7538C58.3409 31.888 58.3064 32.0337 58.2642 32.1757L58.2604 32.3559L58.1721 32.4517L58.1338 32.5515L58.1031 32.6358L58.0801 32.7239L58.3371 32.5897L58.4444 32.5591L58.4904 32.5361L58.5287 32.4786L58.5135 32.0529" fill="#000080"/>
<path d="M58.4849 31.6445L58.4235 31.6484L58.4159 31.752C58.3546 31.8861 58.32 32.0319 58.2779 32.1737L58.274 32.354L58.1858 32.4498L58.1474 32.5495L58.1168 32.6339L58.0938 32.7221L58.3506 32.5879L58.4581 32.5572L58.5041 32.5342L58.5424 32.4767L58.527 32.0511L58.4849 31.6445Z" fill="#F9F9F9" stroke="white" stroke-width="0.0207774" stroke-miterlimit="2.613"/>
<path fill-rule="evenodd" clip-rule="evenodd" d="M58.0048 30.4018V30.4171C58.0048 30.444 58.0048 30.4747 58.0087 30.5015V30.5168L58.0125 30.5206C58.1161 30.5782 58.1391 30.49 58.1353 30.3903V30.3788H58.1429C58.1544 30.3788 58.1659 30.375 58.1774 30.375H58.1851V30.3941C58.1889 30.6817 57.9243 30.6626 57.9511 30.4133V30.4057H57.955C57.9665 30.4057 57.978 30.4057 57.9895 30.4057H57.9972" fill="#000080"/>
<path fill-rule="evenodd" clip-rule="evenodd" d="M56.5477 32.1699C56.4786 32.1929 56.4211 32.2542 56.3789 32.3233C56.4364 32.377 56.494 32.4268 56.5515 32.4805C56.5477 32.3808 56.5515 32.2734 56.5477 32.1699Z" fill="#000080"/>
<path fill-rule="evenodd" clip-rule="evenodd" d="M57.2707 30.9297L57.2439 30.9412L57.217 30.9527L57.1864 30.9643L57.1557 30.9757C57.0905 30.9987 57.0254 31.0217 56.9601 31.0448L56.9257 31.0562L56.8873 31.0678C56.6687 31.1291 56.7493 31.1023 56.5805 31.2556L56.546 31.2902L56.5115 31.3247L56.477 31.3592C56.3083 31.5395 56.1625 31.7389 56.0283 31.9535L56.0053 31.9881L55.9861 32.0226L55.9669 32.0571L55.9478 32.0916C55.9056 32.1721 55.8328 32.2526 55.8404 32.3524V32.36V32.3677V32.3754C55.8442 32.3907 55.8481 32.406 55.852 32.4214L55.8558 32.429L55.8596 32.4367L55.8634 32.4444L55.8672 32.4521L55.8712 32.4597L55.9593 32.5211L56.0475 32.5824L56.1357 32.6438L56.2239 32.7051L56.3121 32.7665L56.4003 32.8278L56.4885 32.8892L56.5767 32.9506L56.5728 32.9352L56.569 32.9199V32.9084V32.8969V32.8853V32.8701L56.5651 32.8547L56.5613 32.8393L56.5307 32.8164L56.4961 32.7934L56.4616 32.7704L56.4272 32.7473L56.3581 32.6975L56.2891 32.6476L56.22 32.5978L56.1511 32.5479L56.1165 32.5249L56.082 32.5019C56.0514 32.4751 55.9517 32.4214 55.9401 32.3715L55.9363 32.3639V32.3562V32.3485C55.9363 32.2335 56.1855 31.8538 56.2546 31.7619L56.2738 31.7389L56.2929 31.7158L56.3121 31.6928L56.3313 31.6698L56.3657 31.6238L56.4041 31.5778L56.477 31.4896L56.5499 31.4014L56.5575 31.3975L56.5651 31.3937L56.5728 31.3899L56.5805 31.3861L56.5882 31.3822H56.5958H56.6035H56.6112H56.6188H56.6266H56.6342C56.661 31.3861 56.6802 31.4014 56.6994 31.4206L56.7032 31.4244L56.7109 31.4359L56.7185 31.4474L56.7263 31.4628L56.7339 31.4742L56.7454 31.5241L56.7531 31.5701L56.7569 31.6123L56.7607 31.6506V31.689V31.7235L56.7569 31.7541L56.7531 31.7848L56.7454 31.8116L56.7377 31.8386L56.7263 31.8615L56.7147 31.8845L56.7032 31.9075C56.6188 32.0264 56.4693 32.0993 56.3657 32.1952L56.3389 32.2182L56.3121 32.245L56.2852 32.2718L56.2546 32.3025L56.2814 32.3332L56.3083 32.3639C56.3888 32.4521 56.4732 32.5364 56.5651 32.6131L56.592 32.6323L56.6188 32.6515L56.6496 32.6783L56.6764 32.6975H56.684L56.6917 32.6937L56.6994 32.6898L56.7071 32.6859L56.7223 32.6783L56.7377 32.6707L56.7531 32.6629L56.7684 32.6553L56.7722 32.6438L56.7799 32.6399L56.7876 32.6361V32.6323L56.7646 32.6131C56.6418 32.5249 56.4923 32.4521 56.3926 32.3293L56.3849 32.3179L56.3888 32.3101L56.3926 32.3025L56.3964 32.2949L56.4003 32.2871C56.4156 32.2603 56.4348 32.2373 56.4578 32.222L56.4693 32.2144L56.4808 32.2066L56.4923 32.199L56.5038 32.1913L56.5153 32.1874L56.5269 32.1836L56.5383 32.1798L56.5499 32.176L56.5882 32.1376C56.6304 32.0916 56.6687 32.0456 56.7109 32.0034L56.7263 31.9881L56.7415 31.9727L56.7569 31.9574L56.7722 31.9421C56.8835 31.8654 56.8681 31.6276 56.8528 31.5049L56.849 31.4934L56.8451 31.4819L56.8412 31.4704L56.8374 31.4589L56.8336 31.4512C56.8029 31.409 56.7646 31.3592 56.7454 31.3093L56.7415 31.3017L56.7377 31.294C56.7301 31.2518 56.7415 31.2288 56.7761 31.2097L56.7837 31.2058L56.7952 31.202L56.8068 31.1981C57.543 30.9681 57.0981 31.0716 57.7424 31.1943L57.7578 31.1981H57.773L57.7884 31.202V31.1867C57.7846 31.1675 57.7808 31.1483 57.7808 31.1291V31.1138H57.7654C57.6005 31.1061 57.4433 31.0448 57.2975 30.9565L57.2823 30.9451" fill="#000080"/>
<path fill-rule="evenodd" clip-rule="evenodd" d="M69.4138 33.9848L69.2414 33.5822L69.0688 33.9848H69.4138ZM69.4426 34.0567H69.0401L68.997 34.1716C68.9826 34.2147 68.9681 34.2436 68.9681 34.2723C68.9681 34.301 68.9826 34.3298 69.0113 34.3441C69.0257 34.3585 69.0688 34.3585 69.1263 34.3585V34.3873H68.7382V34.3585C68.7813 34.3585 68.81 34.3298 68.8388 34.3011C68.8676 34.2723 68.8963 34.2147 68.9394 34.1285L69.3563 33.1797H69.3708L69.7876 34.1572C69.8308 34.2436 69.8595 34.301 69.8883 34.3298C69.9027 34.3441 69.9314 34.3585 69.9745 34.3585V34.3873H69.4138V34.3585H69.4426C69.4858 34.3585 69.5145 34.3585 69.5432 34.3441C69.5577 34.3298 69.5577 34.3154 69.5577 34.3011C69.5577 34.2866 69.5577 34.2866 69.5577 34.2723C69.5577 34.2723 69.5432 34.2436 69.5289 34.2004L69.4426 34.0567ZM68.8676 33.2084V33.2372C68.8244 33.2372 68.7957 33.2515 68.7813 33.2659C68.7525 33.2947 68.7094 33.3522 68.6519 33.4671L68.4075 33.8985V34.186C68.4075 34.2436 68.4075 34.2866 68.4219 34.3011C68.4219 34.3154 68.4362 34.3298 68.4651 34.3441C68.4794 34.3585 68.5081 34.3585 68.5369 34.3585H68.5944V34.3873H67.9474V34.3585H68.0049C68.0337 34.3585 68.0624 34.3585 68.0912 34.3441C68.1056 34.3298 68.12 34.3154 68.12 34.3011C68.12 34.2866 68.1343 34.2436 68.1343 34.186V33.9416L67.8612 33.4384C67.8037 33.3377 67.775 33.2803 67.7461 33.2659C67.7174 33.2515 67.6886 33.2372 67.6599 33.2372V33.2084H68.2206V33.2372H68.1918C68.1631 33.2372 68.1343 33.2372 68.12 33.2515C68.1056 33.2659 68.1056 33.2659 68.1056 33.2802C68.1056 33.2947 68.1343 33.3522 68.1775 33.4384L68.3931 33.8266L68.5944 33.4671C68.6519 33.3809 68.6663 33.3234 68.6663 33.2947C68.6663 33.2803 68.6663 33.2659 68.6375 33.2515C68.6232 33.2372 68.58 33.2228 68.5369 33.2228V33.194L68.8676 33.2084ZM67.2142 33.9848L67.0417 33.5822L66.8692 33.9848H67.2142ZM67.243 34.0567H66.8404L66.7973 34.1716C66.7829 34.2147 66.7686 34.2436 66.7686 34.2723C66.7686 34.301 66.7829 34.3298 66.8117 34.3441C66.8261 34.3585 66.8691 34.3585 66.9267 34.3585V34.3873H66.5385V34.3585C66.5817 34.3585 66.6104 34.3298 66.6392 34.3011C66.6679 34.2723 66.6967 34.2147 66.7398 34.1285L67.1567 33.1797H67.1711L67.588 34.1572C67.6311 34.2436 67.6599 34.301 67.6886 34.3298C67.7031 34.3441 67.7318 34.3585 67.775 34.3585V34.3873H67.2142V34.3585H67.243C67.2861 34.3585 67.3148 34.3585 67.3436 34.3441C67.358 34.3298 67.358 34.3154 67.358 34.3011C67.358 34.2866 67.358 34.2866 67.358 34.2723C67.358 34.2723 67.3436 34.2436 67.3293 34.2004L67.243 34.0567ZM65.8916 33.2372V33.2084H66.5098V33.2372H66.4666C66.4379 33.2372 66.4091 33.2372 66.3804 33.2515C66.3661 33.2659 66.3516 33.2803 66.3516 33.2947C66.3516 33.309 66.3372 33.3522 66.3372 33.4097V33.9848C66.3372 34.0997 66.3229 34.186 66.3085 34.2291C66.2797 34.2866 66.251 34.3298 66.1935 34.3585C66.136 34.3873 66.0641 34.416 65.9922 34.416C65.8916 34.416 65.8197 34.3873 65.7622 34.3441C65.7047 34.2866 65.676 34.2291 65.676 34.1716C65.676 34.1285 65.6903 34.0997 65.719 34.071C65.7478 34.0422 65.7765 34.0278 65.8053 34.0278C65.8341 34.0278 65.8629 34.0422 65.8916 34.0567C65.9204 34.0854 65.9204 34.1142 65.9204 34.1429C65.9204 34.1572 65.9204 34.1716 65.9204 34.186C65.9204 34.186 65.9059 34.2004 65.8916 34.2291C65.8772 34.2579 65.8629 34.2723 65.8629 34.2866C65.8629 34.3011 65.8629 34.3154 65.8916 34.3298C65.9204 34.3441 65.9347 34.3585 65.9778 34.3585C66.0066 34.3585 66.021 34.3585 66.0353 34.3441C66.0498 34.3298 66.0641 34.3154 66.0641 34.2866C66.0641 34.2579 66.0785 34.186 66.0785 34.0567V33.4097C66.0785 33.3522 66.0785 33.309 66.0641 33.2947C66.0641 33.2803 66.0498 33.2659 66.021 33.2515C66.0066 33.2372 65.9778 33.2372 65.9491 33.2372H65.8916ZM65.6041 34.3585V34.3873H65.0002V34.3585H65.0434C65.0721 34.3585 65.1009 34.3585 65.1296 34.3441C65.144 34.3298 65.1584 34.3154 65.1584 34.3011C65.1584 34.2866 65.1728 34.2436 65.1728 34.186V33.4097C65.1728 33.3522 65.1728 33.309 65.1584 33.2947C65.1584 33.2803 65.144 33.2659 65.1152 33.2515C65.1009 33.2372 65.0721 33.2372 65.0434 33.2372H65.0002V33.2084H65.6041V33.2372H65.5609C65.5321 33.2372 65.5034 33.2372 65.4747 33.2515C65.4602 33.2659 65.4459 33.2803 65.4459 33.2947C65.4459 33.309 65.4315 33.3522 65.4315 33.4097V34.186C65.4315 34.2436 65.4315 34.2866 65.4459 34.3011C65.4459 34.3154 65.4602 34.3298 65.4891 34.3441C65.5034 34.3585 65.5321 34.3585 65.5609 34.3585H65.6041ZM64.957 33.2084V33.2372C64.914 33.2372 64.8708 33.2659 64.8421 33.309C64.8133 33.3377 64.7846 33.4097 64.7414 33.5103L64.3389 34.416H64.3101L63.9076 33.4671C63.8644 33.3522 63.8214 33.2803 63.8069 33.2659C63.7926 33.2515 63.7639 33.2372 63.7207 33.2228V33.194H64.2814V33.2228H64.2671C64.2239 33.2228 64.1807 33.2228 64.1664 33.2372C64.152 33.2515 64.152 33.2515 64.152 33.2802C64.152 33.2947 64.152 33.309 64.152 33.3234C64.152 33.3378 64.1664 33.3809 64.1952 33.4384L64.4395 34.0278L64.6696 33.4959C64.6983 33.4384 64.7127 33.3953 64.7271 33.3666C64.7271 33.3522 64.7414 33.3234 64.7414 33.309C64.7414 33.2947 64.7414 33.2803 64.7271 33.2659C64.7127 33.2515 64.6983 33.2372 64.6839 33.2372C64.6552 33.2228 64.6264 33.2228 64.5833 33.2228V33.194" fill="#000080"/>
<path fill-rule="evenodd" clip-rule="evenodd" d="M63.4896 31.3309H63.6121V32.2051L63.9179 32.3483V31.3309H64.3954L64.2595 31.1406H63.833L63.8176 31.118C63.7242 30.956 63.7548 30.8523 63.9145 30.7808L63.9451 30.7676L63.9791 30.7581C64.3291 30.6621 64.7828 30.8637 65.0801 31.0614L65.1448 31.1029L65.2467 31.0671L65.1719 31.0087L65.0988 30.9541C64.742 30.6865 64.1235 30.4322 63.697 30.6187L63.6766 30.6263L63.6562 30.6357C63.437 30.7657 63.4132 30.9371 63.6222 31.1048L63.6426 31.1218L63.6647 31.1387H63.3555L63.4896 31.3309Z" fill="#000080"/>
<path fill-rule="evenodd" clip-rule="evenodd" d="M64.758 31.9658H64.7274C64.1004 31.8791 64.6543 31.4081 65.2168 31.7303L65.2864 31.7623L65.2524 31.7868C65.1166 31.8773 64.9789 31.9394 64.8209 31.9639L64.7903 31.9658H64.758ZM64.2653 31.7378V31.7529L64.267 31.7698C64.3009 31.9168 64.498 32.0317 64.6153 32.0807L64.639 32.0882L64.6645 32.0958C64.8412 32.1599 64.9908 32.1316 65.159 32.0562L65.2134 32.0299L65.2677 31.9997V32.2032L65.5736 32.3464V31.329H66.0511L65.9151 31.1387H64.1582L64.2941 31.329H65.2677V31.653L65.2372 31.6286C64.9908 31.4024 64.3723 31.329 64.267 31.7077L64.2653 31.7228" fill="#000080"/>
<path fill-rule="evenodd" clip-rule="evenodd" d="M65.8571 31.5947L65.903 31.6587L65.9488 31.719C66.1324 31.9488 66.4314 32.1957 66.7271 32.1655L66.7509 32.1599L66.7729 32.1523C67.0075 32.0732 66.9463 31.8866 66.7984 31.7473L66.7798 31.7303L66.7611 31.7133H67.1859V32.2032L67.4917 32.3464V31.329H67.9675L67.8315 31.1387H65.8027L65.9386 31.329H67.1859V31.4967H66.4552L66.4026 31.5381L66.4297 31.5532L66.4552 31.5682L66.479 31.5833C66.5385 31.6267 66.5758 31.6643 66.615 31.7303L66.6235 31.751L66.6302 31.7717C66.6405 31.8169 66.6472 31.8527 66.6167 31.8866L66.6082 31.8942L66.5997 31.9017L66.5912 31.9093C66.4026 31.9978 66.134 31.7962 66.0168 31.6418L65.9879 31.6021L65.9608 31.5607" fill="#000080"/>
<path fill-rule="evenodd" clip-rule="evenodd" d="M68.3 31.8924H68.2761L68.254 31.8904L68.232 31.8885C68.1775 31.8829 68.1079 31.8622 68.0621 31.8302L68.0484 31.8207L68.0349 31.8113C67.9958 31.7793 68.0043 31.7473 68.0467 31.7398L68.0892 31.734L68.1317 31.7266L68.1708 31.719L68.2082 31.7096C68.2745 31.6945 68.373 31.6681 68.4257 31.6172L68.4342 31.606L68.4376 31.6003L68.4393 31.5928L68.4409 31.5871V31.5721L68.4376 31.5626L68.4342 31.5532L68.4291 31.5419L68.4154 31.5155L68.3951 31.4872L68.3696 31.4533L68.3373 31.4156L68.2983 31.3761L68.2558 31.3327H68.7825V31.7398L68.7503 31.7586C68.6313 31.8264 68.4919 31.8792 68.3577 31.8942L68.3323 31.8961H68.3V31.8924ZM67.7545 31.5947L67.7647 31.621C67.9465 32.0336 68.3458 32.2145 68.7315 32.0129L68.7774 31.9884V32.2032L69.0833 32.3464V31.329H69.559L69.4231 31.1387H67.6934L67.8293 31.329H68.096C68.3 31.4929 67.9431 31.5947 67.836 31.5909L67.7953 31.5928" fill="#000080"/>
<path fill-rule="evenodd" clip-rule="evenodd" d="M69.4307 31.3309H69.5461V32.2051L69.852 32.3483V31.3309H70.3295L70.1935 31.1406H69.293" fill="#000080"/>
<path d="M54.9082 27.6426H95.1629" stroke="#666666" stroke-width="1.57518" stroke-miterlimit="24.1567" stroke-linecap="round" stroke-linejoin="round"/>
<path d="M75.1543 29.0527V36.241" stroke="#666666" stroke-width="1.57518" stroke-miterlimit="24.1567" stroke-linecap="round" stroke-linejoin="round"/>
</g>
<defs>
<clipPath id="clip0_781_33526">
<rect width="114.6" height="47.75" fill="white" transform="translate(0.00585938 0.0800781)"/>
</clipPath>
</defs>
</svg>
