<svg width="85" height="61" viewBox="0 0 85 61" fill="none" xmlns="http://www.w3.org/2000/svg">
<path d="M72.5032 17.9466L81.9003 35.2645C83.0305 37.1306 81.8566 39.0467 79.7122 38.7091C79.0336 38.6026 74.6743 38.008 69.1622 37.2672L70.7357 35.1468L78.1992 35.9636C78.8151 36.037 79.1027 35.8572 78.749 35.1884C78.749 35.1884 71.7217 21.0352 71.6532 20.8732C71.4165 20.4314 71.1536 20.5738 70.9395 20.9691C70.9395 20.9691 64.0377 33.502 63.9474 33.6643C63.6917 34.1552 63.7938 34.3992 64.5289 34.4703L67.242 34.7663L65.6789 36.6958L62.1364 36.1354C61.2519 36.0236 60.9645 35.4611 61.4479 34.55C61.815 33.86 70.0566 18.8203 70.0566 18.8203C70.2207 18.5315 70.3588 18.3129 70.5286 18.0143C71.0212 17.1509 71.9127 16.9212 72.5032 17.9466Z" fill="#00ADEF"/>
<path d="M52.1209 31.2333L64.4537 29.0572L63.3995 30.9718L54.8889 32.4011C54.4548 32.4976 54.495 32.6913 54.7663 32.8717C54.7663 32.8717 62.1924 38.0069 62.9117 38.4783C63.4924 38.8702 63.7982 39.0294 64.2875 38.4066C64.2875 38.4066 70.3175 31.0092 70.6331 30.5104C71.0925 29.8923 71.2983 29.6471 70.562 29.7789L66.3739 30.4772L67.4466 28.5408L73.0638 27.5188C74.3434 27.3019 74.8494 28.1954 74.2229 29.1397C73.686 29.9085 64.787 41.8855 64.787 41.8855C64.2113 42.7283 63.7787 42.6931 63.1027 42.0991C62.2713 41.4085 51.7432 32.6801 51.7432 32.6801C51.051 32.11 51.2701 31.3911 52.1209 31.2333Z" fill="#FABC09"/>
<path d="M7.21397 35.4921H6.96379C6.86711 35.9418 6.77477 36.3135 6.68538 36.6097C6.5937 36.8984 6.49243 37.1292 6.3766 37.3023C6.26143 37.4697 6.12554 37.5855 5.97274 37.6498C5.82543 37.7134 5.64436 37.7463 5.43276 37.7463C4.86651 37.7463 4.4474 37.4913 4.17056 36.9844C4.04262 36.7351 3.94934 36.435 3.89143 36.0891C3.8335 35.7359 3.80455 35.2798 3.80455 34.7215C3.80455 33.6105 3.93978 32.798 4.20841 32.2847C4.47953 31.7707 4.89959 31.5142 5.47151 31.5142C5.66376 31.5142 5.82543 31.5365 5.95337 31.5817C6.0813 31.6259 6.19782 31.7135 6.29928 31.8407C6.40216 31.9703 6.49724 32.1504 6.58801 32.3805C6.68538 32.6122 6.78753 32.9171 6.89607 33.2967C6.90908 33.3218 6.91864 33.3499 6.92502 33.382C6.93804 33.4151 6.9508 33.4536 6.96379 33.4988H7.19457V31.6879C6.66212 31.4248 6.12872 31.2921 5.59626 31.2921C5.14725 31.2921 4.74269 31.3725 4.38376 31.5342C4.02256 31.6879 3.71539 31.9114 3.4586 32.2076C3.20116 32.5027 3.00186 32.8592 2.86091 33.2774C2.72659 33.6942 2.6582 34.1599 2.6582 34.6732C2.6582 35.1744 2.72659 35.6266 2.86091 36.0312C3.00186 36.435 3.19727 36.7826 3.44813 37.0722C3.70489 37.3538 4.01046 37.575 4.3637 37.7367C4.72241 37.8904 5.12467 37.9668 5.56727 37.9668C6.12073 37.9668 6.6685 37.842 7.21397 37.5919V35.4921Z" fill="#00ADEF" stroke="#00ADEF" stroke-width="0.2019" stroke-miterlimit="22.9256"/>
<path d="M10.5819 35.8189C10.5819 36.3787 10.4765 36.8236 10.2642 37.1575C10.0526 37.4849 9.76709 37.6489 9.40749 37.6489C8.95779 37.6489 8.73317 37.3223 8.73317 36.6667C8.73317 36.3329 8.79361 36.0859 8.91673 35.9258C9.03805 35.7642 9.25606 35.6426 9.57077 35.5598C9.70577 35.5204 9.81774 35.4889 9.90847 35.4624C9.99879 35.4367 10.0784 35.4118 10.1491 35.386C10.2264 35.3603 10.2964 35.3345 10.3607 35.3088C10.4323 35.283 10.5055 35.2508 10.5819 35.2123V35.8189ZM10.5819 37.842H11.8345V37.6208H11.3823V34.5389C11.3823 34.037 11.2473 33.6621 10.9769 33.411C10.7139 33.1536 10.3254 33.0265 9.81294 33.0265C9.26589 33.0265 8.75575 33.1536 8.28121 33.411V34.8855H8.53044C8.60206 34.6604 8.66567 34.4641 8.7245 34.2967C8.78791 34.1239 8.85244 33.9702 8.91673 33.8358C9.02621 33.5985 9.13475 33.44 9.24331 33.3636C9.36006 33.2856 9.52879 33.2477 9.7541 33.2477C10.306 33.2477 10.5819 33.5905 10.5819 34.2782V34.9532C10.4606 35.0048 10.3527 35.0481 10.2553 35.0875C10.166 35.1254 10.0752 35.1608 9.9858 35.1929C9.89503 35.2187 9.79994 35.2444 9.69618 35.2702C9.59973 35.2903 9.48455 35.3113 9.34955 35.3377C9.05426 35.4013 8.82985 35.4624 8.67526 35.5204C8.52818 35.5783 8.39612 35.6522 8.28121 35.7425C8.13959 35.851 8.02943 35.9933 7.95374 36.1664C7.87574 36.3393 7.83789 36.5187 7.83789 36.7053C7.83789 37.0843 7.95692 37.3892 8.19431 37.6208C8.4381 37.8516 8.75575 37.9668 9.14751 37.9668C9.85308 37.9668 10.3327 37.6425 10.5819 36.9942V37.842Z" fill="#00ADEF" stroke="#00ADEF" stroke-width="0.2019" stroke-miterlimit="22.9256"/>
<path d="M13.6517 33.1505H12.3984V33.3716H12.8513V37.6184H12.3984V37.8398H14.2294V37.6184H13.6517V34.8833C13.6517 34.4215 13.7434 34.0483 13.9302 33.7659C14.116 33.4836 14.3646 33.3427 14.6727 33.3427C14.8786 33.3427 15.0355 33.4127 15.144 33.5543C15.2535 33.6895 15.3073 33.8882 15.3073 34.1513V37.6184H14.7217V37.8398H16.5504V37.6184H16.107V34.0934C16.107 33.7475 16.004 33.4836 15.7996 33.3041C15.5946 33.1183 15.2888 33.025 14.8843 33.025C14.5826 33.025 14.3363 33.095 14.1425 33.2366C13.9495 33.3773 13.786 33.609 13.6517 33.9301V33.1505Z" fill="#00ADEF" stroke="#00ADEF" stroke-width="0.2019" stroke-miterlimit="22.9256"/>
<path d="M19.7722 35.8189C19.7722 36.3787 19.666 36.8236 19.4544 37.1575C19.2411 37.4849 18.9556 37.6489 18.5976 37.6489C18.1472 37.6489 17.9226 37.3223 17.9226 36.6667C17.9226 36.3329 17.9837 36.0859 18.1062 35.9258C18.2275 35.7642 18.4464 35.6426 18.7618 35.5598C18.8952 35.5204 19.0079 35.4889 19.0979 35.4624C19.188 35.4367 19.2678 35.4118 19.3385 35.386C19.4158 35.3603 19.4858 35.3345 19.5508 35.3088C19.6217 35.283 19.694 35.2508 19.7722 35.2123V35.8189ZM19.7722 37.842H21.0246V37.6208H20.5717V34.5389C20.5717 34.037 20.4367 33.6621 20.1679 33.411C19.904 33.1536 19.5155 33.0265 19.0015 33.0265C18.456 33.0265 17.9445 33.1536 17.4706 33.411V34.8855H17.7208C17.7908 34.6604 17.8551 34.4641 17.913 34.2967C17.9773 34.1239 18.041 33.9702 18.1062 33.8358C18.2154 33.5985 18.3242 33.44 18.4327 33.3636C18.5486 33.2856 18.7182 33.2477 18.9444 33.2477C19.4954 33.2477 19.7722 33.5905 19.7722 34.2782V34.9532C19.6498 35.0048 19.5412 35.0481 19.4448 35.0875C19.3547 35.1254 19.2653 35.1608 19.1752 35.1929C19.0842 35.2187 18.9887 35.2444 18.8865 35.2702C18.7898 35.2903 18.674 35.3113 18.5397 35.3377C18.2444 35.4013 18.0193 35.4624 17.8656 35.5204C17.7167 35.5783 17.5865 35.6522 17.4706 35.7425C17.329 35.851 17.2205 35.9933 17.1423 36.1664C17.0659 36.3393 17.0273 36.5187 17.0273 36.7053C17.0273 37.0843 17.1455 37.3892 17.3838 37.6208C17.6275 37.8516 17.9445 37.9668 18.337 37.9668C19.0432 37.9668 19.5219 37.6425 19.7722 36.9942V37.842Z" fill="#00ADEF" stroke="#00ADEF" stroke-width="0.2019" stroke-miterlimit="22.9256"/>
<path d="M24.606 34.9613V33.1979C24.4975 33.1336 24.3969 33.0884 24.3077 33.0629C24.2168 33.0371 24.1187 33.025 24.0092 33.025C23.7454 33.025 23.5233 33.095 23.3438 33.2366C23.171 33.3716 23.0029 33.6026 22.8444 33.9301V33.1505H21.5918V33.3716H22.0447V37.6184H21.5918V37.8398H23.537V37.6184H22.9023V35.3741C22.9023 35.1761 22.9046 35.0024 22.9119 34.8543C22.9231 34.708 22.9409 34.5752 22.9593 34.4594C22.9787 34.3388 23.0029 34.2284 23.0367 34.1319C23.0688 34.0371 23.1074 33.9397 23.1516 33.8432C23.2159 33.7144 23.2989 33.6058 23.4027 33.5158C23.5048 33.4191 23.5949 33.3716 23.6713 33.3716C23.7091 33.3716 23.7422 33.3773 23.768 33.391C23.7944 33.3967 23.817 33.4191 23.8355 33.4578C23.8619 33.49 23.887 33.5383 23.9119 33.6026C23.944 33.667 23.9809 33.7538 24.0197 33.8624C24.0897 34.0371 24.1467 34.2067 24.1919 34.3732C24.2441 34.5406 24.2947 34.7353 24.3463 34.9613H24.606Z" fill="#00ADEF" stroke="#00ADEF" stroke-width="0.2019" stroke-miterlimit="22.9256"/>
<path d="M27.7225 35.8189C27.7225 36.3787 27.6172 36.8236 27.4048 37.1575C27.1932 37.4849 26.9075 37.6489 26.5481 37.6489C26.0982 37.6489 25.8738 37.3223 25.8738 36.6667C25.8738 36.3329 25.9358 36.0859 26.0564 35.9258C26.1787 35.7642 26.3967 35.6426 26.7121 35.5598C26.8464 35.5204 26.9583 35.4889 27.0491 35.4624C27.1392 35.4367 27.219 35.4118 27.2897 35.386C27.367 35.3603 27.437 35.3345 27.5013 35.3088C27.572 35.283 27.6461 35.2508 27.7225 35.2123V35.8189ZM27.7225 37.842H28.9751V37.6208H28.5229V34.5389C28.5229 34.037 28.3879 33.6621 28.1175 33.411C27.8545 33.1536 27.4666 33.0265 26.9526 33.0265C26.4072 33.0265 25.8964 33.1536 25.4209 33.411V34.8855H25.672C25.742 34.6604 25.807 34.4641 25.8649 34.2967C25.9285 34.1239 25.9928 33.9702 26.0564 33.8358C26.1659 33.5985 26.2754 33.44 26.3839 33.3636C26.4998 33.2856 26.671 33.2477 26.8956 33.2477C27.4482 33.2477 27.7225 33.5905 27.7225 34.2782V34.9532C27.601 35.0048 27.4924 35.0481 27.3959 35.0875C27.3059 35.1254 27.2149 35.1608 27.1255 35.1929C27.0363 35.2187 26.9399 35.2444 26.8377 35.2702C26.7403 35.2903 26.6252 35.3113 26.4909 35.3377C26.194 35.4013 25.9696 35.4624 25.8168 35.5204C25.6688 35.5783 25.5368 35.6522 25.4209 35.7425C25.2793 35.851 25.1707 35.9933 25.0934 36.1664C25.017 36.3393 24.9785 36.5187 24.9785 36.7053C24.9785 37.0843 25.0966 37.3892 25.3356 37.6208C25.5787 37.8516 25.8964 37.9668 26.2897 37.9668C26.9953 37.9668 27.4723 37.6425 27.7225 36.9942V37.842Z" fill="#00ADEF" stroke="#00ADEF" stroke-width="0.2019" stroke-miterlimit="22.9256"/>
<path d="M33.2913 37.6206V34.5861H34.0042C34.2872 34.5861 34.5236 34.615 34.7161 34.673C34.9091 34.7245 35.0668 34.8082 35.1875 34.9231C35.317 35.0383 35.4071 35.1895 35.4586 35.3753C35.5165 35.5619 35.5446 35.7872 35.5446 36.0503C35.5446 36.615 35.4103 37.0197 35.1416 37.2642C34.8778 37.5016 34.4304 37.6206 33.8015 37.6206H33.2913ZM33.2913 34.3649V31.6394H33.9848C34.3893 31.6394 34.6815 31.7479 34.8609 31.9668C35.0468 32.1784 35.1416 32.5155 35.1416 32.9779C35.1416 33.4719 35.0249 33.8283 34.7932 34.0472C34.5624 34.2586 34.1843 34.3649 33.6573 34.3649H33.2913ZM31.75 31.4182V31.6394H32.3283V37.6206H31.75V37.8418H33.811C34.177 37.8418 34.5077 37.8192 34.8021 37.7743C35.099 37.7237 35.3492 37.6496 35.5551 37.5522C35.8752 37.4058 36.1286 37.1958 36.3154 36.9262C36.5012 36.6503 36.5945 36.3488 36.5945 36.0214C36.5945 35.7518 36.5277 35.5048 36.3918 35.2796C36.2638 35.0552 36.0843 34.875 35.8536 34.7407C35.6926 34.6504 35.5181 34.5829 35.3323 34.538C35.1464 34.4935 34.8969 34.4606 34.5825 34.4422C35.0837 34.3649 35.4707 34.1911 35.7473 33.9216C36.0225 33.652 36.1617 33.315 36.1617 32.9104C36.1617 32.6794 36.1069 32.4639 35.9984 32.2653C35.8873 32.0665 35.732 31.8959 35.5261 31.7543C35.3523 31.633 35.1496 31.5452 34.9188 31.4945C34.6878 31.443 34.3862 31.4182 34.0129 31.4182H31.75Z" fill="#00ADEF" stroke="#00ADEF" stroke-width="0.2019" stroke-miterlimit="22.9256"/>
<path d="M39.8774 35.8189C39.8774 36.3787 39.7711 36.8236 39.5588 37.1575C39.3472 37.4849 39.0608 37.6489 38.702 37.6489C38.2523 37.6489 38.0277 37.3223 38.0277 36.6667C38.0277 36.3329 38.0881 36.0859 38.2097 35.9258C38.3326 35.7642 38.5515 35.6426 38.866 35.5598C39.0012 35.5204 39.1123 35.4889 39.2033 35.4624C39.2924 35.4367 39.3729 35.4118 39.4446 35.386C39.5209 35.3603 39.5916 35.3345 39.6562 35.3088C39.7269 35.283 39.7994 35.2508 39.8774 35.2123V35.8189ZM39.8774 37.842H41.13V37.6208H40.6762V34.5389C40.6762 34.037 40.5419 33.6621 40.2714 33.411C40.0092 33.1536 39.6206 33.0265 39.1059 33.0265C38.5611 33.0265 38.0503 33.1536 37.5758 33.411V34.8855H37.825C37.8966 34.6604 37.9612 34.4641 38.0191 34.2967C38.0825 34.1239 38.147 33.9702 38.2097 33.8358C38.3198 33.5985 38.4284 33.44 38.5378 33.3636C38.6537 33.2856 38.8243 33.2477 39.048 33.2477C39.6005 33.2477 39.8774 33.5905 39.8774 34.2782V34.9532C39.7558 35.0048 39.6464 35.0481 39.549 35.0875C39.4598 35.1254 39.3698 35.1608 39.2797 35.1929C39.1903 35.2187 39.0929 35.2444 38.9916 35.2702C38.8943 35.2903 38.7791 35.3113 38.6441 35.3377C38.3488 35.4013 38.1235 35.4624 37.9707 35.5204C37.8218 35.5783 37.69 35.6522 37.5758 35.7425C37.4332 35.851 37.3256 35.9933 37.2467 36.1664C37.1694 36.3393 37.1309 36.5187 37.1309 36.7053C37.1309 37.0843 37.2499 37.3892 37.488 37.6208C37.7326 37.8516 38.0503 37.9668 38.4421 37.9668C39.1476 37.9668 39.6272 37.6425 39.8774 36.9942V37.842Z" fill="#00ADEF" stroke="#00ADEF" stroke-width="0.2019" stroke-miterlimit="22.9256"/>
<path d="M42.9458 33.1505H41.6934V33.3716H42.1462V37.6184H41.6934V37.8398H43.5227V37.6184H42.9458V34.8833C42.9458 34.4215 43.039 34.0483 43.2249 33.7659C43.4117 33.4836 43.6586 33.3427 43.9667 33.3427C44.1719 33.3427 44.3295 33.4127 44.438 33.5543C44.5468 33.6895 44.6022 33.8882 44.6022 34.1513V37.6184H44.015V37.8398H45.845V37.6184H45.4011V34.0934C45.4011 33.7475 45.2989 33.4836 45.093 33.3041C44.8878 33.1183 44.5822 33.025 44.1783 33.025C43.8757 33.025 43.6287 33.095 43.4365 33.2366C43.2443 33.3773 43.0801 33.609 42.9458 33.9301V33.1505Z" fill="#00ADEF" stroke="#00ADEF" stroke-width="0.2019" stroke-miterlimit="22.9256"/>
<path d="M47.6525 35.3664L49.3377 37.8418H50.5422V37.6206H50.176L48.2976 34.9619L49.646 33.3729H50.0795V33.151H48.7594V33.3729H49.3377L47.6525 35.3664ZM47.6137 31.4182H46.3613V31.6394H46.8142V37.6206H46.3613V37.8418H48.1923V37.6206H47.6137V31.4182Z" fill="#00ADEF" stroke="#00ADEF" stroke-width="0.2019" stroke-miterlimit="22.9256"/>
<path d="M43.9757 22.2616C44.1027 22.2616 44.2081 22.3058 44.2933 22.3959C44.3818 22.4805 44.427 22.5865 44.427 22.7138C44.427 22.8351 44.385 22.9397 44.3006 23.0307C44.2154 23.1151 44.1132 23.1578 43.9901 23.1578C43.8637 23.1578 43.7552 23.1128 43.666 23.0225C43.5757 22.9334 43.5308 22.8271 43.5308 22.7049C43.5308 22.5833 43.5725 22.4805 43.6578 22.3959C43.7472 22.3058 43.8535 22.2616 43.9757 22.2616ZM21.0393 23.5632L19.7869 21.8078H19.2742V21.5779H20.5501L21.9017 23.5632H37.3372V23.8182H36.6203V28.5913H37.1336V28.8462H35.2826V28.5913H35.7282V23.8182H35.1522L33.8642 23.8207C34.2455 23.9003 34.9832 24.017 34.9832 24.799C34.9832 25.1271 34.8619 25.3941 34.6977 25.5631C34.5392 25.7378 34.1602 25.9316 33.853 25.9316H32.8506V27.8536C32.8506 28.4191 32.9641 28.6476 33.404 28.6476C33.5835 28.6476 33.7203 28.6161 33.812 28.5525C33.9005 28.4898 34.0026 28.3644 34.0902 28.1689C34.1417 28.0579 34.178 27.9799 34.2286 27.8374C34.2738 27.6998 34.3253 27.5382 34.3816 27.353H34.5825V28.5671C34.2028 28.7794 33.7579 28.8848 33.3219 28.8848C32.911 28.8848 32.5578 28.7794 32.3461 28.5671C32.1313 28.3612 31.9505 28.0515 31.9505 27.6388V25.9316L31.2513 25.9307V25.663L31.5161 25.6637L33.2818 25.6621C33.7958 25.6621 33.9832 25.1191 33.9832 24.7652C33.9832 24.4948 33.8925 24.0072 33.5424 23.8592C33.4571 23.8239 33.3454 23.8318 33.2608 23.8182H30.3198V28.592H30.7654V28.8471H28.9812V28.592H29.4275V25.0322H27.6745C27.7938 25.0924 27.8998 25.0924 27.9924 25.1793C28.1324 25.3018 28.2419 25.4473 28.3199 25.6163C28.4027 25.7843 28.4437 25.9663 28.4437 26.1617C28.4437 26.3918 28.4027 26.6019 28.3199 26.7941C28.2419 26.9854 28.1299 27.1496 27.9851 27.288C27.8444 27.4255 27.6761 27.5334 27.4784 27.6098C27.2821 27.6862 27.0663 27.7247 26.834 27.7247C26.6208 27.7247 26.4139 27.6846 26.2112 27.6041C26.0094 27.5236 25.8331 27.4102 25.6828 27.2654C25.5476 27.1311 25.4471 26.9831 25.3796 26.8221C25.3168 26.6579 25.286 26.4641 25.286 26.2413C25.286 26.0322 25.3248 25.8359 25.4037 25.6557C25.4856 25.4762 25.5991 25.3219 25.7456 25.1907C25.8894 25.0603 26.0584 24.9591 26.25 24.8859C26.447 24.8133 26.6625 24.7773 26.896 24.7773H29.4275V23.8182H21.9147V24.9864C21.9485 24.9349 21.9845 24.889 22.024 24.8471C22.2292 24.6259 22.5309 24.5157 22.929 24.5157C23.155 24.5157 23.3682 24.56 23.5678 24.6494C23.7609 24.7442 23.9283 24.8706 24.069 25.0306C24.2081 25.1907 24.3185 25.3789 24.3997 25.5962C24.4792 25.8174 24.5203 26.0564 24.5203 26.3161C24.5203 26.5847 24.4777 26.8294 24.3924 27.0515C24.3055 27.2766 24.1865 27.4707 24.0353 27.6298C23.88 27.7899 23.4978 28.127 23.0764 28.127C22.8052 28.127 22.6948 28.0465 22.5003 27.9806C22.4794 27.9742 22.4497 27.9621 22.4182 27.9509V26.7362H22.5968C22.6563 26.9815 22.6693 27.0369 22.7263 27.226C22.7753 27.387 22.8116 27.506 22.8615 27.633C22.9042 27.7425 22.9869 27.8937 23.0891 27.8937C23.2451 27.8937 23.3651 27.7014 23.4567 27.4955C23.5655 27.2486 23.6209 26.9147 23.6209 26.4055C23.6209 25.8318 23.5445 25.4055 23.394 25.1287C23.2428 24.8505 23.0353 24.7217 22.711 24.7217C22.3997 24.7217 22.2162 24.8544 22.0328 25.1504C21.9838 25.2309 21.946 25.3219 21.9195 25.4263L21.9147 28.592H22.3546V28.8471H20.6251V28.592H21.0603V27.8157C20.855 28.0353 20.5552 28.1448 20.1584 28.1448C19.9324 28.1448 19.7201 28.0989 19.5205 28.0105C19.3267 27.9162 19.1593 27.7892 19.0193 27.6283C18.8793 27.4688 18.7691 27.2807 18.688 27.0643C18.6075 26.8431 18.5664 26.6025 18.5664 26.3435C18.5664 26.0748 18.6097 25.8302 18.6966 25.609C18.7819 25.383 18.9009 25.1898 19.0524 25.0297C19.2077 24.8697 19.3942 24.7449 19.609 24.6557C19.8133 24.5705 20.0386 24.5253 20.2831 24.5214C20.6475 24.5262 20.8655 24.658 21.0402 24.848L21.0603 23.8182H18.8392V23.5632H21.0393ZM21.0603 25.2639L21.0322 25.214C20.8543 24.926 20.5695 24.7153 20.3025 24.7057C20.2735 24.7048 20.2525 24.7064 20.2316 24.7064C20.0393 24.7064 19.8881 24.8286 19.7376 25.1023C19.5921 25.3709 19.5205 25.7602 19.5205 26.2687C19.5205 26.8431 19.5944 27.185 19.7458 27.4618C19.897 27.7409 20.0297 27.8632 20.3524 27.8632C20.6653 27.8632 20.8721 27.7216 21.0555 27.4246L21.0603 25.2639ZM26.9893 25.0081L26.945 25.0001L26.904 24.9969L26.8445 24.9953C26.714 24.9912 26.5975 25.0266 26.4969 25.1007C26.3964 25.1771 26.3232 25.2856 26.2773 25.4279C26.2427 25.5246 26.2185 25.6388 26.2009 25.7706C26.1889 25.8995 26.1822 26.0612 26.1822 26.2582C26.1822 26.5252 26.1927 26.7321 26.2137 26.8785C26.2347 27.0217 26.2732 27.1375 26.3271 27.226C26.3729 27.3122 26.439 27.3781 26.5234 27.4246C26.608 27.4707 26.7004 27.4939 26.8066 27.4939C26.9329 27.4939 27.0383 27.4707 27.122 27.4246C27.2064 27.3781 27.2757 27.3033 27.3304 27.1986C27.3858 27.0965 27.4228 26.9606 27.4445 26.7932C27.4695 26.6219 27.4823 26.4135 27.4823 26.1674C27.4823 25.9558 27.4711 25.7779 27.4501 25.6315C27.4301 25.482 27.3931 25.3604 27.3423 25.2678C27.2926 25.1745 27.2274 25.107 27.1469 25.0644C27.1019 25.0379 27.0488 25.0202 26.9893 25.0081ZM40.6235 25.4603L42.3714 26.8406L42.3644 25.8311C42.3393 25.6911 42.3135 25.5809 42.2861 25.5004C42.259 25.3973 42.2212 25.3057 42.1703 25.2252C41.9812 24.9292 41.7304 24.749 41.4771 24.749C41.1439 24.749 40.8985 24.8874 40.7441 25.165C40.6958 25.2503 40.6557 25.3483 40.6235 25.4603ZM42.3176 27.1617L40.551 25.7811C40.5252 25.9574 40.51 26.156 40.5084 26.3782C40.5141 26.9186 40.5911 27.3218 40.741 27.5888C40.896 27.8663 41.148 27.9274 41.4103 27.9274C41.732 27.9274 41.9838 27.7642 42.1728 27.4682C42.2218 27.3886 42.2549 27.3459 42.283 27.2422C42.2903 27.2171 42.3081 27.1922 42.3176 27.1617ZM43.9643 23.8182H43.2637V28.5913H43.7431V28.8462H41.8535V28.5913H42.3714V27.5614C42.3185 27.6613 42.2572 27.7489 42.1849 27.823C41.9733 28.0442 41.6627 28.1544 41.2518 28.1544C41.0185 28.1544 40.7989 28.1101 40.5927 28.0209C40.3934 27.9268 40.2219 27.7995 40.0765 27.6394C39.9323 27.4803 39.8181 27.2919 39.7344 27.0755C39.6516 26.8543 39.6099 26.6153 39.6099 26.3565V26.3193C39.6099 26.0596 39.6516 25.8215 39.7344 25.6001C39.8181 25.3837 39.9323 25.1955 40.0765 25.0355C40.2219 24.8754 40.3934 24.7483 40.5927 24.6542C40.7989 24.5657 41.0185 24.5214 41.2518 24.5214C41.6627 24.5214 41.9733 24.6307 42.1849 24.8512C42.2572 24.9269 42.3185 25.0138 42.3714 25.1143V23.8182H39.8021V23.5632H41.8848L40.3868 22.2182H39.8833V21.9904H41.086L42.4704 23.3003L41.8953 21.7612H41.4809V21.5311H42.5461L43.2597 23.5632H50.0664V23.8182H47.4823V24.9864C47.5153 24.9349 47.5516 24.889 47.5917 24.8471C47.796 24.6259 48.0986 24.5157 48.4968 24.5157C48.7228 24.5157 48.9353 24.56 49.1346 24.6494C49.3287 24.7442 49.4952 24.8706 49.6359 25.0306C49.7759 25.1907 49.886 25.3789 49.9665 25.5962C50.047 25.8174 50.088 26.0564 50.088 26.3161C50.088 26.5847 50.0445 26.8294 49.9585 27.0515C49.8723 27.2766 49.7542 27.4707 49.603 27.6298C49.4477 27.7899 49.0648 28.127 48.6432 28.127C48.372 28.127 48.2619 28.0465 48.0672 27.9806C48.0471 27.9742 48.0165 27.9621 47.9844 27.9509V26.7362H48.1636C48.2231 26.9815 48.2362 27.0369 48.2941 27.226C48.3424 27.387 48.3784 27.506 48.4293 27.633C48.4719 27.7425 48.5531 27.8937 48.6553 27.8937C48.8122 27.8937 48.9328 27.7014 49.0238 27.4955C49.1323 27.2486 49.1878 26.9147 49.1878 26.4055C49.1878 25.8318 49.1123 25.4055 48.9618 25.1287C48.8097 24.8505 48.6021 24.7217 48.2788 24.7217C47.9666 24.7217 47.7833 24.8544 47.599 25.1504C47.5506 25.2309 47.5128 25.3219 47.4873 25.4263L47.4823 28.592H47.9224V28.8471H46.192V28.592H46.6271V27.8157C46.4228 28.0353 46.122 28.1448 45.7254 28.1448C45.4992 28.1448 45.2878 28.0989 45.0883 28.0105C44.8936 27.9162 44.7271 27.7892 44.5861 27.6283C44.4455 27.4688 44.3353 27.2807 44.2555 27.0643C44.1743 26.8431 44.1342 26.6025 44.1342 26.3435C44.1342 26.0748 44.1768 25.8302 44.2628 25.609C44.3497 25.383 44.468 25.1898 44.6183 25.0297C44.7752 24.8697 44.9604 24.7449 45.1752 24.6557C45.3811 24.5705 45.6064 24.5253 45.8502 24.5214C46.2153 24.5262 46.4326 24.658 46.6086 24.848L46.6271 23.8182H43.9643ZM46.6271 25.2639L46.5991 25.214C46.4212 24.926 46.1373 24.7153 45.8702 24.7057C45.8397 24.7048 45.8187 24.7064 45.7986 24.7064C45.6064 24.7064 45.4559 24.8286 45.3063 25.1023C45.1599 25.3709 45.0883 25.7602 45.0883 26.2687C45.0883 26.8431 45.1631 27.185 45.3134 27.4618C45.4639 27.7409 45.5966 27.8632 45.92 27.8632C46.2321 27.8632 46.439 27.7216 46.6223 27.4246L46.6271 25.2639Z" fill="#00ADEF" stroke="#00ADEF" stroke-width="0.2019" stroke-miterlimit="22.9256"/>
<path d="M9.63086 42.3223L8.95653 40.4642H8.62338L7.95703 42.3223H8.25986L8.4033 41.9118H9.15491L9.29767 42.3223H9.63086ZM9.07763 41.6721H8.47994L8.70066 41.0557C8.73031 40.9675 8.7554 40.8849 8.77478 40.8053H8.78027C8.79987 40.8849 8.82699 40.9675 8.85755 41.0589L9.07763 41.6721Z" fill="#231F20" stroke="#231F20" stroke-width="0.0218041" stroke-miterlimit="22.9256"/>
<path d="M11.9101 42.2372V41.364H11.6098V42.039C11.5248 42.0664 11.431 42.0826 11.3234 42.0826C10.9246 42.0826 10.6796 41.8322 10.6796 41.403C10.6796 40.9433 10.9738 40.7007 11.3482 40.7007C11.5216 40.7007 11.6816 40.7335 11.8276 40.7919L11.8907 40.5164C11.7371 40.4697 11.5576 40.4393 11.3701 40.4393C10.7428 40.4393 10.3574 40.8575 10.3574 41.4334C10.3574 42.0055 10.7125 42.3496 11.2883 42.3496C11.4997 42.3496 11.7252 42.3081 11.9101 42.2372ZM13.5233 41.6121C13.5233 41.1298 13.2642 40.9262 12.8982 40.9262C12.4823 40.9262 12.2155 41.2429 12.2155 41.6559C12.2155 42.138 12.4636 42.3496 12.8428 42.3496C13.2478 42.3496 13.5233 42.0335 13.5233 41.6121ZM13.2204 41.6317C13.2204 41.9476 13.0606 42.0967 12.8709 42.0967C12.6422 42.0967 12.5213 41.9344 12.5213 41.6253C12.5213 41.3118 12.6946 41.1743 12.8732 41.1743C13.1073 41.1743 13.2204 41.3398 13.2204 41.6317ZM14.9739 40.9542H14.6571L14.3956 41.6894C14.3652 41.7768 14.3378 41.8735 14.316 41.9585H14.313C14.2886 41.868 14.2583 41.7713 14.2254 41.6776L13.9687 40.9542H13.6441L14.1561 42.3223H14.4564L14.9739 40.9542ZM16.2787 41.5184C16.2787 41.1939 16.1109 40.9262 15.72 40.9262C15.3205 40.9262 15.0949 41.2352 15.0949 41.6479C15.0949 42.1295 15.3289 42.3496 15.7503 42.3496C15.9204 42.3496 16.0912 42.3191 16.2349 42.2614L16.1959 42.0304C16.0719 42.0858 15.9346 42.1131 15.8025 42.1131C15.5296 42.1131 15.3898 41.9726 15.3975 41.6614H16.27C16.2755 41.6035 16.2787 41.5567 16.2787 41.5184ZM15.9845 41.4575H15.403C15.4281 41.2648 15.5435 41.144 15.709 41.144C15.8821 41.144 15.99 41.2626 15.9845 41.4575ZM17.3252 40.9294C17.0691 40.902 16.9311 41.0721 16.8709 41.2571H16.8654C16.8841 41.1524 16.8928 41.0309 16.8928 40.9542H16.6118V42.3223H16.9069V41.7658C16.9069 41.3563 17.0387 41.1659 17.311 41.2181L17.3252 40.9294ZM18.7367 42.3223V41.364C18.7367 41.1243 18.6407 40.9262 18.3294 40.9262C18.0984 40.9262 17.9329 41.0479 17.8533 41.2235H17.8501C17.8642 41.1469 17.8697 41.0283 17.8697 40.9542H17.5888V42.3223H17.8839V41.6644C17.8839 41.3889 18.035 41.1713 18.2412 41.1713C18.3981 41.1713 18.4448 41.2735 18.4448 41.4443V42.3223H18.7367ZM21.1403 42.3223V41.3779C21.1403 41.0698 20.9943 40.9262 20.7321 40.9262C20.4847 40.9262 20.3332 41.0918 20.2755 41.2213C20.2536 41.1002 20.1656 40.9262 19.8956 40.9262C19.6833 40.9262 19.5132 41.0448 19.4327 41.2267L19.4272 41.2235C19.4414 41.1417 19.4468 41.0283 19.4468 40.9542H19.1659V42.3223H19.461V41.6698C19.461 41.3804 19.6231 41.1713 19.8106 41.1713C19.9752 41.1713 20.0087 41.2929 20.0087 41.4498V42.3223H20.2974V41.6698C20.2974 41.367 20.4737 41.1713 20.6502 41.1713C20.8071 41.1713 20.8484 41.2812 20.8484 41.4498V42.3223H21.1403ZM22.6433 41.5184C22.6433 41.1939 22.4754 40.9262 22.0846 40.9262C21.685 40.9262 21.4595 41.2352 21.4595 41.6479C21.4595 42.1295 21.6935 42.3496 22.1149 42.3496C22.285 42.3496 22.4558 42.3191 22.5995 42.2614L22.5605 42.0304C22.4364 42.0858 22.2992 42.1131 22.1671 42.1131C21.8942 42.1131 21.7544 41.9726 21.7621 41.6614H22.6346C22.6401 41.6035 22.6433 41.5567 22.6433 41.5184ZM22.3491 41.4575H21.7676C21.7927 41.2648 21.9081 41.144 22.0736 41.144C22.2467 41.144 22.3546 41.2626 22.3491 41.4575ZM24.1244 42.3223V41.364C24.1244 41.1243 24.0284 40.9262 23.7171 40.9262C23.4861 40.9262 23.3206 41.0479 23.241 41.2235H23.2378C23.2519 41.1469 23.2574 41.0283 23.2574 40.9542H22.9764V42.3223H23.2715V41.6644C23.2715 41.3889 23.4227 41.1713 23.6288 41.1713C23.7857 41.1713 23.8325 41.2735 23.8325 41.4443V42.3223H24.1244ZM25.1797 42.3136L25.1547 42.0771C25.1056 42.088 25.0477 42.0967 24.9868 42.0967C24.8496 42.0967 24.8083 42.0413 24.8083 41.8377V41.182H25.1656V40.9542H24.8083V40.4393L24.5132 40.5189V40.9542H24.2519V41.182H24.5132V41.9289C24.5132 42.234 24.6014 42.3473 24.8933 42.3473C24.9846 42.3473 25.097 42.3332 25.1797 42.3136Z" fill="#231F20" stroke="#231F20" stroke-width="0.0218041" stroke-miterlimit="22.9256"/>
<path d="M27.2765 41.6121C27.2765 41.1298 27.0175 40.9262 26.6515 40.9262C26.2355 40.9262 25.9688 41.2429 25.9688 41.6559C25.9688 42.138 26.2168 42.3496 26.5961 42.3496C27.0011 42.3496 27.2765 42.0335 27.2765 41.6121ZM26.9737 41.6317C26.9737 41.9476 26.8138 42.0967 26.6241 42.0967C26.3954 42.0967 26.2746 41.9344 26.2746 41.6253C26.2746 41.3118 26.4478 41.1743 26.6264 41.1743C26.8606 41.1743 26.9737 41.3398 26.9737 41.6317ZM28.422 40.3182C28.3501 40.3018 28.276 40.2934 28.1987 40.2934C27.8437 40.2934 27.6642 40.4751 27.6642 40.8498V40.9542H27.4029V41.182H27.6642V42.3223H27.9561V41.182H28.3112V40.9542H27.9561V40.8443C27.9561 40.6288 28.0364 40.5328 28.212 40.5328C28.2729 40.5328 28.3392 40.5415 28.3994 40.5602L28.422 40.3182Z" fill="#231F20" stroke="#231F20" stroke-width="0.0218041" stroke-miterlimit="22.9256"/>
<path d="M29.4646 42.3223V40.4642H29.1641V42.3223H29.4646ZM31.044 42.3223V41.364C31.044 41.1243 30.948 40.9262 30.6368 40.9262C30.4058 40.9262 30.2402 41.0479 30.1606 41.2235H30.1574C30.1715 41.1469 30.177 41.0283 30.177 40.9542H29.8961V42.3223H30.1911V41.6644C30.1911 41.3889 30.3423 41.1713 30.5485 41.1713C30.7054 41.1713 30.7521 41.2735 30.7521 41.4443V42.3223H31.044ZM32.5774 42.3223V40.3128H32.2855V40.9433C32.2113 40.9378 32.145 40.9317 32.0789 40.9317C31.6356 40.9317 31.3633 41.2352 31.3633 41.7058C31.3633 42.1022 31.5309 42.3496 31.8673 42.3496C32.0789 42.3496 32.2387 42.234 32.3128 42.0664H32.3183C32.3051 42.1435 32.2996 42.2504 32.2996 42.3223H32.5774ZM32.2855 41.6144C32.2855 41.8486 32.1646 42.1076 31.9468 42.1076C31.7596 42.1076 31.6745 41.953 31.6745 41.6776C31.6745 41.3093 31.8337 41.1659 32.0679 41.1659C32.1395 41.1659 32.2113 41.1743 32.2855 41.1907V41.6144ZM33.3429 40.5273C33.3429 40.4252 33.2571 40.3433 33.1557 40.3433C33.051 40.3433 32.9652 40.4252 32.9652 40.5273C32.9652 40.632 33.051 40.7116 33.1557 40.7116C33.2571 40.7116 33.3429 40.6288 33.3429 40.5273ZM33.3016 42.3223V40.9542H33.0065V42.3223H33.3016ZM34.7437 42.3223C34.7383 42.2069 34.736 42.0664 34.736 41.9476V41.3804C34.736 41.1079 34.6204 40.9262 34.2044 40.9262C34.0282 40.9262 33.8439 40.9652 33.7059 41.0174L33.7643 41.2539C33.8744 41.1962 34.0282 41.1549 34.1545 41.1549C34.37 41.1549 34.4409 41.2461 34.4409 41.414V41.4936C33.9399 41.4936 33.6348 41.6614 33.6348 41.9695C33.6348 42.1927 33.783 42.3496 34.0172 42.3496C34.235 42.3496 34.4051 42.2285 34.4714 42.0664L34.4744 42.0687C34.4635 42.1435 34.4605 42.234 34.4605 42.3223H34.7437ZM34.4409 41.7307C34.4409 41.9259 34.3059 42.1186 34.1054 42.1186C33.9898 42.1186 33.918 42.039 33.918 41.9344C33.918 41.8048 34.0313 41.6917 34.4409 41.6917V41.7307Z" fill="#231F20" stroke="#231F20" stroke-width="0.0218041" stroke-miterlimit="22.9256"/>
<path d="M37.233 41.6067V40.4642H36.9388V41.6286C36.9388 41.975 36.8015 42.1023 36.4987 42.1023C36.1546 42.1023 36.072 41.915 36.072 41.6669V40.4642H35.7715V41.6895C35.7715 42.0304 35.8956 42.3497 36.4793 42.3497C36.9662 42.3497 37.233 42.1023 37.233 41.6067ZM38.811 42.3223V41.3641C38.811 41.1244 38.715 40.9263 38.4037 40.9263C38.1727 40.9263 38.0072 41.048 37.9276 41.2236H37.9244C37.9386 41.147 37.944 41.0284 37.944 40.9543H37.6631V42.3223H37.9582V41.6644C37.9582 41.389 38.1094 41.1714 38.3155 41.1714C38.4724 41.1714 38.5191 41.2736 38.5191 41.4444V42.3223H38.811ZM40.3444 42.3223V40.3128H40.0525V40.9433C39.9784 40.9379 39.912 40.9317 39.8459 40.9317C39.4026 40.9317 39.1303 41.2352 39.1303 41.7059C39.1303 42.1023 39.2979 42.3497 39.6342 42.3497C39.8459 42.3497 40.0057 42.234 40.0798 42.0665H40.0853C40.0721 42.1435 40.0666 42.2505 40.0666 42.3223H40.3444ZM40.0525 41.6145C40.0525 41.8487 39.9316 42.1077 39.7138 42.1077C39.5266 42.1077 39.4416 41.9531 39.4416 41.6776C39.4416 41.3093 39.6007 41.1659 39.8349 41.1659C39.9065 41.1659 39.9784 41.1743 40.0525 41.1908V41.6145ZM41.8474 41.5185C41.8474 41.194 41.6795 40.9263 41.2887 40.9263C40.8892 40.9263 40.6636 41.2352 40.6636 41.648C40.6636 42.1296 40.8976 42.3497 41.319 42.3497C41.4891 42.3497 41.6599 42.3191 41.8036 42.2614L41.7646 42.0304C41.6405 42.0858 41.5033 42.1132 41.3712 42.1132C41.0983 42.1132 40.9585 41.9727 40.9662 41.6614H41.8387C41.8442 41.6035 41.8474 41.5568 41.8474 41.5185ZM41.5532 41.4576H40.9717C40.9968 41.2649 41.1122 41.144 41.2777 41.144C41.4508 41.144 41.5587 41.2626 41.5532 41.4576ZM42.8938 40.9294C42.6377 40.9021 42.4998 41.0722 42.4396 41.2571H42.4341C42.4528 41.1525 42.4615 41.0309 42.4615 40.9543H42.1805V42.3223H42.4756V41.7659C42.4756 41.3563 42.6074 41.1659 42.8797 41.2182L42.8938 40.9294ZM43.9711 42.3136L43.946 42.0772C43.897 42.0881 43.8391 42.0968 43.7782 42.0968C43.6409 42.0968 43.5996 42.0414 43.5996 41.8377V41.1821H43.9569V40.9543H43.5996V40.4394L43.3045 40.519V40.9543H43.0432V41.1821H43.3045V41.9289C43.3045 42.234 43.3928 42.3474 43.6847 42.3474C43.7759 42.3474 43.8883 42.3333 43.9711 42.3136ZM45.2867 42.3223C45.2812 42.2069 45.2789 42.0665 45.2789 41.9476V41.3805C45.2789 41.108 45.1633 40.9263 44.7473 40.9263C44.5711 40.9263 44.3868 40.9653 44.2488 41.0175L44.3072 41.254C44.4174 41.1963 44.5711 41.155 44.6974 41.155C44.9129 41.155 44.9838 41.2462 44.9838 41.414V41.4936C44.4828 41.4936 44.1777 41.6614 44.1777 41.9695C44.1777 42.1928 44.3259 42.3497 44.5601 42.3497C44.7779 42.3497 44.948 42.2286 45.0144 42.0665L45.0173 42.0687C45.0064 42.1435 45.0034 42.234 45.0034 42.3223H45.2867ZM44.9838 41.7308C44.9838 41.926 44.8488 42.1187 44.6484 42.1187C44.5328 42.1187 44.4609 42.0391 44.4609 41.9344C44.4609 41.8049 44.5743 41.6918 44.9838 41.6918V41.7308ZM46.8505 42.3223L46.3058 41.5787L46.8123 40.9543H46.4517L46.0086 41.5404V40.3128H45.7136V42.3223H46.0086V41.6286L46.4759 42.3223H46.8505ZM47.446 40.5274C47.446 40.4253 47.3602 40.3434 47.2587 40.3434C47.1541 40.3434 47.0683 40.4253 47.0683 40.5274C47.0683 40.6321 47.1541 40.7117 47.2587 40.7117C47.3602 40.7117 47.446 40.6289 47.446 40.5274ZM47.4047 42.3223V40.9543H47.1096V42.3223H47.4047ZM48.9818 42.3223V41.3641C48.9818 41.1244 48.8858 40.9263 48.5745 40.9263C48.3435 40.9263 48.178 41.048 48.0984 41.2236H48.0952C48.1093 41.147 48.1148 41.0284 48.1148 40.9543H47.8339V42.3223H48.1289V41.6644C48.1289 41.389 48.2801 41.1714 48.4863 41.1714C48.6432 41.1714 48.6899 41.2736 48.6899 41.4444V42.3223H48.9818ZM50.6143 42.4847C50.6143 42.2318 50.4488 42.0991 50.1517 42.0881L49.9207 42.0804C49.7583 42.0719 49.6951 42.0523 49.6951 41.9814C49.6951 41.9454 49.7222 41.9064 49.7747 41.8822C49.8182 41.8931 49.8543 41.8986 49.9042 41.8986C50.2919 41.8986 50.4848 41.6895 50.4848 41.4031C50.4848 41.3119 50.452 41.2352 50.3943 41.1853H50.6034V40.9543H50.1382C50.0666 40.9379 50.0112 40.9263 49.9316 40.9263C49.5437 40.9263 49.3391 41.1659 49.3391 41.4414C49.3391 41.62 49.4164 41.744 49.5437 41.8159C49.45 41.8596 49.3861 41.9508 49.3861 42.05C49.3861 42.1435 49.4383 42.2201 49.5211 42.256C49.4032 42.3223 49.2985 42.4573 49.2985 42.611C49.2985 42.8787 49.5211 43.0215 49.8791 43.0215C50.3193 43.0215 50.6143 42.782 50.6143 42.4847ZM50.2016 41.4195C50.2016 41.5903 50.0914 41.6918 49.912 41.6918C49.7277 41.6918 49.6255 41.5903 49.6255 41.4195C49.6255 41.2626 49.7332 41.144 49.9175 41.144C50.0992 41.144 50.2016 41.2517 50.2016 41.4195ZM50.3225 42.5291C50.3225 42.6774 50.182 42.7928 49.9261 42.7928C49.7277 42.7928 49.5898 42.7047 49.5898 42.5588C49.5898 42.4628 49.6506 42.38 49.7441 42.3136C49.766 42.3136 49.7941 42.3136 49.8182 42.3136L50.0689 42.3223C50.2451 42.331 50.3225 42.4074 50.3225 42.5291Z" fill="#231F20" stroke="#231F20" stroke-width="0.0218041" stroke-miterlimit="22.9256"/>
</svg>
