<svg width="115" height="48" viewBox="0 0 115 48" fill="none" xmlns="http://www.w3.org/2000/svg">
<g clip-path="url(#clip0_781_33505)">
<path d="M103.146 0.0800781H11.4659C5.13668 0.0800781 0.00585938 5.21089 0.00585938 11.5401V36.3701C0.00585938 42.6993 5.13668 47.8301 11.4659 47.8301H103.146C109.475 47.8301 114.606 42.6993 114.606 36.3701V11.5401C114.606 5.21089 109.475 0.0800781 103.146 0.0800781Z" fill="white"/>
<path d="M14.3301 17.2695H100.28V31.5925H14.3301V17.2695Z" fill="#004C8F"/>
<path d="M28.6562 17.2695H100.28V31.5925H28.6562V17.2695Z" fill="#004C8F"/>
<path d="M33.2133 27.8218V21.0449H35.4403V23.3319H37.5356V21.0449H39.7537V27.8218H37.5176V25.1907H35.4224V27.8218H33.1953" fill="white"/>
<path d="M43.2904 22.7265H43.8681C44.1789 22.711 44.4896 22.7547 44.7841 22.8552C44.9304 22.9206 45.0564 23.024 45.1493 23.1545C45.254 23.3179 45.3299 23.4982 45.3738 23.6873C45.4261 23.914 45.4522 24.1461 45.4516 24.3787C45.4629 24.7192 45.4048 25.0583 45.281 25.3756C45.1879 25.6176 45.016 25.8211 44.793 25.9533C44.4999 26.0913 44.1766 26.153 43.8531 26.1329H43.2904V22.7265ZM44.1525 27.8151C44.5957 27.8252 45.0385 27.778 45.4696 27.6744C45.779 27.6044 46.0744 27.483 46.3436 27.3153C46.5836 27.1524 46.7941 26.95 46.9662 26.7166C47.1758 26.415 47.3374 26.0828 47.4452 25.7318C47.5821 25.2931 47.6477 24.8352 47.6397 24.3758C47.6596 23.7159 47.5113 23.0618 47.2087 22.475C46.9439 21.9829 46.5226 21.5932 46.0113 21.3675C45.4414 21.1365 44.8302 21.0244 44.2154 21.0383H41.1113V27.8181H44.1525" fill="white"/>
<path d="M48.6602 27.8218V21.0449H53.9463V22.7152H50.8602V23.8018H53.3297V25.4271H50.8602V27.8218H48.6602Z" fill="white"/>
<path d="M61.4154 23.6322H59.32C59.2977 23.3324 59.168 23.0508 58.9548 22.839C58.7403 22.6486 58.4602 22.5488 58.1736 22.5606C57.989 22.5559 57.8058 22.5947 57.639 22.6737C57.4721 22.7527 57.326 22.8698 57.2127 23.0156C56.9643 23.315 56.8385 23.8178 56.8385 24.5122C56.8228 24.8772 56.8766 25.242 56.9972 25.5868C57.0861 25.8108 57.2405 26.0028 57.4402 26.1377C57.6542 26.265 57.901 26.3264 58.1496 26.3142C58.2975 26.3239 58.4458 26.3036 58.5856 26.2548C58.7255 26.2059 58.8541 26.1294 58.9638 26.0298C59.1863 25.8086 59.3167 25.5113 59.329 25.1977H61.4722C61.4388 25.5623 61.3531 25.9202 61.2178 26.2604C61.074 26.581 60.8709 26.8714 60.6191 27.1164C60.3293 27.4093 59.9803 27.6369 59.5954 27.784C59.1564 27.9479 58.69 28.0262 58.2215 28.0144C57.7363 28.0209 57.2535 27.945 56.7936 27.7899C56.3833 27.6529 56.006 27.4317 55.6861 27.1404C55.3928 26.8642 55.1542 26.5351 54.9827 26.1705C54.74 25.6392 54.6193 25.0603 54.6295 24.4763C54.6249 23.9751 54.7112 23.4771 54.8839 23.0066C55.0399 22.5802 55.2813 22.1901 55.5934 21.8602C55.8777 21.566 56.2175 21.3309 56.5931 21.1687C57.0813 20.9652 57.6058 20.8634 58.1346 20.8694C58.6055 20.8656 59.0738 20.9394 59.5205 21.0879C59.9193 21.2129 60.282 21.4327 60.5772 21.7285C60.856 22.0065 61.075 22.3386 61.2207 22.7043C61.3376 23.0044 61.4092 23.3201 61.4333 23.6412" fill="white"/>
<path d="M68.558 22.5678C68.7656 22.5586 68.9735 22.5737 69.1776 22.6126C69.3013 22.6472 69.4111 22.7194 69.4919 22.8192C69.5719 22.9193 69.6142 23.0443 69.6116 23.1724C69.6139 23.2537 69.5973 23.3344 69.563 23.4083C69.5287 23.482 69.4777 23.5468 69.414 23.5974C69.1968 23.7293 68.9426 23.7871 68.6897 23.7621H67.8485V22.5647L68.558 22.5678ZM69.1177 27.821C69.4913 27.8308 69.865 27.8067 70.2342 27.7491C70.4622 27.6931 70.6838 27.6138 70.8957 27.5127C71.0799 27.4272 71.2489 27.3119 71.3957 27.1714C71.572 27.0053 71.7073 26.8003 71.7907 26.5727C71.8864 26.3215 71.9341 26.0545 71.9314 25.7855C71.9464 25.4217 71.8413 25.063 71.6321 24.7648C71.4263 24.4912 71.1341 24.295 70.803 24.2081C71.0679 24.0722 71.2913 23.8672 71.4493 23.6148C71.6075 23.3624 71.6944 23.072 71.701 22.7742C71.7099 22.4961 71.6427 22.2209 71.5066 21.9782C71.3704 21.7356 71.1707 21.5347 70.9287 21.3973C70.5296 21.1539 69.912 21.0332 69.0758 21.0352H65.6934V27.8121L69.1177 27.821ZM68.7585 24.9804C69.0592 24.947 69.3628 25.0054 69.6296 25.148C69.6965 25.2072 69.7501 25.2801 69.7869 25.3616C69.8235 25.4431 69.8425 25.5315 69.8425 25.6209C69.8425 25.7104 69.8235 25.7987 69.7869 25.8803C69.7501 25.9618 69.6965 26.0346 69.6296 26.0938C69.3688 26.2409 69.0678 26.3007 68.7705 26.2645H67.8725V24.9804H68.7705" fill="white"/>
<path d="M76.8281 25.5439H75.4092L76.1096 23.0774L76.8281 25.5439ZM74.7327 27.8218L74.9902 26.9238H77.2082L77.4686 27.8218H79.6837L77.2531 21.0449H74.9902L72.5566 27.8218H74.7327Z" fill="white"/>
<path d="M80.6328 27.8218V21.0449H82.7101L85.0539 24.6729V21.0449H87.1881V27.8218H85.0689L82.776 24.2807V27.8218H80.6328Z" fill="white"/>
<path d="M88.6768 27.8218V21.0449H90.835V23.278L92.8525 21.0449H95.4687L92.9872 23.5952L95.7287 27.8218H93.062L91.4307 25.1278L90.832 25.7115V27.8278H88.6738" fill="white"/>
<path d="M14.3301 17.2695H28.6531V31.5925H14.3301V17.2695Z" fill="#ED232A"/>
<path d="M16.8398 19.7793H26.149V29.0884H16.8398V19.7793Z" fill="white"/>
<path d="M20.7734 17.2695H22.2073V31.5925H20.7734V17.2695Z" fill="white"/>
<path d="M14.3301 23.7188H28.6531V25.1495H14.3301V23.7188Z" fill="white"/>
<path d="M19.3438 22.2832H23.6421V26.5816H19.3438V22.2832Z" fill="#004C8F"/>
</g>
<defs>
<clipPath id="clip0_781_33505">
<rect width="114.6" height="47.75" fill="white" transform="translate(0.00585938 0.0800781)"/>
</clipPath>
</defs>
</svg>
