<svg width="115" height="48" viewBox="0 0 115 48" fill="none" xmlns="http://www.w3.org/2000/svg">
<g clip-path="url(#clip0_781_33539)">
<path d="M103.146 0.169922H11.4659C5.13668 0.169922 0.00585938 5.30074 0.00585938 11.6299V36.4599C0.00585938 42.7891 5.13668 47.9199 11.4659 47.9199H103.146C109.475 47.9199 114.606 42.7891 114.606 36.4599V11.6299C114.606 5.30074 109.475 0.169922 103.146 0.169922Z" fill="white"/>
<path d="M30.4355 32.7996H33.3411L35.619 24.3105H32.7432L30.4355 32.7996Z" fill="#004A7F"/>
<path d="M45.332 32.7996H48.2376L50.5155 24.3105H47.6098L45.332 32.7996Z" fill="#004A7F"/>
<path d="M60.2559 32.7996H63.1331L65.3838 24.3105H62.4781L60.2559 32.7996Z" fill="#004A7F"/>
<path d="M42.6259 27.2155H45.5315C45.9301 25.3079 44.7058 24.3398 41.8571 24.3398C38.5529 24.3398 36.3321 25.9628 35.5633 28.7261C34.907 31.2885 36.2466 32.8275 39.35 32.8275C42.4835 32.8275 44.3342 31.8594 45.1044 29.6656H42.1988C41.7716 30.6337 41.0314 31.1178 40.0064 31.1178C38.6098 31.1178 38.0404 30.2635 38.4674 28.6406C38.923 26.9593 40.0064 26.0197 41.4016 26.0197C42.3127 26.0197 42.7113 26.4183 42.6259 27.2155Z" fill="#004A7F"/>
<path d="M57.551 27.2155H60.4567C60.8553 25.3079 59.6011 24.3398 56.7524 24.3398C53.4766 24.3398 51.2273 25.9628 50.487 28.7261C49.8037 31.2885 51.1419 32.8275 54.2468 32.8275C57.3517 32.8275 59.2025 31.8594 59.9997 29.6656H57.0955C56.6954 30.6337 55.9267 31.1178 54.9017 31.1178C53.5065 31.1178 52.9371 30.2635 53.3912 28.6406C53.8197 26.9593 54.9017 26.0197 56.2968 26.0197C57.2094 26.0197 57.6365 26.4183 57.551 27.2155Z" fill="#004A7F"/>
<path d="M19.2417 19.6126C23.1155 15.7674 27.8149 14.7694 29.6954 17.3903C31.5761 20.0112 29.9232 25.3085 26.0495 29.1537C22.1759 33.0274 17.4765 34.0239 15.5674 31.3745C13.7167 28.7266 15.3695 23.4563 19.2417 19.6126Z" fill="#F06321"/>
<path d="M21.8073 17.5616C21.3801 17.8749 20.953 18.245 20.526 18.6451C17.1363 22.0048 15.7112 26.6188 17.3926 28.9265C19.1294 31.2328 23.2878 30.3786 26.7629 26.9889C28.6435 25.1667 29.8962 23.0583 30.4088 21.0937C30.5512 19.6416 30.3519 18.3589 29.697 17.3909C28.2164 15.3408 25.0261 15.5102 21.8073 17.5616Z" fill="#AE282E"/>
<path d="M26.7045 17.9893V18.0747C26.676 18.5587 26.3912 19.1566 25.8788 19.6692C25.11 20.4095 24.085 20.6942 23.6565 20.2685C23.1724 19.813 23.4586 18.815 24.2273 18.0178C25.0245 17.249 26.0495 16.9928 26.4767 17.4483C26.619 17.5907 26.7045 17.7615 26.7045 17.9893ZM23.7433 31.0624C21.9196 32.4291 20.0404 33.1139 18.2168 32.8292C18.9855 32.8576 19.6133 32.002 20.1258 30.8631C20.6383 29.6957 20.9231 28.6138 21.1793 27.5874C21.5495 25.9644 21.5779 24.8255 21.3786 24.5693C21.0655 24.1692 20.3821 24.2561 19.5834 24.7117C19.1848 24.9394 18.6723 24.7971 19.2717 24.0568C19.8981 23.3165 22.3182 21.5498 23.1724 21.2651C24.1419 21.0088 25.2238 21.3789 24.8537 22.4325C24.596 23.2012 21.2363 31.9736 23.7433 31.0624Z" fill="white"/>
<path d="M69.7415 31.4608L70.3964 29.0122H71.9909V27.7024H70.7665L71.336 25.6225H71.9909V24.3398H69.8255L67.5762 32.8289H71.9909V31.4608H69.7415ZM71.9909 29.0122H72.304C73.7576 29.0122 74.4409 29.2684 74.1562 30.265C73.9284 31.1477 73.2166 31.4608 71.9909 31.4608V32.8289C73.1881 32.8289 74.0707 32.715 74.9535 32.1156C75.5514 31.717 75.9799 31.1191 76.1506 30.4358C76.4624 29.2684 75.95 28.4697 74.6118 28.3003C75.8645 28.0726 76.6632 27.4163 76.918 26.3913C77.1457 25.6225 76.9464 25.053 76.4055 24.683C75.95 24.3697 75.1812 24.3398 74.1562 24.3398H71.9909V25.6225H73.1027C74.4694 25.6225 75.0957 25.7934 74.8964 26.6475C74.6402 27.4732 73.8999 27.7024 72.5047 27.7024H71.9909V29.0122Z" fill="#004A7F"/>
<path d="M79.9661 26.877V27.929C79.7384 28.0444 79.5391 28.2437 79.4536 28.5284H77.7453C78.0285 27.7027 78.7987 27.1318 79.9661 26.877ZM79.9661 31.8611C79.7668 31.918 79.5391 31.9465 79.3113 31.9465C78.5425 31.9465 78.2008 31.6319 78.3717 31.0625C78.5425 30.4076 79.055 30.1798 79.9661 30.0944V29.0978C78.0001 29.2402 76.9182 29.7527 76.5765 31.034C76.2633 32.2013 77.005 32.9715 78.5425 32.9715C79.055 32.9715 79.5391 32.8861 79.9661 32.7153V31.8611ZM81.619 30.0944L81.5904 30.1798C81.3626 31.0625 80.7634 31.6618 79.9661 31.8611V32.7153C80.3932 32.543 80.7633 32.3167 81.105 32.0034L80.9627 32.8291H82.6724C82.7578 32.4292 82.8433 31.9735 82.9571 31.518L83.612 29.1263C83.669 28.927 83.6974 28.7277 83.6974 28.5284V28.2437C83.6405 27.2742 82.8148 26.7617 81.2773 26.7617C80.7918 26.7617 80.3647 26.8186 79.9661 26.877V27.929C80.2224 27.7881 80.5356 27.7311 80.9356 27.7311C81.8168 27.7311 82.16 28.1283 81.9022 28.9839L81.8752 29.0694H80.9626C80.6224 29.0694 80.2793 29.0978 79.9661 29.0978V30.0944H81.619Z" fill="#004A7F"/>
<path d="M84.2109 32.8291H85.9491L86.7748 29.7811C87.0596 28.6992 88.0562 27.929 89.1096 27.929C90.1346 27.929 90.5062 28.5284 90.1645 29.7242L89.3374 32.8291H91.0757L92.0438 29.2118C92.4424 27.6742 91.6736 26.7617 89.9652 26.7617C88.8534 26.7617 87.9707 27.1602 87.202 27.9575L87.4012 26.904H85.6645C85.4936 27.8436 85.3797 28.4145 85.3213 28.6423L84.2109 32.8291Z" fill="#004A7F"/>
<path d="M92.6133 32.8275H94.323L95.1772 29.6371L97.485 32.8275H99.8477L97.2272 29.4378L100.76 26.9024H98.567L95.2911 29.267L96.6007 24.3398H94.8925L92.6133 32.8275Z" fill="#004A7F"/>
</g>
<defs>
<clipPath id="clip0_781_33539">
<rect width="114.6" height="47.75" fill="white" transform="translate(0.00585938 0.169922)"/>
</clipPath>
</defs>
</svg>
