<svg width="120" height="121" viewBox="0 0 120 121" fill="none" xmlns="http://www.w3.org/2000/svg">
<g clip-path="url(#clip0_781_33586)">
<path d="M60 120.77C93.1371 120.77 120 93.9066 120 60.7695C120 27.6324 93.1371 0.769531 60 0.769531C26.8629 0.769531 0 27.6324 0 60.7695C0 93.9066 26.8629 120.77 60 120.77Z" fill="white"/>
<path d="M40.4165 71.6214C40.3851 71.6214 40.3537 71.6197 40.3226 71.6163C40.2752 71.6119 40.2295 71.6163 40.183 71.6163H30.8607C30.7404 71.6161 30.6214 71.5908 30.5115 71.5419C30.4015 71.493 30.303 71.4216 30.2223 71.3323C30.1416 71.243 30.0806 71.1378 30.043 71.0235C30.0055 70.9092 29.9923 70.7883 30.0043 70.6685C30.5955 64.8339 32.8833 59.3003 36.585 54.7518C36.6611 54.6582 36.7558 54.5817 36.8633 54.527C36.9707 54.4724 37.0885 54.441 37.2088 54.4347C37.3293 54.4287 37.4496 54.4479 37.5622 54.4911C37.6748 54.5342 37.7772 54.6004 37.8628 54.6854L44.471 61.2842L44.6347 61.4393C44.7807 61.5848 44.8697 61.7779 44.8855 61.9834C44.9013 62.1889 44.8429 62.3932 44.7209 62.5594C42.9155 65.0166 41.7313 67.8742 41.2694 70.8882C41.2387 71.0923 41.1356 71.2786 40.9791 71.4132C40.8226 71.5478 40.6229 71.6217 40.4165 71.6214ZM31.8309 69.8897H39.691C40.2202 67.1177 41.3119 64.4837 42.8987 62.1501L37.332 56.5904C34.382 60.4748 32.4868 65.0563 31.8309 69.8897Z" fill="#3D4159"/>
<path d="M48.282 58.654C48.0535 58.6539 47.8344 58.5632 47.6728 58.4016L47.5746 58.2981L40.9181 51.6287C40.8328 51.5434 40.7665 51.4412 40.7232 51.3286C40.68 51.216 40.6609 51.0956 40.6672 50.9752C40.6734 50.8547 40.7049 50.7368 40.7595 50.6293C40.8142 50.5218 40.8908 50.4271 40.9844 50.3511C45.5328 46.652 51.0649 44.3658 56.8977 43.7746C57.0177 43.7615 57.1392 43.774 57.2539 43.8116C57.3686 43.8492 57.4739 43.9109 57.5629 43.9925C57.6523 44.0733 57.7239 44.172 57.7728 44.2821C57.8218 44.3922 57.8471 44.5114 57.8472 44.6319V53.9499C57.8446 53.9966 57.8446 54.0435 57.8472 54.0903C57.872 54.3116 57.8101 54.534 57.6745 54.7106C57.5389 54.8873 57.3402 55.0047 57.12 55.038C54.106 55.4999 51.2484 56.6841 48.7912 58.4895C48.6432 58.597 48.4649 58.6545 48.282 58.654ZM42.823 51.0979L48.3828 56.6646C50.7166 55.0785 53.3506 53.9872 56.1223 53.4579V45.5977C51.289 46.2532 46.7074 48.1481 42.823 51.0979Z" fill="#3D4159"/>
<path d="M71.7168 58.6544C71.5324 58.6531 71.3533 58.5927 71.2058 58.4821C70.4551 57.927 69.6614 57.4327 68.8322 57.0036C68.363 56.7472 67.8807 56.5154 67.3873 56.3092C66.205 55.8062 64.9735 55.4276 63.7127 55.1797C63.431 55.1193 63.1561 55.0711 62.8813 55.0306C62.6603 54.9982 62.4605 54.8813 62.3241 54.7045C62.1876 54.5277 62.1251 54.3048 62.1498 54.0829C62.1524 54.0361 62.1524 53.9892 62.1498 53.9424V44.6279C62.1499 44.5074 62.1752 44.3882 62.2242 44.2781C62.2731 44.168 62.3447 44.0694 62.4341 43.9886C62.5238 43.9078 62.6296 43.847 62.7446 43.8101C62.8596 43.7733 62.981 43.7613 63.101 43.775C64.3989 43.9073 65.6864 44.1269 66.9548 44.4324C67.0663 44.4575 67.1716 44.5045 67.2647 44.5707C67.3578 44.6369 67.4368 44.721 67.4971 44.818C67.5574 44.915 67.5978 45.023 67.616 45.1358C67.6342 45.2486 67.6297 45.3639 67.6029 45.4749C67.5761 45.5859 67.5275 45.6906 67.4599 45.7826C67.3923 45.8747 67.3071 45.9525 67.2092 46.0113C67.1113 46.0702 67.0026 46.1089 66.8896 46.1254C66.7766 46.1419 66.6614 46.1357 66.5507 46.1073C65.6711 45.8953 64.775 45.7264 63.8799 45.6024V53.4625L64.0582 53.4987C65.4303 53.7696 66.7706 54.1819 68.0576 54.7291C68.5988 54.9542 69.1277 55.2079 69.6421 55.489C70.3247 55.842 70.985 56.2365 71.6194 56.6702L77.1766 51.0984C76.5519 50.6254 75.9083 50.1791 75.2553 49.7672C75.0619 49.6453 74.925 49.4516 74.8745 49.2287C74.824 49.0058 74.8641 48.772 74.986 48.5787C75.1079 48.3854 75.3016 48.2484 75.5245 48.1979C75.7474 48.1474 75.9812 48.1875 76.1746 48.3094C77.162 48.933 78.1114 49.6149 79.0178 50.3514C79.1112 50.4275 79.1876 50.5223 79.2421 50.6298C79.2966 50.7372 79.3279 50.8549 79.3341 50.9753C79.3402 51.0956 79.3211 51.2159 79.2779 51.3284C79.2347 51.4408 79.1684 51.543 79.0832 51.6282L72.3285 58.4011C72.2483 58.4816 72.1529 58.5454 72.0479 58.5888C71.9429 58.6323 71.8304 58.6546 71.7168 58.6544Z" fill="#46BE88"/>
<path d="M72.1309 47.954C72.0071 47.9541 71.8849 47.9273 71.7725 47.8756C71.2236 47.6249 70.7549 47.431 70.2957 47.2647C70.0871 47.1825 69.9187 47.0221 69.8264 46.8177C69.734 46.6133 69.7251 46.381 69.8014 46.1701C69.8777 45.9592 70.0332 45.7863 70.2349 45.6882C70.4366 45.5902 70.6686 45.5747 70.8816 45.6449C71.3787 45.8242 71.9051 46.0413 72.4893 46.3092C72.6679 46.3911 72.8132 46.5316 72.901 46.7075C72.9888 46.8833 73.0139 47.0838 72.972 47.2758C72.9302 47.4679 72.8239 47.6398 72.671 47.7631C72.518 47.8865 72.3274 47.9538 72.1309 47.954Z" fill="#46BE88"/>
<path d="M79.5811 71.622C79.3751 71.6218 79.176 71.5479 79.0198 71.4135C78.8637 71.2792 78.7608 71.0933 78.7299 70.8896C78.2684 67.8747 77.0842 65.0162 75.2784 62.5582C75.1564 62.3921 75.0981 62.1877 75.1139 61.9822C75.1297 61.7767 75.2186 61.5837 75.3646 61.4381L75.4706 61.3373L82.1366 54.6834C82.2222 54.5985 82.3246 54.5324 82.4372 54.4892C82.5497 54.446 82.6701 54.4268 82.7905 54.4327C82.9109 54.4389 83.0286 54.4704 83.136 54.525C83.2435 54.5796 83.3383 54.6562 83.4143 54.7497C87.1153 59.2971 89.403 64.8291 89.995 70.6622C90.0071 70.7819 89.9939 70.9028 89.9563 71.0172C89.9188 71.1315 89.8577 71.2367 89.777 71.326C89.6963 71.4153 89.5978 71.4867 89.4879 71.5356C89.3779 71.5845 89.2589 71.6098 89.1386 71.6099H79.8146C79.7681 71.6099 79.7216 71.6099 79.6751 71.6099C79.644 71.6156 79.6126 71.6197 79.5811 71.622ZM80.3066 69.8902H88.1668C87.5108 65.0568 85.6157 60.4754 82.6656 56.5909L77.0989 62.1507C78.6857 64.4843 79.7774 67.1183 80.3066 69.8902Z" fill="#3D4159"/>
<path d="M59.9993 78.0748C59.1473 78.0748 58.3144 77.8221 57.606 77.3487C56.8975 76.8754 56.3454 76.2027 56.0193 75.4155C55.6933 74.6283 55.608 73.7622 55.7742 72.9265C55.9404 72.0909 56.3507 71.3232 56.9532 70.7207C57.5556 70.1182 58.3232 69.708 59.1589 69.5417C59.9945 69.3755 60.8607 69.4608 61.6478 69.7869C62.435 70.1129 63.1078 70.6651 63.5812 71.3735C64.0545 72.0819 64.3072 72.9149 64.3072 73.7669C64.3058 74.9091 63.8515 76.0039 63.0439 76.8115C62.2363 77.6191 61.1414 78.0735 59.9993 78.0748ZM59.9993 71.1822C59.4881 71.1822 58.9883 71.3338 58.5633 71.6178C58.1382 71.9018 57.8069 72.3054 57.6113 72.7777C57.4157 73.25 57.3645 73.7697 57.4642 74.2711C57.564 74.7725 57.8101 75.2331 58.1716 75.5946C58.5331 75.956 58.9936 76.2022 59.495 76.3019C59.9964 76.4016 60.5161 76.3506 60.9884 76.1549C61.4607 75.9593 61.8644 75.6279 62.1484 75.2028C62.4324 74.7778 62.584 74.2782 62.584 73.7669C62.584 73.0814 62.3117 72.4239 61.827 71.9392C61.3422 71.4544 60.6848 71.1822 59.9993 71.1822Z" fill="#46BE88"/>
<path d="M61.1063 71.2953C60.9597 71.2957 60.8153 71.2587 60.687 71.1878C60.5586 71.1168 60.4505 71.0143 60.3729 70.8899C60.2952 70.7655 60.2506 70.6233 60.2433 70.4768C60.2359 70.3303 60.2661 70.1844 60.3309 70.0529L64.6388 61.3242C64.6889 61.2227 64.7584 61.1321 64.8435 61.0575C64.9286 60.9829 65.0276 60.9258 65.1347 60.8894C65.2419 60.8531 65.3552 60.8382 65.4681 60.8456C65.581 60.853 65.6914 60.8826 65.7929 60.9327C65.8944 60.9827 65.985 61.0523 66.0596 61.1374C66.1342 61.2225 66.1913 61.3214 66.2277 61.4286C66.2641 61.5358 66.279 61.649 66.2715 61.762C66.2641 61.8749 66.2345 61.9852 66.1845 62.0867L61.8766 70.8145C61.8057 70.9584 61.696 71.0796 61.5599 71.1646C61.4238 71.2495 61.2668 71.2948 61.1063 71.2953Z" fill="#46BE88"/>
</g>
<defs>
<clipPath id="clip0_781_33586">
<rect width="120" height="120" fill="white" transform="translate(0 0.769531)"/>
</clipPath>
</defs>
</svg>
