<svg width="120" height="121" viewBox="0 0 120 121" fill="none" xmlns="http://www.w3.org/2000/svg">
<g clip-path="url(#clip0_781_33637)">
<path d="M60 120.77C93.1371 120.77 120 93.9066 120 60.7695C120 27.6324 93.1371 0.769531 60 0.769531C26.8629 0.769531 0 27.6324 0 60.7695C0 93.9066 26.8629 120.77 60 120.77Z" fill="white"/>
<path d="M57.8 62.8675C57.4056 64.0521 56.7768 65.1305 55.9693 66.0468C55.7316 66.0608 55.4893 66.1132 55.2515 66.2108L48.1015 69.1325C47.9992 69.1225 47.8983 69.1106 47.7973 69.0966C48.0948 68.7394 48.2754 68.2799 48.2768 67.7766V67.7693C48.2768 66.6265 47.3524 65.6849 46.2077 65.681H41.804C40.5543 64.1066 39.8086 62.1145 39.8086 59.9485C39.8086 54.8496 43.9414 50.7168 49.0397 50.7168C53.146 50.7168 56.6247 53.3974 57.8239 57.1039" stroke="#3D4159" stroke-width="1.5" stroke-miterlimit="10" stroke-linecap="round" stroke-linejoin="round"/>
<path fill-rule="evenodd" clip-rule="evenodd" d="M45.894 55.1191C45.894 54.843 46.1179 54.6191 46.394 54.6191H48.3162L48.3364 54.6192H52.314C52.5902 54.6192 52.814 54.843 52.814 55.1192C52.814 55.3953 52.5902 55.6192 52.314 55.6192H50.6275C51.0399 56.0581 51.3287 56.6145 51.4383 57.2328H52.314C52.6454 57.2328 52.914 57.5014 52.914 57.8328C52.914 58.1642 52.6454 58.4328 52.314 58.4328H51.4219C51.1248 59.8758 49.8473 60.9609 48.3162 60.9609H47.6577L51.1981 64.2825C51.3995 64.4715 51.4095 64.7879 51.2206 64.9893C51.0317 65.1907 50.7152 65.2007 50.5139 65.0118L46.0519 60.8255C45.9023 60.6852 45.8536 60.4677 45.9291 60.2769C46.0045 60.0862 46.1889 59.9609 46.394 59.9609H48.3162C49.2914 59.9609 50.1164 59.3179 50.3904 58.4328H46.3949C46.0636 58.4328 45.7949 58.1642 45.7949 57.8328C45.7949 57.5014 46.0636 57.2328 46.3949 57.2328H50.415C50.1703 56.309 49.3319 55.6267 48.3329 55.6192H46.3949C46.3831 55.6192 46.3714 55.6188 46.3599 55.6179C46.0996 55.6004 45.894 55.3838 45.894 55.1191Z" fill="#46BE88"/>
<path d="M50.6283 55.62V55.42C50.5486 55.42 50.4765 55.4674 50.4448 55.5406C50.4131 55.6138 50.428 55.6988 50.4826 55.7569L50.6283 55.62ZM51.4391 57.2336L51.2422 57.2685C51.2591 57.364 51.3422 57.4336 51.4391 57.4336V57.2336ZM51.4227 58.4336V58.2336C51.3278 58.2336 51.246 58.3003 51.2269 58.3933L51.4227 58.4336ZM47.6585 60.9617V60.7617C47.5764 60.7617 47.5027 60.8118 47.4725 60.8881C47.4423 60.9644 47.4618 61.0514 47.5216 61.1075L47.6585 60.9617ZM50.3912 58.4336L50.5823 58.4927C50.601 58.432 50.5899 58.366 50.5522 58.3149C50.5145 58.2638 50.4547 58.2336 50.3912 58.2336V58.4336ZM50.4158 57.2336V57.4336C50.4778 57.4336 50.5364 57.4048 50.5743 57.3556C50.6121 57.3064 50.625 57.2424 50.6091 57.1824L50.4158 57.2336ZM48.3337 55.62L48.3352 55.42H48.3337V55.62ZM46.3948 54.4199C46.0082 54.4199 45.6948 54.7333 45.6948 55.1199H46.0948C46.0948 54.9542 46.2291 54.8199 46.3948 54.8199V54.4199ZM48.3177 54.4199H46.3948V54.8199H48.317L48.3177 54.4199ZM48.3378 54.42L48.3177 54.4199L48.317 54.8199L48.3366 54.82L48.3378 54.42ZM52.3148 54.42H48.3378L48.3366 54.82H52.3148V54.42ZM53.0148 55.12C53.0148 54.7334 52.7014 54.42 52.3148 54.42V54.82C52.4805 54.82 52.6148 54.9543 52.6148 55.12H53.0148ZM52.3148 55.82C52.7014 55.82 53.0148 55.5066 53.0148 55.12H52.6148C52.6148 55.2856 52.4805 55.42 52.3148 55.42V55.82ZM50.6283 55.82H52.3148V55.42H50.6283V55.82ZM51.6361 57.1987C51.5195 56.541 51.2123 55.9494 50.7741 55.483L50.4826 55.7569C50.8692 56.1683 51.1396 56.6896 51.2422 57.2685L51.6361 57.1987ZM51.4391 57.4336H52.3148V57.0336H51.4391V57.4336ZM52.3148 57.4336C52.5357 57.4336 52.7148 57.6127 52.7148 57.8336H53.1148C53.1148 57.3918 52.7566 57.0336 52.3148 57.0336V57.4336ZM52.7148 57.8336C52.7148 58.0545 52.5357 58.2336 52.3148 58.2336V58.6336C52.7566 58.6336 53.1148 58.2754 53.1148 57.8336H52.7148ZM52.3148 58.2336H51.4227V58.6336H52.3148V58.2336ZM48.317 61.1617C49.9449 61.1617 51.3028 60.0081 51.6186 58.4739L51.2269 58.3933C50.9485 59.7452 49.7513 60.7617 48.317 60.7617V61.1617ZM47.6585 61.1617H48.317V60.7617H47.6585V61.1617ZM51.3357 64.1375L47.7953 60.8158L47.5216 61.1075L51.062 64.4292L51.3357 64.1375ZM51.3673 65.1269C51.6318 64.845 51.6177 64.402 51.3357 64.1375L51.062 64.4292C51.1829 64.5426 51.1889 64.7324 51.0756 64.8532L51.3673 65.1269ZM50.3778 65.1585C50.6598 65.423 51.1027 65.4089 51.3673 65.1269L51.0756 64.8532C50.9622 64.9741 50.7723 64.9801 50.6515 64.8668L50.3778 65.1585ZM45.9159 60.9722L50.3778 65.1585L50.6515 64.8668L46.1895 60.6805L45.9159 60.9722ZM45.7439 60.2041C45.6382 60.4712 45.7064 60.7757 45.9159 60.9722L46.1895 60.6805C46.0998 60.5963 46.0706 60.4658 46.1158 60.3513L45.7439 60.2041ZM46.3948 59.7617C46.1076 59.7617 45.8496 59.9371 45.7439 60.2041L46.1158 60.3513C46.1611 60.2369 46.2717 60.1617 46.3948 60.1617V59.7617ZM48.317 59.7617H46.3948V60.1617H48.317V59.7617ZM50.2001 58.3744C49.9513 59.1782 49.2021 59.7617 48.317 59.7617V60.1617C49.3823 60.1617 50.2831 59.4592 50.5823 58.4927L50.2001 58.3744ZM50.3912 58.2336H46.3957V58.6336H50.3912V58.2336ZM46.3957 58.2336C46.1748 58.2336 45.9957 58.0545 45.9957 57.8336H45.5957C45.5957 58.2754 45.9539 58.6336 46.3957 58.6336V58.2336ZM45.9957 57.8336C45.9957 57.6127 46.1748 57.4336 46.3957 57.4336V57.0336C45.9539 57.0336 45.5957 57.3918 45.5957 57.8336H45.9957ZM46.3957 57.4336H50.4158V57.0336H46.3957V57.4336ZM48.3322 55.82C49.2389 55.8268 50.0003 56.446 50.2224 57.2848L50.6091 57.1824C50.3419 56.1735 49.4266 55.4282 48.3352 55.42L48.3322 55.82ZM46.3957 55.82H48.3337V55.42H46.3957V55.82ZM46.3468 55.8183C46.363 55.8194 46.3793 55.82 46.3957 55.82V55.42C46.3885 55.42 46.3815 55.4197 46.3745 55.4192L46.3468 55.8183ZM45.6948 55.1199C45.6948 55.4905 45.9823 55.7937 46.3468 55.8183L46.3745 55.4192C46.2186 55.4087 46.0948 55.2786 46.0948 55.1199H45.6948Z" fill="#46BE88"/>
<path d="M47.529 69.3672C47.529 69.3672 46.9584 69.8438 46.2847 69.8438C45.611 69.8438 41.2852 69.8438 41.2852 69.8438" stroke="#3D4159" stroke-width="1.5" stroke-miterlimit="10" stroke-linecap="round" stroke-linejoin="round"/>
<path d="M25.666 67.75L28.6023 68.2168V75.2899H25.666" stroke="#3D4159" stroke-width="1.5" stroke-miterlimit="10" stroke-linecap="round" stroke-linejoin="round"/>
<path d="M58.3308 68.278V68.2866C58.3275 69.1837 57.7883 69.9904 56.9603 70.3371L47.1641 74.4805C45.8739 75.0203 44.4894 75.2959 43.0917 75.2906H31.7324V68.7162L33.5027 68.9977C34.245 69.1465 34.9861 69.0409 35.5312 68.4227L37.2099 66.7242C37.8951 66.0449 38.8214 65.677 39.7862 65.6817H46.2106C47.3553 65.6856 48.2796 66.6272 48.2796 67.77V67.7773C48.2776 68.4187 47.9848 68.9898 47.5286 69.3683L55.2544 66.2115C56.7232 65.6113 58.3308 66.6923 58.3308 68.278Z" stroke="#3D4159" stroke-width="1.5" stroke-miterlimit="10" stroke-linecap="round" stroke-linejoin="round"/>
<path d="M30.7015 77.6497H29.6246C29.0564 77.6497 28.5957 77.189 28.5957 76.6208V66.8629C28.5957 66.2947 29.0563 65.834 29.6246 65.834H30.7015C31.2697 65.834 31.7304 66.2946 31.7304 66.8629V76.6208C31.7304 77.189 31.2697 77.6497 30.7015 77.6497Z" stroke="#3D4159" stroke-width="1.5" stroke-miterlimit="10" stroke-linecap="round" stroke-linejoin="round"/>
<path d="M39.2297 53.262H36.9466C36.4637 53.262 36.0723 52.8705 36.0723 52.3877V51.429C36.0723 50.9461 36.4638 50.5547 36.9466 50.5547H39.2297C39.7127 50.5547 40.1041 50.9462 40.1041 51.429V52.3876C40.1041 52.8705 39.7127 53.262 39.2297 53.262Z" stroke="#3D4159" stroke-width="1.5" stroke-miterlimit="10" stroke-linecap="round" stroke-linejoin="round"/>
<path d="M33.781 54.5026L32.1666 56.1169C31.8252 56.4584 31.2715 56.4584 30.93 56.1169L30.2522 55.4391C29.9107 55.0976 29.9107 54.544 30.2522 54.2025L31.8666 52.5882C32.208 52.2467 32.7617 52.2467 33.1032 52.5882L33.781 53.266C34.1225 53.6075 34.1225 54.1611 33.781 54.5026Z" stroke="#3D4159" stroke-width="1.5" stroke-miterlimit="10" stroke-linecap="round" stroke-linejoin="round"/>
<path d="M31.4924 59.513L31.4926 61.7959C31.4927 62.2788 31.1012 62.6703 30.6182 62.6703H29.6597C29.1769 62.6703 28.7854 62.2789 28.7854 61.796L28.7852 59.5131C28.7851 59.0302 29.1766 58.6387 29.6595 58.6387H30.618C31.1009 58.6386 31.4923 59.0301 31.4924 59.513Z" stroke="#3D4159" stroke-width="1.5" stroke-miterlimit="10" stroke-linecap="round" stroke-linejoin="round"/>
<path d="M30.1465 62.6699V65.8339" stroke="#3D4159" stroke-width="1.5" stroke-miterlimit="10" stroke-linecap="round" stroke-linejoin="round"/>
<path d="M30.1406 58.6394V56.9383C30.1406 56.51 30.3062 56.0982 30.6028 55.7891" stroke="#3D4159" stroke-width="1.5" stroke-miterlimit="10" stroke-linecap="round" stroke-linejoin="round"/>
<path d="M33.4141 52.9001L33.6575 52.6567C34.1117 52.2024 34.7279 51.9473 35.3703 51.9473H36.0774" stroke="#3D4159" stroke-width="1.5" stroke-miterlimit="10" stroke-linecap="round" stroke-linejoin="round"/>
<path d="M40.1035 51.9473H40.8451C41.2604 51.9473 41.6588 52.1123 41.9525 52.406L42.7452 53.1986" stroke="#3D4159" stroke-width="1.5" stroke-miterlimit="10" stroke-linecap="round" stroke-linejoin="round"/>
<path d="M89.3336 68.2146C89.3336 68.8282 88.8361 69.3257 88.2224 69.3257C87.6088 69.3257 87.1113 68.8282 87.1113 68.2146C87.1113 67.601 87.6088 67.1035 88.2224 67.1035C88.8361 67.1035 89.3336 67.601 89.3336 68.2146Z" fill="#3D4159"/>
<path d="M92.6635 62.6574H92.1079V59.8796C92.1068 58.9595 91.3614 58.214 90.4413 58.2129H65.9967C65.0766 58.214 64.3312 58.9595 64.3301 59.8796V75.4352C64.3312 76.3553 65.0766 77.1008 65.9967 77.1019H90.4413C91.3614 77.1008 92.1068 76.3553 92.1079 75.4352V71.5463H92.6635C93.5836 71.5452 94.3291 70.7998 94.3302 69.8796V64.3241C94.3291 63.4039 93.5836 62.6585 92.6635 62.6574ZM90.9968 75.4352C90.9965 75.7417 90.7478 75.9905 90.4413 75.9908H65.9967C65.6902 75.9905 65.4415 75.7417 65.4412 75.4352V59.8796C65.4415 59.5731 65.6902 59.3243 65.9967 59.3241H90.4413C90.7478 59.3243 90.9965 59.5731 90.9968 59.8796V64.8796H86.5524C85.6322 64.8807 84.8868 65.6262 84.8857 66.5463V69.8796C84.8868 70.7998 85.6322 71.5452 86.5524 71.5463H90.9968V75.4352ZM93.219 69.8796C93.2188 70.1862 92.97 70.4349 92.6635 70.4352H86.5524C86.2458 70.4349 85.9971 70.1862 85.9968 69.8796V66.5463C85.9971 66.2398 86.2458 65.991 86.5524 65.9907H93.219V69.8796ZM92.1079 64.8796V63.7685H92.6635C92.97 63.7688 93.2188 64.0175 93.219 64.3241V64.8796H92.1079Z" fill="#3D4159"/>
<path d="M80.4451 48.1697C82.1481 47.9213 83.4857 46.5836 83.7342 44.8806H86.0449C86.2934 46.5836 87.631 47.9213 89.334 48.1697V57.1029H90.4451V45.4362C90.444 44.516 89.6986 43.7706 88.7785 43.7695H81.0007C80.0805 43.7706 79.3351 44.516 79.334 45.4362V57.1029H80.4451V48.1697ZM88.7785 44.8806C89.085 44.8809 89.3337 45.1296 89.334 45.4362V47.047C88.2441 46.8224 87.3923 45.9706 87.1677 44.8806H88.7785ZM80.4451 45.4362C80.4454 45.1296 80.6941 44.8809 81.0007 44.8806H82.6114C82.3868 45.9706 81.5351 46.8224 80.4451 47.047V45.4362Z" fill="#46BE88"/>
<path d="M81.5527 52.6595C81.5527 54.5003 83.0453 55.9928 84.8861 55.9928C86.7269 55.9928 88.2194 54.5003 88.2194 52.6595C88.2194 50.8187 86.7269 49.3262 84.8861 49.3262C83.0461 49.3281 81.5546 50.8195 81.5527 52.6595ZM87.1083 52.6595C87.1083 53.8867 86.1133 54.8817 84.8861 54.8817C83.6589 54.8817 82.6638 53.8867 82.6638 52.6595C82.6638 51.4323 83.6589 50.4373 84.8861 50.4373C86.1128 50.4386 87.1069 51.4328 87.1083 52.6595Z" fill="#46BE88"/>
<path d="M73.7752 51.5037C75.4782 51.2552 76.8158 49.9176 77.0643 48.2146H78.2196V47.1035H74.3307C73.4106 47.1045 72.6651 47.85 72.6641 48.7701V57.1035H73.7752V51.5037ZM73.7752 48.7701C73.7754 48.4636 74.0242 48.2148 74.3307 48.2146H75.9415C75.7169 49.3045 74.8651 50.1563 73.7752 50.3809V48.7701Z" fill="#46BE88"/>
<path d="M67.1053 54.8358C68.8083 54.5873 70.1459 53.2497 70.3944 51.5467H71.5497V50.4355H67.6608C66.7407 50.4366 65.9952 51.1821 65.9941 52.1022V57.1022H67.1053V54.8358ZM67.1053 52.1022C67.1055 51.7957 67.3543 51.5469 67.6608 51.5467H69.2716C69.047 52.6366 68.1952 53.4884 67.1053 53.713V52.1022Z" fill="#46BE88"/>
<path d="M74.8828 57.1028H75.9939C75.9953 55.8762 76.9895 54.882 78.2162 54.8806V53.7695C76.3761 53.7714 74.8847 55.2628 74.8828 57.1028Z" fill="#46BE88"/>
</g>
<defs>
<clipPath id="clip0_781_33637">
<rect width="120" height="120" fill="white" transform="translate(0 0.769531)"/>
</clipPath>
</defs>
</svg>
