<svg width="120" height="121" viewBox="0 0 120 121" fill="none" xmlns="http://www.w3.org/2000/svg">
<g clip-path="url(#clip0_781_33630)">
<path d="M60 120.77C93.1371 120.77 120 93.9066 120 60.7695C120 27.6324 93.1371 0.769531 60 0.769531C26.8629 0.769531 0 27.6324 0 60.7695C0 93.9066 26.8629 120.77 60 120.77Z" fill="white"/>
<path d="M58.4455 73.83C53.3832 80.1345 46.2457 80.0719 43.1022 79.2056C42.9906 79.1749 42.9115 79.0811 42.8939 78.9667L41.0933 67.263C41.0825 67.1926 41.097 67.1207 41.1343 67.0601L48.399 55.255C48.4389 55.1901 48.5021 55.1429 48.5756 55.1228L58.4973 52.4169C58.5728 52.3963 58.6372 52.347 58.6769 52.2796L67.7179 36.9098C67.7918 36.7842 67.9454 36.7298 68.0819 36.781L74.9775 39.3669C75.1213 39.4208 75.2825 39.3575 75.3512 39.2201L76.9271 36.0683C77.0069 35.9087 77.2075 35.8536 77.3577 35.9501L89.7653 43.9264C89.8974 44.0114 89.9417 44.1839 89.8667 44.3219L72.5885 76.1503C72.5159 76.284 72.3547 76.3422 72.2134 76.2857L68.1021 74.6411C67.9572 74.5832 67.7921 74.646 67.7223 74.7855L66.1472 77.9358C66.0681 78.0941 65.8699 78.1498 65.7198 78.0561L58.8446 73.759C58.7142 73.6775 58.5418 73.7101 58.4455 73.83Z" fill="white"/>
<path d="M52.1543 61.6152L54.0005 63.4614" stroke="#3D4159" stroke-width="1.2" stroke-linecap="round" stroke-linejoin="round"/>
<path d="M43.8457 80.0776C46.9226 80.3853 54.1842 79.7083 58.6149 74.5391L66.9226 64.3853C67.8457 63.1545 69.138 60.3237 66.9226 58.8468C65.9996 58.2314 63.4149 57.9237 60.4611 61.616C59.2303 63.1545 56.2149 65.6775 53.9995 63.4621" stroke="#3D4159" stroke-width="1.5" stroke-linecap="round" stroke-linejoin="round"/>
<path d="M41.0762 67.154L48.416 55.2269C48.4453 55.1792 48.4874 55.1408 48.5374 55.1158L53.9993 52.3848" stroke="#3D4159" stroke-width="1.5" stroke-linecap="round" stroke-linejoin="round"/>
<path d="M30.7949 68.5968L38.9431 66.4473C39.664 66.2571 40.4026 66.6873 40.5928 67.4082L44.2817 81.3914C44.4719 82.1123 44.0416 82.8509 43.3207 83.0411L35.1725 85.1906L30.7949 68.5968Z" fill="white" stroke="#3D4159" stroke-width="1.3"/>
<path d="M54 59.7704L67.6924 36.0369C67.7767 35.8908 67.9648 35.8429 68.1087 35.9308L84.213 45.7723C84.3514 45.857 84.3975 46.0363 84.317 46.1772L66.152 77.9659C66.0686 78.1119 65.8814 78.1608 65.7372 78.0743L61.3846 75.4627" stroke="#46BE88" stroke-width="1.5" stroke-linecap="round" stroke-linejoin="round"/>
<path d="M77.0768 35.7695L89.7655 43.9265C89.8976 44.0115 89.9419 44.184 89.8669 44.322L72.5998 76.13C72.5226 76.2721 72.3466 76.3275 72.202 76.2552L70.6152 75.4618" stroke="#46BE88" stroke-width="1.5" stroke-linecap="round" stroke-linejoin="round"/>
<path d="M77.4747 48.0115C77.6833 47.6641 77.5549 47.2038 77.188 46.9835L71.4775 43.5553C71.1106 43.335 70.644 43.4381 70.4354 43.7855C70.2268 44.1329 70.3552 44.5932 70.7222 44.8135L72.3566 45.7947C73.106 46.2446 73.5123 47.0234 73.3987 47.811L70.1084 45.8357C69.7415 45.6155 69.2749 45.7185 69.0663 46.0659C68.8578 46.4134 68.9862 46.8736 69.3531 47.0939L72.6453 49.0704C72.4296 49.2422 72.1739 49.3616 71.8981 49.4196C71.3717 49.5436 70.8064 49.4561 70.3266 49.1761L68.6922 48.1948C68.4239 48.0279 68.0857 48.0347 67.8414 48.2115C67.5973 48.3887 67.4978 48.6993 67.5914 48.9932L69.4832 55.0976C69.6075 55.4965 70.0352 55.7374 70.4393 55.6356C70.8433 55.5339 71.0702 55.1281 70.9461 54.7289L69.6175 50.4373C71.0869 51.2877 72.9157 51.0659 74.0306 49.902L75.0636 50.5222C75.4305 50.7424 75.8971 50.6394 76.1056 50.292C76.3142 49.9445 76.1858 49.4843 75.8189 49.264L74.7853 48.6435C74.9199 48.2215 74.9613 47.7725 74.9062 47.3253L76.4326 48.2417C76.7995 48.462 77.2661 48.3589 77.4747 48.0115Z" fill="#46BE88"/>
</g>
<defs>
<clipPath id="clip0_781_33630">
<rect width="120" height="120" fill="white" transform="translate(0 0.769531)"/>
</clipPath>
</defs>
</svg>
