<svg width="120" height="121" viewBox="0 0 120 121" fill="none" xmlns="http://www.w3.org/2000/svg">
<g clip-path="url(#clip0_781_33600)">
<path d="M60 120.77C93.1371 120.77 120 93.9066 120 60.7695C120 27.6324 93.1371 0.769531 60 0.769531C26.8629 0.769531 0 27.6324 0 60.7695C0 93.9066 26.8629 120.77 60 120.77Z" fill="white"/>
<path d="M85 36.7695H80V34.7695C80 33.7086 79.5786 32.6912 78.8284 31.9411C78.0783 31.1909 77.0609 30.7695 76 30.7695C74.9391 30.7695 73.9217 31.1909 73.1716 31.9411C72.4214 32.6912 72 33.7086 72 34.7695V36.7695H64V34.7695C64 33.7086 63.5786 32.6912 62.8284 31.9411C62.0783 31.1909 61.0609 30.7695 60 30.7695C58.9391 30.7695 57.9217 31.1909 57.1716 31.9411C56.4214 32.6912 56 33.7086 56 34.7695V36.7695H48V34.7695C48 33.7086 47.5786 32.6912 46.8284 31.9411C46.0783 31.1909 45.0609 30.7695 44 30.7695C42.9391 30.7695 41.9217 31.1909 41.1716 31.9411C40.4214 32.6912 40 33.7086 40 34.7695V36.7695H35C33.6739 36.7695 32.4021 37.2963 31.4645 38.234C30.5268 39.1716 30 40.4434 30 41.7695V81.7695C30 83.0956 30.5268 84.3673 31.4645 85.305C32.4021 86.2427 33.6739 86.7695 35 86.7695H63C63.2652 86.7695 63.5196 86.6641 63.7071 86.4766C63.8946 86.2891 64 86.0347 64 85.7695C64 85.5043 63.8946 85.2499 63.7071 85.0624C63.5196 84.8748 63.2652 84.7695 63 84.7695H35C34.2051 84.7671 33.4434 84.4503 32.8813 83.8882C32.3192 83.3261 32.0024 82.5644 32 81.7695V50.7695H88V67.7695C88 68.0347 88.1053 68.2891 88.2929 68.4766C88.4804 68.6641 88.7348 68.7695 89 68.7695C89.2652 68.7695 89.5196 68.6641 89.7071 68.4766C89.8946 68.2891 90 68.0347 90 67.7695V41.7695C90 40.4434 89.4732 39.1716 88.5355 38.234C87.5978 37.2963 86.3261 36.7695 85 36.7695ZM74 34.7695C74 34.2391 74.2107 33.7304 74.5858 33.3553C74.9609 32.9802 75.4696 32.7695 76 32.7695C76.5304 32.7695 77.0391 32.9802 77.4142 33.3553C77.7893 33.7304 78 34.2391 78 34.7695V40.7695C78 41.2999 77.7893 41.8086 77.4142 42.1837C77.0391 42.5588 76.5304 42.7695 76 42.7695C75.4696 42.7695 74.9609 42.5588 74.5858 42.1837C74.2107 41.8086 74 41.2999 74 40.7695V34.7695ZM58 34.7695C58 34.2391 58.2107 33.7304 58.5858 33.3553C58.9609 32.9802 59.4696 32.7695 60 32.7695C60.5304 32.7695 61.0391 32.9802 61.4142 33.3553C61.7893 33.7304 62 34.2391 62 34.7695V40.7695C62 41.2999 61.7893 41.8086 61.4142 42.1837C61.0391 42.5588 60.5304 42.7695 60 42.7695C59.4696 42.7695 58.9609 42.5588 58.5858 42.1837C58.2107 41.8086 58 41.2999 58 40.7695V34.7695ZM42 34.7695C42 34.2391 42.2107 33.7304 42.5858 33.3553C42.9609 32.9802 43.4696 32.7695 44 32.7695C44.5304 32.7695 45.0391 32.9802 45.4142 33.3553C45.7893 33.7304 46 34.2391 46 34.7695V40.7695C46 41.2999 45.7893 41.8086 45.4142 42.1837C45.0391 42.5588 44.5304 42.7695 44 42.7695C43.4696 42.7695 42.9609 42.5588 42.5858 42.1837C42.2107 41.8086 42 41.2999 42 40.7695V34.7695ZM88 48.7695H32V41.7695C32.0024 40.9746 32.3192 40.2129 32.8813 39.6508C33.4434 39.0887 34.2051 38.7719 35 38.7695H40V40.7695C40 41.8304 40.4214 42.8478 41.1716 43.5979C41.9217 44.3481 42.9391 44.7695 44 44.7695C45.0609 44.7695 46.0783 44.3481 46.8284 43.5979C47.5786 42.8478 48 41.8304 48 40.7695V38.7695H56V40.7695C56 41.8304 56.4214 42.8478 57.1716 43.5979C57.9217 44.3481 58.9391 44.7695 60 44.7695C61.0609 44.7695 62.0783 44.3481 62.8284 43.5979C63.5786 42.8478 64 41.8304 64 40.7695V38.7695H72V40.7695C72 41.8304 72.4214 42.8478 73.1716 43.5979C73.9217 44.3481 74.9391 44.7695 76 44.7695C77.0609 44.7695 78.0783 44.3481 78.8284 43.5979C79.5786 42.8478 80 41.8304 80 40.7695V38.7695H85C85.7949 38.7719 86.5566 39.0887 87.1187 39.6508C87.6808 40.2129 87.9976 40.9746 88 41.7695V48.7695Z" fill="#3D4159"/>
<path d="M58 57.7695C58 57.2391 57.7893 56.7304 57.4142 56.3553C57.0391 55.9802 56.5304 55.7695 56 55.7695H52C51.4696 55.7695 50.9609 55.9802 50.5858 56.3553C50.2107 56.7304 50 57.2391 50 57.7695V60.7695C50 61.2999 50.2107 61.8086 50.5858 62.1837C50.9609 62.5588 51.4696 62.7695 52 62.7695H56C56.5304 62.7695 57.0391 62.5588 57.4142 62.1837C57.7893 61.8086 58 61.2999 58 60.7695V57.7695ZM52 60.7695V57.7695H56V60.7695H52Z" fill="#3D4159"/>
<path d="M46 57.7695C46 57.2391 45.7893 56.7304 45.4142 56.3553C45.0391 55.9802 44.5304 55.7695 44 55.7695H40C39.4696 55.7695 38.9609 55.9802 38.5858 56.3553C38.2107 56.7304 38 57.2391 38 57.7695V60.7695C38 61.2999 38.2107 61.8086 38.5858 62.1837C38.9609 62.5588 39.4696 62.7695 40 62.7695H44C44.5304 62.7695 45.0391 62.5588 45.4142 62.1837C45.7893 61.8086 46 61.2999 46 60.7695V57.7695ZM40 60.7695V57.7695H44V60.7695H40Z" fill="#3D4159"/>
<path d="M80 62.7695C80.5304 62.7695 81.0391 62.5588 81.4142 62.1837C81.7893 61.8086 82 61.2999 82 60.7695V57.7695C82 57.2391 81.7893 56.7304 81.4142 56.3553C81.0391 55.9802 80.5304 55.7695 80 55.7695H76C75.4696 55.7695 74.9609 55.9802 74.5858 56.3553C74.2107 56.7304 74 57.2391 74 57.7695V60.7695C74 61.2999 74.2107 61.8086 74.5858 62.1837C74.9609 62.5588 75.4696 62.7695 76 62.7695H80ZM76 57.7695H80V60.7695H76V57.7695Z" fill="#3D4159"/>
<path d="M58 66.7695C58 66.2391 57.7893 65.7304 57.4142 65.3553C57.0391 64.9802 56.5304 64.7695 56 64.7695H52C51.4696 64.7695 50.9609 64.9802 50.5858 65.3553C50.2107 65.7304 50 66.2391 50 66.7695V69.7695C50 70.2999 50.2107 70.8086 50.5858 71.1837C50.9609 71.5588 51.4696 71.7695 52 71.7695H56C56.5304 71.7695 57.0391 71.5588 57.4142 71.1837C57.7893 70.8086 58 70.2999 58 69.7695V66.7695ZM52 69.7695V66.7695H56V69.7695H52Z" fill="#3D4159"/>
<path d="M46 66.7695C46 66.2391 45.7893 65.7304 45.4142 65.3553C45.0391 64.9802 44.5304 64.7695 44 64.7695H40C39.4696 64.7695 38.9609 64.9802 38.5858 65.3553C38.2107 65.7304 38 66.2391 38 66.7695V69.7695C38 70.2999 38.2107 70.8086 38.5858 71.1837C38.9609 71.5588 39.4696 71.7695 40 71.7695H44C44.5304 71.7695 45.0391 71.5588 45.4142 71.1837C45.7893 70.8086 46 70.2999 46 69.7695V66.7695ZM40 69.7695V66.7695H44V69.7695H40Z" fill="#3D4159"/>
<path d="M56 73.7695H52C51.4696 73.7695 50.9609 73.9802 50.5858 74.3553C50.2107 74.7304 50 75.2391 50 75.7695V78.7695C50 79.2999 50.2107 79.8086 50.5858 80.1837C50.9609 80.5588 51.4696 80.7695 52 80.7695H56C56.5304 80.7695 57.0391 80.5588 57.4142 80.1837C57.7893 79.8086 58 79.2999 58 78.7695V75.7695C58 75.2391 57.7893 74.7304 57.4142 74.3553C57.0391 73.9802 56.5304 73.7695 56 73.7695ZM52 78.7695V75.7695H56V78.7695H52Z" fill="#3D4159"/>
<path d="M64 62.7695H68C68.5304 62.7695 69.0391 62.5588 69.4142 62.1837C69.7893 61.8086 70 61.2999 70 60.7695V57.7695C70 57.2391 69.7893 56.7304 69.4142 56.3553C69.0391 55.9802 68.5304 55.7695 68 55.7695H64C63.4696 55.7695 62.9609 55.9802 62.5858 56.3553C62.2107 56.7304 62 57.2391 62 57.7695V60.7695C62 61.2999 62.2107 61.8086 62.5858 62.1837C62.9609 62.5588 63.4696 62.7695 64 62.7695ZM64 57.7695H68V60.7695H64V57.7695Z" fill="#3D4159"/>
<path d="M62 69.7695C62 70.2999 62.2107 70.8086 62.5858 71.1837C62.9609 71.5588 63.4696 71.7695 64 71.7695C64.2652 71.7695 64.5196 71.6641 64.7071 71.4766C64.8946 71.2891 65 71.0347 65 70.7695C65 70.5043 64.8946 70.2499 64.7071 70.0624C64.5196 69.8749 64.2652 69.7695 64 69.7695V66.7695H68C68.2652 66.7695 68.5196 66.6641 68.7071 66.4766C68.8946 66.2891 69 66.0347 69 65.7695C69 65.5043 68.8946 65.2499 68.7071 65.0624C68.5196 64.8749 68.2652 64.7695 68 64.7695H64C63.4696 64.7695 62.9609 64.9802 62.5858 65.3553C62.2107 65.7304 62 66.2391 62 66.7695V69.7695Z" fill="#3D4159"/>
<path d="M44 73.7695H40C39.4696 73.7695 38.9609 73.9802 38.5858 74.3553C38.2107 74.7304 38 75.2391 38 75.7695V78.7695C38 79.2999 38.2107 79.8086 38.5858 80.1837C38.9609 80.5588 39.4696 80.7695 40 80.7695H44C44.5304 80.7695 45.0391 80.5588 45.4142 80.1837C45.7893 79.8086 46 79.2999 46 78.7695V75.7695C46 75.2391 45.7893 74.7304 45.4142 74.3553C45.0391 73.9802 44.5304 73.7695 44 73.7695ZM40 78.7695V75.7695H44V78.7695H40Z" fill="#3D4159"/>
<path d="M77 64.7695C74.4288 64.7695 71.9154 65.5319 69.7776 66.9604C67.6398 68.3889 65.9735 70.4192 64.9896 72.7946C64.0056 75.1701 63.7482 77.7839 64.2498 80.3057C64.7514 82.8274 65.9895 85.1438 67.8076 86.9619C69.6257 88.78 71.9421 90.0181 74.4638 90.5197C76.9856 91.0213 79.5994 90.7639 81.9749 89.7799C84.3503 88.796 86.3806 87.1297 87.8091 84.9919C89.2376 82.8541 90 80.3407 90 77.7695C89.996 74.3229 88.6251 71.0186 86.188 68.5815C83.7509 66.1444 80.4466 64.7735 77 64.7695Z" fill="#46BE88"/>
<path d="M77.9572 86.7134C81.9692 86.264 85.1845 83.0569 85.6421 79.0449C86.2427 73.7991 82.1653 69.3336 77.0543 69.2764V66.9231C77.0543 66.7924 76.8909 66.7229 76.7806 66.8047L71.9352 70.3632C71.8535 70.4244 71.8535 70.5429 71.9352 70.6042L76.7806 74.1627C76.8909 74.2444 77.0543 74.1709 77.0543 74.0442V71.695C80.6455 71.7522 83.5217 74.8082 83.2766 78.4607C83.0682 81.6024 80.5066 84.1518 77.3648 84.352C74.0351 84.5644 71.2039 82.1867 70.6973 79.0408C70.6033 78.4566 70.0926 78.0317 69.5043 78.0317C68.773 78.0317 68.201 78.6813 68.3154 79.4044C69.0263 83.8862 73.1649 87.2486 77.9572 86.7134Z" fill="white"/>
</g>
<defs>
<clipPath id="clip0_781_33600">
<rect width="120" height="120" fill="white" transform="translate(0 0.769531)"/>
</clipPath>
</defs>
</svg>
