<svg width="120" height="121" viewBox="0 0 120 121" fill="none" xmlns="http://www.w3.org/2000/svg">
<g clip-path="url(#clip0_781_33593)">
<path d="M60 120.77C93.1371 120.77 120 93.9066 120 60.7695C120 27.6324 93.1371 0.769531 60 0.769531C26.8629 0.769531 0 27.6324 0 60.7695C0 93.9066 26.8629 120.77 60 120.77Z" fill="white"/>
<path fill-rule="evenodd" clip-rule="evenodd" d="M76.7352 56.3018C77.2234 55.8136 77.2234 55.0223 76.7352 54.5342C76.2473 54.0461 75.4559 54.0461 74.9677 54.5342L64.2549 65.2471C63.7667 65.7352 63.7667 66.5266 64.2549 67.0146C64.7431 67.5027 65.5342 67.5027 66.0224 67.0146L76.7352 56.3018ZM70.1379 56.8464C70.1379 58.8187 68.5393 60.4172 66.5671 60.4172C64.5949 60.4172 62.9961 58.8187 62.9961 56.8464C62.9961 54.8742 64.5949 53.2754 66.5671 53.2754C68.5393 53.2754 70.1379 54.8742 70.1379 56.8464ZM77.9941 64.7024C77.9941 66.6746 76.3953 68.2734 74.423 68.2734C72.4511 68.2734 70.8523 66.6746 70.8523 64.7024C70.8523 62.7301 72.4511 61.1316 74.423 61.1316C76.3953 61.1316 77.9941 62.7301 77.9941 64.7024ZM67.6382 56.8464C67.6382 57.4381 67.1588 57.9175 66.5671 57.9175C65.9754 57.9175 65.4958 57.4381 65.4958 56.8464C65.4958 56.2548 65.9754 55.7751 66.5671 55.7751C67.1588 55.7751 67.6382 56.2548 67.6382 56.8464ZM74.423 65.7737C75.0147 65.7737 75.4944 65.294 75.4944 64.7024C75.4944 64.1107 75.0147 63.6313 74.423 63.6313C73.8316 63.6313 73.3519 64.1107 73.3519 64.7024C73.3519 65.294 73.8316 65.7737 74.423 65.7737Z" fill="#46BE88"/>
<path fill-rule="evenodd" clip-rule="evenodd" d="M50.1235 30.7695C46.6721 30.7695 43.8743 33.5673 43.8743 37.0186V58.3911H39.2609C34.0247 58.3911 31.1103 64.4448 34.3761 68.538L50.238 88.4178C52.7397 91.5534 57.5057 91.5534 60.0076 88.4178L68.2202 78.1247C68.9649 78.2215 69.724 78.2712 70.4949 78.2712C80.1586 78.2712 87.9925 70.4373 87.9925 60.7736C87.9925 51.1099 80.1586 43.2759 70.4949 43.2759C69.0744 43.2759 67.6935 43.4452 66.3712 43.7647V37.0186C66.3712 33.5673 63.5734 30.7695 60.1221 30.7695H50.1235ZM50.1235 33.2692C48.0527 33.2692 46.374 34.9479 46.374 37.0186V59.641C46.374 60.3314 45.8144 60.8908 45.1241 60.8908H39.2609C36.1192 60.8908 34.3705 64.5231 36.33 66.979L52.1919 86.8588C53.693 88.7403 56.5526 88.7403 58.0536 86.8588L65.4861 77.5438C58.2633 75.3896 52.9973 68.6965 52.9973 60.7736C52.9973 53.4539 57.4917 47.1839 63.8716 44.573V37.0186C63.8716 34.9479 62.1928 33.2692 60.1221 33.2692H50.1235ZM70.4949 75.7715C78.778 75.7715 85.4929 69.0567 85.4929 60.7736C85.4929 52.4904 78.778 45.7756 70.4949 45.7756C69.0649 45.7756 67.6813 45.9758 66.3712 46.3496C65.5033 46.5973 64.6675 46.9212 63.8716 47.3136C58.9102 49.7596 55.4969 54.868 55.4969 60.7736C55.4969 67.9216 60.4975 73.9018 67.1914 75.4066C68.1312 75.6178 69.1044 75.7408 70.102 75.7665C70.2324 75.7698 70.3634 75.7715 70.4949 75.7715Z" fill="#3D4159"/>
</g>
<defs>
<clipPath id="clip0_781_33593">
<rect width="120" height="120" fill="white" transform="translate(0 0.769531)"/>
</clipPath>
</defs>
</svg>
