<svg width="120" height="121" viewBox="0 0 120 121" fill="none" xmlns="http://www.w3.org/2000/svg">
<g clip-path="url(#clip0_781_33607)">
<path d="M60 120.77C93.1371 120.77 120 93.9066 120 60.7695C120 27.6324 93.1371 0.769531 60 0.769531C26.8629 0.769531 0 27.6324 0 60.7695C0 93.9066 26.8629 120.77 60 120.77Z" fill="white"/>
<path fill-rule="evenodd" clip-rule="evenodd" d="M52.1167 33.0037C53.2876 31.9758 54.6619 30.7695 56.5714 30.7695C58.479 30.7695 59.8502 31.9732 61.0203 33.0004L61.0392 33.017C62.2134 34.0477 63.2419 34.9181 64.2305 35.0678C65.208 35.2157 67.1201 34.219 68.9577 33.2451C69.8766 32.7581 70.7801 32.2957 71.7723 32.1485C72.7646 32.0014 73.9913 32.4046 74.6225 33.4167C75.5363 34.882 75.1361 36.6217 74.3002 38.0602C73.4643 39.4988 72.1735 40.8481 70.8223 42.0614C69.4251 43.3159 68.6425 43.8313 67.8003 44.3859C67.6087 44.5121 67.414 44.6403 67.2083 44.7797C68.4355 45.2337 69.4286 46.2035 69.4286 47.5796C69.4286 48.7875 68.6381 49.6488 67.6415 50.1975C71.0148 52.3904 73.8363 55.8772 75.9408 59.8864C76.7728 61.4712 77.4967 63.1314 78.0984 64.8191C77.7367 64.7863 77.3703 64.7695 77 64.7695C76.5997 64.7695 76.204 64.7891 75.8138 64.8274C75.3031 63.4771 74.7107 62.1508 74.0449 60.8825C71.5829 56.1923 68.115 52.3481 64.2912 50.7939H48.8496C45.0258 52.3481 41.56 56.1923 39.0979 60.8825C36.6068 65.628 35.1429 71.1861 35.1429 75.7695C35.1429 81.6932 37.3441 84.6368 41.1194 86.4252C44.8947 88.2136 50.4014 88.6266 56.5714 88.6266C62.0492 88.6266 67.0025 88.3011 70.6869 86.9766C71.4978 87.4792 72.3731 87.8879 73.2976 88.1875C73.1796 88.2474 73.0604 88.3059 72.94 88.363C68.5719 90.4322 62.8278 90.7695 56.5714 90.7695C50.3151 90.7695 44.5709 90.4322 40.2028 88.363C35.8348 86.2937 33 82.2722 33 75.7695C33 70.7378 34.5521 64.9305 37.1999 59.8864C39.3045 55.8771 42.1279 52.3904 45.5014 50.1975C44.5047 49.6488 43.7143 48.7875 43.7143 47.5796C43.7143 46.2035 44.7074 45.2337 45.9346 44.7797C45.7273 44.6392 45.5311 44.5101 45.3379 44.383C44.497 43.8296 43.7134 43.3139 42.3185 42.0614C40.9673 40.8481 39.6764 39.4988 38.8405 38.0602C38.0046 36.6217 37.6045 34.882 38.5183 33.4167C39.1494 32.4046 40.3762 32.0014 41.3684 32.1485C42.3607 32.2957 43.2642 32.7581 44.183 33.2451C46.0207 34.219 47.9328 35.2157 48.9103 35.0678C49.8989 34.9181 50.9273 34.0477 52.1016 33.017L52.1167 33.0037ZM59.6267 34.6283C58.4825 33.6239 57.533 32.9124 56.5714 32.9124C55.6099 32.9124 54.6604 33.6239 53.5162 34.6283C53.4163 34.716 53.3154 34.8057 53.2131 34.8966C52.1436 35.8471 50.9266 36.9288 49.2305 37.1855C47.3247 37.474 45.5872 36.4907 44.0549 35.6235C43.7556 35.4541 43.4641 35.2891 43.1807 35.1389C42.3135 34.6793 41.525 34.3381 41.0546 34.2684C41.0218 34.2635 40.9913 34.2589 40.9629 34.2545C40.582 34.1961 40.5601 34.1928 40.3368 34.5509C39.9577 35.1588 40.0548 35.8871 40.6925 36.9846C41.3303 38.0821 42.4897 39.3353 43.7499 40.4668C46.1295 42.6035 48.6335 44.1769 48.9205 44.3573L48.9333 44.3653H64.2095L64.2212 44.358C64.5025 44.1812 67.008 42.6064 69.3909 40.4668C70.651 39.3353 71.8105 38.0821 72.4482 36.9846C73.086 35.8871 73.1831 35.1588 72.804 34.5509C72.5807 34.1928 72.5588 34.1961 72.1779 34.2545C72.1494 34.2589 72.1189 34.2635 72.0862 34.2684C71.6158 34.3381 70.8293 34.6793 69.9622 35.1389C69.6793 35.2888 69.3884 35.4535 69.0896 35.6225C67.5563 36.49 65.8168 37.4741 63.9103 37.1855C62.2159 36.929 61.0013 35.8493 59.9329 34.8994C59.8296 34.8076 59.7276 34.7169 59.6267 34.6283ZM66.2143 46.5082H46.9286C46.3165 46.5082 45.8571 46.9675 45.8571 47.5796C45.8571 48.1917 46.3165 48.6511 46.9286 48.6511H66.2143C66.8264 48.6511 67.2857 48.1917 67.2857 47.5796C67.2857 46.9675 66.8264 46.5082 66.2143 46.5082Z" fill="#3D4159"/>
<path fill-rule="evenodd" clip-rule="evenodd" d="M59.3511 66.6632C59.2015 65.2142 58.4415 63.9463 57.3326 63.1211H61.1466C61.4227 63.1211 61.6466 62.8972 61.6466 62.6211C61.6466 62.3449 61.4227 62.1211 61.1466 62.1211H51.0219C50.9697 62.1211 50.9194 62.1291 50.8721 62.1439C50.6689 62.2074 50.5215 62.3971 50.5215 62.6212C50.5215 62.8973 50.7453 63.1212 51.0215 63.1212H54.3095C56.3781 63.1212 58.0861 64.6649 58.3443 66.6632H51.0219C50.6905 66.6632 50.4219 66.9319 50.4219 67.2632C50.4219 67.5946 50.6905 67.8632 51.0219 67.8632H58.3226C58.0017 69.7898 56.3271 71.2584 54.3095 71.2584H51.0215C50.8163 71.2584 50.632 71.3837 50.5566 71.5744C50.4811 71.7652 50.5298 71.9827 50.6794 72.123L58.3116 79.2837C58.513 79.4727 58.8294 79.4626 59.0184 79.2612C59.2073 79.0598 59.1972 78.7434 58.9958 78.5544L52.2852 72.2584H54.3095C56.8805 72.2584 59.0044 70.3442 59.3338 67.8632H61.1466C61.4779 67.8632 61.7466 67.5946 61.7466 67.2632C61.7466 66.9319 61.4779 66.6632 61.1466 66.6632H59.3511Z" fill="#46BE88"/>
<path d="M57.3326 63.1211V62.6211C57.1171 62.6211 56.9258 62.7592 56.858 62.9638C56.7902 63.1685 56.8612 63.3935 57.0341 63.5222L57.3326 63.1211ZM59.3511 66.6632L58.8537 66.7146C58.88 66.9695 59.0948 67.1632 59.3511 67.1632V66.6632ZM58.3443 66.6632V67.1632C58.4881 67.1632 58.6249 67.1013 58.7199 66.9933C58.8148 66.8854 58.8586 66.7417 58.8402 66.5991L58.3443 66.6632ZM58.3226 67.8632L58.8158 67.9454C58.84 67.8004 58.7991 67.6522 58.7041 67.54C58.6091 67.4279 58.4696 67.3632 58.3226 67.3632V67.8632ZM52.2852 72.2584V71.7584C52.08 71.7584 51.8957 71.8837 51.8202 72.0744C51.7448 72.2652 51.7935 72.4827 51.9431 72.623L52.2852 72.2584ZM59.3338 67.8632V67.3632C59.083 67.3632 58.8711 67.5489 58.8381 67.7974L59.3338 67.8632ZM57.0341 63.5222C58.0347 64.2669 58.719 65.4098 58.8537 66.7146L59.8484 66.6119C59.684 65.0187 58.8483 63.6258 57.6312 62.72L57.0341 63.5222ZM61.1466 62.6211H57.3326V63.6211H61.1466V62.6211ZM61.1466 62.6211V63.6211C61.6988 63.6211 62.1466 63.1734 62.1466 62.6211H61.1466ZM61.1466 62.6211H62.1466C62.1466 62.0688 61.6988 61.6211 61.1466 61.6211V62.6211ZM51.0213 62.6211H61.1466V61.6211H51.0219L51.0213 62.6211ZM51.0213 62.6211L51.0219 61.6211C50.9184 61.6211 50.8177 61.637 50.7225 61.6668L51.0213 62.6211ZM51.0213 62.6211L50.7225 61.6668C50.3166 61.7937 50.0215 62.1722 50.0215 62.6212L51.0213 62.6211ZM51.0213 62.6211L50.0215 62.6212C50.0215 63.1735 50.4692 63.6212 51.0215 63.6212L51.0213 62.6211ZM54.3095 62.6212L51.0213 62.6211L51.0215 63.6212H54.3095V62.6212ZM58.8402 66.5991C58.5502 64.3548 56.6327 62.6212 54.3095 62.6212V63.6212C56.1235 63.6212 57.622 64.9751 57.8485 66.7273L58.8402 66.5991ZM51.0219 67.1632H58.3443V66.1632H51.0219V67.1632ZM50.9219 67.2632C50.9219 67.208 50.9666 67.1632 51.0219 67.1632V66.1632C50.4144 66.1632 49.9219 66.6557 49.9219 67.2632H50.9219ZM51.0219 67.3632C50.9666 67.3632 50.9219 67.3185 50.9219 67.2632H49.9219C49.9219 67.8707 50.4144 68.3632 51.0219 68.3632V67.3632ZM58.3226 67.3632H51.0219V68.3632H58.3226V67.3632ZM54.3095 71.7584C56.5756 71.7584 58.4554 70.1091 58.8158 67.9454L57.8294 67.7811C57.548 69.4705 56.0787 70.7584 54.3095 70.7584V71.7584ZM51.0215 71.7584H54.3095V70.7584H51.0215V71.7584ZM51.0215 71.7584V70.7584C50.6112 70.7584 50.2426 71.009 50.0916 71.3905L51.0215 71.7584ZM51.0215 71.7584L50.0916 71.3905C49.9407 71.772 50.0381 72.207 50.3373 72.4877L51.0215 71.7584ZM58.6537 78.9191L51.0215 71.7584L50.3373 72.4877L57.9695 79.6484L58.6537 78.9191ZM58.6537 78.9191L57.9695 79.6484C58.3723 80.0262 59.0051 80.0061 59.383 79.6033L58.6537 78.9191ZM58.6537 78.9191L59.383 79.6033C59.7609 79.2005 59.7407 78.5677 59.3379 78.1898L58.6537 78.9191ZM51.9431 72.623L58.6537 78.9191L59.3379 78.1898L52.6273 71.8938L51.9431 72.623ZM54.3095 71.7584H52.2852V72.7584H54.3095V71.7584ZM58.8381 67.7974C58.5413 70.0331 56.6265 71.7584 54.3095 71.7584V72.7584C57.1345 72.7584 59.4675 70.6552 59.8294 67.929L58.8381 67.7974ZM61.1466 67.3632H59.3338V68.3632H61.1466V67.3632ZM61.2466 67.2632C61.2466 67.3185 61.2018 67.3632 61.1466 67.3632V68.3632C61.7541 68.3632 62.2466 67.8707 62.2466 67.2632H61.2466ZM61.1466 67.1632C61.2018 67.1632 61.2466 67.208 61.2466 67.2632H62.2466C62.2466 66.6557 61.7541 66.1632 61.1466 66.1632V67.1632ZM59.3511 67.1632H61.1466V66.1632H59.3511V67.1632Z" fill="#46BE88"/>
<path d="M78 64.7695C75.4288 64.7695 72.9154 65.5319 70.7776 66.9604C68.6398 68.3889 66.9735 70.4192 65.9896 72.7946C65.0056 75.1701 64.7482 77.7839 65.2498 80.3057C65.7514 82.8274 66.9895 85.1438 68.8076 86.9619C70.6257 88.78 72.9421 90.0181 75.4638 90.5197C77.9856 91.0213 80.5994 90.7639 82.9749 89.7799C85.3503 88.796 87.3806 87.1297 88.8091 84.9919C90.2376 82.8541 91 80.3407 91 77.7695C90.996 74.3229 89.6251 71.0186 87.188 68.5815C84.7509 66.1444 81.4466 64.7735 78 64.7695Z" fill="#46BE88"/>
<path d="M78.9572 86.7134C82.9692 86.264 86.1845 83.0569 86.6421 79.0449C87.2427 73.7991 83.1653 69.3336 78.0543 69.2764V66.9231C78.0543 66.7924 77.8909 66.7229 77.7806 66.8047L72.9352 70.3632C72.8535 70.4244 72.8535 70.5429 72.9352 70.6042L77.7806 74.1627C77.8909 74.2444 78.0543 74.1709 78.0543 74.0442V71.695C81.6455 71.7522 84.5217 74.8082 84.2766 78.4607C84.0682 81.6024 81.5066 84.1518 78.3648 84.352C75.0351 84.5644 72.2039 82.1867 71.6973 79.0408C71.6033 78.4566 71.0926 78.0317 70.5043 78.0317C69.773 78.0317 69.201 78.6813 69.3154 79.4044C70.0263 83.8862 74.1649 87.2486 78.9572 86.7134Z" fill="white"/>
</g>
<defs>
<clipPath id="clip0_781_33607">
<rect width="120" height="120" fill="white" transform="translate(0 0.769531)"/>
</clipPath>
</defs>
</svg>
