<svg width="120" height="121" viewBox="0 0 120 121" fill="none" xmlns="http://www.w3.org/2000/svg">
<g clip-path="url(#clip0_781_33622)">
<path d="M60 120.77C93.1371 120.77 120 93.9066 120 60.7695C120 27.6324 93.1371 0.769531 60 0.769531C26.8629 0.769531 0 27.6324 0 60.7695C0 93.9066 26.8629 120.77 60 120.77Z" fill="white"/>
<path d="M31.4297 73.3887H60.0009" stroke="#3D4159" stroke-width="2" stroke-linecap="round"/>
<path opacity="0.2" d="M60 73.3887H88.5712" stroke="#3D4159" stroke-width="2" stroke-linecap="round"/>
<path d="M58.5703 73.3891V59.1035" stroke="#3D4159" stroke-width="2"/>
<path d="M32.8571 76.2455C34.4351 76.2455 35.7142 74.9663 35.7142 73.3884C35.7142 71.8104 34.4351 70.5312 32.8571 70.5312C31.2792 70.5312 30 71.8104 30 73.3884C30 74.9663 31.2792 76.2455 32.8571 76.2455Z" fill="#3D4159"/>
<path d="M58.572 76.2455C60.1499 76.2455 61.4291 74.9663 61.4291 73.3884C61.4291 71.8104 60.1499 70.5312 58.572 70.5312C56.994 70.5312 55.7148 71.8104 55.7148 73.3884C55.7148 74.9663 56.994 76.2455 58.572 76.2455Z" fill="#3D4159"/>
<path d="M58.5702 61.0075C62.778 61.0075 66.1892 57.5964 66.1892 53.3885C66.1892 49.1807 62.778 45.7695 58.5702 45.7695C54.3623 45.7695 50.9512 49.1807 50.9512 53.3885C50.9512 57.5964 54.3623 61.0075 58.5702 61.0075Z" fill="#46BE88"/>
<path d="M54.7637 53.9597L56.9405 56.2454L62.3827 50.5312" stroke="white" stroke-width="2" stroke-linecap="round" stroke-linejoin="round"/>
<path d="M87.1442 76.2455C88.7222 76.2455 90.0014 74.9663 90.0014 73.3884C90.0014 71.8104 88.7222 70.5312 87.1442 70.5312C85.5663 70.5312 84.2871 71.8104 84.2871 73.3884C84.2871 74.9663 85.5663 76.2455 87.1442 76.2455Z" fill="#3D4159"/>
</g>
<defs>
<clipPath id="clip0_781_33622">
<rect width="120" height="120" fill="white" transform="translate(0 0.769531)"/>
</clipPath>
</defs>
</svg>
