<svg width="120" height="121" viewBox="0 0 120 121" fill="none" xmlns="http://www.w3.org/2000/svg">
<g clip-path="url(#clip0_781_33615)">
<path d="M60 120.77C93.1371 120.77 120 93.9066 120 60.7695C120 27.6324 93.1371 0.769531 60 0.769531C26.8629 0.769531 0 27.6324 0 60.7695C0 93.9066 26.8629 120.77 60 120.77Z" fill="white"/>
<path fill-rule="evenodd" clip-rule="evenodd" d="M65.493 45.7695H82.3849C86.5899 45.7695 89.9987 49.1736 89.9987 53.3727V69.094C89.9987 73.2931 86.5899 76.6972 82.3849 76.6972H56.4023" fill="white"/>
<path d="M65.493 45.7695H82.3849C86.5899 45.7695 89.9987 49.1736 89.9987 53.3727V69.094C89.9987 73.2931 86.5899 76.6972 82.3849 76.6972H56.4023" stroke="#3D4159" stroke-width="1.6" stroke-linecap="round" stroke-linejoin="round"/>
<path d="M38.7012 51.0762H54.3638" stroke="#3D4159" stroke-width="1.6" stroke-linecap="round"/>
<path d="M35.2188 71.9297H49.1412" stroke="#3D4159" stroke-width="1.6" stroke-linecap="round"/>
<path d="M30 61.502H47.4029" stroke="#3D4159" stroke-width="1.6" stroke-linecap="round"/>
<path fill-rule="evenodd" clip-rule="evenodd" d="M79.3255 50.8125L79.3356 51.124C79.4962 53.5959 81.5549 55.5512 84.0709 55.5512H84.2834V67.1662H84.0956C81.4611 67.1662 79.3255 69.2989 79.3255 71.9297H57.666L63.6499 50.8125H79.3255ZM75.7493 55.3278H68.2938C67.8147 55.3278 67.4263 55.7156 67.4263 56.194C67.4263 56.6724 67.8147 57.0602 68.2938 57.0602H70.4277C71.4061 57.0602 72.2447 57.6016 72.5895 58.4679H68.2938C67.8147 58.4679 67.4263 58.8557 67.4263 59.3341C67.4263 59.8125 67.8147 60.2004 68.2938 60.2004H72.5921C72.4841 60.5053 72.3074 60.7815 72.0762 61.0078C71.6424 61.4532 71.0495 61.7082 70.4277 61.7163H68.2938C67.9401 61.7104 67.6195 61.9227 67.4869 62.2501C67.3548 62.5779 67.4382 62.9526 67.6974 63.1933L73.03 68.2224C73.379 68.5506 73.9284 68.5345 74.2575 68.186C74.5866 67.8375 74.5705 67.2889 74.2215 66.9602L70.4738 63.4238C72.3739 63.3917 74.0012 62.0559 74.4007 60.2004H75.7493C76.2283 60.2004 76.6167 59.8125 76.6167 59.3341C76.6167 58.8557 76.2283 58.4679 75.7493 58.4679H74.3998C74.2859 57.959 74.0669 57.4794 73.7564 57.0602H75.7493C76.2283 57.0602 76.6167 56.6724 76.6167 56.194C76.6167 55.7156 76.2283 55.3278 75.7493 55.3278Z" fill="#46BE88"/>
</g>
<defs>
<clipPath id="clip0_781_33615">
<rect width="120" height="120" fill="white" transform="translate(0 0.769531)"/>
</clipPath>
</defs>
</svg>
