<svg width="103" height="93" viewBox="0 0 103 93" fill="none" xmlns="http://www.w3.org/2000/svg">
<g clip-path="url(#clip0_781_34038)">
<path opacity="0.7" d="M75.6884 85.9375H27.2691L2.58594 88.0411L29.619 92.3037L72.7045 92.5008L100.025 88.0559L75.6884 85.9375Z" fill="#E8EAF8"/>
<path d="M66.2381 63.7236L35.7757 63.8496L20.625 66.2015L35.9368 68.4294L66.3992 68.3035L81.5499 65.9515L66.2381 63.7236Z" fill="white" stroke="#DDE1FF" stroke-width="0.454565" stroke-miterlimit="10"/>
<path d="M30.6981 77.4686V90.6988L9.41016 87.3134V74.6055L30.6981 77.4686Z" fill="#DDE1FF" stroke="#DDE1FF" stroke-width="0.454565" stroke-miterlimit="10"/>
<path d="M71.4766 77.4686V90.6988L92.9757 87.3301V74.6055L71.4766 77.4686Z" fill="#DDE1FF" stroke="#DDE1FF" stroke-width="0.454565" stroke-miterlimit="10"/>
<path d="M71.4787 77.4688H30.6992V90.699H71.4787V77.4688Z" fill="#DDE1FF" stroke="#DDE1FF" stroke-width="0.454565" stroke-miterlimit="10"/>
<path d="M72.1428 71.2363H30.691L9.55859 74.5865L30.9114 77.97H72.3632L92.9789 74.6031L72.1428 71.2363Z" fill="white" stroke="#DDE1FF" stroke-width="0.454565" stroke-linecap="round" stroke-linejoin="round"/>
<path d="M20.625 66.2031V73.4238L35.9368 75.2498V68.2625L20.625 66.2031Z" fill="#DDE1FF" stroke="#DDE1FF" stroke-width="0.454565" stroke-miterlimit="10"/>
<path d="M81.5519 65.9531V73.259L66.2383 75.1683V68.181L81.5519 65.9531Z" fill="#DDE1FF" stroke="#DDE1FF" stroke-width="0.454565" stroke-miterlimit="10"/>
<path d="M35.9375 68.2631V75.2505L66.2388 75.169V68.1816L35.9375 68.2631Z" fill="#DDE1FF" stroke="#DDE1FF" stroke-width="0.454565" stroke-miterlimit="10"/>
<path d="M40.3095 90.5611L50.0599 77.8346L46.5283 75.2678L50.7655 67.9286L36.2148 64.1543L45.7264 64.1545L56.8213 67.9286L53.2674 75.0715L58.5362 77.8346L47.369 90.5611H40.3095Z" fill="white"/>
<path d="M51.5177 90.5611L62.9959 77.8994L56.7142 75.0623L60.2717 68.0435L47.6211 64.1543L53.2454 64.1545L64.1441 67.9286L60.5903 75.0715L67.335 77.8346L56.8735 90.5611H51.5177Z" fill="white"/>
<path d="M28.2184 2.5V33.8049H21.159C15.1121 33.8049 12.8626 41.7376 18.0094 44.9118L48.1572 63.5051C50.0881 64.6959 52.5255 64.6959 54.4564 63.5051L84.6043 44.9118C89.751 41.7376 87.5016 33.8049 81.4547 33.8049H74.5545V2.5" stroke="#5367FF" stroke-width="3" stroke-linecap="round"/>
<path d="M53.6883 34.936C53.7682 35.8105 54.0204 36.6828 54.46 37.5065C56.2254 40.812 60.3441 42.0638 63.6587 40.3032C66.1345 38.9879 67.4602 36.3643 67.237 33.743C67.1571 32.8685 66.9049 31.9951 66.4653 31.1714C64.6999 27.8659 60.5812 26.6141 57.2655 28.3747C54.7909 29.69 53.4651 32.3147 53.6883 34.936ZM64.59 32.1244C65.7781 34.3476 64.9335 37.1108 62.703 38.2957C60.4736 39.4806 57.7029 38.6384 56.5147 36.414C55.3266 34.1907 56.1711 31.4275 58.4016 30.2426C60.631 29.0577 63.4018 29.8999 64.59 32.1244Z" fill="#0B66FA"/>
<path d="M36.243 20.2065C36.3228 21.081 36.5751 21.9532 37.0147 22.777C38.7801 26.0825 42.8988 27.3343 46.2145 25.5737C48.6903 24.2584 50.0149 21.6348 49.7928 19.0135C49.713 18.139 49.4608 17.2656 49.0211 16.4418C47.2557 13.1364 43.1371 11.8846 39.8225 13.6452C37.3456 14.9604 36.0197 17.584 36.243 20.2065ZM47.1447 17.3948C48.3328 19.6181 47.4883 22.3824 45.2577 23.5662C43.0283 24.7511 40.2575 23.9088 39.0694 21.6844C37.8812 19.4612 38.7258 16.698 40.9563 15.5131C43.1868 14.3282 45.9565 15.1704 47.1447 17.3948Z" fill="#0B66FA"/>
<path d="M60.7567 17.3095L43.499 40.7535C43.0188 41.4053 42.0921 41.5461 41.4396 41.0684C40.786 40.5908 40.6448 39.6655 41.1238 39.0148L58.3815 15.5708C58.8605 14.919 59.7872 14.7782 60.4409 15.2559C61.0934 15.7335 61.2357 16.6576 60.7567 17.3095Z" fill="#0B66FA"/>
</g>
<defs>
<clipPath id="clip0_781_34038">
<rect width="103" height="92" fill="white" transform="translate(0 0.5)"/>
</clipPath>
</defs>
</svg>
