<svg width="143" height="91" viewBox="0 0 143 91" fill="none" xmlns="http://www.w3.org/2000/svg">
<g clip-path="url(#clip0_781_34051)">
<path d="M140.5 28.5H2.5C1.39543 28.5 0.5 29.3954 0.5 30.5V60.5C0.5 61.6046 1.39543 62.5 2.5 62.5H140.5C141.605 62.5 142.5 61.6046 142.5 60.5V30.5C142.5 29.3954 141.605 28.5 140.5 28.5Z" fill="white"/>
<path d="M127.5 36.498H44.5C43.3954 36.498 42.5 37.3935 42.5 38.498V42.498C42.5 43.6026 43.3954 44.498 44.5 44.498H127.5C128.605 44.498 129.5 43.6026 129.5 42.498V38.498C129.5 37.3935 128.605 36.498 127.5 36.498Z" fill="#0B66FA"/>
<path d="M99.5 48.498H44.5C43.3954 48.498 42.5 49.3935 42.5 50.498V52.498C42.5 53.6026 43.3954 54.498 44.5 54.498H99.5C100.605 54.498 101.5 53.6026 101.5 52.498V50.498C101.5 49.3935 100.605 48.498 99.5 48.498Z" fill="#0B66FA"/>
<path d="M34.5 36.5H10.5C9.39543 36.5 8.5 37.3954 8.5 38.5V52.5C8.5 53.6046 9.39543 54.5 10.5 54.5H34.5C35.6046 54.5 36.5 53.6046 36.5 52.5V38.5C36.5 37.3954 35.6046 36.5 34.5 36.5Z" fill="#0B66FA"/>
<path d="M17.5 43.444C17.5 44.056 17.68 44.536 18.04 44.884C18.388 45.232 18.844 45.4 19.408 45.4C19.972 45.4 20.428 45.232 20.788 44.884C21.136 44.536 21.316 44.056 21.316 43.444C21.316 42.832 21.136 42.364 20.788 42.016C20.428 41.668 19.972 41.5 19.408 41.5C18.844 41.5 18.388 41.668 18.04 42.016C17.68 42.364 17.5 42.832 17.5 43.444ZM23.56 41.644L18.856 50.044H20.488L25.204 41.644H23.56ZM19.396 42.508C19.852 42.508 20.08 42.82 20.08 43.444C20.08 43.768 20.02 43.996 19.9 44.152C19.78 44.308 19.612 44.392 19.396 44.392C18.952 44.392 18.736 44.08 18.736 43.444C18.736 42.82 18.952 42.508 19.396 42.508ZM22.768 48.232C22.768 48.844 22.948 49.324 23.296 49.672C23.644 50.02 24.112 50.188 24.676 50.188C25.24 50.188 25.696 50.02 26.044 49.672C26.392 49.324 26.56 48.844 26.56 48.232C26.56 47.62 26.392 47.14 26.044 46.792C25.696 46.456 25.24 46.288 24.676 46.288C24.112 46.288 23.656 46.456 23.308 46.792C22.948 47.14 22.768 47.62 22.768 48.232ZM24.664 47.296C25.108 47.296 25.336 47.608 25.336 48.232C25.336 48.868 25.108 49.18 24.664 49.18C24.208 49.18 23.98 48.868 23.98 48.232C23.98 47.608 24.208 47.296 24.664 47.296Z" fill="white"/>
<g opacity="0.3">
<path d="M122.5 0.5H20.5C19.3954 0.5 18.5 1.39543 18.5 2.5V23.5C18.5 24.6046 19.3954 25.5 20.5 25.5H122.5C123.605 25.5 124.5 24.6046 124.5 23.5V2.5C124.5 1.39543 123.605 0.5 122.5 0.5Z" fill="white"/>
<path d="M114.5 6.5H53.5C52.3954 6.5 51.5 7.39543 51.5 8.5V10.5C51.5 11.6046 52.3954 12.5 53.5 12.5H114.5C115.605 12.5 116.5 11.6046 116.5 10.5V8.5C116.5 7.39543 115.605 6.5 114.5 6.5Z" fill="#5367FF"/>
<path d="M93.5 15.5H53.5C52.3954 15.5 51.5 16.3954 51.5 17.5C51.5 18.6046 52.3954 19.5 53.5 19.5H93.5C94.6046 19.5 95.5 18.6046 95.5 17.5C95.5 16.3954 94.6046 15.5 93.5 15.5Z" fill="#5367FF"/>
<path d="M43.5 6.5H26.5C25.3954 6.5 24.5 7.39543 24.5 8.5V17.5C24.5 18.6046 25.3954 19.5 26.5 19.5H43.5C44.6046 19.5 45.5 18.6046 45.5 17.5V8.5C45.5 7.39543 44.6046 6.5 43.5 6.5Z" fill="#5367FF"/>
<path d="M31.5 10.9969C31.5 11.4682 31.6386 11.8378 31.9158 12.1058C32.1838 12.3737 32.5349 12.5031 32.9692 12.5031C33.4035 12.5031 33.7546 12.3737 34.0319 12.1058C34.2998 11.8378 34.4384 11.4682 34.4384 10.9969C34.4384 10.5257 34.2998 10.1653 34.0319 9.89733C33.7546 9.62936 33.4035 9.5 32.9692 9.5C32.5349 9.5 32.1838 9.62936 31.9158 9.89733C31.6386 10.1653 31.5 10.5257 31.5 10.9969ZM36.1664 9.61088L32.5442 16.0791H33.8008L37.4323 9.61088H36.1664ZM32.96 10.2762C33.3111 10.2762 33.4867 10.5164 33.4867 10.9969C33.4867 11.2464 33.4405 11.422 33.3481 11.5421C33.2557 11.6622 33.1263 11.7269 32.96 11.7269C32.6181 11.7269 32.4518 11.4867 32.4518 10.9969C32.4518 10.5164 32.6181 10.2762 32.96 10.2762ZM35.5565 14.6838C35.5565 15.1551 35.6951 15.5247 35.9631 15.7927C36.2311 16.0606 36.5914 16.19 37.0257 16.19C37.46 16.19 37.8111 16.0606 38.0791 15.7927C38.3471 15.5247 38.4765 15.1551 38.4765 14.6838C38.4765 14.2126 38.3471 13.843 38.0791 13.575C37.8111 13.3163 37.46 13.1869 37.0257 13.1869C36.5914 13.1869 36.2403 13.3163 35.9723 13.575C35.6951 13.843 35.5565 14.2126 35.5565 14.6838ZM37.0165 13.9631C37.3584 13.9631 37.5339 14.2033 37.5339 14.6838C37.5339 15.1736 37.3584 15.4138 37.0165 15.4138C36.6653 15.4138 36.4898 15.1736 36.4898 14.6838C36.4898 14.2033 36.6653 13.9631 37.0165 13.9631Z" fill="white"/>
</g>
<g opacity="0.3">
<path d="M122.5 65.5H20.5C19.3954 65.5 18.5 66.3954 18.5 67.5V88.5C18.5 89.6046 19.3954 90.5 20.5 90.5H122.5C123.605 90.5 124.5 89.6046 124.5 88.5V67.5C124.5 66.3954 123.605 65.5 122.5 65.5Z" fill="white"/>
<path d="M113.5 71.5H52.5C51.3954 71.5 50.5 72.3954 50.5 73.5V75.5C50.5 76.6046 51.3954 77.5 52.5 77.5H113.5C114.605 77.5 115.5 76.6046 115.5 75.5V73.5C115.5 72.3954 114.605 71.5 113.5 71.5Z" fill="#5367FF"/>
<path d="M92.5 80.5H52.5C51.3954 80.5 50.5 81.3954 50.5 82.5C50.5 83.6046 51.3954 84.5 52.5 84.5H92.5C93.6046 84.5 94.5 83.6046 94.5 82.5C94.5 81.3954 93.6046 80.5 92.5 80.5Z" fill="#5367FF"/>
<path d="M43.5 71.5H26.5C25.3954 71.5 24.5 72.3954 24.5 73.5V82.5C24.5 83.6046 25.3954 84.5 26.5 84.5H43.5C44.6046 84.5 45.5 83.6046 45.5 82.5V73.5C45.5 72.3954 44.6046 71.5 43.5 71.5Z" fill="#5367FF"/>
<path d="M31.5 75.9969C31.5 76.4682 31.6386 76.8378 31.9158 77.1058C32.1838 77.3737 32.5349 77.5031 32.9692 77.5031C33.4035 77.5031 33.7546 77.3737 34.0319 77.1058C34.2998 76.8378 34.4384 76.4682 34.4384 75.9969C34.4384 75.5257 34.2998 75.1653 34.0319 74.8973C33.7546 74.6294 33.4035 74.5 32.9692 74.5C32.5349 74.5 32.1838 74.6294 31.9158 74.8973C31.6386 75.1653 31.5 75.5257 31.5 75.9969ZM36.1664 74.6109L32.5442 81.0791H33.8008L37.4323 74.6109H36.1664ZM32.96 75.2762C33.3111 75.2762 33.4867 75.5164 33.4867 75.9969C33.4867 76.2464 33.4405 76.422 33.3481 76.5421C33.2557 76.6622 33.1263 76.7269 32.96 76.7269C32.6181 76.7269 32.4518 76.4867 32.4518 75.9969C32.4518 75.5164 32.6181 75.2762 32.96 75.2762ZM35.5565 79.6838C35.5565 80.1551 35.6951 80.5247 35.9631 80.7927C36.2311 81.0606 36.5914 81.19 37.0257 81.19C37.46 81.19 37.8111 81.0606 38.0791 80.7927C38.3471 80.5247 38.4765 80.1551 38.4765 79.6838C38.4765 79.2126 38.3471 78.843 38.0791 78.575C37.8111 78.3163 37.46 78.1869 37.0257 78.1869C36.5914 78.1869 36.2403 78.3163 35.9723 78.575C35.6951 78.843 35.5565 79.2126 35.5565 79.6838ZM37.0165 78.9631C37.3584 78.9631 37.5339 79.2033 37.5339 79.6838C37.5339 80.1736 37.3584 80.4138 37.0165 80.4138C36.6653 80.4138 36.4898 80.1736 36.4898 79.6838C36.4898 79.2033 36.6653 78.9631 37.0165 78.9631Z" fill="white"/>
</g>
</g>
<defs>
<clipPath id="clip0_781_34051">
<rect width="142" height="90" fill="white" transform="translate(0.5 0.5)"/>
</clipPath>
</defs>
</svg>
