<svg width="185" height="93" viewBox="0 0 185 93" fill="none" xmlns="http://www.w3.org/2000/svg">
<g clip-path="url(#clip0_781_34032)">
<path d="M3.42679 73.6152H69.1526C69.7601 73.6152 70.3164 73.7971 70.7839 74.1037C71.1798 74.3632 71.504 74.7136 71.7327 75.128C71.9614 75.539 72.0911 76.0141 72.0911 76.5161C72.0911 76.6071 72.0876 76.6947 72.0774 76.7823C71.9409 78.258 70.6849 79.4171 69.1526 79.4171H12.5495L22.8428 86.2904L23.2387 86.4858L22.8565 92.4696L22.5527 92.409L21.4947 91.6981L21.6347 92.0114L1.79884 78.9285C1.01046 78.4097 0.488281 77.5202 0.488281 76.5128C0.488281 74.9157 1.80566 73.6152 3.42679 73.6152Z" fill="#2939B4"/>
<path d="M129.598 72.2295L131.431 73.4391L136.861 77.0273L141.769 80.2652H184.488L181.485 78.2807L175.584 74.3858L172.321 72.2295H129.598Z" fill="#C9F0DF"/>
<path fill-rule="evenodd" clip-rule="evenodd" d="M131.375 72.6611H171.842L182.715 79.8377H142.245L131.375 72.6611ZM181.33 79.4229L171.716 73.0752H132.758L142.372 79.4229H181.33Z" fill="#0B66FA"/>
<path d="M162.004 78.4093C158.875 78.4093 154.936 77.668 151.97 76.5225C149.868 75.7105 149.117 75.0029 148.957 74.7266C149.073 74.639 149.387 74.4537 150.131 74.3021C150.824 74.1606 151.684 74.0898 152.68 74.0898C155.888 74.0898 160.008 74.8479 162.926 75.9766C164.974 76.7684 165.666 77.4591 165.799 77.7152C165.697 77.8062 165.376 78.0252 164.52 78.197C163.823 78.3385 162.98 78.4093 162.004 78.4093Z" fill="#79B236"/>
<path fill-rule="evenodd" clip-rule="evenodd" d="M162.004 78.4093C158.875 78.4093 154.936 77.668 151.97 76.5225C149.868 75.7105 149.117 75.0029 148.957 74.7266C149.073 74.639 149.387 74.4537 150.131 74.3021C150.824 74.1606 151.684 74.0898 152.68 74.0898C155.888 74.0898 160.008 74.8479 162.926 75.9766C164.974 76.7684 165.666 77.4591 165.799 77.7152C165.697 77.8062 165.376 78.0252 164.52 78.197C163.823 78.3385 162.98 78.4093 162.004 78.4093Z" stroke="#0B66FA" stroke-width="1.8585"/>
<path d="M174.668 79.0316H179.924L176.889 77.0303L174.668 79.0316Z" fill="#0B66FA"/>
<path d="M166.355 73.0518H171.611L174.645 75.0531L166.355 73.0518Z" fill="#B3DD72"/>
<path d="M148.341 78.7494H143.086L140.051 76.748L148.341 78.7494Z" fill="#0B66FA"/>
<path d="M138.291 73.0137H133.039L136.069 75.015L138.291 73.0137Z" fill="#B3DD72"/>
<path d="M184.489 80.2656H141.77V83.8269H184.489V80.2656Z" fill="#0B66FA"/>
<path d="M141.769 80.2648L129.598 72.2324V75.632L141.769 83.8295V80.2648Z" fill="#0B66FA"/>
<path d="M3.04688 73.6152L7.22087 76.3713L12.2583 79.6968L22.8588 86.6981H86.6187L86.6221 86.7015L90.6221 87.1867L70.7863 74.1038C70.3187 73.7972 69.7624 73.6152 69.1549 73.6152H3.04688Z" fill="#5367FF"/>
<path d="M19.2227 75.2998L34.2872 85.2493H80.9929L65.9283 75.2998H19.2227Z" fill="white"/>
<path d="M19.2227 75.2998L34.2872 85.2493H72.8736L57.809 75.2998H19.2227Z" fill="#D7DBF8"/>
<path d="M40.0056 83.2988C39.614 83.2988 39.2309 83.1838 38.904 82.9681L33.0213 79.0856C32.1935 78.5393 32.5803 77.251 33.5721 77.251H42.3232C42.715 77.251 43.0982 77.3661 43.4251 77.5819L49.3055 81.4643C50.1331 82.0107 49.7462 83.2988 48.7545 83.2988H40.0056Z" fill="#0B66FA"/>
<path d="M44.577 81.5391L40.7477 79.0088H38.2461L42.0753 81.5391H44.577Z" fill="white"/>
<g style="mix-blend-mode:multiply">
<path d="M136.861 77.0481V79.4841L133.039 76.8797L132.984 74.4336L136.861 77.0481Z" fill="#C9C9C9"/>
</g>
<g style="mix-blend-mode:multiply" opacity="0.78">
<path d="M131.43 73.4404L136.86 77.0287L160.792 78.1069L181.484 78.2821L175.583 74.3872L131.43 73.4404Z" fill="#5D547F"/>
</g>
<path d="M142.274 65.9505C140.874 69.3837 139.652 72.8878 138.629 76.4457C153.833 77.6823 168.908 77.4835 184.051 75.6371C181.273 71.4963 178.607 67.3083 176.051 63.0293C164.857 65.2833 153.686 66.1425 142.274 65.9505Z" fill="#C9F0DF"/>
<path fill-rule="evenodd" clip-rule="evenodd" d="M140.016 75.9797C154.228 77.0242 168.32 76.7951 182.469 75.1071C180.07 71.4312 177.78 67.6846 175.613 63.8672C164.804 65.9123 154.016 66.7041 143.02 66.5255C141.866 69.632 140.863 72.7856 140.016 75.9797Z" stroke="#0B66FA" stroke-width="1.3668"/>
<path d="M161.304 75.0143C158.311 75.0143 155.908 74.1416 154.707 72.6221C154.342 72.1605 154.246 71.709 154.407 71.1969C154.792 69.957 156.622 68.6227 158.089 68.1578C159.069 67.8478 160.089 67.6895 161.12 67.6895C163.331 67.6895 165.349 68.4206 166.799 69.7481C167.618 70.4961 167.922 71.3552 167.68 72.2312C167.376 73.3262 166.26 74.2595 164.895 74.556L164.847 74.5695C163.758 74.8593 162.536 75.0143 161.304 75.0143Z" fill="#F7FFC7"/>
<path fill-rule="evenodd" clip-rule="evenodd" d="M161.304 75.0143C158.311 75.0143 155.908 74.1416 154.707 72.6221C154.342 72.1605 154.246 71.709 154.407 71.1969C154.792 69.957 156.622 68.6227 158.089 68.1578C159.069 67.8478 160.089 67.6895 161.12 67.6895C163.331 67.6895 165.349 68.4206 166.799 69.7481C167.618 70.4961 167.922 71.3552 167.68 72.2312C167.376 73.3262 166.26 74.2595 164.895 74.556L164.847 74.5695C163.758 74.8593 162.536 75.0143 161.304 75.0143Z" fill="#C9F0DF" stroke="#0B66FA" stroke-width="1.8585"/>
<path d="M162.032 72.6325C162.053 72.6157 162.063 72.5955 162.063 72.5719L162.036 72.1474C162.244 72.1069 162.421 72.0429 162.568 71.9553L162.606 72.5315C162.606 72.555 162.619 72.5719 162.643 72.5854C162.667 72.5988 162.698 72.6056 162.732 72.6022L163.117 72.5786C163.152 72.5753 163.182 72.5685 163.203 72.5517C163.223 72.5348 163.234 72.5146 163.234 72.491L163.104 70.429C163.104 70.4055 163.09 70.3886 163.066 70.3751C163.042 70.3616 163.012 70.3549 162.978 70.3583L162.476 70.3886C162.442 70.392 162.414 70.3987 162.394 70.4189C162.37 70.4358 162.36 70.456 162.363 70.4762L162.387 70.8367C162.408 71.1838 162.281 71.4162 162.001 71.5274L161.937 70.5032C161.937 70.4796 161.923 70.4627 161.899 70.4493C161.875 70.4358 161.844 70.429 161.81 70.4324L161.425 70.456C161.391 70.4594 161.36 70.4661 161.339 70.4829C161.319 70.4998 161.309 70.52 161.309 70.5436L161.377 71.6015C161.169 71.578 161.005 71.5038 160.889 71.3758C160.773 71.2478 160.708 71.0759 160.694 70.8603L160.677 70.584C160.677 70.5638 160.664 70.5436 160.636 70.5301C160.612 70.5166 160.582 70.5099 160.551 70.5133L160.07 70.5436C160.036 70.547 160.008 70.5537 159.988 70.5705C159.493 70.9209 158.8 71.3758 157.909 71.9385C157.879 71.9553 157.865 71.9755 157.868 72.0025L157.899 72.4843C157.903 72.518 157.926 72.5416 157.971 72.5517C158.019 72.5652 158.06 72.5584 158.097 72.5348C158.967 71.9957 159.619 71.578 160.049 71.2714C160.118 71.5476 160.271 71.77 160.507 71.9284C160.745 72.0901 161.046 72.1777 161.411 72.1945L161.438 72.6123C161.438 72.6359 161.452 72.6528 161.476 72.6662C161.5 72.6797 161.53 72.6864 161.565 72.6831L161.95 72.6595C161.984 72.6595 162.012 72.6494 162.032 72.6325Z" fill="#0B66FA"/>
<path d="M176.102 75.3036C178.211 75.098 179.259 74.9801 181.334 74.7173C180.542 73.4606 180.153 72.8305 179.389 71.5771C178.225 73.1068 177.566 73.8548 176.102 75.3036Z" fill="#0B66FA"/>
<path opacity="0.63" d="M171.309 65.3101C172.941 65.0507 173.746 64.9091 175.34 64.6025C176.029 65.8492 176.384 66.4725 177.108 67.7225C174.64 66.7622 173.483 66.2771 171.309 65.3101Z" fill="#0B66FA"/>
<path opacity="0.63" d="M146.494 75.9465C144.249 75.8387 143.122 75.7713 140.863 75.6028C141.122 74.528 141.259 73.989 141.549 72.9209C143.382 74.1204 144.371 74.7268 146.494 75.9465Z" fill="#0B66FA"/>
<path d="M148.363 67.0662C146.561 67.0729 145.653 67.0628 143.831 67.0156C143.479 68.0635 143.309 68.5924 142.988 69.6504C145.268 68.6767 146.346 68.1578 148.363 67.0662Z" fill="#0B66FA"/>
<path d="M184.047 75.6367C168.904 77.4831 153.829 77.6819 138.625 76.4453" stroke="#0B66FA" stroke-width="0.8179"/>
<g style="mix-blend-mode:multiply" opacity="0.61">
<path d="M173.945 67.4902L177.109 71.1257C177.109 71.1257 143.471 76.7086 138.867 75.6371C139.614 72.908 139.614 72.908 139.614 72.908L173.945 67.4902Z" fill="#5D547F"/>
</g>
<path d="M131.488 75.3707C146.699 74.2217 161.552 71.6746 176.211 67.4899C172.801 63.8376 169.501 60.1146 166.293 56.2871C163.911 57.1732 161.515 57.9886 159.105 58.7433C150.723 61.3646 142.191 63.2009 133.406 64.4374C133.031 66.058 132.696 67.6854 132.403 69.3228C132.041 71.3275 131.734 73.3457 131.488 75.3707Z" fill="#C9F0DF"/>
<path fill-rule="evenodd" clip-rule="evenodd" d="M132.789 74.6933C146.986 73.5106 160.867 71.0881 174.566 67.2135C171.607 63.9588 168.747 60.6164 165.996 57.1865C155.652 60.8927 145.126 63.3557 134.236 64.8954C133.601 68.1367 133.116 71.4082 132.789 74.6933Z" stroke="#0B66FA" stroke-width="1.3668"/>
<path d="M151.562 70.5851C150.115 70.5851 148.105 70.3256 146.754 69.0824C146.32 68.6848 146.153 68.2502 146.228 67.7212C146.412 66.4341 148.006 64.8337 149.378 64.1464C150.754 63.4557 152.283 63.0918 153.794 63.0918C155.439 63.0918 156.975 63.5298 158.235 64.3586C159.163 64.9685 159.6 65.7704 159.501 66.6733C159.378 67.802 158.422 68.9004 157.125 69.4024L157.078 69.4227C155.426 70.1639 153.416 70.5851 151.562 70.5851Z" fill="#C9F0DF"/>
<path fill-rule="evenodd" clip-rule="evenodd" d="M151.562 70.5851C150.115 70.5851 148.105 70.3256 146.754 69.0824C146.32 68.6848 146.153 68.2502 146.228 67.7212C146.412 66.4341 148.006 64.8337 149.378 64.1464C150.754 63.4557 152.283 63.0918 153.794 63.0918C155.439 63.0918 156.975 63.5298 158.235 64.3586C159.163 64.9685 159.6 65.7704 159.501 66.6733C159.378 67.802 158.422 68.9004 157.125 69.4024L157.078 69.4227C155.426 70.1639 153.416 70.5851 151.562 70.5851Z" stroke="#0B66FA" stroke-width="1.8585"/>
<path d="M154.294 68.1695C154.314 68.1392 154.318 68.1055 154.307 68.0718L154.099 67.435C154.342 67.3103 154.539 67.1587 154.69 66.9835L154.973 67.8528C154.983 67.8865 155.007 67.91 155.041 67.9269C155.075 67.9404 155.116 67.9404 155.161 67.9269L155.635 67.7753C155.679 67.7618 155.71 67.7382 155.731 67.7079C155.751 67.6776 155.754 67.6439 155.744 67.6102L154.727 64.5071C154.717 64.4734 154.693 64.4498 154.659 64.433C154.625 64.4195 154.584 64.4195 154.539 64.433L153.922 64.6317C153.881 64.6452 153.85 64.6688 153.83 64.6991C153.809 64.7328 153.802 64.7631 153.813 64.7968L153.99 65.3393C154.161 65.8649 154.096 66.2524 153.792 66.5051L153.287 64.9653C153.277 64.9316 153.253 64.9047 153.219 64.8912C153.185 64.8777 153.144 64.8777 153.099 64.8912L152.625 65.0428C152.58 65.0563 152.55 65.0799 152.529 65.1102C152.509 65.1405 152.505 65.1742 152.516 65.2079L153.038 66.8016C152.765 66.8285 152.529 66.7611 152.331 66.6061C152.133 66.4478 151.98 66.2052 151.871 65.8784L151.734 65.4606C151.724 65.4269 151.7 65.4033 151.662 65.3898C151.625 65.3764 151.587 65.3764 151.546 65.3865L150.956 65.5751C150.915 65.5886 150.884 65.6088 150.864 65.6425C150.389 66.3231 149.707 67.2227 148.819 68.3481C148.789 68.3817 148.782 68.4188 148.796 68.4592L149.034 69.187C149.052 69.2409 149.092 69.2679 149.154 69.2679C149.219 69.2746 149.27 69.2544 149.307 69.2038C150.178 68.1223 150.823 67.2867 151.236 66.6971C151.437 67.1014 151.72 67.3878 152.082 67.563C152.447 67.7382 152.86 67.782 153.328 67.6978L153.533 68.3245C153.543 68.3582 153.567 68.3851 153.601 68.3952C153.635 68.4087 153.676 68.4087 153.72 68.3952L154.195 68.2436C154.239 68.2234 154.273 68.1998 154.294 68.1695Z" fill="#0B66FA"/>
<path d="M168.309 68.3994C170.36 67.867 171.374 67.5874 173.381 67.0045C172.398 65.8859 171.91 65.3266 170.958 64.208C170.057 65.8994 169.528 66.7383 168.309 68.3994Z" fill="#0B66FA"/>
<path d="M161.98 59.2757C163.55 58.7636 164.321 58.4974 165.847 57.9482C166.728 59.0702 167.178 59.6329 168.093 60.7548C165.502 60.1922 164.28 59.8957 161.98 59.2757Z" fill="#0B66FA"/>
<path d="M139.669 73.572C137.437 73.818 136.311 73.9258 134.051 74.1111C134.137 73.006 134.185 72.4568 134.301 71.3584C136.304 72.258 137.379 72.7027 139.669 73.572Z" fill="#0B66FA"/>
<path opacity="0.63" d="M139.601 64.5898C137.823 64.8762 136.925 65.0076 135.116 65.2469C134.935 66.3385 134.857 66.8843 134.707 67.9793C136.806 66.6619 137.785 65.9814 139.601 64.5898Z" fill="#0B66FA"/>
<path d="M176.211 67.4902C161.552 71.6749 146.699 74.222 131.488 75.371" stroke="#0B66FA" stroke-width="0.8179"/>
<path d="M101.859 27.0283C105.999 32.7291 111.415 36.9239 117.384 40.6132C129.998 33.0862 142.449 23.2951 148.039 9.34636C141.729 7.98517 136.299 6.00404 130.886 2.5C125.545 14.4407 113.333 21.7621 101.859 27.0283Z" fill="#C9F0DF"/>
<path fill-rule="evenodd" clip-rule="evenodd" d="M117.639 39.262C129.482 32.0821 141.021 22.9008 146.618 9.94263C141.157 8.6185 135.973 6.86985 131.314 3.67578C125.898 14.9359 114.639 21.9979 103.711 27.2944C107.786 32.1428 112.277 35.8624 117.639 39.262Z" stroke="#0B66FA" stroke-width="1.5539"/>
<path d="M127.038 26.4928C126.417 26.4928 125.813 26.4457 125.243 26.3513C123.452 26.0548 122.028 25.0508 121.336 23.5953C120.673 22.2004 120.789 20.6236 121.656 19.1546C123.175 16.5804 125.984 14.9834 128.98 14.9834C129.513 14.9834 130.049 15.0339 130.571 15.1384C132.718 15.5562 134.711 16.8028 135.649 18.3055C136.25 19.2657 136.404 20.2967 136.107 21.3715C134.881 24.8891 130.55 26.4928 127.038 26.4928Z" fill="#C9F0DF"/>
<path fill-rule="evenodd" clip-rule="evenodd" d="M127.038 26.4928C126.417 26.4928 125.813 26.4457 125.243 26.3513C123.452 26.0548 122.028 25.0508 121.336 23.5953C120.673 22.2004 120.789 20.6236 121.656 19.1546C123.175 16.5804 125.984 14.9834 128.98 14.9834C129.513 14.9834 130.049 15.0339 130.571 15.1384C132.718 15.5562 134.711 16.8028 135.649 18.3055C136.25 19.2657 136.404 20.2967 136.107 21.3715C134.881 24.8891 130.55 26.4928 127.038 26.4928Z" stroke="#0B66FA" stroke-width="1.8585"/>
<path d="M130.819 21.6145C130.832 21.5741 130.825 21.5303 130.802 21.4898L130.368 20.725C130.59 20.5363 130.754 20.3207 130.86 20.0781L131.453 21.1226C131.477 21.163 131.511 21.19 131.552 21.2034C131.593 21.2135 131.638 21.2102 131.679 21.1866L132.143 20.9305C132.184 20.9069 132.211 20.8733 132.225 20.8328C132.235 20.7924 132.232 20.7486 132.208 20.7082L130.092 16.9817C130.068 16.9413 130.034 16.9144 129.993 16.9009C129.952 16.8908 129.907 16.8941 129.866 16.9177L129.262 17.2513C129.221 17.2715 129.198 17.3052 129.184 17.349C129.17 17.3928 129.177 17.4332 129.198 17.4737L129.566 18.1239C129.924 18.754 129.979 19.2493 129.733 19.6064L128.682 17.7567C128.658 17.7162 128.624 17.6893 128.583 17.6758C128.542 17.6657 128.498 17.6691 128.457 17.6927L127.993 17.9487C127.952 17.9723 127.925 18.006 127.911 18.0464C127.897 18.0869 127.904 18.1307 127.928 18.1711L129.013 20.0848C128.727 20.1556 128.454 20.1084 128.184 19.94C127.918 19.7715 127.672 19.4919 127.45 19.0976L127.167 18.5956C127.146 18.5552 127.112 18.5316 127.068 18.5181C127.023 18.5047 126.983 18.5114 126.942 18.5316L126.365 18.8517C126.324 18.8719 126.3 18.9056 126.286 18.946C125.996 19.8591 125.553 21.0821 124.962 22.6084C124.942 22.6556 124.945 22.7028 124.972 22.7499L125.467 23.6226C125.501 23.6866 125.556 23.7135 125.624 23.7068C125.696 23.7068 125.744 23.6731 125.768 23.6024C126.355 22.1334 126.778 20.9979 127.034 20.2028C127.382 20.6778 127.781 20.9979 128.235 21.163C128.686 21.3281 129.15 21.3247 129.624 21.1529L130.051 21.9042C130.075 21.9447 130.109 21.9716 130.15 21.9851C130.191 21.9986 130.235 21.9919 130.276 21.9683L130.74 21.7122C130.778 21.692 130.805 21.6583 130.819 21.6145Z" fill="#0B66FA"/>
<path d="M143.604 14.1546C144.498 12.6216 144.891 11.8602 145.57 10.3608C143.583 9.90262 142.628 9.62971 140.805 9.00977C141.959 11.0515 142.519 12.0792 143.604 14.1546Z" fill="#0B66FA"/>
<path d="M129.91 7.84427C130.756 6.55046 131.125 5.90693 131.756 4.63672C133.173 5.57338 133.93 6.01138 135.534 6.81327C133.278 7.34224 132.149 7.54777 129.91 7.84427Z" fill="#0B66FA"/>
<path d="M123.618 34.4844C121.512 35.9332 120.399 36.6407 118.061 38.0221C116.16 36.8833 115.263 36.2802 113.57 35.0235C116.925 35.0032 120.28 34.8247 123.618 34.4844Z" fill="#0B66FA"/>
<path d="M110.794 24.6025C108.77 25.7548 107.702 26.3141 105.453 27.3856C106.664 28.8546 107.327 29.5688 108.76 30.9536C109.61 28.4098 110.016 27.1396 110.794 24.6025Z" fill="#0B66FA"/>
<path d="M148.039 9.3457C142.452 23.2979 129.998 33.0856 117.384 40.6125C111.415 36.9232 105.999 32.7251 101.859 27.0276" stroke="#0B66FA" stroke-width="0.8179"/>
<path d="M114.961 13.0469C110.443 2.7302 81.7527 -1.72061 70.7956 9.34745C52.0101 28.3232 55.0244 36.2545 49.3281 68.5826" stroke="#0B66FA" stroke-width="3" stroke-dasharray="6 5"/>
<g style="mix-blend-mode:multiply">
<path d="M132.406 69.3227C141.433 71.6643 163.126 63.8712 163.126 63.8712L159.105 58.7432C150.723 61.3645 142.191 63.2007 133.406 64.4372C133.034 66.0579 132.699 67.6852 132.406 69.3227Z" fill="#C9C9C9"/>
</g>
<path d="M20.3281 89.5987C20.3281 90.6062 20.8469 91.4956 21.6353 92.0145C22.1029 92.3211 22.6592 92.4997 23.2632 92.4997H88.9924C90.6135 92.4997 91.9309 91.2025 91.9309 89.5987C91.9309 89.0934 91.8012 88.625 91.5726 88.2106C91.3439 87.7962 91.0163 87.4458 90.6204 87.1863C90.1528 86.8797 89.5965 86.7012 88.9924 86.7012H23.2667C21.6421 86.7012 20.3281 87.9983 20.3281 89.5987Z" fill="#3648CE"/>
<path d="M20.3281 89.5986C20.3281 90.606 20.8469 91.4955 21.6353 92.0144C22.1029 92.321 22.6592 92.4996 23.2632 92.4996H88.9924C90.6135 92.4996 91.9309 91.2024 91.9309 89.5986H20.3281Z" fill="#D7DBF8"/>
<path d="M77.9957 81.8563C78.0947 81.9237 78.2073 81.9742 78.3302 82.0113C78.453 82.0484 78.5725 82.0652 78.6954 82.0652H79.9479C80.0435 82.0652 80.1322 82.0046 80.1595 81.9102C80.1868 81.8159 80.1493 81.7182 80.0674 81.6643L75.2825 78.5881C75.1664 78.514 75.0401 78.4567 74.8968 78.4197C74.7569 78.3826 74.6169 78.3725 74.4804 78.3826L73.5214 78.4534C73.4293 78.4601 73.3473 78.5241 73.3235 78.6151C73.2996 78.706 73.3371 78.8038 73.4156 78.8509L77.9957 81.8563Z" fill="#2939B4"/>
<path d="M121.508 44.2379C123.777 48.089 126.347 51.7042 129.122 55.178C130.668 57.1086 132.272 58.9953 133.924 60.8552C148.473 58.591 160.203 52.0984 168.298 39.7838C163.176 36.7413 158.305 33.4664 153.964 29.3828C150.548 33.7393 146.647 37.0311 142.302 39.3997C136.204 42.7218 129.238 44.2143 121.508 44.2379Z" fill="#C9F0DF"/>
<path d="M168.298 39.7842C160.203 52.1023 148.469 58.5915 133.92 60.8557C129.295 55.6535 125.039 50.2323 121.504 44.2418" stroke="#0B66FA" stroke-width="0.8383"/>
<path fill-rule="evenodd" clip-rule="evenodd" d="M134.283 59.8006C147.938 57.4657 158.856 51.4549 166.825 40.1274C162.286 37.3073 157.951 34.3255 154.027 30.7002C145.982 40.4408 135.706 44.6524 123.109 45.1106C126.355 50.3767 130.181 55.1611 134.283 59.8006Z" stroke="#0B66FA" stroke-width="1.4999"/>
<path d="M148.267 52.4085C146.475 52.4085 144.537 51.9469 142.95 51.1417C141.107 50.2084 139.66 48.4463 139.424 46.856C139.274 45.8351 139.625 44.9119 140.468 44.1167C142.055 42.6174 144.352 41.7549 146.769 41.7549C147.943 41.7549 149.11 41.9671 150.141 42.3681C151.919 43.0588 153.461 44.5615 154.076 46.1956C154.393 47.0446 154.618 48.3485 153.881 49.7535C152.53 51.9469 150.086 52.4085 148.267 52.4085Z" fill="#C9F0DF"/>
<path fill-rule="evenodd" clip-rule="evenodd" d="M148.267 52.4085C146.475 52.4085 144.537 51.9469 142.95 51.1417C141.107 50.2084 139.66 48.4463 139.424 46.856C139.274 45.8351 139.625 44.9119 140.468 44.1167C142.055 42.6174 144.352 41.7549 146.769 41.7549C147.943 41.7549 149.11 41.9671 150.141 42.3681C151.919 43.0588 153.461 44.5615 154.076 46.1956C154.393 47.0446 154.618 48.3485 153.881 49.7535C152.53 51.9469 150.086 52.4085 148.267 52.4085Z" stroke="#0B66FA" stroke-width="1.9048"/>
<path d="M148.52 48.4892C148.54 48.4555 148.544 48.4184 148.533 48.3746L148.342 47.6098C148.581 47.4986 148.776 47.3504 148.922 47.1617L149.185 48.2062C149.195 48.2466 149.219 48.2803 149.253 48.3005C149.288 48.3207 149.325 48.3241 149.369 48.314L149.834 48.1994C149.875 48.1893 149.909 48.1657 149.929 48.1354C149.95 48.1017 149.953 48.0647 149.943 48.0209L149.008 44.2911C148.997 44.2506 148.974 44.2169 148.939 44.1967C148.905 44.1765 148.868 44.1731 148.823 44.1833L148.219 44.3315C148.178 44.3416 148.151 44.3652 148.127 44.3989C148.107 44.4359 148.1 44.473 148.11 44.5101L148.274 45.1603C148.431 45.7904 148.363 46.2318 148.062 46.4878L147.598 44.6381C147.588 44.5977 147.564 44.564 147.53 44.5438C147.496 44.5236 147.458 44.5202 147.414 44.5303L146.95 44.6448C146.909 44.655 146.875 44.6785 146.854 44.7122C146.834 44.7459 146.83 44.783 146.841 44.8268L147.318 46.7405C147.052 46.7338 146.827 46.6293 146.636 46.4205C146.445 46.2116 146.301 45.9117 146.202 45.5141L146.076 45.0121C146.066 44.9717 146.042 44.9447 146.008 44.9211C145.97 44.9009 145.933 44.8942 145.895 44.9043L145.318 45.0458C145.277 45.0559 145.25 45.0761 145.23 45.1098C144.755 45.8342 144.079 46.7877 143.196 47.9737C143.165 48.0107 143.158 48.0512 143.168 48.0983L143.387 48.971C143.404 49.035 143.441 49.0721 143.499 49.0822C143.561 49.099 143.612 49.0788 143.649 49.0249C144.513 47.8895 145.155 47.0033 145.567 46.3733C145.755 46.8652 146.025 47.2392 146.376 47.4885C146.728 47.7378 147.131 47.8457 147.585 47.8086L147.772 48.5599C147.782 48.6004 147.806 48.6341 147.84 48.6543C147.875 48.6745 147.912 48.6779 147.957 48.6678L148.421 48.5532C148.468 48.5431 148.499 48.5229 148.52 48.4892Z" fill="#0B66FA"/>
<path d="M162.822 44.1808C164.085 42.7185 164.669 41.9503 165.737 40.3566C164.041 39.3223 163.232 38.7967 161.703 37.7354C162.167 40.3162 162.392 41.6066 162.822 44.1808Z" fill="#0B66FA"/>
<path d="M151.297 35.0497C152.536 33.8064 153.116 33.1494 154.177 31.7646C155.348 32.8327 155.972 33.3718 157.303 34.4432C154.911 34.8138 153.703 34.9351 151.297 35.0497Z" fill="#0B66FA"/>
<path d="M140.099 57.8288C138.027 58.3612 136.959 58.5802 134.781 58.9003C133.259 57.2392 132.543 56.4137 131.191 54.7695C134.14 55.9016 137.072 56.9056 140.099 57.8288Z" fill="#0B66FA"/>
<path opacity="0.63" d="M129.591 45.4033C127.649 45.6661 126.653 45.747 124.629 45.7908C125.635 47.3541 126.171 48.1493 127.328 49.7564C128.246 48.028 128.697 47.1553 129.591 45.4033Z" fill="#0B66FA"/>
<g style="mix-blend-mode:multiply">
<path d="M121.508 44.2387C123.777 48.0897 126.347 51.705 129.122 55.1787C135.221 51.7825 143.753 45.583 146.835 42.3822C145.033 41.5163 143.429 40.337 142.299 39.4004C136.204 42.7225 129.238 44.2151 121.508 44.2387Z" fill="#C9C9C9"/>
</g>
</g>
<defs>
<clipPath id="clip0_781_34032">
<rect width="184" height="92" fill="white" transform="translate(0.488281 0.5)"/>
</clipPath>
</defs>
</svg>
