<svg width="9" height="14" viewBox="0 0 9 14" fill="none" xmlns="http://www.w3.org/2000/svg">
<g clip-path="url(#clip0_781_34193)">
<g clip-path="url(#clip1_781_34193)">
<path d="M2.20242 12.777C2.27978 12.8544 2.3847 12.8979 2.4941 12.8979C2.6035 12.8979 2.70842 12.8544 2.78578 12.777L8.27809 7.2847C8.35548 7.20734 8.39893 7.10242 8.39893 6.99302C8.39893 6.88362 8.35548 6.77869 8.27809 6.70133L2.78578 1.209C2.74756 1.17078 2.70215 1.14049 2.65217 1.11987C2.6022 1.09925 2.54864 1.08871 2.49458 1.08887C2.44052 1.08902 2.38702 1.09986 2.33716 1.12076C2.28731 1.14167 2.24207 1.17222 2.20407 1.21066L0.356166 3.05856C0.317721 3.09657 0.287173 3.1418 0.266271 3.19166C0.245369 3.24152 0.234531 3.29501 0.234377 3.34907C0.234223 3.40313 0.244756 3.4567 0.265373 3.50667C0.28599 3.55664 0.316283 3.60205 0.35451 3.64027L3.515 6.80077C3.56643 6.8522 3.59532 6.92194 3.59532 6.99467C3.59532 7.0674 3.56643 7.13716 3.515 7.18858L0.356173 10.3474C0.278813 10.4248 0.235352 10.5297 0.235352 10.6391C0.235352 10.7485 0.278811 10.8534 0.356171 10.9308L2.20242 12.777Z" fill="#46BE88"/>
</g>
</g>
<defs>
<clipPath id="clip0_781_34193">
<rect width="8.59" height="12.17" fill="white" transform="translate(0 0.90918)"/>
</clipPath>
<clipPath id="clip1_781_34193">
<rect width="8.59" height="12.1692" fill="white" transform="translate(0 0.90918)"/>
</clipPath>
</defs>
</svg>
