<svg width="89" height="91" viewBox="0 0 89 91" fill="none" xmlns="http://www.w3.org/2000/svg">
<g clip-path="url(#clip0_781_29935)">
<path d="M20.8167 0.863281L21.7987 3.68928L19.8407 4.80528L18.3027 2.07928L20.8167 0.863281Z" fill="#0B66FA"/>
<path fill-rule="evenodd" clip-rule="evenodd" d="M43.4795 17.9278C42.8955 25.1838 36.5355 30.5908 29.2795 30.0068C22.0235 29.4218 16.6165 23.0628 17.2015 15.8068C17.7855 8.55076 24.1455 3.14376 31.4015 3.72776C38.6575 4.31276 44.0635 10.6718 43.4795 17.9278ZM35.7795 12.8688L35.2225 14.9298H33.5555C33.4877 15.4132 33.3555 15.8854 33.1625 16.3338C32.8575 17.0388 32.3635 17.6138 31.6805 18.0598C30.9975 18.5058 30.0985 18.8028 28.9855 18.9508L33.9645 24.8878V25.0438H30.5665L25.0755 18.5608L25.0645 16.7788H27.7145C28.3615 16.7788 28.8925 16.6598 29.3085 16.4228C29.7158 16.1939 30.0453 15.8484 30.2545 15.4308C30.3375 15.2708 30.4045 15.1048 30.4545 14.9298H24.7525L25.3205 12.8698H30.4005C30.3682 12.7745 30.3308 12.681 30.2885 12.5898C30.0961 12.1679 29.7714 11.8203 29.3635 11.5998C28.9405 11.3618 28.3795 11.2428 27.6815 11.2428H24.7635L25.3985 8.82576H35.7905L35.2225 10.8858H32.7925C33.1942 11.4803 33.4554 12.1584 33.5565 12.8688H35.7795Z" fill="#0B66FA"/>
<path d="M17.0228 6.40242L12.4418 3.60742L10.7168 7.27842L16.0218 8.96242L17.2788 6.58242L17.0228 6.40242ZM15.4698 13.9474L13.1618 15.0134L12.1948 12.4004L14.8548 11.9504L15.4698 13.9474Z" fill="#0B66FA"/>
<path d="M49.9685 27.3227L49.6155 29.4387L48.5575 28.7337L47.8515 27.6747L47.1465 25.5577L47.4985 23.4417L48.5575 21.6777L51.0275 20.9717L53.8495 21.3247V22.3827H55.6135L58.0835 23.0887L60.1995 24.1467L61.6105 25.9107V28.7337L60.5525 31.2037L59.8465 34.7307L60.1995 36.8477L58.0825 36.4947H56.3185L54.5545 36.8477V34.3777L55.2605 33.3197L55.9665 31.9087L55.2605 30.4977L53.8495 30.1447L53.1435 30.8507L52.4385 32.6137L51.3795 32.2617L52.4385 29.4387L52.7905 27.3227L51.3805 26.9697L49.9685 27.3227Z" fill="#24272C"/>
<path d="M61.1858 42.6559C61.2045 42.6561 61.2231 42.6523 61.2401 42.6447C61.2572 42.6371 61.2725 42.6259 61.2848 42.6119C61.298 42.5969 61.3076 42.5792 61.3128 42.5599C61.318 42.5407 61.3187 42.5205 61.3148 42.5009L59.9988 35.5069C59.9998 35.2969 60.0328 32.3509 60.9888 30.4819C61.6008 29.2879 62.4638 27.0049 61.3758 25.1239C60.3548 23.3579 57.8758 22.3579 54.0048 22.1529L54.1918 21.6679C54.2043 21.6362 54.2039 21.6008 54.1909 21.5693C54.1778 21.5378 54.1531 21.5126 54.1218 21.4989C54.0018 21.4489 51.1878 20.2959 49.1188 21.2969C48.2138 21.7339 47.5938 22.5209 47.2788 23.6349C46.2488 27.2589 48.8398 29.1419 49.3438 29.4679C49.2188 30.0779 48.4908 33.6629 48.1538 36.3259C48.0634 37.0392 48.2353 37.7611 48.6374 38.3571C49.0395 38.9531 49.6446 39.3827 50.3398 39.5659C51.5818 39.8869 52.6318 39.9609 53.4648 39.7829L53.6878 42.0959C53.6904 42.1271 53.7042 42.1563 53.7266 42.1782C53.749 42.2001 53.7786 42.2131 53.8098 42.2149L61.1798 42.6549H61.1878L61.1858 42.6559ZM53.9008 21.6959L53.6948 22.2269C53.6874 22.2463 53.6847 22.2672 53.6868 22.2879C53.689 22.3086 53.696 22.3284 53.7073 22.3459C53.7186 22.3633 53.7339 22.3779 53.7519 22.3883C53.7699 22.3987 53.7901 22.4048 53.8108 22.4059C57.6908 22.5859 60.1608 23.5449 61.1498 25.2559C62.1748 27.0289 61.3438 29.2159 60.7568 30.3629C59.7398 32.3499 59.7368 35.3909 59.7368 35.5199C59.7368 35.5279 59.7368 35.5359 59.7388 35.5439L61.0268 42.3849L53.9368 41.9609L53.7108 39.6109C53.7093 39.5919 53.7036 39.5736 53.6941 39.557C53.6847 39.5405 53.6718 39.5263 53.6562 39.5153C53.6407 39.5043 53.6229 39.4969 53.6042 39.4936C53.5855 39.4902 53.5662 39.491 53.5478 39.4959C52.7358 39.7039 51.6778 39.6419 50.4038 39.3119C49.7703 39.1454 49.219 38.7542 48.8525 38.2113C48.486 37.6684 48.3294 37.0107 48.4118 36.3609C48.7778 33.4659 49.6088 29.4729 49.6178 29.4329C49.6234 29.4055 49.6202 29.3771 49.6085 29.3517C49.5968 29.3264 49.5773 29.3054 49.5528 29.2919C49.4258 29.2199 46.4538 27.4899 47.5288 23.7069C47.8238 22.6689 48.3958 21.9369 49.2308 21.5339C50.9638 20.6959 53.3448 21.4899 53.8998 21.6969L53.9008 21.6959Z" fill="#24272C" stroke="#24272C" stroke-width="0.6"/>
<path d="M54.5497 37.124C54.5629 37.124 54.5761 37.122 54.5887 37.118C56.3083 36.5914 58.1237 36.4551 59.9027 36.719C59.9368 36.7236 59.9714 36.7147 59.9991 36.6941C60.0267 36.6736 60.0452 36.643 60.0507 36.609C60.0534 36.5919 60.0527 36.5745 60.0486 36.5577C60.0445 36.5409 60.0372 36.525 60.0269 36.5111C60.0167 36.4971 60.0038 36.4854 59.989 36.4764C59.9742 36.4675 59.9578 36.4616 59.9407 36.459C58.1786 36.1975 56.3808 36.3203 54.6707 36.819C54.6229 36.0025 54.6423 35.1834 54.7287 34.37C54.7324 34.3355 54.7223 34.301 54.7005 34.274C54.6787 34.247 54.6472 34.2297 54.6127 34.226C54.5782 34.2223 54.5437 34.2324 54.5167 34.2542C54.4897 34.2759 54.4724 34.3075 54.4687 34.342C54.3747 35.223 54.3587 36.118 54.4197 37.002C54.4222 37.0349 54.4369 37.0657 54.461 37.0883C54.485 37.1108 54.5167 37.1236 54.5497 37.124ZM52.5717 32.227C52.6157 32.241 52.6677 32.223 52.6997 32.179C52.9747 31.796 53.4347 31.592 53.8447 31.669C53.9067 31.681 53.9697 31.633 53.9847 31.563C54.0007 31.493 53.9627 31.425 53.9007 31.414C53.4077 31.321 52.8547 31.567 52.5237 32.027C52.4827 32.085 52.4877 32.167 52.5367 32.208C52.5467 32.218 52.5587 32.224 52.5717 32.228V32.227Z" fill="#24272C" stroke="#24272C" stroke-width="0.6"/>
<path d="M53.5769 39.753H53.5869C53.6214 39.7502 53.6534 39.734 53.676 39.7078C53.6986 39.6816 53.7101 39.6476 53.7079 39.613L53.3719 34.963C53.3708 34.9453 53.3661 34.9279 53.358 34.9121C53.3499 34.8963 53.3386 34.8823 53.3249 34.871C53.2769 34.83 52.1299 33.812 52.8889 31.406C53.0819 30.794 53.4689 30.457 54.0689 30.376C54.6619 30.296 55.2959 30.667 55.5739 31.259C55.8279 31.799 55.7899 32.506 55.4769 33.104C55.2009 33.63 54.7199 34.092 54.0869 34.441C54.0718 34.4493 54.0584 34.4605 54.0476 34.4739C54.0369 34.4873 54.0288 34.5027 54.024 34.5193C54.0192 34.5358 54.0176 34.5531 54.0195 34.5702C54.0214 34.5873 54.0266 34.6039 54.0349 34.619C54.0431 34.6341 54.0543 34.6475 54.0677 34.6582C54.0811 34.669 54.0966 34.6771 54.1131 34.6819C54.1296 34.6867 54.1469 34.6882 54.1641 34.6864C54.1812 34.6845 54.1978 34.6793 54.2129 34.671C54.8919 34.298 55.4079 33.798 55.7089 33.226C56.0649 32.547 56.1039 31.77 55.8109 31.148C55.4859 30.455 54.7379 30.022 54.0349 30.116C53.3329 30.211 52.8639 30.619 52.6399 31.328C51.8989 33.677 52.8879 34.813 53.1149 35.034L53.4479 39.633C53.4501 39.6659 53.4648 39.6967 53.489 39.7192C53.5131 39.7416 53.5449 39.7541 53.5779 39.754L53.5769 39.753ZM52.0629 30.607C51.8584 31.1277 51.7271 31.6743 51.6729 32.231L51.4129 32.202C51.4829 31.572 51.6159 31.018 51.8209 30.51C52.4879 28.856 52.7229 27.691 52.4629 27.313C52.0509 26.715 50.7029 27.091 50.1409 27.313L49.6149 29.437C49.6064 29.4705 49.585 29.4992 49.5554 29.517C49.5258 29.5348 49.4904 29.5402 49.4569 29.532C49.4233 29.5233 49.3946 29.5017 49.3768 29.472C49.359 29.4422 49.3537 29.4067 49.3619 29.373L49.9029 27.184C49.9077 27.164 49.9171 27.1454 49.9305 27.1297C49.9439 27.1141 49.9608 27.1019 49.9799 27.094C50.0629 27.06 52.0429 26.241 52.6779 27.164C53.0019 27.635 52.7949 28.794 52.0629 30.607ZM47.6309 32.11C47.662 32.1104 47.6922 32.0997 47.7161 32.0797C47.7399 32.0597 47.7558 32.0317 47.7609 32.001L48.2149 29.239C48.2188 29.2216 48.2192 29.2036 48.2159 29.1861C48.2126 29.1685 48.2058 29.1518 48.1959 29.137C48.1859 29.1222 48.1731 29.1096 48.1581 29.0999C48.1431 29.0902 48.1262 29.0837 48.1086 29.0808C48.091 29.0779 48.073 29.0786 48.0557 29.0828C48.0384 29.0871 48.0221 29.0949 48.0079 29.1057C47.9937 29.1165 47.9818 29.13 47.9731 29.1456C47.9643 29.1611 47.9588 29.1783 47.9569 29.196L47.5019 31.958C47.4986 31.9769 47.4996 31.9962 47.5047 32.0147C47.5097 32.0331 47.5188 32.0503 47.5312 32.0649C47.5436 32.0794 47.559 32.0911 47.5764 32.0991C47.5938 32.1071 47.6127 32.1112 47.6319 32.111L47.6309 32.11Z" fill="#24272C" stroke="#24272C" stroke-width="0.6"/>
<path d="M52.765 31.4966C52.7998 31.498 52.8337 31.4856 52.8593 31.4621C52.8849 31.4385 52.9001 31.4058 52.9015 31.3711C52.903 31.3363 52.8906 31.3024 52.867 31.2768C52.8435 31.2512 52.8108 31.236 52.776 31.2346L47.871 30.8736C47.8364 30.8705 47.802 30.8813 47.7754 30.9036C47.7487 30.926 47.7321 30.9579 47.729 30.9926C47.726 31.0272 47.7368 31.0616 47.7591 31.0882C47.7814 31.1148 47.8134 31.1315 47.848 31.1346L52.754 31.4956L52.765 31.4966Z" fill="#24272C" stroke="#24272C" stroke-width="0.6"/>
<path d="M64.3047 44.3525C64.3047 44.3525 64.6047 41.2515 60.9677 41.1825C56.5847 41.1005 51.1277 39.3135 51.3607 43.2995L64.3047 44.3525Z" fill="white"/>
<path d="M63.9511 43.3172C64.0171 43.3172 64.0741 43.2672 64.0811 43.1982C64.0861 43.1452 64.3241 42.8082 63.4711 41.8482C62.8711 41.1722 62.1211 40.6042 60.9111 40.5812C59.8861 40.5622 58.7951 40.4482 57.7411 40.3392C55.2441 40.0792 52.9461 40.3032 51.8531 41.3502C51.3841 41.8002 51.3191 41.8602 51.3701 42.7282C51.3719 42.7596 51.3851 42.7893 51.4071 42.8117C51.4292 42.8342 51.4587 42.8478 51.4901 42.8502L63.9401 43.3162L63.9511 43.3172ZM55.0511 40.5812C55.9861 40.5812 56.6181 40.4852 57.7131 40.5992C58.7731 40.7092 59.8701 40.8242 60.9061 40.8442C62.0391 40.8642 62.7251 41.4042 63.2731 42.0192C63.8991 42.7222 63.8281 42.7122 63.8251 43.0442L51.6251 42.5992C51.6031 41.8722 51.6431 41.9142 52.0331 41.5392C52.5861 41.0092 53.9081 40.5812 55.0511 40.5812Z" fill="#24272C" stroke="#24272C" stroke-width="0.6"/>
<path d="M36.1318 31.238C35.5938 34.742 34.8788 38.973 33.8618 41.642C31.2528 42.538 28.7678 42.331 26.7328 41.679C24.8918 41.089 23.4458 40.145 22.6328 39.359C23.7378 38.209 24.9378 37.331 25.8938 36.726C26.4168 36.396 26.8638 36.148 27.1788 35.985C27.3305 35.9061 27.4839 35.8304 27.6388 35.758L27.6618 35.748L27.6668 35.745M36.1318 31.238L27.4768 30.055C27.4768 30.055 27.0318 33.531 27.4658 35.287L27.6668 35.745M36.1318 31.238C36.5418 28.574 36.1918 26.616 35.6518 25.374L36.1318 31.238ZM36.1318 31.238L35.6518 25.374L36.1318 31.238ZM27.6668 35.745C27.7743 35.6974 27.8615 35.6125 27.9133 35.507C27.965 35.4015 27.978 35.2811 27.9498 35.167C27.7528 34.369 27.7498 33.127 27.8068 32.039C27.8404 31.4095 27.8937 30.7812 27.9668 30.155L27.9698 30.127L27.9708 30.12V30.119M27.6668 35.745L27.9718 30.118L27.6668 35.745ZM27.9718 30.118C27.9885 29.9866 27.9524 29.854 27.8714 29.7492C27.7904 29.6444 27.6712 29.576 27.5398 29.559M27.9718 30.118L27.5398 29.559L27.9718 30.118ZM27.5398 29.559H27.5348C27.4782 29.5489 27.4223 29.5345 27.3678 29.516C27.2457 29.477 27.1332 29.4126 27.0378 29.327C26.9382 29.2334 26.879 29.1046 26.8728 28.968C26.8578 28.783 26.9008 28.482 27.1328 28.024C27.3578 27.583 27.5798 27.399 27.7438 27.322C27.9031 27.2502 28.0832 27.2395 28.2498 27.292C28.4338 27.343 28.6098 27.442 28.7458 27.54C28.8129 27.5881 28.877 27.6402 28.9378 27.696L28.9458 27.703M27.5398 29.559L32.0838 27.135L32.1108 27.168L32.1268 27.188L32.1318 27.196L32.1338 27.198L31.7338 27.498L31.3318 27.796M28.9458 27.703C28.9998 27.7571 29.0655 27.7981 29.1378 27.8228C29.2101 27.8476 29.2871 27.8554 29.3629 27.8458C29.4387 27.8361 29.5113 27.8092 29.575 27.7671C29.6388 27.7251 29.6921 27.6689 29.7308 27.603C29.9428 27.241 30.1258 27.146 30.2308 27.12C30.3448 27.092 30.4878 27.114 30.6658 27.21C30.8438 27.304 31.0108 27.447 31.1408 27.58C31.2038 27.643 31.2538 27.7 31.2868 27.74L31.3238 27.785L31.3318 27.796M31.3318 27.796C31.3774 27.8575 31.4366 27.9076 31.5046 27.9426C31.5727 27.9776 31.6479 27.9965 31.7244 27.9978C31.8009 27.9992 31.8767 27.9829 31.9459 27.9504C32.0152 27.9178 32.076 27.8698 32.1238 27.81C32.3988 27.466 32.6248 27.354 32.7788 27.32C32.9377 27.2907 33.1019 27.3191 33.2418 27.4C33.4038 27.483 33.5498 27.61 33.6598 27.727C33.714 27.7839 33.7648 27.844 33.8118 27.907L33.8168 27.915V27.914C33.8795 28.0055 33.9709 28.0735 34.0764 28.1073C34.182 28.1412 34.2959 28.139 34.4001 28.1011C34.5042 28.0632 34.5929 27.9917 34.652 27.8979C34.7112 27.8042 34.7375 27.6934 34.7268 27.583L34.2298 27.633M31.3318 27.796L34.2298 27.633L31.3318 27.796ZM34.2298 27.633L34.7278 27.583V27.579L34.7268 27.57L34.7228 27.538C34.7029 27.3567 34.6782 27.176 34.6488 26.996C34.5772 26.5364 34.4848 26.0803 34.3718 25.629C34.3488 25.5389 34.3254 25.4489 34.3018 25.359C34.1898 24.924 34.0918 24.548 34.0858 24.234C34.0828 24.057 34.1128 23.964 34.1408 23.919L34.2298 27.633ZM35.6498 25.374C35.3798 24.751 35.0668 24.322 34.7928 24.07L35.6498 25.374ZM35.6498 25.374L34.7928 24.07L35.6498 25.374ZM34.7928 24.07C34.6938 23.9731 34.5787 23.8939 34.4528 23.836L34.7928 24.07ZM34.7928 24.07L34.4528 23.836L34.7928 24.07ZM34.4528 23.836C34.3698 23.803 34.3348 23.809 34.3338 23.809L34.4528 23.836Z" fill="white"/>
<path d="M36.1318 31.238C35.5938 34.742 34.8788 38.973 33.8618 41.642C31.2528 42.538 28.7678 42.331 26.7328 41.679C24.8918 41.089 23.4458 40.145 22.6328 39.359C23.7378 38.209 24.9378 37.331 25.8938 36.726C26.4168 36.396 26.8638 36.148 27.1788 35.985C27.3305 35.9061 27.4839 35.8304 27.6388 35.758L27.6618 35.748L27.6668 35.745M36.1318 31.238L27.4768 30.055C27.4768 30.055 27.0318 33.531 27.4658 35.287L27.6668 35.745M36.1318 31.238C36.5418 28.574 36.1918 26.616 35.6518 25.374L36.1318 31.238ZM27.6668 35.745C27.7743 35.6974 27.8615 35.6125 27.9133 35.507C27.965 35.4015 27.978 35.2811 27.9498 35.167C27.7528 34.369 27.7498 33.127 27.8068 32.039C27.8404 31.4095 27.8937 30.7812 27.9668 30.155L27.9698 30.127L27.9708 30.12V30.119M27.6668 35.745L27.9718 30.118M27.9718 30.118C27.9885 29.9866 27.9524 29.854 27.8714 29.7492C27.7904 29.6444 27.6712 29.576 27.5398 29.559M27.9718 30.118L27.5398 29.559M27.5398 29.559H27.5348C27.4782 29.5489 27.4223 29.5345 27.3678 29.516C27.2457 29.477 27.1332 29.4126 27.0378 29.327C26.9382 29.2334 26.879 29.1046 26.8728 28.968C26.8578 28.783 26.9008 28.482 27.1328 28.024C27.3578 27.583 27.5798 27.399 27.7438 27.322C27.9031 27.2502 28.0832 27.2395 28.2498 27.292C28.4338 27.343 28.6098 27.442 28.7458 27.54C28.8129 27.5881 28.877 27.6402 28.9378 27.696L28.9458 27.703C28.9998 27.7571 29.0655 27.7981 29.1378 27.8228C29.2101 27.8476 29.2871 27.8554 29.3629 27.8458C29.4387 27.8361 29.5113 27.8092 29.575 27.7671C29.6388 27.7251 29.6921 27.6689 29.7308 27.603C29.9428 27.241 30.1258 27.146 30.2308 27.12C30.3448 27.092 30.4878 27.114 30.6658 27.21C30.8438 27.304 31.0108 27.447 31.1408 27.58C31.2038 27.643 31.2538 27.7 31.2868 27.74L31.3238 27.785L31.3318 27.796M27.5398 29.559L32.0838 27.135L32.1108 27.168L32.1268 27.188L32.1318 27.196L32.1338 27.198L31.7338 27.498L31.3318 27.796M31.3318 27.796C31.3774 27.8575 31.4366 27.9076 31.5046 27.9426C31.5727 27.9776 31.6479 27.9965 31.7244 27.9978C31.8009 27.9992 31.8767 27.9829 31.9459 27.9504C32.0152 27.9178 32.076 27.8698 32.1238 27.81C32.3988 27.466 32.6248 27.354 32.7788 27.32C32.9377 27.2907 33.1019 27.3191 33.2418 27.4C33.4038 27.483 33.5498 27.61 33.6598 27.727C33.714 27.7839 33.7648 27.844 33.8118 27.907L33.8168 27.915V27.914C33.8795 28.0055 33.9709 28.0735 34.0764 28.1073C34.182 28.1412 34.2959 28.139 34.4001 28.1011C34.5042 28.0632 34.5929 27.9917 34.652 27.8979C34.7112 27.8042 34.7375 27.6934 34.7268 27.583L34.2298 27.633M31.3318 27.796L34.2298 27.633M34.2298 27.633L34.7278 27.583V27.579L34.7268 27.57L34.7228 27.538C34.7029 27.3567 34.6782 27.176 34.6488 26.996C34.5772 26.5364 34.4848 26.0803 34.3718 25.629C34.3488 25.5389 34.3254 25.4489 34.3018 25.359C34.1898 24.924 34.0918 24.548 34.0858 24.234C34.0828 24.057 34.1128 23.964 34.1408 23.919L34.2298 27.633ZM34.7928 24.07C35.0668 24.322 35.3798 24.751 35.6498 25.374L34.7928 24.07ZM34.7928 24.07C34.6938 23.9731 34.5787 23.8939 34.4528 23.836M34.7928 24.07L34.4528 23.836M34.4528 23.836C34.3698 23.803 34.3348 23.809 34.3338 23.809L34.4528 23.836Z" stroke="#24272C" stroke-linejoin="round"/>
<path d="M80.1758 87.8002C80.1758 87.8002 84.8088 85.2342 86.9888 75.2832L77.9648 75.7232L80.1758 87.8002Z" fill="white"/>
<path d="M82.784 90.5002L79.919 77.7302L87.165 75.5932C90.025 58.6062 81.433 45.8732 69.182 43.8272C56.93 41.7812 33.626 42.8772 33.626 42.8772L33.71 41.5012C33.71 41.5012 31.571 42.5702 28.363 42.0352C24.013 41.3102 23.433 38.7432 23.433 38.7432C21.249 40.4902 19.463 43.6352 17.833 46.9262C15.835 50.9582 18.489 55.7442 22.962 56.1522C30.149 56.8082 38.839 56.9452 38.839 56.9452L46.083 90.5002" stroke="#24272C"/>
<path d="M79.6025 77.4203L74.3105 54.4873M87.0085 75.6553C86.7735 77.4193 85.3855 81.9353 81.7165 85.8863" stroke="#24272C" stroke-linecap="round"/>
<path d="M43.8744 58.8105C43.8986 58.8105 43.9222 58.8038 43.9428 58.7912C43.9634 58.7786 43.9802 58.7605 43.9911 58.7389C44.0021 58.7174 44.0069 58.6933 44.005 58.6692C44.0031 58.6451 43.9946 58.622 43.9804 58.6025L43.0844 57.3725C42.7234 56.8775 42.2544 56.6055 41.7634 56.6055H39.1564C39.1216 56.6055 39.0883 56.6193 39.0638 56.6438C39.0392 56.6684 39.0254 56.7017 39.0254 56.7365C39.0254 56.7712 39.0392 56.8045 39.0638 56.8291C39.0883 56.8537 39.1216 56.8675 39.1564 56.8675H41.7624C42.1674 56.8675 42.5614 57.1025 42.8724 57.5275L43.7684 58.7575C43.7805 58.7743 43.7964 58.7879 43.8149 58.7973C43.8333 58.8067 43.8537 58.8106 43.8744 58.8105Z" fill="#24272C"/>
<path d="M43.8744 58.8105C43.8986 58.8105 43.9222 58.8038 43.9428 58.7912C43.9635 58.7786 43.9802 58.7605 43.9911 58.7389C44.0021 58.7174 44.0069 58.6933 44.005 58.6692C44.0031 58.6451 43.9946 58.622 43.9804 58.6025L43.0844 57.3725C42.7234 56.8775 42.2544 56.6055 41.7634 56.6055H39.1564C39.1216 56.6055 39.0883 56.6193 39.0638 56.6438C39.0392 56.6684 39.0254 56.7017 39.0254 56.7365C39.0254 56.7712 39.0392 56.8045 39.0638 56.8291C39.0883 56.8537 39.1216 56.8675 39.1564 56.8675H41.7624C42.1674 56.8675 42.5614 57.1025 42.8724 57.5275L43.7684 58.7575C43.7805 58.7743 43.7964 58.7879 43.8149 58.7973C43.8333 58.8067 43.8537 58.8106 43.8744 58.8105ZM43.8744 58.8105L43.8734 58.8115" stroke="#24272C" stroke-width="0.6"/>
</g>
<defs>
<clipPath id="clip0_781_29935">
<rect width="96" height="91" fill="white" transform="translate(0.966797 0.5)"/>
</clipPath>
</defs>
</svg>
