<svg width="79" height="90" viewBox="0 0 79 90" fill="none" xmlns="http://www.w3.org/2000/svg">
<path d="M54.5637 42.7543C54.5214 42.7541 54.48 42.7423 54.4439 42.7203C54.4077 42.6983 54.3783 42.6668 54.3587 42.6293C53.1757 40.3943 51.9527 38.0833 50.9447 35.5393C50.6183 34.7038 50.5821 33.7829 50.8417 32.9243L52.5977 27.0823C52.7857 26.4573 52.9977 25.7483 53.4507 25.1843C53.5917 24.9951 53.7956 24.8625 54.0257 24.8103C54.5577 24.7063 55.0057 25.1243 55.1677 25.8743C55.3845 26.8771 55.3212 27.9202 54.9847 28.8893C54.9597 28.9613 54.9347 29.0333 54.9077 29.1053C54.7017 29.6723 54.5077 30.2063 54.8847 30.6293C54.9797 30.7363 55.1097 30.8193 55.2607 30.8703C55.8107 31.0563 56.3717 30.8823 56.9157 30.7123C56.9732 30.6986 57.0337 30.7073 57.0851 30.7365C57.1364 30.7657 57.1747 30.8134 57.1923 30.8698C57.2098 30.9263 57.2053 30.9872 57.1795 31.0404C57.1538 31.0936 57.1088 31.1351 57.0537 31.1563C56.4687 31.3373 55.8037 31.5443 55.1127 31.3093C54.892 31.2379 54.6938 31.11 54.5377 30.9383C53.9767 30.3063 54.2507 29.5513 54.4707 28.9473L54.5457 28.7373C54.8547 27.8483 54.9127 26.8913 54.7137 25.9713C54.6967 25.8913 54.5307 25.1843 54.1157 25.2653C53.9941 25.299 53.8876 25.3731 53.8137 25.4753C53.4167 25.9693 53.2267 26.6033 53.0427 27.2153L51.2867 33.0563C51.0567 33.815 51.0884 34.6289 51.3767 35.3673C52.3747 37.8873 53.5917 40.1873 54.7687 42.4133C54.7875 42.4487 54.7969 42.4883 54.7958 42.5284C54.7948 42.5684 54.7834 42.6075 54.7627 42.6419C54.7421 42.6762 54.7129 42.7046 54.678 42.7243C54.6431 42.744 54.6038 42.7544 54.5637 42.7543ZM23.1337 3.53234C23.0801 3.53933 23.0259 3.52691 22.9807 3.49734L19.1817 1.04134C18.9587 0.898341 18.7587 0.780341 18.5647 0.789341C18.5032 0.792339 18.443 0.770884 18.3973 0.729663C18.3516 0.688443 18.3241 0.630805 18.3207 0.569341C18.3189 0.538885 18.3233 0.508386 18.3334 0.479618C18.3436 0.45085 18.3593 0.424388 18.3798 0.401774C18.4003 0.37916 18.4251 0.360844 18.4527 0.347894C18.4803 0.334943 18.5102 0.327617 18.5407 0.32634C18.9007 0.30834 19.2087 0.50634 19.4337 0.65234L23.2327 3.10634C23.2725 3.13244 23.3034 3.17012 23.3212 3.21431C23.339 3.25849 23.3428 3.30706 23.3321 3.35348C23.3214 3.39989 23.2968 3.44192 23.2615 3.4739C23.2262 3.50588 23.1809 3.52627 23.1337 3.53234ZM20.1937 8.84234C20.1635 8.84196 20.1336 8.83585 20.1057 8.82434C19.5918 8.61249 19.0587 8.45074 18.5137 8.34134C18.4534 8.32914 18.4003 8.29347 18.3663 8.24218C18.3494 8.21678 18.3378 8.18832 18.3319 8.1584C18.3261 8.12849 18.3262 8.09772 18.3322 8.06784C18.3382 8.03796 18.3501 8.00957 18.3671 7.98428C18.3841 7.95899 18.406 7.9373 18.4314 7.92045C18.4826 7.88641 18.5454 7.87414 18.6057 7.88634C19.1799 8.00071 19.7416 8.17085 20.2827 8.39434C20.3323 8.41507 20.3732 8.45232 20.3985 8.49978C20.4238 8.54725 20.4319 8.60199 20.4214 8.65474C20.4109 8.70749 20.3825 8.75499 20.341 8.78918C20.2995 8.82338 20.2475 8.84216 20.1937 8.84234ZM21.8167 20.7803C21.7719 20.7804 21.7281 20.7676 21.6905 20.7433C21.6529 20.7191 21.6231 20.6845 21.6047 20.6437C21.5863 20.6029 21.5801 20.5576 21.5869 20.5134C21.5936 20.4692 21.613 20.4278 21.6427 20.3943C22.5928 19.3157 23.6653 18.3516 24.8387 17.5213C24.8889 17.4895 24.9494 17.4782 25.0077 17.4897C25.066 17.5012 25.1177 17.5347 25.1521 17.5832C25.1864 17.6317 25.2009 17.6915 25.1924 17.7503C25.184 17.8091 25.1533 17.8625 25.1067 17.8993C23.9628 18.7093 22.9171 19.6496 21.9907 20.7013C21.9688 20.7259 21.942 20.7456 21.912 20.7592C21.8821 20.7728 21.8496 20.78 21.8167 20.7803ZM32.6607 22.4453C32.6261 22.4452 32.592 22.4373 32.5608 22.4224C32.5296 22.4074 32.5022 22.3857 32.4804 22.3588C32.4587 22.3319 32.4432 22.3004 32.4352 22.2668C32.4271 22.2332 32.4266 22.1982 32.4337 22.1643L32.7917 20.5243C32.7959 20.4924 32.8067 20.4617 32.8234 20.4342C32.84 20.4066 32.8622 20.3828 32.8885 20.3643C32.9149 20.3458 32.9447 20.3329 32.9763 20.3265C33.0078 20.3201 33.0404 20.3203 33.0719 20.3271C33.1033 20.3339 33.133 20.3471 33.1591 20.366C33.1852 20.3848 33.2071 20.4089 33.2235 20.4366C33.2398 20.4644 33.2502 20.4952 33.254 20.5271C33.2579 20.5591 33.255 20.5915 33.2457 20.6223L32.8877 22.2623C32.8765 22.3142 32.8478 22.3607 32.8065 22.394C32.7652 22.4273 32.7137 22.4454 32.6607 22.4453ZM36.1067 3.18734C36.0802 3.18803 36.0538 3.18397 36.0287 3.17534C35.9707 3.15452 35.9232 3.11164 35.8966 3.05603C35.87 3.00042 35.8665 2.93657 35.8867 2.87834L36.5817 0.906341C36.5917 0.877491 36.6073 0.850906 36.6276 0.828123C36.6479 0.80534 36.6726 0.786811 36.7001 0.773607C36.7276 0.760402 36.7575 0.752785 36.788 0.751194C36.8184 0.749604 36.8489 0.754072 36.8777 0.764341C36.9065 0.774216 36.9331 0.789717 36.9558 0.809942C36.9786 0.830167 36.9971 0.854714 37.0104 0.882158C37.0236 0.909602 37.0312 0.939397 37.0328 0.969813C37.0344 1.00023 37.0299 1.03066 37.0197 1.05934L36.3257 3.03334C36.3096 3.07874 36.2798 3.11798 36.2404 3.14559C36.2009 3.1732 36.1538 3.1878 36.1057 3.18734H36.1067ZM43.2617 6.10034C43.2097 6.10043 43.1593 6.08301 43.1185 6.0509C43.0776 6.01878 43.0488 5.97384 43.0367 5.92334C43.0292 5.89379 43.0277 5.86305 43.0321 5.8329C43.0366 5.80275 43.047 5.77377 43.0627 5.74765C43.0784 5.72153 43.0991 5.69878 43.1237 5.6807C43.1482 5.66263 43.1761 5.64959 43.2057 5.64234L46.2557 4.87534C46.3131 4.86651 46.3716 4.87941 46.42 4.91151C46.4683 4.94361 46.503 4.9926 46.5171 5.04888C46.5312 5.10517 46.5239 5.16471 46.4964 5.21584C46.469 5.26697 46.4234 5.30602 46.3687 5.32534L43.3187 6.09234C43.3 6.09697 43.2809 6.10032 43.2617 6.10034Z" fill="#24272C" stroke="#24272C" stroke-width="0.5"/>
<path d="M61.2733 22.609C62.2343 20.425 61.9553 17.799 60.7273 15.752C59.5003 13.704 57.3963 12.231 55.0823 11.554C51.7223 10.572 47.8773 11.289 45.1763 13.491C42.4753 15.693 41.0333 19.338 41.6073 22.748C42.1823 26.158 44.7933 29.178 48.3313 29.824C49.3683 29.997 53.6413 29.881 57.8053 26.873C56.5393 25.608 56.3483 24.845 55.6963 23.25C55.6663 22.988 55.6003 22.646 55.6963 22.399C55.7933 22.155 56.0313 21.942 56.2983 21.957C56.5763 21.969 56.7833 22.201 56.9563 22.417C57.8223 23.492 58.6883 24.567 59.7213 25.506C60.3283 24.783 60.6913 23.928 61.2733 22.609Z" fill="#0B66FA"/>
<path d="M50.0209 16.9074C48.4249 17.1724 47.2569 18.9014 47.5299 20.4974C47.8029 22.0904 49.4029 23.3164 51.0199 23.2444C52.6359 23.1724 54.0919 21.8704 54.4279 20.2894C54.6459 19.2604 54.4089 18.1214 53.7049 17.3424C53.0009 16.5624 51.9199 16.5934 50.0209 16.9074Z" fill="white"/>
<path d="M47.3022 12.0804C40.6522 8.31143 34.0022 4.54643 27.2252 0.94043C25.2907 4.81071 23.2533 8.62874 21.1152 12.3904L25.9592 15.0834L30.2592 7.83643L33.1392 9.48843L31.0102 13.5154L35.4362 15.4874L37.4402 11.9024L44.0922 15.3664L47.3022 12.0804Z" fill="#0B66FA"/>
<path d="M9.62919 64.5107C8.37519 64.3567 7.64519 62.8777 7.83119 61.6277C8.01819 60.3777 8.84319 59.3327 9.63819 58.3497C9.06919 58.6967 8.48419 59.0497 7.83119 59.1797C7.17719 59.3067 6.43119 59.1697 5.99319 58.6687C5.45919 58.0527 5.54419 57.1237 5.75519 56.3357C6.32419 54.2107 7.55019 52.2707 9.17319 50.7867C11.9102 48.2847 16.0102 46.8287 16.0102 46.8287C14.3602 45.6507 13.4042 43.6257 13.3652 41.6027C13.3272 39.5767 14.1572 37.5817 15.4852 36.0527C16.8132 34.5247 18.6132 33.4447 20.5382 32.7087C21.1542 32.3773 21.867 32.2729 22.5522 32.4137C23.6202 31.9437 24.9042 31.9277 25.9362 32.4737C26.9662 33.0217 27.6922 34.1537 27.6502 35.3187C27.6372 35.6837 27.5492 36.0557 27.3342 36.3527C27.1202 36.6477 26.7642 36.8547 26.4002 36.8287C26.0602 36.8087 25.7562 36.5897 25.5502 36.3187C25.3432 36.0457 25.2182 35.7227 25.0462 35.4117C25.2102 36.3087 25.0462 37.2617 24.5932 38.0507C24.1323 38.8594 23.3796 39.4612 22.4892 39.7327C22.6472 41.0527 22.0072 42.4357 20.8292 43.0527C20.0212 42.7427 19.0472 42.5567 18.3422 43.0567C17.6432 43.5517 17.4942 44.5737 17.7782 45.3817C18.0622 46.1897 18.6842 46.8267 19.3082 47.4137C19.9232 47.9907 20.6422 48.5807 21.4332 48.5527C21.3003 51.0105 21.3347 53.4745 21.5362 55.9277C21.1532 55.9037 20.7192 55.8977 20.4492 56.1687C20.2342 56.3867 20.1922 56.7187 20.1642 57.0237C20.0545 58.2177 19.9925 59.4157 19.9782 60.6147C16.5512 60.4547 13.0832 61.8947 10.8232 64.4707C10.4312 64.5037 10.0362 64.5587 9.62919 64.5107Z" fill="#24272C"/>
<path d="M26.6373 34.2435L27.3823 35.2335C27.4673 35.3465 27.5653 35.4695 27.7043 35.4975C27.8903 35.5375 28.0643 35.3935 28.1703 35.2355C28.6213 34.5685 28.3423 33.6025 27.7463 33.0615C27.1503 32.5175 26.3283 32.3085 25.5333 32.1765C25.2013 32.1225 24.8633 32.0785 24.5303 32.1225C24.1963 32.1665 23.8643 32.3085 23.6543 32.5715L26.6373 34.2435Z" fill="#24272C"/>
<path d="M27.605 34.139L28.35 35.129C28.436 35.242 28.533 35.365 28.673 35.393C28.858 35.433 29.033 35.289 29.139 35.131C29.59 34.464 29.311 33.498 28.715 32.956C28.119 32.413 27.605 31.764 27.123 32C27.123 32 27.748 32 25.873 31.375C25.54 31.419 24.833 32.204 24.623 32.466L27.605 34.139Z" fill="#24272C"/>
<path d="M29.6152 35.4932H29.5962C29.5349 35.4878 29.4782 35.4584 29.4385 35.4114C29.3987 35.3643 29.3792 35.3035 29.3842 35.2422C29.4251 34.6598 29.3073 34.0772 29.0433 33.5565C28.7794 33.0358 28.3791 32.5964 27.8852 32.2852C26.8932 31.6792 25.5602 31.6811 24.5712 32.2951C24.5452 32.3112 24.5163 32.3219 24.4862 32.3268C24.456 32.3316 24.4252 32.3305 24.3955 32.3234C24.3658 32.3164 24.3377 32.3035 24.313 32.2856C24.2882 32.2677 24.2672 32.2452 24.2512 32.2192C24.2352 32.1932 24.2245 32.1642 24.2196 32.1341C24.2148 32.1039 24.2159 32.0731 24.2229 32.0434C24.23 32.0137 24.2428 31.9857 24.2607 31.9609C24.2786 31.9362 24.3012 31.9152 24.3272 31.8991C25.4622 31.1951 26.9892 31.1932 28.1272 31.8892C29.2672 32.5872 29.9572 33.9502 29.8472 35.2792C29.8427 35.3375 29.8162 35.392 29.7732 35.4317C29.7302 35.4714 29.6738 35.4933 29.6152 35.4932ZM22.0052 48.2912C21.9705 48.3103 21.9391 48.335 21.9122 48.3641C21.9358 48.36 21.958 48.3504 21.9772 48.3361C21.9902 48.3291 22.0002 48.3072 22.0052 48.2912ZM21.5312 55.7712C21.4724 55.7715 21.4157 55.7493 21.3727 55.7092C21.3297 55.669 21.3038 55.6139 21.3002 55.5552C21.1842 53.6432 21.0642 51.6672 21.1002 49.7132C21.1062 49.4002 21.1232 49.0632 21.2072 48.7472C19.7622 48.3912 18.4432 47.3141 17.7112 45.8692C17.3482 45.1511 17.2382 44.5352 17.3752 43.9832C17.5472 43.2932 18.1632 42.7072 18.9092 42.5262C19.5722 42.3642 20.3252 42.5012 20.9752 42.9002C21.0255 42.9333 21.0609 42.9848 21.0739 43.0436C21.0869 43.1024 21.0765 43.164 21.045 43.2153C21.0134 43.2666 20.9631 43.3036 20.9048 43.3185C20.8464 43.3334 20.7845 43.325 20.7322 43.2951C20.1862 42.9611 19.5622 42.8452 19.0192 42.9772C18.4362 43.1192 17.9572 43.5672 17.8262 44.0942C17.7172 44.5342 17.8152 45.0442 18.1262 45.6572C18.8092 47.0072 20.0412 48.0042 21.3822 48.3102C21.4322 48.2242 21.4892 48.1402 21.5582 48.0641C21.7652 47.8291 22.0382 47.7552 22.2522 47.8742C22.3852 47.9482 22.4652 48.0832 22.4722 48.2432C22.4761 48.336 22.4567 48.4284 22.4159 48.5118C22.375 48.5953 22.3139 48.6673 22.2382 48.7212C22.0592 48.8422 21.8492 48.8512 21.6652 48.8332C21.5852 49.1052 21.5712 49.4181 21.5652 49.7232C21.5292 51.6572 21.6482 53.6252 21.7642 55.5252C21.7712 55.6552 21.6742 55.7652 21.5462 55.7712H21.5312Z" fill="#24272C"/>
<path d="M28.853 49.0263C27.803 49.0263 26.753 48.8563 25.757 48.5153C25.6987 48.4954 25.6506 48.4531 25.6234 48.3978C25.5963 48.3425 25.5922 48.2786 25.612 48.2203C25.6319 48.1619 25.6742 48.1139 25.7295 48.0867C25.7848 48.0595 25.8487 48.0554 25.907 48.0753C27.7368 48.6962 29.716 48.7232 31.562 48.1523C32.446 47.8763 34.006 47.2003 34.513 45.7623C34.78 45.0073 34.718 44.0783 34.338 43.1443C33.988 42.2843 33.425 41.5143 32.881 40.7663L29.51 36.1363C29.492 36.1118 29.4789 36.084 29.4717 36.0545C29.4644 36.025 29.463 35.9944 29.4677 35.9643C29.4723 35.9343 29.4829 35.9055 29.4987 35.8796C29.5146 35.8536 29.5354 35.8311 29.56 35.8133C29.5846 35.7949 29.6126 35.7817 29.6423 35.7743C29.6721 35.767 29.703 35.7656 29.7333 35.7704C29.7636 35.7751 29.7926 35.7859 29.8186 35.802C29.8447 35.8181 29.8673 35.8393 29.885 35.8643L33.257 40.4943C33.817 41.2633 34.397 42.0573 34.767 42.9703C35.191 44.0083 35.257 45.0543 34.951 45.9183C34.376 47.5443 32.667 48.2943 31.7 48.5963C30.78 48.8843 29.816 49.0263 28.853 49.0263Z" fill="#24272C" stroke="#24272C" stroke-width="0.3"/>
<path d="M31.3216 52.3402C31.266 52.3405 31.2121 52.3208 31.1698 52.2846C31.1276 52.2484 31.0998 52.1982 31.0916 52.1432C30.9306 51.0721 30.8524 49.9902 30.8576 48.9072C30.8576 48.7792 30.9616 48.6772 31.0896 48.6772H31.0906C31.2186 48.6772 31.3226 48.7822 31.3216 48.9102C31.3169 49.9688 31.3938 51.0263 31.5516 52.0732C31.5563 52.1034 31.555 52.1342 31.5477 52.1639C31.5404 52.1936 31.5273 52.2216 31.5092 52.2462C31.4911 52.2708 31.4683 52.2916 31.4421 52.3074C31.4159 52.3232 31.3869 52.3337 31.3566 52.3382C31.3446 52.3402 31.3336 52.3402 31.3216 52.3402ZM31.7396 41.7272C31.6889 41.7271 31.6395 41.7105 31.5991 41.6798C31.5587 41.6491 31.5294 41.606 31.5156 41.5572C31.3591 40.9863 31.3794 40.3813 31.5736 39.8222C30.5166 39.6272 29.6426 39.1602 29.0896 38.4842C28.3456 37.5762 28.2566 36.2572 28.8826 35.4162C28.9203 35.3687 28.9751 35.3378 29.0352 35.33C29.0953 35.3223 29.1561 35.3382 29.2046 35.3745C29.2531 35.4109 29.2856 35.4646 29.2951 35.5245C29.3047 35.5844 29.2905 35.6456 29.2556 35.6952C28.7526 36.3682 28.8356 37.4412 29.4496 38.1922C29.9776 38.8352 30.8586 39.2672 31.9296 39.4072C31.9659 39.4126 32.0004 39.4262 32.0305 39.447C32.0607 39.4678 32.0857 39.4952 32.1036 39.5272C32.1213 39.5595 32.1311 39.5956 32.1321 39.6324C32.1332 39.6693 32.1255 39.7059 32.1096 39.7392C31.8603 40.2679 31.8082 40.8684 31.9626 41.4322C31.9724 41.4666 31.974 41.5029 31.9673 41.5381C31.9607 41.5733 31.946 41.6065 31.9244 41.6351C31.9028 41.6636 31.8749 41.6868 31.8428 41.7028C31.8108 41.7188 31.7754 41.7271 31.7396 41.7272ZM31.2926 44.1082C30.6834 44.1066 30.0987 43.8685 29.6616 43.4442C29.6242 43.3999 29.6045 43.3433 29.6066 43.2854C29.6086 43.2274 29.6322 43.1724 29.6727 43.1309C29.7132 43.0894 29.7677 43.0645 29.8255 43.061C29.8834 43.0576 29.9405 43.0758 29.9856 43.1122C30.3366 43.4552 30.8176 43.6522 31.3096 43.6432C31.7996 43.6392 32.2786 43.4342 32.6236 43.0862C32.6676 43.0466 32.7249 43.0253 32.7841 43.0266C32.8432 43.0279 32.8995 43.0518 32.9417 43.0933C32.9838 43.1347 33.0085 43.1908 33.0107 43.2498C33.0129 43.3089 32.9925 43.3666 32.9536 43.4112C32.5236 43.8482 31.9266 44.1012 31.3136 44.1082H31.2926ZM24.6206 40.4122C24.572 40.4122 24.5246 40.397 24.4852 40.3686C24.4457 40.3403 24.4161 40.3002 24.4006 40.2542C24.2795 39.8882 24.2429 39.4996 24.2937 39.1175C24.3444 38.7354 24.4812 38.3698 24.6936 38.0482C24.9122 37.7304 25.2 37.4662 25.5353 37.2755C25.8706 37.0848 26.2447 36.9726 26.6296 36.9472C26.6602 36.9455 26.6907 36.9498 26.7196 36.9599C26.7485 36.97 26.775 36.9857 26.7978 37.0061C26.8206 37.0265 26.8392 37.0511 26.8525 37.0787C26.8657 37.1062 26.8734 37.1361 26.8751 37.1667C26.8768 37.1972 26.8725 37.2278 26.8624 37.2566C26.8523 37.2855 26.8366 37.3121 26.8162 37.3349C26.7958 37.3577 26.7712 37.3762 26.7436 37.3895C26.7161 37.4028 26.6862 37.4105 26.6556 37.4122C26.3421 37.4326 26.0374 37.5238 25.7642 37.679C25.4911 37.8342 25.2567 38.0493 25.0786 38.3082C24.9056 38.5703 24.7942 38.8684 24.753 39.1798C24.7118 39.4913 24.7417 39.808 24.8406 40.1062C24.8521 40.1411 24.8552 40.1782 24.8497 40.2145C24.8441 40.2509 24.83 40.2853 24.8085 40.3152C24.7871 40.345 24.7589 40.3694 24.7262 40.3862C24.6936 40.4031 24.6574 40.412 24.6206 40.4122ZM20.0426 60.3362H20.0366C20.0062 60.3355 19.9762 60.3289 19.9484 60.3166C19.9205 60.3043 19.8954 60.2867 19.8744 60.2646C19.8534 60.2426 19.8369 60.2167 19.826 60.1883C19.8151 60.1599 19.8098 60.1296 19.8106 60.0992L19.8976 56.4242C19.8995 56.3625 19.9254 56.3041 19.97 56.2614C20.0145 56.2188 20.074 56.1953 20.1356 56.1962C20.2626 56.2012 20.3646 56.3062 20.3616 56.4362L20.2746 60.1102C20.2731 60.1706 20.2479 60.2281 20.2046 60.2703C20.1612 60.3126 20.1031 60.3362 20.0426 60.3362Z" fill="#24272C"/>
<path d="M20.3326 56.3057C20.2752 56.303 20.2207 56.2793 20.1796 56.2391C20.1386 56.1988 20.1137 56.1449 20.1099 56.0875C20.1061 56.0301 20.1235 55.9734 20.1589 55.928C20.1942 55.8827 20.245 55.8519 20.3016 55.8417C24.2475 55.313 28.0732 54.1101 31.6116 52.2857C31.6388 52.2716 31.6686 52.263 31.6991 52.2605C31.7296 52.258 31.7604 52.2616 31.7895 52.2711C31.8186 52.2806 31.8456 52.2958 31.8688 52.3158C31.892 52.3358 31.911 52.3603 31.9246 52.3877C31.9386 52.4146 31.9471 52.4441 31.9497 52.4744C31.9522 52.5046 31.9487 52.5351 31.9394 52.564C31.9301 52.5929 31.9152 52.6197 31.8955 52.6428C31.8758 52.6659 31.8517 52.6849 31.8246 52.6987C28.2384 54.5466 24.3619 55.7659 20.3636 56.3037L20.3326 56.3057ZM20.8556 60.7727C20.797 60.771 20.7412 60.7472 20.6993 60.7062C20.6574 60.6652 20.6325 60.6099 20.6296 60.5513C20.6267 60.4927 20.646 60.4352 20.6836 60.3903C20.7213 60.3453 20.7745 60.3161 20.8326 60.3087C25.0205 59.8779 29.0813 58.6202 32.7796 56.6087C32.3722 56.1787 32.0622 55.6661 31.8707 55.1056C31.6791 54.5452 31.6106 53.95 31.6696 53.3607C31.678 53.3009 31.7093 53.2467 31.757 53.2096C31.8046 53.1725 31.8649 53.1555 31.9249 53.1621C31.9849 53.1688 32.04 53.1986 32.0784 53.2451C32.1168 53.2917 32.1356 53.3515 32.1306 53.4117C32.0735 53.9814 32.1514 54.5565 32.3582 55.0905C32.565 55.6244 32.8947 56.102 33.3206 56.4847C33.3484 56.5095 33.3698 56.5405 33.3832 56.5753C33.3965 56.61 33.4015 56.6474 33.3976 56.6844C33.3937 56.7214 33.381 56.757 33.3607 56.7881C33.3404 56.8193 33.3129 56.8452 33.2806 56.8637C29.4476 58.9975 25.2199 60.3269 20.8556 60.7727Z" fill="#24272C" stroke="#24272C" stroke-width="0.5"/>
<path d="M21.4327 60.1383H21.4167C21.3554 60.1337 21.2984 60.105 21.2581 60.0586C21.2178 60.0121 21.1976 59.9516 21.2017 59.8903L21.4297 56.7563C21.429 56.7239 21.4351 56.6918 21.4475 56.6619C21.4599 56.632 21.4784 56.605 21.5019 56.5827C21.5253 56.5604 21.5531 56.5431 21.5836 56.5322C21.614 56.5212 21.6464 56.5167 21.6787 56.5189C21.711 56.5211 21.7425 56.5301 21.7711 56.5451C21.7998 56.5602 21.825 56.5811 21.8451 56.6064C21.8652 56.6318 21.8799 56.661 21.8881 56.6923C21.8962 56.7236 21.8978 56.7563 21.8927 56.7883L21.6647 59.9223C21.6607 59.9808 21.6346 60.0357 21.5917 60.0757C21.5488 60.1158 21.4924 60.1382 21.4337 60.1383H21.4327ZM24.9067 59.1953C24.8496 59.1951 24.7946 59.1739 24.7521 59.1357C24.7097 59.0975 24.6829 59.045 24.6767 58.9883L24.3897 56.3403C24.383 56.2788 24.4008 56.2171 24.4394 56.1688C24.478 56.1204 24.5342 56.0893 24.5957 56.0823C24.6569 56.0766 24.7179 56.0951 24.7658 56.1338C24.8136 56.1724 24.8444 56.2282 24.8517 56.2893L25.1377 58.9393C25.1444 59.0004 25.1266 59.0617 25.0882 59.1097C25.0497 59.1577 24.9938 59.1885 24.9327 59.1953H24.9067ZM28.2527 58.0333C28.1964 58.0331 28.1421 58.0125 28.0999 57.9753C28.0576 57.9382 28.0302 57.887 28.0227 57.8313L27.7027 55.4063C27.7007 55.3483 27.7203 55.2918 27.7578 55.2475C27.7953 55.2033 27.8479 55.1747 27.9054 55.1672C27.9629 55.1597 28.0211 55.1739 28.0687 55.207C28.1163 55.2401 28.1498 55.2898 28.1627 55.3463L28.4827 57.7713C28.4868 57.8015 28.4848 57.8322 28.4769 57.8617C28.4691 57.8912 28.4555 57.9188 28.4369 57.9429C28.4183 57.9671 28.3951 57.9874 28.3686 58.0025C28.3422 58.0177 28.313 58.0275 28.2827 58.0313C28.2727 58.0333 28.2627 58.0333 28.2527 58.0333ZM30.3897 56.7753C30.3389 56.7754 30.2895 56.7588 30.249 56.7281C30.2085 56.6974 30.1793 56.6542 30.1657 56.6053L29.7957 55.2673C29.7872 55.2379 29.7846 55.2072 29.7882 55.1768C29.7917 55.1465 29.8012 55.1171 29.8162 55.0905C29.8312 55.0639 29.8513 55.0405 29.8755 55.0218C29.8996 55.003 29.9272 54.9892 29.9567 54.9813C29.986 54.9729 30.0166 54.9704 30.0469 54.9739C30.0771 54.9774 30.1064 54.9869 30.133 55.0018C30.1596 55.0167 30.1829 55.0366 30.2018 55.0606C30.2206 55.0845 30.2345 55.1119 30.2427 55.1413L30.6127 56.4813C30.629 56.5405 30.6213 56.6039 30.5911 56.6574C30.5609 56.711 30.5108 56.7505 30.4517 56.7673C30.4314 56.7723 30.4106 56.7749 30.3897 56.7753ZM31.6827 56.9603C31.6412 56.9608 31.6004 56.9502 31.5644 56.9294C31.5285 56.9086 31.4989 56.8785 31.4787 56.8423C30.9375 55.8489 30.6951 54.7203 30.7807 53.5923C30.79 53.5347 30.8206 53.4826 30.8665 53.4465C30.9123 53.4104 30.9701 53.3927 31.0283 53.3971C31.0865 53.4015 31.1409 53.4276 31.1808 53.4703C31.2207 53.5129 31.2431 53.5689 31.2437 53.6273C31.1648 54.6651 31.3881 55.7036 31.8867 56.6173C31.9057 56.6527 31.9151 56.6924 31.9142 56.7325C31.9133 56.7727 31.9021 56.8119 31.8816 56.8464C31.861 56.8809 31.8319 56.9095 31.7971 56.9295C31.7623 56.9494 31.7229 56.96 31.6827 56.9603Z" fill="#24272C"/>
<path d="M1.10586 90.0601C1.09586 90.0601 1.08586 90.0601 1.07586 90.0581C1.01479 90.0501 0.959374 90.0183 0.92171 89.9696C0.884045 89.9209 0.8672 89.8592 0.874855 89.7981C1.61486 83.9161 3.15186 80.2561 5.44286 73.9261C6.71086 70.4241 8.25286 66.8051 10.9269 64.0761C13.8769 61.0651 17.9719 59.7361 21.3589 60.6891C21.4154 60.7082 21.4625 60.7483 21.4904 60.8011C21.5182 60.8539 21.5248 60.9154 21.5086 60.9729C21.4924 61.0304 21.4548 61.0795 21.4035 61.1101C21.3522 61.1406 21.2911 61.1503 21.2329 61.1371C18.0079 60.2271 14.0929 61.5081 11.2589 64.4001C8.64585 67.0671 7.12886 70.6301 5.87886 74.0841C3.60086 80.3811 2.07186 84.0091 1.33586 89.8561C1.32902 89.9123 1.30186 89.9641 1.2595 90.0017C1.21713 90.0392 1.16248 90.06 1.10586 90.0601ZM16.5739 89.4931C16.5383 89.4932 16.5032 89.4851 16.4713 89.4695C16.4394 89.4539 16.4114 89.4311 16.3897 89.403C16.3679 89.3749 16.353 89.3421 16.3459 89.3073C16.3388 89.2725 16.3398 89.2365 16.3489 89.2021L19.2939 77.9921C19.3122 77.9356 19.3516 77.8882 19.4037 77.8597C19.4559 77.8312 19.517 77.8237 19.5745 77.8388C19.632 77.8539 19.6816 77.8904 19.7131 77.9408C19.7446 77.9912 19.7556 78.0518 19.7439 78.1101L16.7989 89.3201C16.7858 89.3698 16.7566 89.4137 16.7159 89.445C16.6752 89.4763 16.6252 89.4932 16.5739 89.4931ZM35.2529 89.1001C35.2099 89.1002 35.1677 89.0883 35.131 89.0658C35.0944 89.0434 35.0647 89.0111 35.0453 88.9727C35.0259 88.9344 35.0175 88.8914 35.0212 88.8485C35.0248 88.8057 35.0403 88.7647 35.0659 88.7301C36.5815 86.673 37.5367 84.2574 37.8379 81.7201C37.8454 81.6589 37.8766 81.6031 37.9249 81.5648C37.9732 81.5265 38.0346 81.5086 38.0959 81.5151C38.157 81.5226 38.2126 81.5539 38.2508 81.6022C38.289 81.6505 38.3066 81.7119 38.2999 81.7731C37.9894 84.3912 37.0038 86.8836 35.4399 89.0061C35.4181 89.0349 35.39 89.0583 35.3578 89.0744C35.3255 89.0905 35.2899 89.099 35.2539 89.0991L35.2529 89.1001ZM62.2659 56.2301C63.3909 57.7271 64.5559 59.0321 65.6999 59.9291C65.9619 60.1361 66.6119 60.5821 66.9919 60.2791C67.3609 59.9871 67.0959 59.3251 66.8419 58.9761C65.7879 57.5201 64.0229 56.7951 62.2659 56.2301ZM62.7479 71.8701C57.5579 71.8701 52.3679 71.3341 47.3009 70.8111C47.2395 70.8048 47.1831 70.7744 47.1441 70.7266C47.1052 70.6788 47.0867 70.6175 47.0929 70.5561C47.0958 70.5257 47.1048 70.4962 47.1193 70.4693C47.1338 70.4424 47.1534 70.4186 47.1772 70.3994C47.2009 70.3801 47.2282 70.3658 47.2575 70.3571C47.2868 70.3485 47.3175 70.3458 47.3479 70.3491C54.4889 71.0851 61.8739 71.8471 69.1379 71.0951C71.3579 70.8621 73.8539 70.4121 75.5309 68.8161C77.0939 67.3271 77.8289 64.8861 77.4969 62.2821C77.2109 60.0451 76.2769 57.9821 74.9649 55.5741C71.7432 49.6671 67.8022 44.182 63.2319 39.2441C60.3969 40.2781 57.5279 41.6391 54.7479 42.9611C55.2079 44.1081 58.2489 50.6701 61.8009 55.5991C61.9849 55.6551 62.1689 55.7131 62.3519 55.7711C64.2029 56.3611 66.0739 57.1251 67.2189 58.7021C67.6739 59.3321 67.8419 60.2011 67.2809 60.6441C66.8239 61.0071 66.1609 60.8811 65.4129 60.2961C64.0929 59.2581 62.7579 57.7081 61.5149 55.9991C54.4248 53.8709 46.9227 53.504 39.6589 54.9301C37.7619 55.3041 35.6129 55.8701 34.0639 57.2531C34.0177 57.2925 33.958 57.3123 33.8975 57.3083C33.837 57.3042 33.7804 57.2766 33.74 57.2313C33.6996 57.1861 33.6785 57.1268 33.6813 57.0662C33.6841 57.0056 33.7105 56.9485 33.7549 56.9071C35.3879 55.4511 37.6099 54.8601 39.5699 54.4751C46.7102 53.0726 54.0815 53.3844 61.0779 55.3851C59.8279 53.6021 58.6849 51.6951 57.7629 50.0451C56.8547 48.4207 55.9989 46.7675 55.1969 45.0881C54.1429 42.8751 54.1849 42.8181 54.2779 42.6961C54.3065 42.6599 54.3446 42.6322 54.3879 42.6161C57.2759 41.2441 60.2609 39.8221 63.2179 38.7561C63.2606 38.74 63.3072 38.7369 63.3517 38.7472C63.3961 38.7575 63.4366 38.7808 63.4679 38.8141C68.1084 43.8105 72.1072 49.3664 75.3719 55.3531C76.5299 57.4761 77.6449 59.7781 77.9569 62.2231C78.3089 64.9721 77.5209 67.5641 75.8509 69.1531C74.0739 70.8461 71.4839 71.3181 69.1849 71.5571C67.0449 71.7771 64.8959 71.8701 62.7479 71.8701Z" fill="#24272C" stroke="#24272C" stroke-width="0.5"/>
<path d="M47.377 89.8988C47.3162 89.8986 47.258 89.8746 47.215 89.8318C47.1929 89.8107 47.1752 89.7855 47.1629 89.7575C47.1507 89.7295 47.1442 89.6994 47.1437 89.6688C47.1432 89.6383 47.1488 89.608 47.1602 89.5797C47.1716 89.5513 47.1885 89.5255 47.21 89.5038C49.6386 86.9782 50.9988 83.6127 51.007 80.1088C50.9909 76.6044 49.6224 73.2416 47.187 70.7218C47.1656 70.7 47.1488 70.6742 47.1375 70.6459C47.1262 70.6175 47.1207 70.5873 47.1211 70.5568C47.1216 70.5263 47.1281 70.4962 47.1402 70.4682C47.1524 70.4402 47.17 70.4149 47.192 70.3938C47.2137 70.3722 47.2396 70.3552 47.268 70.3437C47.2964 70.3322 47.3269 70.3266 47.3575 70.327C47.3882 70.3275 47.4184 70.3341 47.4465 70.3464C47.4745 70.3587 47.4999 70.3766 47.521 70.3988C50.0403 73.0052 51.4557 76.4839 51.472 80.1088C51.4639 83.7333 50.0567 87.2147 47.544 89.8268C47.5223 89.8493 47.4964 89.8672 47.4677 89.8796C47.439 89.892 47.4082 89.8985 47.377 89.8988ZM62.297 39.5278C62.2548 39.5275 62.2136 39.5153 62.178 39.4928C61.352 39.0008 61.238 37.8048 61.652 36.9988C62.065 36.1928 62.842 35.6838 63.538 35.2728L63.73 35.1588C64.353 34.7938 64.997 34.4158 65.426 33.8608C65.6633 33.5511 65.8305 33.1935 65.9159 32.8127C66.0014 32.432 66.0031 32.0373 65.921 31.6558C65.8349 31.2755 65.6672 30.9184 65.4294 30.6093C65.1916 30.3002 64.8895 30.0465 64.5439 29.8658C64.489 29.8374 64.4477 29.7884 64.4289 29.7295C64.4102 29.6706 64.4156 29.6067 64.444 29.5518C64.4723 29.4969 64.5214 29.4555 64.5802 29.4368C64.6391 29.418 64.7031 29.4234 64.758 29.4518C65.1636 29.6646 65.5182 29.9629 65.7972 30.3262C66.0762 30.6895 66.273 31.109 66.374 31.5558C66.4703 32.0038 66.4684 32.4673 66.3683 32.9145C66.2681 33.3616 66.0722 33.7817 65.7939 34.1458C65.3099 34.7708 64.626 35.1728 63.965 35.5608L63.775 35.6718C63.135 36.0508 62.422 36.5128 62.065 37.2098C61.748 37.8298 61.814 38.7358 62.417 39.0958C62.461 39.1217 62.4953 39.1614 62.5145 39.2088C62.5336 39.2562 62.5366 39.3086 62.5229 39.3579C62.5093 39.4072 62.4797 39.4505 62.4388 39.4813C62.3979 39.512 62.3481 39.5283 62.297 39.5278Z" fill="#24272C" stroke="#24272C" stroke-width="0.5"/>
<path d="M58.7638 32.0502C58.5278 32.0502 58.2868 32.0202 58.0558 31.9252C57.7535 31.7954 57.5148 31.5513 57.3918 31.2462C57.3462 31.1346 57.3239 31.0148 57.3263 30.8943C57.3288 30.7737 57.3558 30.6549 57.4058 30.5452C57.6448 30.0432 58.2318 29.9502 58.7038 29.8782C59.5258 29.7516 60.3167 29.4721 61.0358 29.0542C61.1918 28.9632 61.3458 28.8682 61.4998 28.7702C62.0158 28.4432 62.5498 28.1062 63.1798 28.0062C63.8598 27.8962 64.5798 28.0962 65.1068 28.5382C65.6328 28.9822 65.9538 29.6582 65.9638 30.3452C65.9646 30.4066 65.9411 30.4658 65.8983 30.5098C65.8556 30.5539 65.7972 30.5792 65.7358 30.5802H65.7318C65.671 30.5802 65.6126 30.5563 65.5692 30.5137C65.5258 30.4711 65.5009 30.4131 65.4998 30.3522C65.4942 30.0744 65.4297 29.8008 65.3103 29.5498C65.191 29.2988 65.0198 29.076 64.8078 28.8962C64.5937 28.7186 64.3445 28.5883 64.0765 28.5139C63.8085 28.4394 63.5278 28.4225 63.2528 28.4642C62.7178 28.5492 62.2468 28.8472 61.7468 29.1632C61.5888 29.2632 61.4298 29.3632 61.2688 29.4562C60.503 29.9008 59.6609 30.1985 58.7858 30.3342C58.3928 30.3962 57.9588 30.4642 57.8258 30.7442C57.8029 30.7971 57.7912 30.8541 57.7912 30.9117C57.7912 30.9693 57.8029 31.0263 57.8258 31.0792C57.9021 31.266 58.0486 31.4154 58.2338 31.4952C58.5958 31.6452 59.0358 31.5782 59.4238 31.5202C59.4851 31.5117 59.5472 31.5277 59.5967 31.5648C59.6461 31.6019 59.6789 31.657 59.6878 31.7182C59.6964 31.7789 59.6806 31.8406 59.6439 31.8897C59.6071 31.9388 59.5525 31.9713 59.4918 31.9802C59.2708 32.0132 59.0208 32.0502 58.7638 32.0502Z" fill="#24272C" stroke="#24272C" stroke-width="0.5"/>
<path d="M60.3709 33.4861C60.2939 33.4861 60.2179 33.4831 60.1409 33.4811C59.9569 33.4741 59.7429 33.4581 59.5479 33.3491C59.2979 33.2071 59.1589 32.9331 59.2129 32.6841C59.2689 32.4191 59.4969 32.2751 59.6339 32.1901L63.8579 29.5301C63.8836 29.5135 63.9123 29.5023 63.9424 29.4969C63.9724 29.4916 64.0032 29.4923 64.033 29.499C64.0628 29.5057 64.091 29.5183 64.1158 29.536C64.1407 29.5537 64.1618 29.5761 64.1779 29.6021C64.2459 29.7111 64.2139 29.8521 64.1049 29.9221L59.8819 32.5821C59.8119 32.6261 59.6819 32.7081 59.6669 32.7791C59.6569 32.8311 59.7069 32.9051 59.7769 32.9441C59.8799 33.0021 60.0279 33.0121 60.1589 33.0161C61.7032 33.0681 63.2105 32.5368 64.3809 31.5281C64.4276 31.4881 64.4883 31.4682 64.5496 31.4729C64.6109 31.4776 64.6679 31.5064 64.7079 31.5531C64.728 31.5761 64.7434 31.6029 64.7531 31.6318C64.7628 31.6608 64.7667 31.6914 64.7646 31.7219C64.7624 31.7523 64.7543 31.7821 64.7406 31.8094C64.727 31.8367 64.708 31.8611 64.6849 31.8811C63.4838 32.9124 61.9541 33.4815 60.3709 33.4861ZM57.6329 30.7891C57.6047 30.7893 57.5768 30.7835 57.5509 30.7721C57.2009 30.6421 56.8369 30.4921 56.5609 30.2061C56.2249 29.8551 56.1219 29.3531 56.3099 28.9791C56.5859 28.4311 57.2429 28.3921 57.7709 28.3571L57.9929 28.3431C58.7359 28.2801 59.4439 27.9271 60.1299 27.5861L60.1979 27.5531C60.9849 27.1601 61.7619 26.8101 62.6069 26.7961C63.4369 26.7861 64.4679 27.2021 64.7769 28.1501C64.7913 28.2073 64.7833 28.2678 64.7548 28.3194C64.7262 28.371 64.6792 28.4099 64.6231 28.4282C64.567 28.4464 64.5061 28.4428 64.4526 28.4179C64.3991 28.393 64.3571 28.3487 64.3349 28.2941C64.1099 27.6021 63.2939 27.2561 62.6139 27.2601C61.8659 27.2721 61.1419 27.6021 60.4039 27.9691L60.3369 28.0011C59.6119 28.3611 58.8629 28.7351 58.0319 28.8051C57.9569 28.8101 57.8789 28.8171 57.8009 28.8211C57.3479 28.8491 56.8809 28.8791 56.7249 29.1881C56.6119 29.4111 56.7249 29.7061 56.8949 29.8831C57.1039 30.0991 57.4139 30.2271 57.7129 30.3381C57.7632 30.3577 57.805 30.3941 57.8314 30.4411C57.8578 30.4881 57.8671 30.5428 57.8576 30.5959C57.8482 30.649 57.8206 30.6971 57.7797 30.7322C57.7387 30.7672 57.6868 30.788 57.6329 30.7891Z" fill="#24272C" stroke="#24272C" stroke-width="0.5"/>
<path d="M59.7794 28.2083C59.7439 28.2078 59.709 28.1993 59.6774 28.1833C57.6754 27.2033 56.1474 25.2373 55.6894 23.0533C55.5694 22.4853 55.6874 21.8513 56.2194 21.7213C56.7824 21.5843 57.1694 22.1833 57.3154 22.4083C58.6071 24.4014 60.5392 25.8951 62.7934 26.6433C62.8474 26.6661 62.8908 26.7083 62.915 26.7617C62.9393 26.8151 62.9425 26.8756 62.9241 26.9312C62.9056 26.9869 62.8669 27.0335 62.8157 27.0619C62.7644 27.0903 62.7043 27.0983 62.6474 27.0843C60.2928 26.3031 58.2747 24.743 56.9254 22.6613C56.6864 22.2913 56.4924 22.1313 56.3294 22.1713C56.0864 22.2313 56.0874 22.6873 56.1444 22.9593C56.5724 25.0053 58.0044 26.8473 59.8824 27.7673C59.9299 27.7902 59.9682 27.8286 59.991 27.8762C60.0137 27.9238 60.0196 27.9777 60.0076 28.0291C59.9956 28.0805 59.9665 28.1262 59.925 28.1588C59.8835 28.1914 59.8321 28.2088 59.7794 28.2083Z" fill="#24272C" stroke="#24272C" stroke-width="0.5"/>
<path d="M4.98108 57.7505C4.92445 57.7504 4.86981 57.7296 4.82744 57.692C4.78507 57.6544 4.75791 57.6027 4.75108 57.5465C4.43508 54.9305 5.91808 52.0265 8.52908 50.1485C10.8821 48.4545 13.8161 47.6505 16.4031 46.9405C16.4325 46.9324 16.4632 46.9302 16.4935 46.934C16.5238 46.9378 16.553 46.9475 16.5795 46.9626C16.606 46.9777 16.6293 46.9978 16.648 47.0219C16.6667 47.046 16.6805 47.0735 16.6886 47.103C16.6967 47.1324 16.6989 47.1631 16.6951 47.1934C16.6913 47.2236 16.6815 47.2528 16.6665 47.2794C16.6514 47.3059 16.6312 47.3291 16.6071 47.3479C16.583 47.3666 16.5555 47.3804 16.5261 47.3885C13.8521 48.1225 11.0861 48.8825 8.80008 50.5265C6.32408 52.3065 4.91608 55.0395 5.21208 57.4905C5.21599 57.5207 5.21385 57.5514 5.20578 57.5808C5.19771 57.6102 5.18387 57.6377 5.16508 57.6617C5.14628 57.6857 5.1229 57.7058 5.09629 57.7207C5.06968 57.7355 5.04037 57.745 5.01008 57.7485C5.00008 57.7505 4.99008 57.7505 4.98108 57.7505ZM21.2861 46.1455C21.2551 46.1454 21.2245 46.1392 21.196 46.1272C21.1675 46.1152 21.1417 46.0976 21.1201 46.0755C20.435 45.3774 19.5301 44.9369 18.5581 44.8285C18.5005 44.8177 18.4491 44.7857 18.4141 44.7388C18.379 44.6919 18.3629 44.6335 18.369 44.5753C18.375 44.5171 18.4028 44.4633 18.4467 44.4246C18.4907 44.3859 18.5475 44.3651 18.6061 44.3665C19.6858 44.4874 20.691 44.9761 21.4531 45.7505C21.5431 45.8435 21.5401 45.9905 21.4481 46.0805C21.4047 46.1226 21.3465 46.1459 21.2861 46.1455ZM27.1281 39.6305C27.0351 39.6005 26.9391 39.5675 26.8411 39.5645C26.7421 39.5645 26.6381 39.6025 26.5811 39.6815C26.5201 39.7695 26.5271 39.8905 26.5741 39.9855C26.6211 40.0805 26.7031 40.1555 26.7871 40.2205C26.9111 40.3175 27.0551 40.4035 27.2121 40.4005C27.3691 40.3985 27.5331 40.2735 27.5221 40.1175C27.5129 40.0061 27.4705 39.9001 27.4002 39.8132C27.3299 39.7263 27.2351 39.6626 27.1281 39.6305Z" fill="#24272C"/>
</svg>
