<svg width="72" height="91" viewBox="0 0 72 91" fill="none" xmlns="http://www.w3.org/2000/svg">
<g clip-path="url(#clip0_781_29914)">
<g clip-path="url(#clip1_781_29914)">
<path d="M24.7996 51.9699L26.7996 84.9699M35.3006 52.9999L42.7826 85.8999M42.9056 47.7719L35.5986 52.7949C35.4061 52.9273 35.1733 52.9882 34.9406 52.9669L24.6056 52.0269C24.4069 52.0087 24.2073 52.0505 24.0326 52.1469L14.7356 57.2609C14.6005 57.3352 14.4845 57.4398 14.3965 57.5664C14.3086 57.6931 14.2511 57.8383 14.2286 57.9909L9.55357 89.7809C9.52806 89.9547 9.54879 90.1322 9.61368 90.2954C9.67857 90.4587 9.78533 90.602 9.92321 90.7109C10.0611 90.8197 10.2252 90.8904 10.3991 90.9157C10.5729 90.9409 10.7504 90.92 10.9136 90.8549L26.5616 84.5949C26.7186 84.5324 26.8889 84.5107 27.0566 84.5319L42.3896 86.4489C42.5199 86.4651 42.6521 86.4556 42.7788 86.4208C42.9054 86.3859 43.0239 86.3265 43.1276 86.2459L55.9236 76.2929C56.0412 76.2012 56.1779 76.137 56.3236 76.105C56.4693 76.073 56.6203 76.0739 56.7656 76.1079L68.9516 78.9519C69.8196 79.1539 70.4986 78.2069 70.0286 77.4509L53.5006 50.8199C53.3717 50.6126 53.1714 50.4597 52.9376 50.3899L43.7596 47.6369C43.6163 47.5939 43.4651 47.5836 43.3173 47.6068C43.1695 47.63 43.0288 47.6871 42.9056 47.7719Z" stroke="black"/>
<path d="M55.8408 76.1998C55.8656 76.262 55.9028 76.3185 55.9499 76.366C55.9971 76.4135 56.0533 76.4511 56.1152 76.4765C56.1772 76.5019 56.2436 76.5146 56.3106 76.5139C56.3775 76.5131 56.4436 76.4989 56.505 76.4721C56.5664 76.4453 56.6217 76.4065 56.6678 76.3579C56.7138 76.3093 56.7497 76.2519 56.7731 76.1892C56.7966 76.1265 56.8073 76.0597 56.8045 75.9929C56.8016 75.926 56.7854 75.8603 56.7568 75.7998L55.8408 76.1998ZM43.3438 47.6998L55.8408 76.1998L56.7568 75.7998L44.2607 47.2998L43.3438 47.6998Z" fill="black"/>
<path d="M31.8088 11C20.5008 11 11.3008 20.2 11.3008 31.508C11.3008 40.625 17.3088 48.618 25.9928 51.178L30.4988 62.19C30.6205 62.4332 30.8075 62.6377 31.0389 62.7806C31.2703 62.9235 31.5368 62.9992 31.8088 62.9992C32.0807 62.9992 32.3473 62.9235 32.5787 62.7806C32.81 62.6377 32.997 62.4332 33.1188 62.19L37.6248 51.179C46.3088 48.619 52.3168 40.625 52.3168 31.508C52.3168 20.2 43.1168 11 31.8088 11Z" fill="#0B66FA"/>
<path d="M31.8008 45C38.9805 45 44.8008 39.1797 44.8008 32C44.8008 24.8203 38.9805 19 31.8008 19C24.6211 19 18.8008 24.8203 18.8008 32C18.8008 39.1797 24.6211 45 31.8008 45Z" fill="white"/>
<path fill-rule="evenodd" clip-rule="evenodd" d="M23.9648 32.3118C23.9648 31.3918 24.7108 30.6458 25.6318 30.6458H38.9648C39.8848 30.6458 40.6318 31.3918 40.6318 32.3118V34.7238C40.6318 35.6438 39.8858 36.3908 38.9648 36.3908H25.6318C24.7118 36.3908 23.9648 35.6448 23.9648 34.7238V32.3118ZM28.1318 33.5178C28.1318 34.1978 27.5718 34.7488 26.8818 34.7488C26.719 34.7502 26.5575 34.7194 26.4065 34.6583C26.2556 34.5972 26.1182 34.5069 26.0021 34.3927C25.886 34.2785 25.7936 34.1426 25.73 33.9926C25.6665 33.8427 25.6332 33.6817 25.6318 33.5188C25.6318 32.8388 26.1918 32.2868 26.8818 32.2868C27.5718 32.2868 28.1318 32.8378 28.1318 33.5178ZM37.7148 34.7488C38.4048 34.7488 38.9648 34.1988 38.9648 33.5188C38.9648 32.8388 38.4048 32.2868 37.7148 32.2868C37.0248 32.2868 36.4648 32.8378 36.4648 33.5178C36.4648 34.1978 37.0248 34.7488 37.7148 34.7488ZM36.4648 37.6448V38.0598C36.4648 38.3914 36.5965 38.7093 36.831 38.9437C37.0654 39.1781 37.3833 39.3098 37.7148 39.3098C38.0464 39.3098 38.3643 39.1781 38.5987 38.9437C38.8331 38.7093 38.9648 38.3914 38.9648 38.0598V37.6448H36.4648ZM25.6288 37.6448V38.0598C25.6288 38.3914 25.7605 38.7093 25.995 38.9437C26.2294 39.1781 26.5473 39.3098 26.8788 39.3098C27.2104 39.3098 27.5283 39.1781 27.7627 38.9437C27.9971 38.7093 28.1288 38.3914 28.1288 38.0598V37.6448H25.6288ZM29.2058 24.8818C28.1968 24.8818 27.2858 25.3718 26.8878 26.1278L25.2378 29.2658C25.2119 29.3156 25.1911 29.3678 25.1758 29.4218C25.3218 29.3808 25.4758 29.3578 25.6358 29.3578H27.0198L28.4328 26.6678C28.5658 26.4158 28.8698 26.2528 29.2058 26.2528H35.3968C35.7338 26.2528 36.0368 26.4158 36.1698 26.6688L37.5838 29.3588H38.9678C39.1278 29.3588 39.2818 29.3798 39.4278 29.4218C39.4123 29.3678 39.3911 29.3155 39.3648 29.2658L37.7148 26.1288C37.3178 25.3718 36.4058 24.8818 35.3968 24.8818H29.2058Z" fill="#0B66FA"/>
<path d="M40.2852 8.603L41.5762 2M52.6762 19.38L58.9822 17.035M48.0282 12.475L54.4812 5.7" stroke="#24272C" stroke-width="1.5" stroke-linecap="round"/>
</g>
</g>
<defs>
<clipPath id="clip0_781_29914">
<rect width="71" height="90" fill="white" transform="translate(0.300781 0.5)"/>
</clipPath>
<clipPath id="clip1_781_29914">
<rect width="80" height="91" fill="white" transform="translate(0.300781 0.5)"/>
</clipPath>
</defs>
</svg>
