<svg width="12" height="13" viewBox="0 0 12 13" fill="none" xmlns="http://www.w3.org/2000/svg">
<path fill-rule="evenodd" clip-rule="evenodd" d="M6 2C5.075 2 4.186 2.376 3.53 3.048C2.86826 3.72856 2.49865 4.64076 2.5 5.59C2.5 6.984 3.388 8.34 4.367 9.398C4.86886 9.93687 5.41512 10.4326 6 10.88C6.58488 10.4326 7.13114 9.93687 7.633 9.398C8.613 8.343 9.5 6.986 9.5 5.592C9.5 4.636 9.129 3.722 8.47 3.049C8.14906 2.71825 7.7652 2.45505 7.34101 2.2749C6.91681 2.09474 6.46086 2.00128 6 2ZM6 11.5L5.718 11.913L5.717 11.912L5.714 11.91L5.704 11.903C5.64532 11.8631 5.58764 11.8217 5.531 11.779C4.84843 11.2706 4.21318 10.7017 3.633 10.079C2.613 8.975 1.5 7.378 1.5 5.59C1.5 4.376 1.971 3.21 2.814 2.348C3.22834 1.92222 3.72366 1.58362 4.27081 1.35212C4.81796 1.12062 5.40589 1.0009 6 1C7.197 1 8.343 1.486 9.186 2.349C10.0301 3.21648 10.5017 4.37959 10.5 5.59C10.5 7.378 9.388 8.975 8.367 10.077C7.7382 10.7514 7.04489 11.3627 6.297 11.902L6.287 11.909L6.283 11.911C6.283 11.911 6.281 11.914 6 11.5ZM6 11.5L6.282 11.913C6.19891 11.9698 6.10062 12.0001 6 12.0001C5.89938 12.0001 5.80109 11.9698 5.718 11.913L6 11.5Z" fill="#24272C"/>
<path fill-rule="evenodd" clip-rule="evenodd" d="M6 4.5C5.73478 4.5 5.48043 4.60536 5.29289 4.79289C5.10536 4.98043 5 5.23478 5 5.5C5 5.76522 5.10536 6.01957 5.29289 6.20711C5.48043 6.39464 5.73478 6.5 6 6.5C6.26522 6.5 6.51957 6.39464 6.70711 6.20711C6.89464 6.01957 7 5.76522 7 5.5C7 5.23478 6.89464 4.98043 6.70711 4.79289C6.51957 4.60536 6.26522 4.5 6 4.5ZM4 5.5C4 4.96957 4.21071 4.46086 4.58579 4.08579C4.96086 3.71071 5.46957 3.5 6 3.5C6.53043 3.5 7.03914 3.71071 7.41421 4.08579C7.78929 4.46086 8 4.96957 8 5.5C8 6.03043 7.78929 6.53914 7.41421 6.91421C7.03914 7.28929 6.53043 7.5 6 7.5C5.46957 7.5 4.96086 7.28929 4.58579 6.91421C4.21071 6.53914 4 6.03043 4 5.5Z" fill="#24272C"/>
</svg>
