<svg width="250" height="50" viewBox="0 0 250 50" fill="none" xmlns="http://www.w3.org/2000/svg">
<path d="M182.468 19.7245C182.468 17.3721 182.565 15.1793 182.437 13.0022C182.344 11.4053 182.959 10.8834 184.437 11.0587C184.944 11.121 185.47 11.1093 185.981 11.0587C187.195 10.9458 187.702 11.3859 187.694 12.6984C187.648 20.8656 187.648 29.0329 187.694 37.2002C187.702 38.5049 187.195 39.0346 185.988 38.8204C184.754 38.5984 183.281 39.5409 182.259 38.0181C182.155 37.8623 181.242 38.2011 180.727 38.3803C176.251 39.9576 171.598 38.7191 168.863 35.2022C166.247 31.841 166.07 26.4585 168.456 22.7896C170.921 19.004 175.756 17.4928 180.418 19.0507C181.017 19.2493 181.617 19.4441 182.468 19.7206V19.7245ZM182.468 28.7369C182.468 27.7632 182.518 26.7895 182.449 25.8236C182.414 25.3485 182.29 24.7526 181.981 24.4449C179.381 21.8705 173.656 23.1207 172.24 26.5325C170.449 30.8518 173.644 34.7699 178.642 34.3843C181.501 34.1623 182.472 33.1263 182.472 30.2948C182.472 29.7768 182.472 29.2588 182.472 28.7408L182.468 28.7369Z" fill="#121212"/>
<path d="M182.468 19.7245C182.468 17.3721 182.565 15.1793 182.437 13.0022C182.344 11.4053 182.959 10.8834 184.437 11.0587C184.944 11.121 185.47 11.1093 185.981 11.0587C187.195 10.9458 187.702 11.3859 187.694 12.6984C187.648 20.8656 187.648 29.0329 187.694 37.2002C187.702 38.5049 187.195 39.0346 185.988 38.8204C184.754 38.5984 183.281 39.5409 182.259 38.0181C182.155 37.8623 181.242 38.2011 180.727 38.3803C176.251 39.9576 171.598 38.7191 168.863 35.2022C166.247 31.841 166.07 26.4585 168.456 22.7896C170.921 19.004 175.756 17.4928 180.418 19.0507C181.017 19.2493 181.617 19.4441 182.468 19.7206V19.7245ZM182.468 28.7369C182.468 27.7632 182.518 26.7895 182.449 25.8236C182.414 25.3485 182.29 24.7526 181.981 24.4449C179.381 21.8705 173.656 23.1207 172.24 26.5325C170.449 30.8518 173.644 34.7699 178.642 34.3843C181.501 34.1623 182.472 33.1263 182.472 30.2948C182.472 29.7768 182.472 29.2588 182.472 28.7408L182.468 28.7369Z" fill="#0085FF"/>
<path d="M22.229 39L19.8954 32.5923H8.50398L6.17033 39H0.395534L11.1541 10.9566H17.4826L28.162 39H22.229ZM14.1997 17.0083L10.3234 27.6086H18.0759L14.1997 17.0083Z" fill="#121212"/>
<path d="M239.447 38.9683C237.59 38.3023 235.482 40.0043 234.267 37.5779C228.298 39.9615 224.046 39.2137 221.021 35.2527C218.251 31.619 218.255 25.8742 221.037 22.1781C223.919 18.3457 228.422 17.5239 234.155 19.7945C235.621 17.89 237.594 19.2298 239.447 18.6651V38.9683ZM234.615 28.8109C234.615 24.2345 234.263 23.6854 230.747 23.257C229.811 23.144 228.809 23.1713 227.896 23.3933C225.188 24.0437 223.408 26.8985 223.907 29.6015C224.515 32.8964 226.948 34.6607 230.484 34.3686C233.834 34.0921 234.619 33.1496 234.619 29.3912C234.619 29.1964 234.619 29.0017 234.619 28.8109H234.615Z" fill="#121212"/>
<path d="M239.447 38.9683C237.59 38.3023 235.482 40.0043 234.267 37.5779C228.298 39.9615 224.046 39.2137 221.021 35.2527C218.251 31.619 218.255 25.8742 221.037 22.1781C223.919 18.3457 228.422 17.5239 234.155 19.7945C235.621 17.89 237.594 19.2298 239.447 18.6651V38.9683ZM234.615 28.8109C234.615 24.2345 234.263 23.6854 230.747 23.257C229.811 23.144 228.809 23.1713 227.896 23.3933C225.188 24.0437 223.408 26.8985 223.907 29.6015C224.515 32.8964 226.948 34.6607 230.484 34.3686C233.834 34.0921 234.619 33.1496 234.619 29.3912C234.619 29.1964 234.619 29.0017 234.619 28.8109H234.615Z" fill="#0085FF"/>
<path d="M239.447 38.9683C237.59 38.3023 235.482 40.0043 234.267 37.5779C228.298 39.9615 224.046 39.2137 221.021 35.2527C218.251 31.619 218.255 25.8742 221.037 22.1781C223.919 18.3457 228.422 17.5239 234.155 19.7945C235.621 17.89 237.594 19.2298 239.447 18.6651V38.9683ZM234.615 28.8109C234.615 24.2345 234.263 23.6854 230.747 23.257C229.811 23.144 228.809 23.1713 227.896 23.3933C225.188 24.0437 223.408 26.8985 223.907 29.6015C224.515 32.8964 226.948 34.6607 230.484 34.3686C233.834 34.0921 234.619 33.1496 234.619 29.3912C234.619 29.1964 234.619 29.0017 234.619 28.8109H234.615Z" fill="#121212"/>
<path d="M126.539 30.2677C127.282 35.0037 132.57 36.0436 137.077 32.3864C138.025 33.1381 139.011 33.9209 140.129 34.8089C137.414 38.4116 133.75 39.2489 129.688 38.8672C125.812 38.505 122.678 35.5918 121.58 31.5763C120.427 27.3661 121.858 22.8949 125.143 20.4412C128.423 17.9914 133.027 17.7422 136.404 19.8492C139.797 21.9641 140.756 25.3019 140.733 29.0174C140.733 29.4381 139.661 30.1898 139.069 30.2092C135.599 30.3222 132.121 30.2677 128.644 30.2677C127.951 30.2677 127.259 30.2677 126.535 30.2677H126.539ZM135.913 26.887C135.479 23.7712 133.924 22.4353 131.116 22.5522C128.566 22.6612 126.791 24.3321 126.59 26.887H135.913Z" fill="#121212"/>
<path d="M126.539 30.2677C127.282 35.0037 132.57 36.0436 137.077 32.3864C138.025 33.1381 139.011 33.9209 140.129 34.8089C137.414 38.4116 133.75 39.2489 129.688 38.8672C125.812 38.505 122.678 35.5918 121.58 31.5763C120.427 27.3661 121.858 22.8949 125.143 20.4412C128.423 17.9914 133.027 17.7422 136.404 19.8492C139.797 21.9641 140.756 25.3019 140.733 29.0174C140.733 29.4381 139.661 30.1898 139.069 30.2092C135.599 30.3222 132.121 30.2677 128.644 30.2677C127.951 30.2677 127.259 30.2677 126.535 30.2677H126.539ZM135.913 26.887C135.479 23.7712 133.924 22.4353 131.116 22.5522C128.566 22.6612 126.791 24.3321 126.59 26.887H135.913Z" fill="#0085FF"/>
<path d="M77.1353 38.9802C71.0888 38.9764 66.3847 34.4429 66.377 28.6125C66.3692 23.0391 71.2397 18.4277 77.1469 18.4199C83.1005 18.4121 87.9207 23.0702 87.9168 28.8306C87.913 34.4234 83.0696 38.9841 77.1353 38.9802ZM77.0773 34.4C80.2224 34.4273 82.911 31.958 83 28.9591C83.0928 25.8861 80.4081 23.1637 77.2359 23.1131C74.0946 23.0625 71.2784 25.7576 71.3016 28.7955C71.3209 31.8139 73.9592 34.3728 77.0773 34.4Z" fill="#121212"/>
<path d="M77.1353 38.9802C71.0888 38.9764 66.3847 34.4429 66.377 28.6125C66.3692 23.0391 71.2397 18.4277 77.1469 18.4199C83.1005 18.4121 87.9207 23.0702 87.9168 28.8306C87.913 34.4234 83.0696 38.9841 77.1353 38.9802ZM77.0773 34.4C80.2224 34.4273 82.911 31.958 83 28.9591C83.0928 25.8861 80.4081 23.1637 77.2359 23.1131C74.0946 23.0625 71.2784 25.7576 71.3016 28.7955C71.3209 31.8139 73.9592 34.3728 77.0773 34.4Z" fill="#121212"/>
<path d="M149.52 38.7316H144.518C144.518 36.0831 144.518 33.5243 144.518 30.9616C144.518 27.4641 144.553 23.9627 144.506 20.4652C144.491 19.3163 144.866 18.7593 146.058 18.8645C147.33 18.9736 148.607 19.0476 149.876 19.4526C152.286 18.4789 154.828 18.1128 157.501 18.7009C160.677 19.3981 162.657 21.2091 162.909 24.4184C163.249 28.8 163.238 33.2088 163.28 37.6099C163.284 38.0149 162.646 38.7121 162.228 38.7861C158.634 39.3976 158.263 39.0353 158.243 35.4055C158.228 32.5545 158.174 29.7036 158.116 26.8526C158.081 25.1039 157.265 23.8225 155.57 23.3902C153.574 22.8839 151.551 22.9696 149.965 24.4885C149.559 24.878 149.551 25.801 149.543 26.4787C149.508 30.4903 149.524 34.5019 149.524 38.7355L149.52 38.7316Z" fill="#121212"/>
<path d="M149.52 38.7316H144.518C144.518 36.0831 144.518 33.5243 144.518 30.9616C144.518 27.4641 144.553 23.9627 144.506 20.4652C144.491 19.3163 144.866 18.7593 146.058 18.8645C147.33 18.9736 148.607 19.0476 149.876 19.4526C152.286 18.4789 154.828 18.1128 157.501 18.7009C160.677 19.3981 162.657 21.2091 162.909 24.4184C163.249 28.8 163.238 33.2088 163.28 37.6099C163.284 38.0149 162.646 38.7121 162.228 38.7861C158.634 39.3976 158.263 39.0353 158.243 35.4055C158.228 32.5545 158.174 29.7036 158.116 26.8526C158.081 25.1039 157.265 23.8225 155.57 23.3902C153.574 22.8839 151.551 22.9696 149.965 24.4885C149.559 24.878 149.551 25.801 149.543 26.4787C149.508 30.4903 149.524 34.5019 149.524 38.7355L149.52 38.7316Z" fill="#0085FF"/>
<path d="M48.0677 38.9808C46.087 38.3888 44.0986 39.8804 42.9613 38.0304C40.8839 38.3498 38.938 38.899 36.996 38.8912C32.2068 38.8717 29.7077 36.6322 29.3596 31.7249C29.0617 27.538 29.2977 23.3122 29.2977 18.9462H34.114C34.1604 19.807 34.2262 20.6833 34.2494 21.5635C34.3383 24.8039 34.3306 28.0482 34.5202 31.2809C34.6246 33.0647 35.8703 34.0539 37.5608 34.2993C39.5376 34.5836 41.4603 34.3382 42.8916 32.7687C43.205 32.4259 43.1315 31.6625 43.1315 31.0939C43.1508 27.0823 43.1392 23.0708 43.1392 18.9268H48.0638V38.9769L48.0677 38.9808Z" fill="#121212"/>
<path d="M48.0677 38.9808C46.087 38.3888 44.0986 39.8804 42.9613 38.0304C40.8839 38.3498 38.938 38.899 36.996 38.8912C32.2068 38.8717 29.7077 36.6322 29.3596 31.7249C29.0617 27.538 29.2977 23.3122 29.2977 18.9462H34.114C34.1604 19.807 34.2262 20.6833 34.2494 21.5635C34.3383 24.8039 34.3306 28.0482 34.5202 31.2809C34.6246 33.0647 35.8703 34.0539 37.5608 34.2993C39.5376 34.5836 41.4603 34.3382 42.8916 32.7687C43.205 32.4259 43.1315 31.6625 43.1315 31.0939C43.1508 27.0823 43.1392 23.0708 43.1392 18.9268H48.0638V38.9769L48.0677 38.9808Z" fill="#121212"/>
<path d="M90.0469 23.125V18.9538C90.8438 18.8603 91.5865 18.7746 92.5769 18.6617V11.0981C94.1978 11.0981 95.5905 11.0007 96.9599 11.1643C97.3081 11.2071 97.7878 12.0523 97.8149 12.5508C97.9116 14.541 97.8535 16.5351 97.8535 18.7201H103.196V23.0588C102.001 23.0588 100.747 23.1134 99.4977 23.0433C98.2249 22.9693 97.7916 23.5145 97.8381 24.7569C97.9116 26.8951 97.8265 29.0373 97.8961 31.1716C97.9928 34.1861 98.8284 34.8949 101.846 34.6846C102.225 34.6574 102.604 34.6846 102.972 34.6846C103.935 37.8783 103.386 38.7235 100.252 38.9104C94.9135 39.2298 92.6968 37.1072 92.6891 31.6506C92.6852 29.7072 92.6233 27.7598 92.7084 25.8163C92.7858 24.0014 92.8167 22.3734 90.0469 23.1289V23.125Z" fill="#121212"/>
<path d="M90.0469 23.125V18.9538C90.8438 18.8603 91.5865 18.7746 92.5769 18.6617V11.0981C94.1978 11.0981 95.5905 11.0007 96.9599 11.1643C97.3081 11.2071 97.7878 12.0523 97.8149 12.5508C97.9116 14.541 97.8535 16.5351 97.8535 18.7201H103.196V23.0588C102.001 23.0588 100.747 23.1134 99.4977 23.0433C98.2249 22.9693 97.7916 23.5145 97.8381 24.7569C97.9116 26.8951 97.8265 29.0373 97.8961 31.1716C97.9928 34.1861 98.8284 34.8949 101.846 34.6846C102.225 34.6574 102.604 34.6846 102.972 34.6846C103.935 37.8783 103.386 38.7235 100.252 38.9104C94.9135 39.2298 92.6968 37.1072 92.6891 31.6506C92.6852 29.7072 92.6233 27.7598 92.7084 25.8163C92.7858 24.0014 92.8167 22.3734 90.0469 23.1289V23.125Z" fill="#0085FF"/>
<path d="M191.25 37.1742C191.385 36.7497 191.44 36.5004 191.536 36.2745C192.774 33.4859 192.751 33.6066 195.664 34.2765C197.382 34.6738 199.211 34.779 200.975 34.6972C201.641 34.666 202.264 33.7313 202.906 33.2094C202.384 32.633 201.97 31.7956 201.324 31.5385C199.78 30.9271 198.109 30.6505 196.527 30.1325C192.902 28.9485 191.238 26.9739 191.44 24.2086C191.648 21.3148 193.621 19.2818 197.188 18.608C200.442 17.9887 203.533 18.7677 206.643 20.1386C206.093 21.3772 205.598 22.4794 205.119 23.5543C202.987 23.2077 200.987 22.8494 198.975 22.5767C198.426 22.5027 197.741 22.5261 197.296 22.8026C196.759 23.1337 196.148 23.7413 196.066 24.3021C196.008 24.6955 196.701 25.4277 197.208 25.6302C198.577 26.1716 200.032 26.4793 201.44 26.9311C202.473 27.2621 203.525 27.5893 204.496 28.0683C206.523 29.0693 207.594 30.6778 207.482 33.0497C207.374 35.3515 206.349 37.1158 204.299 37.9726C199.881 39.8187 195.56 39.1605 191.25 37.182V37.1742Z" fill="#121212"/>
<path d="M191.25 37.1742C191.385 36.7497 191.44 36.5004 191.536 36.2745C192.774 33.4859 192.751 33.6066 195.664 34.2765C197.382 34.6738 199.211 34.779 200.975 34.6972C201.641 34.666 202.264 33.7313 202.906 33.2094C202.384 32.633 201.97 31.7956 201.324 31.5385C199.78 30.9271 198.109 30.6505 196.527 30.1325C192.902 28.9485 191.238 26.9739 191.44 24.2086C191.648 21.3148 193.621 19.2818 197.188 18.608C200.442 17.9887 203.533 18.7677 206.643 20.1386C206.093 21.3772 205.598 22.4794 205.119 23.5543C202.987 23.2077 200.987 22.8494 198.975 22.5767C198.426 22.5027 197.741 22.5261 197.296 22.8026C196.759 23.1337 196.148 23.7413 196.066 24.3021C196.008 24.6955 196.701 25.4277 197.208 25.6302C198.577 26.1716 200.032 26.4793 201.44 26.9311C202.473 27.2621 203.525 27.5893 204.496 28.0683C206.523 29.0693 207.594 30.6778 207.482 33.0497C207.374 35.3515 206.349 37.1158 204.299 37.9726C199.881 39.8187 195.56 39.1605 191.25 37.182V37.1742Z" fill="#0085FF"/>
<path d="M64.3544 34.6997C65.0701 38.2049 64.6871 38.7346 61.4221 38.9099C56.2692 39.1864 54.0139 37.0599 53.9984 31.8993C53.9907 29.0562 53.9984 26.2169 53.9984 23.2725C53.0893 23.1362 52.3427 23.0232 51.4336 22.883V18.9454C52.157 18.8598 52.9539 18.7663 53.9752 18.6456V11.082C55.4723 11.082 56.7567 10.9573 57.9985 11.1482C58.424 11.2144 59.012 12.044 59.043 12.5542C59.1629 14.5444 59.0932 16.5424 59.0932 18.778H64.5595V23.0505C63.3293 23.0505 62.0797 23.1011 60.8341 23.0349C59.6387 22.9726 59.0352 23.3426 59.0855 24.6629C59.1745 26.9297 59.101 29.2042 59.2132 31.467C59.3486 34.1622 60.2035 34.8516 62.8805 34.6958C63.3757 34.6685 63.8747 34.6919 64.3544 34.6919V34.6997Z" fill="#121212"/>
<path d="M64.3544 34.6997C65.0701 38.2049 64.6871 38.7346 61.4221 38.9099C56.2692 39.1864 54.0139 37.0599 53.9984 31.8993C53.9907 29.0562 53.9984 26.2169 53.9984 23.2725C53.0893 23.1362 52.3427 23.0232 51.4336 22.883V18.9454C52.157 18.8598 52.9539 18.7663 53.9752 18.6456V11.082C55.4723 11.082 56.7567 10.9573 57.9985 11.1482C58.424 11.2144 59.012 12.044 59.043 12.5542C59.1629 14.5444 59.0932 16.5424 59.0932 18.778H64.5595V23.0505C63.3293 23.0505 62.0797 23.1011 60.8341 23.0349C59.6387 22.9726 59.0352 23.3426 59.0855 24.6629C59.1745 26.9297 59.101 29.2042 59.2132 31.467C59.3486 34.1622 60.2035 34.8516 62.8805 34.6958C63.3757 34.6685 63.8747 34.6919 64.3544 34.6919V34.6997Z" fill="#121212"/>
<path d="M106.723 18.9082H111.446C111.597 19.5547 111.736 20.1584 111.833 20.5751C113.628 19.8585 115.334 19.0523 117.117 18.5148C118.444 18.1175 119.369 18.6005 119.237 20.283C119.144 21.4943 119.218 22.7172 119.218 23.9674C118.007 23.9674 116.982 23.8584 115.988 23.9869C113.435 24.3219 112.003 25.7045 111.833 28.2711C111.647 31.0442 111.612 33.8367 111.721 36.6097C111.794 38.4403 111.14 39.0751 109.4 38.8453C108.529 38.7285 107.639 38.7519 106.723 38.7129V18.9082Z" fill="#121212"/>
<path d="M106.723 18.9082H111.446C111.597 19.5547 111.736 20.1584 111.833 20.5751C113.628 19.8585 115.334 19.0523 117.117 18.5148C118.444 18.1175 119.369 18.6005 119.237 20.283C119.144 21.4943 119.218 22.7172 119.218 23.9674C118.007 23.9674 116.982 23.8584 115.988 23.9869C113.435 24.3219 112.003 25.7045 111.833 28.2711C111.647 31.0442 111.612 33.8367 111.721 36.6097C111.794 38.4403 111.14 39.0751 109.4 38.8453C108.529 38.7285 107.639 38.7519 106.723 38.7129V18.9082Z" fill="#0085FF"/>
<path d="M244.459 18.8984H249.093V38.6915H244.459V18.8984Z" fill="#121212"/>
<path d="M244.459 18.8984H249.093V38.6915H244.459V18.8984Z" fill="#0085FF"/>
<path d="M244.459 18.8984H249.093V38.6915H244.459V18.8984Z" fill="#121212"/>
<path d="M213.122 38.9693C211.559 38.9693 210.337 37.758 210.291 36.169C210.24 34.5137 211.513 33.1895 213.157 33.1973C214.821 33.2051 216.012 34.4826 215.966 36.204C215.923 37.8165 214.735 38.9693 213.122 38.9693Z" fill="#121212"/>
<path d="M213.122 38.9693C211.559 38.9693 210.337 37.758 210.291 36.169C210.24 34.5137 211.513 33.1895 213.157 33.1973C214.821 33.2051 216.012 34.4826 215.966 36.204C215.923 37.8165 214.735 38.9693 213.122 38.9693Z" fill="#0085FF"/>
<path d="M213.122 38.9693C211.559 38.9693 210.337 37.758 210.291 36.169C210.24 34.5137 211.513 33.1895 213.157 33.1973C214.821 33.2051 216.012 34.4826 215.966 36.204C215.923 37.8165 214.735 38.9693 213.122 38.9693Z" fill="#121212"/>
<path d="M243.933 13.6108C243.975 12.0296 245.217 10.7716 246.753 10.7599C248.308 10.7443 249.646 12.1659 249.612 13.7978C249.581 15.2817 248.207 16.6721 246.764 16.6799C245.217 16.6877 243.89 15.2466 243.933 13.6108Z" fill="#121212"/>
<path d="M243.933 13.6108C243.975 12.0296 245.217 10.7716 246.753 10.7599C248.308 10.7443 249.646 12.1659 249.612 13.7978C249.581 15.2817 248.207 16.6721 246.764 16.6799C245.217 16.6877 243.89 15.2466 243.933 13.6108Z" fill="#0085FF"/>
<path d="M243.933 13.6108C243.975 12.0296 245.217 10.7716 246.753 10.7599C248.308 10.7443 249.646 12.1659 249.612 13.7978C249.581 15.2817 248.207 16.6721 246.764 16.6799C245.217 16.6877 243.89 15.2466 243.933 13.6108Z" fill="#121212"/>
</svg>
