<svg width="350" height="213" viewBox="0 0 350 213" fill="none" xmlns="http://www.w3.org/2000/svg">
<g clip-path="url(#clip0_781_35367)">
<path d="M242.963 3.87299C241.521 2.37698 239.026 1.00616 234.685 0.900654C224.94 0.660505 227.555 7.55476 224.94 9.22006C222.325 10.8854 221.616 8.27049 219.001 9.9287C216.386 11.5869 217.57 14.9238 215.43 15.3986C213.29 15.8734 210.441 13.2585 207.808 14.9262C205.176 16.5938 205.194 18.0158 204.003 18.0158C202.813 18.0158 200.439 17.0663 199.013 18.0158C197.588 18.9654 195.924 20.1559 195.924 20.1559H221.445" stroke="#002226" stroke-width="0.393687" stroke-linecap="round" stroke-linejoin="round"/>
<path d="M245.647 8.13227L244.909 7.79843C244.795 6.90952 244.495 6.05454 244.029 5.28906" stroke="#002226" stroke-width="0.393687" stroke-linecap="round" stroke-linejoin="round"/>
<path d="M224.734 20.1565H256.08C256.08 20.1565 256.795 18.0164 254.18 16.592C251.564 15.1677 250.374 16.3519 249.425 15.1614C248.574 14.1063 251.315 11.5394 246.886 8.80566" stroke="#002226" stroke-width="0.393687" stroke-linecap="round" stroke-linejoin="round"/>
<path d="M173.463 43.0859H185.869C185.968 42.6567 185.909 42.2059 185.7 41.8175C185.492 41.4292 185.15 41.1297 184.738 40.975C183.184 40.1309 182.486 40.834 181.923 40.1309C181.36 39.4278 183.471 37.5924 179.246 35.7633C179.246 35.7633 178.965 31.8178 173.19 31.6595C170.698 31.6013 169.573 32.328 168.969 33.2484" stroke="#002226" stroke-width="0.393687" stroke-linecap="round" stroke-linejoin="round"/>
<path d="M169.682 43.0869H171.745" stroke="#002226" stroke-width="0.393687" stroke-linecap="round" stroke-linejoin="round"/>
<path d="M168.216 35.2129C168.126 35.7598 167.84 36.2554 167.413 36.6081C165.865 37.5931 165.444 36.0215 163.895 37.0302C162.345 38.0388 163.051 39.9907 161.784 40.2726C160.517 40.5544 158.823 39.0065 157.275 39.9915C155.727 40.9765 155.727 41.8205 155.024 41.8205C154.321 41.8205 152.908 41.2339 152.093 41.8205C151.278 42.4071 150.264 43.0866 150.264 43.0866H166.09" stroke="#002226" stroke-width="0.393687" stroke-linecap="round" stroke-linejoin="round"/>
<path d="M286.014 212.474H335.432C334.483 206.435 330.601 207.496 330.085 198.133C329.827 193.443 334.189 187.583 333.814 181.389C333.503 176.288 328.473 171.059 328.08 165.219C327.728 159.943 332.025 154.108 331.598 148.433C331.204 143.062 326.11 137.915 325.652 132.339C325.213 126.898 329.422 120.994 328.924 115.494C328.426 109.995 323.237 104.944 322.686 99.5108C322.1 93.9354 326.204 87.9316 325.57 82.5964C324.908 76.9328 319.56 72.0456 318.839 66.8253C318.031 61.0152 321.818 54.806 320.932 49.7873C319.847 43.6457 314.125 39.1986 312.924 34.661C310.678 26.218 310.96 18.0749 308.31 17.5411C305.484 16.9545 304.839 24.9574 302.699 33.8815C301.62 38.3609 296.027 42.9048 295.106 49.055C294.361 54.0328 298.319 60.0893 297.668 65.8757C297.082 71.0582 291.882 76.0328 291.369 81.6704C290.897 86.9458 295.122 92.8102 294.705 98.3502C294.301 103.733 289.247 108.869 288.901 114.339C288.554 119.809 292.911 125.537 292.612 130.936C292.307 136.471 287.336 141.695 287.089 147.024C286.82 152.652 291.262 158.334 291.046 163.564C290.806 169.35 285.916 174.656 285.735 179.716C285.518 185.857 290.027 191.527 289.886 196.208C289.587 206.357 284.938 204.258 284.773 212.428L286.014 212.474Z" fill="#0B66FA" fill-opacity="0.77"/>
<path d="M307.221 33.7822V210.193" stroke="#002226" stroke-width="0.393687" stroke-linecap="round" stroke-linejoin="round"/>
<path d="M314.937 52.2744L306.893 59.2222L300.314 50.4453" stroke="#002226" stroke-width="0.393687" stroke-linecap="round" stroke-linejoin="round"/>
<path d="M314.937 82.9785L306.893 89.9263L300.314 81.1494" stroke="#002226" stroke-width="0.393687" stroke-linecap="round" stroke-linejoin="round"/>
<path d="M314.937 111.859L306.893 118.807L300.314 110.03" stroke="#002226" stroke-width="0.393687" stroke-linecap="round" stroke-linejoin="round"/>
<path d="M314.937 146.223L306.893 153.17L300.314 144.394" stroke="#002226" stroke-width="0.393687" stroke-linecap="round" stroke-linejoin="round"/>
<path d="M314.937 180.949L306.893 187.897L300.314 179.12" stroke="#002226" stroke-width="0.393687" stroke-linecap="round" stroke-linejoin="round"/>
<path d="M251.686 212.474H294.234C293.419 207.277 290.077 208.188 289.632 200.121C289.409 196.063 293.15 191.033 292.844 185.698C292.574 181.306 288.242 176.8 287.907 171.773C287.603 167.235 291.302 162.198 290.939 157.309C290.599 152.688 286.207 148.254 285.821 143.451C285.44 138.761 289.063 133.677 288.635 128.94C288.207 124.204 283.74 119.844 283.268 115.172C282.781 110.369 286.288 105.205 285.748 100.606C285.162 95.7242 280.577 91.5181 279.956 87.0214C279.258 82.02 282.518 76.6729 281.756 72.3636C280.823 67.0882 275.893 63.2348 274.855 59.3365C272.926 52.0721 273.167 45.037 270.886 44.5732C268.453 44.0866 267.894 50.9635 266.049 58.6444C265.123 62.5025 260.301 66.4126 259.514 71.7148C258.874 76.0005 262.281 81.2184 261.724 86.2025C261.219 90.6645 256.734 94.9557 256.3 99.8044C255.89 104.371 259.529 109.402 259.174 114.175C258.822 118.812 254.483 123.23 254.167 127.947C253.85 132.664 257.62 137.591 257.368 142.241C257.104 147.008 252.831 151.51 252.613 156.099C252.377 160.947 256.207 165.843 256.019 170.34C255.814 175.329 251.599 179.896 251.441 184.258C251.253 189.534 255.141 194.43 255.023 198.459C254.759 207.206 250.754 205.395 250.613 212.43L251.686 212.474Z" fill="#0B66FA" fill-opacity="0.77"/>
<path d="M269.949 58.5596V210.51" stroke="#002226" stroke-width="0.393687" stroke-linecap="round" stroke-linejoin="round"/>
<path d="M276.598 74.4888L269.669 80.4729L264 72.9141" stroke="#002226" stroke-width="0.393687" stroke-linecap="round" stroke-linejoin="round"/>
<path d="M276.598 100.937L269.669 106.921L264 99.3623" stroke="#002226" stroke-width="0.393687" stroke-linecap="round" stroke-linejoin="round"/>
<path d="M276.598 125.814L269.669 131.798L264 124.239" stroke="#002226" stroke-width="0.393687" stroke-linecap="round" stroke-linejoin="round"/>
<path d="M276.598 155.41L269.669 161.394L264 153.835" stroke="#002226" stroke-width="0.393687" stroke-linecap="round" stroke-linejoin="round"/>
<path d="M276.598 185.323L269.669 191.307L264 183.748" stroke="#002226" stroke-width="0.393687" stroke-linecap="round" stroke-linejoin="round"/>
<path d="M163.222 135.973H162.741C162.258 135.972 161.782 135.857 161.353 135.637C160.923 135.416 160.552 135.098 160.269 134.707C159.986 134.316 159.799 133.863 159.724 133.386C159.65 132.91 159.689 132.422 159.839 131.963C160.425 130.073 161.486 128.176 163.224 127.859C166.824 127.273 176.709 130.257 176.709 132.356C176.709 134.454 176.709 135.352 175.536 135.352H168.02L162.028 141.942L161.899 141.837C161.59 141.577 161.341 141.254 161.17 140.888C161 140.522 160.911 140.124 160.911 139.72C160.911 139.317 161 138.918 161.17 138.552C161.341 138.187 161.59 137.863 161.899 137.604C162.429 137.139 162.876 136.587 163.222 135.973Z" fill="#263238" stroke="#002226" stroke-width="0.393687" stroke-linecap="round" stroke-linejoin="round"/>
<path d="M230.939 191.706H330.416C330.416 191.706 344.799 182.114 341.803 156.944C338.807 131.774 322.625 148.555 316.633 165.335H272.291C272.291 165.335 262.699 146.163 247.121 148.555C231.543 150.947 230.939 191.706 230.939 191.706Z" fill="#263238" stroke="#002226" stroke-width="0.393687" stroke-linecap="round" stroke-linejoin="round"/>
<path d="M255.383 186.716C255.383 179.329 253.266 172.645 249.877 167.954V160.919H237.89C228.221 160.919 220.389 172.452 220.389 186.675C220.389 200.898 228.221 212.431 237.89 212.431H249.88V205.465C253.266 200.77 255.383 194.109 255.383 186.716Z" fill="black" stroke="#002226" stroke-width="0.393687" stroke-linecap="round" stroke-linejoin="round"/>
<path d="M249.876 212.473C259.542 212.473 267.377 200.941 267.377 186.717C267.377 172.492 259.542 160.961 249.876 160.961C240.21 160.961 232.375 172.492 232.375 186.717C232.375 200.941 240.21 212.473 249.876 212.473Z" fill="#263238"/>
<mask id="mask0_781_35367" style="mask-type:luminance" maskUnits="userSpaceOnUse" x="232" y="160" width="36" height="53">
<path d="M249.876 212.473C259.542 212.473 267.377 200.941 267.377 186.717C267.377 172.492 259.542 160.961 249.876 160.961C240.21 160.961 232.375 172.492 232.375 186.717C232.375 200.941 240.21 212.473 249.876 212.473Z" fill="white"/>
</mask>
<g mask="url(#mask0_781_35367)">
<path opacity="0.2" d="M249.876 212.473C259.542 212.473 267.377 200.941 267.377 186.717C267.377 172.492 259.542 160.961 249.876 160.961C240.21 160.961 232.375 172.492 232.375 186.717C232.375 200.941 240.21 212.473 249.876 212.473Z" fill="#002226" stroke="#002226" stroke-width="0.393687" stroke-linecap="round" stroke-linejoin="round"/>
</g>
<path d="M249.876 212.473C259.542 212.473 267.377 200.941 267.377 186.717C267.377 172.492 259.542 160.961 249.876 160.961C240.21 160.961 232.375 172.492 232.375 186.717C232.375 200.941 240.21 212.473 249.876 212.473Z" stroke="#002226" stroke-width="0.393687" stroke-linecap="round" stroke-linejoin="round"/>
<path d="M147.285 160.961H135.947C126.818 160.961 119.412 172.494 119.412 186.717C119.412 200.94 126.813 212.473 135.947 212.473H147.285C156.419 212.473 163.825 200.946 163.825 186.717C163.825 172.487 156.42 160.961 147.285 160.961Z" fill="black" stroke="#002226" stroke-width="0.393687" stroke-linecap="round" stroke-linejoin="round"/>
<path d="M249.875 207.266C257.585 207.266 263.835 198.066 263.835 186.717C263.835 175.367 257.585 166.167 249.875 166.167C242.166 166.167 235.916 175.367 235.916 186.717C235.916 198.066 242.166 207.266 249.875 207.266Z" fill="white" stroke="#002226" stroke-width="0.393687" stroke-linecap="round" stroke-linejoin="round"/>
<path d="M337.328 186.716C337.328 179.329 335.98 172.645 333.81 167.954V160.919H323.234C317.083 160.919 312.094 172.452 312.094 186.675C312.094 200.898 317.077 212.431 323.234 212.431H333.828V205.465C335.98 200.77 337.328 194.109 337.328 186.716Z" fill="black" stroke="#002226" stroke-width="0.393687" stroke-linecap="round" stroke-linejoin="round"/>
<path d="M333.827 212.473C339.976 212.473 344.96 200.941 344.96 186.717C344.96 172.492 339.976 160.961 333.827 160.961C327.678 160.961 322.693 172.492 322.693 186.717C322.693 200.941 327.678 212.473 333.827 212.473Z" fill="#263238"/>
<mask id="mask1_781_35367" style="mask-type:luminance" maskUnits="userSpaceOnUse" x="322" y="160" width="23" height="53">
<path d="M333.827 212.473C339.976 212.473 344.96 200.941 344.96 186.717C344.96 172.492 339.976 160.961 333.827 160.961C327.678 160.961 322.693 172.492 322.693 186.717C322.693 200.941 327.678 212.473 333.827 212.473Z" fill="white"/>
</mask>
<g mask="url(#mask1_781_35367)">
<path opacity="0.2" d="M333.827 212.473C339.976 212.473 344.96 200.941 344.96 186.717C344.96 172.492 339.976 160.961 333.827 160.961C327.678 160.961 322.693 172.492 322.693 186.717C322.693 200.941 327.678 212.473 333.827 212.473Z" fill="#002226" stroke="#002226" stroke-width="0.393687" stroke-linecap="round" stroke-linejoin="round"/>
</g>
<path d="M333.827 212.473C339.976 212.473 344.96 200.941 344.96 186.717C344.96 172.492 339.976 160.961 333.827 160.961C327.678 160.961 322.693 172.492 322.693 186.717C322.693 200.941 327.678 212.473 333.827 212.473Z" stroke="#002226" stroke-width="0.393687" stroke-linecap="round" stroke-linejoin="round"/>
<path d="M333.828 207.266C338.733 207.266 342.71 198.066 342.71 186.717C342.71 175.367 338.733 166.167 333.828 166.167C328.922 166.167 324.945 175.367 324.945 186.717C324.945 198.066 328.922 207.266 333.828 207.266Z" fill="white" stroke="#002226" stroke-width="0.393687" stroke-linecap="round" stroke-linejoin="round"/>
<path d="M234.856 193.026C234.856 172.505 241.986 155.866 250.785 155.866C259.585 155.866 266.709 172.505 266.709 193.026C266.709 194.157 266.709 195.271 266.645 196.373H323.381C323.381 195.271 323.333 194.157 323.333 193.026C323.333 172.505 328.53 155.866 334.936 155.866C339.216 155.866 342.951 163.301 344.962 174.352V144.046C344.962 142.664 344.478 141.325 343.595 140.261C342.711 139.198 341.483 138.477 340.124 138.224L339.849 138.171C335.913 137.384 328.839 129.917 317.828 120.477C306.817 111.037 296.985 110.252 296.985 110.252H197.643C195.767 110.249 193.942 110.867 192.454 112.011L158.572 138.16C158.572 138.16 149.109 140.003 139.118 142.937C132.091 144.999 124.552 147.794 121.606 150.741C114.922 157.425 115.708 196.373 115.708 196.373H234.903C234.903 195.271 234.856 194.157 234.856 193.026Z" fill="#0B66FA" fill-opacity="0.77" stroke="#002226" stroke-width="0.393687" stroke-linecap="round" stroke-linejoin="round"/>
<path d="M272.883 110.234H197.919C196.042 110.231 194.218 110.85 192.73 111.993L158.848 138.142H254.796L272.883 110.234Z" fill="#0B66FA" fill-opacity="0.77" stroke="#002226" stroke-width="0.393687" stroke-linecap="round" stroke-linejoin="round"/>
<path d="M233.619 148.672C228.225 148.742 218.78 149.1 214.687 150.736C211.302 152.062 208.017 153.63 204.855 155.426H224.121L233.619 148.672Z" fill="#263238" stroke="#002226" stroke-width="0.393687" stroke-linecap="round" stroke-linejoin="round"/>
<path d="M225.305 161.354V157.836H204.855L208.561 161.254C208.501 161.285 208.446 161.325 208.397 161.371L225.305 161.354Z" fill="#263238" stroke="#002226" stroke-width="0.393687" stroke-linecap="round" stroke-linejoin="round"/>
<path d="M227.268 156.241V161.389C228.063 161.318 228.832 161.066 229.515 160.651C230.197 160.236 230.775 159.67 231.204 158.997C233.169 155.847 237.595 148.672 237.595 148.672L227.268 156.241Z" fill="#263238" stroke="#002226" stroke-width="0.393687" stroke-linecap="round" stroke-linejoin="round"/>
<path d="M123.781 161.235L127.482 157.817H118.762C118.487 158.92 118.24 160.101 118.018 161.335H123.951C123.897 161.297 123.841 161.264 123.781 161.235Z" fill="#263238" stroke="#002226" stroke-width="0.393687" stroke-linecap="round" stroke-linejoin="round"/>
<path d="M120.85 152.096C120.251 153.16 119.77 154.287 119.414 155.455H127.476C125.329 154.218 123.117 153.097 120.85 152.096Z" fill="#263238" stroke="#002226" stroke-width="0.393687" stroke-linecap="round" stroke-linejoin="round"/>
<path d="M254.795 138.154H312.991C312.991 138.154 321.252 135.405 318.889 125.18C318.091 121.709 301.587 113.776 299.23 113.776H270.942L254.795 138.154Z" fill="#263238"/>
<mask id="mask2_781_35367" style="mask-type:luminance" maskUnits="userSpaceOnUse" x="254" y="113" width="66" height="26">
<path d="M254.795 138.154H312.991C312.991 138.154 321.252 135.405 318.889 125.18C318.091 121.709 301.587 113.776 299.23 113.776H270.942L254.795 138.154Z" fill="white"/>
</mask>
<g mask="url(#mask2_781_35367)">
<path opacity="0.2" d="M254.795 138.154H312.991C312.991 138.154 321.252 135.405 318.889 125.18C318.091 121.709 301.587 113.776 299.23 113.776H270.942L254.795 138.154Z" fill="white" stroke="#002226" stroke-width="0.393687" stroke-linecap="round" stroke-linejoin="round"/>
</g>
<path d="M254.795 138.154H312.991C312.991 138.154 321.252 135.405 318.889 125.18C318.091 121.709 301.587 113.776 299.23 113.776H270.942L254.795 138.154Z" stroke="#002226" stroke-width="0.393687" stroke-linecap="round" stroke-linejoin="round"/>
<path d="M190.437 113.776L158.848 138.154H254.795L270.59 113.776H190.437Z" fill="#263238" stroke="#002226" stroke-width="0.393687" stroke-linecap="round" stroke-linejoin="round"/>
<path d="M128.959 156.241V164.502L134.857 168.833H182.441L193.451 164.113V156.241H128.959Z" fill="#263238" stroke="#002226" stroke-width="0.393687" stroke-linecap="round" stroke-linejoin="round"/>
<path opacity="0.3" d="M128.959 156.24H131.157V158.439H128.959V156.24Z" fill="white" stroke="#002226" stroke-width="0.393687" stroke-linecap="round" stroke-linejoin="round"/>
<path opacity="0.3" d="M131.393 158.675H133.591V160.873H131.393V158.675Z" fill="white" stroke="#002226" stroke-width="0.393687" stroke-linecap="round" stroke-linejoin="round"/>
<path opacity="0.3" d="M133.824 161.107H136.023V163.306H133.824V161.107Z" fill="white" stroke="#002226" stroke-width="0.393687" stroke-linecap="round" stroke-linejoin="round"/>
<path opacity="0.3" d="M136.252 163.535H138.45V165.734H136.252V163.535Z" fill="white" stroke="#002226" stroke-width="0.393687" stroke-linecap="round" stroke-linejoin="round"/>
<path opacity="0.3" d="M190.812 156.24H193.011V158.439H190.812V156.24Z" fill="white" stroke="#002226" stroke-width="0.393687" stroke-linecap="round" stroke-linejoin="round"/>
<path opacity="0.3" d="M188.385 158.675H190.583V160.873H188.385V158.675Z" fill="white" stroke="#002226" stroke-width="0.393687" stroke-linecap="round" stroke-linejoin="round"/>
<path opacity="0.3" d="M185.951 161.107H188.15V163.306H185.951V161.107Z" fill="white" stroke="#002226" stroke-width="0.393687" stroke-linecap="round" stroke-linejoin="round"/>
<path opacity="0.3" d="M183.52 163.535H185.718V165.734H183.52V163.535Z" fill="white" stroke="#002226" stroke-width="0.393687" stroke-linecap="round" stroke-linejoin="round"/>
<path opacity="0.3" d="M139.629 163.535H141.827V165.734H139.629V163.535Z" fill="white" stroke="#002226" stroke-width="0.393687" stroke-linecap="round" stroke-linejoin="round"/>
<path opacity="0.3" d="M143.006 163.535H145.204V165.734H143.006V163.535Z" fill="white" stroke="#002226" stroke-width="0.393687" stroke-linecap="round" stroke-linejoin="round"/>
<path opacity="0.3" d="M146.383 163.535H148.581V165.734H146.383V163.535Z" fill="white" stroke="#002226" stroke-width="0.393687" stroke-linecap="round" stroke-linejoin="round"/>
<path opacity="0.3" d="M149.76 163.535H151.958V165.734H149.76V163.535Z" fill="white" stroke="#002226" stroke-width="0.393687" stroke-linecap="round" stroke-linejoin="round"/>
<path opacity="0.3" d="M153.137 163.535H155.335V165.734H153.137V163.535Z" fill="white" stroke="#002226" stroke-width="0.393687" stroke-linecap="round" stroke-linejoin="round"/>
<path opacity="0.3" d="M156.508 163.535H158.706V165.734H156.508V163.535Z" fill="white" stroke="#002226" stroke-width="0.393687" stroke-linecap="round" stroke-linejoin="round"/>
<path opacity="0.3" d="M159.885 163.535H162.083V165.734H159.885V163.535Z" fill="white" stroke="#002226" stroke-width="0.393687" stroke-linecap="round" stroke-linejoin="round"/>
<path opacity="0.3" d="M163.262 163.535H165.46V165.734H163.262V163.535Z" fill="white" stroke="#002226" stroke-width="0.393687" stroke-linecap="round" stroke-linejoin="round"/>
<path opacity="0.3" d="M166.639 163.535H168.837V165.734H166.639V163.535Z" fill="white" stroke="#002226" stroke-width="0.393687" stroke-linecap="round" stroke-linejoin="round"/>
<path opacity="0.3" d="M170.016 163.535H172.214V165.734H170.016V163.535Z" fill="white" stroke="#002226" stroke-width="0.393687" stroke-linecap="round" stroke-linejoin="round"/>
<path opacity="0.3" d="M173.393 163.535H175.591V165.734H173.393V163.535Z" fill="white" stroke="#002226" stroke-width="0.393687" stroke-linecap="round" stroke-linejoin="round"/>
<path opacity="0.3" d="M176.771 163.535H178.97V165.734H176.771V163.535Z" fill="white" stroke="#002226" stroke-width="0.393687" stroke-linecap="round" stroke-linejoin="round"/>
<path opacity="0.3" d="M180.143 163.535H182.341V165.734H180.143V163.535Z" fill="white" stroke="#002226" stroke-width="0.393687" stroke-linecap="round" stroke-linejoin="round"/>
<path d="M216.257 179.048H118.346L117.038 168.559C116.451 174.323 116.165 180.473 116.041 185.514L116.381 186.916L118.346 182.979H126.75L121.475 187.31H199.335L196.556 182.979H216.24L221.745 186.128H225.682V166.073L216.257 179.048Z" fill="#263238" stroke="#002226" stroke-width="0.393687" stroke-linecap="round" stroke-linejoin="round"/>
<path d="M293.157 138.154H296.44C296.094 133.335 294.717 122.705 289.317 113.776H286.021C287.944 117.886 292.418 128.481 293.157 138.154Z" fill="#263238" stroke="#002226" stroke-width="0.393687" stroke-linecap="round" stroke-linejoin="round"/>
<path d="M222.279 120.395L223.48 123.69C221.999 125.1 221.136 127.04 221.083 129.084V138.154H213.681L219.855 120.395H222.279ZM187.822 124.883C182.763 127.967 175.117 134.756 171.406 138.151H196.027L208.79 118.592L200.4 119.178C195.964 120.519 191.724 122.437 187.788 124.883H187.822ZM238.76 122.485L235.768 121.899H231.57L230.398 123.071C230.398 123.071 233.394 123.37 233.693 125.164C233.899 126.955 233.999 128.756 233.992 130.558H236.091C236.091 130.558 236.091 127.263 237.587 125.762C238.435 124.909 239.336 124.11 240.284 123.37L238.76 122.485Z" fill="#525252" stroke="#002226" stroke-width="0.393687" stroke-linecap="round" stroke-linejoin="round"/>
<path d="M275.286 135.973H274.799C274.314 135.976 273.835 135.865 273.402 135.646C272.968 135.428 272.593 135.11 272.307 134.719C272.02 134.327 271.831 133.873 271.755 133.394C271.679 132.915 271.717 132.424 271.868 131.963C272.454 130.073 273.515 128.176 275.254 127.859C278.847 127.273 288.738 130.257 288.738 132.356C288.738 134.454 288.738 135.352 287.566 135.352H280.073L274.081 141.942L273.958 141.837C273.65 141.577 273.402 141.253 273.232 140.887C273.062 140.522 272.974 140.123 272.974 139.72C272.974 139.317 273.062 138.919 273.232 138.553C273.402 138.187 273.65 137.863 273.958 137.604C274.49 137.139 274.938 136.588 275.286 135.973Z" fill="white" stroke="#002226" stroke-width="0.393687" stroke-linecap="round" stroke-linejoin="round"/>
<path d="M273.96 141.858L274.083 141.964L280.075 135.374H287.568C288.558 135.374 288.74 134.744 288.74 133.352H271.787C271.89 134.078 272.251 134.743 272.805 135.224C273.358 135.706 274.067 135.971 274.8 135.973H275.287C274.938 136.596 274.486 137.156 273.948 137.626C273.641 137.887 273.394 138.212 273.225 138.578C273.056 138.944 272.969 139.342 272.97 139.745C272.971 140.149 273.06 140.547 273.231 140.912C273.402 141.277 273.651 141.6 273.96 141.859V141.858Z" fill="#263238" stroke="#002226" stroke-width="0.393687" stroke-linecap="round" stroke-linejoin="round"/>
<path d="M285.711 145.395H292.453V146.843H285.711V145.395Z" fill="#263238" stroke="#002226" stroke-width="0.393687" stroke-linecap="round" stroke-linejoin="round"/>
<path d="M316.062 145.395H322.805V146.843H316.062V145.395Z" fill="#263238" stroke="#002226" stroke-width="0.393687" stroke-linecap="round" stroke-linejoin="round"/>
<path d="M323.285 139.613C323.285 139.613 328.167 142.926 330.995 154.546C330.995 154.546 318.953 155.994 318.953 189.237" stroke="#002226" stroke-width="0.393687" stroke-linecap="round" stroke-linejoin="round"/>
<path d="M317.506 190.68H266.949C266.949 191.454 266.984 192.228 266.984 193.024C266.984 194.156 266.984 195.27 266.92 196.372H323.658C323.658 195.27 323.611 194.156 323.611 193.024V192.778L317.506 190.68Z" fill="#263238" stroke="#002226" stroke-width="0.393687" stroke-linecap="round" stroke-linejoin="round"/>
<path d="M235.132 193.007C235.132 192.227 235.132 191.453 235.167 190.662H115.961V196.339H235.178C235.178 195.252 235.132 194.139 235.132 193.007Z" fill="#263238" stroke="#002226" stroke-width="0.393687" stroke-linecap="round" stroke-linejoin="round"/>
<path d="M343.12 142.504C342.521 142.504 341.933 142.66 341.412 142.957C340.892 143.253 340.457 143.68 340.152 144.195C339.846 144.71 339.679 145.296 339.669 145.895C339.658 146.494 339.803 147.085 340.09 147.611L345.237 157.05V144.028C345.232 143.512 345.157 143 345.015 142.504H343.12Z" fill="#002226" stroke="#002226" stroke-width="0.393687" stroke-linecap="round" stroke-linejoin="round"/>
<path d="M296.855 143.166C296.855 143.166 307.643 158.744 296.855 185.109" stroke="#002226" stroke-width="0.393687" stroke-linecap="round" stroke-linejoin="round"/>
<path d="M17.0527 212.473H349.797" stroke="black" stroke-width="0.393687" stroke-linecap="round" stroke-linejoin="round"/>
<path d="M10.2227 212.473H14.1099" stroke="black" stroke-width="0.393687" stroke-linecap="round" stroke-linejoin="round"/>
<path d="M0.203125 212.473H6.12497" stroke="black" stroke-width="0.393687" stroke-linecap="round" stroke-linejoin="round"/>
<path d="M30.2865 207.476C34.9973 204.185 36.0657 198.076 35.8767 192.585C35.9629 191.673 35.8378 190.754 35.5107 189.898C35.3142 189.488 34.9748 189.164 34.5563 188.987C34.1378 188.809 33.6689 188.79 33.2376 188.934C32.5565 189.254 32.2604 190.046 31.8793 190.701C31.371 191.574 30.6257 192.286 29.7298 192.754C29.4527 192.932 29.1369 193.04 28.8092 193.069C28.4815 193.099 28.1514 193.049 27.8471 192.924C27.0597 192.487 26.9636 191.395 26.9684 190.483C26.9799 188.784 26.9907 187.085 27.0007 185.386C27.0556 184.475 26.9629 183.561 26.726 182.679C26.6052 182.241 26.3806 181.839 26.0712 181.506C25.7619 181.173 25.3769 180.92 24.9488 180.767C24.515 180.641 24.0487 180.691 23.6514 180.906C23.2541 181.121 22.9578 181.484 22.8268 181.917C22.7932 182.294 22.7846 182.674 22.8008 183.052C22.8068 183.241 22.7568 183.428 22.657 183.588C22.5573 183.749 22.4123 183.876 22.2403 183.955C22.0515 183.977 21.86 183.951 21.6845 183.877C21.509 183.804 21.3555 183.687 21.2388 183.536C20.3388 182.568 19.6037 181.458 19.0631 180.252C18.5237 179.046 17.8437 177.907 17.0372 176.861C16.6336 176.342 16.1302 175.908 15.5566 175.587C14.983 175.265 14.3508 175.061 13.6972 174.987C13.0403 174.937 12.3854 175.108 11.8368 175.473C11.2882 175.837 10.8774 176.375 10.6697 177C10.3391 178.286 11.0903 179.59 11.9052 180.63C13.1158 182.173 14.5427 183.533 16.142 184.669C16.4532 184.841 16.7015 185.108 16.8507 185.431C17.0483 186.038 16.472 186.643 15.8736 186.842C15.1749 186.993 14.4624 187.072 13.7475 187.078C13.3878 187.087 13.037 187.191 12.7299 187.378C12.4228 187.566 12.1704 187.831 11.9981 188.147C11.6264 189.078 12.4043 190.055 13.172 190.695C14.7076 191.976 16.4522 192.983 18.3294 193.672C19.0199 193.864 19.6697 194.18 20.2467 194.605C20.5312 194.826 20.7374 195.133 20.8349 195.48C20.9324 195.827 20.916 196.196 20.7884 196.534C20.5911 196.833 20.3049 197.064 19.9698 197.193C19.6348 197.321 19.2679 197.342 18.9207 197.251C18.2323 197.057 17.5627 196.801 16.9199 196.487C16.3122 196.202 15.6299 196.116 14.9703 196.241C14.3107 196.366 13.7074 196.695 13.246 197.183C13.0011 197.556 12.846 197.98 12.7925 198.423C12.7391 198.865 12.789 199.314 12.9383 199.734C13.2432 200.571 13.713 201.337 14.32 201.988C16.3055 204.372 18.8885 206.188 21.8049 207.247C24.5132 208.351 27.5307 208.431 30.2936 207.472" fill="#0B66FA" fill-opacity="0.77"/>
<path d="M30.2865 207.476C34.9973 204.185 36.0657 198.076 35.8767 192.585C35.9629 191.673 35.8378 190.754 35.5107 189.898C35.3142 189.488 34.9748 189.164 34.5563 188.987C34.1378 188.809 33.6689 188.79 33.2376 188.934C32.5565 189.254 32.2604 190.046 31.8793 190.701C31.371 191.574 30.6257 192.286 29.7298 192.754C29.4527 192.932 29.1369 193.04 28.8092 193.069C28.4815 193.099 28.1514 193.049 27.8471 192.924C27.0597 192.487 26.9636 191.395 26.9684 190.483C26.9799 188.784 26.9907 187.085 27.0007 185.386C27.0556 184.475 26.9629 183.561 26.726 182.679C26.6052 182.241 26.3806 181.839 26.0712 181.506C25.7619 181.173 25.3769 180.92 24.9488 180.767C24.515 180.641 24.0487 180.691 23.6514 180.906C23.2541 181.121 22.9578 181.484 22.8268 181.917C22.7932 182.294 22.7846 182.674 22.8008 183.052C22.8068 183.241 22.7568 183.428 22.657 183.588C22.5573 183.749 22.4123 183.876 22.2403 183.955C22.0515 183.977 21.86 183.951 21.6845 183.877C21.509 183.804 21.3555 183.687 21.2388 183.536C20.3388 182.568 19.6037 181.458 19.0631 180.252C18.5237 179.046 17.8437 177.907 17.0372 176.861C16.6336 176.342 16.1302 175.908 15.5566 175.587C14.983 175.265 14.3508 175.061 13.6972 174.987C13.0403 174.937 12.3854 175.108 11.8368 175.473C11.2882 175.837 10.8774 176.375 10.6697 177C10.3391 178.286 11.0903 179.59 11.9052 180.63C13.1158 182.173 14.5427 183.533 16.142 184.669C16.4532 184.841 16.7015 185.108 16.8507 185.431C17.0483 186.038 16.472 186.643 15.8736 186.842C15.1749 186.993 14.4624 187.072 13.7475 187.078C13.3878 187.087 13.037 187.191 12.7299 187.378C12.4228 187.566 12.1704 187.831 11.9981 188.147C11.6264 189.078 12.4043 190.055 13.172 190.695C14.7076 191.976 16.4522 192.983 18.3294 193.672C19.0199 193.864 19.6697 194.18 20.2467 194.605C20.5312 194.826 20.7374 195.133 20.8349 195.48C20.9324 195.827 20.916 196.196 20.7884 196.534C20.5911 196.833 20.3049 197.064 19.9698 197.193C19.6348 197.321 19.2679 197.342 18.9207 197.251C18.2323 197.057 17.5627 196.801 16.9199 196.487C16.3122 196.202 15.6299 196.116 14.9703 196.241C14.3107 196.366 13.7074 196.695 13.246 197.183C13.0011 197.556 12.846 197.98 12.7925 198.423C12.7391 198.865 12.789 199.314 12.9383 199.734C13.2432 200.571 13.713 201.337 14.32 201.988C16.3055 204.372 18.8885 206.188 21.8049 207.247C24.5132 208.351 27.5307 208.431 30.2936 207.472" stroke="#002226" stroke-width="0.196844"/>
<path d="M30.3582 211.547C30.1033 209.001 29.6046 206.485 28.8692 204.034C27.9573 201.043 26.8746 198.107 25.6261 195.241L24.6615 192.979C24.3426 192.237 24.0244 191.502 23.6709 190.802C22.9881 189.459 22.2314 188.155 21.4041 186.895C20.6231 185.688 19.8372 184.57 19.0954 183.531C18.3537 182.492 17.6396 181.537 16.953 180.696C15.8768 179.362 14.6965 178.114 13.4233 176.966C12.9737 176.56 12.6154 176.257 12.3682 176.053L12.0863 175.824C12.0562 175.798 12.024 175.773 11.9902 175.751C12.0167 175.783 12.0465 175.812 12.0792 175.838L12.3501 176.079C12.5863 176.29 12.9399 176.602 13.3824 177.015C14.6355 178.18 15.7995 179.437 16.8648 180.776C17.5396 181.621 18.2475 182.577 18.9868 183.618C19.7262 184.659 20.5034 185.78 21.279 186.987C22.0988 188.244 22.8494 189.544 23.5277 190.883C23.8789 191.579 24.1922 192.308 24.5127 193.052L25.4771 195.313C26.7224 198.174 27.8071 201.103 28.726 204.085C29.4651 206.526 29.9736 209.03 30.2448 211.565" fill="#263238"/>
<path d="M23.6207 190.795C23.6646 190.67 23.6945 190.541 23.7097 190.409C23.7586 190.157 23.8145 189.79 23.8799 189.336C24.009 188.429 24.1437 187.168 24.2878 185.779C24.4319 184.391 24.5837 183.136 24.7262 182.236C24.7971 181.784 24.8569 181.419 24.901 181.167C24.9319 181.038 24.9492 180.906 24.9523 180.773C24.8995 180.897 24.861 181.027 24.8374 181.159C24.7728 181.407 24.6956 181.77 24.6098 182.22C24.4373 183.121 24.264 184.379 24.1215 185.769C23.9821 187.141 23.8579 188.381 23.7626 189.329L23.6459 190.407C23.6237 190.535 23.6153 190.665 23.6207 190.795Z" fill="#263238"/>
<path d="M11.9004 188.603C12.0539 188.637 12.2102 188.655 12.3673 188.659C12.6681 188.686 13.1035 188.723 13.6397 188.785C14.7137 188.901 16.19 189.113 17.8128 189.415C19.4356 189.717 20.8836 190.065 21.93 190.342C22.4536 190.477 22.8747 190.598 23.1653 190.679C23.3138 190.731 23.4671 190.769 23.6228 190.791C23.4825 190.719 23.3361 190.661 23.1851 190.616C22.8961 190.519 22.4828 190.379 21.9623 190.23C20.923 189.922 19.4685 189.561 17.8441 189.252C16.4582 188.986 15.0598 188.79 13.6539 188.666C13.2284 188.628 12.8016 188.604 12.3744 188.595C12.2165 188.583 12.0578 188.586 11.9004 188.603Z" fill="#263238"/>
<path d="M28.7246 203.819C28.7571 203.775 28.7837 203.727 28.8034 203.676L29.0033 203.252C29.1758 202.884 29.412 202.342 29.6938 201.671C30.2592 200.332 30.982 198.45 31.7513 196.366C32.5205 194.283 33.226 192.397 33.7622 191.045L34.4023 189.445L34.5749 189.008C34.5983 188.958 34.6145 188.905 34.6236 188.851C34.5912 188.895 34.5648 188.943 34.545 188.995L34.3441 189.418C34.1716 189.788 33.937 190.328 33.6544 190.999C33.089 192.342 32.3662 194.221 31.5961 196.305C30.8261 198.389 30.1222 200.274 29.5845 201.625L28.9451 203.226L28.7727 203.663C28.7505 203.713 28.7344 203.765 28.7246 203.819Z" fill="#263238"/>
<path d="M13.1504 198.8C13.1997 198.828 13.2526 198.85 13.3078 198.864L13.7598 199.015L15.4274 199.555C16.836 200.012 18.7738 200.665 20.9123 201.389C23.0508 202.112 24.9979 202.75 26.4175 203.177C27.1262 203.391 27.7011 203.563 28.1019 203.665L28.5624 203.786C28.6154 203.805 28.6709 203.815 28.727 203.817C28.6772 203.79 28.6244 203.768 28.5696 203.753L28.1169 203.601L26.4498 203.06C25.0412 202.604 23.1035 201.95 20.9626 201.227C18.8218 200.504 16.8762 199.866 15.4589 199.439C14.7502 199.225 14.174 199.053 13.774 198.95L13.3134 198.829C13.2606 198.812 13.2058 198.802 13.1504 198.8Z" fill="#263238"/>
</g>
<defs>
<clipPath id="clip0_781_35367">
<rect width="349.988" height="211.97" fill="white" transform="translate(0.00585938 0.700195)"/>
</clipPath>
</defs>
</svg>
