<svg width="36" height="61" viewBox="0 0 36 61" fill="none" xmlns="http://www.w3.org/2000/svg">
<g clip-path="url(#clip0_781_34819)">
<path d="M29.9984 1.40039H5.99844C3.18179 1.40039 0.898438 3.68374 0.898438 6.50039V54.5004C0.898438 57.317 3.18179 59.6004 5.99844 59.6004H29.9984C32.8151 59.6004 35.0984 57.317 35.0984 54.5004V6.50039C35.0984 3.68374 32.8151 1.40039 29.9984 1.40039Z" stroke="#3D4159" stroke-width="1.8"/>
<path d="M18 55.5C19.6569 55.5 21 54.1569 21 52.5C21 50.8431 19.6569 49.5 18 49.5C16.3431 49.5 15 50.8431 15 52.5C15 54.1569 16.3431 55.5 18 55.5Z" fill="#3D4159"/>
<path fill-rule="evenodd" clip-rule="evenodd" d="M27 19.5C28.1046 19.5 29 20.3954 29 21.5V24.498H28.2521V21.4989C28.2521 20.8361 27.7364 20.2939 27.0843 20.2515L27.0021 20.2489H24.0019V19.5H27ZM12.5019 19.5H9.5C8.39543 19.5 7.5 20.3954 7.5 21.5V39.5C7.5 40.6046 8.39543 41.5 9.5 41.5H12.5019V40.7489H9.50214L9.41995 40.7462C8.76791 40.7039 8.25214 40.1616 8.25214 39.4989V35.998H7.50195V24.498H8.25214V21.4989L8.2548 21.4167C8.29712 20.7647 8.8394 20.2489 9.50214 20.2489H12.5019V19.5ZM24.0019 40.7489V41.5H27C28.1046 41.5 29 40.6046 29 39.5V35.998H28.2521V39.4989L28.2495 39.5811C28.2072 40.2331 27.6649 40.7489 27.0021 40.7489H24.0019Z" fill="#3D4159"/>
<path d="M17.8707 30.1707C19.0619 30.1707 20.0933 29.7434 20.9361 28.9005C21.7789 28.0577 22.2061 27.0265 22.2061 25.8352C22.2061 24.6443 21.7789 23.6129 20.936 22.7699C20.0931 21.9272 19.0617 21.5 17.8707 21.5C16.6793 21.5 15.6481 21.9272 14.8054 22.77C13.9626 23.6128 13.5352 24.6441 13.5352 25.8352C13.5352 27.0265 13.9626 28.0579 14.8055 28.9006C15.6484 29.7433 16.6798 30.1707 17.8707 30.1707Z" fill="#3D4159"/>
<path d="M25.4576 35.3407C25.4333 34.99 25.3841 34.6074 25.3118 34.2034C25.2387 33.7963 25.1446 33.4115 25.032 33.0598C24.9157 32.6963 24.7575 32.3373 24.5619 31.9933C24.359 31.6363 24.1206 31.3254 23.8531 31.0695C23.5733 30.8019 23.2308 30.5867 22.8348 30.4297C22.4401 30.2736 22.0027 30.1945 21.5348 30.1945C21.3511 30.1945 21.1734 30.2699 20.8302 30.4933C20.619 30.631 20.3719 30.7903 20.0962 30.9665C19.8604 31.1168 19.5409 31.2575 19.1464 31.385C18.7615 31.5095 18.3706 31.5727 17.9849 31.5727C17.5991 31.5727 17.2084 31.5095 16.8231 31.385C16.4289 31.2577 16.1095 31.1169 15.874 30.9667C15.6008 30.7921 15.3536 30.6328 15.1393 30.4932C14.7965 30.2697 14.6187 30.1943 14.4349 30.1943C13.9669 30.1943 13.5297 30.2736 13.1351 30.4299C12.7393 30.5865 12.3967 30.8017 12.1167 31.0697C11.8493 31.3256 11.6108 31.6364 11.4081 31.9933C11.2126 32.3373 11.0544 32.6962 10.938 33.06C10.8255 33.4117 10.7314 33.7963 10.6584 34.2034C10.586 34.6068 10.5368 34.9896 10.5125 35.3411C10.4886 35.6856 10.4766 36.043 10.4766 36.4041C10.4766 37.3437 10.7753 38.1043 11.3643 38.6653C11.946 39.2189 12.7157 39.4997 13.6517 39.4997H22.3188C23.2548 39.4997 24.0243 39.219 24.6062 38.6653C25.1953 38.1047 25.494 37.3439 25.494 36.4039C25.4939 36.0412 25.4816 35.6835 25.4576 35.3407Z" fill="#3D4159"/>
<path d="M7 27.583H29.1938" stroke="#59BD88" stroke-width="2" stroke-linecap="round"/>
<path d="M15.5977 5.90039H21.5977" stroke="#3D4159" stroke-width="1.8" stroke-linecap="round"/>
</g>
<defs>
<clipPath id="clip0_781_34819">
<rect width="36" height="60" fill="white" transform="translate(0 0.5)"/>
</clipPath>
</defs>
</svg>
