<svg width="60" height="61" viewBox="0 0 60 61" fill="none" xmlns="http://www.w3.org/2000/svg">
<g clip-path="url(#clip0_781_34829)">
<path d="M54.1369 47.1536C55.3222 45.524 55.9645 43.5627 55.973 41.5477C55.9858 41.2827 55.8927 41.0236 55.7144 40.8272C55.536 40.6309 55.2869 40.5134 55.022 40.5007C54.4724 40.4802 54.0072 40.9027 53.9749 41.4517C53.9824 43.0487 53.4904 44.6081 52.5678 45.9116C50.6167 48.3756 46.9145 48.5006 46.1915 48.5006C45.6391 48.5006 45.1914 48.9483 45.1914 49.5006C45.1914 50.0529 45.6391 50.5006 46.1915 50.5006C47.0755 50.5006 51.6128 50.3396 54.1369 47.1536Z" fill="#24272C"/>
<path d="M41.4768 28.0996H33.4156C32.856 28.0996 32.4023 28.5533 32.4023 29.113C32.4023 29.6726 32.856 30.1263 33.4156 30.1263H35.7227L35.9627 30.1371C36.7543 30.212 37.4552 30.6698 37.8446 31.3517L37.9463 31.5538L33.4156 31.5553C32.856 31.5553 32.4023 32.009 32.4023 32.5686L32.4156 32.733C32.4941 33.2144 32.912 33.5819 33.4156 33.5819L37.9551 33.5804L37.8648 33.7649C37.7571 33.9598 37.6193 34.1379 37.4559 34.2923C36.9942 34.7557 36.3717 35.0132 35.7233 35.0109H33.4156C32.999 35.0139 32.6273 35.2686 32.474 35.6547C32.3212 36.0413 32.4184 36.4816 32.7194 36.7683L38.4854 42.2185C38.748 42.4697 39.1264 42.5614 39.4758 42.4576C39.8255 42.3531 40.0923 42.0699 40.1748 41.715L40.2001 41.5368C40.2155 41.2394 40.099 40.9463 39.8759 40.7401L35.9531 37.0276L35.7227 37.0376C36.9091 37.0414 38.0483 36.57 38.8856 35.7284L39.1118 35.4873C39.5449 34.9893 39.8607 34.3994 40.035 33.7622L40.0764 33.5804L41.4772 33.5819C42.0368 33.5819 42.4905 33.1282 42.4905 32.5686L42.4773 32.4042C42.3987 31.9228 41.9808 31.5553 41.4772 31.5553L40.0712 31.5538L40.0052 31.2967C39.8849 30.9046 39.7138 30.5301 39.4964 30.1828L39.4565 30.1261L41.4768 30.1263C42.0364 30.1263 42.4901 29.6726 42.4901 29.113C42.4901 28.5533 42.0364 28.0996 41.4768 28.0996Z" fill="#0B66FA"/>
<path d="M59.1673 34.2713C56.7032 23.8005 51.2248 17.7335 47.2686 14.5646C52.2299 14.9386 53.827 17.0025 53.874 17.0645C54.1873 17.5118 54.8015 17.625 55.2537 17.3189C55.7059 17.0128 55.8289 16.4006 55.5301 15.9436C55.4581 15.8356 54.069 13.8516 50.0298 12.9436C51.0626 12.0946 51.6736 10.8373 51.7029 9.50063C51.5692 7.28461 50.0264 5.40546 47.8787 4.84269C47.9667 4.12036 48.0115 3.3934 48.0127 2.66572C48.0116 1.99533 47.6747 1.37006 47.1154 1.00043C46.556 0.63079 45.8487 0.565953 45.2315 0.827742C44.7266 1.05631 44.2577 1.35713 43.8394 1.72073C43.3487 2.22504 42.673 2.50683 41.9693 2.50072C41.2667 2.50567 40.5925 2.224 40.1022 1.72073C38.3398 0.0930901 35.6223 0.0930901 33.8599 1.72073C33.369 2.22614 32.6923 2.50809 31.9878 2.50072C31.2853 2.50656 30.611 2.22473 30.1217 1.72073C29.7045 1.35791 29.237 1.05746 28.7336 0.828742C28.1168 0.568707 27.4108 0.63443 26.8526 1.00385C26.2945 1.37326 25.9581 1.9974 25.9564 2.66672C25.9564 5.15469 26.4485 9.59263 29.5636 12.5726C27.9265 13.568 26.3975 14.7313 25.0014 16.0436V8.50065C25.0014 6.22067 21.7762 4.5007 17.501 4.5007C13.2257 4.5007 10.0006 6.22067 10.0006 8.50065V18.5755C6.49336 18.9255 4.00022 20.5005 4.00022 22.5005V47.9352C1.58409 48.5841 0 49.9001 0 51.5001V56.5C0 58.78 3.22518 60.5 7.50042 60.5C11.3236 60.5 14.3008 59.123 14.8878 57.2C16.6141 58.114 18.5488 58.5621 20.5011 58.5C24.7764 58.5 28.0016 56.78 28.0016 54.5001V41.5002C28.0016 39.2203 24.7764 37.5003 20.5011 37.5003C20.0002 37.5 19.4995 37.525 19.0011 37.5753V22.5005C19.0011 20.3105 16.0239 18.6425 12.0007 18.5135V11.2696C13.702 12.1343 15.5934 12.5576 17.501 12.5006C19.4086 12.5576 21.3 12.1343 23.0013 11.2696V18.0895C22.3422 18.8265 21.6802 19.6295 21.0272 20.5195C20.7281 20.9648 20.8337 21.5667 21.2664 21.8837C21.6991 22.2006 22.3048 22.1198 22.6393 21.7005C23.2816 20.831 23.9699 19.9965 24.7014 19.2005C24.7094 19.1915 24.7164 19.1825 24.7244 19.1745C26.6334 17.053 28.8752 15.2565 31.3617 13.8556C31.852 14.092 32.3706 14.2644 32.9048 14.3686L30.3267 16.7745C29.9229 17.1517 29.9015 17.7848 30.2787 18.1885C30.6559 18.5922 31.289 18.6137 31.6928 18.2365L35.693 14.5056H36.012V17.5055C36.012 18.0578 36.4597 18.5055 37.0121 18.5055C37.5644 18.5055 38.0121 18.0578 38.0121 17.5055V14.5006H38.3311L42.3314 18.2315C42.5925 18.4755 42.9641 18.5617 43.306 18.4575C43.6479 18.3534 43.9083 18.0747 43.989 17.7265C44.0698 17.3784 43.9586 17.0136 43.6974 16.7695L41.1023 14.3536C41.6333 14.2485 42.1486 14.0754 42.6354 13.8386C45.2785 15.2686 53.967 20.9185 57.2212 34.7293C58.6363 40.7412 58.1262 45.3402 55.7061 48.3952C52.6099 52.3001 47.2376 52.5001 46.1926 52.5001H32.0018C31.4495 52.5001 31.0017 52.9478 31.0017 53.5001C31.0017 54.0524 31.4495 54.5001 32.0018 54.5001H46.1926C47.8927 54.5001 53.698 54.1491 57.2732 49.6371C60.0913 46.0782 60.7294 40.9082 59.1673 34.2713ZM7.50042 49.5001C10.8076 49.5001 13.0007 50.7001 13.0007 51.5001C13.0007 52.3001 10.8076 53.5001 7.50042 53.5001C4.19323 53.5001 2.00011 52.3001 2.00011 51.5001C2.00011 50.7001 4.19323 49.5001 7.50042 49.5001ZM7.50042 58.5C4.19323 58.5 2.00011 57.3 2.00011 56.5V54.2691C3.70144 55.1338 5.59279 55.557 7.50042 55.5001C9.40804 55.557 11.2994 55.1338 13.0007 54.2691V56.5C13.0007 57.3 10.8076 58.5 7.50042 58.5ZM20.5011 56.5C17.194 56.5 15.0008 55.3001 15.0008 54.5001V44.2692C16.7022 45.1339 18.5935 45.5572 20.5011 45.5002C22.4088 45.5572 24.3001 45.1339 26.0014 44.2692V54.5001C26.0014 55.3001 23.8083 56.5 20.5011 56.5ZM26.0014 41.5002C26.0014 42.3002 23.8083 43.5002 20.5011 43.5002C17.194 43.5002 15.0008 42.3002 15.0008 41.5002C15.0008 40.7002 17.194 39.5003 20.5011 39.5003C23.8083 39.5003 26.0014 40.7002 26.0014 41.5002ZM13.0007 41.5002V48.7311C11.2994 47.8665 9.40804 47.4432 7.50042 47.5002C6.99944 47.4998 6.49878 47.5249 6.00033 47.5752V25.2694C7.70166 26.1341 9.59302 26.5574 11.5006 26.5004C13.4083 26.5574 15.2996 26.1341 17.0009 25.2694V37.9353C14.5848 38.5843 13.0007 39.9003 13.0007 41.5002ZM17.0009 22.5005C17.0009 23.3005 14.8078 24.5004 11.5006 24.5004C8.19346 24.5004 6.00033 23.3005 6.00033 22.5005C6.00033 21.7005 8.19346 20.5005 11.5006 20.5005C14.8078 20.5005 17.0009 21.7005 17.0009 22.5005ZM17.501 10.5006C14.1938 10.5006 12.0007 9.30064 12.0007 8.50065C12.0007 7.70066 14.1938 6.50067 17.501 6.50067C20.8082 6.50067 23.0013 7.70066 23.0013 8.50065C23.0013 9.30064 20.8082 10.5006 17.501 10.5006ZM49.7028 9.50063C49.7028 11.1396 47.9277 12.4846 45.7025 12.5006C45.3304 12.4982 44.9595 12.4557 44.5965 12.3736C46.0479 10.8252 47.0568 8.91532 47.5176 6.84367C48.7214 7.19833 49.5872 8.25111 49.7028 9.50063ZM28.8696 3.28071C29.7142 4.07204 30.8304 4.50877 31.9878 4.5007C33.1459 4.50939 34.263 4.0726 35.108 3.28071C35.6023 2.78166 36.2756 2.50089 36.9781 2.50089C37.6805 2.50089 38.3538 2.78166 38.8482 3.28071C39.6932 4.0732 40.8108 4.51006 41.9693 4.5007C43.1278 4.50965 44.2453 4.07284 45.0905 3.28071C45.3677 3.03579 45.676 2.82866 46.0076 2.66472C46.0076 4.5217 45.6625 9.11264 42.4404 11.6296C41.7155 12.174 40.8367 12.4747 39.9302 12.4886C40.796 11.0017 41.4812 9.41688 41.9713 7.76766C42.0671 7.42326 41.9718 7.05394 41.7214 6.79882C41.471 6.5437 41.1035 6.44154 40.7574 6.53082C40.4112 6.6201 40.139 6.88726 40.0432 7.23166C39.4894 9.1114 38.6378 10.8903 37.5211 12.5006H36.493C35.3785 10.8888 34.5268 9.1104 33.9699 7.23166C33.8216 6.69954 33.27 6.38838 32.7378 6.53667C32.2057 6.68496 31.8945 7.23654 32.0428 7.76865C32.5334 9.4193 33.2193 11.0055 34.0859 12.4936C33.1613 12.4889 32.2628 12.1862 31.5238 11.6306C28.3016 9.11464 27.9566 4.5237 27.9566 2.67272C28.288 2.83149 28.5953 3.03616 28.8696 3.28071Z" fill="#24272C"/>
<path d="M54.1369 47.1536C55.3222 45.5239 55.9645 43.5627 55.973 41.5476C55.9858 41.2827 55.8927 41.0235 55.7144 40.8271C55.536 40.6308 55.2869 40.5133 55.022 40.5006C54.4727 40.4812 54.0082 40.9031 53.9749 41.4516C53.9824 43.0486 53.4904 44.608 52.5678 45.9116C50.6167 48.3755 46.9145 48.5005 46.1915 48.5005C45.6391 48.5005 45.1914 48.9483 45.1914 49.5005C45.1914 50.0528 45.6391 50.5005 46.1915 50.5005C47.0755 50.5005 51.6128 50.3395 54.1369 47.1536Z" fill="#24272C"/>
</g>
<defs>
<clipPath id="clip0_781_34829">
<rect width="60" height="60" fill="white" transform="translate(0 0.5)"/>
</clipPath>
</defs>
</svg>
