<svg width="185" height="92" viewBox="0 0 185 92" fill="none" xmlns="http://www.w3.org/2000/svg">
<g clip-path="url(#clip0_781_34683)">
<path d="M3.43851 73.1152H69.1643C69.7718 73.1152 70.3281 73.2971 70.7956 73.6037C71.1915 73.8632 71.5157 74.2136 71.7444 74.628C71.9731 75.039 72.1028 75.5141 72.1028 76.0161C72.1028 76.1071 72.0993 76.1947 72.0891 76.2823C71.9526 77.758 70.6966 78.9171 69.1643 78.9171H12.5612L22.8545 85.7904L23.2504 85.9858L22.8682 91.9696L22.5644 91.909L21.5064 91.1981L21.6464 91.5114L1.81056 78.4285C1.02218 77.9097 0.5 77.0202 0.5 76.0128C0.5 74.4157 1.81738 73.1152 3.43851 73.1152Z" fill="#2939B4"/>
<path d="M129.609 71.7295L131.442 72.9391L136.872 76.5273L141.78 79.7652H184.499L181.496 77.7807L175.595 73.8858L172.332 71.7295H129.609Z" fill="#C9F0DF"/>
<path fill-rule="evenodd" clip-rule="evenodd" d="M131.387 72.1611H171.854L182.727 79.3377H142.257L131.387 72.1611ZM181.342 78.9229L171.728 72.5752H132.77L142.384 78.9229H181.342Z" fill="#0B66FA"/>
<path d="M162.016 77.9093C158.887 77.9093 154.948 77.168 151.982 76.0225C149.88 75.2105 149.129 74.5029 148.969 74.2266C149.085 74.139 149.399 73.9537 150.143 73.8021C150.836 73.6606 151.696 73.5898 152.692 73.5898C155.9 73.5898 160.02 74.3479 162.938 75.4766C164.986 76.2684 165.678 76.9591 165.811 77.2152C165.709 77.3062 165.388 77.5252 164.532 77.697C163.835 77.8385 162.992 77.9093 162.016 77.9093Z" fill="#79B236"/>
<path fill-rule="evenodd" clip-rule="evenodd" d="M162.016 77.9093C158.887 77.9093 154.948 77.168 151.982 76.0225C149.88 75.2105 149.129 74.5029 148.969 74.2266C149.085 74.139 149.399 73.9537 150.143 73.8021C150.836 73.6606 151.696 73.5898 152.692 73.5898C155.9 73.5898 160.02 74.3479 162.938 75.4766C164.986 76.2684 165.678 76.9591 165.811 77.2152C165.709 77.3062 165.388 77.5252 164.532 77.697C163.835 77.8385 162.992 77.9093 162.016 77.9093Z" stroke="#0B66FA" stroke-width="1.8585"/>
<path d="M174.68 78.5316H179.936L176.901 76.5303L174.68 78.5316Z" fill="#0B66FA"/>
<path d="M166.367 72.5518H171.623L174.657 74.5531L166.367 72.5518Z" fill="#B3DD72"/>
<path d="M148.353 78.2494H143.098L140.062 76.248L148.353 78.2494Z" fill="#0B66FA"/>
<path d="M138.303 72.5137H133.051L136.081 74.515L138.303 72.5137Z" fill="#B3DD72"/>
<path d="M184.501 79.7656H141.781V83.3269H184.501V79.7656Z" fill="#2CA66F"/>
<path d="M141.78 79.7648L129.609 71.7324V75.132L141.78 83.3295V79.7648Z" fill="#0B66FA"/>
<path d="M3.05859 73.1152L7.23258 75.8713L12.27 79.1968L22.8705 86.1981H86.6304L86.6338 86.2015L90.6338 86.6867L70.798 73.6038C70.3304 73.2972 69.7741 73.1152 69.1666 73.1152H3.05859Z" fill="#5367FF"/>
<path d="M19.2344 74.7998L34.2989 84.7493H81.0046L65.94 74.7998H19.2344Z" fill="white"/>
<path d="M19.2344 74.7998L34.2989 84.7493H72.8853L57.8207 74.7998H19.2344Z" fill="#D7DBF8"/>
<path d="M40.0174 82.7988C39.6258 82.7988 39.2427 82.6838 38.9158 82.4681L33.033 78.5856C32.2052 78.0393 32.592 76.751 33.5838 76.751H42.335C42.7268 76.751 43.1099 76.8661 43.4368 77.0819L49.3173 80.9643C50.1449 81.5107 49.7579 82.7988 48.7662 82.7988H40.0174Z" fill="#0B66FA"/>
<path d="M44.5887 81.0391L40.7594 78.5088H38.2578L42.087 81.0391H44.5887Z" fill="white"/>
<g style="mix-blend-mode:multiply">
<path d="M136.873 76.5481V78.9841L133.051 76.3797L132.996 73.9336L136.873 76.5481Z" fill="#C9C9C9"/>
</g>
<g style="mix-blend-mode:multiply" opacity="0.78">
<path d="M131.441 72.9404L136.871 76.5287L160.803 77.6069L181.495 77.7821L175.594 73.8872L131.441 72.9404Z" fill="#5D547F"/>
</g>
<path d="M142.286 65.4505C140.886 68.8837 139.664 72.3878 138.641 75.9457C153.845 77.1823 168.92 76.9835 184.063 75.1371C181.285 70.9963 178.619 66.8083 176.063 62.5293C164.869 64.7833 153.698 65.6425 142.286 65.4505Z" fill="#C9F0DF"/>
<path fill-rule="evenodd" clip-rule="evenodd" d="M140.027 75.4797C154.239 76.5242 168.331 76.2951 182.48 74.6071C180.081 70.9312 177.791 67.1846 175.624 63.3672C164.815 65.4123 154.027 66.2041 143.031 66.0255C141.877 69.132 140.874 72.2856 140.027 75.4797Z" stroke="#0B66FA" stroke-width="1.3668"/>
<path d="M161.316 74.5143C158.323 74.5143 155.92 73.6416 154.719 72.1221C154.354 71.6605 154.258 71.209 154.419 70.6969C154.804 69.457 156.634 68.1227 158.101 67.6578C159.081 67.3478 160.101 67.1895 161.132 67.1895C163.343 67.1895 165.361 67.9206 166.811 69.2481C167.63 69.9961 167.934 70.8552 167.692 71.7312C167.388 72.8262 166.272 73.7595 164.907 74.056L164.859 74.0695C163.77 74.3593 162.548 74.5143 161.316 74.5143Z" fill="#F7FFC7"/>
<path fill-rule="evenodd" clip-rule="evenodd" d="M161.316 74.5143C158.323 74.5143 155.92 73.6416 154.719 72.1221C154.354 71.6605 154.258 71.209 154.419 70.6969C154.804 69.457 156.634 68.1227 158.101 67.6578C159.081 67.3478 160.101 67.1895 161.132 67.1895C163.343 67.1895 165.361 67.9206 166.811 69.2481C167.63 69.9961 167.934 70.8552 167.692 71.7312C167.388 72.8262 166.272 73.7595 164.907 74.056L164.859 74.0695C163.77 74.3593 162.548 74.5143 161.316 74.5143Z" fill="#C9F0DF" stroke="#0B66FA" stroke-width="1.8585"/>
<path d="M162.043 72.1325C162.064 72.1157 162.074 72.0955 162.074 72.0719L162.047 71.6474C162.255 71.6069 162.432 71.5429 162.579 71.4553L162.617 72.0315C162.617 72.055 162.63 72.0719 162.654 72.0854C162.678 72.0988 162.709 72.1056 162.743 72.1022L163.128 72.0786C163.163 72.0753 163.193 72.0685 163.214 72.0517C163.234 72.0348 163.245 72.0146 163.245 71.991L163.115 69.929C163.115 69.9055 163.101 69.8886 163.077 69.8751C163.053 69.8616 163.023 69.8549 162.989 69.8583L162.487 69.8886C162.453 69.892 162.425 69.8987 162.405 69.9189C162.381 69.9358 162.371 69.956 162.374 69.9762L162.398 70.3367C162.419 70.6838 162.292 70.9162 162.012 71.0274L161.948 70.0032C161.948 69.9796 161.934 69.9627 161.91 69.9493C161.886 69.9358 161.855 69.929 161.821 69.9324L161.436 69.956C161.402 69.9594 161.371 69.9661 161.35 69.9829C161.33 69.9998 161.32 70.02 161.32 70.0436L161.388 71.1015C161.18 71.078 161.016 71.0038 160.9 70.8758C160.784 70.7478 160.719 70.5759 160.705 70.3603L160.688 70.084C160.688 70.0638 160.675 70.0436 160.647 70.0301C160.623 70.0166 160.593 70.0099 160.562 70.0133L160.081 70.0436C160.047 70.047 160.019 70.0537 159.999 70.0705C159.504 70.4209 158.811 70.8758 157.92 71.4385C157.89 71.4553 157.876 71.4755 157.879 71.5025L157.91 71.9843C157.914 72.018 157.937 72.0416 157.982 72.0517C158.03 72.0652 158.071 72.0584 158.108 72.0348C158.978 71.4957 159.63 71.078 160.06 70.7714C160.129 71.0476 160.282 71.27 160.518 71.4284C160.756 71.5901 161.057 71.6777 161.422 71.6945L161.449 72.1123C161.449 72.1359 161.463 72.1528 161.487 72.1662C161.511 72.1797 161.541 72.1864 161.576 72.1831L161.961 72.1595C161.995 72.1595 162.023 72.1494 162.043 72.1325Z" fill="#0B66FA"/>
<path d="M176.113 74.8036C178.222 74.598 179.27 74.4801 181.345 74.2173C180.553 72.9606 180.164 72.3305 179.4 71.0771C178.236 72.6068 177.577 73.3548 176.113 74.8036Z" fill="#0B66FA"/>
<path opacity="0.63" d="M171.32 64.8101C172.952 64.5507 173.757 64.4091 175.351 64.1025C176.04 65.3492 176.395 65.9725 177.119 67.2225C174.651 66.2622 173.494 65.7771 171.32 64.8101Z" fill="#0B66FA"/>
<path opacity="0.63" d="M146.506 75.4465C144.261 75.3387 143.134 75.2713 140.875 75.1028C141.134 74.028 141.271 73.489 141.561 72.4209C143.394 73.6204 144.383 74.2268 146.506 75.4465Z" fill="#0B66FA"/>
<path d="M148.375 66.5662C146.573 66.5729 145.665 66.5628 143.843 66.5156C143.491 67.5635 143.321 68.0924 143 69.1504C145.28 68.1767 146.358 67.6578 148.375 66.5662Z" fill="#0B66FA"/>
<path d="M184.059 75.1367C168.916 76.9831 153.841 77.1819 138.637 75.9453" stroke="#2CA66F" stroke-width="0.8179"/>
<g style="mix-blend-mode:multiply" opacity="0.61">
<path d="M173.957 66.9902L177.121 70.6257C177.121 70.6257 143.483 76.2086 138.879 75.1371C139.626 72.408 139.626 72.408 139.626 72.408L173.957 66.9902Z" fill="#5D547F"/>
</g>
<path d="M131.5 74.8707C146.711 73.7217 161.564 71.1746 176.223 66.9899C172.813 63.3376 169.513 59.6146 166.305 55.7871C163.923 56.6732 161.527 57.4886 159.117 58.2433C150.735 60.8646 142.203 62.7009 133.418 63.9374C133.043 65.558 132.708 67.1854 132.415 68.8228C132.053 70.8275 131.746 72.8457 131.5 74.8707Z" fill="#C9F0DF"/>
<path fill-rule="evenodd" clip-rule="evenodd" d="M132.801 74.1933C146.998 73.0106 160.879 70.5881 174.578 66.7135C171.619 63.4588 168.759 60.1164 166.008 56.6865C155.664 60.3927 145.138 62.8557 134.248 64.3954C133.613 67.6367 133.128 70.9082 132.801 74.1933Z" stroke="#0B66FA" stroke-width="1.3668"/>
<path d="M151.574 70.0851C150.127 70.0851 148.117 69.8256 146.766 68.5824C146.332 68.1848 146.165 67.7502 146.24 67.2212C146.424 65.9341 148.018 64.3337 149.39 63.6464C150.766 62.9557 152.295 62.5918 153.806 62.5918C155.451 62.5918 156.987 63.0298 158.247 63.8586C159.175 64.4685 159.612 65.2704 159.513 66.1733C159.39 67.302 158.434 68.4004 157.137 68.9024L157.09 68.9227C155.438 69.6639 153.428 70.0851 151.574 70.0851Z" fill="#C9F0DF"/>
<path fill-rule="evenodd" clip-rule="evenodd" d="M151.574 70.0851C150.127 70.0851 148.117 69.8256 146.766 68.5824C146.332 68.1848 146.165 67.7502 146.24 67.2212C146.424 65.9341 148.018 64.3337 149.39 63.6464C150.766 62.9557 152.295 62.5918 153.806 62.5918C155.451 62.5918 156.987 63.0298 158.247 63.8586C159.175 64.4685 159.612 65.2704 159.513 66.1733C159.39 67.302 158.434 68.4004 157.137 68.9024L157.09 68.9227C155.438 69.6639 153.428 70.0851 151.574 70.0851Z" stroke="#0B66FA" stroke-width="1.8585"/>
<path d="M154.306 67.6695C154.326 67.6392 154.33 67.6055 154.319 67.5718L154.111 66.935C154.354 66.8103 154.551 66.6587 154.702 66.4835L154.985 67.3528C154.995 67.3865 155.019 67.41 155.053 67.4269C155.087 67.4404 155.128 67.4404 155.173 67.4269L155.647 67.2753C155.691 67.2618 155.722 67.2382 155.743 67.2079C155.763 67.1776 155.766 67.1439 155.756 67.1102L154.739 64.0071C154.729 63.9734 154.705 63.9498 154.671 63.933C154.637 63.9195 154.596 63.9195 154.551 63.933L153.934 64.1317C153.893 64.1452 153.862 64.1688 153.842 64.1991C153.821 64.2328 153.814 64.2631 153.825 64.2968L154.002 64.8393C154.173 65.3649 154.108 65.7524 153.804 66.0051L153.299 64.4653C153.289 64.4316 153.265 64.4047 153.231 64.3912C153.197 64.3777 153.156 64.3777 153.111 64.3912L152.637 64.5428C152.592 64.5563 152.562 64.5799 152.541 64.6102C152.521 64.6405 152.517 64.6742 152.528 64.7079L153.05 66.3016C152.777 66.3285 152.541 66.2611 152.343 66.1061C152.145 65.9478 151.992 65.7052 151.883 65.3784L151.746 64.9606C151.736 64.9269 151.712 64.9033 151.674 64.8898C151.637 64.8764 151.599 64.8764 151.558 64.8865L150.968 65.0751C150.927 65.0886 150.896 65.1088 150.876 65.1425C150.401 65.8231 149.719 66.7227 148.831 67.8481C148.801 67.8817 148.794 67.9188 148.808 67.9592L149.046 68.687C149.064 68.7409 149.104 68.7679 149.166 68.7679C149.231 68.7746 149.282 68.7544 149.319 68.7038C150.19 67.6223 150.835 66.7867 151.248 66.1971C151.449 66.6014 151.732 66.8878 152.094 67.063C152.459 67.2382 152.872 67.282 153.34 67.1978L153.545 67.8245C153.555 67.8582 153.579 67.8851 153.613 67.8952C153.647 67.9087 153.688 67.9087 153.732 67.8952L154.207 67.7436C154.251 67.7234 154.285 67.6998 154.306 67.6695Z" fill="#0B66FA"/>
<path d="M168.32 67.8994C170.371 67.367 171.385 67.0874 173.392 66.5045C172.409 65.3859 171.921 64.8266 170.969 63.708C170.068 65.3994 169.539 66.2383 168.32 67.8994Z" fill="#0B66FA"/>
<path d="M161.992 58.7757C163.562 58.2636 164.333 57.9974 165.859 57.4482C166.74 58.5702 167.19 59.1329 168.105 60.2548C165.514 59.6922 164.292 59.3957 161.992 58.7757Z" fill="#0B66FA"/>
<path d="M139.68 73.072C137.448 73.318 136.322 73.4258 134.062 73.6111C134.149 72.506 134.197 71.9568 134.312 70.8584C136.316 71.758 137.39 72.2027 139.68 73.072Z" fill="#0B66FA"/>
<path opacity="0.63" d="M139.613 64.0898C137.835 64.3762 136.937 64.5076 135.128 64.7469C134.947 65.8385 134.869 66.3843 134.719 67.4793C136.818 66.1619 137.797 65.4814 139.613 64.0898Z" fill="#0B66FA"/>
<path d="M176.223 66.9902C161.564 71.1749 146.711 73.722 131.5 74.871" stroke="#2CA66F" stroke-width="0.8179"/>
<path d="M101.871 26.5283C106.011 32.2291 111.427 36.4239 117.396 40.1132C130.01 32.5862 142.461 22.7951 148.051 8.84636C141.741 7.48517 136.311 5.50404 130.898 2C125.557 13.9407 113.345 21.2621 101.871 26.5283Z" fill="#C9F0DF"/>
<path fill-rule="evenodd" clip-rule="evenodd" d="M117.651 38.762C129.494 31.5821 141.033 22.4008 146.63 9.44263C141.169 8.1185 135.985 6.36985 131.326 3.17578C125.91 14.4359 114.651 21.4979 103.723 26.7944C107.798 31.6428 112.289 35.3624 117.651 38.762Z" stroke="#0B66FA" stroke-width="1.5539"/>
<path d="M127.049 25.9928C126.428 25.9928 125.824 25.9457 125.254 25.8513C123.463 25.5548 122.039 24.5508 121.347 23.0953C120.684 21.7004 120.8 20.1236 121.667 18.6546C123.186 16.0804 125.995 14.4834 128.991 14.4834C129.524 14.4834 130.06 14.5339 130.582 14.6384C132.729 15.0562 134.722 16.3028 135.66 17.8055C136.261 18.7657 136.415 19.7967 136.118 20.8715C134.892 24.3891 130.561 25.9928 127.049 25.9928Z" fill="#C9F0DF"/>
<path fill-rule="evenodd" clip-rule="evenodd" d="M127.049 25.9928C126.428 25.9928 125.824 25.9457 125.254 25.8513C123.463 25.5548 122.039 24.5508 121.347 23.0953C120.684 21.7004 120.8 20.1236 121.667 18.6546C123.186 16.0804 125.995 14.4834 128.991 14.4834C129.524 14.4834 130.06 14.5339 130.582 14.6384C132.729 15.0562 134.722 16.3028 135.66 17.8055C136.261 18.7657 136.415 19.7967 136.118 20.8715C134.892 24.3891 130.561 25.9928 127.049 25.9928Z" stroke="#0B66FA" stroke-width="1.8585"/>
<path d="M130.831 21.1145C130.844 21.0741 130.837 21.0303 130.814 20.9898L130.38 20.225C130.602 20.0363 130.766 19.8207 130.872 19.5781L131.465 20.6226C131.489 20.663 131.523 20.69 131.564 20.7034C131.605 20.7135 131.65 20.7102 131.691 20.6866L132.155 20.4305C132.196 20.4069 132.223 20.3733 132.237 20.3328C132.247 20.2924 132.244 20.2486 132.22 20.2082L130.104 16.4817C130.08 16.4413 130.046 16.4144 130.005 16.4009C129.964 16.3908 129.919 16.3941 129.878 16.4177L129.274 16.7513C129.233 16.7715 129.21 16.8052 129.196 16.849C129.182 16.8928 129.189 16.9332 129.21 16.9737L129.578 17.6239C129.936 18.254 129.991 18.7493 129.745 19.1064L128.694 17.2567C128.67 17.2162 128.636 17.1893 128.595 17.1758C128.554 17.1657 128.51 17.1691 128.469 17.1927L128.005 17.4487C127.964 17.4723 127.937 17.506 127.923 17.5464C127.909 17.5869 127.916 17.6307 127.94 17.6711L129.025 19.5848C128.739 19.6556 128.466 19.6084 128.196 19.44C127.93 19.2715 127.684 18.9919 127.462 18.5976L127.179 18.0956C127.158 18.0552 127.124 18.0316 127.08 18.0181C127.035 18.0047 126.995 18.0114 126.954 18.0316L126.377 18.3517C126.336 18.3719 126.312 18.4056 126.298 18.446C126.008 19.3591 125.565 20.5821 124.974 22.1084C124.954 22.1556 124.957 22.2028 124.984 22.2499L125.479 23.1226C125.513 23.1866 125.568 23.2135 125.636 23.2068C125.708 23.2068 125.756 23.1731 125.78 23.1024C126.367 21.6334 126.79 20.4979 127.046 19.7028C127.394 20.1778 127.793 20.4979 128.247 20.663C128.698 20.8281 129.162 20.8247 129.636 20.6529L130.063 21.4042C130.087 21.4447 130.121 21.4716 130.162 21.4851C130.203 21.4986 130.247 21.4919 130.288 21.4683L130.752 21.2122C130.79 21.192 130.817 21.1583 130.831 21.1145Z" fill="#0B66FA"/>
<path d="M143.615 13.6546C144.509 12.1216 144.902 11.3602 145.581 9.86084C143.594 9.40262 142.639 9.12971 140.816 8.50977C141.97 10.5515 142.53 11.5792 143.615 13.6546Z" fill="#0B66FA"/>
<path d="M129.922 7.34427C130.768 6.05046 131.137 5.40693 131.768 4.13672C133.185 5.07338 133.942 5.51138 135.546 6.31327C133.29 6.84224 132.161 7.04777 129.922 7.34427Z" fill="#0B66FA"/>
<path d="M123.63 33.9844C121.524 35.4332 120.411 36.1407 118.073 37.5221C116.172 36.3833 115.275 35.7802 113.582 34.5235C116.937 34.5032 120.292 34.3247 123.63 33.9844Z" fill="#0B66FA"/>
<path d="M110.806 24.1025C108.782 25.2548 107.714 25.8141 105.465 26.8856C106.676 28.3546 107.339 29.0688 108.772 30.4536C109.622 27.9098 110.028 26.6396 110.806 24.1025Z" fill="#0B66FA"/>
<path d="M148.051 8.8457C142.464 22.7979 130.01 32.5856 117.396 40.1125C111.427 36.4232 106.011 32.2251 101.871 26.5276" stroke="#2CA66F" stroke-width="0.8179"/>
<path d="M114.973 12.5469C110.455 2.2302 81.7644 -2.22061 70.8073 8.84745C52.0218 27.8232 55.0361 35.7545 49.3398 68.0826" stroke="#0B66FA" stroke-width="3" stroke-dasharray="6 5"/>
<g style="mix-blend-mode:multiply">
<path d="M132.418 68.8227C141.445 71.1643 163.138 63.3712 163.138 63.3712L159.117 58.2432C150.735 60.8645 142.203 62.7007 133.418 63.9372C133.046 65.5579 132.711 67.1852 132.418 68.8227Z" fill="#C9C9C9"/>
</g>
<path d="M20.3398 89.0987C20.3398 90.1062 20.8586 90.9956 21.647 91.5145C22.1146 91.8211 22.6709 91.9997 23.2749 91.9997H89.0041C90.6252 91.9997 91.9426 90.7025 91.9426 89.0987C91.9426 88.5934 91.8129 88.125 91.5843 87.7106C91.3556 87.2962 91.028 86.9458 90.6321 86.6863C90.1646 86.3797 89.6082 86.2012 89.0041 86.2012H23.2784C21.6538 86.2012 20.3398 87.4983 20.3398 89.0987Z" fill="#3648CE"/>
<path d="M20.3398 89.0986C20.3398 90.106 20.8586 90.9955 21.647 91.5144C22.1146 91.821 22.6709 91.9996 23.2749 91.9996H89.0041C90.6252 91.9996 91.9426 90.7024 91.9426 89.0986H20.3398Z" fill="#D7DBF8"/>
<path d="M78.0075 81.3563C78.1065 81.4237 78.2191 81.4742 78.342 81.5113C78.4648 81.5484 78.5843 81.5652 78.7072 81.5652H79.9597C80.0553 81.5652 80.144 81.5046 80.1713 81.4102C80.1986 81.3159 80.1611 81.2182 80.0792 81.1643L75.2943 78.0881C75.1782 78.014 75.0519 77.9567 74.9086 77.9197C74.7687 77.8826 74.6287 77.8725 74.4922 77.8826L73.5332 77.9534C73.4411 77.9601 73.3591 78.0241 73.3353 78.1151C73.3114 78.206 73.3489 78.3038 73.4274 78.3509L78.0075 81.3563Z" fill="#2939B4"/>
<path d="M121.52 43.7379C123.789 47.589 126.359 51.2042 129.134 54.678C130.68 56.6086 132.284 58.4953 133.936 60.3552C148.485 58.091 160.215 51.5984 168.31 39.2838C163.188 36.2413 158.317 32.9664 153.976 28.8828C150.56 33.2393 146.659 36.5311 142.314 38.8997C136.216 42.2218 129.25 43.7143 121.52 43.7379Z" fill="#C9F0DF"/>
<path d="M168.31 39.2842C160.215 51.6023 148.481 58.0915 133.932 60.3557C129.307 55.1535 125.051 49.7323 121.516 43.7418" stroke="#2CA66F" stroke-width="0.8383"/>
<path fill-rule="evenodd" clip-rule="evenodd" d="M134.295 59.3006C147.95 56.9657 158.868 50.9549 166.837 39.6274C162.298 36.8073 157.963 33.8255 154.039 30.2002C145.994 39.9408 135.718 44.1524 123.121 44.6106C126.367 49.8767 130.193 54.6611 134.295 59.3006Z" stroke="#0B66FA" stroke-width="1.4999"/>
<path d="M148.279 51.9085C146.487 51.9085 144.549 51.4469 142.962 50.6417C141.119 49.7084 139.672 47.9463 139.436 46.356C139.286 45.3351 139.637 44.4119 140.48 43.6167C142.067 42.1174 144.364 41.2549 146.781 41.2549C147.955 41.2549 149.122 41.4671 150.153 41.8681C151.931 42.5588 153.473 44.0615 154.088 45.6956C154.405 46.5446 154.63 47.8485 153.893 49.2535C152.542 51.4469 150.098 51.9085 148.279 51.9085Z" fill="#C9F0DF"/>
<path fill-rule="evenodd" clip-rule="evenodd" d="M148.279 51.9085C146.487 51.9085 144.549 51.4469 142.962 50.6417C141.119 49.7084 139.672 47.9463 139.436 46.356C139.286 45.3351 139.637 44.4119 140.48 43.6167C142.067 42.1174 144.364 41.2549 146.781 41.2549C147.955 41.2549 149.122 41.4671 150.153 41.8681C151.931 42.5588 153.473 44.0615 154.088 45.6956C154.405 46.5446 154.63 47.8485 153.893 49.2535C152.542 51.4469 150.098 51.9085 148.279 51.9085Z" stroke="#0B66FA" stroke-width="1.9048"/>
<path d="M148.532 47.9892C148.552 47.9555 148.556 47.9184 148.545 47.8746L148.354 47.1098C148.593 46.9986 148.788 46.8504 148.934 46.6617L149.197 47.7062C149.207 47.7466 149.231 47.7803 149.265 47.8005C149.3 47.8207 149.337 47.8241 149.381 47.814L149.846 47.6994C149.887 47.6893 149.921 47.6657 149.941 47.6354C149.962 47.6017 149.965 47.5647 149.955 47.5209L149.02 43.7911C149.009 43.7506 148.986 43.7169 148.951 43.6967C148.917 43.6765 148.88 43.6731 148.835 43.6833L148.231 43.8315C148.19 43.8416 148.163 43.8652 148.139 43.8989C148.119 43.9359 148.112 43.973 148.122 44.0101L148.286 44.6603C148.443 45.2904 148.375 45.7318 148.074 45.9878L147.61 44.1381C147.6 44.0977 147.576 44.064 147.542 44.0438C147.508 44.0236 147.47 44.0202 147.426 44.0303L146.962 44.1448C146.921 44.155 146.887 44.1785 146.866 44.2122C146.846 44.2459 146.842 44.283 146.853 44.3268L147.33 46.2405C147.064 46.2338 146.839 46.1293 146.648 45.9205C146.457 45.7116 146.313 45.4117 146.214 45.0141L146.088 44.5121C146.078 44.4717 146.054 44.4447 146.02 44.4211C145.982 44.4009 145.945 44.3942 145.907 44.4043L145.33 44.5458C145.289 44.5559 145.262 44.5761 145.242 44.6098C144.767 45.3342 144.091 46.2877 143.208 47.4737C143.177 47.5107 143.17 47.5512 143.18 47.5983L143.399 48.471C143.416 48.535 143.453 48.5721 143.511 48.5822C143.573 48.599 143.624 48.5788 143.661 48.5249C144.525 47.3895 145.167 46.5033 145.579 45.8733C145.767 46.3652 146.037 46.7392 146.388 46.9885C146.74 47.2378 147.143 47.3457 147.597 47.3086L147.784 48.0599C147.794 48.1004 147.818 48.1341 147.852 48.1543C147.887 48.1745 147.924 48.1779 147.969 48.1678L148.433 48.0532C148.48 48.0431 148.511 48.0229 148.532 47.9892Z" fill="#0B66FA"/>
<path d="M162.834 43.6808C164.097 42.2185 164.681 41.4503 165.749 39.8566C164.053 38.8223 163.244 38.2967 161.715 37.2354C162.179 39.8162 162.404 41.1066 162.834 43.6808Z" fill="#0B66FA"/>
<path d="M151.309 34.5497C152.548 33.3064 153.128 32.6494 154.189 31.2646C155.36 32.3327 155.984 32.8718 157.315 33.9432C154.923 34.3138 153.715 34.4351 151.309 34.5497Z" fill="#0B66FA"/>
<path d="M140.111 57.3288C138.039 57.8612 136.971 58.0802 134.793 58.4003C133.271 56.7392 132.555 55.9137 131.203 54.2695C134.152 55.4016 137.084 56.4056 140.111 57.3288Z" fill="#0B66FA"/>
<path opacity="0.63" d="M129.603 44.9033C127.661 45.1661 126.665 45.247 124.641 45.2908C125.647 46.8541 126.183 47.6493 127.34 49.2564C128.258 47.528 128.709 46.6553 129.603 44.9033Z" fill="#0B66FA"/>
<g style="mix-blend-mode:multiply">
<path d="M121.52 43.7387C123.789 47.5897 126.359 51.205 129.134 54.6787C135.233 51.2825 143.765 45.083 146.847 41.8822C145.045 41.0163 143.441 39.837 142.311 38.9004C136.216 42.2225 129.25 43.7151 121.52 43.7387Z" fill="#C9C9C9"/>
</g>
</g>
<defs>
<clipPath id="clip0_781_34683">
<rect width="184" height="92" fill="white" transform="translate(0.5)"/>
</clipPath>
</defs>
</svg>
