<svg width="103" height="92" viewBox="0 0 103 92" fill="none" xmlns="http://www.w3.org/2000/svg">
<g clip-path="url(#clip0_781_34699)">
<path opacity="0.7" d="M75.6884 85.4375H27.2691L2.58594 87.5411L29.619 91.8037L72.7045 92.0008L100.025 87.5559L75.6884 85.4375Z" fill="#E8EAF8"/>
<path d="M66.2381 63.2236L35.7757 63.3496L20.625 65.7015L35.9368 67.9294L66.3992 67.8035L81.5499 65.4515L66.2381 63.2236Z" fill="white" stroke="#DDE1FF" stroke-width="0.454565" stroke-miterlimit="10"/>
<path d="M30.6981 76.9686V90.1988L9.41016 86.8134V74.1055L30.6981 76.9686Z" fill="#DDE1FF" stroke="#DDE1FF" stroke-width="0.454565" stroke-miterlimit="10"/>
<path d="M71.4766 76.9686V90.1988L92.9757 86.8301V74.1055L71.4766 76.9686Z" fill="#DDE1FF" stroke="#DDE1FF" stroke-width="0.454565" stroke-miterlimit="10"/>
<path d="M71.4787 76.9688H30.6992V90.199H71.4787V76.9688Z" fill="#DDE1FF" stroke="#DDE1FF" stroke-width="0.454565" stroke-miterlimit="10"/>
<path d="M72.1428 70.7363H30.691L9.55859 74.0865L30.9114 77.47H72.3632L92.9789 74.1031L72.1428 70.7363Z" fill="white" stroke="#DDE1FF" stroke-width="0.454565" stroke-linecap="round" stroke-linejoin="round"/>
<path d="M20.625 65.7031V72.9238L35.9368 74.7498V67.7625L20.625 65.7031Z" fill="#DDE1FF" stroke="#DDE1FF" stroke-width="0.454565" stroke-miterlimit="10"/>
<path d="M81.5519 65.4531V72.759L66.2383 74.6683V67.681L81.5519 65.4531Z" fill="#DDE1FF" stroke="#DDE1FF" stroke-width="0.454565" stroke-miterlimit="10"/>
<path d="M35.9375 67.7631V74.7505L66.2388 74.669V67.6816L35.9375 67.7631Z" fill="#DDE1FF" stroke="#DDE1FF" stroke-width="0.454565" stroke-miterlimit="10"/>
<path d="M40.3095 90.0611L50.0599 77.3346L46.5283 74.7678L50.7655 67.4286L36.2148 63.6543L45.7264 63.6545L56.8213 67.4286L53.2674 74.5715L58.5362 77.3346L47.369 90.0611H40.3095Z" fill="white"/>
<path d="M51.5177 90.0611L62.9959 77.3994L56.7142 74.5623L60.2717 67.5435L47.6211 63.6543L53.2454 63.6545L64.1441 67.4286L60.5903 74.5715L67.335 77.3346L56.8735 90.0611H51.5177Z" fill="white"/>
<path d="M28.2184 2V33.3049H21.159C15.1121 33.3049 12.8626 41.2376 18.0094 44.4118L48.1572 63.0051C50.0881 64.1959 52.5255 64.1959 54.4564 63.0051L84.6043 44.4118C89.751 41.2376 87.5016 33.3049 81.4547 33.3049H74.5545V2" stroke="#5367FF" stroke-width="3" stroke-linecap="round"/>
<path d="M53.6883 34.436C53.7682 35.3105 54.0204 36.1828 54.46 37.0065C56.2254 40.312 60.3441 41.5638 63.6587 39.8032C66.1345 38.4879 67.4602 35.8643 67.237 33.243C67.1571 32.3685 66.9049 31.4951 66.4653 30.6714C64.6999 27.3659 60.5812 26.1141 57.2655 27.8747C54.7909 29.19 53.4651 31.8147 53.6883 34.436ZM64.59 31.6244C65.7781 33.8476 64.9335 36.6108 62.703 37.7957C60.4736 38.9806 57.7029 38.1384 56.5147 35.914C55.3266 33.6907 56.1711 30.9275 58.4016 29.7426C60.631 28.5577 63.4018 29.3999 64.59 31.6244Z" fill="#0B66FA"/>
<path d="M36.243 19.7065C36.3228 20.581 36.5751 21.4532 37.0147 22.277C38.7801 25.5825 42.8988 26.8343 46.2145 25.0737C48.6903 23.7584 50.0149 21.1348 49.7928 18.5135C49.713 17.639 49.4608 16.7656 49.0211 15.9418C47.2557 12.6364 43.1371 11.3846 39.8225 13.1452C37.3456 14.4604 36.0197 17.084 36.243 19.7065ZM47.1447 16.8948C48.3328 19.1181 47.4883 21.8824 45.2577 23.0662C43.0283 24.2511 40.2575 23.4088 39.0694 21.1844C37.8812 18.9612 38.7258 16.198 40.9563 15.0131C43.1868 13.8282 45.9565 14.6704 47.1447 16.8948Z" fill="#0B66FA"/>
<path d="M60.7567 16.8095L43.499 40.2535C43.0188 40.9053 42.0921 41.0461 41.4396 40.5684C40.786 40.0908 40.6448 39.1655 41.1238 38.5148L58.3815 15.0708C58.8605 14.419 59.7872 14.2782 60.4409 14.7559C61.0934 15.2335 61.2357 16.1576 60.7567 16.8095Z" fill="#0B66FA"/>
</g>
<defs>
<clipPath id="clip0_781_34699">
<rect width="103" height="92" fill="white"/>
</clipPath>
</defs>
</svg>
