<svg width="125" height="92" viewBox="0 0 125 92" fill="none" xmlns="http://www.w3.org/2000/svg">
<g clip-path="url(#clip0_781_34707)">
<path d="M100.579 41.4697L58.6992 69.9819L70.8868 88.0153L112.766 59.5031L100.579 41.4697Z" fill="#C9F0DF"/>
<path d="M99.7736 44.041L61.3711 70.186L71.6815 85.4417L110.084 59.2966L99.7736 44.041Z" fill="#0B66FA"/>
<path d="M99.2122 45.6836L63.0977 70.2709L72.2447 83.8051L108.359 59.2178L99.2122 45.6836Z" fill="#C9F0DF"/>
<path d="M90.0824 71.1888C93.2533 69.0299 93.8749 64.396 91.4707 60.8386C89.0665 57.2813 84.5469 56.1475 81.3759 58.3064C78.2049 60.4652 77.5834 65.0991 79.9876 68.6564C82.3918 72.2138 86.9114 73.3476 90.0824 71.1888Z" fill="#25B69A"/>
<path d="M99.4944 58.6979C100.615 57.9353 100.834 56.2979 99.9841 55.0407C99.1345 53.7836 97.5377 53.3826 96.4175 54.1452C95.2974 54.9079 95.0781 56.5452 95.9277 57.8024C96.7774 59.0596 98.3742 59.4605 99.4944 58.6979Z" fill="#0B66FA"/>
<path d="M75.0412 75.3483C76.1614 74.5856 76.3807 72.9483 75.531 71.6911C74.6814 70.4339 73.0845 70.033 71.9644 70.7956C70.8443 71.5582 70.625 73.1956 71.4746 74.4528C72.3243 75.7099 73.9211 76.1109 75.0412 75.3483Z" fill="#25B69A"/>
<path d="M118.093 66.4941H67.4883V88.2848H118.093V66.4941Z" fill="#C9F0DF"/>
<path d="M115.994 68.1738H69.5898V86.6081H115.994V68.1738Z" fill="#0B66FA"/>
<path d="M114.612 69.2119H70.9727V85.5661H114.612V69.2119Z" fill="#C9F0DF"/>
<path d="M92.7933 85.1759C96.625 85.1759 99.7311 81.6912 99.7311 77.3926C99.7311 73.0941 96.625 69.6094 92.7933 69.6094C88.9616 69.6094 85.8555 73.0941 85.8555 77.3926C85.8555 81.6912 88.9616 85.1759 92.7933 85.1759Z" fill="#0B66FA"/>
<path d="M107.564 80.1438C108.918 80.1438 110.015 78.9123 110.015 77.3932C110.015 75.8741 108.918 74.6426 107.564 74.6426C106.211 74.6426 105.113 75.8741 105.113 77.3932C105.113 78.9123 106.211 80.1438 107.564 80.1438Z" fill="#0B66FA"/>
<path d="M78.021 80.1438C79.3746 80.1438 80.4718 78.9123 80.4718 77.3932C80.4718 75.8741 79.3746 74.6426 78.021 74.6426C76.6675 74.6426 75.5703 75.8741 75.5703 77.3932C75.5703 78.9123 76.6675 80.1438 78.021 80.1438Z" fill="#25B69A"/>
<path d="M16.2602 43.0797C16.2079 43.1161 16.1516 43.1403 16.0872 43.1565C15.8377 43.209 15.5922 43.0474 15.5399 42.793C15.4393 42.3123 15.2421 41.7872 15.0972 41.6014C15.061 41.6418 15.0127 41.7064 14.9483 41.8155C14.3608 42.8414 13.6364 43.007 13.1535 42.8212C12.5539 42.591 12.0428 41.7347 12.401 40.0141C12.4694 39.6748 12.4774 39.4769 12.4654 39.3719C12.1635 39.5132 11.5559 40.0989 11.2339 40.8057C10.9804 41.355 10.6424 41.4479 10.405 41.4318C9.81744 41.3874 9.38684 40.6644 8.87174 38.8549C8.63028 38.7175 7.82945 38.4752 7.05679 38.3096C6.80729 38.2571 6.64632 38.0107 6.70266 37.7603C6.75497 37.5099 7.00045 37.3483 7.24996 37.4048C9.55184 37.8976 9.66854 38.2854 9.7289 38.4914L9.75707 38.5883C10.0589 39.6546 10.2883 40.1393 10.4211 40.3614C10.8436 39.493 11.9583 38.1682 12.8235 38.455C13.3507 38.6287 13.5117 39.2184 13.3064 40.208C13.065 41.3752 13.3265 41.8963 13.4835 41.9569C13.568 41.9892 13.8457 41.8842 14.1475 41.355C14.4574 40.8138 14.8195 40.5755 15.222 40.6401C15.9907 40.7653 16.3327 42.0578 16.4454 42.6072C16.4856 42.793 16.4051 42.9787 16.2562 43.0797H16.2602Z" fill="#E4ECF9"/>
<path d="M37.8007 59.996C37.8007 59.996 35.2936 58.8529 34.4243 55.2501L38.0542 43.1773C38.0542 43.1773 38.0542 41.3194 37.185 40.9922C36.3157 40.665 34.1386 41.9737 32.8307 42.523C31.5228 43.0683 28.0418 43.1773 24.4522 41.8687C20.8625 40.556 19.0114 42.3049 19.0114 42.3049L22.5246 56.1023C21.5829 59.5759 19.5547 60 19.5547 60C4.75341 66.5554 8.67304 83.9758 8.67304 83.9758C8.67304 87.203 17.5425 89.8204 28.4805 89.8204C28.5489 89.8204 28.6133 89.8204 28.6817 89.8204C28.7501 89.8204 28.8145 89.8204 28.8829 89.8204C39.8209 89.8204 48.6903 87.203 48.6903 83.9758C48.6903 83.9758 52.61 66.5554 37.8087 60L37.8007 59.996Z" fill="#0A4BFF"/>
<path d="M35.2934 55.8486H21.9851C21.6029 55.8486 21.293 56.1597 21.293 56.5434V57.0119C21.293 57.3956 21.6029 57.7066 21.9851 57.7066H35.2934C35.6757 57.7066 35.9856 57.3956 35.9856 57.0119V56.5434C35.9856 56.1597 35.6757 55.8486 35.2934 55.8486Z" fill="#DDE1FF"/>
<path d="M35.2934 53.6621H21.9851C21.6029 53.6621 21.293 53.9731 21.293 54.3568V54.8254C21.293 55.209 21.6029 55.5201 21.9851 55.5201H35.2934C35.6757 55.5201 35.9856 55.209 35.9856 54.8254V54.3568C35.9856 53.9731 35.6757 53.6621 35.2934 53.6621Z" fill="#DDE1FF"/>
<path d="M29.2736 67.6587C29.1207 67.6587 28.9677 67.6143 28.8309 67.5254C25.2332 65.1181 25.523 57.5328 25.5391 57.2097C25.5592 56.7654 25.9254 56.4221 26.3721 56.4423C26.8148 56.4624 27.1528 56.834 27.1367 57.2783C27.0522 59.2211 27.354 64.6052 29.7203 66.1885C30.0865 66.4349 30.1871 66.9317 29.9416 67.2992C29.7887 67.5295 29.5352 67.6547 29.2776 67.6547L29.2736 67.6587Z" fill="#DDE1FF"/>
<path d="M23.1031 62.3753C22.8456 62.3753 22.592 62.25 22.4391 62.0198C22.1936 61.6523 22.2942 61.1555 22.6604 60.9091C23.6021 60.279 23.8677 57.9808 23.8114 56.6761C23.7913 56.2359 24.1333 55.8603 24.576 55.8401C25.0106 55.8158 25.3889 56.1632 25.409 56.6034C25.4291 57.0397 25.5378 60.905 23.5458 62.2379C23.409 62.3308 23.256 62.3712 23.1031 62.3712V62.3753Z" fill="#DDE1FF"/>
<path d="M30.5051 72.0362C30.4729 71.9797 30.4326 71.9312 30.3964 71.8787L32.3723 71.8868L32.8552 70.1056L26.0945 70.0813H25.6719L24.2473 70.0732L23.696 72.2422L26.0864 72.2503C26.6257 72.2503 27.0563 72.3513 27.3822 72.5411C27.7082 72.7269 27.9416 72.9854 28.0865 73.3206C28.1066 73.3651 28.1106 73.4135 28.1267 73.458L24.1548 73.4418L23.6719 75.2311L28.175 75.2473C28.1388 75.3644 28.1106 75.4815 28.0583 75.5865C27.8974 75.9178 27.6559 76.1803 27.3299 76.3782C27.004 76.5761 26.5895 76.669 26.0864 76.669L23.9254 76.6609V78.2402L28.344 83.5273L31.3622 83.5395V83.4102L27.3903 78.5674C28.2636 78.4179 28.9638 78.1554 29.499 77.7798C30.0342 77.4001 30.4246 76.9194 30.6741 76.3338C30.8149 76.0066 30.9075 75.6431 30.9719 75.2554H32.3522L32.8271 73.4701L30.984 73.462C30.9035 72.9289 30.7506 72.4442 30.5051 72.0281V72.0362Z" fill="#F8CE4B"/>
<path d="M120.578 89.9531C121.218 89.9531 121.858 89.9531 122.498 89.9531" stroke="#E4ECF9" stroke-width="2.33268" stroke-linecap="round" stroke-linejoin="round"/>
<path d="M11.6445 89.9609C45.5167 90.0134 79.2843 90.0134 112.899 89.9609" stroke="#E4ECF9" stroke-width="2.33268" stroke-linecap="round" stroke-linejoin="round"/>
<path d="M2.5 89.9492C3.22034 89.9492 3.94471 89.9492 4.66505 89.9492" stroke="#E4ECF9" stroke-width="2.33268" stroke-linecap="round" stroke-linejoin="round"/>
<path d="M105.54 22.04C104.417 22.04 103.508 21.1594 103.508 20.081C103.508 19.0026 104.421 18.1221 105.54 18.1221C106.659 18.1221 107.572 19.0026 107.572 20.081C107.572 21.1594 106.659 22.04 105.54 22.04ZM105.54 18.7845C104.8 18.7845 104.196 19.3661 104.196 20.081C104.196 20.7959 104.8 21.3775 105.54 21.3775C106.281 21.3775 106.884 20.7959 106.884 20.081C106.884 19.3661 106.281 18.7845 105.54 18.7845Z" fill="#D6EBFD"/>
<path d="M27.7542 24.1703C26.4262 24.1703 25.3477 23.1282 25.3477 21.8478C25.3477 20.5675 26.4262 19.5254 27.7542 19.5254C29.0822 19.5254 30.1607 20.5675 30.1607 21.8478C30.1607 23.1282 29.0822 24.1703 27.7542 24.1703ZM27.7542 20.1918C26.8044 20.1918 26.0358 20.935 26.0358 21.8478C26.0358 22.7607 26.8085 23.5039 27.7542 23.5039C28.6999 23.5039 29.4725 22.7607 29.4725 21.8478C29.4725 20.935 28.6999 20.1918 27.7542 20.1918Z" fill="#D6EBFD"/>
<path d="M102.874 9.86418C102.355 9.86418 101.938 9.45624 101.938 8.95944C101.938 8.46263 102.359 8.05469 102.874 8.05469C103.389 8.05469 103.812 8.46263 103.812 8.95944C103.812 9.45624 103.389 9.86418 102.874 9.86418ZM102.874 8.71709C102.737 8.71709 102.625 8.82615 102.625 8.95944C102.625 9.09272 102.737 9.20178 102.874 9.20178C103.011 9.20178 103.124 9.09272 103.124 8.95944C103.124 8.82615 103.011 8.71709 102.874 8.71709Z" fill="#D6EBFD"/>
<path d="M97.4221 18.1025C96.903 18.1025 96.4844 17.6945 96.4844 17.1977C96.4844 16.7009 96.907 16.293 97.4221 16.293C97.9372 16.293 98.3597 16.7009 98.3597 17.1977C98.3597 17.6945 97.9372 18.1025 97.4221 18.1025ZM97.4221 16.9554C97.2853 16.9554 97.1726 17.0644 97.1726 17.1977C97.1726 17.331 97.2853 17.4401 97.4221 17.4401C97.5589 17.4401 97.6716 17.331 97.6716 17.1977C97.6716 17.0644 97.5589 16.9554 97.4221 16.9554Z" fill="#D6EBFD"/>
<path d="M37.3351 11.5121C36.7636 11.5121 36.3008 11.0678 36.3008 10.5185V6.019C36.3008 5.46969 36.7636 5.02539 37.3351 5.02539C37.9065 5.02539 38.3693 5.46969 38.3693 6.019V10.5185C38.3693 11.0678 37.9065 11.5121 37.3351 11.5121Z" fill="#D6EBFD"/>
<g opacity="0.4">
<path d="M102.374 30.875L100.209 32.6441C100.028 32.7895 99.7499 32.7572 99.5849 32.5714C99.4199 32.3856 99.432 32.115 99.6131 31.9655L101.778 30.1964C101.959 30.051 102.237 30.0833 102.402 30.2691C102.567 30.4549 102.555 30.7255 102.374 30.875Z" fill="#ED5EFC"/>
</g>
<path d="M24.3226 18.0873C22.9342 19.4 23.5218 22.296 25.6385 24.5498C27.7553 26.8076 30.5964 27.571 31.9848 26.2583L32.7534 25.5313L25.0832 17.3643L24.3226 18.0832V18.0873Z" fill="#FDAE3A"/>
<path d="M31.5297 24.2267L28.918 26.6946C29.8234 26.9692 30.6806 26.9733 31.3567 26.6703L32.6646 25.4344L31.5297 24.2227V24.2267Z" fill="#FDCF86"/>
<path d="M27.3086 25.9435C27.7593 26.2303 28.2181 26.4525 28.6648 26.614L31.3691 24.0613L30.3992 23.0273L27.3126 25.9476L27.3086 25.9435Z" fill="#FDCF86"/>
<path d="M25.1393 17.3149C23.7348 18.6438 24.3103 21.5519 26.4231 23.8057C28.5358 26.0595 31.393 26.8148 32.8015 25.4859C34.206 24.1571 33.6345 21.249 31.5178 18.9952C29.401 16.7374 26.5478 15.9861 25.1393 17.3149Z" fill="#FAEA5C"/>
<path d="M28.3516 16.8965L29.7279 25.948C30.577 26.1984 31.3859 26.2146 32.0458 25.9601L30.8949 18.3909C30.082 17.676 29.2007 17.1711 28.3516 16.8965Z" fill="#FFF3C3"/>
<path d="M29.436 25.85L28.0597 16.8065C27.6291 16.6934 27.2106 16.645 26.8203 16.6571L28.1201 25.2037C28.5587 25.4784 29.0014 25.6925 29.436 25.85Z" fill="#FFF3C3"/>
<path d="M25.8091 17.8159C24.63 18.9307 25.133 21.3945 26.9399 23.3211C28.7468 25.2437 31.1654 25.9021 32.3485 24.7832C33.5276 23.6685 33.0246 21.2046 31.2177 19.278C29.4108 17.3514 26.9922 16.6971 25.8131 17.8159H25.8091Z" fill="#FDAE3A"/>
<path d="M26.0618 18.0839C24.9712 19.1138 25.438 21.3878 27.1041 23.165C28.7701 24.9422 31.0036 25.548 32.0942 24.514C33.1848 23.4841 32.7179 21.2101 31.0519 19.4329C29.3858 17.6557 27.1524 17.0499 26.0618 18.0839Z" fill="#FAEA5C"/>
<path d="M28.543 17.7725L29.6174 24.8408C30.3458 25.0751 31.038 25.0872 31.5853 24.8529L30.712 19.1053C30.0239 18.4631 29.2673 18.0108 28.543 17.7765V17.7725Z" fill="#FDEDA9"/>
<path d="M29.3671 24.7484L28.2926 17.7003C27.9264 17.6033 27.5682 17.567 27.2422 17.5953L28.2403 24.1506C28.6105 24.4051 28.9928 24.603 29.3671 24.7484Z" fill="#FDEDA9"/>
<path d="M108.398 37.9836C109.609 39.466 112.526 39.0701 114.909 37.1031C117.295 35.1361 118.245 32.3411 117.034 30.8628L116.366 30.0469L107.73 37.1758L108.394 37.9877L108.398 37.9836Z" fill="#FDAE3A"/>
<path d="M114.984 31.1803L117.262 33.9592C117.596 33.0706 117.661 32.2143 117.403 31.5155L116.264 30.1221L114.984 31.1803Z" fill="#FDCF86"/>
<path d="M116.407 35.5187C116.721 35.0865 116.975 34.6422 117.164 34.206L114.806 31.3262L113.711 32.2309L116.403 35.5187H116.407Z" fill="#FDCF86"/>
<path d="M107.685 37.1141C108.913 38.6125 111.838 38.2329 114.225 36.2659C116.611 34.2988 117.549 31.4917 116.325 29.9932C115.098 28.4947 112.172 28.8744 109.786 30.8414C107.4 32.8084 106.462 35.6196 107.685 37.1141Z" fill="#FAEA5C"/>
<path d="M107.484 33.871L116.575 33.1036C116.881 32.2715 116.949 31.4597 116.744 30.7852L109.142 31.4274C108.378 32.1948 107.814 33.043 107.484 33.875V33.871Z" fill="#FFF3C3"/>
<path d="M116.457 33.3908L107.374 34.1582C107.233 34.5823 107.153 34.9983 107.145 35.3901L115.728 34.6631C116.03 34.243 116.276 33.8149 116.457 33.3867V33.3908Z" fill="#FFF3C3"/>
<path d="M108.228 36.4766C109.258 37.7328 111.741 37.3935 113.777 35.7173C115.813 34.0411 116.626 31.658 115.596 30.4019C114.566 29.1457 112.083 29.485 110.047 31.1612C108.01 32.8374 107.198 35.2205 108.228 36.4766Z" fill="#FDAE3A"/>
<path d="M108.507 36.2429C109.457 37.4062 111.751 37.0911 113.63 35.5401C115.509 33.9892 116.262 31.7959 115.308 30.6327C114.354 29.4694 112.065 29.7845 110.185 31.3355C108.306 32.8824 107.553 35.0797 108.507 36.2429Z" fill="#FAEA5C"/>
<path d="M108.363 33.734L115.462 33.1322C115.744 32.4173 115.804 31.7266 115.607 31.1611L109.836 31.6499C109.152 32.2961 108.649 33.0231 108.367 33.734H108.363Z" fill="#FDEDA9"/>
<path d="M115.354 33.377L108.275 33.9747C108.154 34.3382 108.094 34.6896 108.098 35.0208L114.682 34.4635C114.959 34.108 115.185 33.7405 115.354 33.377Z" fill="#FDEDA9"/>
<path d="M57.3995 5.83131C57.4599 8.17396 60.2849 10.0037 63.7136 9.91883C67.1422 9.82997 69.8747 7.85892 69.8144 5.51626L69.7822 4.21973L57.3633 4.54285L57.3955 5.82727L57.3995 5.83131Z" fill="#FDAE3A"/>
<path d="M67.8008 4.27308L67.9135 8.67565C68.8109 8.07383 69.4468 7.29429 69.6963 6.42993L69.6399 4.22461L67.8008 4.27308Z" fill="#FDCF86"/>
<path d="M66.1015 9.53104C66.6689 9.35333 67.1921 9.11906 67.6589 8.84037L67.5422 4.28027L65.9688 4.32066L66.1015 9.53104Z" fill="#FDCF86"/>
<path d="M57.3643 4.4541C57.4247 6.82503 60.2537 8.67896 63.6824 8.5901C67.1111 8.50124 69.8436 6.50998 69.7832 4.13906C69.7228 1.76813 66.8938 -0.0857938 63.4651 0.00306546C60.0364 0.0919247 57.304 2.08318 57.3643 4.4541Z" fill="#FAEA5C"/>
<path d="M59.3945 1.1787L67.8937 7.32614C68.7267 6.75664 69.3384 6.02961 69.6161 5.21776L62.5093 0.0800781C61.3181 0.237601 60.2476 0.62939 59.3945 1.18274V1.1787Z" fill="#FFF3C3"/>
<path d="M67.5959 7.51547L59.1047 1.37207C58.6942 1.675 58.3401 2.01428 58.0664 2.38587L66.0908 8.19C66.6381 8.01632 67.1451 7.78609 67.5959 7.51547Z" fill="#FFF3C3"/>
<path d="M58.2743 4.25238C58.3226 6.24363 60.7372 7.79867 63.6588 7.72597C66.5844 7.65326 68.9145 5.97706 68.8621 3.9858C68.8139 1.99455 66.3993 0.439512 63.4777 0.512215C60.552 0.584918 58.222 2.26113 58.2743 4.25238Z" fill="#FDAE3A"/>
<path d="M58.6843 4.24384C58.7326 6.08161 60.958 7.51951 63.6583 7.45085C66.3585 7.38218 68.5075 5.83523 68.4632 3.99746C68.4149 2.15969 66.1895 0.721782 63.4892 0.790446C60.789 0.85911 58.64 2.40607 58.6843 4.24384Z" fill="#FAEA5C"/>
<path d="M60.2578 1.71587L66.8938 6.51427C67.6262 6.0417 68.1494 5.41969 68.3587 4.72497L62.9621 0.823242C61.9239 0.924219 60.9902 1.24734 60.2578 1.71587Z" fill="#FDEDA9"/>
<path d="M66.6375 6.67202L60.0176 1.88574C59.6674 2.14424 59.3737 2.43909 59.1523 2.75818L65.3095 7.20922C65.7964 7.07593 66.2391 6.89417 66.6375 6.67202Z" fill="#FDEDA9"/>
<path d="M45.3281 13.4359C45.3281 12.7556 45.8796 12.2041 46.5599 12.2041C47.2403 12.2041 47.7918 12.7556 47.7918 13.4359V20.8631C47.7918 21.5434 47.2403 22.0949 46.5599 22.0949C45.8796 22.0949 45.3281 21.5434 45.3281 20.8631V13.4359Z" fill="#0A4BFF"/>
<path d="M82.7689 5.03223H52.7313C49.1884 5.03223 46.3164 7.90427 46.3164 11.4471V83.1836C46.3164 86.7265 49.1884 89.5985 52.7313 89.5985H82.7689C86.3118 89.5985 89.1838 86.7265 89.1838 83.1836V11.4471C89.1838 7.90427 86.3118 5.03223 82.7689 5.03223Z" fill="#0A4BFF"/>
<path d="M82.9487 6.02148H52.5493C49.6506 6.02148 47.3008 8.37134 47.3008 11.27V83.361C47.3008 86.2597 49.6506 88.6096 52.5493 88.6096H82.9487C85.8474 88.6096 88.1973 86.2597 88.1973 83.361V11.27C88.1973 8.37134 85.8474 6.02148 82.9487 6.02148Z" fill="white"/>
<path opacity="0.3" d="M72.4275 7.50488H62.5766C62.3034 7.50488 62.082 7.7263 62.082 7.99942V7.99942C62.082 8.27255 62.3034 8.49396 62.5766 8.49396H72.4275C72.7006 8.49396 72.922 8.27255 72.922 7.99942C72.922 7.7263 72.7006 7.50488 72.4275 7.50488Z" fill="#0A4BFF"/>
<path d="M89.6769 16.4072H88.6914V25.8035H89.6769V16.4072Z" fill="#0A4BFF"/>
<path d="M89.6769 27.7812H88.6914V37.1775H89.6769V27.7812Z" fill="#423DB6"/>
<mask id="mask0_781_34707" style="mask-type:alpha" maskUnits="userSpaceOnUse" x="47" y="6" width="42" height="83">
<path d="M82.9448 6H52.5454C49.6467 6 47.2969 8.34985 47.2969 11.2485V83.3396C47.2969 86.2383 49.6467 88.5881 52.5454 88.5881H82.9448C85.8435 88.5881 88.1934 86.2383 88.1934 83.3396V11.2485C88.1934 8.34985 85.8435 6 82.9448 6Z" fill="white"/>
</mask>
<g mask="url(#mask0_781_34707)">
<path d="M107.92 2.25748L100.266 -5.86816L27.5854 63.1044L35.2402 71.2301L107.92 2.25748Z" fill="white" fill-opacity="0.8"/>
<path d="M102.662 -9.84116L101.746 -10.8135L29.0659 58.1591L29.9818 59.1314L102.662 -9.84116Z" fill="white" fill-opacity="0.8"/>
<path d="M113.948 25.9362L100.758 11.9346L28.0776 80.9072L41.2678 94.9088L113.948 25.9362Z" fill="white" fill-opacity="0.8"/>
<path d="M63.0386 54.9817L56.9721 48.9151L54.9062 50.9664L63.0386 59.0988L80.4963 41.6411L78.445 39.5898L63.0386 54.9817Z" fill="#46BD88"/>
</g>
</g>
<defs>
<clipPath id="clip0_781_34707">
<rect width="124" height="92" fill="white" transform="translate(0.5)"/>
</clipPath>
</defs>
</svg>
