<svg width="185" height="64" viewBox="0 0 185 64" fill="none" xmlns="http://www.w3.org/2000/svg">
<g clip-path="url(#clip0_781_34691)">
<mask id="mask0_781_34691" style="mask-type:luminance" maskUnits="userSpaceOnUse" x="126" y="2" width="59" height="60">
<path d="M184.5 2.90527H126.395V61.0105H184.5V2.90527Z" fill="white"/>
</mask>
<g mask="url(#mask0_781_34691)">
<path d="M155.034 30.8948C158.879 30.8948 162.209 29.5156 164.93 26.7946C167.65 24.0741 169.029 20.7453 169.029 16.8996C169.029 13.0552 167.65 9.72597 164.929 7.00452C162.208 4.28439 158.879 2.90527 155.034 2.90527C151.189 2.90527 147.86 4.28439 145.139 7.00496C142.419 9.72553 141.039 13.0548 141.039 16.8996C141.039 20.7453 142.419 24.0745 145.14 26.7951C147.861 29.5152 151.19 30.8948 155.034 30.8948Z" fill="#0A4BFF"/>
<path d="M179.52 47.5856C179.441 46.4534 179.283 45.2184 179.049 43.9142C178.813 42.6002 178.51 41.3581 178.146 40.2228C177.771 39.0493 177.26 37.8905 176.629 36.78C175.973 35.6274 175.204 34.6238 174.34 33.7979C173.437 32.9339 172.332 32.2393 171.053 31.7326C169.779 31.2285 168.367 30.9732 166.857 30.9732C166.264 30.9732 165.69 31.2166 164.582 31.9378C163.9 32.3824 163.103 32.8967 162.213 33.4654C161.452 33.9504 160.421 34.4048 159.147 34.8162C157.904 35.2183 156.643 35.4222 155.397 35.4222C154.152 35.4222 152.891 35.2183 151.647 34.8162C150.375 34.4053 149.344 33.9509 148.583 33.4659C147.702 32.9024 146.904 32.3882 146.212 31.9374C145.105 31.2161 144.531 30.9727 143.938 30.9727C142.427 30.9727 141.016 31.2285 139.742 31.733C138.464 32.2388 137.358 32.9335 136.455 33.7984C135.591 34.6247 134.821 35.6279 134.167 36.78C133.536 37.8905 133.026 39.0489 132.65 40.2232C132.287 41.3585 131.983 42.6002 131.747 43.9142C131.513 45.2166 131.355 46.4521 131.276 47.5869C131.199 48.6988 131.16 49.8527 131.16 51.0181C131.16 54.0512 132.124 56.5067 134.026 58.3176C135.904 60.1046 138.388 61.0111 141.41 61.0111H169.388C172.409 61.0111 174.893 60.105 176.771 58.3176C178.673 56.508 179.637 54.0521 179.637 51.0177C179.637 49.8469 179.597 48.6921 179.52 47.5856Z" fill="#0A4BFF"/>
</g>
<path d="M116.708 31.9579C116.708 32.3935 116.61 32.8236 116.421 33.2163C116.233 33.6089 115.958 33.9541 115.618 34.2262L101.092 45.8467C100.665 46.1889 100.15 46.4034 99.6061 46.4655C99.0622 46.5276 98.5119 46.4348 98.0185 46.1977C97.5251 45.9606 97.1087 45.589 96.8173 45.1256C96.5259 44.6622 96.3714 44.1259 96.3716 43.5785V34.8631H90.5613C89.7908 34.8631 89.0519 34.557 88.5071 34.0122C87.9623 33.4674 87.6562 32.7284 87.6562 31.9579C87.6562 31.1874 87.9623 30.4485 88.5071 29.9037C89.0519 29.3589 89.7908 29.0528 90.5613 29.0528H96.3716V20.3374C96.3714 19.79 96.5259 19.2537 96.8173 18.7903C97.1087 18.3269 97.5251 17.9552 98.0185 17.7182C98.5119 17.4811 99.0622 17.3883 99.6061 17.4504C100.15 17.5125 100.665 17.727 101.092 18.0692L115.618 29.6897C115.958 29.9618 116.233 30.307 116.421 30.6996C116.61 31.0923 116.708 31.5223 116.708 31.9579Z" fill="#0B66FA"/>
<path d="M69.8193 0H18.8563C14.3535 0 10.7031 3.68589 10.7031 8.23261L11.0304 8.48122H61.091C65.6147 8.48122 69.2819 12.1502 69.2819 16.6762V52.7437L69.8195 53.1522C74.3223 53.1522 77.9727 49.4663 77.9727 44.9196V8.23276C77.9725 3.68589 74.3222 0 69.8193 0Z" fill="#DDE1FF"/>
<path d="M2.01172 17.5488H69.2812V26.6529H2.01172V17.5488Z" fill="#DDE1FF"/>
<path d="M19.547 52.3811C24.2846 52.3811 28.1252 48.5031 28.1252 43.7193C28.1252 38.9356 24.2846 35.0576 19.547 35.0576C14.8093 35.0576 10.9688 38.9356 10.9688 43.7193C10.9688 48.5031 14.8093 52.3811 19.547 52.3811Z" fill="#DDE1FF"/>
<path d="M61.0898 6.96875H10.2061C4.8541 6.96875 0.5 11.3228 0.5 16.6747V53.4413C0.5 58.7931 4.8541 63.1472 10.2061 63.1472H61.0898C66.4417 63.1472 70.7958 58.7931 70.7958 53.4413V16.6747C70.7957 11.3228 66.4417 6.96875 61.0898 6.96875ZM67.7694 53.4414C67.7694 57.1246 64.7729 60.1211 61.0897 60.1211H10.2061C6.5228 60.1211 3.52631 57.1246 3.52631 53.4414V16.6748C3.52631 12.9917 6.5228 9.9952 10.2061 9.9952H61.0898C64.773 9.9952 67.7695 12.9917 67.7695 16.6748L67.7694 53.4414Z" fill="#0A4BFF"/>
<path d="M60.3249 40.415H42.2826C41.4471 40.415 40.7695 41.0925 40.7695 41.9282V52.3812C40.7695 53.2169 41.4471 53.8944 42.2826 53.8944H60.3247C61.1603 53.8944 61.8379 53.2169 61.8379 52.3812V41.9282C61.838 41.0925 61.1604 40.415 60.3249 40.415ZM58.8117 50.8681H43.7959V43.4413H58.8117V50.8681Z" fill="#0A4BFF"/>
<path d="M60.321 33.5439H36.5562C35.7206 33.5439 35.043 34.2214 35.043 35.0571C35.043 35.8928 35.7206 36.5702 36.5562 36.5702H60.321C61.1566 36.5702 61.8342 35.8928 61.8342 35.0571C61.8342 34.2214 61.1566 33.5439 60.321 33.5439Z" fill="#0A4BFF"/>
</g>
<defs>
<clipPath id="clip0_781_34691">
<rect width="184" height="64" fill="white" transform="translate(0.5)"/>
</clipPath>
</defs>
</svg>
