<svg width="120" height="121" viewBox="0 0 120 121" fill="none" xmlns="http://www.w3.org/2000/svg">
<g clip-path="url(#clip0_781_34963)">
<path d="M60 120.38C93.1371 120.38 120 93.517 120 60.3799C120 27.2428 93.1371 0.379883 60 0.379883C26.8629 0.379883 0 27.2428 0 60.3799C0 93.517 26.8629 120.38 60 120.38Z" fill="white"/>
<path fill-rule="evenodd" clip-rule="evenodd" d="M52.1167 32.6141C53.2876 31.5862 54.6619 30.3799 56.5714 30.3799C58.479 30.3799 59.8502 31.5836 61.0203 32.6108L61.0392 32.6274C62.2134 33.6581 63.2419 34.5285 64.2305 34.6782C65.208 34.8261 67.1201 33.8294 68.9577 32.8555C69.8766 32.3685 70.7801 31.9061 71.7723 31.7589C72.7646 31.6118 73.9913 32.015 74.6225 33.0271C75.5363 34.4924 75.1361 36.2321 74.3002 37.6706C73.4643 39.1092 72.1735 40.4585 70.8223 41.6718C69.4251 42.9263 68.6425 43.4417 67.8003 43.9963C67.6087 44.1225 67.414 44.2507 67.2083 44.3901C68.4355 44.8441 69.4286 45.8139 69.4286 47.19C69.4286 48.3979 68.6381 49.2592 67.6415 49.8079C71.0148 52.0008 73.8363 55.4876 75.9408 59.4968C76.7728 61.0816 77.4967 62.7418 78.0984 64.4295C77.7367 64.3967 77.3703 64.3799 77 64.3799C76.5997 64.3799 76.204 64.3995 75.8138 64.4378C75.3031 63.0875 74.7107 61.7612 74.0449 60.4929C71.5829 55.8027 68.115 51.9585 64.2912 50.4043H48.8496C45.0258 51.9585 41.56 55.8027 39.0979 60.4929C36.6068 65.2384 35.1429 70.7965 35.1429 75.3799C35.1429 81.3036 37.3441 84.2472 41.1194 86.0356C44.8947 87.824 50.4014 88.237 56.5714 88.237C62.0492 88.237 67.0025 87.9115 70.6869 86.587C71.4978 87.0896 72.3731 87.4983 73.2976 87.7979C73.1796 87.8578 73.0604 87.9163 72.94 87.9734C68.5719 90.0426 62.8278 90.3799 56.5714 90.3799C50.3151 90.3799 44.5709 90.0426 40.2028 87.9734C35.8348 85.9041 33 81.8826 33 75.3799C33 70.3482 34.5521 64.5409 37.1999 59.4968C39.3045 55.4875 42.1279 52.0008 45.5014 49.8079C44.5047 49.2592 43.7143 48.3979 43.7143 47.19C43.7143 45.8139 44.7074 44.8441 45.9346 44.3901C45.7273 44.2496 45.5311 44.1205 45.3379 43.9934C44.497 43.44 43.7134 42.9243 42.3185 41.6718C40.9673 40.4585 39.6764 39.1092 38.8405 37.6706C38.0046 36.2321 37.6045 34.4924 38.5183 33.0271C39.1494 32.015 40.3762 31.6118 41.3684 31.7589C42.3607 31.9061 43.2642 32.3685 44.183 32.8555C46.0207 33.8294 47.9328 34.8261 48.9103 34.6782C49.8989 34.5285 50.9273 33.6581 52.1016 32.6274L52.1167 32.6141ZM59.6267 34.2387C58.4825 33.2343 57.533 32.5228 56.5714 32.5228C55.6099 32.5228 54.6604 33.2343 53.5162 34.2387C53.4163 34.3264 53.3154 34.4161 53.2131 34.507C52.1436 35.4575 50.9266 36.5392 49.2305 36.7959C47.3247 37.0844 45.5872 36.1011 44.0549 35.2339C43.7556 35.0645 43.4641 34.8995 43.1807 34.7493C42.3135 34.2897 41.525 33.9485 41.0546 33.8788C41.0218 33.8739 40.9913 33.8693 40.9629 33.8649C40.582 33.8065 40.5601 33.8032 40.3368 34.1613C39.9577 34.7692 40.0548 35.4975 40.6925 36.595C41.3303 37.6925 42.4897 38.9457 43.7499 40.0772C46.1295 42.2139 48.6335 43.7873 48.9205 43.9677L48.9333 43.9757H64.2095L64.2212 43.9684C64.5025 43.7916 67.008 42.2168 69.3909 40.0772C70.651 38.9457 71.8105 37.6925 72.4482 36.595C73.086 35.4975 73.1831 34.7692 72.804 34.1613C72.5807 33.8032 72.5588 33.8065 72.1779 33.8649C72.1494 33.8693 72.1189 33.8739 72.0862 33.8788C71.6158 33.9485 70.8293 34.2897 69.9622 34.7493C69.6793 34.8992 69.3884 35.0639 69.0896 35.2329C67.5563 36.1004 65.8168 37.0845 63.9103 36.7959C62.2159 36.5394 61.0013 35.4597 59.9329 34.5098C59.8296 34.418 59.7276 34.3273 59.6267 34.2387ZM66.2143 46.1186H46.9286C46.3165 46.1186 45.8571 46.5779 45.8571 47.19C45.8571 47.8021 46.3165 48.2615 46.9286 48.2615H66.2143C66.8264 48.2615 67.2857 47.8021 67.2857 47.19C67.2857 46.5779 66.8264 46.1186 66.2143 46.1186Z" fill="#3D4159"/>
<path fill-rule="evenodd" clip-rule="evenodd" d="M59.3511 66.2726C59.2015 64.8236 58.4415 63.5557 57.3326 62.7305H61.1466C61.4227 62.7305 61.6466 62.5066 61.6466 62.2305C61.6466 61.9543 61.4227 61.7305 61.1466 61.7305H51.0219C50.9697 61.7305 50.9194 61.7384 50.8721 61.7533C50.6689 61.8168 50.5215 62.0065 50.5215 62.2306C50.5215 62.5067 50.7453 62.7306 51.0215 62.7306H54.3095C56.3781 62.7306 58.0861 64.2743 58.3443 66.2726H51.0219C50.6905 66.2726 50.4219 66.5412 50.4219 66.8726C50.4219 67.204 50.6905 67.4726 51.0219 67.4726H58.3226C58.0017 69.3992 56.3271 70.8678 54.3095 70.8678H51.0215C50.8163 70.8678 50.632 70.9931 50.5566 71.1838C50.4811 71.3746 50.5298 71.592 50.6794 71.7324L58.3116 78.8931C58.513 79.082 58.8294 79.072 59.0184 78.8706C59.2073 78.6692 59.1972 78.3528 58.9958 78.1638L52.2852 71.8678H54.3095C56.8805 71.8678 59.0044 69.9536 59.3338 67.4726H61.1466C61.4779 67.4726 61.7466 67.204 61.7466 66.8726C61.7466 66.5412 61.4779 66.2726 61.1466 66.2726H59.3511Z" fill="#0B66FA"/>
<path d="M57.3326 62.7305V62.2305C57.1171 62.2305 56.9258 62.3686 56.858 62.5732C56.7902 62.7778 56.8612 63.0029 57.0341 63.1316L57.3326 62.7305ZM59.3511 66.2726L58.8537 66.3239C58.88 66.5789 59.0948 66.7726 59.3511 66.7726V66.2726ZM58.3443 66.2726V66.7726C58.4881 66.7726 58.6249 66.7107 58.7199 66.6027C58.8148 66.4947 58.8586 66.3511 58.8402 66.2085L58.3443 66.2726ZM58.3226 67.4726L58.8158 67.5548C58.84 67.4098 58.7991 67.2615 58.7041 67.1494C58.6091 67.0373 58.4696 66.9726 58.3226 66.9726V67.4726ZM52.2852 71.8678V71.3678C52.08 71.3678 51.8957 71.4931 51.8202 71.6838C51.7448 71.8746 51.7935 72.092 51.9431 72.2324L52.2852 71.8678ZM59.3338 67.4726V66.9726C59.083 66.9726 58.8711 67.1583 58.8381 67.4068L59.3338 67.4726ZM57.0341 63.1316C58.0347 63.8762 58.719 65.0192 58.8537 66.3239L59.8484 66.2213C59.684 64.628 58.8483 63.2352 57.6312 62.3293L57.0341 63.1316ZM61.1466 62.2305H57.3326V63.2305H61.1466V62.2305ZM61.1466 62.2305V63.2305C61.6988 63.2305 62.1466 62.7827 62.1466 62.2305H61.1466ZM61.1466 62.2305H62.1466C62.1466 61.6782 61.6988 61.2305 61.1466 61.2305V62.2305ZM51.0213 62.2305H61.1466V61.2305H51.0219L51.0213 62.2305ZM51.0213 62.2305L51.0219 61.2305C50.9184 61.2305 50.8177 61.2463 50.7225 61.2762L51.0213 62.2305ZM51.0213 62.2305L50.7225 61.2762C50.3166 61.4031 50.0215 61.7816 50.0215 62.2306L51.0213 62.2305ZM51.0213 62.2305L50.0215 62.2306C50.0215 62.7829 50.4692 63.2306 51.0215 63.2306L51.0213 62.2305ZM54.3095 62.2306L51.0213 62.2305L51.0215 63.2306H54.3095V62.2306ZM58.8402 66.2085C58.5502 63.9642 56.6327 62.2306 54.3095 62.2306V63.2306C56.1235 63.2306 57.622 64.5845 57.8485 66.3367L58.8402 66.2085ZM51.0219 66.7726H58.3443V65.7726H51.0219V66.7726ZM50.9219 66.8726C50.9219 66.8174 50.9666 66.7726 51.0219 66.7726V65.7726C50.4144 65.7726 49.9219 66.2651 49.9219 66.8726H50.9219ZM51.0219 66.9726C50.9666 66.9726 50.9219 66.9278 50.9219 66.8726H49.9219C49.9219 67.4801 50.4144 67.9726 51.0219 67.9726V66.9726ZM58.3226 66.9726H51.0219V67.9726H58.3226V66.9726ZM54.3095 71.3678C56.5756 71.3678 58.4554 69.7184 58.8158 67.5548L57.8294 67.3905C57.548 69.0799 56.0787 70.3678 54.3095 70.3678V71.3678ZM51.0215 71.3678H54.3095V70.3678H51.0215V71.3678ZM51.0215 71.3678V70.3678C50.6112 70.3678 50.2426 70.6184 50.0916 70.9999L51.0215 71.3678ZM51.0215 71.3678L50.0916 70.9999C49.9407 71.3813 50.0381 71.8163 50.3373 72.097L51.0215 71.3678ZM58.6537 78.5285L51.0215 71.3678L50.3373 72.097L57.9695 79.2577L58.6537 78.5285ZM58.6537 78.5285L57.9695 79.2577C58.3723 79.6356 59.0051 79.6154 59.383 79.2127L58.6537 78.5285ZM58.6537 78.5285L59.383 79.2127C59.7609 78.8099 59.7407 78.1771 59.3379 77.7992L58.6537 78.5285ZM51.9431 72.2324L58.6537 78.5285L59.3379 77.7992L52.6273 71.5031L51.9431 72.2324ZM54.3095 71.3678H52.2852V72.3678H54.3095V71.3678ZM58.8381 67.4068C58.5413 69.6425 56.6265 71.3678 54.3095 71.3678V72.3678C57.1345 72.3678 59.4675 70.2646 59.8294 67.5384L58.8381 67.4068ZM61.1466 66.9726H59.3338V67.9726H61.1466V66.9726ZM61.2466 66.8726C61.2466 66.9278 61.2018 66.9726 61.1466 66.9726V67.9726C61.7541 67.9726 62.2466 67.4801 62.2466 66.8726H61.2466ZM61.1466 66.7726C61.2018 66.7726 61.2466 66.8174 61.2466 66.8726H62.2466C62.2466 66.2651 61.7541 65.7726 61.1466 65.7726V66.7726ZM59.3511 66.7726H61.1466V65.7726H59.3511V66.7726Z" fill="#0B66FA"/>
<mask id="mask0_781_34963" style="mask-type:luminance" maskUnits="userSpaceOnUse" x="67" y="66" width="20" height="21">
<path d="M87 66.3799H67V86.3799H87V66.3799Z" fill="white"/>
</mask>
<g mask="url(#mask0_781_34963)">
<path d="M83.0597 72.3334L84.2572 71.1359L83.0788 69.9572L81.7978 71.2382C80.6275 70.4089 79.2619 69.8978 77.8347 69.7549V68.0466H79.5013V66.3799H74.5013V68.0466H76.168V69.7549C74.7408 69.8978 73.3751 70.4089 72.2049 71.2382L70.9238 69.9572L69.7455 71.1359L70.943 72.3334C69.8252 73.5169 69.0785 75.0019 68.7952 76.605C68.5118 78.2081 68.7042 79.859 69.3486 81.354C69.993 82.849 71.0612 84.1225 72.4211 85.0172C73.7811 85.9119 75.3734 86.3888 77.0013 86.3888C78.6293 86.3888 80.2215 85.9119 81.5815 85.0172C82.9415 84.1225 84.0096 82.849 84.654 81.354C85.2984 79.859 85.4908 78.2081 85.2075 76.605C84.9241 75.0019 84.1775 73.5169 83.0597 72.3334ZM77.0013 84.7132C75.6828 84.7132 74.3939 84.3222 73.2975 83.5897C72.2012 82.8572 71.3467 81.816 70.8421 80.5978C70.3375 79.3796 70.2055 78.0392 70.4628 76.746C70.72 75.4528 71.3549 74.2649 72.2873 73.3325C73.2196 72.4002 74.4075 71.7652 75.7007 71.508C76.9939 71.2508 78.3344 71.3828 79.5526 71.8874C80.7707 72.392 81.8119 73.2464 82.5445 74.3428C83.277 75.4391 83.668 76.728 83.668 78.0466C83.666 79.8141 82.963 81.5086 81.7132 82.7584C80.4634 84.0082 78.7688 84.7112 77.0013 84.7132Z" fill="#3D4159"/>
<path d="M77 73.0469V78.0469H72C72 79.0358 72.2932 80.0025 72.8427 80.8248C73.3921 81.647 74.173 82.2879 75.0866 82.6663C76.0002 83.0448 77.0055 83.1438 77.9755 82.9509C78.9454 82.7579 79.8363 82.2817 80.5355 81.5825C81.2348 80.8832 81.711 79.9923 81.9039 79.0224C82.0969 78.0525 81.9978 77.0471 81.6194 76.1335C81.241 75.2199 80.6001 74.439 79.7779 73.8896C78.9556 73.3402 77.9889 73.0469 77 73.0469Z" fill="#0B66FA"/>
</g>
</g>
<defs>
<clipPath id="clip0_781_34963">
<rect width="120" height="120" fill="white" transform="translate(0 0.379883)"/>
</clipPath>
</defs>
</svg>
