<svg width="60" height="61" viewBox="0 0 60 61" fill="none" xmlns="http://www.w3.org/2000/svg">
<g clip-path="url(#clip0_781_34809)">
<mask id="mask0_781_34809" style="mask-type:luminance" maskUnits="userSpaceOnUse" x="0" y="0" width="60" height="61">
<path d="M60 0.5H0V60.5H60V0.5Z" fill="white"/>
</mask>
<g mask="url(#mask0_781_34809)">
<path d="M41.1465 50.8553C41.3008 50.5075 41.3872 50.1231 41.3872 49.7188C41.3872 48.1681 40.1254 46.9062 38.5747 46.9062H21.425C19.8742 46.9062 18.6125 48.1681 18.6125 49.7188C18.6125 50.123 18.699 50.5075 18.8532 50.8553C14.5336 51.4367 11.1914 55.1448 11.1914 59.6211C11.1914 60.1065 11.5848 60.5 12.0703 60.5H38.4691C39.6055 60.5 39.6055 58.7422 38.4691 58.7422H13.0033C13.4374 55.246 16.4272 52.5312 20.0389 52.5312H39.9607C43.5724 52.5312 46.5621 55.246 46.9962 58.7422H43.1151C41.9787 58.7422 41.9787 60.5 43.1151 60.5H47.9294C48.4149 60.5 48.8083 60.1065 48.8083 59.6211C48.8084 55.1448 45.4661 51.4367 41.1465 50.8553ZM38.5747 50.7735H21.425C20.8434 50.7735 20.3703 50.3003 20.3703 49.7188C20.3703 49.1372 20.8434 48.6641 21.425 48.6641H38.5748C39.1564 48.6641 39.6295 49.1372 39.6295 49.7188C39.6295 50.3003 39.1563 50.7735 38.5747 50.7735Z" fill="#24272C"/>
<path d="M19.2195 45.6758C19.8671 45.6758 20.3205 44.855 19.9458 44.3031L1.60611 17.2915C1.33341 16.8899 0.786735 16.7855 0.385253 17.0581C-0.0163462 17.3308 -0.12076 17.8773 0.151817 18.2789L18.4916 45.2905C18.6617 45.5409 18.9382 45.6758 19.2195 45.6758Z" fill="#24272C"/>
<path d="M59.6151 17.0581C59.2136 16.7855 58.6669 16.8899 58.3942 17.2915L40.0545 44.3031C39.4307 45.222 40.8862 46.2072 41.5088 45.2905L59.8485 18.2789C60.1212 17.8773 60.0167 17.3308 59.6151 17.0581Z" fill="#24272C"/>
<path d="M35.1938 38.7859L33.9222 42.1838C33.5348 43.2196 35.1688 43.8681 35.5686 42.7998L36.8402 39.402C37.0102 38.9474 36.7796 38.4409 36.325 38.2708C35.8704 38.1007 35.3641 38.3314 35.1938 38.7859Z" fill="#24272C"/>
<path d="M46.3286 8.08043C46.7544 8.22187 47.2968 7.95375 47.4397 7.52367L49.3901 1.65632C49.5432 1.19566 49.2939 0.698199 48.8332 0.545035C48.3723 0.392105 47.8751 0.641246 47.722 1.10179L45.7717 6.96914C45.6185 7.4298 45.8679 7.92726 46.3286 8.08043Z" fill="#24272C"/>
<path d="M23.7743 38.2708C23.3197 38.441 23.089 38.9473 23.259 39.402L24.5306 42.7999C24.9212 43.8434 26.5749 43.2475 26.1771 42.1838L24.9054 38.786C24.7351 38.3313 24.229 38.1008 23.7743 38.2708Z" fill="#24272C"/>
<path d="M12.6595 7.52361C13.0115 8.58228 14.6863 8.04825 14.3276 6.96919L12.3772 1.10185C12.224 0.641185 11.7266 0.392044 11.266 0.545091C10.8053 0.698255 10.556 1.19572 10.7092 1.65638L12.6595 7.52361Z" fill="#24272C"/>
<path d="M11.5789 13.8794C11.1596 15.171 12.0586 16.4339 12.9282 17.6553C14.2294 19.4834 14.2563 20.2067 12.9282 22.0724C10.7378 25.1492 11.4949 27.0156 14.9766 28.1752C17.0413 28.8627 17.443 29.3871 17.4625 31.6103C17.4951 35.2886 19.0491 36.5541 22.6693 35.418C24.7383 34.7688 25.3867 34.9126 26.6987 36.6925C28.9475 39.7439 31.0457 39.7504 33.2993 36.6925C34.5858 34.9472 35.2131 34.7539 37.3287 35.4181C40.931 36.5484 42.5028 35.2915 42.5355 31.6103C42.5546 29.4341 42.9138 28.877 45.0213 28.1752C48.5007 27.0164 49.2709 25.1642 47.07 22.0724C45.7686 20.2444 45.7418 19.5209 47.0699 17.6552C49.2602 14.5785 48.5032 12.712 45.0214 11.5525C42.9566 10.865 42.5549 10.3406 42.5354 8.11748C42.5028 4.4391 40.9488 3.17348 37.3286 4.30961C35.2598 4.95894 34.6113 4.81504 33.2992 3.03508C31.0504 -0.0162239 28.9522 -0.0227869 26.6986 3.03508C25.412 4.78047 24.7849 4.97371 22.6692 4.30961C19.067 3.17899 17.4951 4.43641 17.4624 8.11736C17.4433 10.2936 17.084 10.8507 14.9765 11.5526C13.5201 12.0376 12.0141 12.5392 11.5789 13.8794ZM13.2509 14.4222C13.4118 13.9264 14.5874 13.5349 15.5321 13.2204C18.2952 12.3002 19.1943 11.0718 19.2204 8.13283C19.2427 5.60991 19.7339 5.23093 22.143 5.98679C24.9395 6.86452 26.372 6.44135 28.1136 4.07805C29.6534 1.98872 30.3446 1.98872 31.8844 4.07805C33.6261 6.44135 35.0587 6.86463 37.855 5.98679C40.2642 5.23081 40.7555 5.61015 40.7776 8.13295C40.8038 11.0713 41.7375 12.3116 44.4658 13.2203C46.8478 14.0134 47.0992 14.5827 45.6378 16.6358C43.893 19.0868 43.8929 20.641 45.6379 23.0918C47.0994 25.1448 46.8478 25.7143 44.4658 26.5074C41.7028 27.4276 40.8038 28.6559 40.7776 31.5948C40.7554 34.1176 40.2642 34.4971 37.8551 33.741C35.0586 32.8633 33.6262 33.2863 31.8844 35.6497C30.3446 37.739 29.6534 37.739 28.1136 35.6497C26.3758 33.2917 24.931 32.8659 22.143 33.741C19.7337 34.4969 19.2426 34.1177 19.2204 31.5949C19.1943 28.6565 18.2606 27.4162 15.5322 26.5075C13.1502 25.7144 12.8989 25.1451 14.3602 23.092C16.105 20.641 16.105 19.0869 14.3602 16.6359C13.8303 15.8917 13.1047 14.8724 13.2509 14.4222Z" fill="#24272C"/>
<path d="M15.9967 24.4361C16.0825 24.6983 16.2865 24.905 16.5475 24.9943C19.5626 26.0258 20.9176 27.8964 20.9722 31.0857C21.0762 31.7378 21.4544 32.0131 22.1069 31.9115C25.2016 30.9695 27.3648 31.7021 29.2944 34.2901C29.764 34.7616 30.2338 34.7616 30.7035 34.2901C32.6297 31.7065 34.7932 30.9687 37.8909 31.9114C38.5434 32.0131 38.9217 31.7378 39.0257 31.0857C39.0802 27.9006 40.4314 26.0268 43.4504 24.9943C44.0393 24.6948 44.1848 24.25 43.887 23.6602C42.063 21.0423 42.0608 18.6886 43.887 16.0675C44.1848 15.4777 44.0393 15.0331 43.4504 14.7334C40.4352 13.702 39.0803 11.8312 39.0257 8.64204C38.9217 7.98978 38.5436 7.71462 37.8909 7.81634C34.7963 8.75805 32.6332 8.02587 30.7035 5.43757C30.2338 4.96612 29.764 4.96612 29.2944 5.43757C27.3683 8.02095 25.2046 8.75923 22.107 7.81634C21.4544 7.71462 21.0762 7.98978 20.9722 8.64204C20.9574 9.50301 20.9053 10.4197 20.6258 11.2902C20.4773 11.7524 20.7317 12.2473 21.1939 12.3958C21.6561 12.544 22.151 12.2897 22.2995 11.8275C22.5187 11.1446 22.6257 10.4516 22.6792 9.79633C25.5302 10.4718 28.1208 9.61082 29.999 7.38861C30.7341 8.25837 31.8036 9.27438 33.2848 9.75531C34.5972 10.1816 35.9924 10.1105 37.319 9.79621C37.5544 12.7126 39.123 14.8811 41.8283 16.003C40.3103 18.5096 40.3093 21.2167 41.8283 23.7247C39.1247 24.846 37.5545 27.0134 37.319 29.9315C34.4679 29.256 31.8773 30.1169 29.999 32.3391C28.111 30.1054 25.531 29.2558 22.679 29.9315C22.4436 27.0151 20.8749 24.8466 18.1697 23.7247C19.6876 21.2184 19.6887 18.5116 18.1703 16.0038C18.4371 15.8931 18.7117 15.7685 18.9865 15.6265C19.4177 15.4037 19.5866 14.8734 19.3638 14.4422C19.1408 14.0108 18.6101 13.842 18.1795 14.065C17.6229 14.3527 17.0422 14.5643 16.5477 14.7335C15.9588 15.0331 15.8133 15.4778 16.1111 16.0676C17.9352 18.6855 17.9373 21.0392 16.1111 23.6603C15.9532 23.8866 15.9109 24.174 15.9967 24.4361Z" fill="#24272C"/>
<path d="M6.72137 14.8474C7.2268 15.8303 8.80309 15.0515 8.28465 14.0435L6.75067 11.0611C6.52848 10.6293 5.99844 10.4595 5.56696 10.6816C5.13524 10.9036 4.96532 11.4335 5.18739 11.8651L6.72137 14.8474Z" fill="#24272C"/>
<path d="M3.10419 7.74115C3.60236 8.72857 5.18404 7.96158 4.67369 6.94943L1.66384 0.983182C1.44517 0.549823 0.916538 0.375799 0.483296 0.594354C0.0498197 0.813026 -0.124204 1.34154 0.094351 1.7749L3.10419 7.74115Z" fill="#24272C"/>
<path d="M52.0982 15.227C52.5061 15.4368 53.0709 15.2576 53.2819 14.8474L54.8159 11.865C55.038 11.4334 54.8679 10.9035 54.4363 10.6814C54.0047 10.4596 53.4748 10.6294 53.2526 11.061L51.7186 14.0434C51.4966 14.475 51.6665 15.0049 52.0982 15.227Z" fill="#24272C"/>
<path d="M55.7176 8.12998C56.1265 8.33635 56.6906 8.1526 56.8981 7.74115L59.9079 1.7749C60.1265 1.34154 59.9525 0.813026 59.5191 0.594354C59.0859 0.375799 58.5572 0.549823 58.3386 0.983182L55.3287 6.94943C55.1101 7.38279 55.2842 7.91142 55.7176 8.12998Z" fill="#24272C"/>
<path d="M34.8216 13.2347C34.429 12.9491 33.8793 13.0357 33.5937 13.4282L24.9809 25.2634C24.6952 25.6559 24.7819 26.2056 25.1744 26.4913C25.3305 26.6049 25.5115 26.6596 25.6908 26.6596C25.9624 26.6596 26.2302 26.5342 26.4022 26.2978L35.015 14.4626C35.3008 14.07 35.2141 13.5203 34.8216 13.2347Z" fill="#0B66FA"/>
<path d="M26.2812 13.0674C24.8274 13.0674 23.6445 14.2502 23.6445 15.7041C23.6445 17.158 24.8274 18.3408 26.2812 18.3408C27.735 18.3408 28.9179 17.158 28.9179 15.7041C28.9179 14.2502 27.7351 13.0674 26.2812 13.0674ZM26.2812 16.583C25.7965 16.583 25.4023 16.1888 25.4023 15.7041C25.4023 15.2194 25.7965 14.8252 26.2812 14.8252C26.7659 14.8252 27.1601 15.2194 27.1601 15.7041C27.1601 16.1888 26.7659 16.583 26.2812 16.583Z" fill="#0B66FA"/>
<path d="M31.0859 24.0234C31.0859 25.4774 32.2688 26.6602 33.7226 26.6602C35.1764 26.6602 36.3593 25.4774 36.3593 24.0234C36.3593 22.5695 35.1764 21.3867 33.7226 21.3867C32.2688 21.3867 31.0859 22.5696 31.0859 24.0234ZM34.6015 24.0234C34.6015 24.5081 34.2073 24.9023 33.7226 24.9023C33.2379 24.9023 32.8437 24.5081 32.8437 24.0234C32.8437 23.5387 33.2379 23.1445 33.7226 23.1445C34.2073 23.1445 34.6015 23.5389 34.6015 24.0234Z" fill="#0B66FA"/>
</g>
</g>
<defs>
<clipPath id="clip0_781_34809">
<rect width="60" height="60" fill="white" transform="translate(0 0.5)"/>
</clipPath>
</defs>
</svg>
