<svg width="120" height="121" viewBox="0 0 120 121" fill="none" xmlns="http://www.w3.org/2000/svg">
<g clip-path="url(#clip0_781_34951)">
<path d="M60 120.38C93.1371 120.38 120 93.517 120 60.3799C120 27.2428 93.1371 0.379883 60 0.379883C26.8629 0.379883 0 27.2428 0 60.3799C0 93.517 26.8629 120.38 60 120.38Z" fill="white"/>
<path d="M58.4455 73.4403C53.3832 79.7448 46.2457 79.6822 43.1022 78.8159C42.9906 78.7852 42.9115 78.6914 42.8939 78.577L41.0933 66.8733C41.0825 66.8029 41.097 66.731 41.1343 66.6704L48.399 54.8653C48.4389 54.8004 48.5021 54.7532 48.5756 54.7331L58.4973 52.0272C58.5728 52.0066 58.6372 51.9573 58.6769 51.8899L67.7179 36.5201C67.7918 36.3945 67.9454 36.3401 68.0819 36.3913L74.9775 38.9772C75.1213 39.0311 75.2825 38.9678 75.3512 38.8304L76.9271 35.6786C77.0069 35.519 77.2075 35.4639 77.3577 35.5604L89.7653 43.5367C89.8974 43.6217 89.9417 43.7942 89.8667 43.9322L72.5885 75.7606C72.5159 75.8943 72.3547 75.9525 72.2134 75.896L68.1021 74.2514C67.9572 74.1935 67.7921 74.2563 67.7223 74.3958L66.1472 77.5461C66.0681 77.7044 65.8699 77.7601 65.7198 77.6664L58.8446 73.3693C58.7142 73.2878 58.5418 73.3204 58.4455 73.4403Z" fill="white"/>
<path d="M52.1562 61.2256L54.0024 63.0718" stroke="#3D4159" stroke-width="1.2" stroke-linecap="round" stroke-linejoin="round"/>
<path d="M43.8438 79.6879C46.9207 79.9956 54.1822 79.3186 58.6129 74.1494L66.9207 63.9956C67.8438 62.7648 69.1361 59.934 66.9207 58.4571C65.9977 57.8417 63.413 57.534 60.4592 61.2263C59.2284 62.7648 56.213 65.2878 53.9976 63.0724" stroke="#3D4159" stroke-width="1.5" stroke-linecap="round" stroke-linejoin="round"/>
<path d="M41.0781 66.7643L48.4179 54.8372C48.4472 54.7895 48.4893 54.7511 48.5393 54.7261L54.0012 51.9951" stroke="#3D4159" stroke-width="1.5" stroke-linecap="round" stroke-linejoin="round"/>
<path d="M30.793 68.2062L38.9412 66.0567C39.6621 65.8665 40.4007 66.2967 40.5909 67.0176L44.2798 81.0008C44.47 81.7217 44.0397 82.4603 43.3188 82.6505L35.1706 84.8L30.793 68.2062Z" fill="white" stroke="#3D4159" stroke-width="1.3"/>
<path d="M54 59.3797L67.6924 35.6462C67.7767 35.5001 67.9648 35.4522 68.1087 35.5401L84.213 45.3816C84.3514 45.4663 84.3975 45.6456 84.317 45.7865L66.152 77.5752C66.0686 77.7212 65.8814 77.7701 65.7372 77.6836L61.3846 75.072" stroke="#0B66FA" stroke-width="1.5" stroke-linecap="round" stroke-linejoin="round"/>
<path d="M77.0749 35.3799L89.7636 43.5369C89.8957 43.6219 89.94 43.7944 89.865 43.9324L72.5979 75.7404C72.5207 75.8825 72.3447 75.9379 72.2001 75.8656L70.6133 75.0722" stroke="#0B66FA" stroke-width="1.5" stroke-linecap="round" stroke-linejoin="round"/>
<path d="M77.4727 47.6229C77.6813 47.2755 77.5529 46.8152 77.186 46.5949L71.4755 43.1667C71.1086 42.9464 70.642 43.0495 70.4334 43.3969C70.2248 43.7443 70.3532 44.2046 70.7202 44.4249L72.3546 45.4061C73.104 45.856 73.5103 46.6348 73.3967 47.4224L70.1064 45.4471C69.7395 45.2269 69.2729 45.3299 69.0643 45.6773C68.8558 46.0248 68.9842 46.485 69.3511 46.7053L72.6433 48.6818C72.4276 48.8536 72.1719 48.973 71.8961 49.031C71.3697 49.155 70.8044 49.0675 70.3246 48.7875L68.6902 47.8062C68.4219 47.6393 68.0837 47.6461 67.8394 47.8229C67.5953 48.0001 67.4958 48.3107 67.5894 48.6046L69.4812 54.709C69.6055 55.1079 70.0332 55.3488 70.4373 55.247C70.8413 55.1453 71.0682 54.7395 70.9441 54.3403L69.6155 50.0487C71.0849 50.8991 72.9137 50.6773 74.0286 49.5134L75.0616 50.1336C75.4285 50.3538 75.8951 50.2508 76.1036 49.9034C76.3122 49.5559 76.1838 49.0957 75.8169 48.8754L74.7833 48.2549C74.9179 47.8329 74.9593 47.3839 74.9042 46.9367L76.4306 47.8531C76.7975 48.0734 77.2641 47.9703 77.4727 47.6229Z" fill="#0B66FA"/>
</g>
<defs>
<clipPath id="clip0_781_34951">
<rect width="120" height="120" fill="white" transform="translate(0 0.379883)"/>
</clipPath>
</defs>
</svg>
